<?xml version="1.0" standalone="no"?>
<!DOCTYPE svg PUBLIC "-//W3C//DTD SVG 20010904//EN"
 "http://www.w3.org/TR/2001/REC-SVG-20010904/DTD/svg10.dtd">
<svg version="1.0" xmlns="http://www.w3.org/2000/svg"
 width="700.000000pt" height="700.000000pt" viewBox="0 0 700.000000 700.000000"
 preserveAspectRatio="xMidYMid meet">
<g transform="translate(0.000000,700.000000) scale(0.100000,-0.100000)"
fill="#000000" stroke="none">
<path d="M1490 5172 c0 -4 185 -192 410 -417 226 -225 410 -413 410 -416 0 -4
-12 -10 -27 -14 -16 -3 -70 -26 -122 -51 -258 -122 -452 -311 -562 -550 -113
-244 -143 -587 -78 -867 112 -478 494 -872 963 -993 156 -41 213 -44 796 -44
l565 0 -340 340 -340 340 -211 0 c-176 0 -223 3 -286 19 -124 32 -212 82 -304
175 -140 140 -198 279 -198 471 0 192 58 332 198 470 63 62 100 90 167 123
141 70 159 72 719 72 l495 0 -675 675 -675 675 -452 0 c-249 0 -453 -3 -453
-8z"/>
<path d="M3170 5172 c0 -4 150 -157 333 -340 l332 -332 211 0 c235 0 309 -12
425 -70 285 -141 432 -481 339 -785 -36 -114 -78 -183 -170 -276 -69 -70 -101
-94 -170 -128 -141 -69 -161 -71 -712 -71 -269 0 -488 -3 -488 -8 0 -4 300
-307 668 -675 l667 -667 455 0 455 0 -420 420 c-351 351 -416 420 -400 426
494 178 773 540 815 1054 52 640 -350 1226 -965 1405 -172 50 -245 55 -832 55
-299 0 -543 -3 -543 -8z"/>
</g>
</svg>
