<?xml version="1.0" encoding="UTF-8" standalone="no"?>
<svg
   xmlns:dc="http://purl.org/dc/elements/1.1/"
   xmlns:cc="http://creativecommons.org/ns#"
   xmlns:rdf="http://www.w3.org/1999/02/22-rdf-syntax-ns#"
   xmlns:svg="http://www.w3.org/2000/svg"
   xmlns="http://www.w3.org/2000/svg"
   style="fill:none"
   id="svg6"
   version="1.1"
   height="122"
   width="122">
  <metadata
     id="metadata12">
    <rdf:RDF>
      <cc:Work
         rdf:about="">
        <dc:format>image/svg+xml</dc:format>
        <dc:type
           rdf:resource="http://purl.org/dc/dcmitype/StillImage" />
        <dc:title></dc:title>
      </cc:Work>
    </rdf:RDF>
  </metadata>
  <defs
     id="defs10" />
  <path
     style="clip-rule:evenodd;fill:#798ce5;fill-rule:evenodd"
     id="path2"
     d="m 100.07055,10.12 c 0.085,0.1 0.136,0.226 0.147,0.357 0.053,0.646 4.735,64.669 -39.014996,79.58 a 0.627,0.627 0 0 1 -0.405,0 c -43.749,-14.911 -39.067,-78.934 -39.016,-79.58 a 0.629,0.629 0 0 1 0.474,-0.56 l 38.596,-9.407 a 0.647,0.647 0 0 1 0.297,0 l 38.593,9.408 c 0.128,0.03 0.243,0.101 0.328996,0.202 z m -7.103996,6.836 a 0.51,0.51 0 0 1 0.121,0.29 h 0.005 c 0.043,0.526 3.873,52.795 -31.926,64.966 a 0.46,0.46 0 0 1 -0.327,0 c -35.8,-12.171 -31.97,-64.44 -31.926,-64.967 a 0.507,0.507 0 0 1 0.387,-0.453 l 31.576,-7.685 a 0.5,0.5 0 0 1 0.244,0 l 31.58,7.685 a 0.51,0.51 0 0 1 0.266,0.164 z" />
  <path
     style="fill:#798ce5"
     id="path4"
     d="m 60.55,20.579 -21.054,5.12 a 0.345,0.345 0 0 0 -0.258,0.306 c -0.027,0.351 -2.58,35.198 21.283,43.313 a 0.363,0.363 0 0 0 0.22,0 C 84.605,61.201 82.053,26.356 82.024,26.003 a 0.34,0.34 0 0 0 -0.26,-0.304 L 60.711,20.577 a 0.312,0.312 0 0 0 -0.16,0 m -38.609,94.424 v -3.16 h 5.11 v 9.294 c -2.46,0.404 -4.456,0.606 -5.988,0.606 -2.736,0 -4.62,-0.746 -5.653,-2.238 -1.015,-1.492 -1.523,-3.862 -1.523,-7.109 0,-3.247 0.534,-5.59 1.6,-7.03 1.068,-1.439 2.883,-2.159 5.447,-2.159 1.6,0 3.33,0.185 5.188,0.553 l 0.93,0.185 -0.104,2.817 c -2.065,-0.228 -3.76,-0.343 -5.085,-0.343 -1.307,0 -2.228,0.158 -2.762,0.474 -0.533,0.316 -0.929,0.904 -1.187,1.764 -0.24,0.843 -0.361,2.3 -0.361,4.371 0,2.054 0.25,3.493 0.748,4.318 0.5,0.825 1.532,1.238 3.098,1.238 l 2.142,-0.106 v -3.475 z m 11.882,0.447 c 0,2.089 1.04,3.134 3.123,3.134 2.082,0 3.123,-1.045 3.123,-3.134 v -11.927 h 3.562 v 11.848 c 0,2.194 -0.559,3.809 -1.677,4.845 -1.102,1.018 -2.77,1.527 -5.008,1.527 -2.237,0 -3.915,-0.509 -5.033,-1.527 -1.102,-1.036 -1.652,-2.651 -1.652,-4.845 v -11.848 h 3.562 z m 11.884,5.977 3.95,-17.904 h 6.762 l 3.95,17.904 h -3.563 l -0.697,-3.238 h -6.143 l -0.697,3.238 z m 6.711,-14.902 -1.78,8.504 h 4.8 l -1.78,-8.504 z m 13.85,8.899 v 6.003 h -3.562 v -17.904 h 6.814 c 4.13,0 6.195,1.966 6.195,5.898 0,2.335 -0.86,4.055 -2.581,5.161 l 2.504,6.845 H 71.74 l -2.039,-6.003 h -3.433 z m 3.304,-3.107 c 0.843,0 1.471,-0.263 1.884,-0.79 0.413,-0.526 0.62,-1.22 0.62,-2.08 0,-0.86 -0.224,-1.544 -0.671,-2.053 -0.43,-0.509 -1.059,-0.764 -1.885,-0.764 H 66.27 v 5.687 h 3.304 z m 15.051,9.11 h -5.91 v -17.904 h 5.91 c 1.515,0 2.762,0.167 3.743,0.501 0.981,0.315 1.738,0.851 2.272,1.606 0.55,0.737 0.929,1.614 1.135,2.633 0.207,1 0.31,2.308 0.31,3.923 0,1.614 -0.094,2.957 -0.284,4.028 a 7.851,7.851 0 0 1 -1.084,2.843 c -0.516,0.825 -1.273,1.431 -2.271,1.817 -0.998,0.369 -2.272,0.553 -3.82,0.553 z m 3.743,-7.109 c 0.035,-0.561 0.052,-1.334 0.052,-2.317 0,-1 -0.035,-1.799 -0.103,-2.396 a 4.614,4.614 0 0 0 -0.49,-1.632 1.998,1.998 0 0 0 -1.162,-1.001 c -0.5,-0.193 -1.18,-0.289 -2.04,-0.289 h -2.349 v 11.585 h 2.35 c 1.29,0 2.228,-0.334 2.813,-1.001 0.499,-0.544 0.809,-1.527 0.93,-2.949 z m 5.083,7.109 3.95,-17.904 h 6.762 l 3.95,17.904 h -3.562 l -0.697,-3.238 h -6.144 l -0.697,3.238 z m 6.712,-14.902 -1.782,8.504 h 4.802 l -1.782,-8.504 h -1.239 z" />
</svg>
