<svg xmlns="http://www.w3.org/2000/svg" viewBox="0 0 123 25.999">
  <defs>
    <style>
      .cls-1 {
        fill: #21252a;
      }

      .cls-2 {
        fill: #0d80fe;
      }
    </style>
  </defs>
  <g id="资源_21" data-name="资源 21" transform="translate(-0.602 -0.093)">
    <g id="_16-copy-28" data-name="16-copy-28" transform="translate(0.602 0.093)">
      <g id="资源-21" transform="translate(0)">
        <path id="Shape" class="cls-1" d="M202.976,1.026a3.291,3.291,0,0,0-1.01-.685,3.177,3.177,0,0,0-2.46,0,3.219,3.219,0,0,0-1.7,1.7,3.175,3.175,0,0,0,0,2.46,3.29,3.29,0,0,0,.685,1.01,3.2,3.2,0,0,0,1.013.685,3.14,3.14,0,0,0,2.46,0,3.238,3.238,0,0,0,1.7-1.7,3.138,3.138,0,0,0,0-2.46A3.2,3.2,0,0,0,202.976,1.026Z" transform="translate(-96.654 -0.093)"/>
        <path id="Shape-2" data-name="Shape" class="cls-1" d="M84.373,18.232H79.536a.62.62,0,0,0-.564.356l-3.567,7.69a.31.31,0,0,1-.564,0l-3.536-7.69a.62.62,0,0,0-.564-.359H67.981a.62.62,0,0,0-.561.359l-3.53,7.436a.31.31,0,0,1-.564,0l-3.387-7.436a.62.62,0,0,0-.564-.363H54.5a.62.62,0,0,0-.552.9L61.5,33.863a.62.62,0,0,0,.552.338H65.1a.62.62,0,0,0,.57-.372l3.359-7.746a.31.31,0,0,1,.564,0l3.533,7.746a.62.62,0,0,0,.564.362h2.993a.62.62,0,0,0,.548-.332l7.7-14.729a.62.62,0,0,0-.552-.9Z" transform="translate(-26.588 -8.925)"/>
        <path id="Shape-3" data-name="Shape" class="cls-1" d="M134.736,19.647A5.754,5.754,0,0,0,132.7,18.1a6.936,6.936,0,0,0-2.879-.545,7.308,7.308,0,0,0-2.773.483,6.2,6.2,0,0,0-2.333,1.884v-1.4a.62.62,0,0,0-.62-.62h-4.4a.62.62,0,0,0-.62.62V33.252a.62.62,0,0,0,.62.62h4.4a.62.62,0,0,0,.62-.62v-7.91a3.557,3.557,0,0,1,.762-2.441,2.78,2.78,0,0,1,2.194-.858,3.1,3.1,0,0,1,1,.158,2.126,2.126,0,0,1,.84.527,2.383,2.383,0,0,1,.62,1.168,8.674,8.674,0,0,1,.17,1.915v7.436a.62.62,0,0,0,.62.62H135.3a.62.62,0,0,0,.62-.62V23.725a9.516,9.516,0,0,0-.248-2.274A4.455,4.455,0,0,0,134.736,19.647Z" transform="translate(-58.375 -8.596)"/>
        <rect id="Rectangle-path" class="cls-1" width="5.637" height="15.969" rx="2" transform="translate(101.28 9.307)"/>
        <path id="Shape-4" data-name="Shape" class="cls-2" d="M13.28,1.247a12.989,12.989,0,0,0-1.345.087.837.837,0,0,0-.741.83V7.639a.827.827,0,0,0,.31.644.837.837,0,0,0,.688.177,5.421,5.421,0,0,1,1.45-.1A5.779,5.779,0,0,1,18.867,13.7a5.578,5.578,0,0,1-11.156.167V4.946A1.333,1.333,0,0,0,5.543,3.9,12.706,12.706,0,1,0,13.29,1.247Z" transform="translate(-0.602 -0.655)"/>
        <path id="Shape-5" data-name="Shape" class="cls-1" d="M226.784,24.73a6.738,6.738,0,0,1-2.587.685,2.582,2.582,0,0,1-1.506-.359,1.441,1.441,0,0,1-.62-.9,7.474,7.474,0,0,1-.108-1.41V18.388h4.648a.62.62,0,0,0,.62-.62V14.246a.62.62,0,0,0-.62-.62h-4.648V9.58a.62.62,0,0,0-.62-.62l-7.2,7.346a.62.62,0,0,0-.18.434v1.029a.62.62,0,0,0,.62.62h1.859v5.6q0,5.819,5.953,5.815a11.752,11.752,0,0,0,2.885-.381,15.106,15.106,0,0,0,1.986-.62.62.62,0,0,0,.378-.573V25.319a.62.62,0,0,0-.855-.589Z" transform="translate(-104.64 -4.412)"/>
        <path id="Shape-6" data-name="Shape" class="cls-1" d="M165,10.438V2.62a.62.62,0,0,0-.62-.62h-4.382a.62.62,0,0,0-.62.62V18.344a8.359,8.359,0,1,0,8.354-8.381A8.731,8.731,0,0,0,165,10.438Zm6.154,9.357a4.009,4.009,0,0,1-.8,1.18,3.539,3.539,0,0,1-1.162.8,3.666,3.666,0,0,1-1.438.288,3.583,3.583,0,0,1-1.453-.31,3.951,3.951,0,0,1-1.193-.8,3.529,3.529,0,0,1-.8-1.165,3.717,3.717,0,0,1,.016-2.888,4.027,4.027,0,0,1,.8-1.2,3.508,3.508,0,0,1,1.162-.8,3.66,3.66,0,0,1,1.435-.285,3.542,3.542,0,0,1,1.472.31,3.964,3.964,0,0,1,1.178.815,3.733,3.733,0,0,1,1.088,2.649,3.374,3.374,0,0,1-.3,1.4Z" transform="translate(-78.026 -1.022)"/>
      </g>
    </g>
  </g>
</svg>
