<svg xmlns="http://www.w3.org/2000/svg" viewBox="0 0 80 80"><defs><style>.a{fill:#fff;}.b{fill:#70cbff;}.c{fill:#2970ff;}</style></defs><g transform="translate(-227 -2068)"><rect class="a" width="80" height="80" transform="translate(227 2068)"/><g transform="translate(-263 -557)"><g transform="translate(491 2643)"><g transform="translate(35.276 18.689)"><circle class="b" cx="3.246" cy="3.246" r="3.246"/></g><g transform="translate(0 19.541)"><rect class="c" width="4.842" height="4.842"/></g><g transform="translate(70.498 17.785)"><path class="c" d="M136.224,33.4l1.862,3.246L140,39.838h-7.5l1.862-3.192Z" transform="translate(-132.5 -33.4)"/></g><g transform="translate(9.098 21.137)"><rect class="b" width="22.719" height="1.649"/><g transform="translate(36.127)"><rect class="b" width="22.347" height="1.649"/></g></g><g transform="translate(16.633 0)"><path class="c" d="M32.133,36.115a.84.84,0,0,1-.851-.851c-.372-6.651,4.31-15.8,11.865-23.357C54,1,66.93-3.151,72.57,2.488a8.68,8.68,0,0,1,2.394,5.267.858.858,0,1,1-1.7.213,7.036,7.036,0,0,0-1.915-4.256C66.5-1.13,54.373,3.074,44.37,13.13c-7.236,7.236-11.705,15.855-11.333,22.027a.942.942,0,0,1-.9.958Z" transform="translate(-31.261 0.026)"/></g><g transform="translate(18.862 14.406)"><path class="c" d="M42.5,56.446a9.282,9.282,0,0,1-6.81-2.5.79.79,0,1,1,1.117-1.117c4.895,4.895,17.026.638,27.082-9.417,4.948-4.948,8.673-10.588,10.375-15.8a.808.808,0,0,1,1.543.479c-1.756,5.48-5.587,11.333-10.748,16.494C57.5,52.136,48.938,56.446,42.5,56.446Z" transform="translate(-35.45 -27.049)"/></g><g transform="translate(16.679 0.097)"><path class="c" d="M65.747,43.862c-6.385,0-14.951-4.31-22.559-11.918-8.3-8.3-12.982-18.409-11.6-25.06a.814.814,0,1,1,1.6.319c-1.277,6.065,3.3,15.8,11.173,23.623C54.414,40.882,66.6,45.086,71.44,40.244c2.288-2.288,2.607-6.332.958-11.333-1.756-5.214-5.427-10.8-10.375-15.749-9.1-9.1-20.218-13.568-25.8-10.375a.749.749,0,0,1-1.064-.319A.749.749,0,0,1,35.473,1.4c6.278-3.618,17.984.851,27.72,10.641,5.108,5.108,8.939,10.907,10.748,16.387,1.862,5.64,1.383,10.216-1.33,12.982A9.69,9.69,0,0,1,65.747,43.862Z" transform="translate(-31.348 -0.157)"/></g><g transform="translate(19.207 0.014)"><circle class="b" cx="1.969" cy="1.969" r="1.969" transform="translate(0 0)"/></g><g transform="translate(56.505 13.315)"><circle class="b" cx="1.969" cy="1.969" r="1.969"/></g><g transform="translate(15.536 33.268)"><circle class="b" cx="1.969" cy="1.969" r="1.969"/></g></g></g></g></svg>