<svg xmlns="http://www.w3.org/2000/svg" viewBox="0 0 80 80"><defs><style>.a{fill:none;}.b{fill:#2970ff;}.c{fill:#70cbff;}.d{fill:#2f74fb;}</style></defs><g transform="translate(-227 -1157)"><rect class="a" width="80" height="80" transform="translate(227 1157)"/><g transform="translate(-195.787 -55)"><g transform="translate(429.787 1228)"><g transform="translate(7.012 5.309)"><path class="b" d="M92.693,66.09a.391.391,0,0,1-.238-.068L41.37,31.966a.43.43,0,1,1,.477-.715L92.931,65.307a.434.434,0,0,1,.119.6A.422.422,0,0,1,92.693,66.09Z" transform="translate(-41.179 -31.179)"/></g><g transform="translate(4.257 2.554)"><g transform="translate(0.017)"><ellipse class="c" cx="3.184" cy="3.184" rx="3.184" ry="3.184"/></g><g transform="translate(0 2.384)"><path class="b" d="M28.2,31.4A3.214,3.214,0,0,1,25.1,29a3.125,3.125,0,0,0-.1.8,3.193,3.193,0,1,0,6.386,0,3.125,3.125,0,0,0-.1-.8A3.194,3.194,0,0,1,28.2,31.4Z" transform="translate(-25 -29)"/></g></g><g transform="translate(55.341 36.61)"><g transform="translate(0.017)"><ellipse class="c" cx="3.184" cy="3.184" rx="3.184" ry="3.184"/></g><g transform="translate(0 2.384)"><path class="d" d="M328.2,231.4a3.214,3.214,0,0,1-3.1-2.4,3.126,3.126,0,0,0-.1.8,3.2,3.2,0,1,0,6.4,0,3.126,3.126,0,0,0-.1-.8A3.229,3.229,0,0,1,328.2,231.4Z" transform="translate(-325 -229)"/></g></g><g transform="translate(7.161 5.305)"><path class="b" d="M42.487,66.069a.444.444,0,0,1-.358-.187.422.422,0,0,1,.119-.6L93.333,31.23a.43.43,0,1,1,.477.715L42.726,66A.466.466,0,0,1,42.487,66.069Z" transform="translate(-42.054 -31.153)"/></g><g transform="translate(55.341 2.554)"><g transform="translate(0.017)"><ellipse class="c" cx="3.184" cy="3.184" rx="3.184" ry="3.184"/></g><g transform="translate(0 2.384)"><path class="d" d="M328.2,31.4a3.214,3.214,0,0,0,3.1-2.4,3.125,3.125,0,0,1,.1.8,3.2,3.2,0,0,1-6.4,0,3.126,3.126,0,0,1,.1-.8A3.2,3.2,0,0,0,328.2,31.4Z" transform="translate(-325 -29)"/></g></g><g transform="translate(4.257 36.61)"><ellipse class="c" cx="3.184" cy="3.184" rx="3.184" ry="3.184"/><g transform="translate(0 2.384)"><path class="b" d="M28.2,231.4a3.214,3.214,0,0,0,3.1-2.4,3.125,3.125,0,0,1,.1.8,3.2,3.2,0,0,1-6.4,0,3.125,3.125,0,0,1,.1-.8A3.2,3.2,0,0,0,28.2,231.4Z" transform="translate(-25 -229)"/></g></g><g transform="translate(3.031 22.341)"><path class="b" d="M77.569,132.051H18.226a.426.426,0,0,1,0-.851H77.569a.422.422,0,0,1,.426.426A.433.433,0,0,1,77.569,132.051Z" transform="translate(-17.8 -131.2)"/></g><g transform="translate(0 19.582)"><g transform="translate(0.017)"><ellipse class="c" cx="3.184" cy="3.184" rx="3.184" ry="3.184"/></g><g transform="translate(0 2.384)"><path class="b" d="M3.2,131.4A3.214,3.214,0,0,1,.1,129a3.125,3.125,0,0,0-.1.8,3.2,3.2,0,0,0,6.4,0,3.125,3.125,0,0,0-.1-.8A3.229,3.229,0,0,1,3.2,131.4Z" transform="translate(0 -129)"/></g></g><g transform="translate(59.598 19.582)"><g transform="translate(0.017)"><ellipse class="c" cx="3.184" cy="3.184" rx="3.184" ry="3.184"/></g><g transform="translate(0 2.384)"><path class="d" d="M353.2,131.4a3.214,3.214,0,0,1-3.1-2.4,3.127,3.127,0,0,0-.1.8,3.2,3.2,0,1,0,6.4,0,3.125,3.125,0,0,0-.1-.8A3.229,3.229,0,0,1,353.2,131.4Z" transform="translate(-350 -129)"/></g></g><g transform="translate(15.019)"><rect class="b" width="34.312" height="45.755"/><g transform="translate(20.962 38.092)"><rect class="b" width="9.536" height="1.907"/></g><g transform="translate(3.831 38.092)"><rect class="b" width="9.519" height="1.907"/></g><g transform="translate(3.831 28.59)"><rect class="b" width="26.666" height="1.907"/></g><g transform="translate(3.831 24.776)"><rect class="b" width="26.666" height="1.907"/></g><g transform="translate(3.831 20.979)"><rect class="b" width="26.666" height="1.907"/></g><g transform="translate(3.831 17.164)"><rect class="b" width="26.666" height="1.907"/></g><g transform="translate(3.831 13.35)"><rect class="b" width="26.666" height="1.907"/></g><g transform="translate(3.831 5.721)"><rect class="b" width="17.13" height="1.907"/></g><g transform="translate(1.89 1.907)"><rect class="c" width="34.312" height="45.755"/><g transform="translate(20.979 38.092)"><rect class="b" width="9.536" height="1.907"/></g><g transform="translate(3.848 38.092)"><rect class="b" width="9.519" height="1.907"/></g><g transform="translate(3.848 28.59)"><rect class="b" width="26.666" height="1.907"/></g><g transform="translate(3.848 24.776)"><rect class="b" width="26.666" height="1.907"/></g><g transform="translate(3.848 20.962)"><rect class="b" width="26.666" height="1.907"/></g><g transform="translate(3.848 17.164)"><rect class="b" width="26.666" height="1.907"/></g><g transform="translate(3.848 13.35)"><rect class="b" width="26.666" height="1.907"/></g><g transform="translate(3.848 5.721)"><rect class="b" width="17.13" height="1.907"/></g></g></g></g></g></g></svg>