<svg xmlns="http://www.w3.org/2000/svg" viewBox="0 0 80 80"><defs><style>.a,.b,.e{fill:none;}.a,.b{stroke:#8997a5;stroke-linecap:round;stroke-width:3.3px;}.b{stroke-linejoin:round;stroke-miterlimit:10;}.c{fill:#e6eaed;}.d{fill:#fff;}</style></defs><g transform="translate(-392 -895)"><g transform="translate(2154.207 -2357.345)"><g transform="translate(-1759.207 3263.345)"><path class="a" d="M0,0H24.225" transform="translate(33.462 1.163)"/><path class="b" d="M42.95,1.8,26.8,34.1H42.95L34.875,58.324l32.3-32.3H50.637L67.175,1.8" transform="translate(-9.487 -0.637)"/><g transform="translate(0 0)"><ellipse class="c" cx="1.163" cy="1.163" rx="1.163" ry="1.163"/><ellipse class="c" cx="1.163" cy="1.163" rx="1.163" ry="1.163" transform="translate(0 8.075)"/><ellipse class="c" cx="1.163" cy="1.163" rx="1.163" ry="1.163" transform="translate(0 16.15)"/><ellipse class="c" cx="1.163" cy="1.163" rx="1.163" ry="1.163" transform="translate(0 24.225)"/><ellipse class="c" cx="1.163" cy="1.163" rx="1.163" ry="1.163" transform="translate(0 32.3)"/><ellipse class="c" cx="1.163" cy="1.163" rx="1.163" ry="1.163" transform="translate(0 40.375)"/><ellipse class="c" cx="1.163" cy="1.163" rx="1.163" ry="1.163" transform="translate(0 48.45)"/><ellipse class="c" cx="1.163" cy="1.163" rx="1.163" ry="1.163" transform="translate(0 56.524)"/></g><g transform="translate(8.075 0)"><ellipse class="c" cx="1.163" cy="1.163" rx="1.163" ry="1.163"/><ellipse class="c" cx="1.163" cy="1.163" rx="1.163" ry="1.163" transform="translate(0 8.075)"/><ellipse class="c" cx="1.163" cy="1.163" rx="1.163" ry="1.163" transform="translate(0 16.15)"/><ellipse class="c" cx="1.163" cy="1.163" rx="1.163" ry="1.163" transform="translate(0 24.225)"/><ellipse class="c" cx="1.163" cy="1.163" rx="1.163" ry="1.163" transform="translate(0 32.3)"/><ellipse class="c" cx="1.163" cy="1.163" rx="1.163" ry="1.163" transform="translate(0 40.375)"/><ellipse class="c" cx="1.163" cy="1.163" rx="1.163" ry="1.163" transform="translate(0 48.45)"/><ellipse class="c" cx="1.163" cy="1.163" rx="1.163" ry="1.163" transform="translate(0 56.524)"/></g><g transform="translate(16.15 0)"><ellipse class="c" cx="1.163" cy="1.163" rx="1.163" ry="1.163"/><ellipse class="c" cx="1.163" cy="1.163" rx="1.163" ry="1.163" transform="translate(0 8.075)"/><ellipse class="c" cx="1.163" cy="1.163" rx="1.163" ry="1.163" transform="translate(0 16.15)"/><ellipse class="c" cx="1.163" cy="1.163" rx="1.163" ry="1.163" transform="translate(0 24.225)"/><ellipse class="d" cx="1.163" cy="1.163" rx="1.163" ry="1.163" transform="translate(0 32.3)"/><ellipse class="c" cx="1.163" cy="1.163" rx="1.163" ry="1.163" transform="translate(0 40.375)"/><ellipse class="c" cx="1.163" cy="1.163" rx="1.163" ry="1.163" transform="translate(0 48.45)"/><ellipse class="c" cx="1.163" cy="1.163" rx="1.163" ry="1.163" transform="translate(0 56.524)"/></g><ellipse class="c" cx="1.163" cy="1.163" rx="1.163" ry="1.163" transform="translate(24.225 0)"/><ellipse class="c" cx="1.163" cy="1.163" rx="1.163" ry="1.163" transform="translate(24.225 8.075)"/><path class="d" d="M1.163,0A1.163,1.163,0,1,1,0,1.163,1.163,1.163,0,0,1,1.163,0Z" transform="translate(24.225 16.15)"/><ellipse class="c" cx="1.163" cy="1.163" rx="1.163" ry="1.163" transform="translate(24.225 24.225)"/><path class="d" d="M1.163,0A1.163,1.163,0,1,1,0,1.163,1.163,1.163,0,0,1,1.163,0Z" transform="translate(24.225 32.3)"/><ellipse class="c" cx="1.163" cy="1.163" rx="1.163" ry="1.163" transform="translate(24.225 40.375)"/><ellipse class="c" cx="1.163" cy="1.163" rx="1.163" ry="1.163" transform="translate(24.225 48.45)"/><ellipse class="d" cx="1.163" cy="1.163" rx="1.163" ry="1.163" transform="translate(24.225 56.524)"/><g transform="translate(32.3 0)"><ellipse class="d" cx="1.163" cy="1.163" rx="1.163" ry="1.163"/><ellipse class="c" cx="1.163" cy="1.163" rx="1.163" ry="1.163" transform="translate(0 8.075)"/><ellipse class="c" cx="1.163" cy="1.163" rx="1.163" ry="1.163" transform="translate(0 16.15)"/><ellipse class="c" cx="1.163" cy="1.163" rx="1.163" ry="1.163" transform="translate(0 24.225)"/><ellipse class="d" cx="1.163" cy="1.163" rx="1.163" ry="1.163" transform="translate(0 32.3)"/><ellipse class="c" cx="1.163" cy="1.163" rx="1.163" ry="1.163" transform="translate(0 40.375)"/><ellipse class="d" cx="1.163" cy="1.163" rx="1.163" ry="1.163" transform="translate(0 48.45)"/><ellipse class="c" cx="1.163" cy="1.163" rx="1.163" ry="1.163" transform="translate(0 56.524)"/></g><g transform="translate(40.375 0)"><ellipse class="d" cx="1.163" cy="1.163" rx="1.163" ry="1.163"/><ellipse class="c" cx="1.163" cy="1.163" rx="1.163" ry="1.163" transform="translate(0 8.075)"/><ellipse class="c" cx="1.163" cy="1.163" rx="1.163" ry="1.163" transform="translate(0 16.15)"/><ellipse class="d" cx="1.163" cy="1.163" rx="1.163" ry="1.163" transform="translate(0 24.225)"/><ellipse class="c" cx="1.163" cy="1.163" rx="1.163" ry="1.163" transform="translate(0 32.3)"/><ellipse class="d" cx="1.163" cy="1.163" rx="1.163" ry="1.163" transform="translate(0 40.375)"/><ellipse class="c" cx="1.163" cy="1.163" rx="1.163" ry="1.163" transform="translate(0 48.45)"/><ellipse class="c" cx="1.163" cy="1.163" rx="1.163" ry="1.163" transform="translate(0 56.524)"/></g><g transform="translate(48.45 0)"><ellipse class="c" cx="1.163" cy="1.163" rx="1.163" ry="1.163" transform="translate(0 8.075)"/><ellipse class="d" cx="1.163" cy="1.163" rx="1.163" ry="1.163"/><ellipse class="c" cx="1.163" cy="1.163" rx="1.163" ry="1.163" transform="translate(0 16.15)"/><ellipse class="d" cx="1.163" cy="1.163" rx="1.163" ry="1.163" transform="translate(0 24.225)"/><ellipse class="d" cx="1.163" cy="1.163" rx="1.163" ry="1.163" transform="translate(0 32.3)"/><ellipse class="c" cx="1.163" cy="1.163" rx="1.163" ry="1.163" transform="translate(0 40.375)"/><ellipse class="c" cx="1.163" cy="1.163" rx="1.163" ry="1.163" transform="translate(0 48.45)"/><ellipse class="c" cx="1.163" cy="1.163" rx="1.163" ry="1.163" transform="translate(0 56.524)"/></g><g transform="translate(56.524 0)"><ellipse class="d" cx="1.163" cy="1.163" rx="1.163" ry="1.163"/><ellipse class="c" cx="1.163" cy="1.163" rx="1.163" ry="1.163" transform="translate(0 8.075)"/><ellipse class="c" cx="1.163" cy="1.163" rx="1.163" ry="1.163" transform="translate(0 16.15)"/><ellipse class="d" cx="1.163" cy="1.163" rx="1.163" ry="1.163" transform="translate(0 24.225)"/><ellipse class="c" cx="1.163" cy="1.163" rx="1.163" ry="1.163" transform="translate(0 32.3)"/><ellipse class="c" cx="1.163" cy="1.163" rx="1.163" ry="1.163" transform="translate(0 40.375)"/><ellipse class="c" cx="1.163" cy="1.163" rx="1.163" ry="1.163" transform="translate(0 48.45)"/><ellipse class="c" cx="1.163" cy="1.163" rx="1.163" ry="1.163" transform="translate(0 56.524)"/></g><g transform="translate(64.599 0)"><ellipse class="c" cx="1.163" cy="1.163" rx="1.163" ry="1.163"/><ellipse class="c" cx="1.163" cy="1.163" rx="1.163" ry="1.163" transform="translate(0 8.075)"/><ellipse class="c" cx="1.163" cy="1.163" rx="1.163" ry="1.163" transform="translate(0 16.15)"/><ellipse class="c" cx="1.163" cy="1.163" rx="1.163" ry="1.163" transform="translate(0 24.225)"/><ellipse class="c" cx="1.163" cy="1.163" rx="1.163" ry="1.163" transform="translate(0 32.3)"/><ellipse class="c" cx="1.163" cy="1.163" rx="1.163" ry="1.163" transform="translate(0 40.375)"/><ellipse class="c" cx="1.163" cy="1.163" rx="1.163" ry="1.163" transform="translate(0 48.45)"/><ellipse class="c" cx="1.163" cy="1.163" rx="1.163" ry="1.163" transform="translate(0 56.524)"/></g><g transform="translate(72.674 0)"><ellipse class="c" cx="1.163" cy="1.163" rx="1.163" ry="1.163"/><ellipse class="c" cx="1.163" cy="1.163" rx="1.163" ry="1.163" transform="translate(0 8.075)"/><ellipse class="c" cx="1.163" cy="1.163" rx="1.163" ry="1.163" transform="translate(0 16.15)"/><ellipse class="c" cx="1.163" cy="1.163" rx="1.163" ry="1.163" transform="translate(0 24.225)"/><ellipse class="c" cx="1.163" cy="1.163" rx="1.163" ry="1.163" transform="translate(0 32.3)"/><ellipse class="c" cx="1.163" cy="1.163" rx="1.163" ry="1.163" transform="translate(0 40.375)"/><ellipse class="c" cx="1.163" cy="1.163" rx="1.163" ry="1.163" transform="translate(0 48.45)"/><ellipse class="c" cx="1.163" cy="1.163" rx="1.163" ry="1.163" transform="translate(0 56.524)"/></g></g></g><rect class="e" width="80" height="80" transform="translate(392 895)"/></g></svg>