<svg xmlns="http://www.w3.org/2000/svg" viewBox="0 0 80 80"><defs><style>.a{fill:#fff;}.b{fill:#2970ff;}</style></defs><g transform="translate(-230 -756)"><rect class="a" width="80" height="80" transform="translate(230 756)"/><g transform="translate(237 768)"><ellipse class="b" cx="4.667" cy="4.667" rx="4.667" ry="4.667" transform="translate(32.667)"/><path class="b" d="M197.167,18.667A18.67,18.67,0,0,1,178.5,37.333h-4.667v9.333H164.5V28h14a9.333,9.333,0,0,0,0-18.667h-2.8V0h2.8A18.67,18.67,0,0,1,197.167,18.667Z" transform="translate(-131.833)"/><ellipse class="b" cx="4.667" cy="4.667" rx="4.667" ry="4.667" transform="translate(23.333 46.667)"/><path class="b" d="M0,75A18.67,18.67,0,0,1,18.667,56.333h4.667V47h9.333V65.667h-14a9.333,9.333,0,0,0,0,18.667h2.8v9.333h-2.8A18.67,18.67,0,0,1,0,75Z" transform="translate(0 -37.667)"/></g></g></svg>