<svg xmlns="http://www.w3.org/2000/svg" viewBox="0 0 80 80"><defs><style>.a{fill:#fff;}.b{fill:#e6eaed;}.c{fill:#8997a5;}</style></defs><g transform="translate(-392 -1431)"><rect class="a" width="80" height="80" transform="translate(392 1431)"/><g transform="translate(399 1448)"><rect class="b" width="46.091" height="65.169" transform="translate(0.409 46.493) rotate(-90)"/><path class="c" d="M66,46.905H0V0H65.984V46.905ZM.815,46.091H65.169V.815H.815Z"/><rect class="b" width="32.585" height="46.091" transform="translate(0.407 0.407)"/><path class="c" d="M33.4,46.905H0V0H33.4ZM.815,46.091h31.77V.815H.815Z"/><g transform="translate(0 23.037)"><rect class="b" width="23.037" height="32.585" transform="translate(0.402 23.453) rotate(-90)"/><path class="c" d="M33.4,165.268H0V141.4H33.4ZM.815,164.454h31.77V142.215H.815Z" transform="translate(0 -141.4)"/></g><g transform="translate(0 23.037)"><rect class="b" width="16.292" height="23.037" transform="translate(16.7 23.458) rotate(180)"/><path class="c" d="M17.107,165.268H0V141.4H17.107ZM.815,164.454H16.292V142.215H.815Z" transform="translate(0 -141.4)"/></g><g transform="translate(6.517 32.731)"><circle class="c" cx="2.037" cy="2.037" r="2.037"/></g><g transform="translate(22.809 28.854)"><g transform="translate(0 8.146)"><circle class="c" cx="2.037" cy="2.037" r="2.037"/></g><circle class="c" cx="2.037" cy="2.037" r="2.037"/></g><g transform="translate(51.321 18.475)"><g transform="translate(0 8.146)"><circle class="c" cx="2.037" cy="2.037" r="2.037"/></g><circle class="c" cx="2.037" cy="2.037" r="2.037"/></g><g transform="translate(43.175 18.475)"><g transform="translate(0 8.146)"><circle class="c" cx="2.037" cy="2.037" r="2.037"/></g><circle class="c" cx="2.037" cy="2.037" r="2.037"/></g><g transform="translate(6.517 10.329)"><g transform="translate(16.292)"><circle class="c" cx="2.037" cy="2.037" r="2.037"/></g><g transform="translate(8.146)"><circle class="c" cx="2.037" cy="2.037" r="2.037"/></g><circle class="c" cx="2.037" cy="2.037" r="2.037"/></g></g></g></svg>