<svg xmlns="http://www.w3.org/2000/svg" viewBox="0 0 80 80"><defs><style>.a{fill:none;}.b{fill:#70cbff;}.c{fill:#2f74fb;}.d{fill:#fff;}</style></defs><g transform="translate(-227 -2845)"><rect class="a" width="80" height="80" transform="translate(227 2845)"/><g transform="translate(245 2857.489)"><g transform="translate(0 42.96)"><rect class="b" width="34.188" height="8.239"/></g><g transform="translate(2.137 51.199)"><rect class="c" width="29.915" height="2.291"/></g><g transform="translate(2.137 -0.1)"><path class="b" d="M39.2,41.114A14.348,14.348,0,0,1,33,23.353a10.85,10.85,0,0,1,1.863-2.991,14.623,14.623,0,0,0,3.3-9.47C38.158,3.661,33.372-.1,27.474-.1c-5.915.017-10.7,3.761-10.7,11.009a14.657,14.657,0,0,0,3.3,9.47,11.108,11.108,0,0,1,1.863,2.991,14.34,14.34,0,0,1-6.222,17.744L12.5,42.96H42.415Z" transform="translate(-12.5 0.1)"/></g><g transform="translate(0 46.652)"><rect class="c" width="34.188" height="0.855"/></g><g transform="translate(0 42.43)"><rect class="c" width="34.188" height="0.855"/></g><g transform="translate(2.137 -0.1)"><path class="a" d="M39.2,41.114A14.348,14.348,0,0,1,33,23.353a10.85,10.85,0,0,1,1.863-2.991,14.623,14.623,0,0,0,3.3-9.47C38.158,3.661,33.372-.1,27.474-.1c-5.915.017-10.7,3.761-10.7,11.009a14.657,14.657,0,0,0,3.3,9.47,11.108,11.108,0,0,1,1.863,2.991,14.34,14.34,0,0,1-6.222,17.744L12.5,42.96H42.415Z" transform="translate(-12.5 0.1)"/></g><g transform="translate(8 17.541)"><path class="c" d="M49.638,105.835h0l-2.838-2.53a13.8,13.8,0,0,0,1.709,2.615,11.108,11.108,0,0,1,1.863,2.991,14.36,14.36,0,0,1-.6,11.915c3.453-4.53,8.821-4.53,12.256,0a14.36,14.36,0,0,1-.6-11.915,10.85,10.85,0,0,1,1.863-2.991,12.85,12.85,0,0,0,1.812-2.821l-3.2,2.376A10.788,10.788,0,0,1,49.638,105.835Z" transform="translate(-46.8 -103.1)"/><path class="c" d="M150.3,237.838Z" transform="translate(-132.608 -214.795)"/><path class="c" d="M49.7,237.8Z" transform="translate(-49.204 -214.774)"/></g><g transform="translate(16.667 29.404)"><circle class="d" cx="12.821" cy="12.821" r="12.821" transform="translate(0.427 0.427)"/><path class="c" d="M110.748,199A13.248,13.248,0,1,1,124,185.748,13.27,13.27,0,0,1,110.748,199Zm0-25.641a12.393,12.393,0,1,0,12.393,12.393A12.4,12.4,0,0,0,110.748,173.355Z" transform="translate(-97.5 -172.5)"/><g transform="translate(2.564 2.564)"><path class="c" d="M122.791,208.44a.423.423,0,0,1,.427-.427h0a.423.423,0,0,1,.427.427h0a.423.423,0,0,1-.427.427h0A.423.423,0,0,1,122.791,208.44Zm-4.923-.991h0a.422.422,0,0,1-.154-.581h0a.422.422,0,0,1,.581-.154h0a.422.422,0,0,1,.154.581h0a.429.429,0,0,1-.376.205h0A.236.236,0,0,1,117.868,207.449Zm10.1-.171a.422.422,0,0,1,.154-.581h0a.422.422,0,0,1,.581.154h0a.422.422,0,0,1-.154.581h0a.473.473,0,0,1-.222.051h0A.4.4,0,0,1,127.97,207.278Zm-14.017-3.726h0a.422.422,0,0,1,.154-.581h0a.422.422,0,0,1,.581.154h0a.422.422,0,0,1-.154.581h0a.473.473,0,0,1-.222.051h0A.371.371,0,0,1,113.953,203.551Zm17.915.12a.422.422,0,0,1-.154-.581h0a.422.422,0,0,1,.581-.154h0a.422.422,0,0,1,.154.581h0a.429.429,0,0,1-.376.205h0A.455.455,0,0,1,131.868,203.671ZM112.5,198.218V198.2h0v-.017h0a.423.423,0,0,1,.427-.427h0a.423.423,0,0,1,.427.427h0v.017h0v.017h0a.423.423,0,0,1-.427.427h0A.423.423,0,0,1,112.5,198.218Zm20.513-.051a.423.423,0,0,1,.427-.427h0a.423.423,0,0,1,.427.427h0a.423.423,0,0,1-.427.427h0A.423.423,0,0,1,133.013,198.167Zm-18.923-4.735a.422.422,0,0,1-.154-.581h0a.422.422,0,0,1,.581-.154h0a.422.422,0,0,1,.154.581h0a.429.429,0,0,1-.376.205h0A.455.455,0,0,1,114.09,193.432Zm17.607-.171h0a.422.422,0,0,1,.154-.581h0a.422.422,0,0,1,.581.154h0a.422.422,0,0,1-.154.581h0a.455.455,0,0,1-.205.051h0A.41.41,0,0,1,131.7,193.261Zm-14.017-3.744a.422.422,0,0,1,.154-.581h0a.422.422,0,0,1,.581.154h0a.422.422,0,0,1-.154.581h0a.455.455,0,0,1-.205.051h0A.4.4,0,0,1,117.679,189.517Zm10.41.154a.422.422,0,0,1-.154-.581h0a.422.422,0,0,1,.581-.154h0a.422.422,0,0,1,.154.581h0a.429.429,0,0,1-.376.205h0A.455.455,0,0,1,128.09,189.671Zm-5.35-1.744a.423.423,0,0,1,.427-.427h0a.423.423,0,0,1,.427.427h0a.423.423,0,0,1-.427.427h0A.434.434,0,0,1,122.739,187.927Z" transform="translate(-112.5 -187.5)"/></g><g transform="translate(12.821 5.128)"><path class="c" d="M172.927,211.047a.423.423,0,0,1-.427-.427v-7.692a.427.427,0,1,1,.855,0v7.692A.423.423,0,0,1,172.927,211.047Z" transform="translate(-172.5 -202.5)"/></g><g transform="translate(12.829 9.222)"><path class="c" d="M172.967,230.9a.394.394,0,0,1-.342-.188.435.435,0,0,1,.1-.6l5.128-3.59a.429.429,0,1,1,.5.7l-5.128,3.59A.386.386,0,0,1,172.967,230.9Z" transform="translate(-172.548 -226.448)"/></g></g></g></g></svg>