<svg xmlns="http://www.w3.org/2000/svg" xmlns:xlink="http://www.w3.org/1999/xlink" width="30" height="30" viewBox="0 0 30 30"><defs><clipPath id="a"><rect width="30" height="30" fill="none"/></clipPath></defs><g clip-path="url(#a)"><path d="M-1773.615-933.675l3.333,1.667v-1.667l-1.667-.833,1.667-.833v-1.667l-3.333,1.667Z" transform="translate(1775.282 954.541)" fill="#c4cbd2"/><path d="M-1423.615-885.342l1.667.833-1.667.833v1.667l3.333-1.667v-1.667l-3.333-1.667Z" transform="translate(1448.615 907.875)" fill="#c4cbd2"/><rect width="16.667" height="1.667" transform="translate(6.667 22.533)" fill="#3d5873"/><rect width="6.933" height="1.667" transform="translate(6.667 19.2)" fill="#3d5873"/><rect width="8.333" height="1.667" transform="translate(15 19.2)" fill="#3d5873"/><rect width="8.333" height="1.667" transform="translate(6.667 15.867)" fill="#3d5873"/><rect width="6.933" height="1.667" transform="translate(16.4 15.867)" fill="#3d5873"/><path d="M-1773.615-1133.676l3.333,1.667v-1.667l-1.667-.833,1.667-.833v-1.667l-3.333,1.667Z" transform="translate(1775.282 1141.209)" fill="#c4cbd2"/><path d="M-1423.615-985.342l1.667.833-1.667.833v1.667l3.333-1.667v-1.667l-3.333-1.667Z" transform="translate(1448.615 1001.208)" fill="#c4cbd2"/><rect width="16.667" height="1.667" transform="translate(6.667 5.867)" fill="#3d5873"/><rect width="8.333" height="1.667" transform="translate(6.667 9.2)" fill="#3d5873"/><rect width="16.667" height="1.667" transform="translate(6.667 12.533)" fill="#3d5873"/><rect width="30" height="30" fill="none"/></g></svg>