<svg xmlns="http://www.w3.org/2000/svg" xmlns:xlink="http://www.w3.org/1999/xlink" width="30" height="30" viewBox="0 0 30 30"><defs><clipPath id="a"><rect width="30" height="30" fill="none"/></clipPath></defs><g clip-path="url(#a)"><path d="M50.025,52.238h0c0,.013,0,.026,0,.039s-.01.032-.011.047-.01.061-.01.092v22.65a2.038,2.038,0,0,0,2.016,2.022H73.333V53.755H60v9.978l-2.5-1.667L55,63.734V53.755H52.016a1.991,1.991,0,0,1-.26-.02h-.073A1.668,1.668,0,0,1,50.025,52.238Z" transform="translate(-46.667 -48.755)" fill="#3d5873"/><path d="M55.225,28.044v9.978l2.5-1.667,2.5,1.667V28.044H73.574l-1.667-3.333H52.241c-.027,0-.055,0-.082,0a1.684,1.684,0,0,0-.252-.02,1.666,1.666,0,0,0-1.667,1.666,1.687,1.687,0,0,0,.009.17,1.667,1.667,0,0,0,1.658,1.5c.025,0,.049,0,.073,0a1.993,1.993,0,0,0,.26.02Z" transform="translate(-46.892 -23.044)" fill="#c4cbd2"/><rect width="30" height="30" fill="none"/></g></svg>