<svg xmlns="http://www.w3.org/2000/svg" xmlns:xlink="http://www.w3.org/1999/xlink" width="30.243" height="30.243" viewBox="0 0 30.243 30.243"><defs><clipPath id="a"><rect width="30.243" height="30.243" fill="none"/></clipPath></defs><g clip-path="url(#a)"><g transform="translate(0 0)"><path d="M638.678-3575.138a13.441,13.441,0,0,0-13.441,13.441,13.441,13.441,0,0,0,13.441,13.441A13.441,13.441,0,0,0,652.12-3561.7,13.441,13.441,0,0,0,638.678-3575.138Z" transform="translate(-623.541 3576.809)" fill="#ed6d47"/><rect width="30.243" height="30.243" transform="translate(0 0)" fill="none"/></g><g transform="translate(12.648 6.686)"><path d="M788.2-3486.159a2.38,2.38,0,0,1,2.473-2.476,2.38,2.38,0,0,1,2.473,2.476,2.415,2.415,0,0,1-2.473,2.519A2.415,2.415,0,0,1,788.2-3486.159Zm.777-11.063-.121-3.289h3.635l-.121,3.289-.5,6.968h-2.385Z" transform="translate(-788.203 3500.511)" fill="#f9b9a7"/></g></g></svg>