<svg xmlns="http://www.w3.org/2000/svg" xmlns:xlink="http://www.w3.org/1999/xlink" width="30" height="30" viewBox="0 0 30 30"><defs><clipPath id="a"><rect width="30" height="30" fill="none"/></clipPath></defs><g clip-path="url(#a)"><circle cx="1.667" cy="1.667" r="1.667" transform="translate(13.349 13.328)" fill="#e9f8fe"/><path d="M44.6,75.228a13.329,13.329,0,0,0-12.9,9.99,13.327,13.327,0,0,0,25.805,0A13.329,13.329,0,0,0,44.6,75.228Zm0,16.656a6.667,6.667,0,1,1,2.62-12.8A2.5,2.5,0,1,0,50.736,82.6,6.67,6.67,0,0,1,44.6,91.884Z" transform="translate(-29.589 -70.213)" fill="#e9f8fe"/><path d="M136.08,130.069a2.5,2.5,0,0,1-1.551-4.46,6.662,6.662,0,1,0,3.511,3.511A2.5,2.5,0,0,1,136.08,130.069Zm-4.172,3.328a1.667,1.667,0,1,1,1.667-1.667A1.667,1.667,0,0,1,131.909,133.4Z" transform="translate(-116.893 -116.736)" fill="#2970ff"/><rect width="30" height="30" fill="none"/></g></svg>