<?xml version="1.0" encoding="UTF-8" standalone="no"?>
<svg
   xmlns:dc="http://purl.org/dc/elements/1.1/"
   xmlns:cc="http://creativecommons.org/ns#"
   xmlns:rdf="http://www.w3.org/1999/02/22-rdf-syntax-ns#"
   xmlns:svg="http://www.w3.org/2000/svg"
   xmlns="http://www.w3.org/2000/svg"
   id="svg12"
   version="1.1"
   viewBox="0 0 25.005102 25.01148"
   height="25.01148"
   width="25.005102">
  <metadata
     id="metadata16">
    <rdf:RDF>
      <cc:Work
         rdf:about="">
        <dc:format>image/svg+xml</dc:format>
        <dc:type
           rdf:resource="http://purl.org/dc/dcmitype/StillImage" />
        <dc:title></dc:title>
      </cc:Work>
    </rdf:RDF>
  </metadata>
  <defs
     id="defs4">
    <style
       id="style2">
      .cls-1 {
        fill: none;
      }

      .cls-2 {
        fill: #2DD8A3;
      }
    </style>
  </defs>
  <g
     transform="translate(-1515.4977,-1500.029)"
     id="Group_30"
     data-name="Group 30">
    <g
       id="Group_29"
       data-name="Group 29">
      <rect
         id="Rectangle_42"
         data-name="Rectangle 42"
         class="cls-1"
         width="34"
         height="34"
         transform="translate(1511,1495.531)"
         x="0"
         y="0"
         style="fill:none" />
    </g>
  </g>
  <path
     id="Path_39"
     data-name="Path 39"
     class="cls-2"
     d="m 22.680262,12.498978 c 2.725,-4.6770004 3.08,-8.9060004 0.906,-11.0810004 -1.574,-1.57400002 -4.22,-1.84700002 -7.448,-0.77200002 a 19.673,19.673 0 0 0 -3.636,1.67600002 19.673,19.673 0 0 0 -3.6360001,-1.67600002 c -3.232,-1.076 -5.876,-0.8 -7.448,0.77200002 -1.57199998,1.572 -1.84899998,4.219 -0.77199998,7.449 A 19.671,19.671 0 0 0 2.3242619,12.505978 c -2.72499998,4.677 -3.07999998,8.906 -0.906,11.08 a 5.288,5.288 0 0 0 3.873,1.419 11.457,11.457 0 0 0 3.575,-0.646 19.616,19.616 0 0 0 3.6360001,-1.677 19.616,19.616 0 0 0 3.636,1.677 11.462,11.462 0 0 0 3.575,0.646 5.286,5.286 0 0 0 3.873,-1.419 c 1.574,-1.574 1.849,-4.219 0.772,-7.448 a 19.642,19.642 0 0 0 -1.678,-3.639 z m -6.226,-10.9000004 c 2.85,-0.95000002 5.134,-0.76300002 6.425,0.53 1.74,1.74 1.4,5.375 -0.807,9.3880004 a 29.943,29.943 0 0 0 -8.593,-8.5880004 18.2,18.2 0 0 1 2.975,-1.334 z M 8.5542619,23.412978 c -2.85,0.952 -5.132,0.764 -6.425,-0.53 -1.73999998,-1.74 -1.39999998,-5.374 0.807,-9.388 a 29.93,29.93 0 0 0 8.5930001,8.589 18.19,18.19 0 0 1 -2.9790001,1.325 z m 14.3290001,-0.53 c -1.294,1.293 -3.576,1.481 -6.425,0.53 a 18.19,18.19 0 0 1 -2.975,-1.329 29.223,29.223 0 0 0 4.742,-3.859 30.057,30.057 0 0 0 2.763,-3.171 l -0.367,-0.277 -0.417,-0.343 c -0.013,0.017 -1.424,1.651 -5.386,2.5 l 0.209,0.979 a 16.361,16.361 0 0 0 2.989,-0.925 c -0.168,0.177 -0.325,0.361 -0.5,0.534 a 27.836,27.836 0 0 1 -5.012,3.995 27.836,27.836 0 0 1 -5.0120001,-3.995 24.063,24.063 0 0 1 -5.9,-8.9640004 c -0.94999998,-2.85 -0.76299998,-5.133 0.53,-6.425 a 4.323,4.323 0 0 1 3.165,-1.128 10.456,10.456 0 0 1 3.26,0.6 18.2,18.2 0 0 1 2.9750001,1.33 29.172,29.172 0 0 0 -4.7420001,3.859 30.158,30.158 0 0 0 -2.578,2.942 2.666,2.666 0 0 0 -0.2,0.213 l 0.018,0.014 v 0 l 0.028,0.022 0.727,0.6000004 0.028,-0.03 0.015,0.012 c 0.036,-0.048 0.079,-0.094 0.115,-0.141 A 10.965,10.965 0 0 1 10.161262,8.0879776 l -0.2090001,-0.978 a 16.425,16.425 0 0 0 -2.941,0.9 c 0.162,-0.17 0.313,-0.346 0.479,-0.512 a 27.8,27.8 0 0 1 5.0120001,-4 27.8,27.8 0 0 1 5.012,4 24.06,24.06 0 0 1 5.9,8.9630004 c 0.945,2.844 0.758,5.126 -0.535,6.418 z"
     style="fill:#2dd8a3" />
  <rect
     id="Rectangle_43"
     data-name="Rectangle 43"
     class="cls-2"
     width="5"
     height="5"
     x="10.002262"
     y="10.001978"
     style="fill:#2dd8a3" />
</svg>
