<?xml version="1.0" encoding="UTF-8" standalone="no"?>
<svg
   xmlns:dc="http://purl.org/dc/elements/1.1/"
   xmlns:cc="http://creativecommons.org/ns#"
   xmlns:rdf="http://www.w3.org/1999/02/22-rdf-syntax-ns#"
   xmlns:svg="http://www.w3.org/2000/svg"
   xmlns="http://www.w3.org/2000/svg"
   id="svg30"
   version="1.1"
   viewBox="0 0 26 29"
   height="29"
   width="26">
  <metadata
     id="metadata34">
    <rdf:RDF>
      <cc:Work
         rdf:about="">
        <dc:format>image/svg+xml</dc:format>
        <dc:type
           rdf:resource="http://purl.org/dc/dcmitype/StillImage" />
        <dc:title></dc:title>
      </cc:Work>
    </rdf:RDF>
  </metadata>
  <defs
     id="defs4">
    <style
       id="style2">
      .cls-1 {
        fill: none;
      }

      .cls-2 {
        fill: #2DD8A3;
      }
    </style>
  </defs>
  <g
     id="Group_27"
     data-name="Group 27"
     transform="translate(-1447,-1498.031)">
    <g
       id="Group_26"
       data-name="Group 26">
      <rect
         id="Rectangle_30"
         data-name="Rectangle 30"
         class="cls-1"
         width="34"
         height="34"
         transform="translate(1443,1495.531)"
         x="0"
         y="0"
         style="fill:none" />
    </g>
  </g>
  <g
     id="Group_28"
     data-name="Group 28"
     transform="translate(-1447,-1498.031)">
    <path
       id="Path_31"
       data-name="Path 31"
       class="cls-2"
       d="m 1456.5,1521.955 -3.5,-2 v 1.152 l 3.5,2 z"
       style="fill:#2dd8a3" />
    <path
       id="Path_32"
       data-name="Path 32"
       class="cls-2"
       d="m 1463.5,1521.955 v 1.152 l 3.5,-2 v -1.152 z"
       style="fill:#2dd8a3" />
    <path
       id="Path_33"
       data-name="Path 33"
       class="cls-2"
       d="m 1456.5,1503.107 v -1.152 l -3.5,2 v 1.152 z"
       style="fill:#2dd8a3" />
    <rect
       id="Rectangle_31"
       data-name="Rectangle 31"
       class="cls-2"
       width="1"
       height="5.243"
       transform="translate(1449,1509.909)"
       x="0"
       y="0"
       style="fill:#2dd8a3" />
    <path
       id="Path_34"
       data-name="Path 34"
       class="cls-2"
       d="m 1463.5,1503.107 3.5,2 v -1.152 l -3.5,-2 z"
       style="fill:#2dd8a3" />
    <rect
       id="Rectangle_32"
       data-name="Rectangle 32"
       class="cls-2"
       width="1"
       height="5.243"
       transform="translate(1470,1509.909)"
       x="0"
       y="0"
       style="fill:#2dd8a3" />
    <path
       id="Path_35"
       data-name="Path 35"
       class="cls-2"
       d="m 1463.5,1510.03 v 1.03 l 3.5,-2.05 v -1.159 l -3.5,2.05 z"
       style="fill:#2dd8a3" />
    <path
       id="Path_36"
       data-name="Path 36"
       class="cls-2"
       d="M 1456.5,1515.03 V 1514 l -3.5,2.05 v 1.159 l 3.5,-2.05 z"
       style="fill:#2dd8a3" />
    <rect
       id="Rectangle_33"
       data-name="Rectangle 33"
       class="cls-2"
       width="1"
       height="4.9990001"
       transform="translate(1459.5,1504.031)"
       x="0"
       y="0"
       style="fill:#2dd8a3" />
    <rect
       id="Rectangle_34"
       data-name="Rectangle 34"
       class="cls-2"
       width="1"
       height="5.0009999"
       transform="translate(1459.5,1516.03)"
       x="0"
       y="0"
       style="fill:#2dd8a3" />
    <path
       id="Path_37"
       data-name="Path 37"
       class="cls-2"
       d="m 1463.5,1515.03 v 0.129 l 3.5,2.049 v -1.159 l -3.5,-2.049 z"
       style="fill:#2dd8a3" />
    <path
       id="Path_38"
       data-name="Path 38"
       class="cls-2"
       d="m 1456.5,1510.03 v -0.128 l -3.5,-2.049 v 1.159 l 3.5,2.049 z"
       style="fill:#2dd8a3" />
    <rect
       id="Rectangle_35"
       data-name="Rectangle 35"
       class="cls-2"
       width="5"
       height="5"
       transform="translate(1468,1503.909)"
       x="0"
       y="0"
       style="fill:#2dd8a3" />
    <rect
       id="Rectangle_36"
       data-name="Rectangle 36"
       class="cls-2"
       width="5"
       height="5"
       transform="translate(1468,1516.151)"
       x="0"
       y="0"
       style="fill:#2dd8a3" />
    <rect
       id="Rectangle_37"
       data-name="Rectangle 37"
       class="cls-2"
       width="5"
       height="5"
       transform="translate(1447,1503.909)"
       x="0"
       y="0"
       style="fill:#2dd8a3" />
    <rect
       id="Rectangle_38"
       data-name="Rectangle 38"
       class="cls-2"
       width="5"
       height="5"
       transform="translate(1457.5,1498.031)"
       x="0"
       y="0"
       style="fill:#2dd8a3" />
    <rect
       id="Rectangle_39"
       data-name="Rectangle 39"
       class="cls-2"
       width="5"
       height="5"
       transform="translate(1457.5,1510.03)"
       x="0"
       y="0"
       style="fill:#2dd8a3" />
    <rect
       id="Rectangle_40"
       data-name="Rectangle 40"
       class="cls-2"
       width="5"
       height="5"
       transform="translate(1457.5,1522.031)"
       x="0"
       y="0"
       style="fill:#2dd8a3" />
    <rect
       id="Rectangle_41"
       data-name="Rectangle 41"
       class="cls-2"
       width="5"
       height="5"
       transform="translate(1447,1516.151)"
       x="0"
       y="0"
       style="fill:#2dd8a3" />
  </g>
</svg>
