<?xml version="1.0" encoding="utf-8"?>
<!-- Generator: Adobe Illustrator 24.3.0, SVG Export Plug-In . SVG Version: 6.00 Build 0)  -->
<svg version="1.1" id="Layer_1" xmlns="http://www.w3.org/2000/svg" xmlns:xlink="http://www.w3.org/1999/xlink" x="0px" y="0px"
	 viewBox="0 0 1160.3 281.5" style="enable-background:new 0 0 1160.3 281.5;" xml:space="preserve">
<style type="text/css">
	.st0{fill:url(#SVGID_1_);}
	.st1{fill:url(#SVGID_2_);}
	.st2{fill:#FFFFFF;}
</style>
<g id="Layer_2_1_">
	<g id="Design">
		<g>
			<g>
				
					<linearGradient id="SVGID_1_" gradientUnits="userSpaceOnUse" x1="161.5299" y1="99.2915" x2="332.8571" y2="198.2141" gradientTransform="matrix(1 0 0 -1 0 283)">
					<stop  offset="0" style="stop-color:#36BDBA"/>
					<stop  offset="0.93" style="stop-color:#39D8AA"/>
				</linearGradient>
				<path class="st0" d="M263.3,212.1l67.9,67.9h-66.8l-112-112h69.3c30.9,0,56-25.1,56-56s-25.1-56-56-56l0,0h-22.5l-56-56h76
					c61.9,0,112,50.1,112,112l0,0C331.2,157.4,311.2,193.1,263.3,212.1z"/>
				
					<linearGradient id="SVGID_2_" gradientUnits="userSpaceOnUse" x1="9.8019" y1="58.8079" x2="150.393" y2="199.389" gradientTransform="matrix(1 0 0 -1 0 283)">
					<stop  offset="0.2" style="stop-color:#2576F4"/>
					<stop  offset="1" style="stop-color:#3298DA"/>
				</linearGradient>
				<path class="st1" d="M67.9,67.9L0,0h66.8l112,112h-69.3c-30.9,0-56,25.1-56,56s25.1,56,56,56H132l56,56h-76
					C50.1,280,0,229.9,0,168C0,122.6,20,86.9,67.9,67.9z"/>
			</g>
			<g>
				<g>
					<path class="st2" d="M431.3,32.6h19.8c24.5,0,37.5,14.2,37.5,39.3s-13.1,40.1-37,40.1h-20.3V32.6z M450.5,103.6
						c18.5,0,27.7-11.6,27.7-31.6s-9.2-31-27.7-31h-9v62.7L450.5,103.6z"/>
					<path class="st2" d="M498.2,82.6c0-19.1,13-30.9,26.4-30.9c15,0,23.6,10.7,23.6,27.6c0,2-0.1,4-0.5,5.9h-39.6
						c0.9,12.1,8.2,20.1,19.4,20.1c5.2,0.1,10.4-1.4,14.8-4.3l3.5,6.4c-5.7,4-12.5,6.1-19.5,6C510.5,113.4,498.2,102.1,498.2,82.6z
						 M539.2,77.5c0-11.6-5.4-17.8-14.4-17.8c-8.2,0-15.5,6.5-16.7,17.8H539.2z"/>
					<path class="st2" d="M556.5,82.7c0-19.7,13.2-31,28.3-31c6.4-0.1,12.6,2.4,17.2,6.9l-5,6.3c-3.1-3.1-7.3-4.8-11.7-4.8
						c-10.6,0-18.4,9.1-18.4,22.6s7.3,22.4,18,22.4c5.1-0.1,10-2.1,13.8-5.6l4.3,6.4c-5.2,4.8-11.9,7.5-19,7.5
						C568.5,113.4,556.5,102.2,556.5,82.7z"/>
					<path class="st2" d="M612.8,53.2h8.2l0.8,10.6h0.4c4.1-7.4,10.2-12.1,16.7-12.1c2.2-0.1,4.3,0.3,6.3,1.3l-2.2,8.6
						c-1.7-0.5-3.5-0.8-5.3-0.7c-5,0-10.9,3.5-14.9,13.4V112h-10L612.8,53.2z"/>
					<path class="st2" d="M647.4,82.6c0-19.1,12.9-30.9,26.4-30.9c15,0,23.6,10.7,23.6,27.6c0,2-0.1,4-0.5,5.9h-39.6
						c0.8,12.1,8.2,20.1,19.4,20.1c5.2,0.1,10.4-1.4,14.8-4.3l3.5,6.4c-5.7,4-12.5,6.1-19.5,6C659.8,113.4,647.4,102.1,647.4,82.6z
						 M688.4,77.5c0-11.6-5.5-17.8-14.4-17.8c-8.2,0-15.5,6.5-16.7,17.8H688.4z"/>
					<path class="st2" d="M705.8,82.7c0-19.1,12.1-31,25.5-31c6.8,0,11.2,2.5,16.5,6.8l-0.5-10V25.9h10V112h-8.2l-0.8-6.9h-0.4
						c-4.6,4.5-10.9,8.3-17.8,8.3C715.4,113.4,705.8,102.3,705.8,82.7z M747.3,97V66.3c-5-4.5-9.4-6-14.3-6c-9.3,0-16.8,9-16.8,22.4
						c0,14,5.8,22.4,16.1,22.4C737.8,105,742.5,102.3,747.3,97z"/>
					<path class="st2" d="M802.4,32.6h24.8c16.2,0,27.8,5.8,27.8,22.4c0,12.3-7,19.6-17.8,22.4l20.2,34.6h-11.5l-19.1-33.5h-14.3
						V112h-10.2V32.6z M825.7,70.2c12.3,0,19.1-5.1,19.1-15.2c0-10.4-6.8-14.2-19.1-14.2h-13.2v29.4H825.7z"/>
					<path class="st2" d="M862.6,82.6c0-19.1,13-30.9,26.4-30.9c15,0,23.6,10.7,23.6,27.6c0,2-0.1,4-0.5,5.9h-39.6
						c0.8,12.1,8.2,20.1,19.4,20.1c5.2,0.1,10.4-1.4,14.8-4.3l3.5,6.4c-5.7,4-12.5,6.1-19.5,6C874.9,113.4,862.6,102.1,862.6,82.6z
						 M903.6,77.5c0-11.6-5.4-17.8-14.4-17.8c-8.2,0-15.5,6.5-16.7,17.8H903.6z"/>
					<path class="st2" d="M924.4,100.1V25.9h10v75c0,3.1,1.3,4.2,2.9,4.2c0.7,0,1.3-0.1,2-0.2l1.3,7.5c-1.8,0.8-3.8,1.2-5.8,1.1
						C927.4,113.4,924.4,108.6,924.4,100.1z"/>
					<path class="st2" d="M947,82.6c0-19.1,13-30.9,26.4-30.9c15,0,23.6,10.7,23.6,27.6c0,2-0.1,4-0.5,5.9h-39.6
						c0.8,12.1,8.2,20.1,19.4,20.1c5.2,0.1,10.4-1.4,14.7-4.3l3.5,6.4c-5.7,4-12.5,6.1-19.5,6C959.3,113.4,947,102.1,947,82.6z
						 M988,77.5c0-11.6-5.4-17.8-14.4-17.8c-8.2,0-15.5,6.5-16.7,17.8H988z"/>
					<path class="st2" d="M1004,96.8c0-13.1,10.9-19.4,36.1-22.1c-0.1-7.4-2.5-14.5-12.1-14.5c-6.8,0-13,3-17.5,6l-3.9-6.8
						c5.5-3.6,13.7-7.6,23.1-7.6c14.3,0,20.4,9.6,20.4,24.1V112h-8.2l-1-7h-0.4c-5.6,4.7-12,8.5-19.4,8.5
						C1011.4,113.4,1004,107.4,1004,96.8z M1040.1,97.8v-16c-19.8,2.3-26.3,6.8-26.3,14.4c0,6.5,4.5,9.1,10.2,9.1
						S1034.4,102.7,1040.1,97.8L1040.1,97.8z"/>
					<path class="st2" d="M1059.4,105l4.6-5.8c4.9,4.3,11.2,6.6,17.7,6.4c7.8,0,11.5-4,11.5-9.1c0-6.1-6.5-8.6-13.2-11
						c-8.8-3.2-17.3-7.4-17.3-17.1c0-9.4,7.5-16.7,20.3-16.7c6.7,0,13.2,2.3,18.3,6.7l-4.6,5.8c-3.9-3-8.6-4.7-13.6-4.7
						c-7.5,0-10.8,4.1-10.8,8.5c0,5.3,5.1,7.5,12.5,10c9.2,3.3,18,7.3,18,17.9c0,9.6-7.6,17.5-21.5,17.5
						C1073.1,113.6,1065.3,110.5,1059.4,105z"/>
					<path class="st2" d="M1110.3,82.6c0-19.1,12.9-30.9,26.4-30.9c15,0,23.6,10.7,23.6,27.6c0,2-0.1,4-0.5,5.9h-39.6
						c0.8,12.1,8.2,20.1,19.4,20.1c5.2,0.1,10.4-1.4,14.8-4.3l3.5,6.4c-5.7,4-12.5,6.1-19.5,6
						C1122.7,113.4,1110.3,102.1,1110.3,82.6z M1151.3,77.5c0-11.6-5.4-17.8-14.4-17.8c-8.2,0-15.5,6.5-16.7,17.8H1151.3z"/>
				</g>
				<g>
					<path class="st2" d="M421.9,220.5h14.5l9.2,30.6c1.7,5.9,3.4,12,5.1,18h0.5c1.6-6,3.4-12.1,5-18l9.3-30.6h13.8L459,280h-16.5
						L421.9,220.5z"/>
					<path class="st2" d="M496,268.4h17.2v-50h-14.3v-8.9c6.3-1,12.4-3.2,17.9-6.4h10.6v65.3h15V280H496V268.4z"/>
					<path class="st2" d="M555.7,271.9c0-5.6,4-9.7,9.2-9.7s9.2,4.1,9.2,9.7c0.2,5.1-3.8,9.3-8.9,9.5c-5.1,0.2-9.3-3.8-9.5-8.9
						C555.7,272.3,555.7,272.1,555.7,271.9z"/>
					<path class="st2" d="M583.2,243.8c0-29.8,14.5-42.2,30.4-42.2c7.8-0.1,15.3,3,20.7,8.7l-7.6,8.7c-3.1-3.5-7.6-5.6-12.3-5.8
						c-9.4,0-17.3,7.1-17.9,28.1c4.5-5.6,11.1-8.9,16.7-8.9c13.2,0,22.4,7.7,22.4,23.8c0,15.4-11,25.3-24.3,25.3
						C596.2,281.5,583.2,269.8,583.2,243.8z M596.8,251.4c1.5,13.4,6.9,19.1,14.3,19.1c6.3,0,11.2-5.1,11.2-14.4
						c0-9-4.5-13.6-11.8-13.6C606,242.6,600.7,245.3,596.8,251.4z"/>
					<path class="st2" d="M646.1,271.9c0-5.6,4-9.7,9.2-9.7s9.2,4.1,9.2,9.7c0.2,5.1-3.8,9.3-8.9,9.5c-5.1,0.2-9.3-3.8-9.5-8.9
						C646.1,272.3,646.1,272.1,646.1,271.9z"/>
					<path class="st2" d="M673.4,241.2c0-26,10.3-39.6,26.3-39.6s26.2,13.7,26.2,39.6s-10.2,40.3-26.2,40.3S673.4,267.2,673.4,241.2
						z M712.2,241.2c0-21.7-5.2-28.4-12.6-28.4s-12.6,6.8-12.6,28.4s5.3,29,12.6,29S712.2,262.9,712.2,241.2z"/>
				</g>
			</g>
		</g>
	</g>
</g>
</svg>
