<svg xmlns="http://www.w3.org/2000/svg" width="12" height="12.11" viewBox="0 0 12 12.11"><defs><style>.a{fill:none;}.b{fill:#091440;}</style></defs><g transform="translate(-192 -2698)"><rect class="a" width="12" height="12" transform="translate(192 2698)"/><g transform="translate(188.096 2692.791)"><path class="b" d="M9.756,8.372a.038.038,0,0,1-.039.039H9.678c-.039,0-.039-.039-.078-.078a.137.137,0,0,1-.039-.078c0-.039,0-.039.039-.039l.078.039c.039.039.078.078.078.118M9.05,7.98c0-.2-.078-.314-.2-.314a.038.038,0,0,1-.039.039v.078h.118c0,.078.039.118.039.2H9.05m1.372-.2c.078,0,.118.078.157.2h.078a.144.144,0,0,1-.039-.118.144.144,0,0,0-.039-.118c-.039-.039-.078-.078-.118-.078a.137.137,0,0,1-.078.039c0,.039.039.039.039.078m-1.176.627c-.039,0-.039,0-.039-.039a.144.144,0,0,1,.039-.118.172.172,0,0,0,.118-.039.038.038,0,0,1,.039.039c0,.039-.039.078-.118.157H9.246m-.431-.039c-.157-.078-.2-.2-.2-.392A.331.331,0,0,1,8.7,7.706a.216.216,0,0,1,.2-.118c.078,0,.118.039.2.118a1.145,1.145,0,0,1,.078.353v.078h.039V8.1c.039,0,.039-.078.039-.235a.583.583,0,0,0-.078-.353.349.349,0,0,0-.314-.2.3.3,0,0,0-.274.2.922.922,0,0,0-.094.47.642.642,0,0,0,.212.47c.039-.039.078-.039.118-.078m4.9,5.528c.039,0,.039-.016.039-.051a.426.426,0,0,0-.157-.3.957.957,0,0,0-.549-.223c-.039,0-.078,0-.078,0a.267.267,0,0,0-.078-.008c-.039,0-.118-.012-.157-.02a3.117,3.117,0,0,0,.157-.968,1.537,1.537,0,0,0-.235-.9.8.8,0,0,0-.51-.392c-.039.039-.039.039-.039.078a.981.981,0,0,1,.51.47,1.869,1.869,0,0,1,.157.784,2.74,2.74,0,0,1-.2.961.888.888,0,0,0-.431.435c0,.035,0,.055.039.055a.464.464,0,0,0,.078-.1c.078-.067.118-.133.2-.2a.583.583,0,0,1,.314-.1,1.332,1.332,0,0,1,.51.082.475.475,0,0,1,.274.169q.059.088.118.165a.089.089,0,0,0,.039.074M10.109,8.215a.294.294,0,0,1-.039-.2.527.527,0,0,1,.078-.353.339.339,0,0,1,.235-.118.4.4,0,0,1,.274.157.923.923,0,0,1,.078.314.315.315,0,0,1-.235.353.137.137,0,0,0,.078.039c.078,0,.118.039.2.078a3.479,3.479,0,0,0,.078-.588.89.89,0,0,0-.118-.51.5.5,0,0,0-.392-.157.632.632,0,0,0-.353.118.521.521,0,0,0-.118.314,1.085,1.085,0,0,0,.118.51c.039,0,.078.039.118.039m.47.627a2.294,2.294,0,0,1-1.215.51,1.245,1.245,0,0,1-.784-.314.857.857,0,0,0,.118.2l.235.235a.774.774,0,0,0,.549.235,1.871,1.871,0,0,0,.98-.431l.353-.235a.4.4,0,0,0,.157-.274c0-.039,0-.078-.039-.078-.039-.078-.235-.2-.627-.314a2.29,2.29,0,0,0-.784-.235,1.46,1.46,0,0,0-.588.235c-.235.157-.392.314-.392.47a.485.485,0,0,1,.078.118,1.137,1.137,0,0,0,.706.314,2.12,2.12,0,0,0,1.215-.549V8.8a.038.038,0,0,1,.039.039m.9,7.919a.838.838,0,0,0,.98.408.512.512,0,0,0,.2-.074c.039-.027.078-.055.118-.086a.468.468,0,0,0,.118-.067l.666-.576a2.64,2.64,0,0,1,.51-.329,3.379,3.379,0,0,1,.392-.192.7.7,0,0,0,.274-.141.4.4,0,0,0,.078-.227.351.351,0,0,0-.157-.263.8.8,0,0,0-.235-.133.9.9,0,0,1-.274-.2,1.057,1.057,0,0,1-.2-.427l-.039-.227c-.039-.106-.039-.184-.078-.227,0-.012,0-.016-.039-.016a.215.215,0,0,0-.157.1c-.078.067-.157.141-.235.22-.039.078-.157.149-.235.216a.7.7,0,0,1-.314.1.623.623,0,0,1-.588-.255,1.429,1.429,0,0,1-.157-.435c-.078-.067-.118-.1-.2-.1-.2,0-.274.2-.274.616v1.219a1.244,1.244,0,0,0-.039.235,1.378,1.378,0,0,0-.039.416l-.078.435v.007M5.8,16.553a6.432,6.432,0,0,1,1.258.341,4.192,4.192,0,0,0,.87.263.856.856,0,0,0,.69-.356.58.58,0,0,0,.039-.268,2.527,2.527,0,0,0-.67-1.407l-.267-.357a3.706,3.706,0,0,1-.208-.341,3.352,3.352,0,0,0-.216-.353,1.059,1.059,0,0,0-.239-.271.805.805,0,0,0-.349-.18.53.53,0,0,0-.333.161.479.479,0,0,0-.094.243.232.232,0,0,1-.074.165.715.715,0,0,1-.2.063c-.02,0-.055,0-.106,0H5.8a1.008,1.008,0,0,0-.423.063.575.575,0,0,0-.149.38,1.79,1.79,0,0,0,.047.318,1.756,1.756,0,0,1,.047.345.917.917,0,0,1-.145.482.877.877,0,0,0-.149.383c.039.152.3.259.772.322M7.1,12.989a2.44,2.44,0,0,1,.216-.921,2.584,2.584,0,0,1,.419-.745c-.008-.039-.027-.039-.059-.039l-.039-.039a3,3,0,0,0-.416.784,2.331,2.331,0,0,0-.251.917.894.894,0,0,0,.122.463,2.774,2.774,0,0,0,.623.557l.416.271c.443.384.678.651.678.808a.321.321,0,0,1-.157.255.371.371,0,0,1-.274.141c-.008,0-.012.008-.012.027,0,0,.039.082.122.235a1.2,1.2,0,0,0,.988.333,2.377,2.377,0,0,0,2.039-1.059.787.787,0,0,0-.039-.369v-.145a1.1,1.1,0,0,1,.118-.572.311.311,0,0,1,.274-.184.388.388,0,0,1,.235.086,5.936,5.936,0,0,0,.039-.8,3.381,3.381,0,0,0-.078-.925,2.066,2.066,0,0,0-.2-.588l-.235-.353c-.078-.118-.118-.235-.2-.353a1.685,1.685,0,0,1-.078-.47c-.118-.2-.2-.392-.314-.588-.078-.2-.157-.392-.235-.549l-.353.274a1.761,1.761,0,0,1-.98.392.637.637,0,0,1-.549-.2l-.235-.2a1.022,1.022,0,0,1-.118.431l-.247.47a2.392,2.392,0,0,0-.18.549.783.783,0,0,1-.035.157l-.294.588a3.467,3.467,0,0,0-.478,1.584,1.7,1.7,0,0,0,.024.278.581.581,0,0,1-.263-.51M9.909,16.7a2.7,2.7,0,0,0-1.176.206v-.012a.88.88,0,0,1-.721.357,3,3,0,0,1-.9-.223A10.646,10.646,0,0,0,6.016,16.7c-.031-.009-.1-.022-.216-.04s-.212-.036-.3-.054a2.275,2.275,0,0,1-.278-.08.689.689,0,0,1-.235-.12.222.222,0,0,1-.081-.167.576.576,0,0,1,.04-.2c.025-.043.053-.086.08-.125a.76.76,0,0,0,.067-.122.574.574,0,0,0,.055-.11.485.485,0,0,0,.039-.114.605.605,0,0,0,.016-.118c0-.039-.016-.157-.047-.365a3.534,3.534,0,0,1-.047-.388.6.6,0,0,1,.125-.408.354.354,0,0,1,.255-.149h.451a.4.4,0,0,0,.172-.067c.027-.063.051-.114.067-.161s.027-.082.035-.1.016-.047.024-.067a.541.541,0,0,1,.063-.09.237.237,0,0,1-.047-.153.4.4,0,0,1,.008-.106,1.414,1.414,0,0,1,.208-.6l.137-.247a5.423,5.423,0,0,0,.263-.525,5.128,5.128,0,0,0,.216-.706,1.95,1.95,0,0,1,.447-.823l.294-.353a2.768,2.768,0,0,0,.412-.588,1.263,1.263,0,0,0,.114-.51c0-.078-.02-.314-.063-.706S8.227,7.557,8.227,7.2A2.52,2.52,0,0,1,8.3,6.538a1.394,1.394,0,0,1,.274-.549,1.052,1.052,0,0,1,.51-.392,2.606,2.606,0,0,1,.823-.118,1.085,1.085,0,0,1,.353.039,1.355,1.355,0,0,1,.47.118,1.619,1.619,0,0,1,.431.274,1.759,1.759,0,0,1,.392.51,3.813,3.813,0,0,1,.2.784c.039.2.039.392.078.666,0,.235.039.392.039.51.039.118.039.274.078.47a1.4,1.4,0,0,0,.157.431,2.924,2.924,0,0,0,.274.47c.118.2.274.392.431.627a3.931,3.931,0,0,1,.784,1.255,3.294,3.294,0,0,1,.314,1.447,2.664,2.664,0,0,1-.118.788.172.172,0,0,1,.157.086,1.1,1.1,0,0,1,.118.357l.039.29a.461.461,0,0,0,.2.239.871.871,0,0,0,.274.176,1.273,1.273,0,0,1,.274.165.349.349,0,0,1,.118.247.381.381,0,0,1-.118.3.614.614,0,0,1-.274.169c-.078.039-.235.118-.47.228a4.268,4.268,0,0,0-.588.423l-.392.334a2.172,2.172,0,0,1-.431.329.857.857,0,0,1-.431.106l-.274-.031a.9.9,0,0,1-.627-.478A13.391,13.391,0,0,0,9.909,16.7" transform="translate(0 0)"/></g></g></svg>