<svg xmlns="http://www.w3.org/2000/svg" width="12" height="12" viewBox="0 0 12 12"><defs><style>.a{fill:none;}.b{fill:#091440;}</style></defs><g transform="translate(-192 -2698)"><rect class="a" width="12" height="12" transform="translate(192 2698)"/><path class="b" d="M64.464,176.943a6.238,6.238,0,0,1-.617,1.109,5.635,5.635,0,0,1-.795.961,1.542,1.542,0,0,1-1.021.45,2.56,2.56,0,0,1-.944-.225,2.707,2.707,0,0,0-1.016-.225,2.8,2.8,0,0,0-1.045.225,2.811,2.811,0,0,1-.9.237,1.452,1.452,0,0,1-1.045-.462,5.917,5.917,0,0,1-.831-.995,6.878,6.878,0,0,1-.879-1.746A6.393,6.393,0,0,1,55,174.191a3.8,3.8,0,0,1,.5-1.988,2.927,2.927,0,0,1,1.045-1.057,2.812,2.812,0,0,1,1.413-.4A3.327,3.327,0,0,1,59.05,171a3.513,3.513,0,0,0,.867.255,5.188,5.188,0,0,0,.961-.3,3.177,3.177,0,0,1,1.307-.232,2.774,2.774,0,0,1,2.173,1.144,2.509,2.509,0,0,0-.487,4.021,2.614,2.614,0,0,0,.795.521Q64.57,176.688,64.464,176.943Zm-2.214-8.713a2.448,2.448,0,0,1-.628,1.606,2.138,2.138,0,0,1-1.776.877,1.787,1.787,0,0,1-.013-.217,2.515,2.515,0,0,1,.666-1.623,2.564,2.564,0,0,1,.811-.609,2.417,2.417,0,0,1,.928-.263,2.084,2.084,0,0,1,.012.23Z" transform="translate(138.397 2530.265)"/></g></svg>