<svg xmlns="http://www.w3.org/2000/svg" width="1004" height="123" viewBox="0 0 1004 123"><defs><style>.a{fill:#091440;stroke:#2970ff;stroke-miterlimit:10;}.a,.b{stroke-width:2px;}.b,.c{fill:none;}.b{stroke:#787f98;stroke-linecap:round;stroke-linejoin:round;}</style></defs><g transform="translate(-138 -2548)"><g transform="translate(0 1553)"><path class="a" d="M1.273,0H12.728A1.272,1.272,0,0,1,14,1.272V12.727A1.273,1.273,0,0,1,12.727,14H1.273A1.273,1.273,0,0,1,0,12.727V1.273A1.273,1.273,0,0,1,1.273,0Z" transform="translate(794.117 997)"/><path class="b" d="M108,847.882V815.441a21,21,0,0,1,21-21H283.465a21,21,0,0,0,21-21V741" transform="translate(497 263)"/><path class="a" d="M1.273,0H12.728A1.272,1.272,0,0,1,14,1.272V12.727A1.273,1.273,0,0,1,12.727,14H1.273A1.273,1.273,0,0,1,0,12.727V1.273A1.273,1.273,0,0,1,1.273,0Z" transform="translate(598 1103)"/></g><rect class="c" width="1004" height="123" transform="translate(138 2548)"/></g></svg>