<svg xmlns="http://www.w3.org/2000/svg" width="16" height="91" viewBox="0 0 16 91"><defs><style>.a{fill:#091440;stroke:#2970ff;stroke-miterlimit:10;}.a,.b{stroke-width:2px;}.b{fill:none;stroke:#787f98;stroke-linecap:round;}</style></defs><g transform="translate(-581.5 -995)"><path class="a" d="M1.273,0H12.728A1.272,1.272,0,0,1,14,1.272V12.727A1.273,1.273,0,0,1,12.727,14H1.273A1.273,1.273,0,0,1,0,12.727V1.273A1.273,1.273,0,0,1,1.273,0Z" transform="translate(582.5 996)"/><line class="b" y2="75" transform="translate(589.5 1003)"/><path class="a" d="M1.273,0H12.728A1.272,1.272,0,0,1,14,1.272V12.727A1.273,1.273,0,0,1,12.727,14H1.273A1.273,1.273,0,0,1,0,12.727V1.273A1.273,1.273,0,0,1,1.273,0Z" transform="translate(582.5 1071)"/></g></svg>