<svg xmlns="http://www.w3.org/2000/svg" width="788" height="123" viewBox="0 0 788 123"><defs><style>.a{fill:#091440;stroke:#2970ff;stroke-miterlimit:10;}.a,.b{stroke-width:2px;}.b,.c{fill:none;}.b{stroke:#787f98;stroke-linecap:round;stroke-linejoin:round;}</style></defs><g transform="translate(-118 -158)"><g transform="translate(-20)"><path class="a" d="M1.273,0H12.728A1.272,1.272,0,0,1,14,1.272V12.727A1.273,1.273,0,0,1,12.727,14H1.273A1.273,1.273,0,0,1,0,12.727V1.273A1.273,1.273,0,0,1,1.273,0Z" transform="translate(520 159)"/><path class="b" d="M176.754,115V82.559a21,21,0,0,0-21-21H51a21,21,0,0,1-21-21V8.118" transform="translate(497 158)"/><path class="a" d="M1.273,0H12.728A1.272,1.272,0,0,1,14,1.272V12.727A1.273,1.273,0,0,1,12.727,14H1.273A1.273,1.273,0,0,1,0,12.727V1.273A1.273,1.273,0,0,1,1.273,0Z" transform="translate(666.5 266)"/></g><rect class="c" width="788" height="123" transform="translate(118 158)"/></g></svg>