<svg xmlns="http://www.w3.org/2000/svg" width="788" height="123" viewBox="0 0 788 123"><defs><style>.a{fill:#091440;stroke:#2970ff;stroke-miterlimit:10;}.a,.b{stroke-width:2px;}.b,.c{fill:none;}.b{stroke:#787f98;stroke-linecap:round;stroke-linejoin:round;}</style></defs><g transform="translate(-118 -715)"><g transform="translate(-20)"><rect class="a" width="14" height="14" rx="1.273" transform="translate(498 716)"/><path class="b" d="M92.966,602.882V570.441a21,21,0,0,0-21-21H42a34,34,0,0,1-34-34V496" transform="translate(497 227)"/><path class="a" d="M1.273,0H12.728A1.272,1.272,0,0,1,14,1.272V12.727A1.273,1.273,0,0,1,12.727,14H1.273A1.273,1.273,0,0,1,0,12.727V1.273A1.273,1.273,0,0,1,1.273,0Z" transform="translate(582.5 822.917)"/></g><rect class="c" width="788" height="123" transform="translate(118 715)"/></g></svg>