<?xml version="1.0" encoding="utf-8"?>
<!-- Generator: Adobe Illustrator 21.0.0, SVG Export Plug-In . SVG Version: 6.00 Build 0)  -->
<svg version="1.1" id="Layer_1" xmlns="http://www.w3.org/2000/svg" xmlns:xlink="http://www.w3.org/1999/xlink" x="0px" y="0px"
	 viewBox="0 0 540 325" style="enable-background:new 0 0 540 325;" xml:space="preserve">
<style type="text/css">
	.st0{opacity:0.8;fill:#B6E9F9;enable-background:new    ;}
	.st1{fill:#2970FF;}
	.st2{fill:#699BFF;}
	.st3{opacity:0.5;fill:#2F74FB;enable-background:new    ;}
	
		.st4{opacity:0.5;fill:none;stroke:#D5EDFA;stroke-width:3.5539;stroke-linecap:round;stroke-miterlimit:10;enable-background:new    ;}
	.st5{fill:#25549F;}
	.st6{opacity:0.5;fill:#EAF6FD;enable-background:new    ;}
	.st7{fill:#4A67B0;}
	.st8{fill:#091440;}
	.st9{fill:none;}
	.st10{fill:#E6AFA1;}
	.st11{fill:#8795A2;}
	.st12{fill:#FB7151;}
	.st13{fill:#DB9583;}
	.st14{opacity:0.5;clip-path:url(#SVGID_2_);fill:#091440;enable-background:new    ;}
	.st15{fill:#1A1A18;}
	.st16{fill:#2F74FB;}
	.st17{opacity:0.5;fill:#091440;enable-background:new    ;}
	.st18{fill:#6ED3F3;}
	.st19{fill:#EAF6FD;}
	.st20{fill:#052F4B;}
	.st21{fill:#FDC6B9;}
	.st22{fill:#3AD7A4;}
	.st23{fill:#FAC7B9;}
	.st24{opacity:0.5;fill:#6ED3F3;enable-background:new    ;}
	.st25{fill:#9CC2FF;}
	.st26{fill:none;stroke:#25549F;stroke-width:0.7108;stroke-linecap:round;stroke-linejoin:round;stroke-miterlimit:10;}
</style>
<path id="XMLID_746_" class="st0" d="M499,95.7c-0.3,0-0.6,0-0.9,0h-159c-0.3,0-0.6,0-0.9,0c-4.5,0.5-8,4.2-8,8.8v85.9
	c0,4.9,4,8.9,8.9,8.9s8.9-4,8.9-8.9v-77h142.1v35.1c0,4.9,4,8.9,8.9,8.9s8.9-4,8.9-8.9v-44C507.9,99.6,504,95.7,499,95.7z"/>
<path id="XMLID_745_" class="st1" d="M451.2,107.7c-1.3-0.3-2.1-1.5-1.8-2.8c0.3-1.3,1.5-2.1,2.8-1.8l0,0l0.4-2l-12-2.5l-0.4,2
	c1.3,0.3,2.1,1.5,1.8,2.8c-0.3,1.3-1.5,2.1-2.8,1.8l-0.4,2l12,2.5L451.2,107.7L451.2,107.7z"/>
<circle id="XMLID_744_" class="st2" cx="445.7" cy="104.1" r="2.6"/>
<path id="XMLID_742_" class="st3" d="M506.1,104.5c0-3.9-3.2-7.1-7.1-7.1H339.1c-3.9,0-7.1,3.2-7.1,7.1l0,0l0,0v85.9
	c0,3.9,3.2,7.1,7.1,7.1s7.1-3.2,7.1-7.1v-78.9h145.7v36.9c0,3.9,3.2,7.1,7.1,7.1s7.1-3.2,7.1-7.1L506.1,104.5
	C506.1,104.6,506.1,104.5,506.1,104.5L506.1,104.5z"/>
<line id="XMLID_741_" class="st4" x1="495.9" y1="112.8" x2="495.9" y2="153.3"/>
<line id="XMLID_740_" class="st4" x1="335.9" y1="110.8" x2="335.9" y2="182.3"/>
<rect id="XMLID_739_" x="488.7" y="117.4" class="st5" width="20.8" height="4"/>
<rect id="XMLID_738_" x="488.7" y="117.4" class="st6" width="1.5" height="4"/>
<rect id="XMLID_736_" x="482.2" y="94.2" class="st5" width="4" height="20.8"/>
<rect id="XMLID_735_" x="482.2" y="94.2" class="st6" width="4" height="1.5"/>
<rect id="XMLID_733_" x="352" y="93.7" class="st5" width="4" height="20.8"/>
<rect id="XMLID_732_" x="352" y="93.7" class="st6" width="4" height="1.5"/>
<rect id="XMLID_730_" x="417.1" y="93.7" class="st7" width="4" height="20.8"/>
<rect id="XMLID_729_" x="417.1" y="93.7" class="st6" width="4" height="1.5"/>
<rect id="XMLID_727_" x="328.7" y="117.4" class="st5" width="20.8" height="4"/>
<rect id="XMLID_726_" x="328.7" y="117.4" class="st6" width="1.5" height="4"/>
<path id="XMLID_723_" class="st8" d="M281.3,129.1c0,0,6,25.2,6,31.9s-2.4,15.4-12.2,12.1s-5.2-20.2-5.2-20.2L281.3,129.1z"/>
<path id="XMLID_722_" class="st8" d="M235.6,125.5c0,0-10.6,23.7-11.8,30.3s-0.1,16.2,10.1,14.8c10.2-1.4,8.5-19.5,8.5-19.5
	L235.6,125.5z"/>
<path id="XMLID_721_" class="st9" d="M255.8,211.9l-4.8,0.3c0,0-3.6,26.8-1.8,42.8c1.3,12,0.3,40.2-0.4,53.5h21.1l-6.5-46.9
	L255.8,211.9z"/>
<path id="XMLID_720_" class="st10" d="M238.7,313.2l9.7,2.6c0,0,0.2-2.8,0.4-7.2h-10.5C238.5,311.5,238.7,313.2,238.7,313.2z"/>
<path id="XMLID_719_" class="st11" d="M276.8,253c-2.8-14.3-1.8-58.7-1.8-58.7l-40.1-18.8c0,0,0,0-2.4,25.1
	c-2.1,21.6,4,89.6,5.8,108h10.5c0.6-13.3,1.7-41.5,0.4-53.5c-1.8-16,1.8-42.8,1.8-42.8l4.8-0.3l7.6,49.7l6.5,46.9h10.2
	C280.2,293.2,281,274.6,276.8,253z"/>
<path id="XMLID_718_" class="st10" d="M269.9,308.6l1,7.2h9.2c0,0,0,0,0-6c0-0.4,0-0.8,0-1.2H269.9L269.9,308.6z"/>
<path id="XMLID_716_" class="st5" d="M238.4,309.8c0,0-3.3,1.7-10.7,3.7s-8,3.3-8,5.1c5.1,0,29.5,0,29.5,0l-0.4-8.9
	C248.7,309.8,243.8,316.4,238.4,309.8z"/>
<path id="XMLID_715_" class="st5" d="M280.2,311v7.7h-16.9c0,0-0.3-1.5,0.8-2.9c1-1.4,6.1-5.4,6.1-5.4s2.8-1.3,4.6,0.5
	C276.5,312.6,278.2,313.3,280.2,311z"/>
<path id="XMLID_713_" class="st8" d="M279.9,126.1c0,0-12.2-7.7-16.5-7.9c-4.2-0.3-12.2,0-12.2,0s-12.7,4.2-15.7,7.2
	s-4.7,37.6-4.7,37.6l3.4,1.4l-2.2,39.2c0,0,8.5,6.9,25.3,5.1c16.8-1.8,17.7-3.6,17.7-3.6l0.1-36.4l10-6.3
	C285,162.4,283.8,131,279.9,126.1z"/>
<path id="XMLID_712_" class="st12" d="M263.4,119.8c0,0-1.7,13.7-1.9,29.6s-1.4,58.9-1.4,58.9s-7.2,1.3-11.5,0.6
	c-1.1-20.4,2.7-90.7,2.7-90.7L263.4,119.8z"/>
<path id="XMLID_710_" class="st13" d="M261.5,101.3c0,0,2.6-4.5,2.4,2.2s-0.4,14.9-0.6,16.3c-0.1,1.4-2.2,6.9-7.1,6.3
	c-4.6-0.6-5.5-5.6-5-8.4s-0.6-8.5-0.6-8.5L261.5,101.3z"/>
<g id="XMLID_707_">
	<g>
		<g>
			<g>
				<defs>
					<path id="SVGID_1_" d="M261.5,101.3c0,0,2.6-4.5,2.4,2.2s-0.4,14.9-0.6,16.3c-0.1,1.4-2.2,6.9-7.1,6.3c-4.6-0.6-5.5-5.6-5-8.4
						s-0.6-8.5-0.6-8.5L261.5,101.3z"/>
				</defs>
				<clipPath id="SVGID_2_">
					<use xlink:href="#SVGID_1_"  style="overflow:visible;"/>
				</clipPath>
				<path id="XMLID_709_" class="st14" d="M255.7,115.4c-7.5,1.2-10.2-5.2-11-15s3.8-16.4,8.5-17.2s11,5.6,11.3,16.8
					C264.8,111.1,259.5,114.8,255.7,115.4z"/>
			</g>
		</g>
	</g>
</g>
<path id="XMLID_706_" class="st13" d="M252.1,113.2c-7.1-2.6-7-9.9-2.9-18.8c4.1-9,11.9-12.1,16.5-10.5c4.5,1.6,6.9,10.2,1.7,20.2
	C262.1,113.9,255.7,114.5,252.1,113.2z"/>
<path id="XMLID_705_" class="st13" d="M269.6,108.7c-0.9,0.9-2,1.4-3.2,1.4c-1.6,0-3.5-0.3-3.3-2.3c0.3-3.2,6.6-7,8-3.9
	C272,105.7,270.8,107.5,269.6,108.7z"/>
<path id="XMLID_704_" class="st8" d="M266.7,104.4l-2.3-0.3c0,0,3.6-4.2,4.7-7.6s-0.8-6.6-5.1-7.6c-4.4-1-6.4-3.3-7.2-6.1
	c0,0,3.9-3.1,11.4-0.6c5.9,1.9,8.5,7.7,7.2,12.6s-4.8,8.5-4.8,8.5S269.2,101.8,266.7,104.4z"/>
<rect id="XMLID_703_" x="213.7" y="130.6" class="st0" width="84.4" height="17.8"/>
<rect id="XMLID_702_" x="213.7" y="132.4" class="st3" width="84.4" height="14.2"/>
<rect id="XMLID_700_" x="224.6" y="129.1" class="st5" width="4" height="20.8"/>
<rect id="XMLID_699_" x="224.6" y="148.3" class="st6" width="4" height="1.5"/>
<rect id="XMLID_697_" x="283.3" y="129.1" class="st5" width="4" height="20.8"/>
<rect id="XMLID_696_" x="283.3" y="148.3" class="st6" width="4" height="1.5"/>
<path id="XMLID_693_" class="st13" d="M272.6,165.5c0,0,1.7,6.6,7.5,5.4s6.2-9.6,4.2-12.6c-2.4-3.5-7.2-7.7-7.2-7.7l-5.3-1.6
	C271.8,148.9,271,158.7,272.6,165.5z"/>
<polygon id="XMLID_692_" class="st13" points="271.8,148.9 272.1,140 278.5,137.9 282.5,147.4 277,153.9 "/>
<path id="XMLID_691_" class="st13" d="M238,162.9c0,0-1.7,6.6-7.5,5.4s-6.2-9.6-4.2-12.6c2.4-3.5,7.2-7.7,7.2-7.7l5.3-1.6
	C238.8,146.3,239.6,156.1,238,162.9z"/>
<polygon id="XMLID_690_" class="st13" points="238.8,146.3 238.5,137.4 232.1,135.3 228.1,144.8 233.6,151.3 "/>
<path id="XMLID_688_" class="st0" d="M205.8,212.1h124.4c4.9,0,8.9-4,8.9-8.9s-4-8.9-8.9-8.9H205.8V212.1z"/>
<path id="XMLID_687_" class="st3" d="M205.8,196.1h124.4c3.9,0,7.1,3.2,7.1,7.1s-3.2,7.1-7.1,7.1H205.8V196.1z"/>
<rect id="XMLID_685_" x="205.8" y="192.8" class="st5" width="4" height="20.8"/>
<rect id="XMLID_684_" x="205.8" y="192.8" class="st6" width="4" height="1.5"/>
<rect id="XMLID_682_" x="205.8" y="139.5" class="st5" width="4" height="20.8"/>
<rect id="XMLID_681_" x="205.8" y="139.5" class="st6" width="4" height="1.5"/>
<rect id="XMLID_679_" x="269.1" y="192.8" class="st5" width="4" height="20.8"/>
<rect id="XMLID_678_" x="269.1" y="192.8" class="st6" width="4" height="1.5"/>
<rect id="XMLID_675_" x="312.5" y="220.9" class="st8" width="195.5" height="8.9"/>
<rect id="XMLID_674_" x="419.1" y="194.3" class="st5" width="88.8" height="26.7"/>
<circle id="XMLID_673_" class="st7" cx="463.5" cy="207.6" r="8.9"/>
<circle id="XMLID_672_" class="st15" cx="463.5" cy="207.6" r="7.2"/>
<circle id="XMLID_670_" class="st7" cx="436.8" cy="207.6" r="8.9"/>
<circle id="XMLID_669_" class="st15" cx="436.8" cy="207.6" r="7.2"/>
<path id="XMLID_667_" class="st0" d="M472.4,207.7c0-4.9-4-8.9-8.9-8.9s-8.9,4-8.9,8.9v39.9H205.8v17.8h257.7c4.9,0,8.9-4,8.9-8.9
	l0,0l0,0V207.7z"/>
<path id="XMLID_666_" class="st1" d="M416.3,258.8c-1.3,0-2.3-1-2.3-2.3s1-2.3,2.3-2.3l0,0v-2h-12.2v2c1.3,0,2.3,1,2.3,2.3
	c0,1.3-1,2.3-2.3,2.3v2h12.2V258.8L416.3,258.8z"/>
<circle id="XMLID_665_" class="st2" cx="410.2" cy="256.5" r="2.6"/>
<path id="XMLID_663_" class="st1" d="M231.1,257.2c-1.2,0.3-2.5-0.4-2.9-1.6c-0.3-1.2,0.4-2.5,1.6-2.9l0,0l-0.5-2l-11.8,3.2l0.5,2
	c1.2-0.3,2.5,0.4,2.9,1.6c0.3,1.2-0.4,2.5-1.6,2.9l0.5,2l11.8-3.2L231.1,257.2L231.1,257.2z"/>
<circle id="XMLID_662_" class="st2" cx="224.6" cy="256.5" r="2.6"/>
<path id="XMLID_660_" class="st3" d="M470.6,207.7c0-3.9-3.2-7.1-7.1-7.1s-7.1,3.2-7.1,7.1v41.7H205.8v14.2h257.7
	c3.9,0,7.1-3.2,7.1-7.1l0,0l0,0V207.7z"/>
<line id="XMLID_659_" class="st4" x1="460.2" y1="208.6" x2="460.2" y2="249.1"/>
<rect id="XMLID_657_" x="453.1" y="218.5" class="st5" width="20.8" height="4"/>
<rect id="XMLID_656_" x="453.1" y="218.5" class="st6" width="1.5" height="4"/>
<rect id="XMLID_654_" x="446.7" y="246" class="st5" width="4" height="20.8"/>
<rect id="XMLID_653_" x="446.7" y="246" class="st6" width="4" height="1.5"/>
<rect id="XMLID_651_" x="453.1" y="239.7" class="st5" width="20.8" height="4"/>
<rect id="XMLID_650_" x="453.1" y="239.7" class="st6" width="1.5" height="4"/>
<rect id="XMLID_647_" x="205.8" y="246.1" class="st5" width="4" height="20.8"/>
<rect id="XMLID_646_" x="205.8" y="246.1" class="st6" width="4" height="1.5"/>
<rect id="XMLID_644_" x="268.9" y="246.1" class="st5" width="4" height="20.8"/>
<rect id="XMLID_643_" x="268.9" y="246.1" class="st6" width="4" height="1.5"/>
<rect id="XMLID_641_" x="332.1" y="246.1" class="st5" width="4" height="20.8"/>
<rect id="XMLID_640_" x="332.1" y="246.1" class="st6" width="4" height="1.5"/>
<rect id="XMLID_638_" x="395.2" y="246.1" class="st5" width="4" height="20.8"/>
<rect id="XMLID_637_" x="395.2" y="246.1" class="st6" width="4" height="1.5"/>
<circle id="XMLID_634_" class="st16" cx="490.1" cy="207.6" r="8.9"/>
<circle id="XMLID_633_" class="st8" cx="490.1" cy="207.6" r="7.1"/>
<rect id="XMLID_631_" x="499" y="229.8" class="st8" width="8.9" height="88.9"/>
<rect id="XMLID_630_" x="499" y="229.8" class="st17" width="8.9" height="4.4"/>
<rect id="XMLID_628_" x="312.5" y="292" class="st5" width="97.7" height="26.7"/>
<circle id="XMLID_627_" class="st12" cx="401.3" cy="304.2" r="1.8"/>
<rect id="XMLID_626_" x="312.5" y="304.2" class="st16" width="79.3" height="4.4"/>
<rect id="XMLID_625_" x="312.5" y="299.8" class="st8" width="79.3" height="4.4"/>
<rect id="XMLID_622_" x="312.5" y="229.8" class="st8" width="8.9" height="88.9"/>
<rect id="XMLID_621_" x="312.5" y="229.8" class="st17" width="8.9" height="4.4"/>
<path id="XMLID_619_" class="st0" d="M535.5,77.5c0-0.2,0-0.3-0.1-0.5c-0.2-1.1-0.6-2-1.2-2.9c-0.1-0.1-0.1-0.2-0.2-0.3
	c-0.3-0.4-0.6-0.8-0.9-1.1c-0.1-0.1-0.1-0.1-0.2-0.2c-0.1-0.1-0.1-0.1-0.2-0.2c-0.4-0.3-0.7-0.6-1.1-0.9c-0.1-0.1-0.2-0.1-0.3-0.2
	c-0.9-0.5-1.9-1-2.9-1.2c-0.2,0-0.3-0.1-0.5-0.1c-0.4-0.1-0.9-0.1-1.3-0.1h-152c-2.5,0-4.7,1-6.3,2.6c-1.6,1.6-2.6,3.8-2.6,6.3v71.1
	c0,4.9,4,8.9,8.9,8.9l0,0l0,0H499c4.9,0,8.9-4,8.9-8.9s-4-8.9-8.9-8.9H383.5V87.7h134.2v195.4h-72v-75.5c0-4.9-4-8.9-8.9-8.9
	s-8.9,4-8.9,8.9V292c0,4.9,4,8.9,8.9,8.9h89.6c0.1,0,0.1,0,0.2,0c4.9,0,8.9-4,8.9-8.9V78.8C535.6,78.3,535.5,77.9,535.5,77.5z"/>
<path id="XMLID_618_" class="st1" d="M531.7,179.3c-0.6,1.1-2.1,1.5-3.2,0.9s-1.5-2.1-0.9-3.2l0,0l-1.8-1l-6.1,10.6l1.8,1
	c0.6-1.1,2.1-1.5,3.2-0.9c1.1,0.6,1.5,2.1,0.9,3.2l1.8,1l6.1-10.6L531.7,179.3L531.7,179.3z"/>
<circle id="XMLID_617_" class="st2" cx="526.7" cy="183.4" r="2.6"/>
<path id="XMLID_615_" class="st1" d="M405,74.8c-1.3,0.3-2.1,1.5-1.8,2.8s1.5,2.1,2.8,1.8l0,0l0.4,2l-12,2.5l-0.4-2
	c1.3-0.3,2.1-1.5,1.8-2.8s-1.5-2.1-2.8-1.8l-0.4-2l12-2.5L405,74.8L405,74.8z"/>
<circle id="XMLID_614_" class="st2" cx="399.5" cy="78.3" r="2.6"/>
<path id="XMLID_612_" class="st3" d="M533.7,77.8c-0.1-0.4-0.1-0.8-0.2-1.1v-0.1c-0.9-2.8-3.6-4.9-6.7-4.9h-152c-2,0-3.7,0.8-5,2.1
	c-1.3,1.3-2.1,3.1-2.1,5v71.1c0,3.9,3.2,7.1,7.1,7.1l0,0H499c3.9,0,7.1-3.2,7.1-7.1c0-3.9-3.2-7.1-7.1-7.1H381.8V85.9h137.8v199H444
	v-77.3c0-3.9-3.2-7.1-7.1-7.1s-7.1,3.2-7.1,7.1V292c0,0.4,0,0.7,0.1,1.1c0,0.1,0,0.2,0,0.3c0.1,0.4,0.2,0.7,0.3,1.1
	c1,2.7,3.6,4.6,6.6,4.6l0,0h89.6c0.1,0,0.2,0,0.2,0c3.9,0,7.1-3.2,7.1-7.1V78.8C533.8,78.5,533.7,78.1,533.7,77.8z"/>
<line id="XMLID_611_" class="st4" x1="433.7" y1="208.6" x2="433.7" y2="286.6"/>
<line id="XMLID_610_" class="st4" x1="523.6" y1="85.6" x2="523.6" y2="284.1"/>
<line id="XMLID_609_" class="st4" x1="371.1" y1="78.3" x2="371.1" y2="149.9"/>
<rect id="XMLID_608_" x="426.5" y="218.5" class="st5" width="20.8" height="4"/>
<rect id="XMLID_607_" x="426.5" y="218.5" class="st6" width="1.5" height="4"/>
<rect id="XMLID_605_" x="426.5" y="275.2" class="st5" width="20.8" height="4"/>
<rect id="XMLID_604_" x="426.5" y="275.2" class="st6" width="1.5" height="4"/>
<rect id="XMLID_602_" x="449.7" y="281.6" class="st5" width="4" height="20.8"/>
<rect id="XMLID_601_" x="449.7" y="281.6" class="st6" width="4" height="1.5"/>
<rect id="XMLID_599_" x="364.2" y="132.9" class="st5" width="20.8" height="4"/>
<rect id="XMLID_598_" x="364.2" y="132.9" class="st6" width="1.5" height="4"/>
<rect id="XMLID_596_" x="387.5" y="139.3" class="st5" width="4" height="20.8"/>
<rect id="XMLID_595_" x="387.5" y="139.3" class="st6" width="4" height="1.5"/>
<rect id="XMLID_593_" x="516.3" y="91.6" class="st5" width="20.8" height="4"/>
<rect id="XMLID_592_" x="516.3" y="91.6" class="st6" width="1.5" height="4"/>
<rect id="XMLID_590_" x="516.3" y="152.8" class="st5" width="20.8" height="4"/>
<rect id="XMLID_589_" x="516.3" y="152.8" class="st6" width="1.5" height="4"/>
<rect id="XMLID_587_" x="516.3" y="214" class="st5" width="20.8" height="4"/>
<rect id="XMLID_586_" x="516.3" y="214" class="st6" width="1.5" height="4"/>
<rect id="XMLID_584_" x="509.8" y="68.3" class="st5" width="4" height="20.8"/>
<rect id="XMLID_583_" x="509.8" y="68.3" class="st6" width="4" height="1.5"/>
<rect id="XMLID_581_" x="509.9" y="281.6" class="st5" width="4" height="20.8"/>
<rect id="XMLID_580_" x="509.9" y="281.6" class="st6" width="4" height="1.5"/>
<rect id="XMLID_578_" x="516.2" y="275.2" class="st5" width="20.8" height="4"/>
<rect id="XMLID_577_" x="516.2" y="275.2" class="st6" width="1.5" height="4"/>
<rect id="XMLID_575_" x="387.5" y="67.9" class="st5" width="4" height="20.8"/>
<rect id="XMLID_574_" x="387.5" y="67.9" class="st6" width="4" height="1.5"/>
<rect id="XMLID_572_" x="448.7" y="67.9" class="st5" width="4" height="20.8"/>
<rect id="XMLID_571_" x="448.7" y="67.9" class="st6" width="4" height="1.5"/>
<rect id="XMLID_569_" x="364.2" y="91.6" class="st5" width="20.8" height="4"/>
<rect id="XMLID_568_" x="364.2" y="91.6" class="st6" width="1.5" height="4"/>
<rect id="XMLID_564_" x="419.1" y="132.1" class="st5" width="88.8" height="53.3"/>
<rect id="XMLID_563_" x="423.1" y="136.1" class="st18" width="80.8" height="45.2"/>
<polygon id="XMLID_562_" class="st16" points="472.4,189.3 454.6,189.3 445.7,192.1 481.3,192.1 "/>
<rect id="XMLID_561_" x="445.7" y="192.1" class="st5" width="35.5" height="2.2"/>
<rect id="XMLID_560_" x="454.6" y="185.4" class="st5" width="17.8" height="3.9"/>
<rect id="XMLID_559_" x="454.6" y="185.4" class="st17" width="17.8" height="2"/>
<path id="XMLID_558_" class="st19" d="M468.7,162.5c2-0.8,3.4-2.8,3.4-5.1c0-3-2.5-5.5-5.5-5.5h-4.3l3,2.6h1.4
	c1.6,0,2.9,1.3,2.9,2.9c0,1.6-1.3,2.9-2.9,2.9h-4.3l5.9,5.1h3.9L468.7,162.5z"/>
<path id="XMLID_557_" class="st19" d="M461.5,162.9h-1.4c-1.6,0-2.9-1.3-2.9-2.9s1.3-2.9,2.9-2.9h4.3l-5.9-5.1h-3.9l3.4,3
	c-2,0.8-3.4,2.8-3.4,5.1c0,3,2.5,5.5,5.5,5.5h4.3L461.5,162.9z"/>
<rect id="XMLID_554_" x="312.5" y="194.3" class="st5" width="97.7" height="26.7"/>
<circle id="XMLID_553_" class="st12" cx="401.3" cy="206.5" r="1.8"/>
<rect id="XMLID_552_" x="312.5" y="206.5" class="st16" width="79.3" height="4.4"/>
<rect id="XMLID_551_" x="312.5" y="202" class="st8" width="79.3" height="4.4"/>
<rect id="XMLID_539_" x="312.5" y="167.6" class="st5" width="97.7" height="26.7"/>
<circle id="XMLID_534_" class="st12" cx="401.3" cy="179.8" r="1.8"/>
<rect id="XMLID_532_" x="312.5" y="179.8" class="st16" width="79.3" height="4.4"/>
<rect id="XMLID_507_" x="312.5" y="175.4" class="st8" width="79.3" height="4.4"/>
<polygon id="XMLID_486_" class="st20" points="405.3,283.1 410.2,283.1 410.2,283.1 "/>
<polygon id="XMLID_481_" class="st5" points="28.1,107.7 10.4,107.7 10.4,318.7 28.1,318.7 205.8,318.7 205.8,107.7 "/>
<rect id="XMLID_480_" x="10.4" y="158.8" class="st16" width="4.4" height="159.9"/>
<rect id="XMLID_479_" x="14.8" y="158.8" class="st8" width="4.4" height="159.9"/>
<rect id="XMLID_470_" x="28.1" y="158.8" class="st16" width="4.4" height="159.9"/>
<rect id="XMLID_469_" x="32.6" y="158.8" class="st8" width="4.4" height="159.9"/>
<rect id="XMLID_464_" x="45.9" y="158.8" class="st16" width="4.4" height="159.9"/>
<rect id="XMLID_463_" x="50.4" y="158.8" class="st8" width="4.4" height="159.9"/>
<rect id="XMLID_461_" x="63.7" y="158.8" class="st16" width="4.4" height="159.9"/>
<rect id="XMLID_460_" x="68.1" y="158.8" class="st8" width="4.4" height="159.9"/>
<rect id="XMLID_456_" x="81.4" y="158.8" class="st16" width="4.4" height="159.9"/>
<rect id="XMLID_453_" x="85.9" y="158.8" class="st8" width="4.4" height="159.9"/>
<rect id="XMLID_441_" x="99.2" y="158.8" class="st16" width="4.4" height="159.9"/>
<rect id="XMLID_440_" x="103.7" y="158.8" class="st8" width="4.4" height="159.9"/>
<rect id="XMLID_430_" x="117" y="158.8" class="st16" width="4.4" height="159.9"/>
<rect id="XMLID_425_" x="121.4" y="158.8" class="st8" width="4.4" height="159.9"/>
<rect id="XMLID_421_" x="134.8" y="158.8" class="st16" width="4.4" height="159.9"/>
<rect id="XMLID_420_" x="139.2" y="158.8" class="st8" width="4.4" height="159.9"/>
<rect id="XMLID_416_" x="152.5" y="158.8" class="st16" width="4.4" height="159.9"/>
<rect id="XMLID_415_" x="157" y="158.8" class="st8" width="4.4" height="159.9"/>
<rect id="XMLID_413_" x="170.3" y="158.8" class="st16" width="4.4" height="159.9"/>
<rect id="XMLID_402_" x="174.7" y="158.8" class="st8" width="4.4" height="159.9"/>
<rect id="XMLID_368_" x="188.1" y="158.8" class="st16" width="4.4" height="159.9"/>
<rect id="XMLID_363_" x="192.5" y="158.8" class="st8" width="4.4" height="159.9"/>
<rect id="XMLID_324_" x="63.7" y="158.8" class="st8" width="88.8" height="35.5"/>
<rect id="XMLID_323_" x="67.7" y="162.8" class="st18" width="80.8" height="27.5"/>
<polygon id="XMLID_321_" class="st16" points="103.7,190.3 94.7,190.3 94.7,176.5 103.7,172.2 "/>
<polygon id="XMLID_320_" class="st16" points="121.6,190.3 112.6,190.3 112.6,167.9 117.1,165.2 121.6,167.9 "/>
<polygon id="XMLID_319_" class="st16" points="112.6,190.3 103.7,190.3 103.7,172.2 112.6,167.9 "/>
<polygon id="XMLID_318_" class="st16" points="94.7,190.3 85.7,190.3 85.7,179.1 94.7,176.5 "/>
<polygon id="XMLID_317_" class="st16" points="76.8,190.3 67.8,190.3 67.8,182 76.8,176.5 "/>
<polygon id="XMLID_316_" class="st16" points="85.7,190.3 76.8,190.3 76.8,176.5 85.7,179.1 "/>
<polygon id="XMLID_315_" class="st16" points="139.5,190.3 130.6,190.3 130.6,178.9 139.5,181.2 "/>
<polygon id="XMLID_314_" class="st16" points="148.5,190.3 139.5,190.3 139.5,181.2 148.5,178.9 "/>
<polygon id="XMLID_311_" class="st16" points="130.6,190.3 121.6,190.3 121.6,167.9 130.6,178.9 "/>
<circle id="XMLID_304_" class="st16" cx="108.1" cy="216.5" r="13.3"/>
<circle id="XMLID_302_" class="st8" cx="108.1" cy="216.5" r="10.7"/>
<circle id="XMLID_300_" class="st12" cx="81.1" cy="141" r="2.4"/>
<circle id="XMLID_299_" class="st12" cx="98.8" cy="141" r="2.4"/>
<circle id="XMLID_295_" class="st12" cx="117" cy="141" r="2.4"/>
<circle id="XMLID_294_" class="st12" cx="134.7" cy="141" r="2.4"/>
<circle id="XMLID_289_" class="st12" cx="81.1" cy="123.2" r="2.4"/>
<circle id="XMLID_286_" class="st12" cx="98.8" cy="123.2" r="2.4"/>
<circle id="XMLID_284_" class="st12" cx="117" cy="123.2" r="2.4"/>
<circle id="XMLID_282_" class="st12" cx="134.7" cy="123.2" r="2.4"/>
<circle id="XMLID_275_" class="st18" cx="170.1" cy="123.2" r="2.4"/>
<circle id="XMLID_271_" class="st18" cx="188.2" cy="123.2" r="2.4"/>
<circle id="XMLID_268_" class="st18" cx="170.1" cy="141" r="2.4"/>
<circle id="XMLID_267_" class="st18" cx="188.2" cy="141" r="2.4"/>
<circle id="XMLID_262_" class="st18" cx="27.9" cy="123.2" r="2.4"/>
<circle id="XMLID_258_" class="st18" cx="46.1" cy="123.2" r="2.4"/>
<circle id="XMLID_254_" class="st18" cx="27.9" cy="141" r="2.4"/>
<circle id="XMLID_253_" class="st18" cx="46.1" cy="141" r="2.4"/>
<path id="XMLID_250_" class="st21" d="M120.8,76.3c-16.3,5.1-33,13.5-36,13.5s-9.4-3-19,0s-35.2,13.8-35.2,13.8v4.2h108.3L134,84.9
	L120.8,76.3z"/>
<path id="XMLID_249_" class="st17" d="M120.8,76.3c0,0,0.8,9.5-2.4,11.6c-3.3,2.1-22.1,7.5-22.1,7.5l43.5-2L120.8,76.3z"/>
<path id="XMLID_248_" class="st21" d="M138.8,107.7H76.5v-8.5c0,0,40.1-7.8,48.7-8.7c8.6-0.9,15.4-1.3,17.5,1.8
	C151.3,104.7,138.8,107.7,138.8,107.7z"/>
<path id="XMLID_247_" class="st8" d="M155.7,66.5c-14.1,1.1-35,9.8-35,9.8l0.2,1.8c0.5,6.1,4.9,10.9,10.8,12.6
	c0.9,0.2,1.7,0.6,2.4,1.2c7.5,5.9-0.5,15.9-0.5,15.9h36.7l3.6-12.7L155.7,66.5z"/>
<path id="XMLID_246_" class="st21" d="M217.8,71.9c0,0,1.8,19,4,31.2s0,21.9,0,21.9l-10.9,9v-2.9l4.1-3.5l-2-7.5l4.4-2.9
	c0,0-6.3-20-6.5-24.1s-4.1-24.5-4.1-24.5L217.8,71.9z"/>
<polygon id="XMLID_245_" class="st17" points="208.9,80.5 218.5,79.3 218.3,77.1 208.7,78.3 "/>
<path id="XMLID_244_" class="st18" d="M203.7,60.8c0,0,3.5,14.9,4.3,18.3c4.2-0.4,11.1-1.5,11.1-1.5s2.5-24.4-5.4-27.1
	C207.8,48.5,203.7,55.2,203.7,60.8z"/>
<path id="XMLID_243_" class="st18" d="M201.3,36.6c4.7,3.4,13.3,9.5,16.5,18.8c-28.2,19.8-35.6,51-47.5,52.7c0,0,2.2-13.7-8.9-21.1
	c-12.3-8.2-11.3-19.7-11.3-19.7s5-0.8,7.4-0.8c23.4-0.3,13.4-16.5,29.9-29.8c2.4-1.9,3.3-2.4,5.8-2.4
	C198.6,34.2,201.3,36.6,201.3,36.6z"/>
<path id="XMLID_242_" class="st18" d="M214.5,57.8c0,0-5.9,16.6-12.4,18.5s-12.4-4.1-12.4-4.1L214.5,57.8z"/>
<path id="XMLID_241_" class="st21" d="M214.6,29.8c0,0-3,5.3-8.1,6.9c-3.6,1.2-3.6,1.2-3.6,1.2s-2.9,5.9,2.7,12.8
	c0,0,5.8-2.7,12.9-6.8C225.7,39.9,214.6,29.8,214.6,29.8z"/>
<path id="XMLID_240_" class="st12" d="M219.5,15.5c0,0-2.1-9.8-11-10S194.6,17.2,198,26.2s3.4,9.1,3.4,9.1s4.1,0.5,6.8-3.7
	C210.9,27.5,219.5,15.5,219.5,15.5z"/>
<path id="XMLID_239_" class="st21" d="M218.3,49.2c-4.7-0.9-6.9-7.4-6.7-13.7s6.8-19.7,14-18.5s10.3,8.9,8.3,16.4
	C232.9,37.4,224.8,50.5,218.3,49.2z"/>
<path id="XMLID_238_" class="st22" d="M220.9,14.2c0,0-2.5-1.8-5.6,0.1s-2.8,6.2-2.8,6.2L220.9,14.2z"/>
<path id="XMLID_237_" class="st12" d="M216.6,28c0,0,9.9,7.9,19.4,7.1l2.2-0.5c0,0,2.7-12.9-4.2-17.7c-4.9-3.4-11.5-4.2-17.3-1.5
	c-4.1,1.9-7.3,11.5-7.3,11.5l4.9,6.5L216.6,28z"/>
<path id="XMLID_236_" class="st23" d="M207.7,29.9c-0.1,1,0.1,2.1,0.8,2.9c0.8,1,2.1,2.2,3.3,1c2-1.9,1-8.2-1.8-7.5
	C208.5,26.7,207.9,28.5,207.7,29.9z"/>
<path id="XMLID_235_" class="st21" d="M232.8,36.5c-1.9,4.1-1,7-1,7s-2.6,0.7-5.1-1.2C224.1,40.4,232.8,36.5,232.8,36.5z"/>
<path id="XMLID_233_" class="st17" d="M191.7,82l-0.7,1.8l-2.1,3.3c0,0-2.9-12.7-3.4-18.8c-0.7-8.1,0.7-23.4,0.7-23.4l5.6,15.6
	L191.7,82L191.7,82z"/>
<path id="XMLID_232_" class="st21" d="M188.8,39c3-5.2,10.8-0.8,11.1,7.4c0.4,12.7,0,56,0,56l9.9,3l-2,10.3l-2-1.7v-6.4h-11.7
	c0,0-4.7-28.3-4.5-32.5s0.3-8.9-1.2-19.1S187.2,41.6,188.8,39z"/>
<polygon id="XMLID_231_" class="st17" points="199.9,60.7 200,61.6 200,63.4 189.2,62.9 189,60.7 "/>
<path id="XMLID_230_" class="st18" d="M186.1,44.8c0,0,1.1,12.8,1.9,16.2c5,0.6,12.3,0.6,12.3,0.6s2.5-24.4-5.4-27.1
	C189,32.5,186.1,39.2,186.1,44.8z"/>
<path id="XMLID_227_" class="st8" d="M82.5,98c0,0-0.2-0.2-5.6,0.3c-2.4,0.2-6.6-0.2-10.3-0.9c-4.9-0.9-10.4-2.8-14.9,0.2
	s-3.3,10,6.9,10s21.9,0,21.9,0s-2.8-0.8-3-4.9C77.4,100,82.5,98,82.5,98z"/>
<path id="XMLID_226_" class="st24" d="M56.1,105c8.6,0,19.2,0,19.2,0v-3.8c0,0-12.3-1.5-15.4-1.9C51.5,98.2,48.4,105,56.1,105z"/>
<polygon id="XMLID_224_" class="st25" points="54.5,107.7 20.5,107.7 11.6,61 45.6,61 "/>
<rect id="XMLID_223_" x="31.2" y="106" class="st25" width="57.5" height="1.7"/>
<polygon id="XMLID_219_" class="st16" points="52.9,107.7 18.8,107.7 9.9,61 44,61 "/>
<path id="XMLID_214_" class="st4" d="M523.6,85.6"/>
<rect id="XMLID_213_" x="63.7" y="247.6" class="st0" width="88.8" height="71"/>
<path id="XMLID_212_" class="st1" d="M116.2,261.8c-1.2,0.6-2.6,0.1-3.1-1.1c-0.6-1.2-0.1-2.6,1.1-3.1l0,0l-0.9-1.8l-11,5.3l0.9,1.8
	c1.2-0.6,2.6-0.1,3.1,1.1c0.6,1.2,0.1,2.6-1.1,3.1l0.9,1.8l11-5.2L116.2,261.8L116.2,261.8z"/>
<circle id="XMLID_211_" class="st2" cx="109.7" cy="262.3" r="2.6"/>
<rect id="XMLID_208_" x="66.1" y="247.6" class="st3" width="84" height="68.1"/>
<rect id="XMLID_207_" x="62.6" y="242.1" class="st8" width="91" height="5.5"/>
<line id="XMLID_206_" class="st26" x1="1.7" y1="318.3" x2="416.3" y2="318.3"/>
<line id="XMLID_205_" class="st26" x1="427.1" y1="318.3" x2="478.5" y2="318.3"/>
<line id="XMLID_204_" class="st26" x1="487.3" y1="318.3" x2="522.3" y2="318.3"/>
<line id="XMLID_203_" class="st26" x1="530" y1="318.3" x2="536.5" y2="318.3"/>
<line id="XMLID_201_" class="st26" x1="255.9" y1="110.8" x2="255.9" y2="123"/>
<line id="XMLID_199_" class="st26" x1="255.9" y1="168.1" x2="255.9" y2="155.9"/>
<line id="XMLID_197_" class="st26" x1="284.5" y1="139.5" x2="272.3" y2="139.5"/>
<line id="XMLID_196_" class="st26" x1="239.5" y1="139.5" x2="227.3" y2="139.5"/>
<line id="XMLID_195_" class="st26" x1="249.6" y1="124.3" x2="239.5" y2="99.8"/>
<line id="XMLID_194_" class="st26" x1="262.2" y1="154.6" x2="272.3" y2="179.1"/>
<line id="XMLID_193_" class="st26" x1="295.6" y1="123" x2="271.1" y2="133.2"/>
<line id="XMLID_190_" class="st26" x1="216.2" y1="155.9" x2="240.7" y2="145.8"/>
<line id="XMLID_188_" class="st26" x1="276.1" y1="159.7" x2="267.5" y2="151.1"/>
<line id="XMLID_185_" class="st26" x1="235.7" y1="119.2" x2="244.3" y2="127.8"/>
<line id="XMLID_184_" class="st26" x1="276.1" y1="119.2" x2="267.5" y2="127.9"/>
<line id="XMLID_183_" class="st26" x1="235.7" y1="159.7" x2="244.3" y2="151.1"/>
<line id="XMLID_179_" class="st26" x1="240.7" y1="133.2" x2="216.2" y2="123"/>
<line id="XMLID_178_" class="st26" x1="295.6" y1="155.9" x2="271.1" y2="145.8"/>
<line id="XMLID_177_" class="st26" x1="239.5" y1="179.1" x2="249.6" y2="154.6"/>
<line id="XMLID_174_" class="st26" x1="272.3" y1="99.8" x2="262.2" y2="124.3"/>
<line id="XMLID_167_" class="st26" x1="208.7" y1="311.4" x2="208.7" y2="270.1"/>
<line id="XMLID_166_" class="st26" x1="208.7" y1="235.2" x2="208.7" y2="243.7"/>
<path id="XMLID_163_" class="st24" d="M81.1,95.4c0,0-2.1-5.6-8.8-4.9C65.6,91.2,61,93.7,61,93.7S70.9,97.1,81.1,95.4z"/>
<line id="XMLID_159_" class="st26" x1="339.1" y1="164.7" x2="374.9" y2="164.7"/>
<line id="XMLID_157_" class="st26" x1="348.6" y1="161.9" x2="369.5" y2="161.9"/>
</svg>
