<?xml version="1.0" encoding="utf-8"?>
<!-- Generator: Adobe Illustrator 21.0.0, SVG Export Plug-In . SVG Version: 6.00 Build 0)  -->
<svg version="1.1" id="Layer_1" xmlns="http://www.w3.org/2000/svg" xmlns:xlink="http://www.w3.org/1999/xlink" x="0px" y="0px"
	 viewBox="0 0 540 325" style="enable-background:new 0 0 540 325;" xml:space="preserve">
<style type="text/css">
	.st0{fill:#B7CFFE;stroke:#25549F;stroke-width:3.5539;stroke-miterlimit:10;}
	.st1{fill:#25549F;}
	.st2{fill:#FDC6B9;}
	.st3{fill:#F2734F;}
	.st4{opacity:0.5;fill:#091440;enable-background:new    ;}
	.st5{fill:#091440;}
	.st6{fill:#8795A2;}
	.st7{fill:#3AD7A4;}
	.st8{fill:#C1604F;}
	.st9{opacity:0.5;clip-path:url(#SVGID_2_);fill:#091440;enable-background:new    ;}
	.st10{fill:none;stroke:#091440;stroke-width:3.5539;stroke-miterlimit:10;}
	.st11{fill:none;stroke:#091440;stroke-width:7.5995;stroke-miterlimit:10;}
	.st12{fill:#2F74FB;}
	.st13{opacity:0.5;clip-path:url(#SVGID_4_);fill:#091440;enable-background:new    ;}
	.st14{fill:#FB7151;}
	.st15{fill:#FAC7B9;}
	.st16{fill:none;stroke:#25549F;stroke-width:1.4216;stroke-miterlimit:10;}
	.st17{fill:#6ED3F3;}
	.st18{fill:#434B6D;}
	.st19{fill:#FFFFFF;}
	.st20{fill:#5C7FB7;}
	.st21{fill:#A2B6D6;}
	.st22{fill:#6D8CBF;}
	.st23{fill:#FDDBB9;}
	.st24{fill:none;stroke:#2F74FB;stroke-width:0.7108;stroke-linecap:round;stroke-linejoin:round;stroke-miterlimit:10;}
	.st25{fill:none;stroke:#8297A5;stroke-width:0.7108;stroke-linecap:round;stroke-linejoin:round;stroke-miterlimit:10;}
	.st26{fill:none;stroke:#091440;stroke-width:0.7108;stroke-linecap:round;stroke-linejoin:round;stroke-miterlimit:10;}
	.st27{fill:none;stroke:#25549F;stroke-width:0.7108;stroke-linecap:round;stroke-linejoin:round;stroke-miterlimit:10;}
	.st28{fill:#FB7353;}
</style>
<rect id="XMLID_1437_" x="170.6" y="72" class="st0" width="124.4" height="88.8"/>
<path id="XMLID_1290_" class="st1" d="M240.8,122.1c3-1.2,5.1-4.2,5.1-7.6c0-4.6-3.7-8.2-8.2-8.2h-6.5l4.4,3.9h2.1
	c2.4,0,4.4,2,4.4,4.4s-2,4.4-4.4,4.4h-6.5l8.9,7.7h5.9L240.8,122.1z"/>
<path id="XMLID_1289_" class="st1" d="M229.9,122.7h-2.1c-2.4,0-4.4-2-4.4-4.4s2-4.4,4.4-4.4h6.5l-8.9-7.7h-5.9l5.1,4.5
	c-3,1.2-5.1,4.2-5.1,7.6c0,4.6,3.7,8.2,8.2,8.2h6.5L229.9,122.7z"/>
<path id="XMLID_1343_" class="st2" d="M166.7,125.3l6,7.7c0,0,2.7-2.7,6.9-7.7s4.9-12.9,4.9-12.9l-5.1-3.3l3.9-9.9h5.5l6.4,6.5
	c0,0-5,27.6-15.8,38.9c-4.4,4.6-6.9,5.5-6.9,5.5s-10.6-6.7-16-17.3c-5.5-10.6,4.8-11.4,4.8-11.4L166.7,125.3z"/>
<path id="XMLID_1436_" class="st3" d="M223.9,303H375V203c0-23.6-19.2-42.8-42.8-42.8h-65.5c-23.6,0-42.8,19.2-42.8,42.8L223.9,303
	L223.9,303z"/>
<path id="XMLID_1435_" class="st4" d="M356.6,172.7c0,0,7.6,17.9,5.5,55.1s-9.3,34.8-9.3,34.8l-24.5-3l15.3-92.2L356.6,172.7z"/>
<rect id="XMLID_1434_" x="223.9" y="249.6" class="st3" width="151" height="53.3"/>
<path id="XMLID_1433_" class="st3" d="M197.3,303H224v-75.5c0-7.4-6-13.3-13.3-13.3l0,0c-7.4,0-13.3,6-13.3,13.3L197.3,303
	L197.3,303z"/>
<polygon id="XMLID_1432_" class="st4" points="232.8,303 255,303 252.3,249.7 232.8,249.7 "/>
<path id="XMLID_1431_" class="st5" d="M232.6,295.1c-4.8,2.4-7,3.2-10.4,3.9c-4.4,0.9-4.4,3.9-4.4,3.9H250l-0.3-6.5L232.6,295.1z"/>
<path id="XMLID_1430_" class="st6" d="M232.1,295.9c0,0,7.5,1.9,13.3,1.1c4.3-0.6,4.3-0.6,4.3-0.6s-1.8-29.4-3.9-49.7
	c-2.6-25.4-16.5-29.1-22.3-20.4C216.1,237.6,232.1,295.9,232.1,295.9z"/>
<path id="XMLID_1428_" class="st3" d="M374.9,303h26.7v-75.5c0-7.4-6-13.3-13.3-13.3l0,0c-7.4,0-13.3,6-13.3,13.3V303H374.9z"/>
<path id="XMLID_1427_" class="st4" d="M305.3,160.1h-14.2v89.5l7.1-1.9c0,0,13.4-12.8,15.1-44.2
	C314.9,172.2,305.3,160.1,305.3,160.1z"/>
<path id="XMLID_1426_" class="st7" d="M245.6,208.3l-1.1,2.8v16.8c0,0,50.6-2.3,53.3-2.7c2.7-0.5,4.1-14.2,4.1-14.2L245.6,208.3z"/>
<polygon id="XMLID_1425_" class="st4" points="278.9,303 291,303 303.8,249.7 278.9,249.7 "/>
<path id="XMLID_1424_" class="st6" d="M228.7,231.9c0,0-5-8,0-9.4s12.2-1.5,20.1,2.7c3.6,1.9,14.1,1.9,21.2,0.2
	c3.7-0.9,6.3-3,9.1-3.9c4-1.3,6.3-1.1,10.3,0.2l9.3,3c0,0,5.5,12.9,4.4,19s-6,6.1-6,6.1h-51.4L228.7,231.9z"/>
<polygon id="XMLID_1423_" class="st4" points="265.7,249.6 272.2,249.6 274.2,228.3 "/>
<path id="XMLID_1422_" class="st6" d="M268.5,295.1c0,0,7.2,2.8,13.1,2.8c4.3,0,4.3,0,4.3,0s9.5-30.3,10.1-50.7
	c0.7-25.5-12.7-31-19.5-23.1C267.7,234.3,268.5,295.1,268.5,295.1z"/>
<path id="XMLID_1421_" class="st5" d="M268.5,295.1c-3.2,1.6-5,4.8-5.6,6.6v1.2h22.7l0.3-5c0,0-2-0.2-3.7-0.8c-3-1-6.7-2.7-8.9-2.7
	C269.9,294.5,268.5,295.1,268.5,295.1z"/>
<path id="XMLID_1420_" class="st7" d="M236.2,170.6c1-6.7,3.8-11.3,11.4-14.7c12.3-5.3,25.6-6.2,37.9-4c8.8,1.6,15.3,5.5,18.3,10.8
	c1.2,2.1,13.7,58.3-9.6,54.8s-13.2-2-24.8-1.1c-11.6,0.9-9.6-0.2-20.1-1.3s-17.7-5-16.1-17.8C234.8,184.4,235.6,174.7,236.2,170.6z"
	/>
<path id="XMLID_1418_" class="st8" d="M280,138.8c0,0-0.6,8.2,0,12.3c-2.7,3.5-4.9,7.7-10.1,7.2s-6.5-3.1-6.8-6.9c-0.4-3.7,0-6,0-6
	L280,138.8z"/>
<path id="XMLID_1417_" class="st8" d="M283.1,137.1c-0.3,1.2-1.1,2.2-2.1,2.8c-1.4,0.8-3.2,1.4-4-0.4c-1.3-2.9,2.4-9.3,5.1-7.4
	C283.7,133.3,283.5,135.5,283.1,137.1z"/>
<g id="XMLID_1414_">
	<g>
		<g>
			<defs>
				<path id="SVGID_1_" d="M280,138.8c0,0-0.6,8.2,0,12.3c-2.7,3.5-4.9,7.7-10.1,7.2s-6.5-3.1-6.8-6.9c-0.4-3.7,0-6,0-6L280,138.8z"
					/>
			</defs>
			<clipPath id="SVGID_2_">
				<use xlink:href="#SVGID_1_"  style="overflow:visible;"/>
			</clipPath>
			<path id="XMLID_1416_" class="st9" d="M258.4,123.9c1.9-3.8,8.5-3.6,11.9-2.8c3.4,0.8,6.9,0.7,7.5,13.2s-1.9,17-11.2,17.5
				c-9.4,0.4-9.8-5-10.1-11.5C256.1,133.7,256.5,127.8,258.4,123.9z"/>
		</g>
	</g>
</g>
<path id="XMLID_1413_" class="st5" d="M258.9,122c1.9-3.8,8.5-3.6,11.9-2.8c3.4,0.8,6.9,0.7,7.5,13.2s-1.9,17-11.2,17.5
	s-9.8-5-10.1-11.5S257,125.8,258.9,122z"/>
<path id="XMLID_1412_" class="st8" d="M258.2,120c1.9-3.3,8.5-3.1,11.9-2.5c3.4,0.7,6.9,0.7,7.5,11.6s-1.9,15-11.2,15.3
	s-9.8-4.4-10.1-10.1C255.9,128.6,256.3,123.4,258.2,120z"/>
<path id="XMLID_1411_" class="st5" d="M255.1,117.9c0,0,0,7.6,10.7,7.3c6.6-0.2,11.2-2,11.6,0s-0.2,12-0.2,12l3.7-5.4
	c0,0,7.1-9.2-2.5-15.1C268.8,110.9,260.6,119.8,255.1,117.9z"/>
<path id="XMLID_1410_" class="st8" d="M241.9,177l-4.9,1.6c0,0-3.7,17.1-2.5,22.2s5.1,6.7,8.2,5.3c3.1-1.4,3.5-6.8,2.6-14
	c-0.9-6.8-2.1-12.4-2.1-12.4L241.9,177z"/>
<path id="XMLID_1409_" class="st8" d="M294.8,207.7c4.1-1.6,5.6-5.7,5.4-8.9c-0.1-2-0.9-3.8-2.3-5.2l-25.7-26.1v15.7l3-1.9
	c0,0,4.1,14.7,7.4,21.2C285.9,208.9,292,208.8,294.8,207.7z"/>
<circle id="XMLID_1408_" class="st10" cx="258.9" cy="188.4" r="17.8"/>
<circle id="XMLID_1407_" class="st11" cx="258.9" cy="188.4" r="3.8"/>
<line id="XMLID_1406_" class="st10" x1="258.9" y1="188.4" x2="258.9" y2="170.6"/>
<line id="XMLID_1405_" class="st10" x1="275.2" y1="195.4" x2="258.9" y2="188.4"/>
<line id="XMLID_1404_" class="st10" x1="258.9" y1="188.4" x2="242.6" y2="195.4"/>
<polygon id="XMLID_1402_" class="st8" points="247.1,169.7 253.4,180.3 246.3,184.2 237,178.5 237.6,174.7 "/>
<path id="XMLID_1401_" class="st8" d="M264.1,178.1c-1.3,0.4,8.2-10.6,8.2-10.6l7.8,12.3l-11.7,5.1L264.1,178.1z"/>
<rect id="XMLID_1399_" x="304.1" y="249.7" class="st4" width="12.1" height="53.3"/>
<rect id="XMLID_1398_" x="333.3" y="249.7" class="st4" width="12.1" height="53.3"/>
<path id="XMLID_1397_" class="st2" d="M299.7,300.4l8.5-0.5c0,0,1.2-6.4,1.8-14.7h-11.9C300,296.1,299.7,300.4,299.7,300.4z"/>
<path id="XMLID_1396_" class="st5" d="M312.4,242.9c0-16.1-2.6-29.8-9.5-28.7c-7.7,1.1-9.9,27.9-5.9,64.6c0.5,2.4,0.8,4.6,1.2,6.5
	h11.9C311,274.5,312.4,270.8,312.4,242.9z"/>
<path id="XMLID_1394_" class="st5" d="M308.9,296.1v6.8h-24.8c0,0-0.5-3.6,3.2-5.4c3.5-1.7,10.7-4.1,10.7-4.1s3-1.3,5.3,0.6
	C305,295.4,307,298.9,308.9,296.1z"/>
<path id="XMLID_1393_" class="st6" d="M289,296.9L289,296.9c-0.6,0.3-1.2,0.5-1.6,0.7c-3.8,1.8-3.2,5.4-3.2,5.4h11
	C294.8,301.3,293.6,296.9,289,296.9z"/>
<path id="XMLID_1391_" class="st6" d="M343.4,164.5c0,0,11.3,2.9,13.2,8.2c2,5.3,2.1,30.4,1.2,36.3c-1.4,9.1-4.1,16.6-4.1,16.6
	l-19.5,3.1l-19.7-4.1c0,0-4-9.7-2.7-19.4c1.3-9.6,4.4-28.2,7-33.1c2.6-4.9,8.9-6.2,8.9-6.2L343.4,164.5z"/>
<path id="XMLID_1390_" class="st6" d="M317.2,195c0,0-1-12.3-2.8-5.5s-10,13.4-9.4,20.3c0.4,4.4,2.7,6.9,6.6,7.7
	C315.4,218.2,317.2,195,317.2,195z"/>
<path id="XMLID_1389_" class="st5" d="M353.8,224.7c-5.6-5-17.4-12.9-20.6-9.9l-2.5,7.6c-0.7,3.1-3,3.6-6.5,1.6c0,0,0,0,0-0.1
	c-5.6-5-19.8-12-23-9l5.1,4l-0.1,16.1l1,2.3c0,0,1.5,12.3,11.6,12.3s26.7,0,26.7,0h7.2C352.7,249.6,360.3,235.3,353.8,224.7z"/>
<path id="XMLID_1388_" class="st1" d="M314.2,204.4L314.2,204.4c-0.4,0-0.7,0.3-0.7,0.7v1.2h1.3V205
	C314.8,204.7,314.6,204.4,314.2,204.4z"/>
<path id="XMLID_1387_" class="st1" d="M314.7,203.5h-1.1c-1,0-1.7,0.8-1.7,1.7l0,0h4.6l0,0C316.5,204.3,315.7,203.5,314.7,203.5z"/>
<path id="XMLID_1386_" class="st1" d="M328.3,204.4L328.3,204.4c-0.4,0-0.7,0.3-0.7,0.7v1.2h1.3V205
	C329,204.7,328.7,204.4,328.3,204.4z"/>
<path id="XMLID_1385_" class="st1" d="M328.9,203.5h-1.1c-1,0-1.7,0.8-1.7,1.7l0,0h4.6l0,0C330.6,204.3,329.9,203.5,328.9,203.5z"/>
<path id="XMLID_1384_" class="st12" d="M330.1,213.7h-17.8c-0.9,0-1.7-0.8-1.7-1.7v-4.4c0-0.9,0.8-1.7,1.7-1.7h17.8
	c0.9,0,1.7,0.8,1.7,1.7v4.4C331.8,213,331.1,213.7,330.1,213.7z"/>
<path id="XMLID_1383_" class="st1" d="M315.7,209.4h-3.4c-0.3,0-0.5-0.2-0.5-0.5v-1c0-0.3,0.2-0.5,0.5-0.5h3.4
	c0.3,0,0.5,0.2,0.5,0.5v1C316.2,209.2,315.9,209.4,315.7,209.4z"/>
<path id="XMLID_1382_" class="st1" d="M315.7,212.2h-3.4c-0.3,0-0.5-0.2-0.5-0.5v-1c0-0.3,0.2-0.5,0.5-0.5h3.4
	c0.3,0,0.5,0.2,0.5,0.5v1C316.2,212,315.9,212.2,315.7,212.2z"/>
<path id="XMLID_1380_" class="st1" d="M330.1,209.4h-3.4c-0.3,0-0.5-0.2-0.5-0.5v-1c0-0.3,0.2-0.5,0.5-0.5h3.4
	c0.3,0,0.5,0.2,0.5,0.5v1C330.5,209.2,330.3,209.4,330.1,209.4z"/>
<path id="XMLID_1379_" class="st1" d="M330.1,212.2h-3.4c-0.3,0-0.5-0.2-0.5-0.5v-1c0-0.3,0.2-0.5,0.5-0.5h3.4
	c0.3,0,0.5,0.2,0.5,0.5v1C330.5,212,330.3,212.2,330.1,212.2z"/>
<polygon id="XMLID_1375_" class="st2" points="326.7,212.4 332.2,202.5 342.1,203.4 343.7,209.8 337.2,211.9 330.6,214.8 "/>
<polygon id="XMLID_1374_" class="st2" points="333.1,204.1 332.2,202.5 326.7,205.4 324.6,209.8 325.5,210.6 328.3,207 334,205.6 
	"/>
<polygon id="XMLID_1372_" class="st2" points="316.5,212.4 311,202.5 309.2,202.9 306.2,212.7 306,211.9 312.5,214.8 "/>
<polygon id="XMLID_1371_" class="st2" points="310.1,204.1 311,202.5 316.5,205.4 318.6,209.8 317.7,210.6 314.8,207 309.2,205.6 
	"/>
<path id="XMLID_1368_" class="st2" d="M326,300.4l9.5-1.3c0,0,1.2-5.6,2.6-14h-12C326.1,292.2,326,300.4,326,300.4z"/>
<path id="XMLID_1367_" class="st5" d="M335.8,214.1c-4.9-0.2-11,4.4-9.9,61.4c0.2,0.9,0.2,5.1,0.2,9.7h12
	c1.9-11.4,4.3-27.9,4.5-42.4C342.9,226.7,340.6,214.2,335.8,214.1z"/>
<path id="XMLID_1365_" class="st5" d="M336.4,296l-0.3,6.9h-19.8c0,0-0.5-3.6,3.2-5.4c3.5-1.7,5.8-4.1,5.8-4.1s3-1.3,5.3,0.6
	C332.2,295.4,334.5,298.8,336.4,296z"/>
<path id="XMLID_1364_" class="st6" d="M321.2,296.9L321.2,296.9c-0.6,0.3-1.2,0.5-1.6,0.7c-3.8,1.8-3.2,5.4-3.2,5.4h11
	C327,301.3,325.8,296.9,321.2,296.9z"/>
<path id="XMLID_1362_" class="st4" d="M341.6,165.5l-4.8,11.9l-5-0.9c0,0-3.1,1.4-3.4,0.9s-0.7-10.7-0.7-10.7L341.6,165.5z"/>
<path id="XMLID_1361_" class="st6" d="M336.8,160.1c0,0,2.9,0.2,3.8,0.7c0.9,0.4,2.7,3.7,2.7,3.7l-6.6,12.9l-4.9-3.3l-3.5,3.3
	l-1.7-11.4l1.3-3.1C328,162.9,330.4,160.4,336.8,160.1z"/>
<path id="XMLID_1360_" class="st2" d="M334.8,147.9c0,0,2.4,11.3,4.5,15.8c-1,4.6-7.4,10.3-7.4,10.3s-3-7.3-3.4-8.1
	c-0.6-1.4-0.4-3.1-1.6-7.3C325,152.1,334.8,147.9,334.8,147.9z"/>
<path id="XMLID_1359_" class="st2" d="M334.8,147.9c0,0,0.7,7.2,2.8,11.7c-1,4.6-2.7,7.2-5.1,7.9c-5,1.4-3.7-2.3-5.6-8.9
	C325,152.1,334.8,147.9,334.8,147.9z"/>
<g id="XMLID_1356_">
	<g>
		<g>
			<defs>
				<path id="SVGID_3_" d="M334.8,147.9c0,0,2.4,11.3,4.5,15.8c-1,4.6-7.4,10.3-7.4,10.3s-3-7.3-3.4-8.1c-0.6-1.4-0.4-3.1-1.6-7.3
					C325,152.1,334.8,147.9,334.8,147.9z"/>
			</defs>
			<clipPath id="SVGID_4_">
				<use xlink:href="#SVGID_3_"  style="overflow:visible;"/>
			</clipPath>
			<path id="XMLID_1358_" class="st13" d="M322.6,164.3c-1.8,0.4-7.3-5.4-8.3-15.2c-1.1-9.8,3.4-16.5,8.1-17.4s11.1,5.3,11.7,16.5
				C334.7,159.4,326.4,163.5,322.6,164.3z"/>
		</g>
	</g>
</g>
<path id="XMLID_1355_" class="st14" d="M331.9,130.5c0,0,11.3-7.8,11.4,6.3s-4.5,14.9-4.5,14.9s-1.5,0.7-5.4-10
	C331.8,137,331.9,130.5,331.9,130.5z"/>
<path id="XMLID_1354_" class="st2" d="M323.8,161.4c-1.8,0.4-7.3-5.4-8.3-15.2c-1.1-9.8,3.4-16.5,8.1-17.4
	c4.7-0.9,11.1,5.3,11.7,16.5S327.6,160.6,323.8,161.4z"/>
<path id="XMLID_1353_" class="st4" d="M334.8,144.1c0,0,2.3-4.6-0.7-11.5c2.5,2.6,3.3,5.5,3,10.4S334.8,144.1,334.8,144.1z"/>
<path id="XMLID_1352_" class="st15" d="M339.2,146.3c-0.2,1-0.7,2-1.6,2.6c-1.1,0.8-2.7,1.5-3.5,0c-1.3-2.4,1.4-8.1,3.8-6.7
	C339.5,143.1,339.5,145,339.2,146.3z"/>
<path id="XMLID_1351_" class="st14" d="M315.3,138.5c-0.7,2.8,2.8,4.7,8.7,1.1c3.7-2.2,6.6-3.4,6.9,1.3s1.8,4.7,1.8,4.7
	s1.6-0.1,3.2-3.3s-1.2-15-10.6-14.2C317,128.9,315.3,138.5,315.3,138.5z"/>
<path id="XMLID_1348_" class="st16" d="M321.2,209.1c0,0,3.8,93.1-26.1,93.1s-114,0-114,0l-18.6-0.1v-39.9"/>
<path id="XMLID_1347_" class="st2" d="M110,129c0,0-4.5,20.6-2.6,33.2s7.3,20.9,7.3,20.9l8.2-1l-5.6-53L110,129L110,129z"/>
<path id="XMLID_1346_" class="st17" d="M117.3,174.5c0,0-0.6,85.9,2.6,121.3c14.6,0.6,13.2,0,13.2,0l5.8-103.3L152.1,296l12.5-0.1
	c0,0-3.4-56.5-3.4-80.5s-2.1-38.7-2.1-38.7L117.3,174.5z"/>
<path class="st5" d="M158.5,137.6c-0.8,9.5-1.1,22.3,0.4,39.5c-11.9,8.9-38.4,7.9-41.6,1.3c0,0-1.1-27.3-1.1-33c0-1.9-0.1-3.9-0.2-6
	c-6.4-0.2-11.9-3.6-11.9-3.6s6.6-25.5,14.5-30.1l0,0c5.1-4.2,13.7-7.3,13.7-7.3s4.4-1.6,9.5,0c8.2,2.6,13,4.3,16.4,8.9
	c3.8,4.2,12.6,20.9,12.6,20.9S165.3,135.8,158.5,137.6z"/>
<path id="XMLID_1342_" class="st6" d="M176,100.7l-0.3,0.7c-0.6,1.5,0.1,3.2,1.6,3.9l10.9,4.6c1.5,0.6,3.2-0.1,3.9-1.6l0.3-0.7
	c0.6-1.5-0.1-3.2-1.6-3.9l-10.9-4.6C178.3,98.5,176.6,99.2,176,100.7z"/>
<path id="XMLID_1340_" class="st2" d="M181.4,109.2l-1.8-0.2l3.3-8.5h0.8c0,0,1.1,3.5,0.9,4.3c-0.2,0.8-1.5,3.8-1.5,3.8L181.4,109.2
	z"/>
<path id="XMLID_1339_" class="st2" d="M192.8,104.9c-0.4,0.1-5.2,4-5.2,4l-6.2-3.4l2-6.3L192.8,104.9z"/>
<rect id="XMLID_1330_" x="46.2" y="249.6" class="st5" width="213.2" height="8.9"/>
<rect id="XMLID_1329_" x="46.2" y="294.1" class="st5" width="213.2" height="8.9"/>
<rect id="XMLID_1328_" x="46.2" y="253.2" class="st5" width="8.9" height="46.5"/>
<rect id="XMLID_1327_" x="250.6" y="252" class="st5" width="8.9" height="46.5"/>
<rect id="XMLID_1326_" x="148.4" y="253.2" class="st5" width="8.9" height="46.5"/>
<rect id="XMLID_1325_" x="46.2" y="271.9" class="st5" width="213.2" height="8.9"/>
<rect id="XMLID_1323_" x="81.8" y="143" class="st1" width="142.2" height="88.9"/>
<polygon id="XMLID_1322_" class="st4" points="223.9,231.9 81.8,231.9 117.3,209.1 188.4,209.1 "/>
<polygon id="XMLID_1321_" class="st12" points="223.9,143 81.8,143 117.3,165.8 188.4,165.8 "/>
<rect id="XMLID_1320_" x="138.9" y="196.3" class="st1" width="27.9" height="51"/>
<rect id="XMLID_1319_" x="117.3" y="246.8" class="st1" width="71.1" height="2.8"/>
<path id="XMLID_1318_" class="st12" d="M188.4,246.8h-71.1l10.9-3.4c6.7-2.1,15.5-3.2,24.6-3.2l0,0c9.1,0,17.9,1.2,24.6,3.2
	L188.4,246.8z"/>
<circle id="XMLID_1317_" class="st12" cx="152.8" cy="188.4" r="13.9"/>
<rect id="XMLID_1315_" x="157.3" y="258.5" class="st1" width="53.3" height="13.3"/>
<rect id="XMLID_1314_" x="206.1" y="287.4" class="st1" width="44.4" height="6.7"/>
<rect id="XMLID_1313_" x="221.1" y="280.7" class="st17" width="29.5" height="6.7"/>
<rect id="XMLID_1312_" x="210.6" y="265.2" class="st18" width="26.9" height="6.7"/>
<rect id="XMLID_1311_" x="210.6" y="263" class="st7" width="26.9" height="2.2"/>
<rect id="XMLID_1310_" x="206.1" y="288.9" class="st19" width="44.4" height="3.7"/>
<rect id="XMLID_1308_" x="55.1" y="265.2" class="st1" width="44.4" height="6.7"/>
<rect id="XMLID_1307_" x="70" y="258.5" class="st14" width="29.5" height="6.7"/>
<rect id="XMLID_1306_" x="108.4" y="269.6" class="st1" width="40" height="2.2"/>
<rect id="XMLID_1305_" x="108.4" y="263" class="st1" width="40" height="2.2"/>
<rect id="XMLID_1304_" x="108.4" y="260.7" class="st20" width="40" height="2.2"/>
<rect id="XMLID_1303_" x="108.4" y="258.5" class="st21" width="40" height="2.2"/>
<rect id="XMLID_1302_" x="108.4" y="265.2" class="st5" width="40" height="2.2"/>
<rect id="XMLID_1301_" x="108.4" y="267.4" class="st22" width="40" height="2.2"/>
<rect id="XMLID_1300_" x="55.1" y="266.7" class="st19" width="44.4" height="3.7"/>
<rect id="XMLID_1299_" x="55.1" y="287.4" class="st1" width="44.4" height="6.7"/>
<rect id="XMLID_1298_" x="59.5" y="284.1" class="st17" width="22.2" height="3.3"/>
<rect id="XMLID_1297_" x="55.1" y="280.7" class="st6" width="22.2" height="3.3"/>
<rect id="XMLID_1295_" x="157.3" y="290.7" class="st1" width="44.4" height="3.3"/>
<rect id="XMLID_1294_" x="160.6" y="284.8" class="st12" width="36.6" height="5.9"/>
<polygon id="XMLID_1287_" class="st1" points="70.6,249.6 57.3,249.6 55.1,214.1 72.9,214.1 "/>
<polygon id="XMLID_1286_" class="st1" points="74.6,249.6 61.3,249.6 59,214.1 76.8,214.1 "/>
<polygon id="XMLID_1285_" class="st4" points="55.1,214.1 57.3,249.6 61.3,249.6 59,214.1 "/>
<path id="XMLID_1284_" class="st7" d="M58.9,214.1c0,0-5.8-35.5-1.4-88.8c3.8,37.1,4.6,88.8,4.6,88.8H58.9z"/>
<path id="XMLID_1283_" class="st7" d="M66,214.1c0,0-0.2-34.9,1.1-49.1c0.9-6.2,0.9-6.2,0.9-6.2s3,40.6,1.5,55.4
	C67.6,214.1,66,214.1,66,214.1z"/>
<path id="XMLID_1282_" class="st4" d="M66,214.1c0,0-0.2-34.9,1.1-49.1c-0.7-0.5,0,0,0,0s4,34.3,2.4,49.1
	C67.6,214.1,66,214.1,66,214.1z"/>
<path id="XMLID_1281_" class="st7" d="M64,214.1V143c0,0,5.6,17.8,3.6,71.1C65.2,214.1,64,214.1,64,214.1z"/>
<polygon id="XMLID_1280_" class="st23" points="383.8,154.3 377.3,149.9 376.4,151.1 382.1,156.4 389.8,160.2 "/>
<path id="XMLID_1279_" class="st5" d="M454.2,167.5l-31.7-2.2c0,0-8.6,49.2-7.6,75.5c2,51.8,13.4,60.7,13.4,60.7l11.3,1.5
	c0,0-2.5-52.1-2.5-71.1s0.5-42.1,0.5-42.1l2.4-0.1c0,0,14.4,74.8,40,109.8c9.3-8.4,9.8-7,9.8-7s-9-47.6-26.1-98.4
	C459.3,180.6,454.2,167.5,454.2,167.5z"/>
<path id="XMLID_1278_" class="st1" d="M439.6,303h-30.5c0,0,1.6-9.8,16.9-7.1c11.4,2,13.5,4.7,13.5,4.7L439.6,303z"/>
<path id="XMLID_1277_" class="st1" d="M477.3,295.6c0,0,3.1-7.9,9.9-14.2c6.8-6.3,6.7-7.4,11.8-7.4c-1.6,4.8-1.6,4.8-1.6,4.8
	L480.2,301L477.3,295.6z"/>
<path id="XMLID_1276_" class="st5" d="M482.4,301.7c-1.5,0.9-3.2-0.8-2.3-2.3c0.7-1.2,2-3.7,3.3-5.9c3.6-5.7,4.5-13.1,10.3-17.3
	s8.9-2.1,6.6,4.5C498.4,285.8,488,298.5,482.4,301.7z"/>
<path id="XMLID_1275_" class="st23" d="M417,137.5l-7.1,10.8l-21.1,12.4c0,0-0.7,3.3-0.6,5.2c0.2,1.9,22.8-4.9,25.5-6.9
	c2.7-1.9,2.7-1.9,2.7-1.9l13-18.4L417,137.5z"/>
<polygon id="XMLID_1274_" class="st23" points="485.3,165.9 487.3,163.9 496,155.4 499.3,158.5 495.3,165.3 493.7,171.2 
	488.4,173.6 "/>
<polygon id="XMLID_1273_" class="st23" points="495,154.8 493.2,154.3 489,157.3 484.6,166.4 487.4,165.3 489,165.3 491.3,158.5 "/>
<path id="XMLID_1272_" class="st23" d="M462.8,137.2l6.5,14.4c0,0,12,7.4,16.9,15.1c2.2,7,2.2,7,2.2,7s-19.8-8.5-24-12.5
	s-4.1-4-4.1-4l-4.8-17.9L462.8,137.2z"/>
<path id="XMLID_1270_" class="st17" d="M457.5,145.7c4-1,7.6-2.3,10.2-3.9c-2.4-8.6-4.8-16.1-6.3-20.7c-1-3-3.8-5.1-7-5.3
	c-6.9-0.3-16.3,0.2-24.3,0.4c-3,0.1-5.6,1.9-6.8,4.6c-2.4,5.6-6.8,15-10.2,20.9c1.5,2.1,4.6,3.6,8.7,4.6
	c-2.2,13.8-4.5,27.8-3.8,39.7c0,0.1,0.1,0.2,0.3,0.2c18.7,0.9,17.1-8.5,39.5-9.4C458.6,176.9,456.8,166.3,457.5,145.7z"/>
<path id="XMLID_1269_" class="st23" d="M437.1,115.7l3.5,11l7.7-11c0,0-0.6-4.1-0.6-10.5c0-3.2,1.7-7.5,1.7-7.5l-12.3,2.5
	C437.1,100.1,437.2,104.3,437.1,115.7z"/>
<path id="XMLID_1268_" class="st23" d="M436.8,107.7c-7.4-1.3-8-8.2-5.6-17.8s8.8-14.3,13.6-13.6c4.7,0.7,8.6,8.8,5.3,19.5
	C446.8,106.5,440.6,108.3,436.8,107.7z"/>
<path id="XMLID_1267_" class="st23" d="M452.8,95.8c0,0-3.4,3.4-4.7,1s1.4-8.1,3.8-6.7S452.8,95.8,452.8,95.8z"/>
<path id="XMLID_1266_" class="st12" d="M448.2,96.8c0,0,0.3-5.7,3.2-6.9c1.7-0.7,2.5-1,3.4-2.6c1.4-2.7-2.1-5.5-2.2-5.2
	c0,0-0.1-2.3-2.3-4.3c-5.6-5.1-20.1-2.8-20.2,1.6c-0.1,4,4.5,6.8,16.9,5.8c0,0-2.5,3.7-1.7,12.2L448.2,96.8z"/>
<path id="XMLID_1265_" class="st1" d="M445.1,86.6c0,0,6.3,0.8,9.1,3.1c-0.5,2.8-0.2,4.8,0,4.9c0,0-7.3,3.1-10.1,2.9
	c0-5.1,1-10.6,1-10.6V86.6z"/>
<path id="XMLID_1264_" class="st5" d="M441.7,97.3l-10-1.1c-3-0.3-5.2-3.1-4.9-6.1l0,0c0.3-3,3-5.2,6.1-4.9l10,1.1
	c3,0.3,5.2,3.1,4.9,6.1l0,0C447.5,95.4,444.7,97.6,441.7,97.3z"/>
<polygon id="XMLID_1263_" class="st23" points="391.7,161.9 383.8,155.1 375,154.3 375,158.1 382.4,162.3 388.3,166 "/>
<polygon id="XMLID_1262_" class="st17" points="416.5,157.2 409.9,148.4 417.2,134 423.8,147 "/>
<polygon id="XMLID_1261_" class="st17" points="455.5,145.6 460.3,157.1 470.8,152.6 466.8,138.5 "/>
<line id="XMLID_1259_" class="st24" x1="322.3" y1="185.9" x2="322.3" y2="193.5"/>
<line id="XMLID_1258_" class="st24" x1="318.4" y1="194.3" x2="312.1" y2="179"/>
<line id="XMLID_1257_" class="st24" x1="347.1" y1="193.5" x2="331.8" y2="199.9"/>
<line id="XMLID_1256_" class="st24" x1="309.7" y1="191.2" x2="315.1" y2="196.6"/>
<line id="XMLID_1255_" class="st24" x1="335" y1="191.2" x2="329.6" y2="196.6"/>
<line id="XMLID_1254_" class="st24" x1="312.8" y1="199.9" x2="297.5" y2="193.5"/>
<line id="XMLID_1253_" class="st24" x1="332.6" y1="179" x2="326.2" y2="194.3"/>
<line id="XMLID_1251_" class="st25" x1="178.1" y1="96.2" x2="182" y2="98.5"/>
<line id="XMLID_1250_" class="st25" x1="180" y1="95.1" x2="182.6" y2="97.3"/>
<line id="XMLID_1249_" class="st25" x1="174.1" y1="106" x2="178.4" y2="107.2"/>
<line id="XMLID_1248_" class="st25" x1="174.7" y1="108.1" x2="178.1" y2="108.4"/>
<path id="XMLID_1246_" class="st26" d="M280,184.3c0,0,2,5.2-1.6,13.5"/>
<path id="XMLID_1245_" class="st26" d="M237.8,190.4c0,0,0,6.8,4.1,11.6"/>
<line id="XMLID_1222_" class="st27" x1="291" y1="302.6" x2="465" y2="302.6"/>
<line id="XMLID_967_" class="st27" x1="467.7" y1="302.6" x2="504.7" y2="302.6"/>
<line id="XMLID_966_" class="st27" x1="507.8" y1="302.6" x2="513.5" y2="302.6"/>
<path class="st2" d="M140.3,60.9c-4.6-0.8-10.6,5.2-11.2,15.7c-1-1.1-2.2-1.7-3.3-0.9c-1.6,1.2-1.5,3.3-1.1,4.9
	c0.3,1.2,1.1,2.2,2.1,2.8c0.8,0.5,1.9,0.9,2.8,0.8c0.3,1.3,0.7,2.5,1.2,3.5c0.2,5.3,0.3,10.4,0.5,11.5c0.1,1.4,2.2,6.9,7.1,6.3
	c4.6-0.6,5.5-5.6,5-8.3c-0.1-0.7-0.2-1.7-0.1-2.7c-0.1,0.1-0.3,0.1-0.5,0.1c0.1,0,0.3-0.1,0.4-0.1c0-0.8,0.1-1.5,0.2-2.3l0,0
	c3.3-2.2,4.8-7.3,5.4-14C149.6,68.3,145,61.7,140.3,60.9z"/>
<path id="XMLID_1332_" class="st28" d="M128.5,79.8c0,0-3.7-7.6-2.8-11.4c1-4.1,3.2-3.5,3.2-3.5s0-3.7,3.4-4.9
	c3.5-1.2,9.4-1.3,14.4,0.5c6.8,2.5,8,10.2,1,13.6c-5.7,2.7-14.7-1.9-16.6-3.4C133.1,75.3,128.5,79.8,128.5,79.8z"/>
<path class="st4" d="M137.7,93.1c-1.7-0.3-3.6-1.1-5.3-2.9c1.8,2.9,4.3,4.2,6.4,4.5c1.7,0.3,3.1,0.1,4.3-0.3c0-0.8,0.1-1.5,0.2-2.3
	C141.9,93.1,140,93.5,137.7,93.1z"/>
</svg>
