<svg xmlns="http://www.w3.org/2000/svg" viewBox="13863 1330 20 20"><defs><style>.a{fill:none;}.b{fill:#12163f;}.c,.e{fill:#8997a5;}.c{stroke:#fff;stroke-miterlimit:10;stroke-width:20px;}.d{fill:#091440;}</style></defs><g transform="translate(12934 856)"><g transform="translate(929 474)"><rect class="a" width="19.985" height="20"/></g><path class="b" d="M68.316,39.071a2.992,2.992,0,0,0-.819-1.81c-.949-.95-2.553-1.115-4.517-.46a15.367,15.367,0,0,0-5.741,3.77c-2.643,2.645-4.277,5.855-4.157,8.175a.231.231,0,0,0,.23.22h.01a.234.234,0,0,0,.22-.245c-.115-2.195,1.464-5.265,4.022-7.825a15.008,15.008,0,0,1,5.526-3.65c1.8-.61,3.253-.49,4.077.34a2.535,2.535,0,0,1,.689,1.54.231.231,0,0,0,.46-.055Z" transform="translate(878.576 439.414)"/><g transform="translate(938.992 484)"><path class="c" d="M200,200" transform="translate(-200 -200)"/></g><g transform="translate(937.798 481.975)"><ellipse class="d" cx="1.489" cy="1.49" rx="1.489" ry="1.49"/></g><g transform="translate(929 482.61)"><rect class="d" width="1.709" height="1.71"/></g><g transform="translate(947.036 482.61)"><path class="d" d="M361.984,172.2l.49.855.49.85H361l.49-.85Z" transform="translate(-361 -172.2)"/></g><path class="b" d="M83,137.585a.205.205,0,0,0-.13-.11.222.222,0,0,0-.28.14,16.479,16.479,0,0,1-9.2,9.25c-1.8.61-3.258.49-4.087-.34a.221.221,0,1,0-.31.315,3.208,3.208,0,0,0,2.328.85,7.016,7.016,0,0,0,2.178-.4,16.9,16.9,0,0,0,9.518-9.54A.225.225,0,0,0,83,137.585Z" transform="translate(863.519 343.41)"/><g transform="translate(945.628 480.42)"><ellipse class="e" cx="0.694" cy="0.695" rx="0.694" ry="0.695"/></g><g transform="translate(931.608 483.175)"><rect class="e" width="5.311" height="0.585"/><g transform="translate(10.032)"><rect class="e" width="5.321" height="0.585"/></g></g><path class="b" d="M65.351,51.948h0a7.017,7.017,0,0,1-2.178-.395,15.367,15.367,0,0,1-5.741-3.77c-2.923-2.925-4.557-6.455-4.067-8.785a.2.2,0,0,1,.095-.14.216.216,0,0,1,.165-.03.211.211,0,0,1,.14.1.216.216,0,0,1,.03.165c-.46,2.19,1.129,5.555,3.952,8.385a15.016,15.016,0,0,0,5.536,3.655c1.8.61,3.258.49,4.087-.34s.949-2.28.34-4.09a15.029,15.029,0,0,0-3.652-5.54c-3.223-3.23-7.16-4.81-9.153-3.67a.217.217,0,0,1-.3-.085.222.222,0,0,1-.02-.17.216.216,0,0,1,.1-.135c1.054-.6,2.623-.55,4.412.145a15.93,15.93,0,0,1,5.271,3.6,15.442,15.442,0,0,1,3.767,5.745c.655,1.96.49,3.565-.455,4.51A3.22,3.22,0,0,1,65.351,51.948Z" transform="translate(878.383 439.152)"/><g transform="translate(932.482 475.74)"><ellipse class="e" cx="0.694" cy="0.695" rx="0.694" ry="0.695"/></g><g transform="translate(931.188 487.455)"><ellipse class="e" cx="0.694" cy="0.695" rx="0.694" ry="0.695"/></g></g></svg>