<svg xmlns="http://www.w3.org/2000/svg" xmlns:xlink="http://www.w3.org/1999/xlink" viewBox="-6678.2 -306 762.303 565.363"><defs><style>.a,.aa,.j,.k,.p,.y,.z{fill:none;}.b{fill:#b7cffe;}.b,.p{stroke:#25549f;}.b,.j,.k,.p{stroke-miterlimit:10;}.b,.j{stroke-width:3.55px;}.c{fill:#2970ff;}.d,.e{fill:#091440;}.d{opacity:0.5;}.f{fill:#8795a2;}.g{fill:#3ad7a4;}.h{fill:#ed6d47;}.i{clip-path:url(#a);}.aa,.j,.k{stroke:#091440;}.k{stroke-width:7.6px;}.l{fill:#25549f;}.m{fill:#2f74fb;}.n{clip-path:url(#b);}.o{fill:#ffc84d;}.p{stroke-width:1.42px;}.q{fill:#6ed3f3;}.r{clip-path:url(#c);}.s{fill:#434b6d;}.t{fill:#fff;}.u{fill:#fb7151;}.v{fill:#5c7fb7;}.w{fill:#a2b6d6;}.x{fill:#6d8cbf;}.y{stroke:#2f74fb;}.aa,.y,.z{stroke-linecap:round;stroke-linejoin:round;stroke-width:0.71px;}.z{stroke:#8297a5;}</style><clipPath id="a"><path class="a" d="M16.365-20.29s-1.391,19.221-.023,28.5c-6.167,8.3-11.361,17.946-23.394,16.856S-22.03,17.827-22.865,9.179a58.753,58.753,0,0,1,0-13.911Z" transform="translate(23.278 20.29)"/></clipPath><clipPath id="b"><path class="a" d="M59.325-11.18s5.541,26.246,10.5,36.634C67.417,36.142,52.648,49.52,52.648,49.52L44.834,30.6c-1.3-3.153-.835-7.3-3.756-16.949C36.557-1.651,59.325-11.18,59.325-11.18Z" transform="translate(-40.484 11.18)"/></clipPath><clipPath id="c"><path class="a" d="M-149.955-76.528s-6.028-10.5-5.634,5.055,1.02,34.477,1.368,37.793,5.031,16.091,16.555,14.653c10.642-1.322,12.729-12.915,11.593-19.36s1.461-19.778,1.461-19.778Z" transform="translate(155.608 79.995)"/></clipPath></defs><g transform="translate(-6678.2 -306)"><g transform="translate(0 0)"><rect class="b" width="288.408" height="206.006" transform="translate(288.408 29.747)"/><path class="c" d="M276.889,101H428.8a99.189,99.189,0,0,1,99.189,99.189V432.047H177.7V200.189A99.189,99.189,0,0,1,276.889,101Z" transform="translate(234.312 133.177)"/><path class="d" d="M107.64,20.463s17.644,41.456,12.775,127.823-21.54,80.8-21.54,80.8L42.14,222.133,77.707,8.36Z" transform="translate(612.025 242.882)"/><rect class="c" width="350.199" height="123.673" transform="translate(412.012 441.69)"/><path class="c" d="M-89,260.96h61.906V85.86A30.883,30.883,0,0,0-58,55h0a30.883,30.883,0,0,0-21.9,9A30.884,30.884,0,0,0-89,85.86Z" transform="translate(439.106 304.38)"/><g transform="translate(397.985 378.089)"><path class="d" d="M186.55,314.12h51.565l-6.191-123.58H186.55Z" transform="translate(-152.003 -126.847)"/><path class="e" d="M-34.2,136c-11.06,5.657-16.23,7.466-24.021,9.066-10.132,2.087-10.132,9.066-10.132,9.066h74.5l-.6-15.024Z" transform="translate(68.35 33.096)"/><path class="f" d="M-40.157,233.95s17.366,4.405,30.907,2.62L.7,235.3s-4.243-68.259-9.019-115.141c-6.1-58.776-38.373-67.424-51.8-47.3C-77.347,98.708-40.157,233.95-40.157,233.95Z" transform="translate(73.196 -63.069)"/></g><path class="d" d="M37.8,1H4.9V208.513l16.462-4.475S52.524,174.291,56.326,101.6,37.8,1,37.8,1Z" transform="translate(562.921 233.177)"/><g transform="translate(417.966 128.967)"><path class="g" d="M-39.07,49.15l-2.62,6.376V94.5s117.529-5.263,123.6-6.283,9.576-33.04,9.576-33.04Z" transform="translate(83.522 167.699)"/><path class="d" d="M232.69,314.12h28.055L290.33,190.54H232.69Z" transform="translate(-111.145 122.275)"/><path class="f" d="M-54.58,87.788s-11.593-18.549,0-21.841S-26.2,62.469-8,72.114c8.416,4.475,32.576,4.359,49.061.417,8.486-2.017,14.677-6.956,21.192-9.112,9.274-2.945,14.584-2.643,23.812.371l21.47,6.956s12.822,29.84,10.271,44.053S103.9,129.035,103.9,129.035H-15.28Z" transform="translate(59.732 183.803)"/><path class="d" d="M219.44,218.734l15.233-.07,4.684-49.525Z" transform="translate(-128.616 94.058)"/><path class="f" d="M-17.67,233.908s16.647,6.585,30.327,6.585H22.674s22-70.323,23.325-117.436C47.668,64,16.668,51.181.763,69.451-19.664,92.869-17.67,233.908-17.67,233.908Z" transform="translate(115.125 184.31)"/><path class="e" d="M-10.356,136.843A28.356,28.356,0,0,0-23.27,152.168v2.805H29.408l.58-11.593a44.728,44.728,0,0,1-8.579-1.716c-6.956-2.319-15.6-6.26-20.682-6.26a30.791,30.791,0,0,0-11.083,1.438Z" transform="translate(107.811 281.375)"/><path class="g" d="M-45.767,37.567C-43.448,21.916-36.956,11.274-19.2,3.6A153.583,153.583,0,0,1,68.655-5.675C89.082-2.1,104.13,6.938,111.016,19.366c2.713,4.892,31.857,135.127-22.3,127.128s-30.721-4.637-57.594-2.574-22.166-.51-46.372-2.968-41.085-11.523-37.468-41.387S-47.135,47.119-45.767,37.567Z" transform="translate(68.332 91.895)"/><path class="h" d="M16.365-20.29s-1.391,19.221-.023,28.5c-6.167,8.3-11.361,17.946-23.394,16.856S-22.03,17.827-22.865,9.179a58.753,58.753,0,0,1,0-13.911Z" transform="translate(107.8 76.137)"/><path class="h" d="M5.34-15.155A10.526,10.526,0,0,1,.4-8.57C-2.729-6.761-7.111-5.231-8.873-9.4c-3.014-6.817,5.472-21.586,11.8-17.065C6.638-23.757,6.267-18.748,5.34-15.155Z" transform="translate(125.967 66.875)"/><g transform="translate(84.522 55.847)"><g class="i" transform="translate(0)"><path class="d" d="M-25.075-30.907C-20.739-39.6-5.367-39.185,2.54-37.446s16.021,1.716,17.32,30.7S15.57,32.668-6.178,33.735-28.97,22.142-29.665,7.025-29.549-21.958-25.075-30.907Z" transform="translate(14.567 -3.663)"/></g></g><path class="e" d="M-24.523-32.877c4.336-8.695,19.708-8.254,27.614-6.515s16.021,1.716,17.32,30.7S16.1,30.722-5.626,31.765-28.441,20.172-29.137,5.078-29-23.9-24.523-32.877Z" transform="translate(99.789 49.609)"/><path class="h" d="M-25.228-35.364c4.336-7.651,19.731-7.28,27.637-5.75s16.045,1.438,17.343,26.942S15.44,20.607-6.285,21.372-29.1,11.332-29.865-2.023-29.657-27.5-25.228-35.364Z" transform="translate(98.802 47.506)"/><path class="e" d="M-31.07-36.965s0,17.575,24.786,16.972c15.349-.394,25.922-4.637,26.872,0S20.055,7.83,20.055,7.83L28.633-4.76s16.346-21.447-5.8-34.964S-18.48-32.56-31.07-36.965Z" transform="translate(97.526 44.377)"/><path class="h" d="M-34.182,17.84l-11.431,3.64s-8.509,39.671-5.843,51.588S-39.631,88.58-32.513,85.45s8.3-15.743,5.982-32.46c-2.133-15.743-4.915-28.658-4.915-28.658Z" transform="translate(69.963 126.414)"/><path class="h" d="M38.377,101.637A20.728,20.728,0,0,0,50.92,81a18.549,18.549,0,0,0-5.333-12.1L-14,8.36V44.623l6.956-4.313S2.462,74.556,10.136,89.487,31.908,104.141,38.377,101.637Z" transform="translate(120.034 113.914)"/><g transform="translate(16.989 112.399)"><circle class="j" cx="41.201" cy="41.201" r="41.201" transform="translate(0 58.268) rotate(-45)"/><path class="k" d="M-13.449,34.241a8.811,8.811,0,0,0-8.811-8.811,8.811,8.811,0,0,0-8.811,8.811,8.811,8.811,0,0,0,8.811,8.811,8.811,8.811,0,0,0,8.811-8.811Z" transform="translate(80.536 24.023)"/><line class="j" y1="41.201" transform="translate(58.277 17.062)"/><line class="j" x1="37.793" y1="16.369" transform="translate(58.277 58.264)"/><line class="j" x1="37.816" y2="16.369" transform="translate(20.461 58.264)"/></g><path class="h" d="M214.141,110.56l14.7,24.554-16.485,9.2L190.77,131.1l1.322-9Z" transform="translate(-166.42 16.815)"/><path class="h" d="M-21.979,33.03c-3.107.881,18.9-24.67,18.9-24.67L15.072,36.809-12.009,48.541Z" transform="translate(109.117 113.914)"/></g><rect class="d" width="28.055" height="123.557" transform="translate(598.055 441.783)"/><rect class="d" width="28.055" height="123.557" transform="translate(665.642 441.783)"/><g transform="translate(551.478 359.26)"><path class="h" d="M15.524,161.405l19.8-1.229s2.713-14.816,4.243-34.106H12C16.058,151.273,15.524,161.405,15.524,161.405Z" transform="translate(20.804 38.831)"/><g transform="translate(25.595 0)"><path class="e" d="M49.047,121.681c0-37.26-6.005-68.931-21.957-66.613-17.946,2.6-22.838,64.735-13.7,149.664,1.067,5.541,1.948,10.573,2.69,15.117H43.668C45.778,195.087,49.047,186.508,49.047,121.681Z" transform="translate(-8.891 -54.948)"/></g><path class="e" d="M55.4,141.121v15.836h-57.5A12.4,12.4,0,0,1,5.43,144.506c8.069-3.918,24.878-9.6,24.878-9.6s6.956-3.107,12.335,1.461C46.329,139.451,50.967,147.659,55.4,141.121Z" transform="translate(2.148 49.123)"/><path class="f" d="M9.209,137.72h0c-1.391.6-2.666,1.182-3.779,1.716a12.4,12.4,0,0,0-7.535,12.451H23.4C22.773,148.084,19.967,137.72,9.209,137.72Z" transform="translate(2.148 54.193)"/></g><g transform="translate(591.192 159.883)"><path class="f" d="M99.162,5.36s26.084,6.678,30.628,19.059,4.8,70.531,2.736,84.165a216.465,216.465,0,0,1-9.576,38.581l-45.073,7.164-45.63-9.6s-9.274-22.583-6.33-44.911S36.143,34.528,42.172,23.074,62.761,8.722,62.761,8.722Z" transform="translate(-1.318 79.043)"/><path class="f" d="M47.134,45.855S44.815,17.29,40.549,33.1s-23.186,31.023-21.7,47C19.8,90.3,25.13,96.168,34.08,97.838S47.134,45.855,47.134,45.855Z" transform="translate(-9.99 109.334)"/><path class="e" d="M136.914,79.467C123.93,67.874,96.455,49.6,89.059,56.513l-5.8,17.644c-1.646,7.072-6.956,8.277-14.955,3.733v-.162C55.323,66.135,22.307,49.9,14.98,56.861L26.9,66.135,26.619,103.7l2.319,5.263s3.455,28.333,26.9,28.426,61.79,0,61.79,0h16.763S152.055,104.16,136.914,79.467Z" transform="translate(-14.98 144.491)"/><g transform="translate(11.222 172.439)"><g transform="translate(10.735 2.458)"><path class="l" d="M28.87,45.26h0a1.53,1.53,0,0,0-1.53,1.53v2.782H30.4V46.79A1.53,1.53,0,0,0,28.87,45.26Z" transform="translate(-20.639 -43.243)"/><path class="l" d="M32.288,44.39H29.714a4.034,4.034,0,0,0-4.034,4.034H36.322a4.034,4.034,0,0,0-4.034-4.034Z" transform="translate(-22.828 -44.39)"/><path class="l" d="M43.01,45.26h0a1.53,1.53,0,0,0-1.53,1.53v2.782h3.061V46.79a1.53,1.53,0,0,0-1.53-1.53Z" transform="translate(-1.995 -43.243)"/><path class="l" d="M46.448,44.39H43.874a4.034,4.034,0,0,0-4.034,4.034H50.482A4.034,4.034,0,0,0,46.448,44.39Z" transform="translate(-4.157 -44.39)"/><rect class="m" width="49.038" height="17.992" rx="1.69" transform="translate(0 5.634)"/><g transform="translate(2.713 9.182)"><rect class="l" width="10.016" height="4.382" rx="0.46"/><rect class="l" width="10.016" height="4.382" rx="0.46" transform="translate(0 6.538)"/><g transform="translate(33.295)"><rect class="l" width="10.016" height="4.382" rx="0.46"/><rect class="l" width="10.016" height="4.382" rx="0.46" transform="translate(0 6.538)"/></g></g></g><g transform="translate(42.986)"><path class="h" d="M280.5,166.307l12.683-22.977,22.977,2.2,3.71,14.769-15.14,5.031-15.117,6.538Z" transform="translate(-275.538 -143.33)"/><path class="h" d="M298.138,147.156,296,143.33l-12.683,6.933L278.36,160.3l2.133,1.971,6.631-8.324,13.146-3.316Z" transform="translate(-278.36 -143.33)"/></g><path class="h" d="M284.049,166.307,271.39,143.33l-4.266,1.113-6.886,22.537-.417-1.646,15.117,6.538Z" transform="translate(-259.82 -143.33)"/><path class="h" d="M265.08,147.156l2.156-3.826,12.659,6.933,4.962,10.039-2.133,1.971-6.631-8.324-13.123-3.316Z" transform="translate(-255.667 -143.33)"/></g><g transform="translate(34.941 199.324)"><g transform="translate(22.046 0)"><path class="h" d="M39.79,161.5l21.957-3.037s2.805-12.984,6.1-32.46H40.022C40.115,142.462,39.79,161.5,39.79,161.5Z" transform="translate(-39.254 38.793)"/><path class="e" d="M62.794,54.936c-11.245-.417-25.5,10.295-22.931,142.477.441,2.319.58,11.732.556,22.467H68.243c4.475-26.455,9.9-64.781,10.457-98.285C79.233,84.336,74.062,55.354,62.794,54.936Z" transform="translate(-39.559 -54.925)"/></g><path class="e" d="M76.839,140.852l-.788,16.091H30.1a12.358,12.358,0,0,1,7.512-12.451,49.362,49.362,0,0,0,13.355-9.6A12.428,12.428,0,0,1,63.3,136.354C67.031,139.437,72.387,147.39,76.839,140.852Z" transform="translate(-30.05 49.19)"/><path class="f" d="M41.388,137.72h0c-1.391.6-2.666,1.182-3.779,1.716A12.358,12.358,0,0,0,30.1,151.887H55.6C54.951,148.084,52.146,137.72,41.388,137.72Z" transform="translate(-30.05 54.246)"/></g><path class="d" d="M73.731,6.42l-11.083,27.5L51.056,31.924s-7.211,3.2-7.86,1.994S41.48,9.04,41.48,9.04Z" transform="translate(19.962 80.44)"/><path class="f" d="M63.967,1a39.416,39.416,0,0,1,8.88,1.553c2.11,1.02,6.353,8.532,6.353,8.532L63.967,41.065l-11.315-7.6-8.138,7.721L40.48,14.541l3.014-7.188S48.966,1.742,63.967,1Z" transform="translate(18.644 73.294)"/><g transform="translate(32.505 0)"><path class="h" d="M59.325-11.18s5.541,26.246,10.5,36.634C67.417,36.142,52.648,49.52,52.648,49.52L44.834,30.6c-1.3-3.153-.835-7.3-3.756-16.949C36.557-1.651,59.325-11.18,59.325-11.18Z" transform="translate(-13.857 57.233)"/><path class="h" d="M59.325-11.18s1.646,16.647,6.585,27.1c-2.319,10.712-6.191,16.74-11.848,18.317-11.593,3.223-8.463-5.31-12.984-20.589S59.325-11.18,59.325-11.18Z" transform="translate(-13.857 57.233)"/><g transform="translate(26.627 46.053)"><g class="n" transform="translate(0)"><path class="d" d="M47.615,48.247c-4.243.881-16.879-12.567-19.337-35.173s7.883-38.233,18.8-40.367,25.736,12.312,27.1,38.28S56.379,46.392,47.615,48.247Z" transform="translate(-57.06 -10.338)"/></g></g><path class="o" d="M45.734-25.728S71.865-43.86,72.259-11.168,61.872,23.379,61.872,23.379,58.44,25.1,49.4.193C45.387-10.843,45.734-25.728,45.734-25.728Z" transform="translate(-6.943 31.438)"/><path class="h" d="M48.768,45.42c-4.22.9-16.879-12.567-19.314-35.266s7.883-38.233,18.8-40.367S73.995-17.854,75.247,8.044,57.556,43.565,48.768,45.42Z" transform="translate(-28.874 31.865)"/><path class="d" d="M49.407.151S54.67-10.469,47.9-26.49c5.727,6.051,7.744,12.706,6.956,24.183S49.407.151,49.407.151Z" transform="translate(-4.078 37.046)"/><path class="h" d="M60.171-7.085a9,9,0,0,1-3.756,5.959c-2.55,1.785-6.191,3.385-8.045,0-3.061-5.611,3.153-18.827,8.88-15.419C60.751-14.551,60.774-10.239,60.171-7.085Z" transform="translate(-4.524 49.429)"/><path class="o" d="M29.209-6.993C27.563-.617,35.725,3.881,49.427-4.442c8.579-5.194,15.3-7.79,16.068,3.084S69.622,9.516,69.622,9.516s3.826-.255,7.4-7.651S74.143-32.891,52.4-30.944C33.058-29.251,29.209-6.993,29.209-6.993Z" transform="translate(-29 31.043)"/></g></g><path class="p" d="M244.312,50s8.718,215.93-60.608,215.93H-80.614l-43.126-.209V173.209" transform="translate(393.298 297.787)"/><g transform="translate(134.037)"><path class="h" d="M-172.165-30.16s-10.434,47.786-6.028,76.907a133.457,133.457,0,0,0,16.81,48.342l19.082-2.319L-155.262-30.114Z" transform="translate(186.03 192.09)"/><path class="q" d="M-168.853,15.39s-1.484,199.259,6.075,281.267c33.921,1.322,30.652,0,30.652,0l13.355-239.51L-88.05,296.958l29.075-.3s-7.906-131.023-7.906-186.6S-71.82,20.236-71.82,20.236Z" transform="translate(199.621 252.151)"/><path class="e" d="M-130.371-59.583S-159.91-48.964-168.326-36s.556,53.768.811,85.115c.116,13.239,2.55,76.513,2.55,76.513,7.257,15.3,68.815,17.552,96.383-3.061-8.88-101.044,9.645-136.054,4.313-149.8-7.744-19.917-19.2-24.461-44.053-32.321a37.468,37.468,0,0,0-22.05-.023Z" transform="translate(195.732 151.121)"/><path class="e" d="M-148.524-52.735c-18.363,10.48-33.666,69.7-33.666,69.7s14.932,9.066,31.254,8.231S-130.184-63.215-148.524-52.735Z" transform="translate(182.19 161.175)"/><path class="h" d="M-104.048.532l13.911,17.9s6.307-6.376,16.091-17.9,11.431-29.887,11.431-29.887L-74.439-37.1l8.973-22.861h12.659l14.932,15.094S-49.468,19.22-74.439,45.327c-10.2,10.619-15.929,12.659-15.929,12.659s-24.484-15.511-37.1-40,11.06-26.525,11.06-26.525Z" transform="translate(249.469 152.796)"/><rect class="f" width="15.419" height="41.201" rx="2.95" transform="matrix(0.389, -0.921, 0.921, 0.389, 163.456, 104.26)"/><path class="e" d="M-119.378-51.63c8.88,9.738,29.1,48.5,29.1,48.5s-12.59,17.528-28.5,21.493A243.675,243.675,0,0,1-134.82-4.818Z" transform="translate(244.651 163.78)"/><path class="h" d="M-102.424-38.6l-4.266-.348,7.7-19.615h1.785s2.55,8.161,2.017,9.97-3.431,8.811-3.431,8.811Z" transform="translate(281.743 154.642)"/><path class="h" d="M-78.358-46.718c-.974.209-12.1,9.274-12.1,9.274L-104.79-45.35l4.637-14.63Z" transform="translate(284.248 152.77)"/><path class="h" d="M-149.955-76.528s-6.028-10.5-5.634,5.055,1.02,34.477,1.368,37.793,5.031,16.091,16.555,14.653c10.642-1.322,12.729-12.915,11.593-19.36s1.461-19.778,1.461-19.778Z" transform="translate(217.241 126.378)"/><g transform="translate(61.633 46.383)"><g class="r"><path class="d" d="M-135.684-21.819c17.3,2.736,23.626-12.057,25.5-34.779s-8.718-38.048-19.662-39.949-25.5,12.868-26.27,38.836S-144.541-23.187-135.684-21.819Z" transform="translate(154.9 57.955)"/></g></g><path class="h" d="M-136.855-23.422c17.3,2.713,23.626-12.057,25.5-34.779s-8.718-38.025-19.685-39.926-25.5,12.868-26.246,38.836S-145.712-24.837-136.855-23.422Z" transform="translate(214.991 102.254)"/><path class="h" d="M-161.257-71.625a10.573,10.573,0,0,0,4.915,6.585c3.153,1.832,7.535,3.339,9.274-.835,3.014-6.817-5.495-21.586-11.8-17.065C-162.579-80.227-162.162-75.2-161.257-71.625Z" transform="translate(208.974 121.381)"/><path class="o" d="M-153.76-52.1s-8.672-17.644-6.562-26.385c2.319-9.6,7.466-8.045,7.466-8.045A12.451,12.451,0,0,1-144.9-97.96c8-2.806,21.795-3.014,33.272,1.252,15.813,5.843,18.549,23.626,2.319,31.417-13.146,6.307-34.153-4.336-38.489-7.79C-143.164-62.485-153.76-52.1-153.76-52.1Z" transform="translate(210.589 100)"/></g><g transform="translate(0 194.552)"><g transform="translate(0 247.207)"><rect class="e" width="494.414" height="20.589"/><rect class="e" width="494.414" height="20.589" transform="translate(0 102.991)"/><rect class="e" width="107.837" height="20.589" transform="translate(0 115.999) rotate(-90)"/><rect class="e" width="107.837" height="20.589" transform="translate(473.802 113.286) rotate(-90)"/><rect class="e" width="107.837" height="20.589" transform="translate(236.89 115.999) rotate(-90)"/><rect class="e" width="494.414" height="20.589" transform="translate(0 51.496)"/></g><g transform="translate(82.402)"><rect class="l" width="329.61" height="206.006"/><path class="d" d="M365.15,202.784H35.54l82.4-52.794h164.8Z" transform="translate(-35.54 3.222)"/><path class="m" d="M365.15,83.91H35.54l82.4,52.771h164.8Z" transform="translate(-35.54 -83.91)"/><rect class="l" width="64.619" height="118.178" transform="translate(132.484 123.604)"/><rect class="l" width="164.805" height="6.562" transform="translate(82.402 240.646)"/><path class="m" d="M-4.115,96.416h-164.8l25.319-7.86c15.511-4.8,35.915-7.466,57.107-7.466h0c21.169,0,41.572,2.666,57.084,7.466Z" transform="translate(251.322 144.23)"/><circle class="m" cx="32.321" cy="32.321" r="32.321" transform="translate(125.955 81.183) rotate(-13.2)"/></g><g transform="translate(20.589 267.75)"><rect class="l" width="123.604" height="30.907" transform="translate(236.913 0.046)"/><g transform="translate(350.222 10.318)"><rect class="l" width="102.991" height="15.442" transform="translate(0 56.689)"/><rect class="q" width="68.398" height="15.442" transform="translate(34.593 41.224)"/><rect class="s" width="62.439" height="15.442" transform="translate(10.295 5.17)"/><rect class="g" width="62.439" height="5.194" transform="translate(10.295)"/><rect class="t" width="102.991" height="8.509" transform="translate(0 60.144)"/></g><rect class="l" width="102.991" height="15.442" transform="translate(0 15.511)"/><rect class="u" width="68.398" height="15.442" transform="translate(34.616)"/><rect class="l" width="92.697" height="5.194" transform="translate(123.604 25.759)"/><rect class="l" width="92.697" height="5.194" transform="translate(123.604 10.318)"/><rect class="v" width="92.697" height="5.194" transform="translate(123.604 5.124)"/><rect class="w" width="92.697" height="5.194" transform="translate(123.604 0.046)"/><rect class="e" width="92.697" height="5.194" transform="translate(123.604 15.488)"/><rect class="x" width="92.697" height="5.194" transform="translate(123.604 20.659)"/><rect class="t" width="102.991" height="8.509" transform="translate(0 18.989)"/><rect class="l" width="102.991" height="15.442" transform="translate(0 67.007)"/><rect class="q" width="51.496" height="7.721" transform="translate(10.318 59.263)"/><rect class="f" width="51.496" height="7.721" transform="translate(0 51.542)"/><g transform="translate(236.913 61.025)"><rect class="l" width="102.991" height="7.721" transform="translate(0 13.703)"/><rect class="m" width="84.883" height="13.703" transform="translate(7.837)"/></g></g></g><path class="l" d="M44.934,237.392H14.05l-5.17-82.4h41.2Z" transform="translate(11.709 204.367)"/><path class="l" d="M48.874,237.392H17.967l-5.147-82.4h41.2Z" transform="translate(16.904 204.367)"/><path class="d" d="M8.88,154.99l5.17,82.4h9.112l-5.147-82.4Z" transform="translate(11.709 204.367)"/><path class="g" d="M-223.311,172.156s-13.425-82.4-3.362-206.006c8.811,86.043,10.758,206.006,10.758,206.006Z" transform="translate(252.641 187.224)"/><path class="g" d="M-220.2,128s-.487-80.849,2.55-113.912L-215.567-.36s7.072,94.088,3.524,128.357Z" transform="translate(266.065 231.383)"/><path class="d" d="M-220.2,119.782s-.487-80.849,2.55-113.912h0s9.274,79.643,5.611,113.912Z" transform="translate(266.065 239.598)"/><path class="g" d="M-222.23,148.738V-16.09s12.984,41.178,8.277,164.8Z" transform="translate(263.431 210.642)"/><g transform="translate(582.729 277.998)"><line class="y" y2="17.668" transform="translate(57.454 15.998)"/><line class="y" x1="14.7" y1="35.474" transform="translate(33.643)"/><line class="y" x1="35.474" y2="14.7" transform="translate(79.435 33.666)"/><line class="y" x2="12.497" y2="12.497" transform="translate(28.124 28.148)"/><line class="y" x1="12.497" y2="12.497" transform="translate(74.287 28.148)"/><line class="y" x1="35.451" y1="14.7" transform="translate(0 33.666)"/><line class="y" x1="14.7" y2="35.474" transform="translate(66.566)"/></g><g transform="translate(296.523 83.515)"><line class="z" x2="8.996" y2="5.24" transform="translate(9.251 2.435)"/><line class="z" x2="5.889" y2="5.055" transform="translate(13.749)"/><line class="z" x2="10.063" y2="2.643" transform="translate(0 25.249)"/><line class="z" x2="7.721" y2="0.603" transform="translate(1.461 30.142)"/></g><path class="aa" d="M-4.018,25.13S.62,37.256-7.82,56.361" transform="translate(546.148 264.994)"/><path class="aa" d="M-48.37,31.31s0,15.65,9.506,26.942" transform="translate(492.68 273.143)"/><g transform="translate(322.903 63.108)"><path class="l" d="M98.206,90.783c1.253,5.014,3.76,10.654,4.387,13.788,1.253,10.028-12.535,15.041-18.175,6.894-2.507-3.76-2.507-7.521-5.014-13.788-6.894,1.88-11.281,5.014-16.295,4.387-8.147-1.253-10.028-12.535-4.387-17.548,3.76-3.134,9.4-3.134,14.415-5.641,0,0-4.387-15.041-7.521-21.936-5.641,1.88-13.161,5.014-16.922,4.387-4.387-1.88-6.894-5.014-6.894-9.4,0-9.4,10.654-10.028,17.548-12.535-1.88-5.641-4.387-9.4-4.387-15.042.627-7.521,9.4-11.908,16.295-7.521,3.134,1.88,5.014,10.028,6.894,16.295L99.459,25.6c-2.507-8.147-6.894-15.668-1.253-21.309,4.387-4.387,11.908-3.134,15.668,1.253,3.134,4.387,3.134,9.4,5.014,13.788,5.641-2.507,12.535-6.267,18.175-4.387,4.387,1.253,6.894,7.521,5.641,11.281-2.507,6.894-10.654,8.147-17.548,10.654l6.894,21.936c6.267-1.88,9.4-4.387,15.041-4.387a10.237,10.237,0,0,1,10.028,8.147c1.253,10.654-10.654,11.908-18.175,14.415,2.507,7.521,4.387,9.4,4.387,15.041,0,10.028-13.161,12.535-18.8,5.014-1.88-2.507-2.507-7.521-4.387-13.161C119.514,83.889,98.206,91.41,98.206,90.783Zm15.042-25.7-7.521-21.936L85.044,50.672l6.894,21.309Z" transform="translate(0 0)"/></g></g></g></svg>