<svg xmlns="http://www.w3.org/2000/svg" viewBox="9867 1413.495 85.171 18"><defs><style>.a{fill:#f7931a;}.b{fill:#fff;}</style></defs><g transform="translate(9415 703)"><path class="a" d="M307.113,328.593a8.943,8.943,0,0,1-10.8,6.519,8.808,8.808,0,0,1-6.422-10.8,8.873,8.873,0,1,1,17.222,4.281Z" transform="translate(162.403 392.994)"/><path class="b" d="M302.562,325.178c.195-1.168-.681-1.849-1.946-2.238l.389-1.557-.973-.195-.389,1.557c-.292-.1-.486-.1-.778-.195l.389-1.557-.973-.195-.389,1.557c-.195-.1-.389-.1-.584-.195h0l-1.362-.292-.292,1.07.681.195a.588.588,0,0,1,.486.584l-.486,1.849h0l-.681,2.53a.353.353,0,0,1-.486.195l-.681-.195-.486,1.07,1.265.292c.195.1.486.1.681.195l-.389,1.654.973.195.389-1.557c.292.1.486.1.778.195l-.389,1.557.973.195.389-1.654c1.654.292,2.919.195,3.405-1.362a1.689,1.689,0,0,0-.876-2.335c.681,0,1.168-.486,1.362-1.362Zm-2.238,3.113c-.292,1.168-2.335.584-3.016.389l.584-2.141c.584.195,2.724.584,2.432,1.751Zm.292-3.113c-.292,1.07-1.946.584-2.53.389l.486-1.946C299.157,323.816,300.908,324.011,300.616,325.178Z" transform="translate(162.284 392.906)"/><path class="a" d="M316.184,322.851a3.7,3.7,0,0,1,1.849.389,3.388,3.388,0,0,1,1.265,1.07,3.911,3.911,0,0,1,.778,1.557,5.664,5.664,0,0,1,.292,1.849,7.109,7.109,0,0,1-.584,2.919,7.992,7.992,0,0,1-1.557,2.432,7.85,7.85,0,0,1-2.335,1.654,7.109,7.109,0,0,1-2.919.584h-.681a5.585,5.585,0,0,1-1.168-.1c-.389-.1-.876-.195-1.362-.292a5.625,5.625,0,0,1-1.362-.486l3.892-16.346,3.5-.584-1.362,5.838.876-.292a1.943,1.943,0,0,1,.876-.195Zm-2.919,9.632a2.746,2.746,0,0,0,1.459-.389,3.094,3.094,0,0,0,1.168-1.07,5.157,5.157,0,0,0,.778-1.459,4.942,4.942,0,0,0,.292-1.654,2.784,2.784,0,0,0-.389-1.654c-.195-.389-.681-.584-1.362-.584a2.418,2.418,0,0,0-.778.1,1.579,1.579,0,0,0-.876.486l-1.46,6.13h.681a4.21,4.21,0,0,0,.486.1Z" transform="translate(161.895 392.995)"/><path class="a" d="M324.308,334.924H321l2.822-11.87h3.308Zm1.654-13.232a1.955,1.955,0,0,1-1.265-.389,1.446,1.446,0,0,1-.584-1.265,2.84,2.84,0,0,1,.195-.876,1.745,1.745,0,0,1,.486-.681,2.119,2.119,0,0,1,.778-.486,2.841,2.841,0,0,1,.876-.195,1.956,1.956,0,0,1,1.265.389,1.446,1.446,0,0,1,.584,1.265,2.84,2.84,0,0,1-.195.876,1.745,1.745,0,0,1-.486.681,2.118,2.118,0,0,1-.778.486,2.839,2.839,0,0,1-.876.195Z" transform="translate(161.555 392.987)"/><path class="a" d="M330.232,320.284l3.5-.584-.876,3.5h3.7l-.681,2.724h-3.7l-.973,4.184c-.1.389-.1.681-.195.973a1.9,1.9,0,0,0,.1.778,1.173,1.173,0,0,0,.486.487,2.442,2.442,0,0,0,.973.195,3.991,3.991,0,0,0,1.07-.1c.292-.1.681-.195,1.07-.292l.292,2.53a8.106,8.106,0,0,1-1.459.389,9.8,9.8,0,0,1-1.849.195,5.362,5.362,0,0,1-2.432-.486,2.131,2.131,0,0,1-1.168-1.265,3.711,3.711,0,0,1-.292-1.849,8.1,8.1,0,0,1,.292-2.141Z" transform="translate(161.371 392.936)"/><path class="a" d="M336.7,330.395a10.191,10.191,0,0,1,.487-2.919,5.916,5.916,0,0,1,1.459-2.335,6.171,6.171,0,0,1,2.238-1.557A7.109,7.109,0,0,1,343.8,323a10.78,10.78,0,0,1,1.849.195,8.568,8.568,0,0,1,1.459.487l-1.168,2.627c-.292-.1-.584-.195-.973-.292a3.628,3.628,0,0,0-1.168-.195,3.332,3.332,0,0,0-2.627,1.168,4.431,4.431,0,0,0-.973,3.114,3.461,3.461,0,0,0,.486,1.849,2.053,2.053,0,0,0,1.849.681,5.548,5.548,0,0,0,1.265-.1c.389-.1.778-.195,1.07-.292l.292,2.724c-.389.195-.876.292-1.362.486a8.954,8.954,0,0,1-1.849.195,5.316,5.316,0,0,1-2.335-.389,4.864,4.864,0,0,1-1.557-1.07,4.484,4.484,0,0,1-.876-1.654,4.8,4.8,0,0,1-.486-2.141Z" transform="translate(161.13 392.847)"/><path class="a" d="M351.77,335.454a4.513,4.513,0,0,1-2.043-.389,3.849,3.849,0,0,1-1.459-.973,4.058,4.058,0,0,1-.876-1.557,6.272,6.272,0,0,1-.292-1.946,8.791,8.791,0,0,1,.389-2.724,7.251,7.251,0,0,1,1.265-2.432,8.85,8.85,0,0,1,2.043-1.751,5.279,5.279,0,0,1,2.822-.681,4.513,4.513,0,0,1,2.043.389,3.848,3.848,0,0,1,1.459.973,4.058,4.058,0,0,1,.876,1.557,6.274,6.274,0,0,1,.292,1.946,9.211,9.211,0,0,1-.389,2.724,7.248,7.248,0,0,1-1.265,2.432,8.848,8.848,0,0,1-2.043,1.751,6.353,6.353,0,0,1-2.822.681Zm1.654-9.632a1.794,1.794,0,0,0-1.265.389,5.1,5.1,0,0,0-.973,1.07,3.3,3.3,0,0,0-.584,1.46,7.513,7.513,0,0,0-.195,1.459,2.926,2.926,0,0,0,.389,1.751,1.338,1.338,0,0,0,1.265.584,1.794,1.794,0,0,0,1.265-.389,5.1,5.1,0,0,0,.973-1.07,3.3,3.3,0,0,0,.584-1.459,7.513,7.513,0,0,0,.195-1.459,2.926,2.926,0,0,0-.389-1.751c-.195-.389-.584-.584-1.265-.584Z" transform="translate(160.849 392.847)"/><path class="a" d="M362.405,334.924H359l2.822-11.87h3.308Zm1.557-13.232a1.955,1.955,0,0,1-1.265-.389,1.445,1.445,0,0,1-.584-1.265,2.841,2.841,0,0,1,.195-.876,1.746,1.746,0,0,1,.486-.681,2.119,2.119,0,0,1,.778-.486,2.841,2.841,0,0,1,.876-.195,1.956,1.956,0,0,1,1.265.389,1.446,1.446,0,0,1,.584,1.265,2.841,2.841,0,0,1-.195.876,1.745,1.745,0,0,1-.486.681,2.119,2.119,0,0,1-.778.486A1.942,1.942,0,0,1,363.962,321.692Z" transform="translate(160.527 392.987)"/><path class="a" d="M367.724,323.776l.876-.292c.292-.1.681-.195,1.07-.292a4.93,4.93,0,0,1,1.265-.195,8.39,8.39,0,0,1,1.654-.1c1.751,0,2.919.486,3.6,1.557a5.317,5.317,0,0,1,.389,4.184l-1.557,6.422h-3.308l1.459-6.227a4.884,4.884,0,0,0,.195-1.168,1.649,1.649,0,0,0,0-.973,1.568,1.568,0,0,0-.389-.681,1.453,1.453,0,0,0-.973-.292,6.894,6.894,0,0,0-1.362.1l-2.141,9.146H365Z" transform="translate(160.365 392.849)"/></g></svg>