<svg xmlns="http://www.w3.org/2000/svg" viewBox="9967 1248 30 30"><defs><style>.a{fill:#f7931a;}.b{fill:#fff;}</style></defs><g transform="translate(9424 856)"><circle class="a" cx="15" cy="15" r="15" transform="translate(543 392)"/><path class="b" d="M28.532,9.806S21.8,5.615,16.4,9.034L14.966,7.6h0v.11L13.532,9.144C8.128,5.725,1.4,9.916,1.4,9.916c1.544,5.074,9.154,5.4,9.154,5.4l-1.544,3.2-2.537.331A15.765,15.765,0,0,0,7.466,23.7a2.176,2.176,0,0,0,1.213,1.213l6.176,2.537h0l6.176-2.537c.662-.331.882-.331,1.213-1.213a13.583,13.583,0,0,0,.993-4.853l-2.426-.441-1.544-3.2C19.378,15.21,26.988,14.879,28.532,9.806Z" transform="translate(543.144 392.782)"/><path d="M14.04,11.3c-1.434,1.985-3.64,6.066-3.64,6.066h7.279A51.324,51.324,0,0,0,14.04,11.3Z" transform="translate(544.071 393.163)"/><path d="M24.386,11.26c-3.86-1.1-7.941-.772-7.279.882s4.853.882,7.279-.882" transform="translate(544.754 393.093)"/><path d="M4.2,11.153c2.426,1.765,6.728,2.537,7.279.882C12.141,10.491,7.95,10.16,4.2,11.153Z" transform="translate(543.432 393.09)"/><g transform="translate(554.029 413.838)"><path d="M18.162,21.785a7.168,7.168,0,0,0-4.081-1.213A7.168,7.168,0,0,0,10,21.785v-.662A6.142,6.142,0,0,1,14.081,19.8a6.378,6.378,0,0,1,4.081,1.324Z" transform="translate(-10 -19.8)"/></g></g></svg>