<svg xmlns="http://www.w3.org/2000/svg" viewBox="9917 1248 30 30"><defs><style>.a{fill:#f7931a;}.b{fill:#fff;}</style></defs><g transform="translate(9424 856)"><circle class="a" cx="15" cy="15" r="15" transform="translate(493 392)"/><path class="b" d="M28.532,10.468S21.8,5.615,16.4,9.034L14.966,7.6h0v.11L13.532,9.144C8.128,5.725,1.4,10.578,1.4,10.578c1.544,5.074,9.154,4.743,9.154,4.743l-1.544,3.2-2.537.331A15.765,15.765,0,0,0,7.466,23.7a2.176,2.176,0,0,0,1.213,1.213l6.176,2.537h0l6.176-2.537c.662-.331.882-.331,1.213-1.213a13.583,13.583,0,0,0,.993-4.853l-2.426-.441-1.544-3.2C19.378,15.21,26.988,15.541,28.532,10.468Z" transform="translate(493.144 392.782)"/><path d="M14.04,11.3c-1.434,1.985-3.64,6.066-3.64,6.066h7.279A51.324,51.324,0,0,0,14.04,11.3Z" transform="translate(494.071 393.163)"/><path d="M24.491,11.018c-3.64-1.765-7.721-1.765-7.39.551.331,2.206,4.632,1.654,7.39-.551" transform="translate(494.759 393.004)"/><path d="M4.2,11.018c3.64-1.765,7.721-1.765,7.39.551-.331,2.206-4.632,1.654-7.39-.551" transform="translate(493.432 393.004)"/><g transform="translate(503.809 414.5)"><path d="M9.8,20.4l8.162.11.221.662-8.162-.11Z" transform="translate(-9.8 -20.4)"/></g></g></svg>