<svg xmlns="http://www.w3.org/2000/svg" viewBox="9867 1248 30 30"><defs><style>.a{fill:#f7931a;}.b{fill:#fff;}</style></defs><g transform="translate(9424 856)"><circle class="a" cx="15" cy="15" r="15" transform="translate(443 392)"/><path class="b" d="M28.532,10.468S21.8,5.615,16.4,9.034L14.966,7.6h0v.11L13.532,9.144C8.128,5.725,1.4,10.578,1.4,10.578c1.544,5.074,9.154,4.743,9.154,4.743l-1.544,3.2-2.537.331A15.765,15.765,0,0,0,7.466,23.7a2.176,2.176,0,0,0,1.213,1.213l6.176,2.537h0l6.176-2.537c.662-.331.882-.331,1.213-1.213a13.583,13.583,0,0,0,.993-4.853l-2.426-.441-1.544-3.2C19.378,15.21,26.988,15.541,28.532,10.468Z" transform="translate(443.144 392.782)"/><path d="M14.04,11.3c-1.434,1.985-3.64,6.066-3.64,6.066h7.279A51.324,51.324,0,0,0,14.04,11.3Z" transform="translate(444.071 393.163)"/><g transform="translate(454.029 413.838)"><path d="M10,19.8a7.168,7.168,0,0,0,4.081,1.213A7.168,7.168,0,0,0,18.162,19.8v.662a6.142,6.142,0,0,1-4.081,1.324A6.378,6.378,0,0,1,10,20.462Z" transform="translate(-10 -19.8)"/></g><path d="M18.647,19.941c-.882-.441-3.75-.441-4.522-.441s-3.64,0-4.522.441c-.331,2.426,2.647,2.978,3.419,3.2a7.394,7.394,0,0,0,2.206,0C16.11,23.029,18.977,22.368,18.647,19.941Z" transform="translate(443.986 394.007)"/><path d="M10.8,12.8Z" transform="translate(444.112 393.318)"/><path d="M16.6,12.8Z" transform="translate(444.709 393.318)"/><g transform="translate(448.493 402.257)"><path d="M7.759,9.3C5.112,9.3,4.892,11.285,5,12.057c0-.331.551-.772,2.757-.882,2.206.11,2.757.551,2.757.772C10.627,11.285,10.406,9.3,7.759,9.3Z" transform="translate(-4.98 -9.3)"/></g><g transform="translate(462.721 402.257)"><path d="M20.659,9.3c-2.647,0-2.868,1.985-2.757,2.757.11-.331.551-.772,2.757-.772,2.206.11,2.757.551,2.757.772C23.527,11.285,23.306,9.3,20.659,9.3Z" transform="translate(-17.88 -9.3)"/></g></g></svg>