<svg xmlns="http://www.w3.org/2000/svg" viewBox="10343 1248 30 30"><defs><style>.a{fill:#1e75bb;}.b{fill:#fff;}</style></defs><g transform="translate(9427 856)"><circle class="a" cx="15" cy="15" r="15" transform="translate(916 392)"/><path class="b" d="M24.537,15.94s3.309.221,3.309-.882.331-4.632-.441-4.963c0,0-.993,2.647-2.978,2.868A9.057,9.057,0,0,0,25.64,9.543c.221-1.875-2.316-3.75-6.066-4.743,0,0,1.875,2.316,2.868,3.75,0,0,1.213.662-1.875,1.1a11.747,11.747,0,0,0-3.529.993l-.11.11c-.551.441-2.1,1.213-2.316,1.544-.221-.331-1.765-1.1-2.206-1.544l-.11-.11a9.592,9.592,0,0,0-3.419-.993C5.787,9.212,7,8.55,7,8.55,7.993,7.116,9.868,4.8,9.868,4.8c-3.64.993-6.176,2.868-5.956,4.743a9.057,9.057,0,0,0,1.213,3.419c-2.1-.221-2.978-2.868-2.978-2.868-.772.331-.441,3.971-.441,4.963,0,1.1,3.309.882,3.309.882,0,.662-3.309,1.544-3.309,1.544.331,2.978,2.206,3.088,2.206,3.088a32.124,32.124,0,0,0,4.3-3.86c.882-.993,1.765.441,1.985,1.324s-1.434,3.419-1.213,5.184c.331,1.765,2.537,3.088,2.537,3.088V25.094s1.765,2.1,1.765,1.765a9.849,9.849,0,0,1,.551-1.434A3.411,3.411,0,0,0,14.5,27.19c.11,0,.11,0,.221-.11.11,0,.11.11.221.11a2.961,2.961,0,0,0,.662-1.765s.662,1.1.551,1.434c0,.221,1.765-1.765,1.765-1.765v1.213s2.206-1.434,2.537-3.088c.331-1.765-1.434-4.3-1.213-5.184s1.1-2.316,1.985-1.324,3.529,3.64,4.3,3.86c0,0,1.875-.11,2.316-3.2C27.846,17.374,24.537,16.6,24.537,15.94Z" transform="translate(916.168 392.494)"/><g transform="translate(923.059 404.243)"><path d="M8.716,11.431A15.4,15.4,0,0,1,6.4,11.1a8.305,8.305,0,0,0,.882,2.206c.11.11-.331-.882.331-1.324.221-.221,1.875.11,2.316.221,1.985.551.772,1.875,1.213,2.426a3.807,3.807,0,0,0,.772-1.985C11.694,11.872,10.15,11.541,8.716,11.431Z" transform="translate(-6.4 -11.1)"/><path d="M18.9,11.431a15.4,15.4,0,0,0,2.316-.331,8.305,8.305,0,0,1-.882,2.206c-.11.11.331-.882-.331-1.324-.221-.221-1.875.11-2.316.221-1.985.551-.772,1.875-1.213,2.426a3.807,3.807,0,0,1-.772-1.985C15.921,11.872,17.355,11.541,18.9,11.431Z" transform="translate(-5.444 -11.1)"/></g><path class="b" d="M8.1,10.4" transform="translate(916.834 393.071)"/><path class="b" d="M18.9,10.4" transform="translate(917.946 393.071)"/><path d="M13.726,13.1c-.551.882-2.316,4.3-2.426,4.632h4.963C16.153,17.4,14.278,13.982,13.726,13.1Z" transform="translate(917.163 393.349)"/><path d="M18.085,19.841c-.772-.441-3.419-.441-4.191-.441s-3.419,0-4.191.441c-.331,2.206,2.426,2.757,3.2,2.978a6,6,0,0,0,1.985,0C15.658,22.709,18.416,22.047,18.085,19.841Z" transform="translate(916.996 393.997)"/></g></svg>