<svg xmlns="http://www.w3.org/2000/svg" viewBox="10443 1248 30 30"><defs><style>.a{fill:#1e75bb;}.b{fill:#fff;}</style></defs><g transform="translate(9427 856)"><circle class="a" cx="15" cy="15" r="15" transform="translate(1016 392)"/><path class="b" d="M24.537,15.94s3.309.221,3.309-.882.331-4.632-.441-4.963c0,0-.993,2.647-2.978,2.868A9.057,9.057,0,0,0,25.64,9.543c.221-1.875-2.316-3.75-6.066-4.743,0,0,1.875,2.316,2.978,3.75,0,0,1.213.662-1.875,1.1a11.747,11.747,0,0,0-3.529.993l-.11.11c-.551.441-2.1,1.213-2.206,1.544-.221-.331-1.765-1.1-2.206-1.544l-.11-.11a14.446,14.446,0,0,0-3.64-.993C5.787,9.212,7,8.55,7,8.55,7.993,7.116,9.868,4.8,9.868,4.8c-3.64.993-6.176,2.868-5.956,4.743a9.057,9.057,0,0,0,1.213,3.419c-2.1-.221-2.978-2.868-2.978-2.868-.772.331-.441,3.971-.441,4.963,0,1.1,3.309.882,3.309.882,0,.662-3.309,1.544-3.309,1.544.331,2.978,2.206,3.088,2.206,3.088a32.124,32.124,0,0,0,4.3-3.86c.882-.993,1.765.441,1.985,1.324s-1.434,3.419-1.213,5.184c.331,1.765,2.537,3.088,2.537,3.088V25.094s1.765,2.1,1.765,1.765a9.849,9.849,0,0,1,.551-1.434A3.411,3.411,0,0,0,14.5,27.19c.11,0,.11,0,.221-.11.11,0,.11.11.221.11a2.961,2.961,0,0,0,.662-1.765s.662,1.1.551,1.434c0,.221,1.765-1.765,1.765-1.765l-.11,1.213s2.206-1.434,2.537-3.088c.331-1.765-1.434-4.3-1.213-5.184s1.1-2.316,1.985-1.324,3.529,3.64,4.3,3.86c0,0,1.875-.11,2.316-3.2C27.846,17.374,24.537,16.6,24.537,15.94Z" transform="translate(1016.168 392.494)"/><path d="M11.584,13.024c-.11-.551-1.544-.772-2.978-.993S6.4,11.7,6.4,11.7s.441,1.875.772,1.985c.221.221,2.316,0,3.2.993C10.371,14.568,11.694,13.465,11.584,13.024Z" transform="translate(1016.659 393.204)"/><path class="b" d="M8.1,10.4" transform="translate(1016.834 393.071)"/><path class="b" d="M18.9,10.4" transform="translate(1017.946 393.071)"/><path d="M18.879,12.031c-1.434.11-2.868.441-2.978.993-.11.441,1.213,1.544,1.213,1.544.882-.882,2.868-.772,3.2-.882a9.126,9.126,0,0,0,.772-1.985S20.312,11.81,18.879,12.031Z" transform="translate(1017.636 393.204)"/><path d="M13.726,13.1c-.551.882-2.316,4.3-2.426,4.632h4.853A38.784,38.784,0,0,0,13.726,13.1Z" transform="translate(1017.163 393.349)"/><g transform="translate(1026.809 414.39)"><path d="M17.962,22.285a7.168,7.168,0,0,0-4.081-1.213A7.168,7.168,0,0,0,9.8,22.285v-.662A6.142,6.142,0,0,1,13.881,20.3a6.378,6.378,0,0,1,4.081,1.324Z" transform="translate(-9.8 -20.3)"/></g></g></svg>