<svg xmlns="http://www.w3.org/2000/svg" viewBox="10393 1248 30 30"><defs><style>.a{fill:#1e75bb;}.b{fill:#fff;}</style></defs><g transform="translate(9427 856)"><circle class="a" cx="15" cy="15" r="15" transform="translate(966 392)"/><path class="b" d="M24.537,15.94s3.309.221,3.309-.882.331-4.632-.441-4.963c0,0-.993,2.647-2.978,2.868A9.057,9.057,0,0,0,25.64,9.543c.221-1.875-2.316-3.75-6.066-4.743,0,0,1.875,2.316,2.868,3.75,0,0,1.213.662-1.875,1.1a11.747,11.747,0,0,0-3.529.993l-.11.11c-.551.441-2.1,1.213-2.206,1.544-.221-.331-1.765-1.1-2.316-1.544l-.11-.11a9.592,9.592,0,0,0-3.419-.993C5.787,9.212,7,8.55,7,8.55,7.993,7.116,9.979,4.8,9.979,4.8c-3.75.993-6.287,2.868-6.066,4.743a9.057,9.057,0,0,0,1.213,3.419c-2.1-.221-2.978-2.868-2.978-2.868-.772.331-.441,3.971-.441,4.963,0,1.1,3.309.882,3.309.882,0,.662-3.309,1.544-3.309,1.544.331,2.978,2.206,3.088,2.206,3.088a32.124,32.124,0,0,0,4.3-3.86c.882-.993,1.765.441,1.985,1.324s-1.434,3.419-1.213,5.184c.331,1.765,2.537,3.088,2.537,3.088V25.094s1.765,2.1,1.765,1.765a6.5,6.5,0,0,1,.551-1.434A3.411,3.411,0,0,0,14.5,27.19c.11,0,.11,0,.221-.11.11,0,.11.11.221.11a2.961,2.961,0,0,0,.662-1.765s.662,1.1.551,1.434c0,.221,1.765-1.765,1.765-1.765v1.213s2.206-1.434,2.537-3.088c.331-1.765-1.434-4.3-1.213-5.184s1.1-2.316,1.985-1.324,3.529,3.64,4.3,3.86c0,0,1.875-.11,2.316-3.2C27.846,17.374,24.537,16.6,24.537,15.94Z" transform="translate(966.168 392.494)"/><path d="M10.371,15.543s1.324-1.765,1.213-2.537c-.11-.882-1.544-1.324-2.978-1.654A10,10,0,0,1,6.4,10.8a15.5,15.5,0,0,0,.772,3.309C7.5,14.329,9.488,14,10.371,15.543Z" transform="translate(966.659 393.112)"/><path class="b" d="M8.1,10.4" transform="translate(966.834 393.071)"/><path class="b" d="M18.9,10.4" transform="translate(967.946 393.071)"/><path d="M17.214,15.543S15.89,13.778,16,13.006c.11-.882,1.544-1.324,2.978-1.654a10,10,0,0,0,2.206-.551,15.5,15.5,0,0,1-.772,3.309C20.081,14.329,17.986,14,17.214,15.543Z" transform="translate(967.646 393.112)"/><path d="M13.737,13.1c-.551.882-2.316,4.3-2.537,4.632h4.963A38.784,38.784,0,0,0,13.737,13.1Z" transform="translate(967.153 393.349)"/><g transform="translate(976.699 414.831)"><path d="M9.7,20.7l8.162.11.221.662-8.162-.11Z" transform="translate(-9.7 -20.7)"/></g></g></svg>