<svg xmlns="http://www.w3.org/2000/svg" viewBox="10157 1247 30 30"><defs><style>.a{fill:#2ed6a1;}.b{fill:#fff;}</style></defs><g transform="translate(9423 856)"><circle class="a" cx="15" cy="15" r="15" transform="translate(734 391)"/><path class="b" d="M26.5,11.89V7.478s-6.287-1.1-7.5-.772L14.7,9.463h0L10.4,6.706c-1.213-.331-7.5.882-7.5.882V12l1.324,4.3,3.86-.221L6.429,18.066,8.635,19.72,6.429,22.147l4.191,3.75a10.32,10.32,0,0,1,4.191-1.1A10.32,10.32,0,0,1,19,25.9l4.191-3.75L20.988,19.72l2.206-1.654-1.654-2.1,3.86.221Z" transform="translate(734.299 391.684)"/><path d="M23.362,9.3v1.434l-.993,1.875L15.2,10.844Z" transform="translate(735.565 391.957)"/><path d="M4.6,9.3v1.434l.993,1.875,7.169-1.765Z" transform="translate(734.474 391.957)"/><path d="M13.909,11c-1.324,1.985-3.309,5.735-3.309,5.735h6.618S15.232,12.985,13.909,11Z" transform="translate(735.091 392.132)"/><g transform="translate(744.809 412.287)"><path d="M9.8,19.3l8.162.11.221.662-8.162-.11Z" transform="translate(-9.8 -19.3)"/></g></g></svg>