<svg xmlns="http://www.w3.org/2000/svg" viewBox="10217 1247 30 30"><defs><style>.a{fill:#2ed6a1;}.b{fill:#fff;}</style></defs><g transform="translate(9423 856)"><circle class="a" cx="15" cy="15" r="15" transform="translate(794 391)"/><path class="b" d="M26.5,11.89V7.478s-6.287-1.1-7.5-.772L14.7,9.463h0L10.4,6.706c-1.213-.331-7.5.882-7.5.882V12l1.324,4.3,3.86-.221L6.429,18.066,8.635,19.72,6.429,22.147l4.191,3.75a10.32,10.32,0,0,1,4.191-1.1A10.32,10.32,0,0,1,19,25.9l4.191-3.75L20.988,19.72l2.206-1.654-1.654-2.1,3.86.221Z" transform="translate(794.299 391.684)"/><path d="M22.921,8.6l.331,1.434-.662,2.1-7.39-.441Z" transform="translate(795.565 391.885)"/><path d="M5.031,8.5,4.7,9.934l.551,2.1,7.39-.221Z" transform="translate(794.484 391.875)"/><path d="M13.909,11c-1.324,1.985-3.309,5.735-3.309,5.735h6.618S15.232,12.985,13.909,11Z" transform="translate(795.091 392.132)"/><g transform="translate(804.919 411.735)"><path d="M18.062,20.785a7.168,7.168,0,0,0-4.081-1.213A7.168,7.168,0,0,0,9.9,20.785v-.662A6.142,6.142,0,0,1,13.981,18.8a6.378,6.378,0,0,1,4.081,1.324Z" transform="translate(-9.9 -18.8)"/></g></g></svg>