<svg xmlns="http://www.w3.org/2000/svg" viewBox="10104 1248 30 30"><defs><style>.a{fill:#2ed6a1;}.b{fill:#fff;}</style></defs><g transform="translate(9423 856)"><circle class="a" cx="15" cy="15" r="15" transform="translate(681 392)"/><g transform="translate(683.978 398.507)"><path class="b" d="M6.319,21.662l2.206-2.426L6.319,17.581,7.974,15.6l-3.75.221L2.9,11.4V6.882h.11A53.409,53.409,0,0,1,9.738,6c.331,0,.662,0,.772.11L14.7,8.868h0L18.893,6.11c.221,0,.551-.11.882-.11a53.409,53.409,0,0,1,6.728.882h.11V11.4l-1.434,4.412-3.75-.221,1.654,1.985-2.206,1.654,2.206,2.426-4.3,3.86h-.11a10.162,10.162,0,0,0-4.081-1.1,10.162,10.162,0,0,0-4.081,1.1H10.4Z" transform="translate(-2.679 -5.89)"/><path class="a" d="M19.8,6.121A53.409,53.409,0,0,1,26.524,7v4.412l-1.324,4.3L21.34,15.5l1.654,2.1-2.206,1.654,2.206,2.426L18.8,25.422a10.32,10.32,0,0,0-4.191-1.1,10.32,10.32,0,0,0-4.191,1.1l-4.191-3.75,2.206-2.426L6.229,17.591l1.654-2.1-3.86.221L2.7,11.415V7a53.409,53.409,0,0,1,6.728-.882,1.635,1.635,0,0,1,.772.11l4.3,2.757h0l4.3-2.757c.441,0,.662-.11.993-.11m0-.221c-.331,0-.662,0-.772.11h0L14.832,8.657h0L10.641,6.01h0c-.331,0-.551-.11-.882-.11a56.691,56.691,0,0,0-6.728.882h-.11v4.632h0l1.213,4.412v.11h.11l3.419-.221L6.34,17.481l-.11.11.11.11,1.985,1.544L6.34,21.451l-.11.11.11.221,4.191,3.75.11.11.11-.11a10.162,10.162,0,0,1,4.081-1.1,10.955,10.955,0,0,1,4.081,1.1l.11.11.11-.11,4.191-3.75.11-.11-.221-.221-2.1-2.206L23.1,17.812l.221-.11-.11-.11-1.434-1.875,3.419.221h.11v-.11l1.324-4.3h0V6.893h-.11A40.587,40.587,0,0,0,19.8,5.9Z" transform="translate(-2.7 -5.9)"/></g><g transform="translate(685.824 401.09)"><path d="M10.8,11.2Z" transform="translate(-3.712 -7.937)"/><path d="M5.616,8.416c-2.426,1.1-.551,2.978-.551,2.978s-.441-.993,2.537-1.1c2.647,0,3.64.882,3.86,1.213C11.02,10.953,7.822,7.424,5.616,8.416Z" transform="translate(-4.373 -8.241)"/><path d="M22.346,8.416c-2.206-.993-5.4,2.537-5.846,2.978.221-.221,1.213-1.213,3.86-1.213,2.978,0,2.537,1.1,2.537,1.1A1.617,1.617,0,0,0,22.346,8.416Z" transform="translate(-3.125 -8.241)"/><path d="M16.5,11.2Z" transform="translate(-3.125 -7.937)"/></g><path d="M13.909,10.5c-1.324,1.985-3.309,5.735-3.309,5.735h6.618A65.144,65.144,0,0,0,13.909,10.5Z" transform="translate(682.091 393.081)"/><path d="M18.547,18.141c-.882-.441-3.75-.441-4.522-.441s-3.64,0-4.522.441c-.331,2.426,2.647,2.978,3.419,3.2a7.394,7.394,0,0,0,2.206,0C16.01,21.119,18.877,20.568,18.547,18.141Z" transform="translate(681.976 393.822)"/></g></svg>