<svg xmlns="http://www.w3.org/2000/svg" viewBox="13833 1329 20 20"><defs><style>.a{fill:#091440;}.b{fill:#8997a5;}.c{fill:none;}</style></defs><g transform="translate(12804 856)"><g transform="translate(1030.25 473)"><g transform="translate(0.875 0.785)"><path class="a" d="M50.375,34.1,42.5,29.52V20.31l7.875-4.61,7.875,4.61v9.21ZM43.25,29.09l7.125,4.14L57.5,29.09V20.74l-7.125-4.17L43.25,20.74Z" transform="translate(-42.5 -15.7)"/></g><g transform="translate(1.062 5.287)"><rect class="a" width="0.75" height="17.38" transform="translate(0 0.647) rotate(-59.655)"/></g><g transform="translate(1.061 5.286)"><rect class="a" width="17.38" height="0.75" transform="translate(0 8.78) rotate(-30.345)"/></g><g transform="translate(8.375 1.22)"><rect class="a" width="0.75" height="17.53"/></g><g transform="translate(7.5 8.75)"><circle class="b" cx="1.25" cy="1.25" r="1.25"/></g><g transform="translate(7.5 17.5)"><circle class="b" cx="1.25" cy="1.25" r="1.25"/></g><g transform="translate(0 13.14)"><circle class="b" cx="1.25" cy="1.25" r="1.25"/></g><g transform="translate(7.5)"><circle class="b" cx="1.25" cy="1.25" r="1.25"/></g><g transform="translate(0 4.36)"><circle class="b" cx="1.25" cy="1.25" r="1.25"/></g><g transform="translate(15 4.36)"><circle class="b" cx="1.25" cy="1.25" r="1.25"/></g><g transform="translate(15 13.14)"><circle class="b" cx="1.25" cy="1.25" r="1.25"/></g></g><rect class="c" width="20" height="20" transform="translate(1029 473)"/></g></svg>