<svg xmlns="http://www.w3.org/2000/svg" viewBox="-1425.951 3068.649 70.271 60"><defs><style>.a{opacity:0.75;}.b{fill:#8997a5;}.c{fill:#091440;}.d{fill:#fff;}</style></defs><g transform="translate(-1425.951 3068.649)"><g class="a" transform="translate(0 4.964)"><path class="b" d="M.1,6.057v0Z" transform="translate(-0.014 -5.8)"/><path class="b" d="M0,6.371v0Z" transform="translate(0 -5.858)"/><path class="b" d="M0,6.671v0Z" transform="translate(0 -5.901)"/></g><path class="c" d="M64.28,10.85H5.991A5.914,5.914,0,0,1,.086,5.8h0v.77A.314.314,0,0,0,0,6.827V54.844a6.009,6.009,0,0,0,5.991,5.991h58.2a6.009,6.009,0,0,0,5.991-5.991v-6.5a12.582,12.582,0,0,1,0-25.164v-6.5A5.9,5.9,0,0,0,64.28,10.85Z" transform="translate(0 -0.836)"/><path class="d" d="M67.4,38.882A12.6,12.6,0,0,0,79.982,51.464V26.3A12.6,12.6,0,0,0,67.4,38.882Z" transform="translate(-9.711 -3.789)"/><path class="d" d="M6.006,10.014h54.18V5.991A6.009,6.009,0,0,0,54.194,0H6.006A6.046,6.046,0,0,0,.1,5.05,6.051,6.051,0,0,0,6.006,10.014Z" transform="translate(-0.014)"/></g></svg>