<svg xmlns="http://www.w3.org/2000/svg" viewBox="8706 3028.1 18.4 15.4"><defs><style>.a{fill:#091440;}</style></defs><g transform="translate(7819 2339)"><path class="a" d="M217.5,13.1a1.2,1.2,0,1,1-1.2-1.2,1.216,1.216,0,0,1,1.2,1.2Zm0,0" transform="translate(677.2 685)"/><path class="a" d="M228.2,12.1a2.775,2.775,0,0,0-2.7-2.8,3.255,3.255,0,0,0-1.4.4,11.216,11.216,0,0,0-4.6-1.3l1-2.9,2.1.5v.2a2.1,2.1,0,0,0,4.2,0,2.051,2.051,0,0,0-2.1-2.1,2.1,2.1,0,0,0-1.8,1l-3-.7-1.4,4a11.216,11.216,0,0,0-4.6,1.3l.1-.1a2.41,2.41,0,0,0-1.5-.4,2.712,2.712,0,0,0-2.7,2.8,2.813,2.813,0,0,0,1.3,2.4c.3,2.9,3.7,5.1,7.9,5.1s7.6-2.3,7.9-5.2a2.273,2.273,0,0,0,1.3-2.2Zm-3.6-7a1.2,1.2,0,1,1-1.2,1.2,1.29,1.29,0,0,1,1.2-1.2Zm-12.2,5.2a1.268,1.268,0,0,1,.6.1,4.889,4.889,0,0,0-1.9,3,1.845,1.845,0,0,1-.5-1.2,1.952,1.952,0,0,1,1.8-1.9Zm6.6,8.4c-3.9,0-7-2.1-7-4.6,0-2.6,3.1-4.6,7-4.6s7,2.1,7,4.6-3.1,4.6-7,4.6Zm7.8-5.4a4.955,4.955,0,0,0-1.9-2.9.9.9,0,0,1,.5-.1,1.793,1.793,0,0,1,1.8,1.8,1.746,1.746,0,0,1-.4,1.2Zm0,0" transform="translate(677.2 685)"/><path class="a" d="M222.8,13.1a1.2,1.2,0,1,1-1.2-1.2,1.216,1.216,0,0,1,1.2,1.2Zm0,0" transform="translate(677.2 685)"/><path class="a" d="M221.3,15.9a4.063,4.063,0,0,1-4.8,0,.5.5,0,1,0-.6.8,5.043,5.043,0,0,0,3,1,5.4,5.4,0,0,0,3-.9.377.377,0,0,0,.1-.6c-.2-.4-.4-.5-.7-.3Zm0,0" transform="translate(677.2 685)"/></g></svg>