<svg xmlns="http://www.w3.org/2000/svg" xmlns:xlink="http://www.w3.org/1999/xlink" viewBox="10097.687 884.039 480 300.156"><defs><style>.a{fill:#0c1e3e;}.b{fill:#1e75bb;}.c{opacity:0.09;}.d{fill:#fff;}.e{clip-path:url(#a);}.f{fill:#f7931a;}.g{fill:#2ed6a1;}.h{fill:#2c3b57;}.i{clip-path:url(#b);}.j{clip-path:url(#c);}.k{clip-path:url(#d);}.l{clip-path:url(#e);}.m{clip-path:url(#f);}</style><clipPath id="a"><path d="M286.8,85.74l2.11-12.04,17.75,1.738-2.11,12.04Z" transform="translate(-286.8 -73.7)"/></clipPath><clipPath id="b"><path d="M81.5,85.619,85.844,63.4l19.116,3.227-4.469,22.219Z" transform="translate(-81.5 -63.4)"/></clipPath><clipPath id="c"><path d="M85.8,81.226,88.531,67.2l9.185,1.49L94.985,82.84Z" transform="translate(-85.8 -67.2)"/></clipPath><clipPath id="d"><path d="M182.924,87.205,182.8,70.7l19.736-.5.124,16.509Z" transform="translate(-182.8 -70.2)"/></clipPath><clipPath id="e"><path d="M190.445,71l3.1,2.979,1.49.124a3.221,3.221,0,0,1,2.979,3.476,3.5,3.5,0,0,1-3.476,3.1l-4.841-.248,6.082,6.082,4.344.248-3.6-3.476a6.119,6.119,0,0,0-1.365-11.916L190.445,71" transform="translate(-189.7 -71)"/></clipPath><clipPath id="f"><path d="M183.524,70.6l3.6,3.476a6.119,6.119,0,0,0,1.365,11.916l4.841.248-3.1-2.979-1.49-.124a3.221,3.221,0,0,1-2.979-3.476,3.5,3.5,0,0,1,3.476-3.1l4.841.248-6.082-6.082-4.469-.124" transform="translate(-182.886 -70.6)"/></clipPath></defs><g transform="translate(9415 856)"><path class="a" d="M62.876,30.447l15.64,9.434L61.511,46.459l-4.22,17.874L45.747,50.183,27.5,51.672l9.93-15.392L30.355,19.4l17.626,4.717L61.883,12.2Z" transform="translate(689.322 30.983)"/><path class="a" d="M93.526,16.323l9.31,5.71L92.657,26.005,90.174,36.68l-6.951-8.565L72.3,29.108l5.958-9.185L74.038,9.744,84.589,12.6l8.317-7.2Z" transform="translate(700.13 29.342)"/><path class="a" d="M338.229,33.1,317.5,45.642l22.591,8.813,5.586,23.46,15.268-18.743,24.081,1.986L371.868,40.8,381.3,18.582l-23.46,6.082L339.595,8.9Z" transform="translate(759.29 30.186)"/><path class="a" d="M292.413,14.4,280,21.971l13.53,5.213,3.351,14.151,9.185-11.3,14.4,1.241-7.82-12.164L318.231,5.71,304.2,9.434,293.157,0Z" transform="translate(750.243 28.039)"/><g transform="translate(682.687 88.737)"><g transform="translate(265.632)"><path class="b" d="M302.875,48.9c-21.1,5.089-58.092,9.434-66.284,26.687s-14.9,59.209-15.516,75.593c-.745,16.261-4.469,37.983-7.075,42.452,0,0,57.967,19.736,75.221,29.666,0,0,28.673,3.724,53.747-2.358,0,0,22.219-66.78,16.633-95.826S331.3,64.54,302.875,48.9Z" transform="translate(-214 -48.9)"/><path class="c" d="M302.875,48.9c-21.1,5.089-58.092,9.434-66.284,26.687s-14.9,59.209-15.516,75.593c-.745,16.261-4.469,37.983-7.075,42.452,0,0,57.967,19.736,75.221,29.666C332.169,180.6,318.515,99.792,302.875,48.9Z" transform="translate(-214 -48.9)"/><path class="d" d="M348.633,110.7h0c-3.476-10.923-24.453-40.714-24.453-40.714,4.717,7.448,17.874,28.3,7.2,33.018h0a59.993,59.993,0,0,0-8.441,4.717V107.6c-4.717,2.855-10.178,6.33-10.178,6.33-.745-2.358-9.185-8.317-11.792-11.42l-.745-.621c-2.234-1.738-7.572-5.213-19.612-8.937-17.254-5.462-9.682-8.317-9.682-8.317C278,76.564,291.162,64.4,291.162,64.4c-22.343,2.731-38.728,12.04-38.976,23.584a56.6,56.6,0,0,0,4.22,21.6c-11.668-3.1-15.019-19.86-15.019-19.86-4.841,1.241-6.206,23.212-6.951,29.666s18.495,7.82,18.495,7.82c-.745,3.972-20.729,6.33-20.729,6.33-.372,18.743,10.551,20.978,10.551,20.978,4.344-1.241,22.219-14.647,28.177-19.86s9.682,3.848,10.054,9.434c.5,5.586-11.42,19.364-11.3,30.163s11.792,21.1,11.792,21.1l.745-7.2s8.565,13.9,8.565,12.289,4.717-8.068,4.717-8.068c.124,7.944,2.483,11.544,2.483,11.544,3.972-.5,12.661-12.164,12.661-12.164,0,2.358-3.1,12.04-3.1,12.04,3.6-1.986,12.289-14.15,11.42-11.668-.745,2.358-5.958,8.813-5.958,8.813,5.958,0,14.771-8.192,18.619-18.991s.621-20.357-.621-24.453c-1.241-3.972,3.972-7.2,6.33-8.813s9.682,9.061,9.682,9.061,5.834-19.612,5.71-28.673C353.1,124.353,351.24,116.782,348.633,110.7Z" transform="translate(-209.611 -45.16)"/><path d="M300.464,110.9s-18.123,24.95-19.364,26.936c0,0,26.811,3.724,30.039,6.082C311.139,144.042,308.532,122.071,300.464,110.9Z" transform="translate(-197.811 -33.941)"/><path d="M279.819,126.549s9.31-9.434,9.434-14.523c.248-5.089-7.572-9.31-15.64-12.164A75.069,75.069,0,0,1,261.2,94.4s.248,18.495,1.49,20.357C264.179,116.619,276.344,116.495,279.819,126.549Z" transform="translate(-202.612 -37.922)"/><path d="M310.95,130.729s-4.1-7.944-3.848-14.9,3.351-8.317,8.441-8.689,13.778-.745,13.778-.745,2.234,4.1,1.241,11.668-2.607,8.689-2.607,8.689S318.4,125.64,310.95,130.729Z" transform="translate(-191.54 -35.027)"/><path d="M276.536,146.1s-3.972,5.586.124,7.572c3.972,1.986,29.294,5.71,35.625,5.213,6.455-.5-.5-9.185-3.724-9.185C305.458,149.824,276.536,146.1,276.536,146.1Z" transform="translate(-199.329 -25.448)"/><path class="d" d="M326,101.7" transform="translate(-186.978 -36.161)"/><g transform="translate(90.365 30.784)"><g class="e"><g transform="translate(0.496 0.372)"><path class="d" d="M304.7,75.241,292.662,74,291.3,76.855l10.923,1.117-2.731,5.834-.745-.124-6.331-.621-3.848-.372L287.2,85.544l12.164,1.241a3.436,3.436,0,0,0,1.117-.124,11.538,11.538,0,0,1,1.241-.621,6.213,6.213,0,0,0,.993-.869l.745-1.117,2.607-5.586a2.4,2.4,0,0,0,.372-1.241,2.42,2.42,0,0,0-.124-.993,1.14,1.14,0,0,0-.5-.745,3.622,3.622,0,0,0-1.117-.248" transform="translate(-287.2 -74)"/><path class="d" d="M295.22,78.121l-6.455-.621L287.4,80.231l6.579.621,1.241-2.731" transform="translate(-287.152 -73.156)"/></g></g></g></g><g transform="translate(77.833 0.882)"><path class="f" d="M62.806,141.079c0-9.682,2.11-17.75,5.089-30.659s-4.593-28.053,38.976-57.6c0,0,20.233-10.551,69.015,6.579,23.708,8.317,27.308,38.479,29.17,52.754,1.986,14.4,7.324,38.231,7.7,47.665s-2.358,28.425-42.2,43.32c-39.969,15.019-67.153,22.591-82.3,12.785,0,0-23.832-47.913-24.825-58.588A145,145,0,0,1,62.806,141.079Z" transform="translate(-62.687 -49.61)"/><path class="c" d="M105.611,220.148a2.112,2.112,0,0,0,.869-.124l25.694-5.71c9.682-2.855,20.481-6.7,32.273-11.171,39.969-15.019,42.576-34.011,42.2-43.32-.372-9.434-5.71-33.266-7.7-47.665S193.493,67.72,169.785,59.4C121,42.274,100.77,52.825,100.77,52.825,88.978,84.974,76.069,111.04,105.611,220.148Z" transform="translate(-56.71 -49.61)"/><path class="d" d="M104.282,183.6s21.474-14.15,24.081-16.012c2.731-1.986,14.275-10.178,4.593-34.507l-9.682-1.49-4.469-6.7s41.583-2.979,41.583-38.728c0,0-34.88-12.785-59.705,7.82l-5.71-4.841-5.089,8.937S71.264,91,66.423,105.9c0,0-5.71,18.123-2.979,29.294,0,0,8.565,6.827,13.282-.5V145l-3.972,2.483s-.5,21.971,8.317,32.149A67.879,67.879,0,0,0,104.282,183.6Z" transform="translate(-62.704 -41.738)"/><path d="M137.54,93.348c-9.558,13.157-34.135,27.184-36.99,12.909C96.7,87.886,137.54,93.348,137.54,93.348Z" transform="translate(-53.635 -39.241)"/><path d="M80.371,101.9s3.476,18.743-7.448,20.481c0,0-6.951.124-7.075-4.965-.248-5.089-.248-6.206-.248-6.206A18.352,18.352,0,0,1,80.371,101.9Z" transform="translate(-62.005 -36.994)"/><path d="M89.83,104.9s-11.668,21.226-10.923,33.266c0,0,18.495-2.607,29.791-8.565C108.7,129.6,92.064,114.706,89.83,104.9Z" transform="translate(-58.803 -36.271)"/><path d="M82.8,144.222c-2.979,1.862-3.351,10.054,3.1,7.944s24.2-8.317,27.432-9.185,4.1-8.937-2.855-8.068C103.406,135.657,82.8,144.222,82.8,144.222Z" transform="translate(-58.353 -29.045)"/></g><g transform="translate(157.883 7.385)"><path class="g" d="M210.118,54.912c-20.605,1.117-59.457,12.289-77.083,40.714,0,0-5.834,27.308-5.834,49.279s-.5,73.607,6.951,88.627c0,0,48.658,16.261,67.4,19.984,0,0,47.292-12.661,73.359-9.434,0,0,17.626-58.588,16.633-89.868-1.117-31.28.993-35.376-4.22-53.251C281.988,83.089,238.419,53.3,210.118,54.912Z" transform="translate(-127.194 -54.849)"/><path class="c" d="M260.824,244.082s17.626-58.588,16.633-89.868c-1.117-31.28.993-35.376-4.22-53.251S224.579,53.3,196.153,54.912c-4.22,25.943-16.261,133.313-8.565,198.6C187.589,253.516,234.881,240.855,260.824,244.082Z" transform="translate(-113.229 -54.849)"/><path class="d" d="M138.5,90.02s-6.951,40.093,0,56.478c0,0,15.516-2.979,21.971-2.979l-9.061,16.633,9.061,6.455-10.178,13.9s11.792,21.971,17.626,26.191c0,0,13.406-8.068,29.418-7.448a63.9,63.9,0,0,1,27.8,7.448l25.694-22.467L237.43,169.213l13.406-9.682-10.178-13.158,23.584,1.862,8.565-26.191V95.357s-37.983-7.448-45.555-5.337l-26.191,16.633L180.828,89.647S159.354,83.069,138.5,90.02Z" transform="translate(-125.212 -47.133)"/><path d="M144,101.5l2.11,22.964,44.934-11.42Z" transform="translate(-123.14 -43.594)"/><path d="M246.775,103.7v8.813l-6.455,11.42L197,112.513Z" transform="translate(-110.352 -43.063)"/><path d="M192.364,111.8s-21.971,26.811-22.964,35.873h43.32S200.432,123.592,192.364,111.8Z" transform="translate(-117.011 -41.109)"/><path d="M165.1,159.839v7.448s31.032-5.213,52.506,0c0,0,3.227-10.178-3.724-12.289C206.807,152.888,176.892,148.668,165.1,159.839Z" transform="translate(-118.049 -31.304)"/></g><g transform="translate(0 106.129)"><path class="a" d="M328.8,205.96l-.5-17.005s36.493-2.358,72.49,6.579L367.9,222.221l30.535,26.936-63.926-3.1Z" transform="translate(79.21 -121.305)"/><path class="a" d="M72.49,176.727l-2.855,11.792S33.514,183.554,0,171.018l37.486-12.537L12.909,134.4l61.939,13.53Z" transform="translate(0 -134.4)"/><path class="h" d="M335.223,197.589,328.4,188.9l-.5,8.192Z" transform="translate(79.113 -121.251)"/><g transform="translate(61.691 15.64)"><path class="h" d="M408.179,255.611c-.745-6.579-1.49-13.282-2.234-19.86s-1.614-13.282-2.483-19.86c0,.124-.5-7.82-1.117-8.192-30.659-18-62.684-25.446-98.185-21.474-34.88,3.972-67.649,18-102.653,21.6-30.287,3.1-62.312-2.855-89.62-16.012C85.076,178.9,73.408,168.722,53.424,147a6.234,6.234,0,0,1-.248,2.607l-3.476,42.7c19.612,21.35,40.838,41.334,66.78,54.74,27.68,14.275,60.7,19.612,91.606,17.005,34.011-2.979,66.16-16.385,99.922-21.226,36.121-5.089,69.635,2.731,100.915,21.1C408.676,263.8,408.179,255.363,408.179,255.611Z" transform="translate(-49.7 -147)"/><path class="a" d="M52.8,147.109c.5.621,0-.248,0,0Z" transform="translate(-48.952 -146.985)"/></g><path class="h" d="M52.848,147.51l9.31-2.11-.745,11.3L52.6,150.117Z" transform="translate(12.691 -131.746)"/></g><g transform="translate(101.164 17.998)"><g class="i"><g transform="translate(1.783 1.492)"><path class="f" d="M95.056,64.724c-4.344-.745-8.937,1.986-11.047,6.827-2.483,5.71-.5,12.289,4.344,14.647a7.89,7.89,0,0,0,2.234.745c4.344.745,8.937-1.986,11.047-6.827,2.483-5.71.5-12.289-4.344-14.647a7.89,7.89,0,0,0-2.234-.745" transform="translate(-82.936 -64.602)"/></g></g></g><g transform="translate(106.501 22.715)"><g class="j"><g transform="translate(0.745 0.745)"><path class="d" d="M91.862,78.475A9.558,9.558,0,0,1,90,77.73l1.117-2.607c.621.372,2.855,1.117,2.234,2.607-.372.745-.869.745-1.49.745M93.1,74.5a5.933,5.933,0,0,1-1.49-.621l.993-2.358c.621.248,2.483.869,1.862,2.358A1.157,1.157,0,0,1,93.1,74.5m-.124-6.7-.869,1.986c-.248-.124-.372-.248-.621-.248l-1.365-.621-.5,1.241.745.372a.743.743,0,0,1,.372.745l-.993,2.234-1.365,2.979c-.124.124-.248.248-.372.248H87.89l-.745-.5L86.4,77.482l1.241.621.745.372-.869,1.986.993.5.869-1.986.745.372-.869,1.986.993.5.869-1.986a2.829,2.829,0,0,0,1.365.372,2.344,2.344,0,0,0,2.731-1.365c.745-1.49.5-2.358-.372-3.1a2.091,2.091,0,0,0,1.738-1.49c.5-1.49-.372-2.358-1.614-3.227l.869-1.986-.993-.5-.869,1.986a6.052,6.052,0,0,0-.869-.372l.869-1.862-.993-.5" transform="translate(-86.4 -67.8)"/></g></g></g><g transform="translate(226.905 26.439)"><g class="k"><g transform="translate(0.107 0.497)"><path class="d" d="M189.7,80.31l6.082,6.082,4.344.248-4.344-.248L189.7,80.31h0m.745-9.31,3.1,2.979,1.49.124a3.127,3.127,0,0,1,2.979,3.1,3.221,3.221,0,0,0-2.979-3.1l-1.49-.124L190.445,71" transform="translate(-181.242 -70.503)"/><g transform="translate(8.458 0.497)"><g class="l"><path class="d" d="M190.445,71l3.1,2.979,1.49.124a3.127,3.127,0,0,1,2.979,3.1v.372a3.455,3.455,0,0,1-3.227,3.1h-.248l-4.841-.248h0l6.082,6.082,4.344.248-3.6-3.476a6.119,6.119,0,0,0-1.365-11.916L190.445,71" transform="translate(-189.7 -71)"/></g></g><path class="d" d="M188.862,76.558a3.263,3.263,0,0,0-3.227,3.1v0a3.265,3.265,0,0,1,3.227-3.1h.248l4.841.248h0l-4.841-.248h-.248M183.4,70.6l3.6,3.476L183.4,70.6" transform="translate(-182.762 -70.6)"/><g class="m"><path class="d" d="M183.524,70.6l3.6,3.476a6.119,6.119,0,0,0,1.365,11.916l4.841.248-3.1-2.979-1.49-.124a3.127,3.127,0,0,1-2.979-3.1v-.372a3.455,3.455,0,0,1,3.227-3.1h.248l4.841.248h0l-6.082-6.082-4.469-.124" transform="translate(-182.886 -70.6)"/></g></g></g></g></g></g></svg>