<?xml version="1.0" encoding="utf-8"?>
<!-- Generator: Adobe Illustrator 16.0.0, SVG Export Plug-In . SVG Version: 6.00 Build 0)  -->
<!DOCTYPE svg PUBLIC "-//W3C//DTD SVG 1.1//EN" "http://www.w3.org/Graphics/SVG/1.1/DTD/svg11.dtd">
<svg version="1.1" id="Layer_1" xmlns="http://www.w3.org/2000/svg" xmlns:xlink="http://www.w3.org/1999/xlink" x="0px" y="0px"
	 width="30px" height="30px" viewBox="0 0 30 30" enable-background="new 0 0 30 30" xml:space="preserve">
<path id="XMLID_2113_" fill="#091440" d="M24.2,9.293c-0.677,0.301-1.404,0.503-2.168,0.595c0.778-0.468,1.378-1.207,1.659-2.089
	c-0.729,0.433-1.537,0.747-2.396,0.916c-0.688-0.733-1.669-1.191-2.755-1.191c-2.085,0-3.775,1.689-3.775,3.774
	c0,0.296,0.033,0.584,0.098,0.86c-3.137-0.157-5.918-1.66-7.78-3.944C6.757,8.772,6.571,9.42,6.571,10.113
	c0,1.31,0.666,2.465,1.679,3.141c-0.618-0.02-1.2-0.189-1.71-0.472c0,0.017,0,0.032,0,0.048c0,1.829,1.302,3.354,3.028,3.702
	c-0.317,0.086-0.65,0.133-0.995,0.133c-0.243,0-0.479-0.022-0.71-0.067c0.48,1.5,1.874,2.59,3.526,2.62
	c-1.292,1.015-2.92,1.617-4.688,1.617c-0.304,0-0.604-0.019-0.9-0.053c1.671,1.069,3.655,1.694,5.786,1.694
	c6.944,0,10.741-5.75,10.741-10.74c0-0.163-0.004-0.326-0.012-0.488C23.055,10.715,23.693,10.05,24.2,9.293z"/>
</svg>
