<?xml version="1.0" encoding="utf-8"?>
<svg version="1.1" id="Layer_1" xmlns="http://www.w3.org/2000/svg" xmlns:xlink="http://www.w3.org/1999/xlink" x="0px" y="0px"
	 viewBox="0 0 32 64" style="enable-background:new 0 0 32 64;" xml:space="preserve">
<style type="text/css">
	.st0{display:none;}
	.st1{display:inline;}
	.st2{fill:#D5EDFA;}
	.st3{fill:#FFFFFF;}
</style>
<g id="Layer_2_1_" class="st0">
</g>
<g id="specctr" class="st0">
	<g id="Dimensions" class="st1">
	</g>
	<g id="Spacing" class="st1">
	</g>
	<g id="Text_Properties" class="st1">
	</g>
	<g id="Object_Properties" class="st1">
	</g>
</g>
<rect id="Rectangle-path" x="4" y="36" class="st2" width="24" height="24"/>
<path id="Shape" class="st3" d="M9.7,44c0-0.2-0.1-0.4-0.2-0.5L8,41.7v-0.3h4.7l3.6,7.9l3.2-7.9h4.5v0.3l-1.3,1.2
	c-0.1,0.1-0.2,0.2-0.1,0.4v9.1c0,0.1,0,0.3,0.1,0.4l1.3,1.2v0.3h-6.3v-0.3l1.3-1.3c0.1-0.1,0.1-0.2,0.1-0.4V45l-3.6,9.2h-0.5
	L10.7,45v6.2c0,0.3,0.1,0.5,0.2,0.7l1.7,2.1v0.3H7.8v-0.3l1.7-2.1c0.2-0.2,0.3-0.5,0.2-0.7V44z"/>
<path class="st3" d="M4,4v24h24V4H4z M23.9,9.7l-1.3,1.2c-0.1,0.1-0.2,0.2-0.1,0.4v9.1c0,0.1,0,0.3,0.1,0.4l1.3,1.2v0.3h-6.3v-0.3
	l1.3-1.3c0.1-0.1,0.1-0.2,0.1-0.4V13l-3.6,9.2h-0.5L10.7,13v6.2c0,0.3,0.1,0.5,0.2,0.7l1.7,2.1v0.3H7.8v-0.3l1.7-2.1
	c0.2-0.2,0.3-0.5,0.2-0.7V12c0-0.2-0.1-0.4-0.2-0.5L8,9.7V9.4h4.7l3.6,7.9l3.2-7.9h4.5V9.7z"/>
</svg>
