<?xml version="1.0" encoding="utf-8"?>
<!-- Generator: Adobe Illustrator 16.0.0, SVG Export Plug-In . SVG Version: 6.00 Build 0)  -->
<!DOCTYPE svg PUBLIC "-//W3C//DTD SVG 1.1//EN" "http://www.w3.org/Graphics/SVG/1.1/DTD/svg11.dtd">
<svg version="1.1" id="Layer_1" xmlns="http://www.w3.org/2000/svg" xmlns:xlink="http://www.w3.org/1999/xlink" x="0px" y="0px"
	 width="30px" height="30px" viewBox="0 0 30 30" enable-background="new 0 0 30 30" xml:space="preserve">
<g>
	<path id="XMLID_2140_" fill="#091440" d="M14.166,20.118c-0.958-0.406-1.819-0.986-2.559-1.726c-0.738-0.737-1.319-1.6-1.724-2.559
		c-0.42-0.994-0.633-2.047-0.633-3.133c0-0.491,0.043-0.976,0.13-1.45c-2.133,1.173-3.58,3.443-3.58,6.05
		c0,1.916,0.782,3.648,2.043,4.9L5.8,24.2h6.9c2.554,0,4.782-1.388,5.977-3.449H17.3C16.214,20.75,15.159,20.538,14.166,20.118z"/>
	<path id="XMLID_2135_" fill="#091440" d="M17.3,19.6h6.9l-2.043-2c1.262-1.25,2.043-2.981,2.043-4.898c0-3.812-3.089-6.9-6.9-6.9
		c-3.811,0-6.899,3.089-6.899,6.9C10.4,16.512,13.489,19.6,17.3,19.6z M13.851,13.851c-0.636,0-1.15-0.515-1.15-1.149
		c0-0.636,0.515-1.15,1.15-1.15c0.635,0,1.149,0.515,1.149,1.15C15,13.336,14.485,13.851,13.851,13.851z M20.75,11.551
		c0.635,0,1.148,0.515,1.148,1.15c0,0.635-0.515,1.149-1.148,1.149s-1.148-0.515-1.148-1.149
		C19.602,12.065,20.115,11.551,20.75,11.551z M18.45,12.701c0,0.635-0.515,1.149-1.15,1.149c-0.635,0-1.149-0.515-1.149-1.149
		c0-0.636,0.516-1.15,1.149-1.15C17.936,11.551,18.45,12.065,18.45,12.701z"/>
</g>
</svg>
