<?xml version="1.0" encoding="utf-8"?>
<svg version="1.1" id="Layer_1" xmlns="http://www.w3.org/2000/svg" xmlns:xlink="http://www.w3.org/1999/xlink" x="0px" y="0px"
	 viewBox="0 0 30 30" style="enable-background:new 0 0 30 30;" xml:space="preserve">
<style type="text/css">
	.st0{fill:#091440;}
	.st1{fill:#FFFFFF;}
</style>
<rect id="Rectangle-path" x="5.8" y="5.8" class="st0" width="18.4" height="18.4"/>
<path id="Shape" class="st1" d="M10.2,12c0-0.2,0-0.3-0.2-0.4l-1.2-1.4V9.9h3.6l2.8,6.1l2.4-6.1h3.4v0.2l-1,0.9
	C20,11.2,20,11.3,20,11.4v7c0,0.1,0,0.2,0.1,0.3l1,0.9v0.2h-4.9v-0.2l1-1c0.1-0.1,0.1-0.1,0.1-0.3v-5.6l-2.8,7.1h-0.4l-3.2-7.1v4.7
	c0,0.2,0,0.4,0.2,0.5l1.3,1.6v0.2H8.7v-0.2L10,18c0.1-0.1,0.2-0.3,0.2-0.5V12z"/>
</svg>
