<svg xmlns="http://www.w3.org/2000/svg" viewBox="0 0 16 16"><defs><style>.a{fill:#c4cbd2;}.b{fill:#091440;}.c{fill:none;}</style></defs><g transform="translate(8.245 7.989)"><path class="a" d="M236.348,228.138h0c-.032-.014-.06-.025-.089-.036a0,0,0,0,1,0,0l-.085-.032a.012.012,0,0,1-.007,0c-.028-.011-.057-.021-.082-.028,0,0-.007,0-.011,0l-.082-.028-.014,0-.078-.025c-.007,0-.011,0-.018,0l-.078-.021a.051.051,0,0,1-.021-.007l-.014,0a1.773,1.773,0,0,0-.892-3.236c-.036,0-.068,0-.1,0a.966.966,0,0,0-.1,0,1.773,1.773,0,0,0-.9,3.236s-.007,0-.014,0-.014,0-.021.007l-.075.021c-.007,0-.014,0-.021.007-.025.007-.05.014-.078.025-.007,0-.011,0-.018.007l-.078.025-.014,0-.082.028s-.007,0-.011,0l-.082.032s0,0-.007,0c-.028.011-.057.025-.085.036a0,0,0,0,0,0,0c-.028.014-.057.025-.085.039h0a4.047,4.047,0,0,0-.615.352h0a4,4,0,0,0-.576.491,2.864,2.864,0,0,0,.27.5c.018.028.053.057.053.082h0a.322.322,0,0,1,.064.082c0,.007.011.011.018.018.021.025.043.053.064.078l.064.075c0,.007.011.011.018.018.021.025.046.05.068.075h0c.021.025.046.046.071.071l.018.018c.025.025.05.046.075.068h0l.075.064c.007,0,.011.011.018.014.025.021.05.043.078.064h0c.025.021.053.039.078.06a.078.078,0,0,1,.018.014c.028.021.053.039.082.057h0l.085.053a.074.074,0,0,1,.021.014l.085.053h0c.028.018.057.032.089.05l.021.011.089.046h0c.028.014.06.028.092.043l.021.011.092.039h0c.032.011.064.025.1.036a.051.051,0,0,0,.025.007l.1.032h0c.032.011.064.018.1.028.007,0,.018,0,.025.007l.1.025h0l.1.021c.007,0,.018,0,.025,0l.1.018h0c.036,0,.068.011.1.014.007,0,.018,0,.025,0,.036,0,.071,0,.1,0h0c.036,0,.071.011.107.014.007,0,.018,0,.028,0,.036,0,.071,0,.107,0h.107c.007,0,.018-.007.028-.007.036,0,.071-.014.107-.014h0a.966.966,0,0,0,.1,0h.025l.1-.011h0a1.043,1.043,0,0,0,.1-.018c.007,0,.018-.011.025-.011.032-.007.068.007.1-.028h0a.488.488,0,0,0,.1-.018c.007,0,.018,0,.025,0a.815.815,0,0,1,.1-.025h0l.1-.032a.227.227,0,0,1,.025-.007,1.731,1.731,0,0,0,.188-.075l.021-.011c.06-.028.121-.057.181-.089l.021-.011c.06-.032.117-.064.174-.1a.074.074,0,0,0,.021-.014c.057-.036.114-.075.167-.114a.078.078,0,0,0,.018-.014c.053-.039.107-.082.156-.124.007,0,.011-.011.018-.014.05-.043.1-.089.149-.135l.018-.018.071-.071h0c.021-.025.046-.05.068-.075,0-.007.011-.011.014-.018l.064-.075h0c.021-.025.043-.053.064-.078a.078.078,0,0,1,.014-.018c.021-.025.039-.053.057-.078v0c.018-.028.039-.053.057-.082,0-.007.011-.014.014-.021.018-.028.036-.053.053-.082a0,0,0,0,1,0,0c.018-.028.036-.057.05-.085a.074.074,0,0,1,.014-.021c.014-.028.032-.057.046-.085a0,0,0,0,1,0,0c.014-.028.028-.06.043-.089,0-.007.007-.018.011-.025.014-.028.025-.057.039-.085,0,0,0,0,0-.007h0A3.974,3.974,0,0,0,236.348,228.138Z" transform="translate(-231.9 -224.7)"/></g><g transform="translate(2.027 7.986)"><path class="a" d="M61.636,226.374a1.773,1.773,0,0,0-1.668-1.771c-.036,0-.068,0-.1,0a.965.965,0,0,0-.1,0,1.773,1.773,0,0,0-.9,3.236A3.978,3.978,0,0,0,57,228.924a3.112,3.112,0,0,0,5.732,0,4.008,4.008,0,0,0-1.867-1.084A1.784,1.784,0,0,0,61.636,226.374Z" transform="translate(-57 -224.6)"/></g><path class="b" d="M35.432,30.926a4,4,0,1,0-6.642,0,4,4,0,1,0,3.321,6.507,4,4,0,1,0,3.321-6.51ZM29,38.033a3.118,3.118,0,0,1-2.866-1.9A4.008,4.008,0,0,1,28,35.05a1.773,1.773,0,0,1,.9-3.236c.036,0,.068,0,.1,0a.965.965,0,0,1,.1,0A1.773,1.773,0,0,1,30,35.05a3.978,3.978,0,0,1,1.867,1.084A3.109,3.109,0,0,1,29,38.033Zm.245-8.124a4.008,4.008,0,0,1,1.867-1.084,1.773,1.773,0,0,1,.9-3.236c.036,0,.068,0,.1,0a.965.965,0,0,1,.1,0,1.773,1.773,0,0,1,.892,3.236,3.978,3.978,0,0,1,1.867,1.084,3.109,3.109,0,0,1-5.728,0Zm8.843,6.222s0,0,0,.007a.909.909,0,0,1-.039.085c0,.007-.007.018-.011.025-.014.028-.028.06-.043.089a0,0,0,0,1,0,0c-.014.028-.028.057-.046.085a.074.074,0,0,1-.014.021c-.018.028-.032.057-.05.085a0,0,0,0,1,0,0c-.018.028-.036.053-.053.082,0,.007-.011.014-.014.021a.669.669,0,0,1-.057.082v0l-.057.078a.078.078,0,0,1-.014.018c-.021.025-.043.053-.064.078h0l-.064.075c0,.007-.011.011-.014.018-.021.025-.046.05-.068.075h0c-.021.025-.046.046-.071.071l-.018.018a1.826,1.826,0,0,1-.149.135c-.007,0-.011.011-.018.014-.05.043-.1.085-.156.124a.077.077,0,0,0-.018.014c-.053.039-.11.078-.167.114a.074.074,0,0,0-.021.014c-.057.036-.114.068-.174.1l-.021.011c-.06.032-.121.06-.181.089l-.021.011a1.731,1.731,0,0,1-.188.075.051.051,0,0,1-.025.007l-.1.032h0c-.032.011-.064.018-.1.028-.007,0-.018,0-.025,0a.488.488,0,0,1-.1.018h0c-.032.036-.068.021-.1.028-.007,0-.018.007-.025.007a1.042,1.042,0,0,1-.1.018h0c-.036,0-.068.011-.1.014-.007,0-.018,0-.025,0-.036,0-.071,0-.1,0h0c-.036,0-.071.011-.107.014-.007,0-.018,0-.028,0-.036,0-.071,0-.107,0h-.107c-.007,0-.018-.007-.028-.007-.036,0-.071-.014-.107-.014h0a.965.965,0,0,1-.1,0h-.025l-.1-.011h0a1.042,1.042,0,0,1-.1-.018c-.007,0-.018,0-.025,0l-.1-.021h0l-.1-.025c-.007,0-.018,0-.025-.007-.032-.011-.064-.018-.1-.028h0l-.1-.032a.051.051,0,0,0-.025-.007c-.032-.011-.064-.021-.1-.036h0a.722.722,0,0,1-.092-.039l-.021-.011-.092-.043h0a.7.7,0,0,1-.089-.046l-.021-.011c-.028-.014-.06-.032-.089-.05h0l-.085-.053a.074.074,0,0,1-.021-.014l-.085-.053h0c-.028-.018-.053-.039-.082-.057a.077.077,0,0,1-.018-.014c-.028-.021-.053-.039-.078-.06h0l-.078-.064c-.007,0-.011-.011-.018-.014l-.075-.064h0c-.025-.021-.05-.046-.075-.068l-.018-.018-.071-.071h0c-.021-.025-.046-.05-.068-.075,0-.007-.011-.011-.014-.018l-.064-.075c-.021-.025-.043-.053-.064-.078,0-.007-.014-.011-.018-.018a.4.4,0,0,0-.064-.082h0c0-.028-.036-.057-.053-.082a2.994,2.994,0,0,1-.27-.5,4.029,4.029,0,0,1,.58-.491h0a3.882,3.882,0,0,1,.615-.352h0c.028-.014.057-.025.085-.039a0,0,0,0,0,0,0c.028-.011.057-.025.085-.036,0,0,0,0,.007,0l.082-.032s.007,0,.011,0l.082-.028.014,0A.664.664,0,0,1,34,35.118c.007,0,.011,0,.018-.007.025-.007.05-.014.078-.025.007,0,.014,0,.021-.007l.075-.021c.007,0,.014,0,.021-.007s.007,0,.014,0a1.773,1.773,0,0,1,.9-3.236c.036,0,.068,0,.1,0a.965.965,0,0,1,.1,0,1.773,1.773,0,0,1,.892,3.236l.014,0a.051.051,0,0,1,.021.007l.078.021c.007,0,.011,0,.018,0a.663.663,0,0,1,.078.025l.014,0a.745.745,0,0,1,.082.028s.007,0,.011,0c.028.011.057.021.082.028a.012.012,0,0,1,.007,0l.085.032a0,0,0,0,1,0,0c.028.011.057.025.089.036h0a4.034,4.034,0,0,1,1.276.885Z" transform="translate(-24.111 -23.822)"/><g transform="translate(5.138 1.764)"><path class="a" d="M150.228,53.924a4.008,4.008,0,0,0-1.867-1.084,1.773,1.773,0,0,0-.892-3.236c-.036,0-.068,0-.1,0a.965.965,0,0,0-.1,0,1.773,1.773,0,0,0-.9,3.236,3.978,3.978,0,0,0-1.867,1.084,3.109,3.109,0,0,0,5.728,0Z" transform="translate(-144.5 -49.6)"/></g><rect class="c" width="16" height="16"/></svg>