<?xml version="1.0" encoding="utf-8"?>
<!-- Generator: Adobe Illustrator 16.0.0, SVG Export Plug-In . SVG Version: 6.00 Build 0)  -->
<!DOCTYPE svg PUBLIC "-//W3C//DTD SVG 1.1//EN" "http://www.w3.org/Graphics/SVG/1.1/DTD/svg11.dtd">
<svg version="1.1" id="Layer_1" xmlns="http://www.w3.org/2000/svg" xmlns:xlink="http://www.w3.org/1999/xlink" x="0px" y="0px"
	 width="30px" height="30px" viewBox="755.5 529 30 30" enable-background="new 755.5 529 30 30" xml:space="preserve">
<path fill="#091440" d="M783.091,543.041v0.33h-0.018v-0.33H783.091z"/>
<path fill="#091440" d="M783.057,543.371h0.017c-0.52,0.034-1.213,0.034-1.732,0H783.057z"/>
<path fill="#091440" d="M783.057,543.041v0.33h-1.681v-0.33c0.225-0.017,0.52,0.035,0.693-0.017v-0.468
	c-0.069-0.035-0.347-0.069-0.364,0.017c-0.017,0.122-0.069,0.191-0.069,0.33c-0.139,0.017-0.191-0.053-0.329-0.053
	c0.069-0.312,0.156-0.641,0.173-1.022h0.347c0,0.104-0.035,0.174-0.017,0.295c-0.104,0.104,0.156,0.069,0.242,0.069
	c0.052-0.121,0-0.347,0.018-0.52h0.364c0.018,0.173-0.035,0.398,0.018,0.52h0.502v0.329c-0.173,0.018-0.398-0.034-0.52,0.018
	c0.018,0.156-0.035,0.381,0.018,0.502H783.057z"/>
<path fill="#091440" d="M782.987,544.428c0.035,0.069,0.035,0.312,0,0.364V544.428z"/>
<path fill="#091440" d="M782.97,543.579c0.104,0.155,0.052,0.571,0.018,0.763C782.97,544.099,783.022,543.804,782.97,543.579z"/>
<path fill="#091440" d="M782.987,544.428v0.364c-0.018,0.155-0.122,0.242-0.277,0.277h-0.971c-0.173-0.018-0.26-0.104-0.277-0.277
	v-1.213h1.49c0.052,0.208,0.017,0.52,0.017,0.763C782.987,544.376,782.987,544.41,782.987,544.428z M782.589,544.063
	c0.156-0.26-0.589-0.121-0.745-0.121v0.537c0,0.069-0.018,0.156,0.017,0.191c0,0.018,0.018,0.018,0.018,0.018v0.017h0.052
	c0.139,0.053,0.416,0.053,0.555,0h0.052v-0.034l0.017-0.018v-0.018C782.624,544.497,782.571,544.255,782.589,544.063
	L782.589,544.063z"/>
<path fill="#091440" d="M781.844,543.926c0.156,0,0.901-0.139,0.745,0.121c0.052-0.26-0.555-0.069-0.711-0.121H781.844z"/>
<path fill="#091440" d="M782.589,544.063c-0.018,0.191,0.035,0.451-0.018,0.59C782.589,544.463,782.537,544.202,782.589,544.063z
	 M782.537,544.705c0-0.018,0-0.018,0.018-0.018L782.537,544.705z"/>
<path fill="#091440" d="M782.537,544.705v0.034h-0.052C782.52,544.723,782.537,544.705,782.537,544.705z"/>
<path fill="#091440" d="M781.948,544.723h0.554C782.363,544.774,782.086,544.774,781.948,544.723z"/>
<path fill="#091440" d="M781.948,544.723h-0.052v-0.018C781.913,544.705,781.93,544.723,781.948,544.723z"/>
<path fill="#091440" d="M781.878,544.67c0.018,0,0.018,0.018,0.018,0.018C781.878,544.688,781.878,544.688,781.878,544.67z"/>
<path fill="#091440" d="M781.844,543.926h0.017c-0.017,0.173,0.035,0.416-0.017,0.537V543.926z"/>
<path fill="#091440" d="M781.479,543.579v1.213C781.428,544.463,781.428,543.926,781.479,543.579z"/>
<path fill="#091440" d="M781.376,543.041v0.33h-0.018v-0.33H781.376z"/>
<path fill="#091440" d="M781.254,542.504c-0.035,0.763,0.069,1.664-0.052,2.357c0.052-0.729,0.017-1.577,0.017-2.357
	c-0.156-0.017-0.381,0.035-0.502-0.017C780.908,542.487,781.116,542.436,781.254,542.504z"/>
<path fill="#091440" d="M779.487,541.76h1.733c-0.017,0.104,0.035,0.276-0.017,0.346c-0.139,0.035-0.538-0.069-0.468,0.069v0.295
	c0.121,0.052,0.346,0,0.502,0.018c-0.018,0.779,0.034,1.611-0.018,2.356c-0.035,0.121-0.122,0.19-0.243,0.226h-1.144
	c-0.087-0.018-0.191-0.018-0.243-0.069c-0.035-0.053-0.035-0.139-0.069-0.174v-1.802c0.018-0.174-0.035-0.398,0.018-0.521h0.502
	c0.052-0.086,0.018-0.276,0.018-0.398h-0.538C779.487,541.984,779.487,541.863,779.487,541.76L779.487,541.76z M780.873,543.752
	H780.7c-0.329-0.052-0.295-0.572-0.243-0.918h-0.121c-0.052,0.034-0.018,0.173-0.018,0.242c-0.035,0.295-0.104,0.537-0.226,0.745
	c-0.052-0.034-0.104-0.087-0.19-0.104c-0.086-0.087-0.035,0.173-0.052,0.242c0.294,0.052,0.693,0,1.022,0.018
	C780.908,543.978,780.873,543.839,780.873,543.752z M780.856,543.51c0.035-0.174,0.035-0.503,0-0.676
	c-0.052,0.017-0.156-0.035-0.121,0.052c0.017,0.173-0.035,0.433,0.017,0.571C780.769,543.51,780.804,543.526,780.856,543.51
	L780.856,543.51z M780.856,544.636c0.035-0.034,0.035-0.26,0-0.294c-0.329,0.017-0.728-0.035-1.022,0.017
	c0,0.121-0.017,0.277,0.018,0.364h0.069c0.225,0.034,0.641,0.034,0.866,0C780.873,544.757,780.856,544.67,780.856,544.636
	L780.856,544.636z M780.336,542.504h0.122c-0.018-0.086-0.035-0.19-0.018-0.329c0.086-0.069-0.052-0.086-0.121-0.069
	C780.319,542.228,780.284,542.418,780.336,542.504z M780.007,543.163c0.052-0.122,0.069-0.416-0.173-0.329
	c0.035,0.242-0.069,0.606,0.052,0.762c0.017,0,0.035-0.017,0.017-0.052C779.99,543.475,780.007,543.318,780.007,543.163z"/>
<path fill="#091440" d="M780.7,543.752h0.173c-0.017,0.069,0.035,0.208-0.017,0.242v-0.017
	C780.891,543.821,780.821,543.77,780.7,543.752z M780.856,542.851c0.035,0.174,0.035,0.503,0,0.676V542.851z M780.856,544.324
	c0.035,0.034,0.035,0.26,0,0.294v-0.277V544.324z"/>
<path fill="#091440" d="M780.856,544.324v0.018h-1.022C780.128,544.289,780.527,544.342,780.856,544.324z M780.856,543.978v0.017
	c-0.329-0.017-0.728,0.035-1.022-0.017H780.856z"/>
<path fill="#091440" d="M779.938,544.723h0.867C780.579,544.774,780.163,544.774,779.938,544.723z M780.735,542.886
	c0.052,0.139,0,0.381,0.017,0.571C780.7,543.318,780.752,543.076,780.735,542.886z M779.833,542.851
	c0.243-0.104,0.226,0.208,0.173,0.329c-0.017-0.121,0.069-0.363-0.121-0.294c-0.035,0.155-0.069,0.658,0.017,0.693
	c0,0.034,0,0.052-0.017,0.052C779.782,543.457,779.868,543.094,779.833,542.851z M779.885,543.734
	c-0.052,0.035-0.017,0.174-0.017,0.243h-0.018C779.851,543.908,779.799,543.648,779.885,543.734z"/>
<path fill="#091440" d="M779.487,543.041v1.785C779.452,544.289,779.452,543.579,779.487,543.041z"/>
<path fill="#091440" d="M779.227,544.15c-0.035,0.434-0.035,0.866-0.451,0.919h-0.451c-0.086-0.035-0.173-0.053-0.277-0.069
	c-0.035-0.121-0.139-0.174-0.122-0.347v-0.866c0-0.261,0.052-0.814-0.052-0.85c-0.069-0.018-0.087,0-0.069,0.104
	c-0.069,0.659-0.294,1.266-0.676,1.733c-0.156,0.208-0.312,0.398-0.502,0.156c-0.017-0.035-0.035-0.087-0.104-0.069
	c-0.052,0.034-0.018,0.173-0.018,0.242h-0.364v-1.663h-0.052c-0.069,0.104-0.139,0.19-0.191,0.294
	c-0.052-0.017-0.069-0.086-0.121-0.104c-0.035-0.087-0.139-0.121-0.173-0.19v-0.018c0.398-0.468,0.658-1.074,0.866-1.733
	l0.364,0.156c-0.069,0.295-0.173,0.555-0.277,0.814c-0.052,0.087,0,0.277-0.018,0.398v1.387c-0.052,0.069,0,0.26-0.018,0.363
	c0.139-0.017,0.191-0.121,0.243-0.225c0.347-0.398,0.624-0.884,0.641-1.611c-0.035-0.053-0.173-0.018-0.243-0.018h-0.468
	c0-0.052,0.052-0.104,0-0.156c0.052-0.018,0.018-0.139,0.018-0.19h0.71v-0.936h0.364c0.052,0.26,0.018,0.624,0.018,0.918v0.018
	c0.433,0.018,0.918-0.035,1.317,0.018v0.052c-0.052,0.034-0.018,0.19-0.018,0.277h-0.797c-0.035,0.502-0.035,1.178,0,1.681
	c0.017,0.173,0.26,0.121,0.398,0.104c0.104-0.155,0.069-0.45,0.122-0.675C779.002,544.063,779.088,544.133,779.227,544.15
	L779.227,544.15z"/>
<path fill="#091440" d="M778.326,542.973v1.663c-0.034-0.503-0.034-1.179,0-1.681V542.973L778.326,542.973z"/>
<path fill="#091440" d="M777.875,542.938c0.104,0.018,0.052,0.572,0.052,0.85v0.866c-0.069-0.503,0.017-1.179-0.052-1.681
	c-0.086-0.035-0.017,0.086-0.069,0.068C777.789,542.938,777.824,542.92,777.875,542.938z"/>
<path fill="#091440" d="M776.767,544.584c-0.069,0.104-0.104,0.208-0.243,0.225c0.018-0.121-0.035-0.294,0.018-0.363v0.329
	C776.611,544.774,776.68,544.602,776.767,544.584L776.767,544.584z M776.645,544.931c-0.104-0.122-0.104,0.052-0.104,0.173h-0.017
	c0.017-0.069-0.035-0.208,0.017-0.242C776.611,544.844,776.628,544.896,776.645,544.931z"/>
<path fill="#091440" d="M776.542,543.041h0.017c-0.017,0.226,0.035,0.521-0.017,0.711V543.041z"/>
<path fill="#091440" d="M776.143,543.44v1.663h-0.017c-0.018-0.537,0.034-1.161-0.018-1.663H776.143z"/>
<path fill="#091440" d="M775.605,543.44c0.035,0.086,0.139,0.121,0.173,0.19C775.727,543.579,775.553,543.51,775.605,543.44z"/>
<path fill="#091440" d="M774.982,542.105c0.035,0.537,0.035,1.248,0,1.785V542.105z"/>
<path fill="#091440" d="M774.011,542.071c-0.017-0.589,1.005-0.589,0.971,0.018v1.784c-0.052,0.85-0.589,1.23-1.404,1.317h-0.416
	c-0.849-0.087-1.369-0.485-1.404-1.369v-1.282v-0.174v-0.242c0-0.018,0.017-0.018,0.017-0.018c-0.069-0.589,0.971-0.641,0.936-0.052
	c0.017,0.606-0.035,1.265,0.017,1.837c-0.017,0.728,1.265,0.745,1.265,0.018C774.046,543.354,773.994,542.678,774.011,542.071
	L774.011,542.071z"/>
<path fill="#091440" d="M774.011,542.071c-0.017,0.606,0.035,1.265-0.017,1.837C774.011,543.302,773.959,542.643,774.011,542.071
	L774.011,542.071z"/>
<path fill="#091440" d="M772.712,542.054c0.052,0.555,0,1.23,0.017,1.837C772.677,543.318,772.729,542.66,772.712,542.054z"/>
<path fill="#091440" d="M771.741,542.539v1.282C771.689,543.457,771.689,542.92,771.741,542.539L771.741,542.539z"/>
<path fill="#091440" d="M771.689,544.428c0.191,0.364-0.035,0.884-0.572,0.763c-0.26-0.052-0.502-0.416-0.745-0.642
	c-0.26-0.242-0.537-0.45-0.745-0.641c-0.139-0.208-0.104,0.139-0.104,0.347v0.589c-0.035,0.208-0.139,0.329-0.347,0.363h-0.294
	c-0.208-0.017-0.312-0.173-0.347-0.363v-2.756c0-0.52,0.988-0.52,0.988,0v0.971c0.156-0.087,0.26-0.226,0.364-0.347
	c0.104-0.087,0.191-0.173,0.277-0.277c0.173-0.139,0.329-0.312,0.468-0.468c0.191-0.398,0.953-0.381,1.022,0.121
	c0.086,0.693-0.867,0.937-1.04,1.335C770.875,543.787,771.481,544.029,771.689,544.428L771.689,544.428z"/>
<path fill="#091440" d="M769.627,543.908c-0.173-0.156,0,0.745-0.104,0.936v-0.589C769.541,544.047,769.489,543.7,769.627,543.908
	L769.627,543.908z M768.536,542.105v2.756C768.501,543.943,768.501,543.023,768.536,542.105z M768.415,542.071
	c0.035,0.555,0.035,1.282,0,1.837V542.071z"/>
<path fill="#091440" d="M767.461,542.071c-0.069-0.624,1.022-0.572,0.97,0v1.837c-0.086,0.831-0.606,1.213-1.456,1.265h-0.329
	c-0.866-0.052-1.404-0.45-1.438-1.334c-0.018-0.087,0.034-0.243-0.018-0.295h-0.018c-0.121,1.022-0.641,1.611-1.611,1.681
	c-1.473,0.121-2.356-1.403-1.663-2.772c0.26-0.502,0.797-0.866,1.438-0.884c1.074-0.052,1.698,0.711,1.854,1.785
	c0.052-0.347,0-0.814,0.018-1.213c-0.069-0.658,1.04-0.658,0.97,0c0.018,0.606-0.035,1.282,0.018,1.854
	c0.069,0.607,1.248,0.59,1.23-0.068C767.479,543.354,767.444,542.678,767.461,542.071L767.461,542.071z M764.152,543.562
	c0.035-0.052,0.035-0.277,0-0.329c-0.017-0.729-0.797-1.04-1.265-0.624c-0.554,0.52-0.294,1.819,0.538,1.784
	C763.875,544.376,764.1,544.029,764.152,543.562z"/>
<path fill="#091440" d="M767.461,542.071c-0.017,0.606,0.035,1.265-0.017,1.837C767.444,543.302,767.392,542.643,767.461,542.071
	L767.461,542.071z"/>
<path fill="#091440" d="M766.162,542.123c0.052,0.572,0,1.248,0.017,1.854C766.127,543.405,766.179,542.729,766.162,542.123z"/>
<path fill="#091440" d="M765.191,542.123c-0.017,0.398,0.035,0.866-0.017,1.213C765.191,542.938,765.14,542.487,765.191,542.123
	L765.191,542.123z M765.174,543.544c0.052,0.052,0,0.208,0.017,0.295C765.14,543.787,765.191,543.631,765.174,543.544z"/>
<path fill="#091440" d="M764.152,543.232c0.035,0.052,0.035,0.277,0,0.329V543.232z"/>
<path fill="#091440" d="M761.951,541.76c0.086,0.415-0.312,0.952-0.468,1.316c-0.399,0.884-0.71,1.611-1.092,2.461
	c-0.191,0.415-0.329,0.866-0.676,1.092c-1.404,0.086-0.364-1.456-0.156-2.011c-0.312-0.606-0.745-1.3-1.109-1.958
	c-0.173-0.295-0.606-0.866-0.173-1.195c0.173-0.121,0.52-0.139,0.675,0c0.503,0.381,0.78,1.421,1.196,1.889
	c0.156-0.26,0.294-0.606,0.451-0.971c0.139-0.312,0.26-0.762,0.468-0.918C761.379,541.239,761.882,541.43,761.951,541.76z"/>
</svg>
