<svg xmlns="http://www.w3.org/2000/svg" viewBox="0 0 16 16"><defs><style>.a{fill:#c4cbd2;}.b{fill:#596d81;}.c{fill:none;}</style></defs><g transform="translate(2.411 2.663)"><path class="a" d="M75.281,80.486a3.111,3.111,0,1,0-3.769,0A7.13,7.13,0,0,0,67.8,82.957a6.246,6.246,0,0,0,5.6,3.5,6.172,6.172,0,0,0,4.4-1.824,6.26,6.26,0,0,0,1.2-1.675A7.13,7.13,0,0,0,75.281,80.486Z" transform="translate(-67.8 -74.9)"/></g><path class="b" d="M32.311,24.9a7.111,7.111,0,1,0,7.111,7.111A7.109,7.109,0,0,0,32.311,24.9Zm4.4,11.509a6.23,6.23,0,0,1-9.995-1.675,7.109,7.109,0,0,1,3.712-2.471,3.111,3.111,0,1,1,3.769,0,7.13,7.13,0,0,1,3.712,2.471A6.4,6.4,0,0,1,36.713,36.409Z" transform="translate(-24.304 -24.015)"/><rect class="c" width="16" height="16"/></svg>