<?xml version="1.0" encoding="utf-8"?>
<!-- Generator: Adobe Illustrator 16.0.0, SVG Export Plug-In . SVG Version: 6.00 Build 0)  -->
<!DOCTYPE svg PUBLIC "-//W3C//DTD SVG 1.1//EN" "http://www.w3.org/Graphics/SVG/1.1/DTD/svg11.dtd">
<svg version="1.1" id="Layer_1" xmlns="http://www.w3.org/2000/svg" xmlns:xlink="http://www.w3.org/1999/xlink" x="0px" y="0px"
	 width="30px" height="30px" viewBox="1235 1235 30 30" enable-background="new 1235 1235 30 30" xml:space="preserve">
<g>
	<path fill="#091440" d="M1254.869,1245.721c-2.32,0.141-4.338,0.957-5.977,2.8c-1.655,1.862-2.411,4.145-2.205,6.974
		c-0.907-0.13-1.733-0.273-2.564-0.354c-0.287-0.028-0.627,0.012-0.871,0.17c-0.807,0.528-1.58,1.125-2.497,1.789
		c0.168-0.882,0.277-1.654,0.47-2.398c0.142-0.546,0.076-0.85-0.358-1.205c-2.786-2.281-3.96-5.695-3.082-9.21
		c0.813-3.251,2.81-5.223,5.522-6.25c3.703-1.403,7.865,0.028,10.117,3.438C1254.238,1242.704,1254.738,1244.086,1254.869,1245.721
		L1254.869,1245.721z M1244.188,1244.626c0.021-0.643-0.459-1.222-1.029-1.241c-0.584-0.02-1.064,0.498-1.082,1.165
		c-0.017,0.677,0.429,1.219,1.017,1.236C1243.678,1245.803,1244.167,1245.285,1244.188,1244.626L1244.188,1244.626z
		 M1249.761,1243.384c-0.573,0.012-1.057,0.578-1.046,1.223c0.01,0.669,0.485,1.192,1.074,1.184c0.59-0.008,1.038-0.537,1.032-1.22
		C1250.816,1243.901,1250.344,1243.372,1249.761,1243.384z"/>
	<path fill="#091440" d="M1260.084,1262.5c-0.736-0.38-1.41-0.949-2.127-1.036c-0.715-0.086-1.467,0.393-2.215,0.48
		c-2.279,0.271-4.32-0.466-6.002-2.271c-3.201-3.434-2.744-8.698,0.959-11.513c3.291-2.5,8.119-1.667,10.439,1.803
		c2.025,3.028,1.787,7.048-0.686,9.591c-0.715,0.736-0.973,1.343-0.514,2.312C1260.023,1262.047,1260.033,1262.273,1260.084,1262.5
		L1260.084,1262.5z M1251.719,1253.107c0.467,0.001,0.854-0.424,0.871-0.96c0.018-0.567-0.375-1.043-0.865-1.045
		c-0.484-0.003-0.891,0.479-0.875,1.038C1250.865,1252.675,1251.254,1253.106,1251.719,1253.107L1251.719,1253.107z
		 M1257.111,1251.104c-0.455-0.004-0.84,0.427-0.859,0.959c-0.02,0.568,0.361,1.035,0.848,1.037c0.469,0.002,0.84-0.41,0.857-0.951
		C1257.975,1251.579,1257.594,1251.108,1257.111,1251.104z"/>
</g>
</svg>
