<svg xmlns="http://www.w3.org/2000/svg" viewBox="13743 1329 20 20"><defs><style>.a,.c{fill:#8997a5;}.b{fill:#091440;}.c{stroke:#fff;stroke-miterlimit:10;stroke-width:20px;}.d{fill:none;}</style></defs><g transform="translate(12774 856)"><g transform="translate(969 473)"><g transform="translate(1.87 0.625)"><path class="a" d="M46.16,15.025v-.65h1.225v0a1.87,1.87,0,0,0-1.87-1.87h0a1.87,1.87,0,0,0-1.87,1.87v0h1.26v.65a8.122,8.122,0,1,0,1.255,0Z" transform="translate(-37.4 -12.5)"/><g transform="translate(1.255 3.75)"><path class="a" d="M162.19,87.5a6.893,6.893,0,0,0-1.99.295l1.99,6.58Z" transform="translate(-155.315 -87.5)"/><path class="b" d="M69.375,87.5v6.875l-1.99-6.58a6.873,6.873,0,1,0,1.99-.295Z" transform="translate(-62.5 -87.5)"/></g><circle class="a" cx="1.25" cy="1.25" r="1.25" transform="translate(6.88 9.375)"/></g><g transform="translate(10 10)"><path class="c" d="M200,200" transform="translate(-200 -200)"/></g><rect class="d" width="20" height="20"/></g></g></svg>