<svg xmlns="http://www.w3.org/2000/svg" xmlns:xlink="http://www.w3.org/1999/xlink" viewBox="0 0 1257.91 237.72"><defs><style>.cls-1{fill:#fff;}.cls-2{fill:url(#linear-gradient);}.cls-3{fill:url(#linear-gradient-2);}</style><linearGradient id="linear-gradient" x1="135.57" y1="154.18" x2="279.38" y2="71.16" gradientUnits="userSpaceOnUse"><stop offset="0" stop-color="#36bdba"/><stop offset="0.93" stop-color="#39d8aa"/></linearGradient><linearGradient id="linear-gradient-2" x1="8.23" y1="188.17" x2="126.22" y2="70.18" gradientUnits="userSpaceOnUse"><stop offset="0.2" stop-color="#2576f4"/><stop offset="1" stop-color="#3298da"/></linearGradient></defs><title>Asset 92</title><g id="Layer_2" data-name="Layer 2"><g id="Layer_1-2" data-name="Layer 1"><path class="cls-1" d="M762.34,205.55c-20.61,0-36.14-17.29-36.14-40.22v-.41c0-22.7,15.53-39.82,36.14-39.82,12.46,0,22.27,5,31.58,16l26.76-20.71c-14-18.47-32.94-27.46-57.94-27.46-41.85,0-73.41,31.13-73.41,72.4v.4c0,19.93,7.44,38.26,21,51.6,13.33,13.15,31.38,20.39,50.82,20.39,26.23,0,45-9.22,60.54-29.84l-26.67-19C786.39,198.94,777.34,205.55,762.34,205.55Z"/><path class="cls-1" d="M936,184.77c13-5.52,28.43-17.35,28.43-42.42v-.41c0-13.64-4-24.15-12.16-32.12-9.81-10-25.12-15.08-45.53-15.08H840.61v140.1h35.93V191.2h20.58l29,43.64h41.24l-33.61-49.11Zm-7.71-40c0,11.77-9,19.08-23.41,19.08H876.54V125.33h28.15c15,0,23.61,7,23.61,19.08Z"/><polygon class="cls-1" points="1022.7 178.05 1091.87 178.05 1091.87 150.55 1022.7 150.55 1022.7 124.73 1099.08 124.73 1099.08 94.77 987.18 94.77 987.18 234.86 1100.11 234.86 1100.11 204.9 1022.7 204.9 1022.7 178.05"/><path class="cls-1" d="M1237.21,114.27c-14.06-12.76-34.33-19.5-58.61-19.5H1125V234.86h52.76c24.4,0,44.86-7,59.17-20.11,13.71-12.61,21-30,21-50.35V164C1257.91,143.75,1250.75,126.56,1237.21,114.27ZM1220.94,165c0,23.71-16,38.44-41.72,38.44H1161V126.17h18.27c25.74,0,41.72,14.73,41.72,38.44Z"/><path class="cls-1" d="M602.28,93.08c-38.43,0-67.41,31.12-67.41,72.38,0,41.78,29.86,72.1,71,72.1,22.33,0,40.11-7.59,54.28-23.19L646,201.78c-12.35,11.23-24.27,16-39.54,16-24.15,0-41.66-15.39-45.69-40.16l-.72-4.4h108c.14-1.74.25-3.51.25-5.32,0-20.76-5.92-39.5-16.68-52.77C639.92,100.72,622.85,93.08,602.28,93.08Zm-42.42,65.68.58-4.29c3.39-25.3,19.71-41.65,41.57-41.65,22.49,0,38.11,16,40.75,41.77l.43,4.17Z"/><path class="cls-1" d="M432.42,92.79c-31.84,0-64.07,24.86-64.07,72.39,0,36,22,72.38,64.07,72.38,19.14,0,34.44-8.45,46.76-25.83l6.9-9.72v32.83H512V23.91H486.08V125.85l-6.8-8.76C466.6,100.74,451.27,92.79,432.42,92.79Zm54.22,72.39c0,29-19.86,50.89-46.19,50.89-26.6,0-45.91-21.4-45.91-50.89,0-30,18.88-50.9,45.91-50.9C466.78,114.28,486.64,136.16,486.64,165.18Z"/><path class="cls-2" d="M221,178l57,57H222l-94-94h58.16a47,47,0,0,0,0-94H167.2l-47-47H184a94,94,0,0,1,94,94C278,132.12,261.2,162,221,178Z"/><path class="cls-3" d="M57,57,0,0H56.05l94,94H91.89a47,47,0,1,0,0,94H110.8l47,47H94A94,94,0,0,1,0,141C0,102.88,16.8,73,57,57Z"/></g></g></svg>