<?xml version="1.0" encoding="utf-8"?>
<!-- Generator: Adobe Illustrator 22.1.0, SVG Export Plug-In . SVG Version: 6.00 Build 0)  -->
<svg version="1.1" id="Layer_1" xmlns="http://www.w3.org/2000/svg" xmlns:xlink="http://www.w3.org/1999/xlink" x="0px" y="0px"
	 viewBox="0 0 913 168.4" style="enable-background:new 0 0 913 168.4;" xml:space="preserve">
<style type="text/css">
	.st0{fill:url(#SVGID_1_);}
	.st1{fill:url(#SVGID_2_);}
	.st2{fill:#091440;}
</style>
<g>
	<g>
		<g>
			<linearGradient id="SVGID_1_" gradientUnits="userSpaceOnUse" x1="41.3584" y1="131.9718" x2="123.2744" y2="50.0557">
				<stop  offset="0.2" style="stop-color:#2576F4"/>
				<stop  offset="1" style="stop-color:#3298DA"/>
			</linearGradient>
			<path class="st0" d="M74.2,43.7L34.7,4.2h42.7l63.3,63.3H98c-8.5,0-16.4,3.3-22.4,9.3c-6,6-9.3,13.9-9.3,22.4s3.3,16.4,9.3,22.4
				c6,6,13.9,9.3,22.4,9.3h15.8l31.6,31.6H98c-34.9,0-63.3-28.3-63.3-63.3C34.7,73.4,47.3,52.7,74.2,43.7z"/>
			<g>
				<g>
					<g>
						<linearGradient id="SVGID_2_" gradientUnits="userSpaceOnUse" x1="124.3337" y1="109.1487" x2="224.8723" y2="51.1027">
							<stop  offset="0" style="stop-color:#36BDBA"/>
							<stop  offset="0.93" style="stop-color:#39D8AA"/>
						</linearGradient>
						<path class="st1" d="M185,122.8l39.5,39.5h-42.7l-63.3-63.3h42.7c8.5,0,16.4-3.3,22.4-9.3c6-6,9.3-13.9,9.3-22.4
							s-3.3-16.4-9.3-22.4c-6-6-13.9-9.3-22.4-9.3h-15.8L113.8,4.2h47.5c34.9,0,63.3,28.3,63.3,63.3
							C224.5,93.1,211.9,113.8,185,122.8z"/>
					</g>
				</g>
			</g>
		</g>
		<g>
			<g>
				<g>
					<path id="XMLID_162_" class="st2" d="M493.2,114.4v-0.3c0-28.1,21.6-50,50.7-50c19.7,0,32.3,8.2,40.8,20.1l-20.1,15.5
						c-5.5-6.9-11.8-11.3-21-11.3c-13.5,0-23,11.4-23,25.4v0.3c0,14.4,9.5,25.7,23,25.7c10,0,15.9-4.7,21.7-11.7l20.1,14.3
						c-9.1,12.5-21.3,21.7-42.6,21.7C515.3,164.2,493.2,143.1,493.2,114.4z"/>
					<path id="XMLID_159_" class="st2" d="M594.9,65.3h45.8c14.8,0,25.1,3.9,31.6,10.5c5.7,5.5,8.6,13,8.6,22.6v0.3
						c0,14.8-7.9,24.6-19.9,29.8l23.1,33.8h-31l-19.5-29.4h-11.8v29.4h-26.9V65.3z M639.5,111.8c9.1,0,14.4-4.4,14.4-11.5v-0.3
						c0-7.6-5.5-11.5-14.5-11.5h-17.6v23.3H639.5z"/>
					<path id="XMLID_157_" class="st2" d="M693.5,65.3h78v22.8h-51.4v14.7h46.5V124h-46.5v15.4h52.1v22.9h-78.7V65.3z"/>
					<path id="XMLID_154_" class="st2" d="M786.2,65.3h37.4c34.6,0,54.7,19.9,54.7,47.9v0.3c0,28-20.4,48.7-55.2,48.7h-36.8V65.3z
						 M824,138.4c16.1,0,26.7-8.9,26.7-24.5v-0.3c0-15.5-10.7-24.5-26.7-24.5h-10.9v49.3H824z"/>
					<path id="XMLID_151_" class="st2" d="M438.4,164.1c-28.5,0-49.1-21-49.1-49.8c0-28.5,20.1-50,46.7-50
						c14.3,0,26.1,5.3,34.2,15.4c7.4,9.2,11.5,22.1,11.5,36.3c0,1.6-0.1,3.2-0.3,4.9h-72.3l0.2,1.4c2.6,16,13.9,25.9,29.4,25.9
						c10.2,0,18.2-3.4,26.6-11.3l11.5,10.2C466.8,158.5,454.3,164.1,438.4,164.1z M435.8,80.2c-14,0-24.4,10.5-26.6,26.8l-0.2,1.4
						h53l-0.1-1.3C460.1,90.5,450.1,80.2,435.8,80.2z"/>
					<path id="XMLID_148_" class="st2" d="M321.7,164.1c-22.1,0-44.4-17.2-44.4-50c0-32.8,22.4-50,44.4-50
						c13.1,0,23.8,5.5,32.6,16.9l2.2,2.8V21h20.1v141.3h-20.1V143l-2.2,3.1C345.7,158.2,335,164.1,321.7,164.1z M327.1,81.1
						c-17.4,0-29.5,13.5-29.5,32.9c0,19.1,12.4,32.9,29.5,32.9c16.9,0,29.7-14.1,29.7-32.9C356.8,95.3,344,81.1,327.1,81.1z"/>
				</g>
			</g>
		</g>
	</g>
</g>
</svg>
