<svg xmlns="http://www.w3.org/2000/svg" viewBox="10200 -5261 16 16"><defs><style>.a{fill:#091440;}.b{fill:#8795a2;}.c{fill:none;}.d{fill:#c4cbd2;}</style></defs><g transform="translate(10153 -7083)"><g transform="translate(47 1822)"><g transform="translate(0)"><path class="a" d="M1128.759,162.635h0l1.227.306a8.62,8.62,0,0,1-.139-1.227c-.011-.206-.014-.423-.014-.644,0-.256.007-.5.021-.74.018-.309.046-.59.082-.832q.021-.16.053-.3l-1.227.306c-.149,0-.27.7-.27,1.564S1128.617,162.635,1128.759,162.635Z" transform="translate(-1127.621 -153.54)"/><g transform="translate(12.338 12.398)"><path class="b" d="M1451.029,348.711h0a.088.088,0,0,0,.028,0L1451,348.7Z" transform="translate(-1451 -348.7)"/></g><g transform="translate(3.531 10.197)"><path class="b" d="M1203.307,286.8h0Z" transform="translate(-1203.3 -286.8)"/></g><path class="b" d="M1202.5,136.869l.032-.007A.038.038,0,0,0,1202.5,136.869Z" transform="translate(-1198.998 -131.995)"/><g transform="translate(12.334 2.65)"><path class="b" d="M1450.946,74.528h-.011s-.007,0-.007,0-.007,0-.011,0a0,0,0,0,0,0,0s-.007,0-.014.007l.068-.018A.023.023,0,0,0,1450.946,74.528Z" transform="translate(-1450.9 -74.525)"/></g><rect class="c" width="16" height="16"/></g><g transform="translate(2.215 2.194)"><path class="a" d="M1178.271,61.707a3.287,3.287,0,0,0-.021.007s-.007,0-.014,0a0,0,0,0,0,0,0s-.011,0-.014.007h0l-.5.124-1.23.309-.068.018-8.793,2.2h0l-.032.007h0l-.864.217h0a.067.067,0,0,0-.028.007c-.093.039-.174.245-.238.562q-.027.133-.053.3c-.036.242-.064.526-.082.832-.014.235-.021.48-.021.74,0,.224,0,.441.014.644a8.188,8.188,0,0,0,.139,1.227h0c.075.356.167.569.274.569h0l.868.217a.083.083,0,0,0,.028.007h.007l.871.217V71.9l6.222,1.436v-1.86l.011,0,1.7.423.057.014,1.742.434h0l.032.011h0a.1.1,0,0,0,.032,0h0V61.7A.16.16,0,0,0,1178.271,61.707Zm-4.444,10.514-4.444-1.028V70.141l.011,0,4.434,1.109Z" transform="translate(-1166.3 -61.7)"/></g><path class="d" d="M1478.5,67.037c0,2.8.359,5.1.818,5.316h0l.032.011h0a.1.1,0,0,0,.032,0h0c.491,0,.889-2.389.889-5.333s-.4-5.333-.889-5.333h-.021a20364947926.411,20364947926.411,0,0,1-.021.007s-.007,0-.014,0a0,0,0,0,0,0,0s-.011,0-.014.007h0C1478.859,61.949,1478.5,64.242,1478.5,67.037Z" transform="translate(-1465.184 -59.506)"/><g transform="translate(2.212 4.871)"><path class="d" d="M1166.221,138.92c-.014.235-.021.48-.021.74,0,.224,0,.441.014.644a8.172,8.172,0,0,0,.139,1.227h0c.075.356.167.569.274.569h0l.868.217c-.242-.1-.43-1.252-.43-2.66s.188-2.549.427-2.656l-.864.217h0a.068.068,0,0,0-.029.007c-.092.039-.174.245-.238.562q-.027.133-.053.3C1166.264,138.33,1166.239,138.611,1166.221,138.92Z" transform="translate(-1166.2 -137)"/></g></g></g></svg>