<svg xmlns="http://www.w3.org/2000/svg" viewBox="-2247.4 4358.1 92.1 44"><defs><style>.a{fill:#8997a5;}.b{fill:#c4cbd2;}</style></defs><g transform="translate(0 55)"><g transform="translate(-2546.1 4062)"><path class="a" d="M355.7,258.2h-4.5a4.481,4.481,0,0,0,4.5,4.5h6.4a.6.6,0,1,1,0,1.2H341.8a2.22,2.22,0,0,0-2.2,2.2,2.187,2.187,0,0,0,2,2.2h12.1a.6.6,0,0,1,0,1.2H339.9a2.2,2.2,0,0,0,0,4.4h13.8a.6.6,0,0,1,0,1.2H341.3a2.2,2.2,0,1,0,0,4.4h12.4a.6.6,0,0,1,0,1.2h-8.6a2.2,2.2,0,0,0,0,4.4h45.7V263.8H372a5.591,5.591,0,0,0-5.6-5.6Z"/><path class="a" d="M333.8,268h4.5a4.481,4.481,0,0,0-4.5-4.5h-6.4a.6.6,0,0,1,0-1.2h20.3a2.22,2.22,0,0,0,2.2-2.2,2.187,2.187,0,0,0-2-2.2H335.8a.6.6,0,1,1,0-1.2h13.8a2.2,2.2,0,1,0,0-4.4H335.8a.6.6,0,0,1,0-1.2h12.4a2.2,2.2,0,1,0,0-4.4H335.8a.6.6,0,0,1,0-1.2h8.6a2.2,2.2,0,1,0,0-4.4H298.7v21.3h18.8a5.591,5.591,0,0,0,5.6,5.6Z"/><path class="b" d="M362,268.2v1.6h-1.8V272H362v2.9a3.75,3.75,0,0,0-2.7,3.6,3.8,3.8,0,0,0,7.6,0,3.75,3.75,0,0,0-2.7-3.6v-7.7a1.11,1.11,0,0,0-1.1-1.1h-3.8v2.2Zm1.1,8.7a1.6,1.6,0,1,1-1.6,1.6A1.58,1.58,0,0,1,363.1,276.9Z"/><path class="b" d="M327.5,258v-1.6h1.8v-2.2h-1.8v-2.9a3.75,3.75,0,0,0,2.7-3.6,3.8,3.8,0,1,0-7.6,0,3.75,3.75,0,0,0,2.7,3.6V259a1.11,1.11,0,0,0,1.1,1.1h3.8v-2.2Zm-1.1-8.7a1.6,1.6,0,1,1,1.6-1.6A1.58,1.58,0,0,1,326.4,249.3Z"/></g></g></svg>