<svg xmlns="http://www.w3.org/2000/svg" viewBox="-2543.8 4187.6 87.4 50"><defs><style>.a{fill:#69d5f7;}.b{fill:#091440;}</style></defs><g transform="translate(-2546.1 4062)"><rect class="a" width="37.6" height="25" transform="translate(27.1 144.3)"/><rect class="b" width="37.6" height="25" transform="translate(27.1 150.6)"/><path class="a" d="M46,155a15.736,15.736,0,0,0-13.9,8.1A16.183,16.183,0,0,0,46,171.2a15.854,15.854,0,0,0,13.9-8.1A16.183,16.183,0,0,0,46,155Z"/><circle class="b" cx="6.2" cy="6.2" r="6.2" transform="translate(39.8 156.9)"/><path class="a" d="M51,158l-5,5.1h7.1Z"/><ellipse class="b" cx="3.1" cy="1.6" rx="3.1" ry="1.6" transform="translate(30.4 145.8)"/><ellipse class="b" cx="3.1" cy="1.6" rx="3.1" ry="1.6" transform="translate(55.4 145.8)"/><path class="b" d="M30.4,141.2v6.3h6.2v-6.3a9.389,9.389,0,0,1,9.4-9.4h0a9.389,9.389,0,0,1,9.4,9.4v6.3h6.2v-6.3A15.62,15.62,0,0,0,46,125.6h0A15.62,15.62,0,0,0,30.4,141.2Z"/><rect class="b" width="15.6" height="3.1" transform="translate(74.1 148.8)"/><rect class="b" width="15.6" height="3.1" transform="translate(2.3 148.8)"/><rect class="b" width="11.8" height="3.1" transform="translate(8.54 164.171) rotate(-22.5)"/><rect class="b" width="15.6" height="3.1" transform="translate(74.1 148.8)"/><rect class="b" width="15.6" height="3.1" transform="translate(2.3 148.8)"/><rect class="b" width="11.9" height="3.1" transform="translate(19.461 141.03) rotate(-157.5)"/><path class="b" d="M82.3,133.6l-10.9,4.6,1.2,2.8,10.9-4.5Z"/><rect class="b" width="11.8" height="3.1" transform="translate(82.351 167.14) rotate(-157.5)"/></g></svg>