<svg xmlns="http://www.w3.org/2000/svg" viewBox="10221 -5171 75.987 76"><defs><style>.a{fill:#2f74fb;}.b{fill:#6ed3f3;}</style></defs><g transform="translate(9721 -7078)"><g transform="translate(500 1907)"><g transform="translate(0)"><g transform="translate(0 0)"><g transform="translate(0 0)"><g transform="translate(4.509 4.502)"><g transform="translate(1.376 33.014)"><path class="a" d="M63.305,232.857a33.145,33.145,0,0,1-20.186-6.773,33.758,33.758,0,0,1-11.9-17.148.472.472,0,0,1,.906-.264A32.866,32.866,0,0,0,43.686,225.33a32.257,32.257,0,0,0,19.62,6.584,32.583,32.583,0,0,0,32.542-32.542.472.472,0,1,1,.943,0A33.517,33.517,0,0,1,63.305,232.857Z" transform="translate(-31.196 -198.9)"/></g><path class="a" d="M24.372,57.857a.467.467,0,0,1-.472-.472A33.517,33.517,0,0,1,57.385,23.9a33.145,33.145,0,0,1,20.186,6.773,33.758,33.758,0,0,1,11.9,17.148.472.472,0,0,1-.906.264A32.865,32.865,0,0,0,77.005,31.427a32.256,32.256,0,0,0-19.62-6.584A32.583,32.583,0,0,0,24.843,57.385.467.467,0,0,1,24.372,57.857Z" transform="translate(-23.9 -23.9)"/></g><g transform="translate(8.714 39.306)"><path class="a" d="M75,235.938a.467.467,0,0,1,.472-.472h0a.467.467,0,0,1,.472.472h0a.467.467,0,0,1-.472.472h0A.479.479,0,0,1,75,235.938Zm-1.622.4a.469.469,0,0,1-.434-.509h0a.469.469,0,0,1,.509-.434h0a.469.469,0,0,1,.434.509h0a.473.473,0,0,1-.472.434h0C73.4,236.353,73.379,236.353,73.379,236.334Zm-2.094-.207a.466.466,0,0,1-.4-.528h0a.466.466,0,0,1,.528-.4h0a.466.466,0,0,1,.4.528h0a.47.47,0,0,1-.472.4h-.057Zm-2.075-.377h0a.463.463,0,0,1-.358-.566h0a.477.477,0,0,1,.566-.358h0a.477.477,0,0,1,.358.566h0a.463.463,0,0,1-.453.377h0A.28.28,0,0,0,69.21,235.749Zm-2.037-.528a.477.477,0,0,1-.321-.585h0a.477.477,0,0,1,.585-.321h0a.477.477,0,0,1,.321.585h0a.464.464,0,0,1-.453.34h0A.279.279,0,0,1,67.173,235.221Zm-2-.66a.484.484,0,0,1-.283-.6h0a.468.468,0,0,1,.6-.283h0a.484.484,0,0,1,.283.6h0a.465.465,0,0,1-.434.3h0A.419.419,0,0,1,65.173,234.561Zm-1.962-.83a.476.476,0,0,1-.226-.623h0a.46.46,0,0,1,.623-.226h0a.46.46,0,0,1,.226.623h0a.477.477,0,0,1-.434.283h0A.422.422,0,0,1,63.211,233.731Zm-1.868-.943h0a.489.489,0,0,1-.189-.641h0a.489.489,0,0,1,.641-.189h0a.472.472,0,0,1,.189.641h0a.492.492,0,0,1-.415.245h0A.4.4,0,0,1,61.343,232.787Zm-1.811-1.094a.465.465,0,0,1-.132-.66h0a.465.465,0,0,1,.66-.132h0a.465.465,0,0,1,.132.66h0a.492.492,0,0,1-.4.208h0A.338.338,0,0,1,59.532,231.693ZM57.8,230.486a.477.477,0,0,1-.094-.66h0a.477.477,0,0,1,.66-.094h0a.477.477,0,0,1,.094.66h0a.492.492,0,0,1-.377.189h0A.426.426,0,0,1,57.8,230.486Zm-1.641-1.321h0a.474.474,0,0,1-.038-.66h0a.474.474,0,0,1,.66-.038h0a.473.473,0,0,1,.038.66h0a.465.465,0,0,1-.358.17h0A.705.705,0,0,1,56.156,229.165Zm-1.528-1.453a.456.456,0,0,1,0-.66h0a.456.456,0,0,1,.66,0h0a.456.456,0,0,1,0,.66h0a.455.455,0,0,1-.34.132h0A.379.379,0,0,1,54.628,227.713Zm-1.434-1.547a.458.458,0,0,1,.057-.66h0a.458.458,0,0,1,.66.057h0a.458.458,0,0,1-.057.66h0a.462.462,0,0,1-.3.113h0A.465.465,0,0,1,53.194,226.166Zm-1.3-1.641h0a.477.477,0,0,1,.094-.66h0a.477.477,0,0,1,.66.094h0a.477.477,0,0,1-.094.66h0a.561.561,0,0,1-.283.094h0A.492.492,0,0,1,51.892,224.524ZM50.7,222.77a.486.486,0,0,1,.151-.66h0a.486.486,0,0,1,.66.151h0a.46.46,0,0,1-.151.641h0a.415.415,0,0,1-.245.075h0A.392.392,0,0,1,50.7,222.77Zm-1.075-1.811a.489.489,0,0,1,.189-.641h0a.472.472,0,0,1,.641.189h0a.472.472,0,0,1-.189.641h0a.5.5,0,0,1-.226.057h0A.492.492,0,0,1,49.628,220.959Zm-.924-1.886h0a.457.457,0,0,1,.245-.623h0a.462.462,0,0,1,.623.245h0a.462.462,0,0,1-.245.623h0a.34.34,0,0,1-.189.038h0A.477.477,0,0,1,48.7,219.072Zm-.792-1.962a.468.468,0,0,1,.283-.6h0a.468.468,0,0,1,.6.283h0a.468.468,0,0,1-.283.6h0a.522.522,0,0,1-.17.019h0A.405.405,0,0,1,47.912,217.111Zm-.66-2a.477.477,0,0,1,.321-.585h0a.477.477,0,0,1,.585.321h0a.477.477,0,0,1-.321.585h0a.321.321,0,0,1-.132.019h0A.481.481,0,0,1,47.251,215.111Zm-.49-2.037a.477.477,0,0,1,.358-.566h0a.477.477,0,0,1,.566.358h0a.487.487,0,0,1-.358.566h-.094A.452.452,0,0,1,46.761,213.073Zm-.358-2.094a.469.469,0,0,1,.4-.528h0a.469.469,0,0,1,.528.4h0a.469.469,0,0,1-.4.528h-.057A.451.451,0,0,1,46.4,210.979Zm-.208-2.094a.456.456,0,0,1,.453-.49h0a.453.453,0,0,1,.49.434h0a.482.482,0,0,1-.434.509h-.019A.48.48,0,0,1,46.195,208.885Z" transform="translate(-46.194 -208.394)"/></g><g transform="translate(37.523 8.652)"><path class="a" d="M227.726,73.5h0a.456.456,0,0,1,.453-.49h0a.453.453,0,0,1,.49.434h0a.453.453,0,0,1-.434.491H228.2A.448.448,0,0,1,227.726,73.5Zm-.208-2.037h0a.469.469,0,0,1,.4-.528h0a.469.469,0,0,1,.528.4h0a.469.469,0,0,1-.4.528h-.057A.451.451,0,0,1,227.518,71.462Zm-.34-2.019a.477.477,0,0,1,.358-.566h0a.477.477,0,0,1,.566.358h0a.477.477,0,0,1-.358.566h-.094A.436.436,0,0,1,227.179,69.444Zm-.491-1.981a.477.477,0,0,1,.321-.585h0a.477.477,0,0,1,.585.321h0a.477.477,0,0,1-.321.585h0a.321.321,0,0,1-.132.019h0A.444.444,0,0,1,226.688,67.463Zm-.623-1.943a.468.468,0,0,1,.283-.6h0a.469.469,0,0,1,.6.283h0a.468.468,0,0,1-.283.6h0a.583.583,0,0,1-.151.038h0A.464.464,0,0,1,226.066,65.52Zm-.755-1.886a.47.47,0,0,1,.226-.623h0a.462.462,0,0,1,.622.245h0a.462.462,0,0,1-.245.623h0a.67.67,0,0,1-.189.038h0A.441.441,0,0,1,225.311,63.633Zm-.906-1.83h0a.489.489,0,0,1,.189-.641h0a.472.472,0,0,1,.641.189h0a.472.472,0,0,1-.189.641h0a.5.5,0,0,1-.226.057h0A.408.408,0,0,1,224.405,61.8Zm-1.038-1.754a.46.46,0,0,1,.151-.641h0a.46.46,0,0,1,.641.151h0a.46.46,0,0,1-.151.641h0a.415.415,0,0,1-.245.075h0A.465.465,0,0,1,223.368,60.049Zm-1.151-1.679a.477.477,0,0,1,.094-.66h0a.477.477,0,0,1,.66.094h0a.477.477,0,0,1-.094.66h0a.509.509,0,0,1-.283.094h0A.44.44,0,0,1,222.217,58.37Zm-1.264-1.6a.457.457,0,0,1,.057-.66h0a.458.458,0,0,1,.66.057h0a.458.458,0,0,1-.057.66h0a.5.5,0,0,1-.3.113h0A.438.438,0,0,1,220.953,56.766Zm-1.4-1.49a.456.456,0,0,1,0-.66h0a.456.456,0,0,1,.66,0h0a.456.456,0,0,1,0,.66h0a.454.454,0,0,1-.34.132h0A.474.474,0,0,1,219.557,55.276Zm-1.49-1.4a.474.474,0,0,1-.038-.66h0a.474.474,0,0,1,.66-.038h0a.457.457,0,0,1,.038.66h0a.465.465,0,0,1-.358.17h0A.706.706,0,0,1,218.067,53.88Zm-1.566-1.3a.477.477,0,0,1-.094-.66h0a.477.477,0,0,1,.66-.094h0a.477.477,0,0,1,.094.66h0a.492.492,0,0,1-.377.189h0A.311.311,0,0,1,216.5,52.578Zm-1.679-1.17a.481.481,0,0,1-.132-.66h0a.465.465,0,0,1,.66-.132h0a.481.481,0,0,1,.132.66h0a.492.492,0,0,1-.4.208h0A.433.433,0,0,1,214.822,51.409Zm-1.754-1.038a.489.489,0,0,1-.189-.641h0a.489.489,0,0,1,.641-.189h0a.489.489,0,0,1,.189.641h0a.492.492,0,0,1-.415.245h0A.5.5,0,0,1,213.068,50.371Zm-1.811-.924a.476.476,0,0,1-.226-.623h0a.476.476,0,0,1,.623-.226h0a.46.46,0,0,1,.226.623h0a.477.477,0,0,1-.434.283h0C211.389,49.484,211.313,49.465,211.257,49.447Zm-1.887-.792a.485.485,0,0,1-.283-.6h0a.469.469,0,0,1,.6-.283h0a.468.468,0,0,1,.283.6h0a.465.465,0,0,1-.434.3h0A.266.266,0,0,1,209.37,48.654Zm-1.943-.641a.477.477,0,0,1-.321-.585h0a.477.477,0,0,1,.585-.321h0a.477.477,0,0,1,.321.585h0a.464.464,0,0,1-.453.34h0C207.521,48.032,207.484,48.013,207.427,48.013Zm-1.981-.509h0a.477.477,0,0,1-.358-.566h0a.477.477,0,0,1,.566-.358h0a.463.463,0,0,1,.358.566h0a.478.478,0,0,1-.453.377h0C205.522,47.522,205.484,47.5,205.446,47.5Zm-2-.358a.466.466,0,0,1-.4-.528h0a.466.466,0,0,1,.528-.4h0a.466.466,0,0,1,.4.528h0a.47.47,0,0,1-.472.4h-.057Zm-2.037-.226a.469.469,0,0,1-.434-.509h0a.469.469,0,0,1,.509-.434h0a.469.469,0,0,1,.434.509h0a.473.473,0,0,1-.472.434h-.038Zm-2.509-.547a.467.467,0,0,1,.472-.472h0a.467.467,0,0,1,.472.472h0a.467.467,0,0,1-.472.472h0A.479.479,0,0,1,198.9,46.372Z" transform="translate(-198.9 -45.9)"/></g><g transform="translate(0 37.52)"><g transform="translate(37.523 37.563)"><path class="a" d="M199.372,398.955h-.094c-.038,0-.057-.019-.094-.019-.038-.019-.057-.019-.075-.038s-.057-.038-.075-.057a.455.455,0,0,1-.132-.34.542.542,0,0,1,.132-.34.261.261,0,0,1,.075-.057.144.144,0,0,1,.075-.038.142.142,0,0,1,.094-.019.47.47,0,0,1,.434.132.454.454,0,0,1,.132.34.588.588,0,0,1-.132.34A.9.9,0,0,1,199.372,398.955Z" transform="translate(-198.9 -398.038)"/></g><g transform="translate(0.055 2.126)"><path class="a" d="M36.1,246.491a.492.492,0,0,1-.453-.491h0a.48.48,0,0,1,.49-.453h0a.492.492,0,0,1,.453.49h0a.49.49,0,0,1-.472.453H36.1Zm-2.113-.189a.46.46,0,0,1-.415-.528h0a.46.46,0,0,1,.528-.415h0a.469.469,0,0,1,.415.528h0a.457.457,0,0,1-.472.415h-.057Zm-2.113-.283a.474.474,0,0,1-.4-.547h0a.449.449,0,0,1,.547-.377h0a.449.449,0,0,1,.377.547h0a.484.484,0,0,1-.472.4h0C31.932,246.02,31.894,246.02,31.875,246.02Zm-2.094-.415a.463.463,0,0,1-.358-.566h0a.463.463,0,0,1,.566-.358h0a.477.477,0,0,1,.358.566h0a.46.46,0,0,1-.453.358h-.113Zm-2.056-.528a.477.477,0,0,1-.321-.585h0a.477.477,0,0,1,.585-.321h0a.477.477,0,0,1,.321.585h0a.464.464,0,0,1-.453.34h0C27.8,245.1,27.762,245.076,27.725,245.076Zm-2.037-.66h0a.468.468,0,0,1-.283-.6h0a.468.468,0,0,1,.6-.283h0a.468.468,0,0,1,.283.6h0a.489.489,0,0,1-.453.321h0A.443.443,0,0,1,25.687,244.416Zm-2-.755h0a.457.457,0,0,1-.245-.623h0a.48.48,0,0,1,.623-.264h0a.457.457,0,0,1,.245.623h0a.448.448,0,0,1-.434.283h0A.326.326,0,0,1,23.688,243.661Zm-1.943-.868a.476.476,0,0,1-.226-.623h0a.476.476,0,0,1,.623-.226h0a.476.476,0,0,1,.226.623h0a.452.452,0,0,1-.415.264h0A.8.8,0,0,1,21.744,242.794Zm-1.886-.981a.489.489,0,0,1-.189-.641h0a.489.489,0,0,1,.641-.189h0a.489.489,0,0,1,.189.641h0a.492.492,0,0,1-.415.245h0A.448.448,0,0,1,19.858,241.813Zm-1.849-1.094a.482.482,0,0,1-.151-.66h0a.482.482,0,0,1,.66-.151h0a.464.464,0,0,1,.151.641h0a.465.465,0,0,1-.4.226h0A.327.327,0,0,1,18.009,240.719Zm-1.773-1.188a.48.48,0,0,1-.113-.66h0a.48.48,0,0,1,.66-.113h0a.48.48,0,0,1,.113.66h0a.44.44,0,0,1-.377.189h0A.4.4,0,0,1,16.236,239.53Zm-1.7-1.283a.476.476,0,0,1-.075-.66h0a.476.476,0,0,1,.66-.075h0a.459.459,0,0,1,.075.66h0a.475.475,0,0,1-.377.17h0A.346.346,0,0,1,14.538,238.247Zm-1.622-1.377h0a.473.473,0,0,1-.038-.66h0a.473.473,0,0,1,.66-.038h0a.473.473,0,0,1,.038.66h0a.446.446,0,0,1-.358.151h0A.428.428,0,0,1,12.916,236.87ZM11.369,235.4a.456.456,0,0,1,0-.66h0a.456.456,0,0,1,.66,0h0a.456.456,0,0,1,0,.66h0a.455.455,0,0,1-.34.132h0A.378.378,0,0,1,11.369,235.4ZM9.9,233.852a.474.474,0,0,1,.038-.66h0a.474.474,0,0,1,.66.038h0a.474.474,0,0,1-.038.66h0a.512.512,0,0,1-.321.113h0A.381.381,0,0,1,9.9,233.852ZM8.52,232.229a.459.459,0,0,1,.075-.66h0a.458.458,0,0,1,.66.075h0a.459.459,0,0,1-.075.66h0a.444.444,0,0,1-.3.094h0A.412.412,0,0,1,8.52,232.229Zm-1.283-1.7a.48.48,0,0,1,.113-.66h0a.48.48,0,0,1,.66.113h0a.48.48,0,0,1-.113.66h0a.451.451,0,0,1-.264.094h0A.551.551,0,0,1,7.237,230.531Zm-1.17-1.773a.486.486,0,0,1,.151-.66h0a.486.486,0,0,1,.66.151h0a.486.486,0,0,1-.151.66h0a.415.415,0,0,1-.245.075h0A.433.433,0,0,1,6.068,228.758Zm-1.094-1.83a.472.472,0,0,1,.189-.641h0a.472.472,0,0,1,.641.189h0a.472.472,0,0,1-.189.641h0a.5.5,0,0,1-.226.057h0A.492.492,0,0,1,4.973,226.928Zm-.981-1.887a.46.46,0,0,1,.226-.623h0a.46.46,0,0,1,.623.226h0a.46.46,0,0,1-.226.623h0a.406.406,0,0,1-.208.038h0A.473.473,0,0,1,3.992,225.042ZM3.125,223.1h0a.5.5,0,0,1,.245-.623h0a.5.5,0,0,1,.623.245h0a.487.487,0,0,1-.264.623h0a.559.559,0,0,1-.189.038h0A.471.471,0,0,1,3.125,223.1Zm-.755-2a.468.468,0,0,1,.283-.6h0a.468.468,0,0,1,.6.283h0a.468.468,0,0,1-.283.6h0a.415.415,0,0,1-.151.019h0A.414.414,0,0,1,2.37,221.1Zm-.66-2.019a.477.477,0,0,1,.321-.585h0a.477.477,0,0,1,.585.321h0a.477.477,0,0,1-.321.585h0a.321.321,0,0,1-.132.019h0A.5.5,0,0,1,1.71,219.08Zm-.528-2.075a.463.463,0,0,1,.358-.566h0a.472.472,0,0,1,.566.358h0a.463.463,0,0,1-.358.566h0a.24.24,0,0,1-.113.019h0A.478.478,0,0,1,1.182,217.005ZM.767,214.93h0a.485.485,0,0,1,.377-.547h0a.475.475,0,0,1,.547.377h0a.474.474,0,0,1-.4.547H1.219A.463.463,0,0,1,.767,214.93Zm-.283-2.113a.469.469,0,0,1,.415-.528h0a.469.469,0,0,1,.528.415h0a.483.483,0,0,1-.415.528H.955A.457.457,0,0,1,.484,212.817Zm-.189-2.132a.456.456,0,0,1,.453-.491h0a.467.467,0,0,1,.49.453h0a.456.456,0,0,1-.453.491H.767A.475.475,0,0,1,.295,210.685Z" transform="translate(-0.294 -210.194)"/></g><path class="a" d="M.472,199.864a.542.542,0,0,1-.34-.132.26.26,0,0,1-.057-.075.143.143,0,0,1-.038-.075.17.17,0,0,1-.019-.094c0-.038-.019-.057-.019-.094a.17.17,0,0,1,.019-.094c0-.038.019-.057.019-.094.019-.019.019-.057.038-.075s.038-.057.057-.075a.492.492,0,0,1,.66,0,.455.455,0,0,1,.132.34.588.588,0,0,1-.132.34A.389.389,0,0,1,.472,199.864Z" transform="translate(0 -198.925)"/></g><g transform="translate(37.523)"><path class="a" d="M199.372.974a.588.588,0,0,1-.34-.132A.455.455,0,0,1,198.9.5a.17.17,0,0,1,.019-.094c0-.038.019-.057.019-.094.019-.019.019-.057.038-.075s.038-.057.057-.075a.26.26,0,0,1,.075-.057.143.143,0,0,1,.075-.038.141.141,0,0,1,.094-.019.47.47,0,0,1,.434.132.261.261,0,0,1,.057.075.143.143,0,0,1,.038.075.817.817,0,0,1,.019.094V.522a.542.542,0,0,1-.132.34A.5.5,0,0,1,199.372.974Z" transform="translate(-198.9 -0.038)"/><g transform="translate(2.113 0.049)"><path class="a" d="M245.472,36.144a.456.456,0,0,1,.453-.49h0a.456.456,0,0,1,.491.453h0a.467.467,0,0,1-.453.49h-.019A.463.463,0,0,1,245.472,36.144Zm-.17-2.056a.469.469,0,0,1,.415-.528h0a.483.483,0,0,1,.528.415h0a.469.469,0,0,1-.415.528h-.057A.471.471,0,0,1,245.3,34.087Zm-.3-2.056h0a.475.475,0,0,1,.377-.547h0a.475.475,0,0,1,.547.377h0a.485.485,0,0,1-.377.547h-.075A.468.468,0,0,1,245,32.031Zm-.4-2.056a.472.472,0,0,1,.358-.566h0a.472.472,0,0,1,.566.358h0a.463.463,0,0,1-.358.566h0c-.038,0-.075.019-.113.019h0A.463.463,0,0,1,244.6,29.975Zm-.528-2a.477.477,0,0,1,.321-.585h0a.477.477,0,0,1,.585.321h0a.477.477,0,0,1-.321.585h0a.321.321,0,0,1-.132.019h0A.464.464,0,0,1,244.076,27.975Zm-.623-1.981a.468.468,0,0,1,.283-.6h0a.468.468,0,0,1,.6.283h0a.468.468,0,0,1-.283.6h0a.469.469,0,0,1-.151.019h0A.433.433,0,0,1,243.453,25.994Zm-.736-1.943a.5.5,0,0,1,.245-.623h0a.487.487,0,0,1,.623.264h0a.487.487,0,0,1-.264.623h0a.551.551,0,0,1-.17.038h0A.465.465,0,0,1,242.718,24.051Zm-.849-1.887a.46.46,0,0,1,.226-.623h0a.46.46,0,0,1,.623.226h0a.46.46,0,0,1-.226.623h0a.373.373,0,0,1-.208.038h0A.452.452,0,0,1,241.869,22.165Zm-.962-1.849a.472.472,0,0,1,.189-.641h0a.472.472,0,0,1,.641.189h0a.472.472,0,0,1-.189.641h0a.5.5,0,0,1-.226.057h0A.492.492,0,0,1,240.907,20.316Zm-1.056-1.792a.46.46,0,0,1,.151-.641h0a.486.486,0,0,1,.66.151h0a.486.486,0,0,1-.151.66h0a.415.415,0,0,1-.245.075h0A.538.538,0,0,1,239.85,18.524ZM238.7,16.807a.48.48,0,0,1,.113-.66h0a.48.48,0,0,1,.66.113h0a.48.48,0,0,1-.113.66h0a.451.451,0,0,1-.264.094h0A.518.518,0,0,1,238.7,16.807Zm-1.245-1.66a.459.459,0,0,1,.076-.66h0a.459.459,0,0,1,.66.075h0a.457.457,0,0,1-.075.66h0a.444.444,0,0,1-.3.094h0A.438.438,0,0,1,237.454,15.147Zm-1.339-1.585a.474.474,0,0,1,.038-.66h0a.474.474,0,0,1,.66.038h0a.474.474,0,0,1-.038.66h0a.512.512,0,0,1-.321.113h0A.442.442,0,0,1,236.115,13.562Zm-1.434-1.509a.456.456,0,0,1,0-.66h0a.456.456,0,0,1,.66,0h0a.456.456,0,0,1,0,.66h0a.455.455,0,0,1-.34.132h0A.442.442,0,0,1,234.681,12.053Zm-1.509-1.434a.474.474,0,0,1-.038-.66h0a.474.474,0,0,1,.66-.038h0a.474.474,0,0,1,.038.66h0a.446.446,0,0,1-.358.151h0A.5.5,0,0,1,233.172,10.619ZM231.587,9.28a.459.459,0,0,1-.075-.66h0a.476.476,0,0,1,.66-.075h0a.459.459,0,0,1,.075.66h0a.475.475,0,0,1-.377.17h0A.509.509,0,0,1,231.587,9.28Zm-1.66-1.264a.48.48,0,0,1-.113-.66h0a.48.48,0,0,1,.66-.113h0a.48.48,0,0,1,.113.66h0a.464.464,0,0,1-.377.189h0A.3.3,0,0,1,229.927,8.016Zm-1.736-1.151a.482.482,0,0,1-.151-.66h0a.464.464,0,0,1,.641-.151h0a.464.464,0,0,1,.151.641h0a.465.465,0,0,1-.4.226h0A.3.3,0,0,1,228.192,6.865ZM226.4,5.809a.489.489,0,0,1-.189-.641h0a.489.489,0,0,1,.641-.189h0a.489.489,0,0,1,.189.641h0a.492.492,0,0,1-.415.245h0A.5.5,0,0,1,226.4,5.809Zm-1.849-.962a.476.476,0,0,1-.226-.623h0A.476.476,0,0,1,224.947,4h0a.476.476,0,0,1,.226.623h0a.452.452,0,0,1-.415.264h0A.276.276,0,0,1,224.551,4.846ZM222.645,4h0a.48.48,0,0,1-.264-.623h0A.48.48,0,0,1,223,3.111h0a.48.48,0,0,1,.264.623h0a.465.465,0,0,1-.434.3h0A.831.831,0,0,1,222.645,4ZM220.7,3.262a.468.468,0,0,1-.283-.6h0a.468.468,0,0,1,.6-.283h0a.461.461,0,0,1,.283.6h0a.489.489,0,0,1-.453.321h0C220.815,3.281,220.759,3.281,220.7,3.262Zm-1.981-.641h0a.477.477,0,0,1-.321-.585h0a.477.477,0,0,1,.585-.321h0a.477.477,0,0,1,.321.585h0a.464.464,0,0,1-.453.34h0A.368.368,0,0,1,218.721,2.62Zm-2-.509a.463.463,0,0,1-.358-.566h0a.477.477,0,0,1,.566-.358h0a.477.477,0,0,1,.358.566h0a.478.478,0,0,1-.453.377h0A.332.332,0,0,0,216.722,2.111ZM214.684,1.7a.474.474,0,0,1-.4-.547h0a.449.449,0,0,1,.547-.377h0a.449.449,0,0,1,.377.547h0a.484.484,0,0,1-.472.4h0A.069.069,0,0,1,214.684,1.7Zm-2.075-.283a.46.46,0,0,1-.415-.528h0a.46.46,0,0,1,.528-.415h0a.469.469,0,0,1,.415.528h0a.457.457,0,0,1-.472.415h-.057Zm-2.056-.17h0a.492.492,0,0,1-.453-.49h0a.48.48,0,0,1,.49-.453h0a.48.48,0,0,1,.453.49h0a.489.489,0,0,1-.472.453h-.019Z" transform="translate(-210.1 -0.3)"/></g><g transform="translate(37.541 37.504)"><path class="a" d="M398.372,199.793a.587.587,0,0,1-.34-.132.26.26,0,0,1-.057-.075.143.143,0,0,1-.038-.075.17.17,0,0,1-.019-.094c0-.038-.019-.057-.019-.094a.17.17,0,0,1,.019-.094c0-.038.019-.057.019-.094.019-.019.019-.057.038-.075s.038-.057.057-.075a.436.436,0,0,1,.415-.132c.038,0,.057.019.094.019.038.019.057.019.075.038s.057.038.076.057a.455.455,0,0,1,.132.34.588.588,0,0,1-.132.34.259.259,0,0,1-.076.057.143.143,0,0,1-.075.038c-.019.019-.057.019-.094.038A.113.113,0,0,1,398.372,199.793Z" transform="translate(-397.9 -198.838)"/></g></g><g transform="translate(66.292 33.271)"><ellipse class="b" cx="4.716" cy="4.716" rx="4.716" ry="4.716"/><g transform="translate(0 3.528)"><path class="a" d="M356.116,198.647a4.733,4.733,0,0,1-4.565-3.547,4.85,4.85,0,0,0-.151,1.17,4.716,4.716,0,0,0,9.432,0,4.614,4.614,0,0,0-.151-1.17A4.679,4.679,0,0,1,356.116,198.647Z" transform="translate(-351.4 -195.1)"/></g></g><g transform="translate(0.264 33.271)"><g transform="translate(0)"><ellipse class="b" cx="4.716" cy="4.716" rx="4.716" ry="4.716"/></g><g transform="translate(0 3.528)"><path class="a" d="M6.116,198.647A4.732,4.732,0,0,1,1.551,195.1a4.849,4.849,0,0,0-.151,1.17,4.716,4.716,0,0,0,9.433,0,4.615,4.615,0,0,0-.151-1.17A4.679,4.679,0,0,1,6.116,198.647Z" transform="translate(-1.4 -195.1)"/></g></g><g transform="translate(67.037 25.941)"><path class="a" d="M357.961,140.633a.8.8,0,0,1-.208-.038l-2.132-1a.468.468,0,1,1,.4-.849l1.717.792.792-1.717a.468.468,0,0,1,.849.4l-1,2.132A.441.441,0,0,1,357.961,140.633Z" transform="translate(-355.348 -137.548)"/></g><g transform="translate(4.876 46.976)"><path class="a" d="M26.33,252.114a.8.8,0,0,1-.208-.038.46.46,0,0,1-.226-.623l1-2.132a.46.46,0,0,1,.623-.226l2.132,1a.468.468,0,0,1-.4.849l-1.717-.792-.792,1.717A.484.484,0,0,1,26.33,252.114Z" transform="translate(-25.848 -249.048)"/></g><g transform="translate(15.601 26.196)"><rect class="a" width="39.994" height="18.865"/><g transform="translate(4.716 4.716)"><rect class="b" width="40.088" height="18.865"/></g></g><g transform="translate(35.636 35.629)"><ellipse class="a" cx="4.716" cy="4.716" rx="4.716" ry="4.716"/></g><g transform="translate(28.562 37.987)"><ellipse class="a" cx="2.358" cy="2.358" rx="2.358" ry="2.358"/></g><g transform="translate(47.427 37.987)"><ellipse class="a" cx="2.358" cy="2.358" rx="2.358" ry="2.358"/></g></g></g></g></g></g></svg>