<svg xmlns="http://www.w3.org/2000/svg" xmlns:xlink="http://www.w3.org/1999/xlink" viewBox="0 0 650.395 414.358"><defs><style>.a{fill:url(#a);}.b,.j{fill:#e6eaed;}.c{fill:#c4cbd2;}.d{fill:#2970ff;}.e{fill:#fff;}.f{fill:#2ed9a3;}.g,.l{opacity:0.34;}.g{fill:url(#b);}.h{fill:#f9fafa;}.i{fill:#3d5873;}.j{stroke:#e6eaed;stroke-miterlimit:10;}.k{fill:#70cbff;opacity:0.58;}.l{fill:url(#c);}.m{fill:#c7c8c9;}.n{fill:#8997a5;}.o{opacity:0.21;fill:url(#d);}.p{fill:#ffc84e;}</style><linearGradient id="a" x1="0.027" y1="0.5" x2="0.968" y2="0.5" gradientUnits="objectBoundingBox"><stop offset="0" stop-color="#0a1440"/><stop offset="0.388" stop-color="#e6eaed"/><stop offset="0.734" stop-color="#70cbff"/><stop offset="1" stop-color="#0a1440"/></linearGradient><radialGradient id="b" cx="683.896" cy="421.738" r="19.575" gradientTransform="translate(-0.06 -0.058)" gradientUnits="userSpaceOnUse"><stop offset="0" stop-color="#2ed9a3"/><stop offset="0.26" stop-color="#2ed7a2"/><stop offset="0.408" stop-color="#2cce9e"/><stop offset="0.528" stop-color="#2ac097"/><stop offset="0.633" stop-color="#26ad8d"/><stop offset="0.728" stop-color="#219380"/><stop offset="0.816" stop-color="#1b7370"/><stop offset="0.899" stop-color="#154e5d"/><stop offset="0.975" stop-color="#0d2448"/><stop offset="1" stop-color="#0a1440"/></radialGradient><linearGradient id="c" x1="0.509" y1="0.045" x2="0.491" y2="0.863" xlink:href="#a"/><linearGradient id="d" x1="0.401" y1="0.515" x2="0.6" y2="0.478" gradientUnits="objectBoundingBox"><stop offset="0" stop-color="#c4cbd2"/><stop offset="0.388" stop-color="#e6eaed"/><stop offset="0.734" stop-color="#70cbff"/><stop offset="1" stop-color="#2970ff"/></linearGradient></defs><g transform="translate(-358.437 -115.346)"><g transform="translate(358.437 115.346)"><path class="a" d="M484.771,676.6c-175.426-33.155-358.253-3.788-483.579,67.351q-.576.692-1.192,1.372c123.587-70.854,309.279-99.751,488.526-65.878,60.489,11.43,114.92,29.008,161.869,51.157C602.785,706.965,547.068,688.375,484.771,676.6Z" transform="translate(0 -392.355)"/><path class="b" d="M619.533,522.511c-1.323-2.5-3.641-4.911-6.683-4.617a2.07,2.07,0,0,0-1.6.972,36.566,36.566,0,0,0-11.969,11.863c-1.768,2.686-2.212,5.678-3.535,8.56-1.184,2.576-2.568,5.6-.972,8.319a6.823,6.823,0,0,0,5.968,3.041c3.106-.041,5.1-1.841,6.135-4.646a21.431,21.431,0,0,0,1.131-4.617c.188-1.408-.286-3.486.4-4.756.616-1.151,2.172-1.992,3.164-2.735l4.552-3.4C618.957,528.369,621.537,526.3,619.533,522.511Z" transform="translate(-351.553 -306.468)"/><path class="b" d="M571.9,490.547c-5.784-1.653-9.936,5.319-14.067,8.013a2.809,2.809,0,0,0-.265.2c-.727.584-1.388,1.314-2.253,1.323-1.67.016-3.543-.861-5.25-1.016-2.715-.249-6.029.282-6.389,3.527a9.168,9.168,0,0,0,2.4,6.487c2.241,2.6,5.694,3.209,8.911,3.686,3.621.535,6-.914,8.131-3.735a22.454,22.454,0,0,1,2.641-3.274,24.252,24.252,0,0,1,4.494-2.849c2.245-1.265,5.793-3.213,6.393-6C577.223,494.241,574.325,491.237,571.9,490.547Z" transform="translate(-321.722 -290.151)"/><g transform="translate(237.947 208.262)"><path class="c" d="M582.927,510.649a17.213,17.213,0,0,0,3.3,4.89c.273.286.706-.147.433-.433a16.817,16.817,0,0,1-3.2-4.768c-.163-.359-.69-.049-.531.31Z" transform="translate(-582.897 -510.179)"/></g><g transform="translate(243.897 204.764)"><path class="c" d="M597.5,502.079a14.637,14.637,0,0,0,2.368,3.784c.257.3.69-.135.433-.433a14.085,14.085,0,0,1-2.27-3.662c-.155-.359-.682-.049-.531.31Z" transform="translate(-597.474 -501.609)"/></g><g transform="translate(247.344 229.833)"><path class="c" d="M613.409,564.306a5.877,5.877,0,0,1-6.972-1.192c-.273-.286-.706.147-.433.433a6.518,6.518,0,0,0,7.711,1.286c.355-.176.045-.706-.306-.527Z" transform="translate(-605.916 -563.021)"/></g><g transform="translate(251.393 225.366)"><path class="c" d="M615.98,552.654a15.014,15.014,0,0,0,4.266,1.8.307.307,0,0,0,.163-.592,14.441,14.441,0,0,1-4.119-1.743.308.308,0,0,0-.31.531Z" transform="translate(-615.836 -552.077)"/></g><g transform="translate(257.512 220.062)"><path class="c" d="M631.032,539.7q2.045.808,4.09,1.621c.367.147.526-.445.163-.592q-2.045-.808-4.09-1.621c-.367-.143-.527.449-.163.592Z" transform="translate(-630.827 -539.086)"/></g><g transform="translate(229.981 212.076)"><path class="c" d="M563.46,519.811a9.335,9.335,0,0,0,.7,4.9c.155.363.682.049.531-.31a8.743,8.743,0,0,1-.616-4.588c.049-.388-.563-.384-.612,0Z" transform="translate(-563.384 -519.521)"/></g><g transform="translate(246.952 235.174)"><path class="c" d="M605.179,576.723a16.381,16.381,0,0,0,6.1-.02c.388-.073.225-.665-.163-.592a15.594,15.594,0,0,1-5.772.02c-.388-.069-.551.523-.163.592Z" transform="translate(-604.957 -576.105)"/></g><g transform="translate(248.415 240.103)"><path class="c" d="M608.834,588.959c.894-.057,1.792-.114,2.686-.167.392-.024.4-.637,0-.612-.894.057-1.792.114-2.686.167-.392.024-.392.637,0,.612Z" transform="translate(-608.54 -588.178)"/></g><g transform="translate(224.656 212.306)"><path class="c" d="M550.931,522.054a7,7,0,0,0,.053-1.678c-.037-.388-.649-.392-.612,0a6.273,6.273,0,0,1-.029,1.514c-.061.388.531.555.588.163Z" transform="translate(-550.339 -520.084)"/></g><path class="d" d="M673.622,391.312c-.5-4-3.588-7.132-6.168-9.985-6.491-7.189-13.647-13.732-20.439-20.631-2.351-2.368-4.931-4.8-8.16-5.874a13.858,13.858,0,0,0-8.646.233c-5.233,1.837-8.319,6.364-11.41,10.675a33.411,33.411,0,0,1-6.715,7.046c-1.617,1.253-3.327,2.384-5.058,3.474a28.542,28.542,0,0,0-4.6,2.947c-4.425,4.233,2,11.087,4.682,14.234q9.258,10.85,18.545,21.676c2.813,3.286,5.458,7.119,8.748,9.94,2.825,2.425,5.886,2.123,9.283,1.225,6.731-1.784,12.079-6.311,16.324-11.679,4.139-5.237,7.111-11.279,11.263-16.455A8.952,8.952,0,0,0,673.622,391.312Z" transform="translate(-355.611 -209.632)"/><path class="e" d="M671.551,395.957c-1.747-3.837-5.409-6.266-8.172-9.3-4.1-4.5-7.989-9.185-12.124-13.655q-2.89-3.123-5.841-6.189a46.012,46.012,0,0,0-5.87-5.621c-4.482-3.241-9.087-1.906-13.214,1.18-1.433,1.074-3.258,2.176-4.148,3.792-.657,1.192-.437,2.27-.318,3.556a4.284,4.284,0,0,1-.421,2.849,13.841,13.841,0,0,1-2.016,2.245,9,9,0,0,1-2.976,2.2c-1.294.5-2.727.282-4.082.457-2.2.282-3.707,1.523-5.409,2.817-5.433,4.127-10.687,8.519-15.781,13.051-2.208,1.964-4.433,3.951-6.438,6.127a8.115,8.115,0,0,0-2.262,3.413,1.656,1.656,0,0,0,.249,1.694,2.178,2.178,0,0,0,.375.51,178.074,178.074,0,0,0,21.582,24.713q6.24,5.915,13.042,11.2c1.813,1.4,3.572,2.751,5.907,3.086A11.146,11.146,0,0,0,630.9,442.4c4.486-2.735,7.45-7.523,11.4-10.928,3.568-3.074,8.556-4.874,10.21-9.671a10.3,10.3,0,0,0-.037-6.131,3.63,3.63,0,0,1,1.18-3.935,6.163,6.163,0,0,1,3.029-1.849c2.274-.506,3.952,1.453,6.152,1.074,2.041-.351,4.2-2.661,5.637-4.037C671.58,403.962,673.45,400.125,671.551,395.957Z" transform="translate(-344.625 -212.64)"/><path class="b" d="M634.724,371.846c-6.017-.788-11.94,1.862-17,4.8-3.5,2.029-8.732,6.5-5.3,10.977,2.759,3.6,7.793-.135,10.532-1.216,5.564-1.78,13.124,2.09,17.214-3.715C643.464,378.006,639.909,372.524,634.724,371.846Z" transform="translate(-361.76 -219.97)"/><path class="c" d="M605.971,402.335a4.311,4.311,0,0,0-4.931-3.18s-.008,0-.012,0a.968.968,0,0,0-.257.033,12.006,12.006,0,0,0-6.454,4.045c-1.216,1.584-2.2,4.262-1.008,6.144,1.045,1.649,3.057,1.229,4.188-.09a7.812,7.812,0,0,0,.939-1.637,2.294,2.294,0,0,0,1.347,1.8c1.735.572,3.245-1.192,4.233-2.335C605.244,405.7,606.5,404.343,605.971,402.335Z" transform="translate(-350.792 -236.192)"/><path class="f" d="M696.319,433.756c7.43-7.5,7.168-15.7-1.972-24.856-8.65-9.626-16.818-10.328-24.713-3.315s-10.63,18.974-1.743,28.367h0l0,0,0,0h0C676.8,443.337,688.893,441.259,696.319,433.756Z" transform="translate(-391.975 -237.254)"/><path class="g" d="M694.421,408.986c-8.589-9.675-16.753-10.43-24.693-3.466s-10.744,18.909-1.914,28.355h0l0,0,0,0h0c8.838,9.438,20.945,7.43,28.42-.029S703.508,418.2,694.421,408.986Z" transform="translate(-391.976 -237.255)"/><g transform="translate(267.137 154.214)"><path class="c" d="M665.273,378.235a7.122,7.122,0,0,1-1.7,9.2c-2.527,1.98-5.854,1.8-8.875,1.5-.392-.037-.388.576,0,.612,3.674.355,7.748.367,10.356-2.67a7.786,7.786,0,0,0,.747-8.952c-.188-.347-.714-.041-.527.306Z" transform="translate(-654.404 -377.776)"/></g><g transform="translate(265.164 152.154)"><path class="e" d="M656.693,373.45q-.165,2.81-.327,5.625c-.029.518-.127,1.143-.6,1.355a1.375,1.375,0,0,1-.6.082,14.431,14.431,0,0,1-4.233-.449.727.727,0,0,1-.376-.216.748.748,0,0,1-.094-.453q.031-2.351.057-4.707" transform="translate(-650.097 -373.156)"/><path class="c" d="M655.861,373.024c-.086,1.5-.176,3-.261,4.5a5.479,5.479,0,0,1-.143,1.682c-.445.8-1.531.58-2.249.547a6.49,6.49,0,0,1-2.27-.286c-.625-.294-.6-.269-.694-1.025a31.151,31.151,0,0,1,.053-4.184.306.306,0,0,0-.612,0c-.012,1.135-.029,2.266-.041,3.4-.008.539-.22,1.417.118,1.914.588.865,2.792.772,3.682.8,1.086.037,2.225.224,2.6-1a10.324,10.324,0,0,0,.2-2.408c.078-1.31.151-2.625.229-3.935.024-.392-.588-.392-.612,0Z" transform="translate(-649.571 -372.73)"/></g><g transform="translate(259.734 155.007)"><path class="c" d="M636.3,380.014a14.959,14.959,0,0,0,.306,4.066c.082.384.674.22.592-.163a14.387,14.387,0,0,1-.282-3.9c.02-.392-.592-.392-.616,0Z" transform="translate(-636.269 -379.72)"/></g><g transform="translate(244.36 166.175)"><path class="c" d="M598.645,407.54c.776,1.49,1.817,3.143,3.711,3.09.392-.012.4-.625,0-.612-1.653.045-2.515-1.506-3.184-2.788-.18-.347-.71-.037-.527.31Z" transform="translate(-598.607 -407.078)"/></g><path class="b" d="M756.665,480.183a8.128,8.128,0,0,0-7.719-2.29c-9.275,2.453-3.519,14.316-5.188,20.468-1.094,3.188-4.094,7.087-2.021,10.52,1.216,2.017,3.98,2.653,6.168,2.237,2.58-.49,4.376-2.519,5.731-4.633,3.466-5.413,5.87-11.65,5.789-18.137C759.391,485.4,758.759,482.375,756.665,480.183Z" transform="translate(-438.527 -282.672)"/><path class="c" d="M730.454,543.349a15.005,15.005,0,0,0-3.809,3.633c-.9,1.445-1.033,3.633.392,4.788-.1.106-.2.2-.253.261a4.737,4.737,0,0,0-1.592,2.915c-.2,2.331,1.984,3.8,4.045,4.045,5.372.657,9.426-4.462,10.36-9.262.016-.086.029-.171.037-.257a2.68,2.68,0,0,0,.037-.269C740.043,544.476,734.659,540.21,730.454,543.349Z" transform="translate(-429.151 -320.909)"/><g transform="translate(313.118 203.776)"><path class="e" d="M773.858,500.271a26.244,26.244,0,0,1-5.74-.351,26.494,26.494,0,0,1-.339,5.478,10.4,10.4,0,0,0,2.768.347,11.956,11.956,0,0,1,2.829.808" transform="translate(-767.48 -499.622)"/><path class="c" d="M773.423,499.532a27.945,27.945,0,0,1-5.658-.339.311.311,0,0,0-.388.294,28.44,28.44,0,0,1-.327,5.4.313.313,0,0,0,.212.376,10.163,10.163,0,0,0,2.38.322,11.835,11.835,0,0,1,3.213.833c.367.139.531-.453.163-.592a12.445,12.445,0,0,0-2.829-.808,14.706,14.706,0,0,1-2.768-.347c.069.127.143.253.212.376a29.114,29.114,0,0,0,.351-5.556c-.131.1-.257.2-.388.294a28.944,28.944,0,0,0,5.821.359c.4-.012.4-.625,0-.608Z" transform="translate(-767.045 -499.189)"/></g><g transform="translate(313.646 215.283)"><path class="c" d="M768.722,528.044a3.327,3.327,0,0,1,2.837.784c.294.261.731-.171.433-.433a3.972,3.972,0,0,0-3.433-.943c-.388.077-.225.665.163.592Z" transform="translate(-768.337 -527.378)"/></g><g transform="translate(304.457 195.341)"><path class="c" d="M759.744,480.964c-3.539-2.764-7.683-3.5-11.4-.523s-2.458,7.94-1.592,11.969c.082.384.674.22.592-.163-.755-3.535-2.074-8.095.955-10.961,3.311-3.135,7.634-2.527,11.01.11.306.237.743-.192.433-.433Z" transform="translate(-745.826 -478.525)"/></g><path class="b" d="M674.022,513.744a38.682,38.682,0,0,0-6.7-4.715c-1.935-1.086-4.417-2.755-6.707-2.8-2.082-.041-4.458,1.237-6.3,2.119-2.4,1.143-7.352,3.633-5.054,6.964,1.176,1.7,3.364,2.29,5.2,2.964,3.245,1.188,6.115,3.192,9.352,4.421a11.1,11.1,0,0,0,7.911.053c1.853-.755,4.225-2.2,4.886-4.237C677.275,516.442,675.41,514.969,674.022,513.744Z" transform="translate(-383.871 -299.578)"/><path class="b" d="M622.681,451.414a85.984,85.984,0,0,0-3.784-8.536c-.919-1.943-1.535-4.731-3.356-6.078-3.3-2.449-5.911,2.51-7.107,4.907-.91,1.821-2.233,4.2-2.225,6.266.012,2.363,1.747,5.046,2.849,7.05a38.352,38.352,0,0,0,4.641,6.715c1.274,1.465,2.7,3.119,4.821,2.384,1.964-.682,3.245-2.874,4.017-4.666A11.278,11.278,0,0,0,622.681,451.414Z" transform="translate(-358.746 -258.1)"/><g transform="translate(233.879 211.975)"><path class="c" d="M572.956,519.64c.9,2.184,1.661,4.841,3.886,6.037.347.188.657-.343.31-.531-2.061-1.11-2.772-3.649-3.6-5.67-.147-.359-.739-.2-.592.163Z" transform="translate(-572.933 -519.274)"/></g><g transform="translate(276.165 168.484)"><g transform="translate(3.941)"><path d="M690.74,417.4a2.706,2.706,0,1,1,.1-3.825A2.707,2.707,0,0,1,690.74,417.4Z" transform="translate(-686.174 -412.734)"/><path class="e" d="M694.7,418.907a.7.7,0,0,1-1-.029.706.706,0,1,1,1,.029Z" transform="translate(-690.517 -415.663)"/><path class="e" d="M697.458,419.257c-.086,0-.147-.237-.139-.523s.082-.514.167-.514.147.237.139.523S697.539,419.257,697.458,419.257Z" transform="translate(-692.769 -415.98)"/><path d="M737.72,467a2.706,2.706,0,1,1,.1-3.825A2.707,2.707,0,0,1,737.72,467Z" transform="translate(-713.976 -442.086)"/><path class="e" d="M741.694,468.507a.7.7,0,0,1-1-.029.706.706,0,1,1,1,.029Z" transform="translate(-718.325 -445.016)"/><path class="e" d="M744.438,468.857c-.086,0-.147-.237-.139-.523s.082-.514.167-.514.147.237.139.523S744.523,468.857,744.438,468.857Z" transform="translate(-720.571 -445.333)"/></g><path d="M676.565,455.22c-.261,1.29.665,2.645,1.6,3.751a29.317,29.317,0,0,0,3.988,4,2.238,2.238,0,0,0,3.4-.371s0-.008,0-.012c1.763-.931,2.335-2.992,1.576-5.323a7.989,7.989,0,0,0-4.76-4.837C679.786,451.673,677.067,452.762,676.565,455.22Z" transform="translate(-676.52 -436.084)"/></g><g transform="translate(222.399 111.616)"><path class="h" d="M604.531,312.966c.539-5.9,1.016-12.573-2.515-17.717-3.515-5.115-9.8-7.078-15.655-7.866-7.695-1.041-15.275-1.49-22.807-3.584-6.27-1.743-14.288-3.886-17.611-10.071-.371-.694-1.429-.078-1.057.616,2.678,4.988,8.07,7.27,13.169,9.026a91.438,91.438,0,0,0,21.28,4.531c6.923.653,14.9.943,20.137,6.2,4.948,4.968,4.413,12.434,3.829,18.86-.065.788,1.159.78,1.229,0Z" transform="translate(-544.809 -273.424)"/></g><g transform="translate(216.191 105.715)"><g transform="translate(7.142)"><path class="h" d="M547.674,262.4a31.763,31.763,0,0,1,2.045-3c.241-.31-.29-.616-.531-.31a31.779,31.779,0,0,0-2.045,3,.308.308,0,0,0,.531.31Z" transform="translate(-547.098 -258.97)"/></g><g transform="translate(4.545 0.351)"><path class="h" d="M541.889,261.655a1.9,1.9,0,0,1-.531-1.531c.037-.392-.58-.392-.612,0a2.5,2.5,0,0,0,.706,1.964c.278.282.71-.151.437-.433Z" transform="translate(-540.736 -259.83)"/></g><g transform="translate(0 2.996)"><path class="h" d="M533.647,267.522a6.52,6.52,0,0,0-3.747-1.212.306.306,0,0,0,0,.612,5.976,5.976,0,0,1,3.437,1.127c.322.233.629-.3.31-.527Z" transform="translate(-529.602 -266.31)"/></g></g><path class="e" d="M982.8,306.332c-.061-.551-4.368-2.012-4.944-2.237a22.968,22.968,0,0,0-6.315-1.572,24.653,24.653,0,0,0-13.43,2.813c-5,2.629-9.748,8.368-12.108,13.422-.812,1.743-2.764,2.351-3.98,3.715-1.559,1.747-1.866,4.65-2.506,6.842a2.666,2.666,0,0,0-.147.816c.041,1.543,1.706,3.384,2.466,4.666,2.551,4.319,5.69,7.76,9.03,11.467a4.808,4.808,0,0,0,.959.886c1.588,1,4.984.616,6.874.751q3.8.276,7.589.555,3.98.288,7.948.649c1.715.155,3.135-.69,4.686-1.335.543-.225,2.649-.71,2.956-1.229l4.633-7.887S982.8,306.348,982.8,306.332Z" transform="translate(-555.905 -178.981)"/><g transform="translate(388.318 135.662)"><path class="c" d="M983.831,332.379l-5.05,3.2a12.586,12.586,0,0,0-3.066,2.147,15.8,15.8,0,0,0-2.9,7.042,5.309,5.309,0,0,0,.408,2.935c.874,1.935,1.4,3.645.727,5.789-1.147,3.653-5.331,4.209-8.609,4.4-6.609.4-14.786-4.715-13.3-12.177a8.837,8.837,0,0,1,2.433-4.56c.706-.694,1.988-1.339,2.217-2.4.327-1.539-1.51-1.678-2.625-1.845-.384-.057-.551.531-.163.592.7.106,2.327.1,2.057,1.408-.131.641-1.457,1.367-1.919,1.821a9.4,9.4,0,0,0-2.013,2.976,9.532,9.532,0,0,0-.143,7.16c1.968,5.07,8.27,7.956,13.455,7.646,2.392-.143,5.152-.416,7.131-1.894a6.984,6.984,0,0,0,2.376-6.523c-.192-1.494-1.319-2.592-1.474-4.111-.192-1.89.8-3.886,1.584-5.531a14.707,14.707,0,0,1,.967-1.951,10.434,10.434,0,0,1,3.164-2.392l5.05-3.2c.331-.212.024-.743-.31-.531Z" transform="translate(-951.26 -332.33)"/></g><ellipse class="i" cx="2.686" cy="3.09" rx="2.686" ry="3.09" transform="translate(412.904 158.326)"/><ellipse class="i" cx="2.719" cy="3.302" rx="2.719" ry="3.302" transform="translate(411.419 142.765)"/><ellipse class="i" cx="1.947" cy="2.592" rx="1.947" ry="2.592" transform="translate(389.926 158.514)"/><ellipse class="i" cx="1.853" cy="2.809" rx="1.853" ry="2.809" transform="translate(384.244 145.418)"/><path class="j" d="M1028.784,328.01c-.261-.008-2.09,3.658-2.376,4.107-2.257,3.568-4.164,8.985-2.69,13.165.7,1.992,1.518,3.943,2.388,5.866.527,1.163,1.445,2.257,1.653,3.543.225,1.363-.429,2.682-.816,3.968q-.839,2.786-1.674,5.576l6.1-1.547,4.707-8.891-2.935-25.624Z" transform="translate(-605.515 -194.112)"/><ellipse class="j" cx="2.686" cy="3.09" rx="2.686" ry="3.09" transform="translate(412.288 158.326)"/><ellipse class="j" cx="2.719" cy="3.302" rx="2.719" ry="3.302" transform="translate(410.802 142.765)"/><ellipse class="j" cx="1.947" cy="2.592" rx="1.947" ry="2.592" transform="translate(389.306 158.514)"/><ellipse class="j" cx="1.853" cy="2.809" rx="1.853" ry="2.809" transform="translate(383.627 145.418)"/><path class="k" d="M972.452,315.663c-3.335,4.756-2.253,11.618,1.065,13.14s7.993-1.563,10.442-6.895,2.866-10.218-.453-11.74S975.82,310.863,972.452,315.663Z" transform="translate(-574.284 -183.271)"/><path class="l" d="M972.452,315.663c-3.335,4.756-2.253,11.618,1.065,13.14s7.993-1.563,10.442-6.895,2.866-10.218-.453-11.74S975.82,310.863,972.452,315.663Z" transform="translate(-574.284 -183.271)"/><path class="c" d="M1039.7,312.013a2.016,2.016,0,0,1,1.266.376v-.025l5.344,3.923,1.237,23.656-3.262,3.453a2.921,2.921,0,0,1-2.115,1.755c-2.886.216-5.78-7.029-6.458-16.182S1036.813,312.225,1039.7,312.013Z" transform="translate(-612.834 -184.642)"/><ellipse class="i" cx="3.654" cy="11.83" rx="3.654" ry="11.83" transform="matrix(0.999, -0.053, 0.053, 0.999, 429.819, 131.864)"/><path class="b" d="M1065.384,340.753a7.917,7.917,0,0,1-1.278,4.119c-.4.608-3.682,4.017-4.584,3.09-.975-1-1.788-3.809-1.964-7.152-.179-3.376.343-6.274,1.225-7.352.637-.772,3.127.976,3.657,1.372a7.139,7.139,0,0,1,2.943,5.923Z" transform="translate(-625.827 -197.221)"/><g transform="translate(427.234 130.244)"><path class="i" d="M1050.008,320.623a8.042,8.042,0,0,0-3.225-1.559c-.192-.045-.273.249-.081.294a7.7,7.7,0,0,1,3.09,1.482c.155.118.371-.094.216-.216Z" transform="translate(-1046.592 -319.059)"/></g><g transform="translate(425.862 133.346)"><path class="i" d="M1046.758,327.972a14.385,14.385,0,0,0-3.335-1.31.153.153,0,0,0-.082.294,13.994,13.994,0,0,1,3.262,1.278c.176.1.326-.167.155-.261Z" transform="translate(-1043.232 -326.657)"/></g><g transform="translate(425.535 138.02)"><path class="i" d="M1046.026,338.223a24.943,24.943,0,0,1-3.449-.114c-.2-.02-.2.286,0,.306a24.934,24.934,0,0,0,3.449.114c.2-.008.2-.314,0-.306Z" transform="translate(-1042.43 -338.108)"/></g><g transform="translate(425.53 141.887)"><path class="i" d="M1045.693,347.621a8.073,8.073,0,0,0-3.168.31.153.153,0,0,0,.082.294,7.9,7.9,0,0,1,3.086-.3c.2.025.2-.282,0-.3Z" transform="translate(-1042.419 -347.581)"/></g><g transform="translate(425.62 145.355)"><path class="i" d="M1046.211,356.081q-1.745.484-3.466,1.033c-.188.061-.106.355.082.294,1.147-.363,2.3-.71,3.466-1.033a.153.153,0,0,0-.082-.294Z" transform="translate(-1042.639 -356.074)"/></g><g transform="translate(425.873 149.114)"><path class="i" d="M1047.116,365.295a18.976,18.976,0,0,0-3.788,1.89c-.163.106-.012.371.155.265a18.6,18.6,0,0,1,3.715-1.861c.18-.065.1-.363-.082-.294Z" transform="translate(-1043.258 -365.285)"/></g><g transform="translate(427.761 153.088)"><path class="i" d="M1051.377,375.044a21.7,21.7,0,0,0-3.445,2.617c-.143.135.073.351.216.216a21.346,21.346,0,0,1,3.384-2.568c.167-.106.012-.371-.155-.265Z" transform="translate(-1047.885 -375.02)"/></g><g transform="translate(431.019 156.044)"><path class="i" d="M1057.23,382.313c-.445.563-.886,1.131-1.331,1.694-.118.155.094.372.217.216.445-.563.886-1.131,1.331-1.694.119-.151-.1-.372-.216-.216Z" transform="translate(-1055.865 -382.26)"/></g><path class="m" d="M930.8,375.181h4.364a1.092,1.092,0,0,0,1.09-1.09v-.661a1.092,1.092,0,0,0-1.09-1.09H930.8a1.092,1.092,0,0,0-1.09,1.09v.661A1.092,1.092,0,0,0,930.8,375.181Z" transform="translate(-550.189 -220.346)"/><path class="m" d="M916.136,363.414l2.621,3.494a1.089,1.089,0,0,0,1.527.216l.527-.4a1.088,1.088,0,0,0,.216-1.527l-2.621-3.494a1.089,1.089,0,0,0-1.527-.216l-.527.4A1.1,1.1,0,0,0,916.136,363.414Z" transform="translate(-542.028 -213.796)"/><circle class="n" cx="2.315" cy="2.315" r="2.315" transform="translate(376.68 150.823)"/><g transform="translate(371.181 131.853)"><path class="m" d="M913.774,343.649l.535,5.1a.713.713,0,0,0,.78.633l.429-.045a.713.713,0,0,0,.633-.78l-.535-5.1a.713.713,0,0,0-.78-.633l-.429.045A.713.713,0,0,0,913.774,343.649Z" transform="translate(-911.937 -334.73)"/><path class="m" d="M917.451,325.41l-3.229,3.98a.712.712,0,0,0,.106,1l.335.269a.712.712,0,0,0,1-.106l3.229-3.98a.712.712,0,0,0-.106-1l-.335-.269A.716.716,0,0,0,917.451,325.41Z" transform="translate(-912.111 -324.271)"/><path class="m" d="M911.964,323.829l.535,5.1a.713.713,0,0,0,.78.633l.429-.045a.713.713,0,0,0,.633-.78l-.535-5.1a.713.713,0,0,0-.78-.633l-.429.045A.713.713,0,0,0,911.964,323.829Z" transform="translate(-910.866 -323.001)"/><path class="b" d="M909.28,336.529a2.686,2.686,0,0,0,5.372,0C914.652,335.047,909.28,335.047,909.28,336.529Z" transform="translate(-909.28 -330.349)"/></g><g transform="translate(361.011 136.59)"><path class="m" d="M900.66,350.963l4.2,2.939a.713.713,0,0,0,.992-.176l.245-.351a.713.713,0,0,0-.176-.992l-4.2-2.939a.713.713,0,0,0-.992.176l-.245.351A.713.713,0,0,0,900.66,350.963Z" transform="translate(-893.829 -343.311)"/><path class="m" d="M891.811,335.627l1.408,4.927a.714.714,0,0,0,.878.49l.412-.118a.714.714,0,0,0,.49-.878l-1.408-4.927a.713.713,0,0,0-.878-.49l-.412.118A.71.71,0,0,0,891.811,335.627Z" transform="translate(-888.756 -334.605)"/><path class="m" d="M884.731,342.711l4.482,2.486a.712.712,0,0,0,.968-.278l.208-.376a.712.712,0,0,0-.278-.967l-4.482-2.486a.712.712,0,0,0-.968.278l-.208.376A.72.72,0,0,0,884.731,342.711Z" transform="translate(-884.367 -338.389)"/><path class="b" d="M894.526,348.689a2.688,2.688,0,1,0,3.082-4.4C896.391,343.44,893.309,347.84,894.526,348.689Z" transform="translate(-890.213 -340.27)"/></g><circle class="n" cx="2.315" cy="2.315" r="2.315" transform="translate(372.046 144.708)"/><g transform="translate(393.803 151.814)"><g transform="translate(0 6.396)"><path class="m" d="M996.034,392.952l2.4-3.209a1.227,1.227,0,0,0-.261-1.71l-.3-.22a1.234,1.234,0,0,0-1.719.233l-2.4,3.209a1.227,1.227,0,0,0,.261,1.71l.3.22A1.23,1.23,0,0,0,996.034,392.952Z" transform="translate(-981.754 -387.565)"/><g transform="translate(0 6.11)"><path class="m" d="M983.685,407.765l2.711-3.8a.9.9,0,0,0-.22-1.27h0a.94.94,0,0,0-1.29.229l-2.71,3.8a.9.9,0,0,0,.22,1.27h0A.94.94,0,0,0,983.685,407.765Z" transform="translate(-974.94 -402.533)"/><path class="m" d="M965.776,420.575l4.621-.821a.927.927,0,0,0,.755-1.061h0a.915.915,0,0,0-1.065-.735l-4.621.821a.927.927,0,0,0-.755,1.061h0A.913.913,0,0,0,965.776,420.575Z" transform="translate(-964.698 -411.653)"/><path class="m" d="M971.985,423.725l2.711-3.8a.9.9,0,0,0-.221-1.27h0a.94.94,0,0,0-1.29.229l-2.711,3.8a.9.9,0,0,0,.22,1.27h0A.94.94,0,0,0,971.985,423.725Z" transform="translate(-968.016 -411.978)"/><path class="b" d="M978.71,417.341a2.613,2.613,0,0,0-.245-3.731,2.71,2.71,0,0,0-3.784.278C973.705,414.994,977.734,418.447,978.71,417.341Z" transform="translate(-970.516 -408.708)"/></g><g transform="translate(11.273 7)"><path class="m" d="M995.4,409.876l-1.273-4.482a.941.941,0,0,0-1.139-.649h0a.9.9,0,0,0-.637,1.123l1.273,4.482a.941.941,0,0,0,1.139.649h0A.9.9,0,0,0,995.4,409.876Z" transform="translate(-992.314 -404.714)"/><path class="m" d="M994.57,427.548l1.841-4.233a.923.923,0,0,0-.486-1.208h0a.921.921,0,0,0-1.212.461l-1.841,4.233a.923.923,0,0,0,.486,1.208h0A.914.914,0,0,0,994.57,427.548Z" transform="translate(-992.6 -414.96)"/><path class="m" d="M1001.8,426.491l-1.735-4.331a.94.94,0,0,0-1.2-.527h0a.906.906,0,0,0-.514,1.184l1.735,4.331a.94.94,0,0,0,1.2.527h0A.909.909,0,0,0,1001.8,426.491Z" transform="translate(-995.851 -414.691)"/><path class="b" d="M998.351,417.5a2.724,2.724,0,0,0-3.3-1.882,2.614,2.614,0,0,0-1.845,3.249C993.608,420.29,998.751,418.919,998.351,417.5Z" transform="translate(-992.781 -411.115)"/></g><ellipse class="n" cx="2.278" cy="2.315" rx="2.278" ry="2.315" transform="matrix(0.532, -0.847, 0.847, 0.532, 8.463, 6.664)"/></g><path class="m" d="M1007.982,377.381l2.27-3.331a1.254,1.254,0,0,0-.314-1.719l-.3-.212a1.21,1.21,0,0,0-1.694.3l-2.27,3.331a1.254,1.254,0,0,0,.314,1.719l.3.212A1.208,1.208,0,0,0,1007.982,377.381Z" transform="translate(-988.82 -371.898)"/><ellipse class="n" cx="2.278" cy="2.315" rx="2.278" ry="2.315" transform="matrix(0.932, -0.362, 0.362, 0.932, 13.85, 4.631)"/></g><g transform="translate(433.755 120.317)"><g transform="translate(4.44 9.277)"><path class="h" d="M1073.736,318.079a45.32,45.32,0,0,1,5.07.8c.384.082.547-.506.163-.592a47.267,47.267,0,0,0-5.233-.821c-.392-.041-.388.572,0,.612Z" transform="translate(-1073.444 -317.465)"/></g><path class="h" d="M1063.85,300.516a9.364,9.364,0,0,0-.723-5.617c-.163-.359-.69-.049-.531.31a8.626,8.626,0,0,1,.661,5.148c-.065.38.522.547.592.159Z" transform="translate(-1062.568 -294.739)"/><g transform="translate(2.43 3.734)"><path class="h" d="M1069.031,307.8c1.3-1.563,3.282-2.2,4.911-3.331.323-.225.016-.755-.31-.531-1.678,1.159-3.7,1.817-5.037,3.425-.245.306.184.739.437.437Z" transform="translate(-1068.521 -303.887)"/></g></g><circle class="f" cx="0.408" cy="0.408" r="0.408" transform="translate(97.004 55.517)"/><circle class="d" cx="0.816" cy="0.816" r="0.816" transform="translate(333.36 68.172)"/><circle class="d" cx="0.408" cy="0.408" r="0.408" transform="translate(521.547 125.322)"/><circle class="d" cx="0.816" cy="0.816" r="0.816" transform="translate(150.888 84.5)"/><circle class="f" cx="1.633" cy="1.633" r="1.633" transform="translate(471.336 6.531)"/><circle class="f" cx="0.816" cy="0.816" r="0.816" transform="translate(523.996 235.54)"/><circle class="f" cx="0.408" cy="0.408" r="0.408" transform="translate(157.42 227.783)"/><circle class="f" cx="0.408" cy="0.408" r="0.408" transform="translate(284.374 35.923)"/><circle class="f" cx="0.408" cy="0.408" r="0.408" transform="translate(449.293 63.681)"/><circle class="f" cx="0.408" cy="0.408" r="0.408" transform="translate(161.094 6.123)"/><circle class="d" cx="0.408" cy="0.408" r="0.408" transform="translate(428.066 215.537)"/><circle class="d" cx="0.408" cy="0.408" r="0.408" transform="translate(361.118)"/><circle class="d" cx="0.408" cy="0.408" r="0.408" transform="translate(320.297 135.935)"/><circle class="d" cx="1.633" cy="1.633" r="1.633" transform="translate(116.598 150.223)"/><circle class="d" cx="0.408" cy="0.408" r="0.408" transform="translate(497.462 165.327)"/><circle class="d" cx="0.408" cy="0.408" r="0.408" transform="translate(384.387 251.052)"/><circle class="d" cx="0.408" cy="0.408" r="0.408" transform="translate(226 55.109)"/><circle class="f" cx="0.408" cy="0.408" r="0.408" transform="translate(557.878 56.742)"/><circle class="f" cx="0.408" cy="0.408" r="0.408" transform="translate(594.209 182.88)"/><circle class="f" cx="0.408" cy="0.408" r="0.408" transform="translate(231.306 17.553)"/><path class="o" d="M694.421,408.986c-8.589-9.675-16.753-10.43-24.693-3.466s-10.744,18.909-1.914,28.355h0l0,0,0,0h0c8.838,9.438,20.945,7.43,28.42-.029S703.508,418.2,694.421,408.986Z" transform="translate(-391.976 -237.255)"/><g transform="translate(152.117 368.552)"><path class="p" d="M388.911,933.169H372.64v-5.976l13.728-22.6h10.65v21.954h4.319v6.629h-4.319v8.993h-8.107Zm0-6.629v-6.095c0-2.425.237-6.037.355-8.4h-.237c-.947,2.07-2.012,4.2-3.078,6.331l-4.972,8.164Z" transform="translate(-372.64 -903.876)"/><path class="p" d="M449.11,922.189c0-12.781,5.384-19.349,13.43-19.349s13.434,6.568,13.434,19.349-5.384,19.647-13.434,19.647S449.11,934.971,449.11,922.189Zm18.639,0c0-10.3-2.249-12.6-5.209-12.6-2.9,0-5.209,2.306-5.209,12.6,0,10.238,2.306,12.9,5.209,12.9C465.5,935.089,467.749,932.427,467.749,922.189Z" transform="translate(-417.894 -902.84)"/><path class="p" d="M536.951,933.169H520.68v-5.976l13.728-22.6h10.65v21.954h4.319v6.629h-4.319v8.993h-8.107Zm0-6.629v-6.095c0-2.425.237-6.037.355-8.4h-.237c-.947,2.07-2.013,4.2-3.078,6.331l-4.972,8.164Z" transform="translate(-460.248 -903.876)"/><path class="p" d="M598.01,930.093a5.269,5.269,0,1,1,5.266,5.446A5.262,5.262,0,0,1,598.01,930.093Zm0,19.17a5.269,5.269,0,1,1,5.266,5.446A5.262,5.262,0,0,1,598.01,949.263Z" transform="translate(-506.011 -915.711)"/><path class="p" d="M650.84,962.725c0-4.033,3.217-6.242,10.814-7.017a2.66,2.66,0,0,0-3.025-2.792,10.215,10.215,0,0,0-5.078,1.743L651.5,950.9a15.878,15.878,0,0,1,8.217-2.519c4.923,0,7.638,2.792,7.638,8.683v11.01H662.7l-.388-1.976h-.155a8.375,8.375,0,0,1-5.58,2.441A5.53,5.53,0,0,1,650.84,962.725Zm10.818-.229v-3.372c-4.033.543-5.348,1.706-5.348,3.18,0,1.241.853,1.821,2.208,1.821A4.3,4.3,0,0,0,661.658,962.5Z" transform="translate(-537.275 -929.79)"/><path class="p" d="M713.24,949.53h5.735l2.482,9.07c.5,1.9,1.008,3.915,1.51,5.931h.155c.465-2.017.967-4.033,1.474-5.931l2.519-9.07h5.466L726.3,968.757h-6.589Z" transform="translate(-574.202 -930.471)"/><path class="p" d="M761,958.469c0-6.4,4.5-10.079,9.381-10.079,4.845,0,9.344,3.682,9.344,10.079s-4.5,10.079-9.344,10.079C765.494,968.548,761,964.866,761,958.469Zm12.908,0c0-3.335-1.2-5.466-3.527-5.466-2.364,0-3.527,2.131-3.527,5.466s1.163,5.466,3.527,5.466C772.708,963.935,773.908,961.8,773.908,958.469Z" transform="translate(-602.466 -929.796)"/><path class="p" d="M812.52,931.017A3.31,3.31,0,1,1,815.814,934,3.017,3.017,0,0,1,812.52,931.017Zm.465,5.813h5.7v19.227h-5.7Z" transform="translate(-632.955 -917.771)"/><path class="p" d="M834.55,947.621c0-6.278,3.915-10.079,7.985-10.079a6.289,6.289,0,0,1,4.727,2.017l-.233-2.947V930.06h5.7v27.175h-4.654l-.388-1.9h-.155a7.614,7.614,0,0,1-5.115,2.364C837.652,957.7,834.55,953.9,834.55,947.621Zm12.483,3.682v-7.87a4.551,4.551,0,0,0-3.18-1.241c-1.821,0-3.449,1.706-3.449,5.348,0,3.8,1.278,5.5,3.49,5.5A3.6,3.6,0,0,0,847.033,951.3Z" transform="translate(-645.992 -918.948)"/><path class="p" d="M903.88,958.469c0-6.4,4.5-10.079,9.381-10.079,4.845,0,9.344,3.682,9.344,10.079s-4.5,10.079-9.344,10.079C908.379,968.548,903.88,964.866,903.88,958.469Zm12.908,0c0-3.335-1.2-5.466-3.527-5.466-2.364,0-3.527,2.131-3.527,5.466s1.163,5.466,3.527,5.466C915.588,963.935,916.788,961.8,916.788,958.469Z" transform="translate(-687.02 -929.796)"/><path class="p" d="M954.35,947.621c0-6.278,3.915-10.079,7.985-10.079a6.289,6.289,0,0,1,4.727,2.017l-.233-2.947V930.06h5.7v27.175h-4.654l-.388-1.9h-.155a7.613,7.613,0,0,1-5.115,2.364C957.452,957.7,954.35,953.9,954.35,947.621Zm12.483,3.682v-7.87a4.552,4.552,0,0,0-3.18-1.241c-1.821,0-3.449,1.706-3.449,5.348,0,3.8,1.278,5.5,3.49,5.5A3.6,3.6,0,0,0,966.833,951.3Z" transform="translate(-716.888 -918.948)"/><path class="p" d="M1004.834,975.883l1.008-4.344a6.239,6.239,0,0,0,1.278.233,3.267,3.267,0,0,0,3.372-2.519l.274-1.008-7.4-18.725h5.735l2.751,8.258c.543,1.743,1.008,3.568,1.51,5.466h.155c.425-1.821.853-3.645,1.319-5.466l2.327-8.258h5.466l-6.666,19.423c-1.821,4.846-3.878,7.327-8.413,7.327A8.755,8.755,0,0,1,1004.834,975.883Z" transform="translate(-745.891 -930.465)"/><path class="p" d="M1050.16,965.864l2.56-3.568a8.284,8.284,0,0,0,4.96,2.017c1.706,0,2.441-.621,2.441-1.629,0-1.278-1.939-1.861-3.915-2.637-2.327-.89-5.078-2.482-5.078-5.658,0-3.568,2.906-6.009,7.364-6.009a11.06,11.06,0,0,1,6.785,2.441l-2.56,3.409a7.094,7.094,0,0,0-4.07-1.629c-1.474,0-2.172.543-2.172,1.515,0,1.241,1.784,1.706,3.76,2.441,2.441.89,5.192,2.249,5.192,5.776,0,3.486-2.751,6.2-7.907,6.2A12.334,12.334,0,0,1,1050.16,965.864Z" transform="translate(-773.587 -929.79)"/><path class="p" d="M1089.84,965.864l2.559-3.568a8.285,8.285,0,0,0,4.96,2.017c1.706,0,2.441-.621,2.441-1.629,0-1.278-1.939-1.861-3.915-2.637-2.327-.89-5.078-2.482-5.078-5.658,0-3.568,2.906-6.009,7.364-6.009a11.062,11.062,0,0,1,6.785,2.441l-2.56,3.409a7.1,7.1,0,0,0-4.07-1.629c-1.473,0-2.172.543-2.172,1.515,0,1.241,1.784,1.706,3.76,2.441,2.441.89,5.193,2.249,5.193,5.776,0,3.486-2.751,6.2-7.907,6.2A12.324,12.324,0,0,1,1089.84,965.864Z" transform="translate(-797.069 -929.79)"/><path class="p" d="M1130.8,958.469c0-6.241,4.458-10.079,9.07-10.079,5.466,0,8.181,3.992,8.181,9.226a12.74,12.74,0,0,1-.233,2.519h-11.512a4.648,4.648,0,0,0,5,4.07,7.743,7.743,0,0,0,4.147-1.278l1.9,3.449a12.585,12.585,0,0,1-6.821,2.172C1135.025,968.548,1130.8,964.825,1130.8,958.469Zm12.4-2.094c0-2.131-.931-3.645-3.217-3.645-1.784,0-3.335,1.2-3.723,3.645Z" transform="translate(-821.308 -929.796)"/><path class="p" d="M1174.908,975.883l1.008-4.344a6.243,6.243,0,0,0,1.278.233,3.267,3.267,0,0,0,3.372-2.519l.27-1.008-7.405-18.725h5.735l2.751,8.258c.543,1.743,1.008,3.568,1.51,5.466h.155c.425-1.821.853-3.645,1.319-5.466l2.327-8.258h5.466l-6.666,19.423c-1.821,4.846-3.874,7.327-8.413,7.327A8.747,8.747,0,0,1,1174.908,975.883Z" transform="translate(-846.536 -930.465)"/></g></g></g></svg>