<svg xmlns="http://www.w3.org/2000/svg" xmlns:xlink="http://www.w3.org/1999/xlink" viewBox="4853 1642 180 180"><defs><style>.a{clip-path:url(#a);}.b{fill:#596d81;}.c,.f,.g{fill:#091440;}.d{fill:#fff;}.e{clip-path:url(#c);}.f{opacity:0.5;}.g{opacity:0.25;}</style><clipPath id="a"><circle cx="90" cy="90" r="90"/></clipPath><clipPath id="c"><path d="M66.7,97.8l8.4,28.1c0,4.4-6.6,12.5-3.1,15.1,4.9,3.7,12.6,8.2,21.4,8.2a23.163,23.163,0,0,0,20.8-12.3s4.1-22.3,5.1-30.4C120.4,98.3,66.7,97.8,66.7,97.8Z"/></clipPath></defs><g transform="translate(4853 1642)"><g class="a"><circle class="b" cx="90" cy="90" r="90"/></g><g class="a"><path class="c" d="M176,200.6H22V149.1l45-22.6,48.8,1.9,47.8,31.8Z"/><path class="d" d="M66.7,97.8c-.1,6.3-.2,18.2-.2,18.2-.5,3.6-2,10.8-3.4,12.3,0,5,5.7,10.4,9.8,13.4,4.9,3.5,12.2,7.4,20.4,7.4a23.163,23.163,0,0,0,20.8-12.3s4.1-22.3,5.1-30.4C120.4,98.3,66.7,97.8,66.7,97.8Z"/><g class="e"><path class="f" d="M78.8,111.1s6.9,10.7,14.3,15.6,24.9,9.4,33.9,4-2.7-29-2.7-29-42.5,1.7-43,1.7C80.7,103.2,72.1,102.5,78.8,111.1Z"/></g><path class="d" d="M128.6,70s3.3,8,2.5,16.2-1.2,18.5-4,22.6-4.5,5-7.6,9.2-7.7,6.1-18.6,5.2S80,119.4,71.3,106.5,60.7,74.9,62.1,63.8s6.2-21,13.9-32.7c14-21.2,31.4-13.2,35.9-9.7s15,10.4,16.6,23.9A109.873,109.873,0,0,1,128.6,70Z"/><path class="c" d="M83.5,72.1a13.848,13.848,0,0,1,1.9-1.9,15.24,15.24,0,0,1,2.3-1.6c.5-.2.9-.5,1.4-.7s1-.4,1.6-.6c.3-.1.6-.1.8-.2a2.769,2.769,0,0,1,.9-.1,4.966,4.966,0,0,1,1.8.2,6.713,6.713,0,0,1,1.5.6,4.44,4.44,0,0,1,1.1.8,7.514,7.514,0,0,1,1.3,1.5,2.767,2.767,0,0,1,.4.7,2.475,2.475,0,0,0-.6-.4c-.4-.2-1-.6-1.7-.9-.3-.1-.7-.3-1.1-.4l-1.2-.3a4.8,4.8,0,0,0-1.2,0L92,69l-.7.2a7.838,7.838,0,0,0-1.4.5c-.5.2-.9.3-1.4.5-.9.4-1.7.7-2.5,1C84.6,71.7,83.5,72.1,83.5,72.1Z"/><path class="c" d="M93.9,69.8c.1-1.4-.7-1.6-2.1-1.7s-3-.1-3.1,1.4a2.656,2.656,0,0,0,2.4,2.8A2.746,2.746,0,0,0,93.9,69.8Z"/><path class="g" d="M87,64.7a66.831,66.831,0,0,1,12-1.1c3.2,0,.2-3.4-3.2-4.2s-11.8.4-15.2,3a10.09,10.09,0,0,0-3.9,6.2A27.806,27.806,0,0,1,87,64.7Z"/><path class="c" d="M114.8,69.4a4.282,4.282,0,0,1,.9-1.6,4.349,4.349,0,0,1,.7-.6,7.017,7.017,0,0,1,.9-.6c.3-.1.7-.3,1.1-.4.2,0,.4-.1.6-.1h.6c.4,0,.8.1,1.2.1a4.874,4.874,0,0,1,1.1.4l.9.6a4.349,4.349,0,0,1,.7.6,5.939,5.939,0,0,1,.8,1.1,1.01,1.01,0,0,1,.2.5,4.2,4.2,0,0,0-.5-.2,9.744,9.744,0,0,1-1.1-.5c-.2-.1-.5-.2-.7-.3-.3-.1-.5-.1-.8-.2-.3,0-.5-.1-.8-.1s-.6-.1-.8,0a8.873,8.873,0,0,0-3.2.8A6.958,6.958,0,0,0,114.8,69.4Z"/><path class="g" d="M115.2,62.9c.2-2.8,1.7-4.1,5.8-4.4,5.2-.4,7.1,3,7.5,5.4l.4,2.3s-2.6-3.7-6.7-3.7A39.8,39.8,0,0,0,115.2,62.9Z"/><circle class="c" cx="2.6" cy="2.6" r="2.6" transform="translate(115.579 71.312) rotate(-86.099)"/><path class="f" d="M120,86.2s-3.5,4.7-8.3,4.8a15.787,15.787,0,0,1-11.3-3.7C111.9,89.4,120,86.2,120,86.2Z"/><path class="f" d="M91.5,99.1a49.876,49.876,0,0,0,7.3,1.5c4.5.6,7.9,1.3,11.6.8,7.2-.9,10.9-3.2,10.9-3.2a8.372,8.372,0,0,1-3.7,0c-2.6-.4-4.3-.6-5.9,0s-3.1-.3-5.3-.4a84.085,84.085,0,0,0-8.9.8C95.5,98.8,91.5,99.1,91.5,99.1Z"/><path class="d" d="M101.3,25.8s4.6-.2,5.1,7.3c.4,7.5,1.6,18.2,8.4,26.1-6.2-18.3-2.8-31.1-2.8-31.1a56.7,56.7,0,0,1,4.3,13.6c3.3,15.5,8.5,16,11,20.7,1.4,2.6,1.3,7.6,1.3,7.6l2.1,7.6c2.1-2.8,6.3-18.7,6.3-25.1,0-12.1-8.3-24.7-15.3-32S105.8,9.7,97,14.4c-5.5-6-10-6.9-23.6.7s-22,22.2-25.2,38.3c-2.4,11.8,2.2,30.1,5.5,39.2s8.8,19.5,10.9,21l1.9,2.4.2-18.2c-1-6.2-4.5-14.7.1-26.3l1.3,3.2a16.947,16.947,0,0,0,8.5-9.5l2.4-7s1,4.7,4.5,7c0,0-2.7-9.4,0-17.4s6-7.7,12.5-18C98.4,26,101.3,25.8,101.3,25.8Z"/><path class="g" d="M101.3,25.8s4.6-.2,5.1,7.3c.4,7.5,1.6,18.2,8.4,26.1-6.2-18.3-2.8-31.1-2.8-31.1a56.7,56.7,0,0,1,4.3,13.6c3.3,15.5,8.5,16,11,20.7,1.4,2.6,1.3,7.6,1.3,7.6l2.1,7.6c2.1-2.8,6.3-18.7,6.3-25.1,0-12.1-8.3-24.7-15.3-32S105.8,9.7,97,14.4c-5.5-6-10-6.9-23.6.7s-22,22.2-25.2,38.3c-2.4,11.8,2.2,30.1,5.5,39.2s8.8,19.5,10.9,21l1.9,2.4.2-18.2c-1-6.2-4.5-14.7.1-26.3l1.3,3.2a16.947,16.947,0,0,0,8.5-9.5l2.4-7s1,4.7,4.5,7c0,0-2.7-9.4,0-17.4s3.9-6.1,12.7-15.6A60.219,60.219,0,0,0,101.3,25.8Z"/><path class="d" d="M69.4,93.2s-.2,6.2-5.4,4.7S57.1,74,57.1,74a36.77,36.77,0,0,0,2.8,6.5c2.6,4.7,5.8,5.5,5.8,5.5l3.7-3.8v11Z"/><path class="f" d="M104.5,105.4a13.013,13.013,0,0,0,8.2,0s.1,3.1-4.1,3.3C104.4,109,104.5,105.4,104.5,105.4Z"/></g></g></svg>