<svg xmlns="http://www.w3.org/2000/svg" viewBox="0 0 57.42 57.42"><defs><style>.a{fill:#e7eaed;}</style></defs><circle class="a" cx="28.71" cy="28.71" r="28.71" transform="translate(0 0)"/><path d="M12.81,28.84C12.81,22,17.34,18,22.57,18a8.75,8.75,0,0,1,6.21,2.69l-2.47,3A5.26,5.26,0,0,0,22.67,22c-2.82,0-5.07,2.51-5.07,6.66s2,6.72,5,6.72a5.51,5.51,0,0,0,4-1.94l2.47,2.92a8.49,8.49,0,0,1-6.69,3C17.18,39.42,12.81,35.78,12.81,28.84Z"/><path d="M31.81,35.27h4.37V23.64H32.41V20.76a14.3,14.3,0,0,0,5-1.84h3.42V35.27H44.6V39H31.81Z"/></svg>