<svg xmlns="http://www.w3.org/2000/svg" xmlns:xlink="http://www.w3.org/1999/xlink" viewBox="1538 2257 180 180"><defs><style>.a{clip-path:url(#a);}.b{fill:#3ad7a4;}.c,.e,.f{fill:#091440;}.d{fill:#fff;}.e{opacity:0.5;}.f{opacity:0.8;}.g,.h{fill:none;stroke:#091440;stroke-miterlimit:10;}.g{stroke-width:0.165px;}.h{stroke-width:1.647px;}</style><clipPath id="a"><circle cx="90" cy="90" r="90"/></clipPath></defs><g transform="translate(1538 2257)"><g class="a"><circle class="b" cx="90" cy="90" r="90"/></g><g class="a"><path class="c" d="M167,202.7H13V151.2l54-28.1,42.8,4.1L167,157.4Z"/><path class="d" d="M95.3,132.2c-14.4-6.6-22.4-24.7-22.4-24.7L113,118.2c-7.3-15.7-46-29.7-46-29.7a289.567,289.567,0,0,1,.1,29c0,6.1-3.9,7-5.2,9.7s11.4,23.2,27.9,23c12.7-.1,19.2-4.9,22.4-15.2C108.1,135.7,102.4,135.5,95.3,132.2Z"/><path class="d" d="M95.3,132.2c7.1,3.3,12.8,3.5,16.8,2.8a52.046,52.046,0,0,0,2-10.8,10.818,10.818,0,0,0-1.2-6L72.8,107.5C72.9,107.5,80.9,125.6,95.3,132.2Z"/><path class="e" d="M95.3,132.2c7.1,3.3,12.8,3.5,16.8,2.8a52.046,52.046,0,0,0,2-10.8,10.818,10.818,0,0,0-1.2-6L72.8,107.5C72.9,107.5,80.9,125.6,95.3,132.2Z"/><path class="c" d="M119.7,69.4l15.3.7V66.7H119.7Z"/><path class="d" d="M129.7,80.2c-.1-4-2.1-5.8-.5-17.5,2-14.6-4.1-22.4-4.1-22.4A94.727,94.727,0,0,0,114.2,28c-6.8-6.6-29.7-4.1-39.3,2.9-9.3,6.8-10.6,15.6-10.4,41.4h-.3s.1.9.3,2.3h0s-.3,2.4,2.4,13.9a101.646,101.646,0,0,0,4,15.3c3.8,9.6,17.5,21.6,29.4,23.3,16.9,2.3,17.6-2.2,19.6-6.9a83.323,83.323,0,0,0,4.4-11.8c1-3.3,4.5-11.6,3.7-16.8C128.7,87.7,129.8,84.3,129.7,80.2Z"/><path class="f" d="M93.7,60.8c5.5,1,10,1.9,10.3-1.2s-10.8-4.4-16.6-3.1a16.438,16.438,0,0,0-9,6.2A28.079,28.079,0,0,1,93.7,60.8Z"/><path class="c" d="M85.5,70.8l.3-.6a9.177,9.177,0,0,1,1.1-1.5,7.821,7.821,0,0,1,2.2-1.6,6.606,6.606,0,0,1,1.5-.5,6.373,6.373,0,0,0,.7-.2c.3,0,.5-.1.8-.1a4.3,4.3,0,0,1,1.6,0,4.193,4.193,0,0,1,1.6.4,5.67,5.67,0,0,1,1.3.8,7.8,7.8,0,0,1,1.9,2.4l.3.6a4.574,4.574,0,0,1-.6-.4c-.4-.2-.9-.6-1.5-1a7.5,7.5,0,0,0-2-1,6.28,6.28,0,0,0-2.4-.1,1.952,1.952,0,0,0-.7.1c-.2,0-.5.1-.7.1l-1.2.3a14.46,14.46,0,0,0-2.2.9C86.4,70.2,85.5,70.8,85.5,70.8Z"/><path class="c" d="M94,68.9a2.851,2.851,0,0,0-5.6.6A2.872,2.872,0,0,0,91.5,72,2.7,2.7,0,0,0,94,68.9Z"/><circle class="c" cx="2.6" cy="2.6" r="2.6" transform="translate(118 67.1)"/><path class="c" d="M116.2,71a2.8,2.8,0,0,1,.1-.6,4.1,4.1,0,0,1,.8-1.4,6.615,6.615,0,0,1,1.8-1.4,6.117,6.117,0,0,1,1.2-.5c.4-.1.9-.2,1.3-.3l.7-.1h.7a1.7,1.7,0,0,1,.7.1,1.421,1.421,0,0,1,.6.2,6.117,6.117,0,0,1,1.2.5c.3.2.6.5.9.7a2.918,2.918,0,0,1,.8,1.4,2.8,2.8,0,0,1,.1.6,6.687,6.687,0,0,0-1.6-1.1,6.891,6.891,0,0,0-.8-.3,2.92,2.92,0,0,0-.9-.2,3.352,3.352,0,0,0-1,0h-.5l-.6.1a13.807,13.807,0,0,0-3.9,1.1A9.042,9.042,0,0,0,116.2,71Z"/><path class="e" d="M102.4,91.4a44.932,44.932,0,0,0,9.1.1c7.9-.4,8.4-1.4,8.4-1.4a6.822,6.822,0,0,1-4.6,3.8C110.2,95.2,105.9,94.3,102.4,91.4Z"/><path class="d" d="M114.2,61.6c-1.1-2,3.1-4,8.4-3.9,4.9.1,7,2.5,7.1,4.2a11.175,11.175,0,0,1-.8,3.5s.5-3.8-3.9-4C120.5,61.3,115.7,64.2,114.2,61.6Z"/><path class="f" d="M114.2,61.6c-1.1-2,3.1-4,8.4-3.9,4.9.1,7,2.5,7.1,4.2a11.175,11.175,0,0,1-.8,3.5s.5-3.8-3.9-4C120.5,61.3,115.7,64.2,114.2,61.6Z"/><path class="e" d="M98,103a97.073,97.073,0,0,0,14,.7c6.1-.4,7.9-1.2,7.9-1.2s-2.9-.6-4.7-1.1a4.84,4.84,0,0,0-3.3.3,4.742,4.742,0,0,0-2.1-.5C107,101.1,98,103,98,103Z"/><path class="g" d="M100.7,80.2h0a66.308,66.308,0,0,1-17.8,0h0a3.4,3.4,0,0,1-2.9-3l-.8-8.8A3.318,3.318,0,0,1,82,64.8l.4-.1a71.6,71.6,0,0,1,18.5,0l.4.1a3.258,3.258,0,0,1,2.8,3.6l-.6,8.7C103.3,79.4,102.2,80,100.7,80.2Z"/><path class="c" d="M103.5,74.5s0-.6.1-1.8a14.8,14.8,0,0,1,.1-2c0-.8.1-1.7.1-2.6a3.025,3.025,0,0,0-1.3-2.1,2.836,2.836,0,0,0-1.3-.4c-.6-.1-1.2-.1-1.7-.2-2.4-.2-4.9-.3-7.4-.3s-5.1.2-7.4.4c-.6.1-1.2.1-1.7.2-.3,0-.6.1-.8.1s-.2.1-.3.1-.2.1-.3.1a2.645,2.645,0,0,0-1.4,1.7,4.034,4.034,0,0,0,0,1.1,4.483,4.483,0,0,0,.1,1.2v2a14.066,14.066,0,0,1-.1,1.8l-.8.2a13.691,13.691,0,0,1-.4-1.7c-.1-.6-.2-1.2-.3-2,0-.4-.1-.8-.1-1.2a8.478,8.478,0,0,1,0-1.6,4.075,4.075,0,0,1,2.3-3c.2-.1.3-.1.5-.2a1.087,1.087,0,0,1,.5-.1,3.085,3.085,0,0,1,.9-.1,11.019,11.019,0,0,1,1.8-.2,62.714,62.714,0,0,1,7.6-.3c2.6.1,5.2.3,7.6.6a11.019,11.019,0,0,0,1.8.2,4.9,4.9,0,0,1,1.9.7,3.638,3.638,0,0,1,1.6,3.2c-.1,1-.2,1.9-.3,2.6a19.092,19.092,0,0,0-.2,2c-.1,1.1-.2,1.8-.2,1.8Z"/><path class="g" d="M117,80.2h0a45.319,45.319,0,0,0,14.7,0h0a3.4,3.4,0,0,0,2.9-3l.8-8.8a3.318,3.318,0,0,0-2.8-3.6l-.4-.1a50.351,50.351,0,0,0-15.5,0l-.4.1a3.258,3.258,0,0,0-2.8,3.6l.6,8.7C114.3,79.4,115.4,80,117,80.2Z"/><path class="c" d="M113.5,74.5s-.3-2.4-.6-5.9A2.968,2.968,0,0,1,113,67a3.359,3.359,0,0,1,.9-1.5,3.072,3.072,0,0,1,1.5-1,2.92,2.92,0,0,1,.9-.2c.3,0,.5-.1.8-.1,1.1-.2,2.3-.3,3.5-.4s2.4-.1,3.6-.1c2.4,0,4.8.1,7,.3.6.1,1.1.1,1.7.2a4.332,4.332,0,0,0,.5.1c.2,0,.3.1.5.2a2.177,2.177,0,0,1,.8.5,4.139,4.139,0,0,1,1.6,3.1c0,.6-.1,1-.1,1.4a4.484,4.484,0,0,0-.1,1.1q-.15,1.05-.3,1.8a14.7,14.7,0,0,1-.4,1.6l-.7-.1a10.757,10.757,0,0,1-.1-1.6V70.4a5.284,5.284,0,0,1,.1-1.2c0-.4.1-.9.1-1.2a2.234,2.234,0,0,0-1-1.8,3.128,3.128,0,0,0-1-.5c-.4-.1-1-.1-1.6-.2-2.2-.2-4.5-.4-6.9-.4h-3.5a16.856,16.856,0,0,0-3.3.3c-.3,0-.6.1-.8.1-.3,0-.4.1-.7.1a2.589,2.589,0,0,0-1.1.7,2.865,2.865,0,0,0-.8,2.2c.2,3.6.2,5.9.2,5.9Z"/><path class="h" d="M113.3,67.4a19.412,19.412,0,0,0-9.1,0"/><path class="c" d="M63.9,69.4l15.3.7V66.7H63.9Z"/><path class="f" d="M128,91.4l-3.2,8.3s.1-2.3-3.3-3.7S110,93.3,98.7,96s-7.1,7.8-8.7,10.2-5.3-.4-4.7-6.6a18.032,18.032,0,0,1-8.1-2.7c-3.3-2.4-5.3-9.2-7.5-24.7H67.2s0,21.9,3.8,31.5,17.5,21.6,29.4,23.3c16.9,2.3,17.6-2.2,19.6-6.9a83.323,83.323,0,0,0,4.4-11.8C125.3,104.9,128.8,96.7,128,91.4Zm-11.8,23.8c-3.1,1.7-4.2-2.4-4.2-2.4h0a7.8,7.8,0,0,0,4.2-2.7s-3.4.1-4.1-2.6h-4.9s-1.4,3.5-6.9,3.7a21.593,21.593,0,0,0,5.9,1.8h-.1s-1.3,3.8-4.4,3.3-7.7-5.1-8-8.8c-.1-2,0-3.4,1.8-4.8,1.8-1.3,7.6-2.8,14-3.1s9.9-.3,11.3,1.4C122.4,102.7,119.3,113.5,116.2,115.2Z"/><path class="c" d="M69.7,72.2a106.579,106.579,0,0,1,0-13.1c.5-4.6,4.8-5.9,5.4-8.3s-3.8-12.2,2.1-16.7c8.3-6.2,19.9-9.3,31.7-4.5s17.3,12.5,17.3,12.5,7.6-17.7-16.1-27.4c-18.3-7.5-25.2,6.5-25.2,6.5a46.825,46.825,0,0,0-19.4,9.6c-8.9,7.6-9.7,24-6.3,31.9a32.282,32.282,0,0,0,8.3,11.8Z"/><path class="d" d="M67.5,74.5c-3.9-11.8-9.7-11.8-11.8-6.8-.9,2.3-1.3,13.2,4.2,18.8,5.4,5.6,8.3,5,8.3,5Z"/></g></g></svg>