<svg xmlns="http://www.w3.org/2000/svg" viewBox="0 0 180 180"><defs><style>.cls-1{fill:#2f74fb;}.cls-2{fill:#091440;}.cls-3{fill:#fff;}.cls-4{fill:#848aa0;}</style></defs><title>marcelo</title><g id="illustrations_c"><circle id="_Path_" data-name="&lt;Path&gt;" class="cls-1" cx="90" cy="90" r="90"/><path class="cls-2" d="M136.57,141.08a16.18,16.18,0,0,0,1.91-11.33s1.66-.94,5.56-9.22-2.84-11.35-7-18-9.69-33.23-12.77-49S115,36.69,106.07,34.21c-2.26-4.5-10.22-7.1-17.26-7.69s-17.38-.59-27,7.21-18.92,26-18.33,44c-5.09,6.84-9.27,14-6.87,23.71,2.8,11.32,6.51,12.7,4.73,18.76-2,6.86-10.72,2.5-10.72,2.5s-2.36,7,3.3,15.63l-14.87,7.07a90,90,0,0,0,138.16,4.39ZM63.22,97.56s-3.44,3-6.89-6.7c5.91-3.34,6.79-1.87,7.78-10.33S63,56.81,70.21,50.12s15-8,22.85-8.17c7.65-.19,13.25.4,16.9,4.14A26.82,26.82,0,0,1,117.74,62c.22,1.73.37,3.06.48,4.12-.85-1.71-2.59-1.62-5.9-1.49a6.47,6.47,0,0,0-6.12,4.1c-.59,1.68,6.06-.61,9.21-.54s3,1.93,3,1.93v0a14.64,14.64,0,0,1-.26,1.57c-.39,2-.59,3.91.3,10.11s.79,9,0,13.09-1,11.12-7.29,17.91c-2.43,7.13-3.9,9.58-9.39,10.83-.33,2.27-.72,4.41-1.28,6.76a43.27,43.27,0,0,1-3.36,10.27c-3,5.79-15.42,7.77-21.92,5.22-11.85-4.66-14.5-14.67-14.5-14.67s3.54-15.89,3.9-24.09c0-1,.11-1.89.19-2.73A20.87,20.87,0,0,1,63.22,97.56Z"/><path class="cls-3" d="M60.69,131.22s2.65,10,14.5,14.67c6.5,2.55,19,.57,21.92-5.22a43.27,43.27,0,0,0,3.36-10.27s0,0,0,.08c-2.44.08-4.31.3-7.39-1.34-4.48-2.37-8.81-7.9-12.86-12.47,1.39.64,2.82,1.23,4.31,1.75,4.17,2.76,10.2,6.59,16.4,5.4l.84-.18c5.49-1.25,7-3.7,9.39-10.83,6.29-6.79,6.5-13.88,7.29-17.91s.88-6.89,0-13.09-.69-8.07-.3-10.11a14.64,14.64,0,0,0,.26-1.57v0s.18-1.87-3-1.93-9.8,2.22-9.21.54a6.47,6.47,0,0,1,6.12-4.1c3.31-.13,5.05-.22,5.9,1.49-.11-1.06-.26-2.39-.48-4.12A26.82,26.82,0,0,0,110,46.09c-3.65-3.74-9.25-4.33-16.9-4.14-7.86.2-15.67,1.48-22.85,8.17s-5.12,21.95-6.1,30.41-1.87,7-7.78,10.33c3.45,9.65,6.89,6.7,6.89,6.7a20.87,20.87,0,0,0,1.56,6.84c-.08.84-.15,1.74-.19,2.73C64.23,115.33,60.69,131.22,60.69,131.22ZM86,73.78a2.23,2.23,0,1,1-4.46-.19s0,0,0-.07h0c-1.1.33-2.21.76-3.43,1.11a9.41,9.41,0,0,1,2.79-2.54,8.63,8.63,0,0,1,3.71-1.23A6.56,6.56,0,0,1,91,74.64a19.6,19.6,0,0,0-3.22-1.42,8.58,8.58,0,0,0-2-.35A2.13,2.13,0,0,1,86,73.78ZM98.63,113c-1-.18-.85-2.12,1-3s3.35-1.1,4.6.48C106.56,113.48,99.66,113.23,98.63,113Zm7.15-8.42c-1.15.19-2.76,1.4-6.12.91a58.42,58.42,0,0,0-11.88,0s6.58-1.47,8.16-2.07,3-.23,5.27.19,2.81-1.15,4.38-1.09,2.43,1.22,4.37,1.22C108.26,104.93,106.93,104.44,105.78,104.62Zm2.67-32.85a5.34,5.34,0,0,1,2.94-1.06,4.12,4.12,0,0,1,3.06,1.2,4.46,4.46,0,0,1,1.26,2.73,16.05,16.05,0,0,0-2.21-1.48,4.19,4.19,0,0,0-1.31-.4,2.3,2.3,0,0,1,.21,1,2.24,2.24,0,0,1-4.47-.19v0c-.43.16-.88.32-1.37.46A5.83,5.83,0,0,1,108.45,71.77ZM97,93.48c1.88-.32,2.85-.43,6.85.6s5.51-.54,5.51-.54.36,2.36-2.79,4.06-6.17-1.22-7.57-1.46-5.15-.85-5.93-3.27A7.44,7.44,0,0,0,97,93.48ZM78,65.25c3.27-1.21,8.56-.59,12.66.24,5.34,1.08,4.06,4.48,1.76,4.3s-8.91-1.45-12.54-1.15a28.76,28.76,0,0,0-7.51,1.93S74.76,66.46,78,65.25Z"/><path class="cls-4" d="M100.91,123.82c-6.2,1.19-12.23-2.64-16.4-5.4-1.49-.52-2.92-1.11-4.31-1.75,4,4.57,8.38,10.1,12.86,12.47,3.08,1.64,5,1.42,7.39,1.34,0,0,0,0,0-.08.56-2.35,1-4.49,1.28-6.76Z"/><path class="cls-2" d="M107.93,73.59a2.24,2.24,0,0,0,4.47.19,2.3,2.3,0,0,0-.21-1,4.19,4.19,0,0,1,1.31.4,16.05,16.05,0,0,1,2.21,1.48,4.46,4.46,0,0,0-1.26-2.73,4.12,4.12,0,0,0-3.06-1.2,5.34,5.34,0,0,0-2.94,1.06A5.83,5.83,0,0,0,106.56,74c.49-.14.94-.3,1.37-.46Z"/><path class="cls-2" d="M91,74.64a6.56,6.56,0,0,0-6.47-3.77,8.63,8.63,0,0,0-3.71,1.23A9.41,9.41,0,0,0,78,74.64c1.22-.35,2.33-.78,3.43-1.11h0s0,0,0,.07a2.23,2.23,0,1,0,4.46.19,2.13,2.13,0,0,0-.15-.91,8.58,8.58,0,0,1,2,.35A19.6,19.6,0,0,1,91,74.64Z"/><path class="cls-2" d="M92.45,69.79c2.3.18,3.58-3.22-1.76-4.3C86.59,64.66,81.3,64,78,65.25s-5.63,5.32-5.63,5.32a28.76,28.76,0,0,1,7.51-1.93C83.54,68.34,90.15,69.61,92.45,69.79Z"/><path class="cls-4" d="M99,96.14c1.4.24,4.42,3.15,7.57,1.46s2.79-4.06,2.79-4.06-1.51,1.57-5.51.54-5-.92-6.85-.6a7.44,7.44,0,0,1-3.93-.61C93.84,95.29,97.6,95.9,99,96.14Z"/><path class="cls-4" d="M101.21,103.65c-2.22-.42-3.7-.8-5.27-.19s-8.16,2.07-8.16,2.07a58.42,58.42,0,0,1,11.88,0c3.36.49,5-.72,6.12-.91s2.48.31,4.18-.84c-1.94,0-2.79-1.16-4.37-1.22S103.43,104.08,101.21,103.65Z"/><path class="cls-4" d="M99.66,110.08c-1.88.84-2.06,2.78-1,3s7.93.44,5.63-2.48C103,109,101.54,109.23,99.66,110.08Z"/></g></svg>