<svg xmlns="http://www.w3.org/2000/svg" xmlns:xlink="http://www.w3.org/1999/xlink" viewBox="4379 1642 180 180"><defs><style>.a{clip-path:url(#a);}.b{fill:#3ad7a4;}.c,.f{fill:#091440;}.d{fill:#fff;}.e{clip-path:url(#c);}.f{opacity:0.5;}</style><clipPath id="a"><circle cx="90" cy="90" r="90"/></clipPath><clipPath id="c"><path d="M63.4,96.1s2.2,20.9,0,28.6a33.262,33.262,0,0,1-1.6,4.5A9.427,9.427,0,0,0,65.6,141a56.35,56.35,0,0,0,27.7,8.5c20.9.4,24-10.3,24.6-14.3s1.6-25.3,1.6-25.3Z"/></clipPath></defs><g transform="translate(4379 1642)"><g class="a"><circle class="b" cx="90" cy="90" r="90"/></g><g class="a"><path class="c" d="M167,202.8H13V151.3l50-24.1,53.4.1,57.2,30.2Z"/><path class="d" d="M63.4,96.1s2.2,20.9,0,28.6a33.262,33.262,0,0,1-1.6,4.5A9.427,9.427,0,0,0,65.6,141a56.35,56.35,0,0,0,27.7,8.5c20.9.4,24-10.3,24.6-14.3s1.6-25.3,1.6-25.3Z"/><g class="e"><path class="f" d="M70.3,107.2s8.2,19.7,26.2,29.1c20.2,10.5,33.7-7.3,33.7-7.3l-16-27.4Z"/></g><path class="c" d="M63.4,96.1s1.8,12.9,8.2,20.4a52.011,52.011,0,0,0,19.5,13.8c9.7,4.1,18,2.6,21.4,1s4.7-8.5,8.6-14c2.2-3-1.6-4-1.6-4Z"/><path class="d" d="M64.2,40.9c7.4-10.7,12.1-14.4,20.5-15.5s28.7-1,33.8,4.2,5.6,8,7.7,14.6,1.5,16.4,1.5,16.4-.6,12.8.1,19.8,1.5,13.4.6,17.9c-1,4.5-2.5,13.7-9.9,22.3-7.4,8.7-8.1,9.6-13.6,9.6-7.6,0-13.4-.6-23.6-9.6S69,108.7,65.8,100c-3.1-8.7-3-28-2.4-33.1S64.2,40.9,64.2,40.9Z"/><path class="c" d="M82,70.9a1.3,1.3,0,0,1,.3-.7,6.556,6.556,0,0,1,1.2-1.6,4.44,4.44,0,0,1,1.1-.8c.4-.2.9-.4,1.4-.6a7.58,7.58,0,0,1,1.6-.3h1.6a9,9,0,0,1,1.6.3,8.8,8.8,0,0,1,1.5.5c.5.2.9.4,1.3.6a10.539,10.539,0,0,1,1.1.7,7.651,7.651,0,0,1,1.9,1.8s-1-.4-2.4-.8c-.4-.1-.7-.2-1.1-.3s-.8-.2-1.3-.3c-.4-.1-.9-.2-1.3-.3-.5-.1-.9-.1-1.4-.2a6.6,6.6,0,0,0-1.4-.1,5.7,5.7,0,0,0-1.3.1c-.4.1-.8.1-1.2.2a4.874,4.874,0,0,0-1.1.4A7.938,7.938,0,0,0,82,70.9Z"/><path class="c" d="M81.3,67.9a6.122,6.122,0,0,1,.6-.5,7.418,7.418,0,0,1,1.6-1,14.467,14.467,0,0,1,2.5-1,7.719,7.719,0,0,1,1.5-.2h1.6c.5,0,1.1.1,1.6.1l1.5.3a7.838,7.838,0,0,1,1.4.5,10.907,10.907,0,0,1,1.1.6,7.04,7.04,0,0,1,1.5,1.2,4.574,4.574,0,0,1,.4.6A6.122,6.122,0,0,0,96,68a7.579,7.579,0,0,0-1.6-.9c-.3-.1-.7-.3-1.1-.4s-.9-.2-1.3-.3a13.576,13.576,0,0,0-2.9-.3H87.6c-.5,0-1,.1-1.4.1-.9.2-1.8.4-2.5.6-.7.3-1.3.5-1.7.7C81.5,67.8,81.3,67.9,81.3,67.9Z"/><path class="c" d="M76.2,65.6a34.613,34.613,0,0,1,3.9-1.4,24.353,24.353,0,0,1,9.2-.9c4.3.2,12,1.8,12.3-.2.3-1.9-2-3.6-6.9-4-4.9-.5-9.1-.4-12.5,1.3A18.469,18.469,0,0,0,76.2,65.6Z"/><path class="c" d="M91,69.6c0-1.4-1.1-2.1-2.5-2.1s-2.5.7-2.5,2.1a2.5,2.5,0,0,0,5,0Z"/><path class="c" d="M127.4,71.2a9.646,9.646,0,0,0,.8-5.6c-.5-2.8-2.5-4.5-6.5-4.8s-5.6.4-6.3,1.5c-.8,1-.3,3.7,3.8,3.1C123.4,64.9,127.5,66.5,127.4,71.2Z"/><path class="c" d="M113.1,70.9a6.107,6.107,0,0,1,1.6-1.4,5.284,5.284,0,0,1,2-.9c.4-.1.8-.2,1.3-.3a5.7,5.7,0,0,1,1.3-.1,5.067,5.067,0,0,1,1.3.2l.3.1h.2l.1.1c.2.1.4.1.6.2a10.907,10.907,0,0,1,1.1.6,3.043,3.043,0,0,1,.8.8,4.423,4.423,0,0,1,.8,1.5,2.8,2.8,0,0,1,.1.6,5.585,5.585,0,0,0-1.6-1.2c-.3-.1-.5-.2-.8-.3l-.9-.3a4.331,4.331,0,0,1-.5-.1h-.5a3.75,3.75,0,0,0-1.1-.1,17.992,17.992,0,0,0-4.1.3A13.833,13.833,0,0,0,113.1,70.9Z"/><path class="c" d="M113.1,69.1a7.073,7.073,0,0,1,1.9-1.4c.3-.2.7-.3,1-.5.4-.1.8-.3,1.2-.4s.9-.2,1.4-.3a6.6,6.6,0,0,1,1.4-.1,6.15,6.15,0,0,1,1.4.1c.2,0,.5.1.7.1s.4.1.7.1a6.373,6.373,0,0,0,.7.2l.6.3a3.592,3.592,0,0,1,1,.7,3.5,3.5,0,0,1,.9,1.5,1.36,1.36,0,0,1,0,.7,3.224,3.224,0,0,1-.2-.6,4.837,4.837,0,0,0-1-1.2c-.3-.2-.6-.3-.9-.5-.3-.1-.7-.2-1.1-.3-.2,0-.4-.1-.6-.1h-.7a5.652,5.652,0,0,0-1.3,0,21.115,21.115,0,0,0-2.6.2l-1.2.3c-.4.1-.7.2-1,.3A19.361,19.361,0,0,0,113.1,69.1Z"/><path class="c" d="M120.5,70.7c0-1.4-1.1-2.1-2.5-2.1s-2.5.7-2.5,2.1a2.5,2.5,0,0,0,5,0Z"/><path class="f" d="M97.9,91.8s5.6,2.9,11.2,1.9,7.3-3.4,7.3-3.4a76.028,76.028,0,0,0-9,.2A57.411,57.411,0,0,0,97.9,91.8Z"/><path class="f" d="M93.3,107.4s3.1-1,5.2-1.8a71.62,71.62,0,0,1,7.5-2.7c1.3-.1,1.1.6,2.7.6s2.4-1.2,3.6-.6,2.4,2.6,4.1,3c-2.5,1-3.8-.2-5.2-.2a57.5,57.5,0,0,0-9.8,1A52.111,52.111,0,0,1,93.3,107.4Z"/><path class="c" d="M102.7,113.8s5.6.8,9.8-.5a47.856,47.856,0,0,1-4.9,11.4C107.5,124.7,105.3,117.3,102.7,113.8Z"/><path class="c" d="M81.2,120.7S64.3,109.3,67.8,79.5a97.085,97.085,0,0,1,7-25.9s-4.7-5.7-4.8-11,4.9-8.8,10-9.2,17.8.7,27.6,5.8c3.1-3.5,8.3-5,8.3-5s2.3.3,5.2,4.4c4.1,5.9,7,14.4,6.6,22.1a58.056,58.056,0,0,0,0-17.3,136.167,136.167,0,0,0-4.5-17.2C109.3,16.3,96.7,14.4,86,16.8a35.077,35.077,0,0,0-17.2,9.8A22.552,22.552,0,0,0,56.3,41.5c-4.1,16.3,2.8,31.7,2.8,31.7s4.1.5,3.8,3.4-.2,17.1.4,19.5C67.5,114.5,81.2,120.7,81.2,120.7Z"/><path class="d" d="M59.9,93.9c-2-4.3-.7-7.1-1.9-10.9s-4.6-8.4-1.9-10.8,4.4-1.8,6.9,1.1.4,22.9.4,22.9Z"/></g></g></svg>