<?xml version="1.0" encoding="utf-8"?>
<!-- Generator: Adobe Illustrator 22.1.0, SVG Export Plug-In . SVG Version: 6.00 Build 0)  -->
<svg version="1.1" id="Layer_1" xmlns="http://www.w3.org/2000/svg" xmlns:xlink="http://www.w3.org/1999/xlink" x="0px" y="0px"
	 viewBox="0 0 57.4 57.4" style="enable-background:new 0 0 57.4 57.4;" xml:space="preserve">
<style type="text/css">
	.st0{fill:#E7EAED;}
</style>
<title>eeter</title>
<circle class="st0" cx="28.7" cy="28.7" r="28.7"/>
<g>
	<path d="M35.4,17.9v2.1h-1.7l0,3.4h-2.1l0-3.4h-6v-1.8l5.2-6.8h2.5l-4.6,6.5h2.9v-2.4h2.1v2.4H35.4z"/>
	<path d="M41.5,20.1c-0.2,0.2-0.4,0.4-0.6,0.6c-0.2,0.2-0.4,0.4-0.6,0.6h4v2.1h-7.6v-1.4l0.4-0.4c0.3-0.3,0.6-0.6,0.9-0.9
		c0.3-0.3,0.6-0.6,0.9-0.9c0.3-0.3,0.7-0.7,1-1.1c0.7-0.7,1.2-1.3,1.5-1.8c0.4-0.5,0.6-0.8,0.8-1.1c0.2-0.3,0.3-0.5,0.3-0.6
		c0-0.1,0.1-0.2,0.1-0.2c0-0.3-0.1-0.5-0.2-0.7c-0.1-0.2-0.2-0.4-0.4-0.6c-0.2-0.2-0.4-0.3-0.6-0.4c-0.2-0.1-0.5-0.2-0.7-0.2
		c-0.3,0-0.5,0.1-0.7,0.2c-0.2,0.1-0.4,0.2-0.6,0.4c-0.2,0.2-0.3,0.4-0.4,0.6c-0.1,0.2-0.1,0.5-0.1,0.7h-2.1c0-0.5,0.1-1,0.3-1.5
		c0.2-0.5,0.5-0.9,0.9-1.3c0.4-0.4,0.8-0.7,1.3-0.9c0.5-0.2,1-0.3,1.5-0.3c0.5,0,1,0.1,1.5,0.3c0.5,0.2,0.9,0.5,1.3,0.9
		c0.4,0.4,0.6,0.8,0.8,1.3c0.2,0.5,0.3,1,0.3,1.5c0,0.3-0.1,0.7-0.3,1.1c-0.2,0.4-0.4,0.9-0.8,1.4C43.1,18.3,42.4,19.2,41.5,20.1z"
		/>
	<path d="M28.2,40.8c0.3-1.1,0.5-2.4,0.5-3.7v-0.4c0-1.4-0.2-2.6-0.5-3.7c-0.3-1.1-0.8-2.1-1.4-2.9c-0.6-0.8-1.4-1.4-2.3-1.9
		c-0.9-0.5-1.9-0.7-3.1-0.7c-1.1,0-2,0.2-2.7,0.5c-0.8,0.4-1.4,0.9-2,1.5v-9.4h-4V46h3.6l0.2-1.9c0.6,0.7,1.3,1.3,2.1,1.7
		c0.8,0.4,1.8,0.6,2.9,0.6c1.2,0,2.2-0.2,3.1-0.7c0.9-0.5,1.6-1.1,2.2-1.9C27.4,42.9,27.9,41.9,28.2,40.8z M24.4,34.5
		c0.1,0.7,0.2,1.5,0.2,2.3v0.4c0,0.8-0.1,1.6-0.2,2.3c-0.1,0.7-0.4,1.3-0.7,1.9c-0.3,0.5-0.8,1-1.3,1.3c-0.5,0.3-1.2,0.5-1.9,0.5
		c-1,0-1.8-0.2-2.4-0.7c-0.6-0.4-1.1-1-1.4-1.7v-7.5c0.3-0.7,0.8-1.3,1.4-1.7c0.6-0.4,1.4-0.7,2.3-0.7c0.8,0,1.4,0.2,2,0.5
		c0.5,0.3,1,0.7,1.3,1.3C24,33.1,24.3,33.7,24.4,34.5z"/>
</g>
</svg>
