<svg id="illustrations" xmlns="http://www.w3.org/2000/svg" xmlns:xlink="http://www.w3.org/1999/xlink" viewBox="0 0 180 180"><defs><style>.cls-1{fill:none;}.cls-2{clip-path:url(#clip-path);}.cls-3{fill:#3ad7a4;}.cls-4{fill:#091440;}.cls-5{fill:#fff;}.cls-6{fill:#848aa0;}</style><clipPath id="clip-path"><circle id="_Clipping_Path_" data-name="&lt;Clipping Path&gt;" class="cls-1" cx="90" cy="90" r="90"/></clipPath></defs><title>raedah</title><g id="_Clip_Group_" data-name="&lt;Clip Group&gt;"><g class="cls-2"><circle id="_Path_" data-name="&lt;Path&gt;" class="cls-3" cx="90" cy="90" r="90"/><polygon id="_Path_2" data-name="&lt;Path&gt;" class="cls-4" points="64.84 126.67 11.91 149.79 8.14 186.12 171.86 186.12 158.66 152.33 102.26 127.48 64.84 126.67"/><g id="_Group_" data-name="&lt;Group&gt;"><path id="_Path_3" data-name="&lt;Path&gt;" class="cls-5" d="M64,89s-.09,18.45-2.8,29.44c-1.93,7.84-4.76,11.91-4.76,11.91s8.46,19.48,26.44,20S103,139.26,103,139.26l6.7-26.31L64.22,83.68Z"/><path id="_Path_4" data-name="&lt;Path&gt;" class="cls-6" d="M73.12,105.85c3.27,9.42,5.59,26.51,16.34,30.39,11.31,4.09,15.55-3.57,15.55-3.57l2.33-18Z"/><path id="_Path_5" data-name="&lt;Path&gt;" class="cls-5" d="M123.08,66.85s5.48-24.27-2.58-34.67S106,18.71,93.69,18.43,72.61,23,66.14,39.13s-1.29,32.44-.26,39.17S68.7,95.93,70.11,101s8.28,15.75,12,19.32c2.52,2.46,12.66,13.28,23.59,5.5s13.68-17,15.48-25.72A105,105,0,0,0,123.08,66.85Z"/><path id="_Path_6" data-name="&lt;Path&gt;" class="cls-4" d="M109.09,66c3.93-.77,8.25-1.51,11.53-1.32s2.65,4.83,2.65,4.83-.14-2.18-4.44-1.46c-5.21.87-9.51.94-10.54-.11S109.09,66,109.09,66Z"/><g id="_Group_2" data-name="&lt;Group&gt;"><g id="_Group_3" data-name="&lt;Group&gt;"><path id="_Path_7" data-name="&lt;Path&gt;" class="cls-4" d="M121,73a3.69,3.69,0,0,0-.45-.49,6,6,0,0,0-.56-.46,5.72,5.72,0,0,0-.75-.48,7.3,7.3,0,0,0-2-.68,9.46,9.46,0,0,0-1.22-.15c-.41,0-.85,0-1.28,0-.12,0-.44,0-.65,0a4.35,4.35,0,0,0-.59.07,6.27,6.27,0,0,0-1.12.26,7.35,7.35,0,0,0-1.92,1,9.62,9.62,0,0,0-1.26,1.08,5.84,5.84,0,0,0-.46.49,4.08,4.08,0,0,1,.11-.69,5,5,0,0,1,.27-.75,5.06,5.06,0,0,1,.51-.92,5.33,5.33,0,0,1,.85-1,5.25,5.25,0,0,1,1.19-.83,5.82,5.82,0,0,1,1.48-.56,5.4,5.4,0,0,1,.8-.14c.27,0,.41,0,.77-.05a10,10,0,0,1,1.54.12A3.35,3.35,0,0,1,117,69a5,5,0,0,1,.72.22A5.74,5.74,0,0,1,120,70.72a4,4,0,0,1,.94,1.63A2.54,2.54,0,0,1,121,73Z"/></g><circle id="_Path_8" data-name="&lt;Path&gt;" class="cls-4" cx="113.83" cy="72.38" r="2.69"/></g><g id="_Group_4" data-name="&lt;Group&gt;"><g id="_Group_5" data-name="&lt;Group&gt;"><path id="_Path_9" data-name="&lt;Path&gt;" class="cls-4" d="M92.13,72.74a3.85,3.85,0,0,0-.55-.45A6.18,6.18,0,0,0,90,71.52a8.27,8.27,0,0,0-2.31-.42,10,10,0,0,0-1.34,0c-.46,0-.93.06-1.4.11a9.25,9.25,0,0,0-1.35.24,6.53,6.53,0,0,0-1.21.38c-.2.07-.38.17-.56.25a3.81,3.81,0,0,0-.53.29,8.26,8.26,0,0,0-.92.64,8.82,8.82,0,0,0-1.7,1.81,3.66,3.66,0,0,1,.08-.74A5.63,5.63,0,0,1,80.4,71.2a5.5,5.5,0,0,1,1.21-.94,5.59,5.59,0,0,1,.73-.38,4.33,4.33,0,0,1,.79-.31,9.39,9.39,0,0,1,1.62-.35,12.69,12.69,0,0,1,1.63-.06,4.25,4.25,0,0,1,.8.07,6.85,6.85,0,0,1,.79.13,6.37,6.37,0,0,1,2.62,1.16A4.37,4.37,0,0,1,91.89,72,2.39,2.39,0,0,1,92.13,72.74Z"/></g><circle id="_Path_10" data-name="&lt;Path&gt;" class="cls-4" cx="84.74" cy="72.62" r="2.69"/><path id="_Path_11" data-name="&lt;Path&gt;" class="cls-4" d="M94.14,67.58c1.51-1.41-4.69-3.3-12.52-3.4s-8.12,1.89-8.31,3.62l-.18,1.73s-.31-2.23,5.42-1.92S92.67,69,94.14,67.58Z"/></g><path id="_Path_12" data-name="&lt;Path&gt;" class="cls-6" d="M109.69,93.05a6.79,6.79,0,0,1-.39.77,10.3,10.3,0,0,1-1.36,1.82,11.83,11.83,0,0,1-10.31,1.59,9.42,9.42,0,0,1-2.8-1.79,4.68,4.68,0,0,1-1.33-2,2.65,2.65,0,0,1-.12-.66v-.23l.17.15a5.37,5.37,0,0,0,.48.38,7.51,7.51,0,0,0,1.79.85,17.38,17.38,0,0,0,5.85,1.33A12.14,12.14,0,0,0,107,94.3c.78-.34,1.46-.66,1.94-.89Z"/><path id="_Path_13" data-name="&lt;Path&gt;" class="cls-6" d="M92.48,106.62s2.16-2.52,8.68-2.22c4.1.19,5.13.2,6.18.81s2.93,1.8,2.93,1.8l-5.74.83H99.41Z"/><path id="_Path_14" data-name="&lt;Path&gt;" class="cls-4" d="M110.27,107s-.36-.44-4.07,0c-3.3.39-5.44,1-9.28.12a20.19,20.19,0,0,0-4-.5h-.42s4.17,2.12,7.12,2.39C103.94,109.39,108.39,107.46,110.27,107Z"/><path id="_Compound_Path_" data-name="&lt;Compound Path&gt;" class="cls-4" d="M83.36,119.41c.73,5.18,5.07,14.08,14.74,15,6.13.58,12.57-1,15-3.7,5.24-5.73,7-22.68,2.47-27.22-2-2-6.41-2.84-13.4-3.11A48.54,48.54,0,0,0,90,101c-3.6.46-4.58,2-5.91,5.6S82.63,114.23,83.36,119.41Zm3.45-8c.38-3.43,1.53-5.51,10.43-6s13.23.29,14.93,1.7,2,7.67-.69,11.9-6.55-.28-6.44-3.54a14.88,14.88,0,0,1-8.45-.49s-2.23,4.45-5.42,4.83S86.42,114.83,86.81,111.39Z"/><path id="_Path_15" data-name="&lt;Path&gt;" class="cls-5" d="M66.24,77.49c-1.74-8-3-10.23-7.46-10.24-6.72,0-6.74,10.42-2.22,19.4s5.22,8.82,8.08,8.18C73.52,92.86,67.78,84.62,66.24,77.49Z"/><path id="_Path_16" data-name="&lt;Path&gt;" class="cls-4" d="M123.08,66.85s1.9-4.14,2.55-15.11c.66-11.13-.72-22.18-13-30.75-9.82-6.84-25.24-8.25-39.71,2.52C61.38,32.06,58.44,45.67,59.7,56.15a108.41,108.41,0,0,0,4.82,20c6.32-9.16,1.93-22.06,7-34.07,4.9-11.69,14.94-13.4,22.4-10.36a39.48,39.48,0,0,1,9.36,5.87s3.35-5.46,8.33-5.6,10.47,6.36,11.2,15.92A182.74,182.74,0,0,1,123.08,66.85Z"/></g></g></g></svg>