<svg xmlns="http://www.w3.org/2000/svg" xmlns:xlink="http://www.w3.org/1999/xlink" viewBox="0 0 180 186.85"><defs><style>.cls-1{fill:none;}.cls-2{clip-path:url(#clip-path);}.cls-3{fill:#3ad7a4;}.cls-4{fill:#091440;}.cls-5{fill:#fff;}.cls-6{fill:#848aa0;}.cls-7{clip-path:url(#clip-path-2);}</style><clipPath id="clip-path"><circle id="_Clipping_Path_" data-name="&lt;Clipping Path&gt;" class="cls-1" cx="90" cy="90" r="90"/></clipPath><clipPath id="clip-path-2"><path id="_Clipping_Path_2" data-name="&lt;Clipping Path&gt;" class="cls-1" d="M94.55,95.77s2.14-.91,6.85-.85,7.55,1.63,10,1.21a23.75,23.75,0,0,1,6.34-.57c2.5.15,1.72,1.47-1.18,3.95s-6.46,3.2-12.44,1A47.8,47.8,0,0,1,94.55,95.77Z"/></clipPath></defs><title>Asset 1</title><g id="Layer_2" data-name="Layer 2"><g id="illustrations"><g id="_Clip_Group_" data-name="&lt;Clip Group&gt;"><g class="cls-2"><circle id="_Path_" data-name="&lt;Path&gt;" class="cls-3" cx="90" cy="90" r="90"/><polygon id="_Path_2" data-name="&lt;Path&gt;" class="cls-4" points="67.8 122.36 12.61 144.27 8.67 186.85 179.81 186.85 166.02 146.92 106.63 127.33 67.8 122.36"/><g id="_Group_" data-name="&lt;Group&gt;"><path id="_Path_3" data-name="&lt;Path&gt;" class="cls-4" d="M72.1,110.61s-2.19-4-9.2-16-9.45-17.93-7.51-37.39S67,33.59,72.82,30s17.73-13.25,29.65-12.94,15.88,2.24,20.37,9.78c.82-7-6.21-11.31-6.21-11.31s11.51,5.71,11.31,15-5.1,12.33-5.1,12.33,2.25,1.12,4.08,5,1.8,16,.09,21.35a28.67,28.67,0,0,1-6,9.73Z"/><path id="_Path_4" data-name="&lt;Path&gt;" class="cls-5" d="M66.09,81.19s1.83,13,.92,22.87-4.79,21-4.79,21S68.09,139.5,88,141.17c13.05,1.09,18.82-2.11,21.59-4.54,0,0,3.25-9.09,4-16.56,1.36-13.21,2.78-18.46,2.78-18.46l-41-16.06Z"/><path id="_Path_5" data-name="&lt;Path&gt;" class="cls-6" d="M72.36,102.76c2.91,11.46,7.24,20.44,15.45,25,13.4,7.39,24.22.85,24.22.85l2.39-9.92Z"/><path id="_Path_6" data-name="&lt;Path&gt;" class="cls-5" d="M108.58,120.7c8.63-1.52,9.78-11,13-16.51s3.77-8.35,5.4-11.92,3.26-6.52,1.53-11.41-2.14-7.83-1.73-10.49.21-1,.66-3.48,0-3.44-1.06-5.54-.11-5.15-2.66-10.86S118.05,38.88,112.45,37s-17.83-4-28.83,2.1S74.35,55,81.17,57.94c-6.83,6.22-9,10.46-9.78,24.08S74,104.5,79.24,111.12,101.65,121.92,108.58,120.7Z"/><path id="_Path_7" data-name="&lt;Path&gt;" class="cls-6" d="M101.95,84.63c.66,2.71,6.21,4.1,11.16,4.36s7.53-2.51,7.73-4c-2.77,1.39-9,1.78-13.61,1S101.95,84.63,101.95,84.63Z"/><g id="_Group_2" data-name="&lt;Group&gt;"><path id="_Path_8" data-name="&lt;Path&gt;" class="cls-4" d="M101.95,69.83s-.87-.35-2.08-.7a16.87,16.87,0,0,0-2.06-.43c-.37-.05-.75-.09-1.14-.11h-.57a5.92,5.92,0,0,0-.62,0,10.27,10.27,0,0,0-1.14.1c-.38.05-.76.12-1.13.2-.74.16-1.45.38-2.09.54a12.37,12.37,0,0,1-1.6.36,4.47,4.47,0,0,1-.64.05l.47-.42c.3-.26.71-.63,1.26-1a9.38,9.38,0,0,1,2.05-1.2A7.8,7.8,0,0,1,94,66.77a7.57,7.57,0,0,1,1.46-.19c.27,0,.48,0,.7,0h.37l.36,0a7.59,7.59,0,0,1,1.36.32,7.24,7.24,0,0,1,2.15,1.13A5.38,5.38,0,0,1,101.95,69.83Z"/></g><g id="_Group_3" data-name="&lt;Group&gt;"><path id="_Path_9" data-name="&lt;Path&gt;" class="cls-4" d="M100.49,66.66a11.2,11.2,0,0,0-3.56-.79,9.12,9.12,0,0,0-1,0c-.34,0-.69.06-1,.09s-.69.12-1,.19-.67.17-1,.27-.62.22-.91.32l-.81.34c-.52.19-.91.43-1.21.56l-.48.21.36-.37a7.09,7.09,0,0,1,1-.9c.23-.16.48-.35.77-.52s.6-.32.93-.47.69-.26,1.05-.38.75-.17,1.14-.25.78-.08,1.16-.06A6.46,6.46,0,0,1,97,65a6.68,6.68,0,0,1,1.89.58A5,5,0,0,1,100.49,66.66Z"/></g><path id="_Path_10" data-name="&lt;Path&gt;" class="cls-4" d="M92.35,68.87c0-1.22.89-1.3,2.1-1.3s2.3-.68,2.3,1.3a2.2,2.2,0,0,1-4.4,0Z"/><path id="_Path_11" data-name="&lt;Path&gt;" class="cls-4" d="M116.63,69.44a3,3,0,0,1,2.1-1.3c1.22,0,2.3-.68,2.3,1.3a2.2,2.2,0,0,1-4.4,0Z"/><path id="_Path_12" data-name="&lt;Path&gt;" class="cls-4" d="M105.57,63.47c1.27.12,2.48-2.05,1.21-2.35A87.62,87.62,0,0,0,96.39,59.6c-3.68-.24-10.63,5.25-10.63,5.25s7-2,11-2.17A43.52,43.52,0,0,1,105.57,63.47Z"/><path id="_Path_13" data-name="&lt;Path&gt;" class="cls-4" d="M118.18,63.59c-1.66-.69,1.51-3.44,5.74-3.08s4.53,4.08,3.56,6.39c-.85-3.49-2.29-3.67-3.8-3.49S119.63,64.19,118.18,63.59Z"/><path id="_Path_14" data-name="&lt;Path&gt;" class="cls-6" d="M94.55,95.77s4.14-3.45,12.78-3.45,12,3.45,11.89,4-12.1,2.51-12.33,2.51S94.55,95.77,94.55,95.77Z"/><path id="_Path_15" data-name="&lt;Path&gt;" class="cls-4" d="M94.55,95.77s2.14-.91,6.85-.85,7.55,1.63,10,1.21a23.75,23.75,0,0,1,6.34-.57c2.5.15,1.72,1.47-1.18,3.95s-6.46,3.2-12.44,1A47.8,47.8,0,0,1,94.55,95.77Z"/><g id="_Group_4" data-name="&lt;Group&gt;"><path id="_Path_16" data-name="&lt;Path&gt;" class="cls-4" d="M116.11,69.83a1.62,1.62,0,0,1,.14-.46,3.08,3.08,0,0,1,.75-1,4.54,4.54,0,0,1,1.54-.94,5.14,5.14,0,0,1,1-.27l.25,0,.18,0h.12c.16,0,.29,0,.49,0l.62.06.55.12a4.81,4.81,0,0,1,1,.42,4.47,4.47,0,0,1,1.35,1.2,3.54,3.54,0,0,1,.73,1.54s-.64-.3-1.45-.65a13.37,13.37,0,0,0-1.35-.47c-.24-.06-.48-.11-.72-.16l-.36,0-.31,0c-.11,0-.3,0-.44,0h-.37l-.79.07a14.1,14.1,0,0,0-1.41.22,7.88,7.88,0,0,0-1,.31A3.73,3.73,0,0,0,116.11,69.83Z"/></g><g id="_Group_5" data-name="&lt;Group&gt;"><path id="_Path_17" data-name="&lt;Path&gt;" class="cls-4" d="M116.63,67.85a4.73,4.73,0,0,1,1.26-1.23,6.2,6.2,0,0,1,1.65-.83,6.11,6.11,0,0,1,1-.23,5.93,5.93,0,0,1,1.1,0,5.74,5.74,0,0,1,2.1.55,3,3,0,0,1,.85.61,2.53,2.53,0,0,1,.52.78,2.62,2.62,0,0,1,.19,1.32,2,2,0,0,1-.1.48,3.33,3.33,0,0,0-.1-.46,3.2,3.2,0,0,0-.5-1,2.75,2.75,0,0,0-.51-.51,3.21,3.21,0,0,0-.72-.37c-.25-.09-.58-.16-.87-.24a5.85,5.85,0,0,0-.93-.13,5,5,0,0,0-.94,0,8,8,0,0,0-.91.12,10.07,10.07,0,0,0-1.6.48A11.42,11.42,0,0,0,116.63,67.85Z"/></g><path id="_Path_18" data-name="&lt;Path&gt;" class="cls-5" d="M69.39,90.63c-3.73,1.06-9.67-1.51-11.71-9s-1-8.51-1-8.51,4.43,5.14,7.89,5.77l3.46.62Z"/><g id="_Clip_Group_2" data-name="&lt;Clip Group&gt;"><g class="cls-7"><path id="_Path_19" data-name="&lt;Path&gt;" class="cls-5" d="M117.29,94.92s-2.7,3.87-5.89,4.54a17.18,17.18,0,0,1-11.33-2.34c-2.8-2-2.9-2.93-2.9-2.93l7.27-1.38Z"/></g></g><path id="_Compound_Path_" data-name="&lt;Compound Path&gt;" class="cls-4" d="M121.6,90.86c-3.64-1.94-12-4-21.11-1.86-8.57,2.06-11.83,3.77-11.63,5.91s3.21,11.31.46,13.66-12,.1-15.38-10.8-2.46-17.11-2.46-17.11l-3.42-1.12s.18,13.47,2.11,22.27,9.37,17.68,19.77,22.25c14.5,6.37,25.3.12,28.9-6.52,4-7.38,2.89-12.85,4.73-19.17C124.76,94.23,125.24,92.8,121.6,90.86Zm-2.37,14.64c-2,4.88-4.25,6.32-5.59,5.64s-.23-4.25-.23-4.25l-6.09,0s.52,4.55-3.19,5.05-8.64-3.1-9.57-10.09,0-6.9,0-6.9a68.29,68.29,0,0,1,13.78-1.54,62,62,0,0,1,10.88,1.19,2,2,0,0,1,1.65,2A26.14,26.14,0,0,1,119.24,105.51Z"/></g></g></g></g></g></svg>