<svg xmlns="http://www.w3.org/2000/svg" xmlns:xlink="http://www.w3.org/1999/xlink" viewBox="7493 1642 180 180"><defs><style>.a{clip-path:url(#a);}.b{fill:#2dd8a3;}.c,.f{fill:#091440;}.d{fill:#fff;}.e{clip-path:url(#c);}.f{opacity:0.5;}</style><clipPath id="a"><circle cx="90" cy="90" r="90"/></clipPath><clipPath id="c"><path d="M57.6,79s4.2,39.2.4,53.7c-2.5,3,6,17.7,25.2,19.4,19.1,1.6,29.3-7.6,30.8-13.4,0,0,.7-27.5,1-30.6S57.6,79,57.6,79Z"/></clipPath></defs><g transform="translate(7493 1642)"><g class="a"><path class="b" d="M90,0A90,90,0,1,1,0,90,90,90,0,0,1,90,0Z"/></g><g class="a"><path class="c" d="M167,206.8H13V155.3l45-22.7,51.8-1.3L167,161.5Z"/><path class="d" d="M57.6,79s4.2,39.2.4,53.7c-2.5,3,6,17.7,25.2,19.4,19.1,1.6,29.3-7.6,30.8-13.4,0,0,.7-27.5,1-30.6S57.6,79,57.6,79Z"/><g class="e"><path class="f" d="M72.5,99.1s6,30.6,25.9,34c15.2,2.6,21-4.6,21-4.6l.8-24.2Z"/></g><path class="d" d="M56.1,81.2S66.2,116.7,88.5,125c9.4,3.5,22.6,4,29.6-14.5,8-21.3,11.6-56.1,6.4-69.7-5.1-13.5-11.2-20.4-19.6-21.6s-19-4.5-29,0S57.6,38.9,56.1,51.9,56.1,81.2,56.1,81.2Z"/><path class="c" d="M92.3,55.4c-.7,1.2-6.5,1.4-10.2,1.5s-8.1-.1-9.3,0,2.7-4.5,5.4-4.9,3.8.4,6.1.6C86.5,52.9,93.4,53.3,92.3,55.4Z"/><path class="c" d="M107.7,55.4c.6,1.2,5,1.4,8.4,1.5s7.3-.1,8.5,0c1.1.1-2.5-4.5-4.9-4.9s-3.4.4-5.5.6C112,52.9,106.6,53.3,107.7,55.4Z"/><path class="c" d="M73.5,65.5a2.489,2.489,0,0,0,.7.3,4.241,4.241,0,0,0,1.9-.1,5.359,5.359,0,0,0,1.1-.5,8.341,8.341,0,0,0,1.2-.8,10.5,10.5,0,0,1,3.2-1.5,6.279,6.279,0,0,1,1.9-.3,10.869,10.869,0,0,1,1.8.1l.4.1h.2l.2.1a6.89,6.89,0,0,0,.8.3,4.11,4.11,0,0,1,1.3.8,10.16,10.16,0,0,1,1.5,1.6c.3.5.4.7.4.7a6.122,6.122,0,0,0-.6-.5,7.447,7.447,0,0,0-1.8-.9l-1.2-.3c-.2,0-.4-.1-.7-.1h-.7a10.323,10.323,0,0,0-3,.4,14.763,14.763,0,0,0-2.9,1.2,9.385,9.385,0,0,1-1.5.6,4.145,4.145,0,0,1-1.5.2,3.8,3.8,0,0,1-2.2-.7C73.7,65.8,73.5,65.5,73.5,65.5Z"/><path class="f" d="M89.2,69.5a8.21,8.21,0,0,1-1.8.9,9.725,9.725,0,0,1-2,.5c-.4.1-.7.1-1.1.2-.4,0-.8.1-1.2.1a4.869,4.869,0,0,1-1.2-.1,3.6,3.6,0,0,1-1.1-.2c-.4,0-.7-.2-1-.2l-.9-.3a5.349,5.349,0,0,1-1.3-.6,5.2,5.2,0,0,0-.5-.3,1.75,1.75,0,0,1,.5.1c.3.1.8.1,1.4.2.3,0,.6.1.9.1s.7.1,1,.1c.7,0,1.5.1,2.2.1a24.558,24.558,0,0,0,4.1-.3C88.4,69.6,89.2,69.5,89.2,69.5Z"/><path class="c" d="M86.1,64.9c0-1.6-1.3-1.4-3-1.4s-3,.3-3,1.4a3,3,0,0,0,6,0Z"/><path class="d" d="M86.1,67.2a24.762,24.762,0,0,1-6-.6c-2.5-.7-.3,1.6,1.5,1.8S85.4,68.2,86.1,67.2Z"/><path class="c" d="M122.6,65.5a1.413,1.413,0,0,1-.5.6,3.367,3.367,0,0,1-2,.7,3.194,3.194,0,0,1-1.4-.3,4.874,4.874,0,0,1-.7-.3,4.876,4.876,0,0,0-.7-.3,11.946,11.946,0,0,0-2.6-1.1,5.82,5.82,0,0,0-2.6-.3h-.6c-.3,0-.4.1-.6.1-.4.1-.7.2-1.1.3a7.579,7.579,0,0,0-1.6.9,6.122,6.122,0,0,0-.6.5,5.945,5.945,0,0,1,.3-.7,6.556,6.556,0,0,1,1.2-1.6,3.6,3.6,0,0,1,1.2-.8c.2-.1.6-.2.8-.3l.2-.1h.2l.4-.1a4.735,4.735,0,0,1,1.7-.1,5.663,5.663,0,0,1,1.8.3,11.47,11.47,0,0,1,2.9,1.6c.2.1.4.3.6.4s.3.3.5.3a4.671,4.671,0,0,0,1,.5,3.339,3.339,0,0,0,1.7.1A1.463,1.463,0,0,1,122.6,65.5Z"/><path class="f" d="M108.5,69.5s.7.1,1.7.3a20.519,20.519,0,0,0,3.7.3,13.4,13.4,0,0,0,2-.1c.3,0,.6-.1.9-.1s.6-.1.8-.1a7.385,7.385,0,0,1,1.2-.2,1.75,1.75,0,0,1,.5-.1,2.959,2.959,0,0,1-.4.3,6.658,6.658,0,0,1-1.2.6,6.891,6.891,0,0,1-.8.3,2.92,2.92,0,0,1-.9.2,3.553,3.553,0,0,0-1,.2c-.4,0-.7.1-1.1.1a4.1,4.1,0,0,1-1.1-.1,2.959,2.959,0,0,1-1-.2,7.756,7.756,0,0,1-1.8-.5C109.1,69.9,108.5,69.5,108.5,69.5Z"/><path class="c" d="M109,64.9a4.634,4.634,0,0,1,3-1.4c1.7,0,3-.3,3,1.4a3,3,0,0,1-6,0Z"/><path class="d" d="M108.7,67.2a20.008,20.008,0,0,0,5.4-.6c2.3-.7.2,1.6-1.3,1.8C111.2,68.6,109.4,68.2,108.7,67.2Z"/><path class="c" d="M81.9,96.1a70.94,70.94,0,0,0,17.4.7c10.7-.6,15.3-2.4,16.6-2.2,1.4.2-6.3,6.6-17,6.6S86.2,99.2,81.9,96.1Z"/><path class="f" d="M115.4,94.6s-9.9-.2-17.5,0a151.072,151.072,0,0,0-16.1,1.5s5,3.5,13.8,3A67.029,67.029,0,0,0,115.4,94.6Z"/><path class="c" d="M118.1,90c-13.8-3.7-23.5-2.4-34.9-.4-9.3,1.7-7.8,14.6-5.5,24.9,1.3,6.2,7.2,13.9,20.3,13.9,15.6,0,20.5-9.4,22.2-24.2C121.3,94,121.2,90.9,118.1,90Zm-6.5,21.6c-5.2,7.7-8.4,3.9-8.4,2.1s1.2-1.5,3.6-4.1a9.838,9.838,0,0,0,2.8-5.8s-2.2,2.5-9.3,2.5-10.6-1.7-10.6-1.7c.3,6.8,9.4,6.3,7.2,9.4-3.3,4.7-10,.6-13.1-3.9s-4.7-16.8-1.1-17.2c9.1-.8,32.6-.8,34.7,0C119.4,93.8,116.8,103.9,111.6,111.6Z"/><path class="d" d="M89.2,96.8a16.556,16.556,0,0,0,9.4,2.3,14.838,14.838,0,0,0,9-3.1Z"/><path class="c" d="M54.6,64.9c-1.7-7.3-5.4-23.3,3.6-36.4C67,15.7,79,13.3,86.1,13.3c13.8,0,26.3,3.2,33.2,14,6.2,9.6,5.1,13.5,5.1,13.5s-4.3-13.3-14.7-14.7S81.8,27.2,77,28.2c-10.9,2.4-15.3,8.1-15.3,17.9s2.9,13.1,2.9,13.1l-.4,17.9H56.4Z"/><path class="f" d="M89,84.6s6.1,4.1,20.6,1.3C101.7,92.7,94.1,90.3,89,84.6Z"/><path class="d" d="M57.6,67.9s-1.5-7.7-5.2-7.7S42.6,72,50,84.6s8.1,4.5,9.4,0C60.7,80,57.6,67.9,57.6,67.9Z"/></g></g></svg>