<svg id="illustrations" xmlns="http://www.w3.org/2000/svg" viewBox="0 0 180 180"><defs><style>.cls-1{fill:#2f74fb;}.cls-2{fill:none;}.cls-3{fill:#091440;}.cls-4{fill:#fff;}.cls-5{fill:#848aa0;}</style></defs><title>dcr_portraits5</title><circle id="_Path_" data-name="&lt;Path&gt;" class="cls-1" cx="90" cy="90" r="90"/><path class="cls-2" d="M131.38,73a4,4,0,0,0,.1-1l-4.62-.21a81.29,81.29,0,0,1,1.08,11.9C129.38,81.54,131.05,74.58,131.38,73Z"/><path class="cls-2" d="M129.19,70c-.26-.06-.54-.12-.85-.17l-1.82-.28.07.45Z"/><path class="cls-3" d="M113.78,124.63l-1,4.22v0c-3.91,18.6-12.5,25.92-30,22.88-18.2-3.17-40-19.62-37.08-27.3.47-1.23,1-2.51,1.43-3.84L12.48,135.74a90,90,0,0,0,148.69,9.34Z"/><path class="cls-4" d="M82.76,151.75c17.46,3,26.05-4.28,30-22.88-.08.17-.84,1.36-7.6,2.74-7.32,1.5-19.3.5-26.46-7.32-1.75-1.91-3.17-3.47-4.36-4.8,3.59,1.2,6.65,2.3,8.2,3.76,5.19,4.87,12.19,4.33,21.7,3.16,8.53-1.06,7.26-3.55,10.72-6.36a12.29,12.29,0,0,1,1.39-1c5.26-3.2,9.54-15.14,11.42-31.38.08-.72.13-1.45.17-2.19a12.06,12.06,0,0,1-4.68.81c-10.45.48-13.92,1.18-15.86-1.14s-4-10.18-5-11.54A3.19,3.19,0,0,0,100,72.25h0a3.13,3.13,0,0,0-2.91,1.38c-1,1.38-3.09,9.22-5,11.54s-5.41,1.62-15.86,1.14C69.92,86,70,85,68.15,78.8c-.83-2.76-1.35-4.43-1.66-5.44h0A1.85,1.85,0,0,0,65,72.05l-3.57-.16c-.57,7.25-.93,14.9-.93,14.9L55,85.84c.43-4.51.65-11.53-1.87-14.41a15.26,15.26,0,0,0-5-4.18,7.61,7.61,0,0,0-4.54-.43c-3.61.61-4.89,3.22-3.33,8.5,1.47,5-1,14.54,4.45,17.25a8.13,8.13,0,0,0,5.62.84,55.87,55.87,0,0,1-3.25,27.2c-.48,1.33-1,2.61-1.43,3.84C42.79,132.13,64.56,148.58,82.76,151.75Zm31.53-47a100.61,100.61,0,0,1-10.84,1.49c-6.55.58-9.75-1.11-13.48-.94-1.81-.05.64-.56,3.21-1.4s5.4-.83,9.36-.64,5.76-1.16,9-.34C113.9,103.5,114.29,104.71,114.29,104.71Zm-17.91,6c2.16,1.19,8,1.51,11.95-.29C106.72,114.93,99.25,115.45,96.38,110.75Zm13.45-18.21c-2.08,5.54-12.6,5.83-17,1.25C98.47,94.57,103.78,95,109.82,92.54Z"/><path class="cls-5" d="M104.2,126.4c-9.51,1.18-16.51,1.71-21.7-3.16-1.55-1.45-4.61-2.56-8.2-3.76,1.19,1.33,2.61,2.89,4.36,4.8,7.16,7.82,19.14,8.82,26.46,7.32,6.76-1.38,7.52-2.57,7.6-2.74v0l1-4.22,1.14-4.58C111.46,122.85,112.73,125.34,104.2,126.4Z"/><path class="cls-4" d="M68,73c.36,1.71,2.37,10.09,3.9,11.25s13.65,1.77,18.18.86c2.09-.42,4.09-8.76,4.12-11,0-.27,0-.53,0-.77a3.74,3.74,0,0,0-2.69-3.39,26.78,26.78,0,0,0-4-.78l.06,0a11.06,11.06,0,0,1,1.76.84,17.41,17.41,0,0,1,1.57,1.13,26.4,26.4,0,0,0-3.57-1.23,15.5,15.5,0,0,0-7.3-.11A18.15,18.15,0,0,0,76.48,71a9.65,9.65,0,0,1,3.36-1.95l.58-.18a76.87,76.87,0,0,0-9.38,1C68.13,70.34,67.65,71.32,68,73ZM80.3,71.34a9.82,9.82,0,0,1,4-.77,12.46,12.46,0,0,1,3.89.68,8.42,8.42,0,0,1,3.36,2,46.9,46.9,0,0,0-5.74-.67,1.43,1.43,0,0,1,.15.79,2.21,2.21,0,1,1-4.41-.29,1.87,1.87,0,0,1,.07-.39,23.35,23.35,0,0,0-4.41,1A7.19,7.19,0,0,1,80.3,71.34Z"/><path class="cls-4" d="M109.29,85.14c4.54.91,16.65.3,18.18-.86a2.28,2.28,0,0,0,.46-.54,81.29,81.29,0,0,0-1.08-11.9q-.13-.89-.27-1.79l-.07-.45c-1.7-.25-4.17-.55-6.94-.68a9.36,9.36,0,0,1,1.1.54A7.71,7.71,0,0,1,123.45,72a13.77,13.77,0,0,0-6.54-2.82,19.2,19.2,0,0,0-3.57-.16c-.26,0-.53,0-.79.05a27.71,27.71,0,0,0-4.66.86,3.74,3.74,0,0,0-2.69,3.39c0,.25,0,.5,0,.77C105.2,76.38,107.2,84.72,109.29,85.14Zm2.51-14.08a9.64,9.64,0,0,1,3.95-.59,9.5,9.5,0,0,1,3.84,1.11,7.84,7.84,0,0,1,2.92,2.59,28.84,28.84,0,0,0-5.41-1.53,1.62,1.62,0,0,1,0,.49,2.21,2.21,0,0,1-4.41-.29,1.87,1.87,0,0,1,.05-.32l-.6,0c-1.18.13-2.36.36-3.63.62A8,8,0,0,1,111.8,71.06Z"/><path class="cls-4" d="M105,35c-6.8-.12-4.66,3-14.06,3.93-5.83.6-11.82-2.92-17.45,6.79S64.48,56.57,63,59.41c-.55,1.09-1.06,5.39-1.48,10.26L71,68.54h0c2.27-.29,5.23-.56,8.85-.66,8.87-.25,15.9,1.81,20.38,2v0c.26,0,.53,0,.8,0h.07c.29,0,.56,0,.82,0l0,0c3.94-.22,8.82-2.24,17.62-2,2.61.07,4.87.23,6.78.43-.49-3.08-1-6.3-1.5-9.63-.45-2.16-1.36-6-3-11.64C119.09,38,113.32,35.19,105,35ZM94.14,68a9.3,9.3,0,0,1-4.81,0c-3.76-.75-8.58-3.48-19-.59,5.12-5.26,9.56-5.75,15.35-4.34s8-.24,8.78.61S95.85,67.58,94.14,68Zm32.11.31s-1.48-2.47-5.72-2.27c-3.07.14-7.78,2.6-11.88,2-1.28-.17-.3-5.1,1.1-5,3.13.18,8.78-1.27,11.52-1.28C125.7,61.74,126.24,68.27,126.24,68.27Z"/><path class="cls-3" d="M53.18,71.43c2.52,2.87,2.29,9.9,1.87,14.41l5.41.95s.36-7.65.93-14.9l3.57.16a1.85,1.85,0,0,1,1.54,1.31h0c.31,1,.83,2.68,1.66,5.44C70,85,69.92,86,76.18,86.3c10.45.48,13.92,1.18,15.86-1.14s4.05-10.16,5-11.54A3.13,3.13,0,0,1,100,72.24h0a3.19,3.19,0,0,1,2.32,1.38c1,1.36,3.09,9.22,5,11.54s5.41,1.62,15.86,1.14a12.06,12.06,0,0,0,4.68-.81c1.74-.88,2.14-2.71,3.34-6.69.83-2.76,1.35-4.43,1.66-5.44h0a1.85,1.85,0,0,1,1.54-1.31l.08-2.42a7,7,0,0,1-.9-.18,52.71,52.71,0,0,0-7.31-1.15c-1.91-.19-4.17-.35-6.78-.43-8.81-.25-13.68,1.78-17.62,2l0,0c-.26,0-.54,0-.82,0H101c-.27,0-.53,0-.8,0v0c-4.47-.19-11.51-2.25-20.38-2-3.63.1-6.59.37-8.85.66h0l-9.44,1.13c.42-4.87.93-9.17,1.48-10.26,1.44-2.84,4.8-3.94,10.43-13.65S85.1,39.56,90.93,39c9.4-1,7.26-4.05,14.06-3.93,8.33.15,14.1,3,16.8,12,1.67,5.59,2.58,9.48,3,11.64.28,1.33.38,2,.38,2A32.62,32.62,0,0,0,132.45,45c1.6-9.63-1.36-22.53-11.11-24.76A24.35,24.35,0,0,0,98.44,7C90.55.46,67,6.24,54.36,22.68S41.84,53.21,45.85,60a22.76,22.76,0,0,1,2.31,7.26A15.26,15.26,0,0,1,53.18,71.43Zm52,1.9a3.74,3.74,0,0,1,2.69-3.39,27.71,27.71,0,0,1,4.66-.86c.26,0,.53,0,.79-.05a19.2,19.2,0,0,1,3.57.16A13.77,13.77,0,0,1,123.45,72a7.71,7.71,0,0,0-2.77-2.55,9.36,9.36,0,0,0-1.1-.54c2.77.13,5.24.43,6.94.68l1.82.28c.31,0,.59.11.85.17h-2.61q.14.9.27,1.79l4.62.21a4,4,0,0,1-.1,1c-.32,1.55-2,8.51-3.44,10.7a2.28,2.28,0,0,1-.46.54c-1.53,1.16-13.65,1.77-18.18.86-2.09-.42-4.09-8.76-4.12-11C105.17,73.83,105.18,73.58,105.19,73.33ZM80.42,68.9l-.58.18A9.65,9.65,0,0,0,76.48,71a18.15,18.15,0,0,1,3.57-1.2,15.5,15.5,0,0,1,7.3.11,26.4,26.4,0,0,1,3.57,1.23A17.41,17.41,0,0,0,89.36,70a11.06,11.06,0,0,0-1.76-.84l-.06,0a26.78,26.78,0,0,1,4,.78,3.74,3.74,0,0,1,2.69,3.39c0,.25,0,.5,0,.77,0,2.28-2,10.62-4.12,11-4.54.91-16.65.3-18.18-.86S68.37,74.74,68,73s.12-2.69,3-3.15A76.87,76.87,0,0,1,80.42,68.9Z"/><path class="cls-3" d="M109.73,63c-1.39-.08-2.37,4.84-1.1,5,4.1.56,8.81-1.9,11.88-2,4.25-.2,5.72,2.27,5.72,2.27s-.54-6.53-5-6.52C118.52,61.76,112.86,63.21,109.73,63Z"/><path class="cls-3" d="M85.66,63c-5.79-1.41-10.23-.92-15.35,4.34,10.43-2.88,15.26-.16,19,.59a9.3,9.3,0,0,0,4.81,0c1.71-.38,1-3.47.3-4.33S91.44,64.43,85.66,63Z"/><path class="cls-3" d="M112.78,72.54a1.87,1.87,0,0,0-.05.32,2.21,2.21,0,0,0,4.41.29,1.62,1.62,0,0,0,0-.49,28.84,28.84,0,0,1,5.41,1.53,7.84,7.84,0,0,0-2.92-2.59,9.5,9.5,0,0,0-3.84-1.11,9.64,9.64,0,0,0-3.95.59,8,8,0,0,0-3.26,2.14c1.27-.26,2.46-.49,3.63-.62Z"/><path class="cls-3" d="M81.5,73.13a2.21,2.21,0,1,0,4.41.29,1.43,1.43,0,0,0-.15-.79,46.9,46.9,0,0,1,5.74.67,8.42,8.42,0,0,0-3.36-2,12.46,12.46,0,0,0-3.89-.68,9.82,9.82,0,0,0-4,.77,7.19,7.19,0,0,0-3.14,2.39,23.35,23.35,0,0,1,4.41-1A1.87,1.87,0,0,0,81.5,73.13Z"/><path class="cls-5" d="M109.82,92.54c-6,2.43-11.36,2-17,1.25C97.22,98.37,107.75,98.08,109.82,92.54Z"/><path class="cls-5" d="M102.54,103.22c-4-.19-6.79-.21-9.36.64s-5,1.35-3.21,1.4c3.73-.17,6.93,1.52,13.48.94a100.61,100.61,0,0,0,10.84-1.49s-.39-1.21-2.79-1.83C108.3,102.05,106.5,103.41,102.54,103.22Z"/><path class="cls-5" d="M108.33,110.46c-3.93,1.8-9.78,1.48-11.95.29C99.25,115.45,106.72,114.93,108.33,110.46Z"/></svg>