<svg id="illustrations" xmlns="http://www.w3.org/2000/svg" xmlns:xlink="http://www.w3.org/1999/xlink" viewBox="0 0 180 180"><defs><style>.cls-1{fill:none;}.cls-2{clip-path:url(#clip-path);}.cls-3{fill:#2970ff;}.cls-4,.cls-7{fill:#091440;}.cls-5{fill:#fff;}.cls-6{clip-path:url(#clip-path-2);}.cls-7{opacity:0.5;}</style><clipPath id="clip-path"><circle id="_Clipping_Path_" data-name="&lt;Clipping Path&gt;" class="cls-1" cx="90" cy="90" r="90"/></clipPath><clipPath id="clip-path-2"><path id="_Clipping_Path_2" data-name="&lt;Clipping Path&gt;" class="cls-1" d="M62.31,93.45c2,12.07-1,23.63-2.27,30.56-1.11,6.08,1.36,11.11,5.3,15.87,5.38,6.49,16.08,18,26.09,18.26,19,.51,19-20.56,18.72-32.32s.67-14.73.67-14.73Z"/></clipPath></defs><title>design_eeter_linnutee</title><g id="_Clip_Group_" data-name="&lt;Clip Group&gt;"><g class="cls-2"><g id="_Group_" data-name="&lt;Group&gt;"><circle id="_Path_" data-name="&lt;Path&gt;" class="cls-1" cx="90" cy="90" r="90"/><circle id="_Path_2" data-name="&lt;Path&gt;" class="cls-3" cx="90" cy="90" r="90"/><g id="_Group_2" data-name="&lt;Group&gt;"><g id="_Group_3" data-name="&lt;Group&gt;"><polygon id="_Path_3" data-name="&lt;Path&gt;" class="cls-4" points="110.16 127.31 172.1 161.04 172.1 193.06 -2.61 193.06 -2.61 151 59.71 120.33 63.5 117.83 110.16 127.31"/><g id="_Group_4" data-name="&lt;Group&gt;"><path id="_Path_4" data-name="&lt;Path&gt;" class="cls-5" d="M62.31,93.45c2,12.07-1,23.63-2.27,30.56-1.11,6.08,1.36,11.11,5.3,15.87,5.38,6.49,14.79,17.35,24.8,17,14.57-.51,20.31-19.3,20-31.06s.67-14.73.67-14.73Z"/><g id="_Clip_Group_2" data-name="&lt;Clip Group&gt;"><g class="cls-6"><path id="_Path_5" data-name="&lt;Path&gt;" class="cls-7" d="M85.12,104.23c-10.28,2.58-17.68-3.2-12.61,7.26s25,24.57,33.25,24.17c7.76-.38,7.71-9.24,7.71-9.24l.18-9.71Z"/></g></g></g></g><g id="_Group_5" data-name="&lt;Group&gt;"><path id="_Path_6" data-name="&lt;Path&gt;" class="cls-4" d="M70.63,14.38A19.93,19.93,0,0,1,80.9,5.66c7.33-2.81,10.55-3.22,10.55-3.22L81,10.21Z"/><g id="_Group_6" data-name="&lt;Group&gt;"><path id="_Path_7" data-name="&lt;Path&gt;" class="cls-5" d="M58,73.47s5.91,27.64,8.88,32.39,12.2,10.75,22.18,14.83,16.16,5.06,20.35,3.31,9.84-8,12.25-12.88,5.67-13.74,6.55-20.93a69.52,69.52,0,0,1,2-11s5.35-19.63-.54-31.34-9.35-27.41-30.47-25.49-38.1,3-42,14.45S58,73.47,58,73.47Z"/><g id="_Group_7" data-name="&lt;Group&gt;"><g id="_Group_8" data-name="&lt;Group&gt;"><path class="cls-4" d="M84.19,72.89a11.7,11.7,0,0,1,4-2.76,23,23,0,0,1,4.61-1.56,11.44,11.44,0,0,1,5.08,0,3.74,3.74,0,0,1,2.26,1.61,2.74,2.74,0,0,1,0,2.55,2.82,2.82,0,0,0-.84-2,3.12,3.12,0,0,0-1.79-.66,16.91,16.91,0,0,0-4.34.47c-1.48.34-3,.68-4.51,1.06S85.71,72.33,84.19,72.89Z"/></g><g id="_Group_9" data-name="&lt;Group&gt;"><path class="cls-4" d="M126.94,72.47c-1.18-.47-2.2-1-3.25-1.51a10.83,10.83,0,0,0-3-1,4.18,4.18,0,0,0-2.72.5,25,25,0,0,0-2.77,2.08A6.94,6.94,0,0,1,117,69.16a4.74,4.74,0,0,1,4-1.23,7.41,7.41,0,0,1,3.52,1.71A10.08,10.08,0,0,1,126.94,72.47Z"/></g><circle id="_Path_8" data-name="&lt;Path&gt;" class="cls-4" cx="92.47" cy="71.7" r="2.52"/><circle id="_Path_9" data-name="&lt;Path&gt;" class="cls-4" cx="119.76" cy="70.95" r="2.52"/><path id="_Path_10" data-name="&lt;Path&gt;" class="cls-7" d="M115,68c1-1.45,2.13-3.94,4-4l9.36-.48c3.7-.2,3.21,3.11,2.64,6.29,0,0,.3-4.19-2.79-4s-5,1.67-8.68,2.06A18.54,18.54,0,0,1,115,68Z"/><path id="_Path_11" data-name="&lt;Path&gt;" class="cls-7" d="M100.48,67.76S96.92,68.88,91.1,67c-3.1-1-4.94-1.55-7.41-1.15s-5.12,3-5.12,3,.63-5.11,4-5.64,3.31,0,6.71,0,8.81-.56,10.69,2.09A2.93,2.93,0,0,1,100.48,67.76Z"/><path id="_Path_12" data-name="&lt;Path&gt;" class="cls-7" d="M112.63,68.64c-2.11,2.28-2.11,3.3-1.45,5.12S112.63,68.64,112.63,68.64Z"/><path id="_Path_13" data-name="&lt;Path&gt;" class="cls-7" d="M117.41,92a32.16,32.16,0,0,1-4.55.68c-2.72.23-12.48-.14-12.48-.14S102,96.4,111.1,96.4C116.82,96.4,117.41,92,117.41,92Z"/><path id="_Path_14" data-name="&lt;Path&gt;" class="cls-7" d="M94.28,100.56a5.9,5.9,0,0,0,3.89,1c3.38-.47,6.49-.76,7.86-.27,2.39.86,4.78-.55,6.55-.34s5.35,1.25,7.08-.8h0s.45,3-6.7,2.52c-3-.2-3.86.84-5.85.49a33.25,33.25,0,0,0-7.75-.39c-1,.06-1.86,0-2.56,0A2.38,2.38,0,0,1,94.28,100.56Z"/></g><path id="_Path_15" data-name="&lt;Path&gt;" class="cls-4" d="M59.21,82.67S67,80,66.88,73.36c-.14-9-1.66-18.14,3.77-26.35S92,32.61,92,32.61s5.8,7,13.32,9.33c9.12,2.84,15.34-2.58,19.65.41s6.47,12.5,6.55,21c0,4.37-2.43,20.93-2.43,20.93S134.44,74,135.6,66a195,195,0,0,0,2-21L141,47.38a19,19,0,0,0-4.83-13.16,8.88,8.88,0,0,0,2.78.58c-2.28-9.45-12.53-25.07-25.27-29.67-16-5.76-24.08-2.9-30.69-1S75.16,7.8,75.16,7.8l2.73-4.66s-7.09,3.27-9.6,9.67a60.58,60.58,0,0,1-2.84,6.31S56,21.28,51.76,29.88c-9.45,19,3.35,40.67,3.35,40.67Z"/></g><path id="_Path_16" data-name="&lt;Path&gt;" class="cls-5" d="M64.26,77.53s1.14-10.17-7.2-10.43-9.32,9.49-6.26,16,10.76,16.39,13,14.17S70.49,81.59,64.26,77.53Z"/></g></g></g></g></g><path id="_Path_17" data-name="&lt;Path&gt;" class="cls-7" d="M105.66,106.53s1.42,0,3.75,0l2.33,0s-.61,1-3,1S104.29,106.52,105.66,106.53Z"/></svg>