<svg id="illustrations" xmlns="http://www.w3.org/2000/svg" xmlns:xlink="http://www.w3.org/1999/xlink" viewBox="0 0 180 180"><defs><style>.cls-1{fill:none;}.cls-2{clip-path:url(#clip-path);}.cls-3{fill:#2f74fb;}.cls-4{fill:#091440;}.cls-5{fill:#cbcdd7;}.cls-6{fill:#848aa0;}</style><clipPath id="clip-path"><circle id="_Clipping_Path_" data-name="&lt;Clipping Path&gt;" class="cls-1" cx="90" cy="90" r="90"/></clipPath></defs><title>dabira</title><g id="_Clip_Group_" data-name="&lt;Clip Group&gt;"><g class="cls-2"><circle id="_Path_" data-name="&lt;Path&gt;" class="cls-3" cx="90" cy="90" r="90"/><polygon id="_Path_2" data-name="&lt;Path&gt;" class="cls-4" points="59.8 120.59 8.46 145.9 4.45 189.24 178.62 189.24 164.57 148.6 104.58 122.16 59.8 120.59"/><g id="_Group_" data-name="&lt;Group&gt;"><path id="_Path_3" data-name="&lt;Path&gt;" class="cls-5" d="M62.06,87.48s1.4,20.71-.43,26.91l-1.83,6.2s14.15,31,47.57,17.51A14.37,14.37,0,0,0,116,127.85c.39-1.76.83-3.81,1.32-6.12,1.67-7.83,2.48-15.38,2.48-15.38V99.66Z"/><path id="_Path_4" data-name="&lt;Path&gt;" class="cls-6" d="M70.2,105.46c3,10.72,14.29,27.28,28.39,27.28s19.57-15.32,19.57-15.32L119.8,107Z"/><path id="_Path_5" data-name="&lt;Path&gt;" class="cls-5" d="M102.08,125.45c-4.77.12-14.5-1.81-20.24-5.9s-12.19-9.43-15.88-21-2.7-9.83-3.85-20.93-8.68-33.29,6.5-48.85,31.51-13.65,38.91-8.67S126,30.52,129.58,39.44s1.66,17.56,0,33.85-2.29,25.47-7.08,33.5-6.17,11.74-9.61,14.68S107.23,125.32,102.08,125.45Z"/><path id="_Path_6" data-name="&lt;Path&gt;" class="cls-5" d="M63.64,71.34s-3.83-7.45-7.91-6.85S51,77,54.89,86.39c2,4.92,5.81,6.85,8.75,5.33S66.88,75.9,63.64,71.34Z"/><g id="_Group_2" data-name="&lt;Group&gt;"><g id="_Group_3" data-name="&lt;Group&gt;"><path id="_Path_7" data-name="&lt;Path&gt;" class="cls-4" d="M79.82,70.54a5.81,5.81,0,0,1,1.88-1.41,7.88,7.88,0,0,1,1-.47A9,9,0,0,1,84,68.32a8.69,8.69,0,0,1,1.37-.19,13.64,13.64,0,0,1,1.43,0c.48,0,.95.13,1.41.2s.9.25,1.33.38.8.34,1.17.51a7.32,7.32,0,0,1,1,.59A6.76,6.76,0,0,1,93,70.87l.45.46s-.24,0-.64-.11l-.7-.16c-.25-.08-.56-.12-.88-.2s-.66-.16-1-.22-.74-.14-1.12-.22-.79-.11-1.2-.17-.81-.1-1.23-.12-.82-.07-1.23-.06h-1.2c-.39,0-.77.05-1.14.06s-.71,0-1,.09C80.75,70.36,79.82,70.54,79.82,70.54Z"/></g><path id="_Path_8" data-name="&lt;Path&gt;" class="cls-4" d="M88.4,70.54c0-1.52-1.23-1.45-2.74-1.45s-2.75-.07-2.75,1.45a2.75,2.75,0,1,0,5.49,0Z"/></g><path id="_Path_9" data-name="&lt;Path&gt;" class="cls-4" d="M93.44,63.45c-5.37.79-7.81-2.86-12.11-2.23a17.66,17.66,0,0,0-6.68,2.23S76,58.89,81.81,58.1s8.36.5,10.51,1.53S96.14,63.06,93.44,63.45Z"/><g id="_Group_4" data-name="&lt;Group&gt;"><g id="_Group_5" data-name="&lt;Group&gt;"><path id="_Path_10" data-name="&lt;Path&gt;" class="cls-4" d="M125.46,70.6a18.56,18.56,0,0,0-2-.37,19.71,19.71,0,0,0-2-.12c-.35,0-.72,0-1.09,0l-1.13.09c-.37.05-.75.08-1.13.14s-.74.11-1.1.19-.7.15-1,.21-.65.16-1,.22c-.6.11-1.1.27-1.47.33s-.6.09-.6.09.14-.17.4-.44a7.65,7.65,0,0,1,1.2-1c.27-.18.57-.38.89-.57l1.08-.51a10.88,10.88,0,0,1,1.22-.39,11.2,11.2,0,0,1,1.31-.23,8.85,8.85,0,0,1,2.63.13,7.14,7.14,0,0,1,2.15.8,5.53,5.53,0,0,1,1.28,1A3.69,3.69,0,0,1,125.46,70.6Z"/></g><path id="_Path_11" data-name="&lt;Path&gt;" class="cls-4" d="M115.91,70.6c0-1.52,1.23-1.45,2.74-1.45s2.75-.07,2.75,1.45a2.75,2.75,0,1,1-5.49,0Z"/><path id="_Path_12" data-name="&lt;Path&gt;" class="cls-4" d="M116.43,63.42c-2.9,0-4.14-1.43-3.26-2.54s2.31-1.44,6.45-2.39,7.24-2.47,9.71-.48,1.33,5.14,1.33,5.14-.14-2.75-3.8-2.11S118.15,63.44,116.43,63.42Z"/></g><path id="_Path_13" data-name="&lt;Path&gt;" class="cls-6" d="M93.31,89.71s1.61,5.21,10.86,5.14S115,89.71,115,89.71a52.08,52.08,0,0,1-10.87,1.37A43,43,0,0,1,93.31,89.71Z"/><path id="_Path_14" data-name="&lt;Path&gt;" class="cls-6" d="M89.82,100.92c-.44,1.12,1.83,1.63,3.38,1.71s5.22.65,10.36.74,7,.09,9.43-.48,3.68-.74,2.94-1.63-.1.93-2.62.27-2.82-1.92-5.59-1.83-3.35,1.06-3.35,1.06a3.7,3.7,0,0,0-3.17-1.07c-2,.25-7.18,2.53-8.08,2S90.27,99.8,89.82,100.92Z"/><path id="_Path_15" data-name="&lt;Path&gt;" class="cls-6" d="M97.9,109a10.5,10.5,0,0,0,7.43,3.12c3.59-.1,6.28-3.35,6.28-3.35a31.87,31.87,0,0,1-6.49.91A66.89,66.89,0,0,1,97.9,109Z"/><path id="_Path_16" data-name="&lt;Path&gt;" class="cls-4" d="M65.29,75.63c.84,1.66,4.38,1,4.38,1,0-12.2-5-11.23-2-19.62,2.66-7.39-4.09-11.46.79-17.4S90,24,107.22,26.82c17.68,2.91,22.64,7.22,23.53,20.5a133.14,133.14,0,0,1-.2,17.17s6-15,1.06-27.86S117.92,10.75,95.28,10,57.52,25.19,55,44s5,22.36,5,22.36Z"/></g></g></g></svg>