<svg id="illustrations_c" xmlns="http://www.w3.org/2000/svg" viewBox="0 0 180 180"><defs><style>.cls-1{fill:#2f74fb;}.cls-2{fill:#091440;}.cls-3{fill:#848aa0;}.cls-4{fill:#fff;}</style></defs><title>S-ben</title><circle id="_Path_" data-name="&lt;Path&gt;" class="cls-1" cx="90" cy="90" r="90"/><path class="cls-2" d="M157.66,146.68l-49.38-20.84a61.45,61.45,0,0,1-1.78,7.42c-1,4.26-3.85,9.8-12.56,12.6-14.46,4.65-26.87-2.28-33.39-11-2.54-3.41-3.87-7.79-3.43-10.36.15-.89.33-1.89.53-3L16.05,141.3a90,90,0,0,0,141.45,8.22Z"/><path class="cls-3" d="M59.75,76.54c1.82-1.3,2.87-4.8,1.86-8.56a22.3,22.3,0,0,1-.55-10S74.5,50.63,77.4,39.58c5.29.44,14.88,5.8,20.87-5.3,1.64,5.8-1.13,8-1.13,8s7.63,1.84,10.38-5.84a10.85,10.85,0,0,0,.42-1.63c6,3.18,8.76,8.44,12.32,18.15,2.76-7.76.72-24.4-14.34-31A43.55,43.55,0,0,0,60.51,28.7C44.64,41.72,45.74,57,46.72,62.52s3.59,7.11,3.59,7.11a16.27,16.27,0,0,0,.17,9.24A6,6,0,0,1,51.65,76C54.16,72.93,57.5,73.19,59.75,76.54Z"/><path class="cls-4" d="M60.55,134.83c6.52,8.75,18.93,15.68,33.39,11,8.71-2.8,11.54-8.34,12.56-12.6-18.36,4.07-36-9.77-39.81-21.69a23.48,23.48,0,0,0,7.06,7.08c8.54,5.26,17.29,6.46,21.34,7.88a14.77,14.77,0,0,0,13.52-2.61,14.35,14.35,0,0,0,3.47-4.06c3.8-6.68,5.88-9.77,7.09-15.39s3.61-12.84,3.5-20.18-.43-10.17.38-16.31c-1-5.7-11.63-3.59-14.47-3-1.45.3-2-.31-1.06-2.28s4.24-4.1,10.13-3.42c2.59.3,4.16,1.2,5,2.47A53.53,53.53,0,0,0,120.26,53c-3.56-9.71-6.34-15-12.32-18.15a10.85,10.85,0,0,1-.42,1.63c-2.75,7.68-10.38,5.84-10.38,5.84s2.77-2.24,1.13-8c-6,11.1-15.58,5.74-20.87,5.3C74.5,50.63,61.06,58,61.06,58a22.3,22.3,0,0,0,.55,10c1,3.76,0,7.26-1.86,8.56-2.25-3.35-5.59-3.61-8.1-.56a6,6,0,0,0-1.17,2.89c-.8,4.78,1.54,12.49,4.89,17.24,1.75,2.49,3.6,3.52,5.19,3.61-.12,7.53-1.8,15.91-2.91,21.79-.2,1.07-.38,2.07-.53,3C56.68,127,58,131.42,60.55,134.83Zm45.9-26.07c-1.74,3.56-7.58,4.92-10.53.91C101,110.27,103.42,109.82,106.45,108.76Zm-19.32-5s8.79-2,13.26-2.2a39,39,0,0,1,11.07.83C102.82,105.57,94.18,104.29,87.13,103.76Zm22.36-33.95a6.76,6.76,0,0,1,3.16-1,5.58,5.58,0,0,1,3.3.7,3.25,3.25,0,0,1,1.7,2.81A4.7,4.7,0,0,0,115.3,71a6.7,6.7,0,0,0-1.26-.17,2.2,2.2,0,1,1-4.17,1,1.91,1.91,0,0,1,.08-.54,8,8,0,0,0-2.43,1.08A4.16,4.16,0,0,1,109.49,69.81Zm.38,21.61c-5,6.79-14.39,3.4-15.93-.49C93.94,90.93,102.93,93.11,109.87,91.42Zm-22.93-19a2.21,2.21,0,1,1-4.41,0,2.13,2.13,0,0,1,.2-.91l-.46.09A8.85,8.85,0,0,0,79.06,73a5,5,0,0,1,2.62-2.89A9.23,9.23,0,0,1,85.53,69a6.14,6.14,0,0,1,4,1.21c1.08.8,1.8,1.7,2.8,2.52A10.92,10.92,0,0,1,88.7,71.6a7.25,7.25,0,0,0-2.2-.55A2.23,2.23,0,0,1,86.94,72.37ZM77.12,60.71c8.55-3.29,18.87-1.82,20.69,1.44s-1.89,4.17-8.64,2.95S72,67,69.24,69.63A13,13,0,0,1,77.12,60.71Z"/><path class="cls-3" d="M95.09,126.53c-4-1.42-12.8-2.62-21.34-7.88a23.48,23.48,0,0,1-7.06-7.08c3.79,11.92,21.45,25.76,39.81,21.69a61.45,61.45,0,0,0,1.78-7.42q.18-1,.33-1.92A14.77,14.77,0,0,1,95.09,126.53Z"/><path class="cls-3" d="M93.94,90.93c1.54,3.89,11,7.28,15.93.49C102.93,93.11,93.94,90.93,93.94,90.93Z"/><path class="cls-2" d="M109.87,71.83a2.21,2.21,0,1,0,4.17-1,6.7,6.7,0,0,1,1.26.17,4.7,4.7,0,0,1,2.35,1.36,3.25,3.25,0,0,0-1.7-2.81,5.58,5.58,0,0,0-3.3-.7,6.76,6.76,0,0,0-3.16,1,4.16,4.16,0,0,0-2,2.56A8,8,0,0,1,110,71.29,1.91,1.91,0,0,0,109.87,71.83Z"/><path class="cls-2" d="M92.28,72.76c-1-.82-1.72-1.72-2.8-2.52a6.14,6.14,0,0,0-4-1.21,9.23,9.23,0,0,0-3.85,1.07A5,5,0,0,0,79.06,73a8.85,8.85,0,0,1,3.21-1.44l.46-.09a2.13,2.13,0,0,0-.2.91,2.21,2.21,0,1,0,4-1.32,7.25,7.25,0,0,1,2.2.55A10.92,10.92,0,0,0,92.28,72.76Z"/><path class="cls-3" d="M117.65,59.26c-5.89-.68-9.15,1.45-10.13,3.42s-.39,2.58,1.06,2.28c2.84-.57,13.46-2.68,14.47,3,.64-2.38.72-4.62-.38-6.25C121.81,60.46,120.24,59.56,117.65,59.26Z"/><path class="cls-3" d="M89.17,65.1c6.75,1.22,10.46.31,8.64-2.95s-12.14-4.73-20.69-1.44a13,13,0,0,0-7.88,8.92C72,67,82.43,63.89,89.17,65.1Z"/><path class="cls-3" d="M100.39,101.56c-4.47.23-13.26,2.2-13.26,2.2,7.05.53,15.69,1.81,24.33-1.37A39,39,0,0,0,100.39,101.56Z"/><path class="cls-3" d="M95.92,109.67c3,4,8.79,2.65,10.53-.91C103.42,109.82,101,110.27,95.92,109.67Z"/></svg>