<svg xmlns="http://www.w3.org/2000/svg" viewBox="0 0 180 180"><defs><style>.cls-1{fill:#6ed3f3;}.cls-2{fill:#091440;}.cls-3{fill:#fff;}.cls-4{fill:#848aa0;}</style></defs><title>elian</title><g id="illustrations_c"><circle id="_Path_" data-name="&lt;Path&gt;" class="cls-1" cx="90" cy="90" r="90"/><path class="cls-2" d="M112.47,135.22l-.34,4.88-.25,3.49h0l0,.16A17.89,17.89,0,0,1,101,159c-6.4,2.66-15.13,4.15-24.28-.74-11.18-6-19.39-17.38-19.79-24.1a21.33,21.33,0,0,1,.43-4.56L20.48,147.17a90,90,0,0,0,133.88,5.73Z"/><path class="cls-2" d="M56.27,74.78c.31.89.82,2,1.38,3.4,0,.86,0,1.79,0,2.84.07,7.23,2.29,12,2.58,18.52.26,5.84-.47,18.32,9.35,26.8a27.11,27.11,0,0,0,3.54,2.58c13.53,8.3,19.54,9.16,29.28,8.45a16.08,16.08,0,0,0,10.28-5.23h0c4.07-4.16,7-10.14,8.69-15.54,2.94-9.16,7-14.17,3.4-21.83h0c-.74,6.13-2.63,7.48-3.49,7.7a16.66,16.66,0,0,0-3.58-4.32c-5-3.92-7.49-4.11-14.72-3.71S91.31,96,86.71,99.54s-6.78,3.82-5.49.88S73.77,102.64,70,98.2s-7.85-10.12-5.33-24.36c.77-3.27,1.63-6.62,2.75-10.08,1.65-5.08-2-8.87-1.93-12.81s.5-7.3,6.94-11.67,13.1-2.79,17.47-1.51a42.31,42.31,0,0,0,15.75,1.08c5.16-.65,8,2.65,11.89,9.81s3.08,10.67,3.65,14a20.56,20.56,0,0,0,.51,2.2l0,0c2.91-2.89,2.3-7.22,0-11.8l-2.29-4.58a5.23,5.23,0,0,0,1.67-4.59c-.72-4.26-3.41-4.2-3.41-4.2s2-2.37.78-6.95-7.34-6.17-11-6.67a39.52,39.52,0,0,1-6.1-1.24s-4.67-5.07-13.34,0c-7.3-3.21-12.5,0-13.37,3-10.42.93-14.48,7.32-15.35,11.53-5.94.62-10.52,9.41-8.05,16.09-3,5.53-2.2,14.18-.46,17.35C52.71,70.89,55.26,71.82,56.27,74.78Zm46.08,24c2.1-.14,7.5,0,10.13,1.09,4.47,1.8,5.25,4.73,5.25,7.62,0,10.87-7.66,13.53-9.2,11.74s0-5.44,1.54-8.59c-3.79,1.72-11.46.53-13.39.32a18,18,0,0,1,2.54,5.78c.48,2.64-.39,3.71-4.78,2.64s-4.77-4.87-9.48-5.09S84.42,100,102.35,98.73Z"/><polygon class="cls-3" points="112.13 140.1 112.47 135.22 112.69 132.14 112.69 132.14 112.13 140.1"/><path class="cls-3" d="M56.91,134.19c.4,6.72,8.61,18.13,19.79,24.1,9.15,4.89,17.88,3.4,24.28.74a17.89,17.89,0,0,0,10.88-15.28l0-.16c-3.34,2.23-9.69,4.45-20.2.94-10.83-3.61-18.16-12.29-22.09-18.19-9.82-8.48-9.09-21-9.35-26.8C60,93.07,57.73,88.25,57.66,81c0-1,0-2,0-2.84-.56-1.39-1.07-2.51-1.38-3.4-1-3-3.56-3.89-5.54-2a8.52,8.52,0,0,0-2.14,4.35C47.11,83.76,50.7,84.63,50.7,89s-.13,7.8,2.35,9.78a19.48,19.48,0,0,0,5.74,2.73c.32,17-.79,24-1.45,28.16A21.33,21.33,0,0,0,56.91,134.19Z"/><path class="cls-4" d="M112.69,132.14a16.08,16.08,0,0,1-10.28,5.23c-9.74.71-15.75-.15-29.28-8.45a27.11,27.11,0,0,1-3.54-2.58c3.93,5.9,11.26,14.58,22.09,18.19,10.51,3.51,16.86,1.29,20.2-.94h0l.25-3.49Z"/><path class="cls-3" d="M117.52,48.66c-3.87-7.16-6.73-10.46-11.89-9.81a42.31,42.31,0,0,1-15.75-1.08c-4.37-1.28-11-2.86-17.47,1.51S65.54,47,65.47,51s3.58,7.73,1.93,12.81c-1.12,3.46-2,6.81-2.75,10.08C62.13,88.08,66.19,93.77,70,98.2s12.53-.71,11.24,2.22.89,2.67,5.49-.88,9.06-4.7,16.28-5.09,9.71-.21,14.72,3.71a16.66,16.66,0,0,1,3.58,4.32c.86-.22,2.75-1.57,3.49-7.7a17.13,17.13,0,0,0-.1-3.81c-.72-4.87-1.82-11.65-1.91-15.17a38.35,38.35,0,0,1,.11-4.53c0-.88-.21-3.19-1.92-3.51-2.12-.39-3.69.57-6.39,1-1.92.33-4.87-.19-3.64-1.29,2.19-2,4.56-2.15,7.59-3a3.46,3.46,0,0,1,3.18.39s0,0,0-.06a20.56,20.56,0,0,1-.51-2.2C120.6,59.33,121.38,55.82,117.52,48.66ZM71.92,70.33c.48-1.21,5-6.82,9.74-7.61s8.29,0,13,2.4c1.31.68,1.79,1.91-1.39,2.52s-6.3-1.24-10.47-1.11S73.4,69.81,71.92,70.33Zm10.36,1.5a14.55,14.55,0,0,1,4.08-.91,10.49,10.49,0,0,1,4.19.51,5.65,5.65,0,0,1,3.19,2.63,7.06,7.06,0,0,0-3.42-1.89,13,13,0,0,0-3.89-.25,21,21,0,0,0-3.91.65,12.72,12.72,0,0,0-3.72,1.49A8.38,8.38,0,0,1,82.28,71.83Zm-2.34,3.71a8.83,8.83,0,0,1,3.12-2,10.36,10.36,0,0,1,3.71-.75,9.65,9.65,0,0,1,3.75.74,6.63,6.63,0,0,1,3,2.3,21.57,21.57,0,0,0-6.21-1,2.06,2.06,0,0,1,.08.66A2.16,2.16,0,1,1,83,75.24a1,1,0,0,1,0-.16c-.43.07-.87.15-1.31.2C81.16,75.37,80.58,75.5,79.94,75.54Zm24.64,18.78c-4.62.51-9.32-.23-10.14-2.31a21.4,21.4,0,0,1,10.14-2.19,15.77,15.77,0,0,1,7.48,1.37C111.44,92.21,109.2,93.81,104.58,94.32Zm12.48-19.24a11.84,11.84,0,0,0-1.66-.54,2.06,2.06,0,0,1,.16.79,2.17,2.17,0,1,1-4.33,0,2.13,2.13,0,0,1,.22-.94,21.35,21.35,0,0,1-2.92.1,9.39,9.39,0,0,1,2.79-1.65,7.22,7.22,0,0,1,3.36-.46,6.26,6.26,0,0,1,3.17,1.35A8.11,8.11,0,0,1,120,76.21C118.9,75.88,118,75.43,117.06,75.08Zm-5.22-3.59a9.53,9.53,0,0,1,3.22-.61,8.15,8.15,0,0,1,3.23.62,4.18,4.18,0,0,1,2.39,2.16A5.59,5.59,0,0,0,118,72.24a10.91,10.91,0,0,0-3-.36,14.62,14.62,0,0,0-3,.35,28.33,28.33,0,0,0-3,.94A9.12,9.12,0,0,1,111.84,71.49Z"/><path class="cls-3" d="M85,114.24c4.71.22,5.08,4,9.48,5.09s5.26,0,4.78-2.64a18,18,0,0,0-2.54-5.78c1.93.21,9.6,1.4,13.39-.32-1.54,3.15-3.09,6.8-1.54,8.59s9.21-.87,9.2-11.74c0-2.89-.78-5.82-5.25-7.62-2.63-1-8-1.23-10.13-1.09C84.42,100,80.25,114,85,114.24Zm15.93-14.59c5.43-.4,11.38.33,12.5,1.52.9,1,1,1.36.26,2l0,0S111,106,104.22,106,92,105.3,88.89,104.23C88.89,104.23,95.46,100,100.89,99.65Z"/><path class="cls-2" d="M93.22,67.64c3.18-.61,2.7-1.84,1.39-2.52-4.66-2.44-8.26-3.18-13-2.4s-9.26,6.4-9.74,7.61c1.48-.52,6.66-3.67,10.83-3.8S90.05,68.25,93.22,67.64Z"/><path class="cls-2" d="M118.52,64.55c-3,.81-5.4,1-7.59,3-1.23,1.1,1.72,1.62,3.64,1.29,2.7-.47,4.27-1.43,6.39-1,1.71.32,1.91,2.63,1.92,3.51v.33a8.64,8.64,0,0,0,.39-3.49,5.23,5.23,0,0,0-1.57-3.17A3.46,3.46,0,0,0,118.52,64.55Z"/><path class="cls-4" d="M94.44,92c.82,2.08,5.52,2.82,10.14,2.31s6.86-2.11,7.48-3.13a15.77,15.77,0,0,0-7.48-1.37A21.4,21.4,0,0,0,94.44,92Z"/><path class="cls-2" d="M86.43,71.92a13,13,0,0,1,3.89.25,7.06,7.06,0,0,1,3.42,1.89,5.65,5.65,0,0,0-3.19-2.63,10.49,10.49,0,0,0-4.19-.51,14.55,14.55,0,0,0-4.08.91,8.38,8.38,0,0,0-3.48,2.23,12.72,12.72,0,0,1,3.72-1.49A21,21,0,0,1,86.43,71.92Z"/><path class="cls-2" d="M83.06,75.08a1,1,0,0,0,0,.16,2.16,2.16,0,1,0,4.32.19,2.06,2.06,0,0,0-.08-.66,21.57,21.57,0,0,1,6.21,1,6.63,6.63,0,0,0-3-2.3,9.65,9.65,0,0,0-3.75-.74,10.36,10.36,0,0,0-3.71.75,8.83,8.83,0,0,0-3.12,2c.64,0,1.22-.17,1.81-.26C82.19,75.23,82.63,75.15,83.06,75.08Z"/><path class="cls-2" d="M112.07,72.23a14.62,14.62,0,0,1,3-.35,10.91,10.91,0,0,1,3,.36,5.59,5.59,0,0,1,2.65,1.42,4.18,4.18,0,0,0-2.39-2.16,8.15,8.15,0,0,0-3.23-.62,9.53,9.53,0,0,0-3.22.61,9.12,9.12,0,0,0-2.75,1.68A28.33,28.33,0,0,1,112.07,72.23Z"/><path class="cls-2" d="M117.85,73.73a6.26,6.26,0,0,0-3.17-1.35,7.22,7.22,0,0,0-3.36.46,9.39,9.39,0,0,0-2.79,1.65,21.35,21.35,0,0,0,2.92-.1,2.13,2.13,0,0,0-.22.94,2.17,2.17,0,1,0,4.33,0,2.06,2.06,0,0,0-.16-.79,11.84,11.84,0,0,1,1.66.54c.91.35,1.84.8,2.9,1.13A8.11,8.11,0,0,0,117.85,73.73Z"/><path class="cls-4" d="M100.79,102.57a31.59,31.59,0,0,0,5.33,0c3.5-.42,5,.72,5.22.79a3.3,3.3,0,0,0,2.31-.22c.77-.61.64-1-.26-2-1.12-1.19-7.07-1.92-12.5-1.52s-12,4.58-12,4.58l4.72-.76A66.85,66.85,0,0,1,100.79,102.57Z"/><path class="cls-2" d="M113.7,103.1l0,0a3.3,3.3,0,0,1-2.31.22h0a14.14,14.14,0,0,1-5.89,2c-4.36.45-7.58-.28-12.62-1.77l.76-.12-4.72.76C92,105.3,97.49,106,104.22,106S113.7,103.1,113.7,103.1Z"/><path class="cls-3" d="M106.12,102.57a31.59,31.59,0,0,1-5.33,0,66.85,66.85,0,0,0-7.18.9l-.76.12c5,1.49,8.26,2.22,12.62,1.77a14.14,14.14,0,0,0,5.89-2h0C111.14,103.29,109.62,102.15,106.12,102.57Z"/></g></svg>