<svg xmlns="http://www.w3.org/2000/svg" viewBox="1877.8 1898.2 18 17.634"><defs><style>.a{fill:#091440;fill-rule:evenodd;}</style></defs><path class="a" d="M1083.837,1030.2a9.045,9.045,0,0,0-2.862,17.622.458.458,0,0,0,.6-.452v-1.506c-2.485.527-3.012-1.2-3.012-1.2a2.385,2.385,0,0,0-.979-1.356c-.828-.527.075-.527.075-.527a1.854,1.854,0,0,1,1.356.9,1.962,1.962,0,0,0,2.636.753,1.676,1.676,0,0,1,.6-1.2c-2.033-.226-4.142-.979-4.142-4.443a7.644,7.644,0,0,0,.979-4.82s.753-.226,2.485.9a8.622,8.622,0,0,1,4.519,0c1.732-1.2,2.485-.9,2.485-.9a3.158,3.158,0,0,1,.075,2.41,3.3,3.3,0,0,1,.9,2.41c0,3.464-2.109,4.217-4.142,4.443a2.265,2.265,0,0,1,.6,1.657v2.485a.458.458,0,0,0,.6.452,9.045,9.045,0,0,0-2.786-17.622Z" transform="translate(803 868)"/></svg>
