<svg xmlns="http://www.w3.org/2000/svg" viewBox="0 0 180 180"><defs><style>.cls-1{fill:#2f74fb;}.cls-2{fill:#091440;}.cls-3{fill:#fff;}.cls-4{fill:#848aa0;}</style></defs><title>Asset 3</title><g id="Layer_2" data-name="Layer 2"><g id="illustrations"><g id="_Group_" data-name="&lt;Group&gt;"><circle id="_Path_" data-name="&lt;Path&gt;" class="cls-1" cx="90" cy="90" r="90"/><g id="_Group_2" data-name="&lt;Group&gt;"><path id="_Path_2" data-name="&lt;Path&gt;" class="cls-2" d="M52.55,122.33h-.22l0,.07S52.44,122.4,52.55,122.33Z"/><path id="_Path_3" data-name="&lt;Path&gt;" class="cls-2" d="M108.2,123.38c-2.57,10.16-8.87,20.05-27.15,18.36-21.53-2-28.26-18.24-28.69-19.34a.09.09,0,0,1,0-.07l-39,14.76A90,90,0,0,0,161,145.31l-52.58-22.85A7.09,7.09,0,0,1,108.2,123.38Z"/><path id="_Path_4" data-name="&lt;Path&gt;" class="cls-3" d="M108.94,119.93l-.51,2.5C108.62,121.6,108.79,120.76,108.94,119.93Z"/><path id="_Path_5" data-name="&lt;Path&gt;" class="cls-3" d="M52.36,122.4c.43,1.1,7.16,17.35,28.69,19.34,18.28,1.69,24.58-8.2,27.15-18.36-.81,2.64-4.33,10-18.2,8.39C74,130,65.27,109,63.18,102h0a57.54,57.54,0,0,1-3.5-9.63h0c.24,4.87.69,20.54-3.06,25.31-2.71,3.44-3.71,4.42-4.08,4.65C52.44,122.4,52.38,122.41,52.36,122.4Z"/><path id="_Path_6" data-name="&lt;Path&gt;" class="cls-3" d="M52.36,122.4l0-.07A.09.09,0,0,0,52.36,122.4Z"/><path id="_Path_7" data-name="&lt;Path&gt;" class="cls-4" d="M84,124.89c-9.39-4.23-16.49-13.66-20.77-22.89h0C65.27,109,74,130,90,131.77c13.87,1.56,17.39-5.75,18.2-8.39a7.09,7.09,0,0,0,.22-.92v0l.51-2.5h0C104.54,126.13,93,128.94,84,124.89Z"/><path id="_Compound_Path_" data-name="&lt;Compound Path&gt;" class="cls-3" d="M104.26,58.08s-7.59-6.7-11.8-7.1-12,.6-21.1-3.4c-4.4,6.1-7.83,5.7-10.25,11.66-1.94,4.76-.33,14.23-.33,14.23s2.7,16.71,7.4,21.31,3.3,11,6.3,11.58-.92-4.26,4.4-6.56c4.18-1.81,9-3.93,15.21-4.71a15.07,15.07,0,0,1-6.7-4.19s6.8,2.72,12.55,2,7-2,7-2a10.18,10.18,0,0,1-5,4.08,24.67,24.67,0,0,1,8.88,3c2.26,1.18,3.48,1.6,3.38,4.1s1.18-.2,2.58-4.5c2.1-9,5.13-13,4.69-19.83-.28-4.42-.52-8.6-.43-13-.16-.39-.85-1.52-3.46-1.81-3.16-.35-10.91,3-12.56,3.91-1.27.67.26-4,1.7-4.34s7.47-3.15,11.84-2.71a2.89,2.89,0,0,1,2.62,1.59c.06-1,.14-1.93.24-2.93a38.29,38.29,0,0,0-20.44-9A14.28,14.28,0,0,1,104.26,58.08ZM81.42,71a2.5,2.5,0,1,1-5,0,2.29,2.29,0,0,1,.14-.78l-.31.06c-.5.13-1,.21-1.48.32s-.93.18-1.35.27-.82.15-1.15.21l-.88.19-.77.18a5.49,5.49,0,0,1,.61-.52,14.93,14.93,0,0,1,1.82-1.11,20.69,20.69,0,0,1,2.72-1.22,18.37,18.37,0,0,1,3.36-.87,13.52,13.52,0,0,1,1.8-.15c.3,0,.62,0,.92,0l.85.1a5.5,5.5,0,0,1,1.68.53,3.83,3.83,0,0,1,1.29,1,3.64,3.64,0,0,1,.72,1.1,3.53,3.53,0,0,1,.25,1,3,3,0,0,1,0,.83,4.32,4.32,0,0,0-.37-.7A4.18,4.18,0,0,0,84.94,70a4.28,4.28,0,0,0-1.09-.44,6.61,6.61,0,0,0-1.31-.16h-.77l-.74,0h-.1A2.43,2.43,0,0,1,81.42,71Zm-8.57-5.33c-3.93.44-6.72,1-6.72,1s.43-1.66,3.32-3.5,6.29-1.13,10.92-.69a75.58,75.58,0,0,0,7.95.35L90.15,66C84,68.26,76.79,65.2,72.85,65.64Zm33.09,5.75a4.29,4.29,0,0,1,.79-1.53,5,5,0,0,1,.82-.85,5.39,5.39,0,0,1,1.1-.73,7.55,7.55,0,0,1,1.3-.54,9.14,9.14,0,0,1,1.4-.29,11.11,11.11,0,0,1,1.41-.08,6.19,6.19,0,0,1,.67,0c.24,0,.5.06.72.11a4.72,4.72,0,0,1,2.31,1.15,3.6,3.6,0,0,1,1,1.49,3.65,3.65,0,0,1,.16.63l-.5-.38a5.63,5.63,0,0,0-1.29-.74,6.44,6.44,0,0,0-1.88-.34h-.52c-.19,0-.47,0-.6,0l-.32,0A2.49,2.49,0,1,1,108.07,71a2.32,2.32,0,0,1,.1-.65,6.53,6.53,0,0,0-.7.35A6.79,6.79,0,0,0,105.84,72,2.32,2.32,0,0,1,105.94,71.39Z"/><path id="_Compound_Path_2" data-name="&lt;Compound Path&gt;" class="cls-3" d="M84.28,111.89c4.13,4.27,12.24,5.31,17.68,3.63,7.68-2.37,9.64-10.56,9.07-11.9-1.14-2.67-7-5.25-9.87-4.57s-3.85-.17-6.33-.27-10.77,3.61-13.06,5.4C80.59,105.1,80.92,108.42,84.28,111.89Zm7.94-1.08a21.51,21.51,0,0,0,10.83,0C96.81,115.09,93.71,111.86,92.22,110.81Zm1.49-9.92c1.61,0,3,1.27,4.29,1.27s2.79-1.57,5-1.22,6.46,3.41,6.46,3.41-1.57-.18-3.36-.35-5.2,1.92-7.12,2-6.82-1.26-10.31-.39a24.43,24.43,0,0,1-6,.79S90.66,100.85,93.71,100.89Z"/><path id="_Path_8" data-name="&lt;Path&gt;" class="cls-4" d="M107,90.9s-1.25,1.25-7,2-12.55-2-12.55-2a15.07,15.07,0,0,0,6.7,4.19,38.7,38.7,0,0,1,4.3-.3,26.09,26.09,0,0,1,3.54.19A10.18,10.18,0,0,0,107,90.9Z"/><path id="_Path_9" data-name="&lt;Path&gt;" class="cls-4" d="M88.65,105.57C92.14,104.7,97,106,99,106s5.33-2.14,7.12-2,3.36.35,3.36.35-4.28-3.06-6.46-3.41-3.67,1.22-5,1.22-2.68-1.25-4.29-1.27c-3,0-11.09,5.47-11.09,5.47A24.43,24.43,0,0,0,88.65,105.57Z"/><path id="_Path_10" data-name="&lt;Path&gt;" class="cls-4" d="M92.22,110.81c1.49,1,4.59,4.28,10.83,0A21.51,21.51,0,0,1,92.22,110.81Z"/><path id="_Path_11" data-name="&lt;Path&gt;" class="cls-2" d="M81.77,69.44h.77a6.61,6.61,0,0,1,1.31.16,4.28,4.28,0,0,1,1.09.44,4.18,4.18,0,0,1,1.34,1.3,4.32,4.32,0,0,1,.37.7,3,3,0,0,0,0-.83,3.53,3.53,0,0,0-.25-1,3.64,3.64,0,0,0-.72-1.1,3.83,3.83,0,0,0-1.29-1,5.5,5.5,0,0,0-1.68-.53l-.85-.1c-.3,0-.62,0-.92,0a13.52,13.52,0,0,0-1.8.15,18.37,18.37,0,0,0-3.36.87,20.69,20.69,0,0,0-2.72,1.22,14.93,14.93,0,0,0-1.82,1.11,5.49,5.49,0,0,0-.61.52l.77-.18.88-.19c.33-.06.74-.12,1.15-.21s.88-.16,1.35-.27,1-.19,1.48-.32l.31-.06a2.29,2.29,0,0,0-.14.78,2.5,2.5,0,1,0,5,0,2.43,2.43,0,0,0-.49-1.47H81Z"/><path id="_Path_12" data-name="&lt;Path&gt;" class="cls-2" d="M80.37,62.5c-4.63-.44-8-1.14-10.92.69s-3.32,3.5-3.32,3.5,2.79-.61,6.72-1S84,68.26,90.15,66l-1.83-3.14A75.58,75.58,0,0,1,80.37,62.5Z"/><path id="_Path_13" data-name="&lt;Path&gt;" class="cls-2" d="M107.47,70.67a6.53,6.53,0,0,1,.7-.35,2.32,2.32,0,0,0-.1.65,2.5,2.5,0,1,0,4.39-1.61l.32,0c.13,0,.41,0,.6,0h.52a6.44,6.44,0,0,1,1.88.34,5.63,5.63,0,0,1,1.29.74l.5.38a3.65,3.65,0,0,0-.16-.63,3.6,3.6,0,0,0-1-1.49,4.72,4.72,0,0,0-2.31-1.15c-.22,0-.48-.08-.72-.11a6.19,6.19,0,0,0-.67,0,11.11,11.11,0,0,0-1.41.08,9.14,9.14,0,0,0-1.4.29,7.55,7.55,0,0,0-1.3.54,5.39,5.39,0,0,0-1.1.73,5,5,0,0,0-.82.85,4.29,4.29,0,0,0-.79,1.53,2.32,2.32,0,0,0-.1.64A6.79,6.79,0,0,1,107.47,70.67Z"/><path id="_Path_14" data-name="&lt;Path&gt;" class="cls-2" d="M118.55,59.79c-4.37-.44-10.4,2.36-11.84,2.71s-3,5-1.7,4.34c1.65-.88,9.4-4.26,12.56-3.91,2.61.29,3.3,1.42,3.46,1.81a.58.58,0,0,1,0,.13,5.18,5.18,0,0,0,.09-3.49A2.89,2.89,0,0,0,118.55,59.79Z"/><path id="_Path_15" data-name="&lt;Path&gt;" class="cls-3" d="M54.3,68.77a6.26,6.26,0,0,1-.16-1A7.12,7.12,0,0,0,49.71,66c-1.94-.11-3.62,1.1-3.89,4.23s1.28,13.25,6.3,18.26c4,4,5.82,4.26,7.51,3.69C56.74,80.87,55,72.12,54.37,69,54.35,69,54.32,68.86,54.3,68.77Z"/><path id="_Compound_Path_3" data-name="&lt;Compound Path&gt;" class="cls-2" d="M63.19,102c4.28,9.23,11.38,18.66,20.77,22.89,9,4,20.58,1.24,25-5s6.78-13.57,7.83-22.35c-1.4,4.3-2.68,7-2.58,4.5s-1.12-2.92-3.38-4.1a24.67,24.67,0,0,0-8.88-3,26.09,26.09,0,0,0-3.54-.19,38.7,38.7,0,0,0-4.3.3c-6.23.78-11,2.9-15.21,4.71-5.32,2.3-1.4,7.09-4.4,6.56s-1.6-7-6.3-11.58-7.4-21.31-7.4-21.31-1.61-9.47.33-14.23c2.42-6,5.85-5.56,10.25-11.66,9.1,4,16.9,3,21.1,3.4s11.8,7.1,11.8,7.1a14.28,14.28,0,0,0-3.29-8.6,38.29,38.29,0,0,1,20.44,9,30.38,30.38,0,0,1,3.26,3.13l1.7-3.1c1.7-3.1,3.6-7.6,3.5-11.1,1.9.7,5.6-1.6,5.6-1.6l-2.6-2.9c-2.6-2.9-3.8-11.6-10.4-23.31s-23-16.4-31.21-15.93S79.86,5.27,69.66,8s-11.5,11-11.5,11-8.5,4.2-9.8,13.51,1.5,13.5,3.9,22.8a48.74,48.74,0,0,1,1.88,12.51,6.26,6.26,0,0,0,.16,1c0,.09.05.18.07.27.6,3.08,2.37,11.83,5.26,23.1l.06.23h0A57.54,57.54,0,0,0,63.19,102Zm18.58,2.18c2.29-1.79,10.57-5.5,13.06-5.4s3.49,1,6.33.27,8.73,1.9,9.87,4.57c.57,1.34-1.39,9.53-9.07,11.9-5.44,1.68-13.55.64-17.68-3.63C80.92,108.42,80.59,105.1,81.77,104.18Z"/></g></g></g></g></svg>