<svg xmlns="http://www.w3.org/2000/svg" viewBox="0 0 180 180"><title>5</title><circle cx="90" cy="90" r="90" fill="#6ed3f3"/><path d="M64.832,79.377c.289-7.321,4.687-17.126,4.687-17.126s-7.2-9.11-1.574-17.475,16.274-6.61,20.681-5.089,16.522,5.2,21.372,2.225c3.995-2.448,5.243-3.955,8.337-2.479,3.516,1.678,5.024,5.832,6.179,17.264.026.256.055.617.084,1.017a95.117,95.117,0,0,0,.57-9.931c-.176-11.616-.871-15.259-12.334-21-12.372-6.192-29.618-7.289-40.781-1.97A32.436,32.436,0,0,0,53.41,52.43a62.514,62.514,0,0,0,1.965,20.4c.06-.019.114-.043.176-.061C58.333,71.987,61.242,74.336,64.832,79.377Z" fill="#091440"/><path d="M113.369,132.285c-2.744,14.16-10.832,21.089-24.143,20.675s-29.585-11.449-26.411-24.04c.268-1.064.51-2.115.738-3.162L18.6,144.793a90,90,0,0,0,140.636,2.7L113.961,127.95Z" fill="#091440"/><path d="M89.227,152.96c13.31.414,21.4-6.516,24.143-20.675-9.734,8.685-23.831,3.524-30.825-6.754,13.147,7.6,23.561,7.413,29.5,1.677.832-.8,1.6-1.561,2.332-2.3,4.58-4.672,7.186-8.687,8.882-18.984,1.966-11.933,2.823-24.037,2.194-27.371a50.252,50.252,0,0,1-.714-11.256c-2.136-3.14-7.58-1.036-11.416-.613-2.385.263-3.42-.427-3.148-1.069,1.766-4.169,8.174-4.416,12.171-3.376a3.606,3.606,0,0,1,2.462,2.2c.006-.279.013-.556.017-.838.021-1.6-.107-4.229-.228-5.889-.029-.4-.058-.761-.084-1.017-1.155-11.432-2.663-15.586-6.179-17.264-3.094-1.477-4.342.03-8.337,2.479-4.85,2.973-16.965-.7-21.372-2.225S73.575,36.41,67.946,44.775,69.52,62.25,69.52,62.25s-4.4,9.805-4.687,17.126c-3.59-5.041-6.5-7.39-9.28-6.607-.062.018-.116.042-.176.061-6.022,1.934-.2,12.369,1.073,17.519,1.042,4.209,4.931,9.08,8.405,8.68a79.4,79.4,0,0,1-1.3,26.729c-.228,1.047-.47,2.1-.738,3.162C59.641,141.512,75.916,152.547,89.227,152.96Zm1.382-80.632a8.825,8.825,0,0,0-2.406-.49,2.5,2.5,0,1,1-4.449.584c-.224.068-.448.135-.671.211-1.294.4-2.553.99-3.956,1.464a11.357,11.357,0,0,1,3.309-2.884,9.482,9.482,0,0,1,4.334-1.386,7.678,7.678,0,0,1,4.51,1.1,8.334,8.334,0,0,1,3.043,3.229A23.753,23.753,0,0,0,90.609,72.329Zm22.273,31.478a.359.359,0,0,1-.152.674c-3.98.194-13.783.623-22.53.623,5.4-2.722,9.287-4.655,10.79-4.646s2.982,1.6,4.324.99,2.043-1.38,3.639-.835C110.184,101.033,111.216,102.84,112.882,103.807Zm-17.041,5.972c2.018.415,8.4,1.571,14.484-.4-.264.165-1.849,3.46-5.846,4.116C100.85,114.093,97.778,112.1,95.841,109.779Zm15.788-39.267a5.778,5.778,0,0,1,3.819-1.007,7.916,7.916,0,0,1,3.677,1.036,5.18,5.18,0,0,1,2.28,3.013c-.559-.3-1.047-.636-1.539-.893a8.389,8.389,0,0,0-1.459-.6,13.932,13.932,0,0,0-1.989-.423,2.5,2.5,0,1,1-4.714.873,2.519,2.519,0,0,1,.1-.486c-.8.384-1.641.927-2.58,1.279A10.971,10.971,0,0,1,111.629,70.512Zm.178,21.35c.725-.119-.26,1.009-.821,1.484a9.274,9.274,0,0,1-1.322.91c-5.525,3.216-12.687,1.3-14.619-2.11,0,0,3,.2,7.9.338A48.358,48.358,0,0,0,111.807,91.862ZM78.535,62.719c1.3-.641,7.873.3,11.315-.328s4.386.862,5.672,3.976c-.888,1.388-4.419.52-9.322.166s-8.52-.408-12.309,1.167C74.6,66.457,77.232,63.36,78.535,62.719Z" fill="#fff"/><path d="M112.045,127.209c-5.939,5.736-16.353,5.926-29.5-1.677,6.994,10.278,21.09,15.439,30.825,6.754l.592-4.335.416-3.044C113.649,125.648,112.876,126.405,112.045,127.209Z" fill="#848aa0"/><path d="M122.347,62.236c-4-1.04-10.406-.793-12.171,3.376-.272.643.763,1.333,3.148,1.069,3.836-.423,9.28-2.527,11.416.613.032.048.071.085.1.135a5.924,5.924,0,0,0,.214-1.56,3.651,3.651,0,0,0-2.709-3.634Z" fill="#091440"/><path d="M86.2,66.532c4.9.354,8.434,1.222,9.322-.166-1.286-3.114-2.23-4.6-5.672-3.976s-10.012-.313-11.315.328S74.6,66.457,73.891,67.7C77.681,66.125,81.3,66.178,86.2,66.532Z" fill="#091440"/><path d="M111.705,72.506a2.5,2.5,0,1,0,4.714-.873,13.932,13.932,0,0,1,1.989.423,8.389,8.389,0,0,1,1.459.6c.492.258.979.594,1.539.893a5.18,5.18,0,0,0-2.28-3.013,7.916,7.916,0,0,0-3.677-1.036,5.778,5.778,0,0,0-3.819,1.007,10.971,10.971,0,0,0-2.4,2.787c.939-.352,1.776-.9,2.58-1.279A2.519,2.519,0,0,0,111.705,72.506Z" fill="#091440"/><path d="M91.28,70.926a7.678,7.678,0,0,0-4.51-1.1,9.482,9.482,0,0,0-4.334,1.386A11.357,11.357,0,0,0,79.127,74.1c1.4-.474,2.662-1.061,3.956-1.464.224-.077.448-.143.671-.211a2.5,2.5,0,1,0,4.449-.584,8.825,8.825,0,0,1,2.406.49,23.753,23.753,0,0,1,3.714,1.826A8.334,8.334,0,0,0,91.28,70.926Z" fill="#091440"/><path d="M109.665,94.255a9.274,9.274,0,0,0,1.322-.91c.561-.474,1.546-1.6.821-1.484a48.358,48.358,0,0,1-8.858.621c-4.9-.133-7.9-.338-7.9-.338C96.977,95.56,104.139,97.471,109.665,94.255Z" fill="#848aa0"/><path d="M105.314,101.448c-1.342.61-2.822-.981-4.324-.99S95.6,102.382,90.2,105.1c8.746,0,18.55-.429,22.53-.623a.359.359,0,0,0,.152-.674c-1.666-.967-2.7-2.774-3.929-3.194C107.357,100.068,106.657,100.838,105.314,101.448Z" fill="#848aa0"/><path d="M104.479,113.5c4-.656,5.582-3.951,5.846-4.116-6.085,1.969-12.467.812-14.484.4C97.778,112.1,100.85,114.093,104.479,113.5Z" fill="#848aa0"/></svg>