<svg xmlns="http://www.w3.org/2000/svg" viewBox="1551.8 2208.564 18.415 18.185"><defs><style>.a{fill:#091440;}</style></defs><g transform="translate(1510 2207)"><path class="a" d="M50.8,15.8c.2.8.6,1.7.7,2.2a1.615,1.615,0,0,1-2.9,1.1,13.2,13.2,0,0,1-.8-2.2c-1.1.3-1.8.8-2.6.7a1.645,1.645,0,0,1-.7-2.8c.6-.5,1.5-.5,2.3-.9a36.957,36.957,0,0,0-1.2-3.5,8.282,8.282,0,0,1-2.7.7,1.588,1.588,0,0,1-1.1-1.5c0-1.5,1.7-1.6,2.8-2a7.283,7.283,0,0,1-.7-2.4A1.676,1.676,0,0,1,46.5,4c.5.3.8,1.6,1.1,2.6L51,5.4c-.4-1.3-1.1-2.5-.2-3.4a1.757,1.757,0,0,1,2.5.2,9.749,9.749,0,0,1,.8,2.2c.9-.4,2-1,2.9-.7a1.556,1.556,0,0,1,.9,1.8c-.4,1.1-1.7,1.3-2.8,1.7l1.1,3.5a8.038,8.038,0,0,1,2.4-.7,1.633,1.633,0,0,1,1.6,1.3c.2,1.7-1.7,1.9-2.9,2.3A6.9,6.9,0,0,1,58,16c0,1.6-2.1,2-3,.8a10.094,10.094,0,0,1-.7-2.1C54.2,14.7,50.8,15.9,50.8,15.8Zm2.4-4.1L52,8.2,48.7,9.4l1.1,3.4Z"/></g></svg>