<svg xmlns="http://www.w3.org/2000/svg" xmlns:xlink="http://www.w3.org/1999/xlink" viewBox="6055 1642 180 180"><defs><style>.a{clip-path:url(#a);}.b{fill:#2970ff;}.c,.f,.g{fill:#091440;}.d{fill:#fff;}.e{clip-path:url(#c);}.f,.h{opacity:0.5;}.g{opacity:0.1;}</style><clipPath id="a"><circle cx="90" cy="90" r="90"/></clipPath><clipPath id="c"><path d="M116,113.5s-2,13.4-2.6,19c-.6,5.5-15,25-15,25s-39.3-16.7-39.7-27,1.9-6.8,2-27.9c.1-21.3-.2-22.7-.2-22.7h57.8C118.3,79.8,115.8,106.4,116,113.5Z"/></clipPath></defs><g transform="translate(6055 1642)"><g class="a"><path class="b" d="M90,0A90,90,0,1,1,0,90,90,90,0,0,1,90,0Z"/></g><g class="a"><path class="c" d="M107,125.5,69.7,117,3.1,152.2v30.4H173.6l-9.8-26.7Z"/><path class="d" d="M116,113.5s-2,13.4-2.6,19c-.6,5.5-15,25-15,25s-39.3-16.7-39.7-27,1.9-6.8,2-27.9c.1-21.3-.2-22.7-.2-22.7h57.8C118.3,79.8,115.8,106.4,116,113.5Z"/><g class="e"><path class="f" d="M74.6,111s13.4,25.6,37.8,21.3,9-27.9,9-27.9Z"/></g><path class="d" d="M60.5,60.6s-.6,30.5.6,38.9c1.2,8.3,17.6,28.4,44.8,26.3,16.5-1.3,16.2-31.4,16.8-42.5.6-12,0-28.4-2.3-36.5-2.3-8-6.7-17.9-12.9-22.8S74,17.3,65,30.8,59.6,52.6,60.5,60.6Z"/><path class="g" d="M121.4,101.1c-.7-.1-1.5-1.5-2.5-4.7C117,90.3,95.2,91,90.4,93.8s-7.3,4.6-11,2.8S72.2,89,70.5,82.1c0,0-9-16.2-9.4-8.2-.2,5.2,4.3,20.3,7.5,31.7,5.2,9.4,14.6,21.9,37.2,20.1.3,0,.6-.1.8-.1,3.2-.6,3.2-.6,7.5-4.1C118.4,116.9,120.4,108.9,121.4,101.1Z"/><path class="f" d="M97.2,89a17.028,17.028,0,0,0,9,3.2,13.834,13.834,0,0,0,9.4-3.2A44.828,44.828,0,0,1,97.2,89Z"/><path class="c" d="M90.3,103.6s.7-.3,1.4-2.6a17.251,17.251,0,0,0,.8-3.5S90.5,99.4,90.3,103.6Z"/><path class="c" d="M116.8,103.6s-.7-.3-1.4-2.6a17.251,17.251,0,0,1-.8-3.5S116.6,99.4,116.8,103.6Z"/><path class="f" d="M91.7,99.5s6.5-2,9.1-1.9,3.3,1.1,4.7,1c1.4-.2,1.4-1.5,4.5-1a19.065,19.065,0,0,1,5.5,1.9l.3,1.1-12.7,2-11.3-2V99.5Z"/><path class="c" d="M115.1,100s-12.9-1.5-23.4.6l-.3,1.3s6.8,3.8,13.4,3.8a15.36,15.36,0,0,0,10.7-4.6Z"/><path class="d" d="M94.1,100.2a27.967,27.967,0,0,0,10.8,2.4c5.8,0,7.5-2.8,7.5-2.8S101.9,98.7,94.1,100.2Z"/><path class="c" d="M83.3,72.6a7.187,7.187,0,0,1,2.5-3.2,6.807,6.807,0,0,1,3.9-1.6,4.052,4.052,0,0,1,1.1,0c.4,0,.7.1,1,.1a11.689,11.689,0,0,1,2,.6,5.5,5.5,0,0,1,3,2.8A11.415,11.415,0,0,0,93.3,70a11.019,11.019,0,0,0-1.8-.2,9.634,9.634,0,0,0-1.7,0,8.364,8.364,0,0,0-3.3,1A15,15,0,0,0,83.3,72.6Z"/><path class="c" d="M91.6,70.1c0-1.4-1.1-1.4-2.5-1.4s-2.5,0-2.5,1.4a2.5,2.5,0,0,0,5,0Z"/><g class="h"><path class="c" d="M86.1,76.4c1.6-.3,3.1-.5,4.6-.8a14.191,14.191,0,0,0,2.2-.5,18.916,18.916,0,0,1,2.3-.5,8.741,8.741,0,0,1-4.4,1.9,19.419,19.419,0,0,1-2.4.2A9.693,9.693,0,0,1,86.1,76.4Z"/></g><path class="f" d="M98.6,68.7c.6-1.6-1.4-7.8-9.4-8.1s-9.7,8.1-9.7,8.1a18.954,18.954,0,0,1,9.7-2.9A15.531,15.531,0,0,1,98.6,68.7Z"/><path class="c" d="M109.8,72.6A4.854,4.854,0,0,1,112,69a6.446,6.446,0,0,1,4.2-1.2,6.561,6.561,0,0,1,4.1,1.4,6.151,6.151,0,0,1,2.4,3.4,12.609,12.609,0,0,0-3.2-2.1,9.941,9.941,0,0,0-3.4-.8,7.89,7.89,0,0,0-3.4.6A8.65,8.65,0,0,0,109.8,72.6Z"/><path class="c" d="M117.4,70.1c0-1.4-1.1-1.4-2.5-1.4s-2.5,0-2.5,1.4a2.5,2.5,0,0,0,5,0Z"/><g class="h"><path class="c" d="M112.9,74.6c.6.1,1.2.3,1.8.4l1.8.3c.6.1,1.2.1,1.8.2s1.2.1,1.9.2a6.273,6.273,0,0,1-3.8.6,10.548,10.548,0,0,1-1.9-.5A8.346,8.346,0,0,1,112.9,74.6Z"/></g><path class="f" d="M109.3,68.7s2-2.7,7-2.5,6.3,2.5,6.3,2.5.8-6.8-5.3-7.2C111.3,61,110,63.9,109.3,68.7Z"/><path class="c" d="M61.1,84.5l9.4-2.4s-1.8-8.1-.7-13.5c2-9.5,3-11.8,3-11.8s-5-10.1-.2-17.8c4.8-7.6,9.9-9.4,9.9-9.4s10.2,4.2,19.3,2.8c9.1-1.5,10.9-2.5,10.9-2.5s4.7,6.8,6.1,11.8l1.4,5s0-17.5-14-27.4S69.7,10,69.7,10s5.8,2.6,1.7,6.5S58.8,25.9,53.1,42.3c-4.6,13.9.9,28.4.9,28.4l2.7,6.5Z"/><path class="d" d="M66.7,92.2C70,83.8,63,72.2,54,70.7a11.562,11.562,0,0,0-1.7-.1c-3.5.6-3.2,6.2-1.6,10.2s3.7,6.2,4,11.4,2.2,8.7,6.3,7.3C62.8,98.9,64.8,96.8,66.7,92.2Z"/></g></g></svg>