<?xml version="1.0" encoding="utf-8"?>
<svg version="1.1" id="Layer_1" xmlns="http://www.w3.org/2000/svg" xmlns:xlink="http://www.w3.org/1999/xlink" x="0px" y="0px"
	 viewBox="0 0 18.4 18.2" style="enable-background:new 0 0 18.4 18.2;" xml:space="preserve">
<style type="text/css">
	.st0{fill:#091440;}
	.st1{fill:#FFFFFF;}
</style>
<g id="Page-1">
	<g id="Monogram">
		<rect id="Rectangle-path" x="0" y="-0.1" class="st0" width="18.4" height="18.4"/>
		<path id="Shape" class="st1" d="M4.4,6c0-0.2,0-0.3-0.2-0.4L3.1,4.2V4h3.6l2.8,6.1L11.9,4h3.4v0.2l-1,0.9
			c-0.1,0.1-0.1,0.2-0.1,0.3v7c0,0.1,0,0.2,0.1,0.3l1,0.9v0.2h-4.9v-0.2l1-1c0.1-0.1,0.1-0.1,0.1-0.3V6.8l-2.8,7.1H8.4L5.1,6.8v4.7
			c0,0.2,0,0.4,0.2,0.5l1.3,1.6v0.2H2.9v-0.2l1.3-1.6c0.1-0.1,0.2-0.3,0.2-0.5V6z"/>
	</g>
</g>
</svg>
