<svg xmlns="http://www.w3.org/2000/svg" viewBox="0 0 180 180"><defs><style>.cls-1{fill:#2f74fb;}.cls-2{fill:#fff;}.cls-3{fill:#848aa0;}.cls-4{fill:#091440;}</style></defs><title>Fernando</title><g id="illustrations"><circle class="cls-1" cx="90" cy="90" r="90"/><path id="_Path_" data-name="&lt;Path&gt;" class="cls-1" d="M63.17,89.19c0-.78-.05-1.59-.11-2.43C63.13,88.25,63.17,89.19,63.17,89.19Z"/><path id="_Path_2" data-name="&lt;Path&gt;" class="cls-2" d="M91.58,150.86l.35,0c11.63.61,16.83-7.83,19.45-15.44a45.71,45.71,0,0,0,1.58-8.9c-.44.36-.9.71-1.38,1l-.06,0c-2.57,5-8.36,12.1-20,9.7-15.5-3.2-21-18.5-23.94-25.91-.38-.81-.72-1.61-1-2.42h0a50.43,50.43,0,0,1-3-13.19c.18,6.88.1,16.32-.16,24-.07,1.89-.14,3.67-.23,5.29C62.22,141.82,74.9,149.9,91.58,150.86Z"/><path id="_Path_3" data-name="&lt;Path&gt;" class="cls-3" d="M66.52,109h0Z"/><path id="_Path_4" data-name="&lt;Path&gt;" class="cls-3" d="M91.49,137.32c11.67,2.4,17.46-4.7,20-9.7-8.3,5.58-25.1,5.33-36.78-6a34,34,0,0,1-7.19-10.25C70.5,118.82,76,134.12,91.49,137.32Z"/><path id="_Compound_Path_" data-name="&lt;Compound Path&gt;" class="cls-2" d="M106,30.1c-17.7-1-23.84.46-29.11,5.32S71,48.44,71,55.23c-1.28,6.45-4.1,9.81-4.21,14.56.35,5.8,2.46,9.18,3.59,15.54.76,4.23,3.25,16.28,7.54,17.43,2.83.75,4.23,0,5.93-3,.47-1.57,1.56-4.54,3.42-6.21,2.63-2.33,7.53-3.11,15.17-3.12s10,.79,13.25,3.12a5.31,5.31,0,0,1,2,3.07h0A8.54,8.54,0,0,1,118,98.4a9,9,0,0,0,1.14,3.24,1.07,1.07,0,0,0,1.25.25c1.33-.59,2.16-4.25,2.66-7.6a88.71,88.71,0,0,1,1.55-11.22,51.84,51.84,0,0,0,1.21-12,16,16,0,0,1,.55-4.61c0-.14.07-.32.11-.48.05-3.68-1.53-4.7-4.29-5.3-5.85-1.27-11.15,2.59-12.9,1.06-1.58-1.4,2.86-4.6,8-5.38,4.24-.64,7.57-.29,9.52,1.63a2.78,2.78,0,0,1,.32.26,28.44,28.44,0,0,0-.47-3.78c-.42-2.21-.64-4-.79-5.66h0C125.34,43.22,123.65,31.12,106,30.1ZM81.71,58.41A20.94,20.94,0,0,1,97,59.46c4,2,3.76,4.62-3.76,3.63A38.33,38.33,0,0,0,78,64l-3.36.81S75,60.42,81.71,58.41Zm9.36,9.3a9.74,9.74,0,0,0-1.21,0,5.53,5.53,0,0,0-.7.07,1.43,1.43,0,0,1,.23.85,2.37,2.37,0,0,1-1.19,2.06l-2,.19a2.36,2.36,0,0,1-1.55-1.79h0c-.84.32-1.63.63-2.31.91C81,70.57,80,71,80,71a5.32,5.32,0,0,1,.39-.6A9.12,9.12,0,0,1,81.72,69a12.49,12.49,0,0,1,2.17-1.54c.44-.23.88-.47,1.36-.67s1-.38,1.44-.53A9.35,9.35,0,0,1,88.31,66a6.67,6.67,0,0,1,1.61,0,5.65,5.65,0,0,1,1.46.31,5,5,0,0,1,1.21.54A5.61,5.61,0,0,1,94.09,68a4.05,4.05,0,0,1,.41.59,10.15,10.15,0,0,0-2.33-.76C91.83,67.8,91.46,67.75,91.07,67.71Zm-9.55-.9a8.1,8.1,0,0,1,1.54-1.18,11.2,11.2,0,0,1,1.77-.9,11.75,11.75,0,0,1,2.2-.68,11.58,11.58,0,0,1,1.16-.17,7.33,7.33,0,0,1,1.14,0,6,6,0,0,1,1.06.08,5.21,5.21,0,0,1,.94.19l.76.23c.22.09.41.19.56.26.31.15.48.25.48.25l-.53-.06L92,64.71l-.77,0a6.53,6.53,0,0,0-.89,0c-.32,0-.65,0-1,0s-.7.08-1.06.12a10.47,10.47,0,0,0-1.07.19c-.36.06-.72.16-1.07.24s-.7.17-1,.28c-.67.2-1.29.41-1.82.6C82.25,66.53,81.52,66.81,81.52,66.81Zm9.17,8.76c-3.11.81-8-1.81-5-1.94s9.05-2.19,10-1.93C97.49,72.2,93.81,74.75,90.69,75.57Zm22.16-11.79a8.75,8.75,0,0,1,1.73-.72,8.34,8.34,0,0,1,2.15-.35,6.83,6.83,0,0,1,1.11,0,5.1,5.1,0,0,1,1.06.21,4.43,4.43,0,0,1,.95.33,4,4,0,0,1,.8.41,5.26,5.26,0,0,1,1.06.79l.36.35-.46-.19-.51-.23c-.2-.08-.44-.14-.68-.23a5.4,5.4,0,0,0-.8-.24,7.78,7.78,0,0,0-.89-.18,6.13,6.13,0,0,0-1-.11,5.57,5.57,0,0,0-1,0,12.64,12.64,0,0,0-2,.21,17.39,17.39,0,0,0-1.72.42c-1,.3-1.68.57-1.68.57A6.2,6.2,0,0,1,112.85,63.78Zm-2.16,4.35a5.69,5.69,0,0,1,1.27-1,9.55,9.55,0,0,1,4.72-1.23h.83l.2,0,.31,0a7,7,0,0,1,1.34.3,5.88,5.88,0,0,1,1.16.54,5.07,5.07,0,0,1,.9.69,4.3,4.3,0,0,1,1,1.34,2.22,2.22,0,0,1,.2.59,8.69,8.69,0,0,0-1.79-1,9.11,9.11,0,0,0-1.87-.5,8.42,8.42,0,0,0-1.06-.11h0a1.6,1.6,0,0,1,.06.4,2.4,2.4,0,0,1-1.41,2.18l-2.35-.21a2.41,2.41,0,0,1-1-2,1.36,1.36,0,0,1,0-.2c-.29,0-.56.07-.81.12-.6.11-1.1.23-1.46.33l-.57.19A3,3,0,0,1,110.69,68.13ZM110.32,71c2.61,1.25,9.86,2.39,9.86,2.39s-.6,1.73-3.46,2.32S109.35,70.55,110.32,71ZM111.62,87a.8.8,0,0,1,.35,1.48,15.26,15.26,0,0,1-7.42,2c-6.29.22-8.39-3.31-8.39-3.31C100.46,86.1,108,86.61,111.62,87Z"/><path id="_Compound_Path_2" data-name="&lt;Compound Path&gt;" class="cls-2" d="M104,120.15c8.07,0,11.45-6.13,12.85-11.82.76-4.55.9-8.58-.65-10.52a5.25,5.25,0,0,0-.59-.56.6.6,0,0,1-.08-.08h0a5.41,5.41,0,0,0-.77-.51c-8.79-3-23.21-1.17-25.63,0-1.21.59-4.85,1.85-3.63,9.13C87,111.81,91.34,120.18,104,120.15Zm0-4.67c-2.85-.25-3.62-4.49-3.08-5.74,1.22-2.77,3.16-2.21,4.92-1.93C109.36,108.38,108.9,115.9,104,115.48Zm0-18.78c7.77.35,11.4,1.56,11.4,1.56s-4.35,4.23-12.33,4.49a23.27,23.27,0,0,1-13.93-4.49A55.38,55.38,0,0,1,104,96.7Z"/><path id="_Path_5" data-name="&lt;Path&gt;" class="cls-3" d="M96.16,87.16s2.1,3.53,8.39,3.31a15.26,15.26,0,0,0,7.42-2,.8.8,0,0,0-.35-1.48C108,86.61,100.46,86.1,96.16,87.16Z"/><path id="_Path_6" data-name="&lt;Path&gt;" class="cls-4" d="M115.39,98.26s-1.24.24-3.34.49h0s-.89,2.35-7.93,3c-2.46.23-7.53-.29-10.6-3.06-2.66-.24-4.39-.46-4.39-.46a23.27,23.27,0,0,0,13.93,4.49C111,102.49,115.39,98.26,115.39,98.26Z"/><path id="_Path_7" data-name="&lt;Path&gt;" class="cls-3" d="M93.39,98.61c12.78-.32,18.64.13,18.66.14,2.1-.25,3.34-.49,3.34-.49s-3.63-1.21-11.4-1.56a55.38,55.38,0,0,0-14.86,1.56s1.73.22,4.39.46Z"/><path id="_Path_8" data-name="&lt;Path&gt;" class="cls-2" d="M93.39,98.61l.13.11c3.07,2.77,8.14,3.29,10.6,3.06,7-.68,7.93-3,7.93-3h0S106.17,98.29,93.39,98.61Z"/><path id="_Path_9" data-name="&lt;Path&gt;" class="cls-4" d="M105.86,107.81c-1.76-.28-3.7-.84-4.92,1.93-.54,1.25.23,5.49,3.08,5.74C108.9,115.9,109.36,108.38,105.86,107.81Z"/><path id="_Compound_Path_3" data-name="&lt;Compound Path&gt;" class="cls-4" d="M123.65,103.89a131.39,131.39,0,0,0,0-15.39s-.16,2.77-.61,5.79c-.5,3.35-1.33,7-2.66,7.6a1.07,1.07,0,0,1-1.25-.25A9,9,0,0,1,118,98.4a8.54,8.54,0,0,0-.26-1.73h0a5.31,5.31,0,0,0-2-3.07c-3.29-2.33-5.61-3.14-13.25-3.12s-12.54.79-15.17,3.12c-1.86,1.67-3,4.64-3.42,6.21-1.7,3-3.1,3.71-5.93,3-4.29-1.15-6.78-13.2-7.54-17.43-1.13-6.36-3.24-9.74-3.59-15.54C66.89,65,69.71,61.68,71,55.23c0-6.79.6-14.94,5.86-19.81S88.26,29.09,106,30.1s19.38,13.12,19.9,18.68h0c-.79-5.65,4.93-14.59,1.21-23.26-4.45-10.39-24.35-17.21-41.91-14-12.26,2.21-30,13.21-30,29.61a151.43,151.43,0,0,0,2.4,23c2.28.33,4.85,2.77,5,7.61s.38,11.55.53,15.08c.06.84.1,1.65.11,2.43,0,1.16,0,3.54.31,6.6a50.43,50.43,0,0,0,3,13.19h0c.31.81.65,1.61,1,2.42a34,34,0,0,0,7.19,10.25c11.68,11.29,28.48,11.54,36.78,6l.06,0c.48-.33.94-.68,1.38-1a45.71,45.71,0,0,1-1.58,8.9c-2.62,7.61-7.82,16.05-19.45,15.44l-.35,0c-16.68-1-29.36-9-28.49-25.73.09-1.62.16-3.4.23-5.29l-47.73,20.8a90,90,0,0,0,144,6.37L113,126.52C120.22,120.62,123.15,110.07,123.65,103.89ZM89.13,96.66c2.42-1.17,16.84-3,25.63,0a5.41,5.41,0,0,1,.77.51h0a.6.6,0,0,0,.08.08,5.25,5.25,0,0,1,.59.56c1.55,1.94,1.41,6,.65,10.52-1.4,5.69-4.78,11.79-12.85,11.82-12.67,0-17-8.34-18.51-14.36C84.28,98.51,87.92,97.25,89.13,96.66Z"/><path id="_Path_10" data-name="&lt;Path&gt;" class="cls-4" d="M93.25,63.09c7.52,1,7.73-1.61,3.76-3.63a20.94,20.94,0,0,0-15.3-1.05c-6.7,2-7.11,6.44-7.11,6.44L78,64A38.33,38.33,0,0,1,93.25,63.09Z"/><path id="_Path_11" data-name="&lt;Path&gt;" class="cls-4" d="M94.5,68.62a4.05,4.05,0,0,0-.41-.59,5.61,5.61,0,0,0-1.5-1.23,5,5,0,0,0-1.21-.54A5.65,5.65,0,0,0,89.92,66a6.67,6.67,0,0,0-1.61,0,9.35,9.35,0,0,0-1.62.34c-.47.15-1,.32-1.44.53s-.92.44-1.36.67A12.49,12.49,0,0,0,81.72,69a9.12,9.12,0,0,0-1.3,1.38A5.32,5.32,0,0,0,80,71s1-.44,2.3-1c.68-.28,1.47-.59,2.31-.91h0a2.36,2.36,0,0,0,1.55,1.79l2-.19a2.37,2.37,0,0,0,1.19-2.06,1.43,1.43,0,0,0-.23-.85,5.53,5.53,0,0,1,.7-.07,9.74,9.74,0,0,1,1.21,0c.39,0,.76.09,1.1.15A10.15,10.15,0,0,1,94.5,68.62Z"/><path id="_Path_12" data-name="&lt;Path&gt;" class="cls-4" d="M85.13,65.55c.33-.11.68-.17,1-.28s.71-.18,1.07-.24a10.47,10.47,0,0,1,1.07-.19c.36,0,.71-.11,1.06-.12s.67-.06,1,0a6.53,6.53,0,0,1,.89,0l.77,0,.59.08.53.06s-.17-.1-.48-.25c-.15-.07-.34-.17-.56-.26l-.76-.23a5.21,5.21,0,0,0-.94-.19,6,6,0,0,0-1.06-.08,7.33,7.33,0,0,0-1.14,0,11.58,11.58,0,0,0-1.16.17,11.75,11.75,0,0,0-2.2.68,11.2,11.2,0,0,0-1.77.9,8.1,8.1,0,0,0-1.54,1.18s.73-.28,1.79-.66C83.84,66,84.46,65.75,85.13,65.55Z"/><path id="_Path_13" data-name="&lt;Path&gt;" class="cls-3" d="M95.68,71.7c-.92-.26-6.92,1.81-10,1.93s1.87,2.75,5,1.94S97.49,72.2,95.68,71.7Z"/><path id="_Path_14" data-name="&lt;Path&gt;" class="cls-4" d="M117.28,56.33c-5.15.78-9.59,4-8,5.38,1.75,1.53,7-2.33,12.9-1.06,2.76.6,4.34,1.62,4.29,5.3v0c1.3-3,2.31-6.18.66-7.75a2.78,2.78,0,0,0-.32-.26C124.85,56,121.52,55.69,117.28,56.33Z"/><path id="_Path_15" data-name="&lt;Path&gt;" class="cls-4" d="M112.35,68.1c.25,0,.52-.08.81-.12a1.36,1.36,0,0,0,0,.2,2.41,2.41,0,0,0,1,2l2.35.21a2.4,2.4,0,0,0,1.41-2.18,1.6,1.6,0,0,0-.06-.4h0a8.42,8.42,0,0,1,1.06.11,9.11,9.11,0,0,1,1.87.5,8.69,8.69,0,0,1,1.79,1,2.22,2.22,0,0,0-.2-.59,4.3,4.3,0,0,0-1-1.34,5.07,5.07,0,0,0-.9-.69,5.88,5.88,0,0,0-1.16-.54,7,7,0,0,0-1.34-.3l-.31,0-.2,0h-.83A9.55,9.55,0,0,0,112,67.11a5.69,5.69,0,0,0-1.27,1,3,3,0,0,0-.37.49l.57-.19C111.25,68.33,111.75,68.21,112.35,68.1Z"/><path id="_Path_16" data-name="&lt;Path&gt;" class="cls-4" d="M114.78,63.86a12.64,12.64,0,0,1,2-.21,5.57,5.57,0,0,1,1,0,6.13,6.13,0,0,1,1,.11,7.78,7.78,0,0,1,.89.18,5.4,5.4,0,0,1,.8.24c.24.09.48.15.68.23l.51.23.46.19-.36-.35a5.26,5.26,0,0,0-1.06-.79,4,4,0,0,0-.8-.41,4.43,4.43,0,0,0-.95-.33,5.1,5.1,0,0,0-1.06-.21,6.83,6.83,0,0,0-1.11,0,8.34,8.34,0,0,0-2.15.35,8.75,8.75,0,0,0-1.73.72,6.2,6.2,0,0,0-1.47,1.07s.67-.27,1.68-.57A17.39,17.39,0,0,1,114.78,63.86Z"/><path id="_Path_17" data-name="&lt;Path&gt;" class="cls-3" d="M116.72,75.72c2.86-.59,3.46-2.32,3.46-2.32s-7.25-1.14-9.86-2.39C109.35,70.55,113.87,76.31,116.72,75.72Z"/><path id="_Path_18" data-name="&lt;Path&gt;" class="cls-2" d="M62.53,71.68c-.1-4.84-2.67-7.28-5-7.61a3,3,0,0,0-2.64.78c-2.15,2.14-4.27,7.31-1.06,18.33,2.73,9.37,9.29,6,9.29,6s0-.94-.11-2.43C62.91,83.23,62.63,76.58,62.53,71.68Z"/></g></svg>