<svg id="illustrations" xmlns="http://www.w3.org/2000/svg" xmlns:xlink="http://www.w3.org/1999/xlink" viewBox="0 0 180 180"><defs><style>.cls-1{fill:none;}.cls-2{clip-path:url(#clip-path);}.cls-3{fill:#3ad7a4;}.cls-4{fill:#091440;}.cls-5{fill:#fff;}.cls-6{fill:#848aa0;}</style><clipPath id="clip-path"><circle id="_Clipping_Path_" data-name="&lt;Clipping Path&gt;" class="cls-1" cx="90" cy="90" r="90"/></clipPath></defs><title>mike</title><g id="_Clip_Group_" data-name="&lt;Clip Group&gt;"><g class="cls-2"><circle id="_Path_" data-name="&lt;Path&gt;" class="cls-3" cx="90" cy="90" r="90"/><polygon id="_Path_2" data-name="&lt;Path&gt;" class="cls-4" points="69.15 119.46 12.61 145.43 8.67 188.01 179.81 188.01 166.02 148.08 106.63 128.49 69.15 119.46"/><g id="_Group_" data-name="&lt;Group&gt;"><path id="_Path_3" data-name="&lt;Path&gt;" class="cls-4" d="M66,85.54S61.42,68.8,60,58.14s1.19-24.68,14.61-33,26.53-10.36,36.79-7.2S125.13,29.31,126.63,35l1.49,5.72s6,4.56,2.31,14.46c-3.28,8.68-3.5,22.82-6.07,29.13S70.11,95.38,66,85.54Z"/><path id="_Path_4" data-name="&lt;Path&gt;" class="cls-5" d="M67.69,91.14s2.48,17-.15,24.64c-2.16,6.31-3.15,5.87-3.15,5.87s13.79,20.19,32.16,20c13.59-.39,13.59-7.3,15.68-16.78l2.1-9.47Z"/><path id="_Path_5" data-name="&lt;Path&gt;" class="cls-6" d="M74.71,105.77c2,9.38,9.34,24.27,20.41,26.54s15.67-.79,15.67-.79l3.69-15Z"/><path id="_Path_6" data-name="&lt;Path&gt;" class="cls-5" d="M106.92,126.85c8.43-1.35,6.31-3.17,12-7.91s7.81-13.79,9.78-26.34-1-28.94-1.27-38.61-2.13-13.62-15.24-17-31,1.19-35.65,7.11-1,10.43-2.19,15.36-4.16,10.31-.84,21.24l-6.4,2.92s1.86,19.16,10,28.59,12.54,13,18.51,14S103.22,127.44,106.92,126.85Z"/><path id="_Path_7" data-name="&lt;Path&gt;" class="cls-6" d="M97.75,88.31c2.21,2.87,5.12,4.14,12.08,4.31s10.28-4.17,10.28-4.17-3,.87-10.34,1A51.44,51.44,0,0,1,97.75,88.31Z"/><path id="_Path_8" data-name="&lt;Path&gt;" class="cls-6" d="M91.35,100.46s8.1-2.39,11.61-2.75,10.08-.07,14.31,3.48C108.53,103.4,91.35,100.46,91.35,100.46Z"/><g id="_Group_2" data-name="&lt;Group&gt;"><path id="_Path_9" data-name="&lt;Path&gt;" class="cls-4" d="M91.35,100.46s13.56-2.24,25.92.73c-4.21,3.55-8.3,2.81-11.7,2.8S95.72,103.08,91.35,100.46Z"/><path id="_Path_10" data-name="&lt;Path&gt;" class="cls-5" d="M96.88,99.87a15.77,15.77,0,0,0,9.41,2.79,16.32,16.32,0,0,0,7.9-2.1A73.39,73.39,0,0,0,96.88,99.87Z"/></g><g id="_Group_3" data-name="&lt;Group&gt;"><g id="_Group_4" data-name="&lt;Group&gt;"><path id="_Path_11" data-name="&lt;Path&gt;" class="cls-4" d="M88.92,70.43C88.92,69,90,69,91.43,69s2.5.09,2.5,1.48a2.51,2.51,0,0,1-5,0Z"/></g><g id="_Group_5" data-name="&lt;Group&gt;"><path id="_Path_12" data-name="&lt;Path&gt;" class="cls-4" d="M98.38,71a9.84,9.84,0,0,0-2-.85,10.86,10.86,0,0,0-2.07-.4,11.17,11.17,0,0,0-1.17-.06,5.12,5.12,0,0,0-.57,0l-.66,0c-.36,0-.74.11-1.14.18s-.78.18-1.15.29c-.75.22-1.46.49-2.07.72-1.22.49-2.1.88-2.1.88h0A6.8,6.8,0,0,1,86.92,70a8.53,8.53,0,0,1,3.34-1.91l.72-.19.79-.11c.25,0,.45,0,.68,0a6.19,6.19,0,0,1,.77,0,8.15,8.15,0,0,1,1.41.25,6.82,6.82,0,0,1,2.28,1.1,5,5,0,0,1,1.22,1.27,2.94,2.94,0,0,1,.32.59Z"/></g><path id="_Path_13" data-name="&lt;Path&gt;" class="cls-6" d="M78.46,67.5s-.82-6.27,7.79-8.86,15,.69,15.52,1.77.06,3.8-3.74,2.72-8.49-2.85-12.6-1.2S79.53,65,78.46,67.5Z"/><g id="_Group_6" data-name="&lt;Group&gt;"><path id="_Path_14" data-name="&lt;Path&gt;" class="cls-4" d="M85.41,69.33a9.77,9.77,0,0,1,1.71-1.47,11.84,11.84,0,0,1,2-1.14,9.06,9.06,0,0,1,1.24-.45A8.89,8.89,0,0,1,91.75,66a9.32,9.32,0,0,1,1.4-.06,10,10,0,0,1,1.32.14,7.49,7.49,0,0,1,2.23.76,5.12,5.12,0,0,1,1.33,1,2.84,2.84,0,0,1,.39.5h0a6.21,6.21,0,0,0-1.93-1c-.31-.1-.64-.18-1-.26s-.74-.11-1.13-.16-.79,0-1.24-.05a10.4,10.4,0,0,0-2.46.33c-.41.1-.8.21-1.18.34-.76.26-1.46.56-2.06.83-1.18.55-2,1-2,1Z"/></g></g><g id="_Group_7" data-name="&lt;Group&gt;"><g id="_Group_8" data-name="&lt;Group&gt;"><path id="_Path_15" data-name="&lt;Path&gt;" class="cls-4" d="M115.72,70.83c0-1.38,1.11-1.48,2.46-1.48s2.46.1,2.46,1.48a2.46,2.46,0,1,1-4.92,0Z"/></g><g id="_Group_9" data-name="&lt;Group&gt;"><path id="_Path_16" data-name="&lt;Path&gt;" class="cls-4" d="M125.32,72.1a2.75,2.75,0,0,0-.41-.44,4.43,4.43,0,0,0-1.26-.78,9.48,9.48,0,0,0-2-.54q-.57-.09-1.17-.15l-.56,0-.67,0c-.17,0-.34,0-.51,0l-.57.07c-.38.07-.76.15-1.12.25a18.94,18.94,0,0,0-2,.7c-1.19.5-2,.92-2,.92h0a6.29,6.29,0,0,1,1.42-1.87,7.87,7.87,0,0,1,2-1.4,8,8,0,0,1,1.35-.48c.24,0,.49-.11.74-.15l.81-.06.67,0c.34,0,.5.08.76.11a7.65,7.65,0,0,1,1.35.35,5.81,5.81,0,0,1,2.19,1.29,3.15,3.15,0,0,1,.66.79,3,3,0,0,1,.33.72,1.82,1.82,0,0,1,.09.66Z"/></g><path id="_Path_17" data-name="&lt;Path&gt;" class="cls-6" d="M116.64,63.17c6-1.56,9.92-1.36,11.85,2.42,0-6.46-2.27-6.79-7.17-7C115.54,58.41,113.13,64.08,116.64,63.17Z"/><g id="_Group_10" data-name="&lt;Group&gt;"><path id="_Path_18" data-name="&lt;Path&gt;" class="cls-4" d="M126.29,70.27a13.89,13.89,0,0,0-1.57-1.54,8.18,8.18,0,0,0-.83-.63,6.63,6.63,0,0,0-1-.57,5.84,5.84,0,0,0-1.1-.43,3.86,3.86,0,0,0-.59-.12,3.09,3.09,0,0,0-.61-.08,3.17,3.17,0,0,0-.62,0,6.07,6.07,0,0,0-.63,0,6.74,6.74,0,0,0-1.19.21,6.14,6.14,0,0,0-1.1.34,8.44,8.44,0,0,0-.95.43,9.88,9.88,0,0,0-1.84,1.22h0a6,6,0,0,1,1.56-1.66A7.77,7.77,0,0,1,119.26,66a6.81,6.81,0,0,1,1.4-.09,5.72,5.72,0,0,1,2.69.8,5.43,5.43,0,0,1,1,.75,5.36,5.36,0,0,1,.78.81,6.38,6.38,0,0,1,1.16,2Z"/></g></g><path id="_Path_19" data-name="&lt;Path&gt;" class="cls-5" d="M70.11,78.27c-2.42-4.73-4.93-7.5-9.08-4.54s-3.16,16.39,2,21.92,6.12,2.17,7.7-1.39A19,19,0,0,0,70.11,78.27Z"/><path id="_Path_20" data-name="&lt;Path&gt;" class="cls-6" d="M74.39,59.48c1.19-4.93-2.5-9.44,2.19-15.36A11.39,11.39,0,0,1,79,41.92h0C68.69,45.1,66.21,53.27,66.21,57.66c0,2.6,3.21,8.64,5.83,13.15C72.16,66,73.64,62.63,74.39,59.48Z"/></g></g></g></svg>