<svg id="illustrations_c" xmlns="http://www.w3.org/2000/svg" viewBox="0 0 180 180"><defs><style>.cls-1{fill:#2f74fb;}.cls-2{fill:#091440;}.cls-3{fill:#fff;}.cls-4{fill:#848aa0;}</style></defs><title>sef_1</title><circle id="_Path_" data-name="&lt;Path&gt;" class="cls-1" cx="90" cy="90" r="90"/><path class="cls-2" d="M108,130.85c0,.36-.1.71-.14,1.05a25.09,25.09,0,0,1-1.26,6.32c-3.85,8.44-25.13,12.72-38,5.88s-14.73-17.88-12.12-22.29v0L15.16,140a90,90,0,0,0,140.58,11.46Z"/><path class="cls-3" d="M101.91,118.56c5.61.4,6,2.9,9.38-1.74,2.61-3.57,2.17-10,.81-12.43s-6.69-4.88-12.12-4.61-8.7,1.61-12.51,4.9-5.15,7-1.3,12.49C90.85,123.82,96.31,118.16,101.91,118.56ZM98.7,116c-2.55-.24-6.52-1.93-4-3,4.87-2.09,8.72-.57,10,.71S101.26,116.24,98.7,116ZM94,102.2c3.1-2.13,3.65-.79,6.33-.67s2.38-1.77,6,1.11c2.81,2.24,5.42,4,5.42,4s-.49.68-2.82.36a9.31,9.31,0,0,1-3.48-1.48c-2,1-7.29,1.74-12.57.3-2.37,1.46-3.65,2.14-6.56,1.94C88.67,106.65,90.9,104.33,94,102.2Z"/><path class="cls-3" d="M68.56,144.1c12.9,6.84,34.18,2.56,38-5.88a25.09,25.09,0,0,0,1.26-6.32c0,.33-.09.64-.12.94-.45,3.58-14.27,4.76-20.17,2.43-6.47-2.55-11.33-7-16.18-14.84h0a27.16,27.16,0,0,1-6.74-11.33c-3.31-9.82-5.11-23.5-5.11-23.5,1.72,7.47,7.59,17.75,12.53,20.61,4.49,2.61,7.24,1.18,10.22-2.82s10.79-6.52,17.2-6.52,14.15.44,16.41,6.86c1.92,5.47,2.85,3.76,4.32.3.37-1.6.71-3.36,1-5.35,1.6-11.11.6-22.32.5-24.82a47.74,47.74,0,0,1,.19-5.49c-2-3.86-3.58-4.43-8.05-3.63s-8.3,2.11-8.26.1c.09-4.79,9.92-4.87,12.83-4.08a5,5,0,0,1,3.76,4.15h0A85.15,85.15,0,0,0,119.11,46c-3.49-12.68-14.35-20.92-30.94-20C72,26.88,61.94,36.61,57.34,46.32c-4.2,8.85-2.16,15.89-.48,27.6-4.53-2.85-7.27-3.24-8.55-.49-1.4,3-1.53,8.52,0,12.44,2.11,5.36,7.71,12.81,11,11.21l.11-.06c.09,9.64-.73,20.9-3,24.76v0C53.83,126.22,55.66,137.26,68.56,144.1Zm8-73.49a7.74,7.74,0,0,1,2.11-.83,9.15,9.15,0,0,1,2.22-.21,10.55,10.55,0,0,1,4.31.72,8.43,8.43,0,0,1,3.42,2.63,28.33,28.33,0,0,0-3.88-1.14,15.1,15.1,0,0,0-2.87-.21,2.2,2.2,0,0,1,.28,1.06,2.24,2.24,0,0,1-4.47,0,2.14,2.14,0,0,1,.14-.76l-.63.16a11.94,11.94,0,0,0-3.51,1.83A6.24,6.24,0,0,1,76.6,70.61Zm-1.89-1.07a8.68,8.68,0,0,1,4.52-2.78A6.84,6.84,0,0,1,82,66.64,4.54,4.54,0,0,1,84.4,67.8a8.9,8.9,0,0,0-4.93-.07A26.76,26.76,0,0,0,74.71,69.54Zm37.54-2.38a4.39,4.39,0,0,1,2.11.36,3.38,3.38,0,0,1,1.54,1.4,7.91,7.91,0,0,0-1.8-.66,6.25,6.25,0,0,0-1.78-.1,21,21,0,0,0-3.74.76A5.63,5.63,0,0,1,112.25,67.16Zm-4.7,3.34a8.32,8.32,0,0,1,3.63-.9,6.72,6.72,0,0,1,3.71,1,5.67,5.67,0,0,1,2.36,2.84,14.89,14.89,0,0,0-3-1.42,9.19,9.19,0,0,0-1.38-.31,2.23,2.23,0,1,1-4.26.93,2.2,2.2,0,0,1,.15-.77l-.66.12c-1.07.21-2.14.52-3.31.87A7.16,7.16,0,0,1,107.55,70.5Zm.31,20.68s-.14.9-4.63,2.61-11.43.55-14-2.33c0,0,2.68.2,7.76.27A107.41,107.41,0,0,0,107.86,91.18ZM71.38,61.05c4.53-3.29,12.52-4.48,19.07-2,3.24,1.24,2.58,4.91.2,5.34s-7-2.46-13.38-1.54a16.32,16.32,0,0,0-10,6S67.59,63.8,71.38,61.05Z"/><path class="cls-2" d="M77.27,62.89c6.34-.92,11,2,13.38,1.54s3-4.1-.2-5.34c-6.55-2.52-14.54-1.33-19.07,2-3.79,2.75-4.13,7.87-4.13,7.87A16.32,16.32,0,0,1,77.27,62.89Z"/><path class="cls-2" d="M118.42,60.76c-2.91-.79-12.74-.71-12.83,4.08,0,2,3.79.71,8.26-.1s6.08-.23,8.05,3.63a7.48,7.48,0,0,0,.28-3.46A5,5,0,0,0,118.42,60.76Z"/><path class="cls-2" d="M77.23,72l.63-.16a2.14,2.14,0,0,0-.14.76,2.24,2.24,0,0,0,4.47,0,2.2,2.2,0,0,0-.28-1.06,15.1,15.1,0,0,1,2.87.21,28.33,28.33,0,0,1,3.88,1.14,8.43,8.43,0,0,0-3.42-2.63,10.55,10.55,0,0,0-4.31-.72,9.15,9.15,0,0,0-2.22.21,7.74,7.74,0,0,0-2.11.83,6.24,6.24,0,0,0-2.88,3.25A11.94,11.94,0,0,1,77.23,72Z"/><path class="cls-2" d="M84.4,67.8A4.54,4.54,0,0,0,82,66.64a6.84,6.84,0,0,0-2.74.12,8.68,8.68,0,0,0-4.52,2.78,26.76,26.76,0,0,1,4.76-1.81A8.9,8.9,0,0,1,84.4,67.8Z"/><path class="cls-4" d="M103.23,93.79c4.49-1.71,4.63-2.61,4.63-2.61A107.41,107.41,0,0,1,97,91.73c-5.08-.07-7.76-.27-7.76-.27C91.8,94.34,98.73,95.51,103.23,93.79Z"/><path class="cls-2" d="M108.73,71.86a2.2,2.2,0,0,0-.15.77,2.24,2.24,0,1,0,4.26-.93,9.19,9.19,0,0,1,1.38.31,14.89,14.89,0,0,1,3,1.42,5.67,5.67,0,0,0-2.36-2.84,6.72,6.72,0,0,0-3.71-1,8.32,8.32,0,0,0-3.63.9,7.16,7.16,0,0,0-2.79,2.35c1.17-.35,2.24-.66,3.31-.87Z"/><path class="cls-2" d="M114.1,68.26a7.91,7.91,0,0,1,1.8.66,3.38,3.38,0,0,0-1.54-1.4,4.39,4.39,0,0,0-2.11-.36,5.63,5.63,0,0,0-3.67,1.76,21,21,0,0,1,3.74-.76A6.25,6.25,0,0,1,114.1,68.26Z"/><path class="cls-2" d="M98.59,104.69c-1.57-.72-3.37-.3-5.74,1.16,5.28,1.44,10.52.74,12.57-.3a5.73,5.73,0,0,0-2.72-1.11C101.69,104.45,100.68,105.64,98.59,104.69Z"/><path class="cls-4" d="M92.85,105.85c2.37-1.46,4.17-1.88,5.74-1.16,2.09,1,3.1-.24,4.11-.25a5.73,5.73,0,0,1,2.72,1.11A9.31,9.31,0,0,0,108.9,107c2.33.32,2.82-.36,2.82-.36s-2.61-1.79-5.42-4c-3.59-2.88-3.3-1-6-1.11s-3.23-1.46-6.33.67-5.33,4.45-7.71,5.59C89.2,108,90.48,107.31,92.85,105.85Z"/><path class="cls-2" d="M94.73,113c-2.55,1.09,1.42,2.78,4,3s7.42-1,6.08-2.31S99.6,110.89,94.73,113Z"/><path class="cls-4" d="M99.93,131.62c-7.65,0-13.14,1-20.21-4.41a82.37,82.37,0,0,1-8.33-6.78h0c4.85,7.84,9.71,12.29,16.18,14.84,5.9,2.33,19.72,1.15,20.17-2.43,0-.3.07-.61.12-.94s.09-.69.14-1.05c.09-.62.19-1.26.28-1.88C106.35,130.69,103.92,131.62,99.93,131.62Z"/><path class="cls-2" d="M115.9,103.73c-2.26-6.42-10-6.86-16.41-6.86s-14.22,2.51-17.2,6.52-5.73,5.43-10.22,2.82c-4.94-2.86-10.81-13.14-12.53-20.61,0,0,1.8,13.68,5.11,23.5a27.16,27.16,0,0,0,6.74,11.33,82.37,82.37,0,0,0,8.33,6.78c7.07,5.4,12.56,4.41,20.21,4.41,4,0,6.42-.93,8.34-2.65,1.75-1.57,3.08-3.78,4.78-6.56,3.55-5.81,6.69-12.27,7.18-18.4v0C118.75,107.49,117.82,109.2,115.9,103.73Zm-28.43,1c3.81-3.29,7.09-4.62,12.51-4.9s10.77,2.22,12.12,4.61,1.8,8.86-.81,12.43c-3.39,4.64-3.77,2.14-9.38,1.74s-11.06,5.26-15.74-1.39C82.32,111.69,83.67,108,87.47,104.68Z"/></svg>