<svg xmlns="http://www.w3.org/2000/svg" xmlns:xlink="http://www.w3.org/1999/xlink" viewBox="0 0 180 188.01"><defs><style>.cls-1{fill:none;}.cls-2{clip-path:url(#clip-path);}.cls-3{fill:#3ad7a4;}.cls-4{fill:#091440;}.cls-5{fill:#fff;}.cls-6{fill:#848aa0;}</style><clipPath id="clip-path"><circle id="_Clipping_Path_" data-name="&lt;Clipping Path&gt;" class="cls-1" cx="90" cy="90" r="90"/></clipPath></defs><title>Asset 2</title><g id="Layer_2" data-name="Layer 2"><g id="illustrations"><g id="_Clip_Group_" data-name="&lt;Clip Group&gt;"><g class="cls-2"><circle id="_Path_" data-name="&lt;Path&gt;" class="cls-3" cx="90" cy="90" r="90"/><polygon id="_Path_2" data-name="&lt;Path&gt;" class="cls-4" points="69.15 119.46 12.61 145.43 8.67 188.01 179.81 188.01 166.02 148.08 106.63 128.49 69.15 119.46"/><g id="_Group_" data-name="&lt;Group&gt;"><path id="_Path_3" data-name="&lt;Path&gt;" class="cls-4" d="M66,85.54S61.42,68.8,60,58.14s1.18-24.68,14.61-33,26.53-10.36,36.79-7.2S125.13,29.31,126.63,35l1.49,5.73s6,4.56,2.3,14.46c-3.28,8.68-3.5,22.82-6.07,29.13S70.11,95.38,66,85.54Z"/><path id="_Path_4" data-name="&lt;Path&gt;" class="cls-5" d="M67.69,91.14s2.48,17-.14,24.64c-2.17,6.3-3.16,5.87-3.16,5.87s13.79,20.19,32.16,20c13.59-.39,13.59-7.3,15.68-16.78l2.1-9.48Z"/><path id="_Path_5" data-name="&lt;Path&gt;" class="cls-6" d="M74.71,105.77c2,9.37,9.34,24.27,20.41,26.54s15.66-.8,15.66-.8l3.69-14.95Z"/><path id="_Path_6" data-name="&lt;Path&gt;" class="cls-5" d="M106.92,126.85c8.44-1.35,6.32-3.17,12-7.91s7.81-13.79,9.79-26.34-1-28.93-1.27-38.61-2.13-13.62-15.24-17-31,1.18-35.66,7.11-1,10.43-2.18,15.36-4.17,10.31-.85,21.24l-6.4,2.92s1.86,19.16,10,28.59,12.54,13,18.51,14S103.22,127.44,106.92,126.85Z"/><path id="_Path_7" data-name="&lt;Path&gt;" class="cls-6" d="M97.75,88.31c2.21,2.87,5.12,4.14,12.08,4.31s10.28-4.17,10.28-4.17-3,.86-10.34,1A51,51,0,0,1,97.75,88.31Z"/><path id="_Path_8" data-name="&lt;Path&gt;" class="cls-6" d="M91.35,100.46s8.1-2.39,11.62-2.75,10.08-.07,14.3,3.48C108.53,103.4,91.35,100.46,91.35,100.46Z"/><g id="_Group_2" data-name="&lt;Group&gt;"><path id="_Path_9" data-name="&lt;Path&gt;" class="cls-4" d="M91.35,100.46s13.57-2.24,25.92.73c-4.21,3.55-8.3,2.81-11.7,2.8S95.72,103.08,91.35,100.46Z"/><path id="_Path_10" data-name="&lt;Path&gt;" class="cls-5" d="M96.88,99.87a15.7,15.7,0,0,0,9.41,2.79,16.3,16.3,0,0,0,7.91-2.1A73.85,73.85,0,0,0,96.88,99.87Z"/></g><g id="_Group_3" data-name="&lt;Group&gt;"><g id="_Group_4" data-name="&lt;Group&gt;"><path id="_Path_11" data-name="&lt;Path&gt;" class="cls-4" d="M88.92,70.43C88.92,69,90,69,91.43,69s2.5.09,2.5,1.48a2.5,2.5,0,0,1-5,0Z"/></g><g id="_Group_5" data-name="&lt;Group&gt;"><path id="_Path_12" data-name="&lt;Path&gt;" class="cls-4" d="M98.38,71a9.81,9.81,0,0,0-2-.86,11.85,11.85,0,0,0-2.07-.4c-.38,0-.77-.06-1.17-.06-.19,0-.43,0-.57,0s-.46,0-.66,0c-.36,0-.74.1-1.14.18s-.78.18-1.15.29c-.75.22-1.45.48-2.07.72-1.22.49-2.09.88-2.09.88h0A6.75,6.75,0,0,1,86.92,70a8.74,8.74,0,0,1,2-1.39,9.15,9.15,0,0,1,1.32-.53l.72-.18.79-.12c.25,0,.46,0,.69,0a6.35,6.35,0,0,1,.77,0,7.51,7.51,0,0,1,1.41.25,6.64,6.64,0,0,1,2.28,1.1,5.12,5.12,0,0,1,1.22,1.27,2.88,2.88,0,0,1,.31.59Z"/></g><path id="_Path_13" data-name="&lt;Path&gt;" class="cls-6" d="M78.46,67.5s-.82-6.27,7.79-8.87,14.95.7,15.52,1.77.06,3.8-3.74,2.72-8.49-2.85-12.61-1.2S79.53,65,78.46,67.5Z"/><g id="_Group_6" data-name="&lt;Group&gt;"><path id="_Path_14" data-name="&lt;Path&gt;" class="cls-4" d="M85.41,69.33a9.46,9.46,0,0,1,1.7-1.47,11.43,11.43,0,0,1,2-1.14,9.31,9.31,0,0,1,1.25-.45,8.35,8.35,0,0,1,2.76-.35,10.26,10.26,0,0,1,1.32.14,7.46,7.46,0,0,1,2.24.76,5.15,5.15,0,0,1,1.33,1,2.68,2.68,0,0,1,.38.49h0a6.11,6.11,0,0,0-1.93-1c-.3-.1-.64-.18-1-.26s-.74-.12-1.13-.16-.79,0-1.23,0a10.91,10.91,0,0,0-2.46.33c-.4.1-.8.21-1.18.35-.76.26-1.46.55-2.06.82-1.19.55-2,1-2,1Z"/></g></g><g id="_Group_7" data-name="&lt;Group&gt;"><g id="_Group_8" data-name="&lt;Group&gt;"><path id="_Path_15" data-name="&lt;Path&gt;" class="cls-4" d="M115.72,70.83c0-1.38,1.1-1.48,2.46-1.48s2.46.09,2.46,1.48a2.46,2.46,0,1,1-4.92,0Z"/></g><g id="_Group_9" data-name="&lt;Group&gt;"><path id="_Path_16" data-name="&lt;Path&gt;" class="cls-4" d="M125.32,72.1a2.61,2.61,0,0,0-.41-.45,4.61,4.61,0,0,0-1.26-.78,9,9,0,0,0-2-.54c-.37-.06-.76-.11-1.17-.15l-.56,0-.66,0-.52,0-.57.07c-.38.07-.75.15-1.12.25a19.32,19.32,0,0,0-2,.7c-1.19.5-2,.92-2,.92h0a6.21,6.21,0,0,1,1.42-1.87,7.59,7.59,0,0,1,3.38-1.88l.74-.14.81-.06.67,0c.34,0,.5.07.75.11a7.9,7.9,0,0,1,1.36.35,5.92,5.92,0,0,1,2.19,1.28,3.61,3.61,0,0,1,.66.79,2.89,2.89,0,0,1,.33.71,1.84,1.84,0,0,1,.09.67Z"/></g><path id="_Path_17" data-name="&lt;Path&gt;" class="cls-6" d="M116.64,63.17c6-1.56,9.92-1.36,11.85,2.42,0-6.47-2.27-6.79-7.17-7C115.54,58.41,113.13,64.08,116.64,63.17Z"/><g id="_Group_10" data-name="&lt;Group&gt;"><path id="_Path_18" data-name="&lt;Path&gt;" class="cls-4" d="M126.29,70.27a13.7,13.7,0,0,0-1.57-1.54,9.23,9.23,0,0,0-.83-.62,7.13,7.13,0,0,0-1-.57,6,6,0,0,0-1.11-.43,3.54,3.54,0,0,0-.59-.13,3.05,3.05,0,0,0-.6-.08,3.24,3.24,0,0,0-.62,0,6.11,6.11,0,0,0-.64,0,7.21,7.21,0,0,0-1.19.21,6.83,6.83,0,0,0-1.1.35,7.73,7.73,0,0,0-1,.43,9.4,9.4,0,0,0-1.83,1.22h0a6,6,0,0,1,1.56-1.65,7.72,7.72,0,0,1,2.09-1.13,7.19,7.19,0,0,1,1.33-.33,4.68,4.68,0,0,1,.68-.08,4.37,4.37,0,0,1,.72,0,4.73,4.73,0,0,1,1.42.23,5.14,5.14,0,0,1,1.27.56,5.71,5.71,0,0,1,1,.75,7.19,7.19,0,0,1,1.94,2.78Z"/></g></g><path id="_Path_19" data-name="&lt;Path&gt;" class="cls-5" d="M70.11,78.27c-2.42-4.73-4.94-7.5-9.08-4.54s-3.16,16.39,2,21.91,6.12,2.17,7.7-1.38A19,19,0,0,0,70.11,78.27Z"/><path id="_Path_20" data-name="&lt;Path&gt;" class="cls-6" d="M74.39,59.48c1.18-4.94-2.51-9.44,2.18-15.36A11.51,11.51,0,0,1,79,41.92h0c-10.31,3.18-12.8,11.35-12.8,15.74,0,2.6,3.21,8.64,5.84,13.15C72.16,66,73.64,62.63,74.39,59.48Z"/></g></g></g></g></g></svg>