<svg id="illustrations" xmlns="http://www.w3.org/2000/svg" xmlns:xlink="http://www.w3.org/1999/xlink" viewBox="0 0 180 180"><defs><style>.cls-1{fill:none;}.cls-2{fill:#2f74fb;}.cls-3{clip-path:url(#clip-path);}.cls-4{fill:#091440;}.cls-5{fill:#fff;}.cls-6{fill:#848aa0;}</style><clipPath id="clip-path"><circle id="_Clipping_Path_" data-name="&lt;Clipping Path&gt;" class="cls-1" cx="90" cy="90" r="90"/></clipPath></defs><title>oregon</title><circle id="_Path_" data-name="&lt;Path&gt;" class="cls-2" cx="90" cy="90" r="90"/><g id="_Clip_Group_" data-name="&lt;Clip Group&gt;"><g class="cls-3"><polygon id="_Path_2" data-name="&lt;Path&gt;" class="cls-4" points="64.54 120.55 11.62 143.67 7.85 180 171.56 180 160.11 146.46 101.97 121.36 64.54 120.55"/><g id="_Group_" data-name="&lt;Group&gt;"><path id="_Path_3" data-name="&lt;Path&gt;" class="cls-4" d="M65.63,133.5c-4.17,5-14.58,15.68-31.57,13.34-14.17-2-14.7-15.94-11.75-21.44,3.12-5.82-.8-12.49,1-18.1s6.11-10.06,9.48-14c5.79-6.85-2.44-14.32,7.56-26.43,6.84-8.28,5.82-19.4,9.5-24.84S55.72,38.07,60,30c4.18-7.81,6.72-10.13,14.49-10.83,5.08-.45,8.64-6,19-2.63,10.16-4,18.31,1.36,22.48,6s7.19,3.73,10.71,8.71c2.87,4.06,2.1,8.52,4,14.27,2.45,7.24,6.55,11.95,7.82,17.95,2.78,13.09-2.08,22.59-.5,33.12s4.91,22.29,4.39,30.71-1.23,9-4.56,18.26-12.48,12.63-19.58,8.77S65.63,133.5,65.63,133.5Z"/><path id="_Path_4" data-name="&lt;Path&gt;" class="cls-5" d="M122.78,111.17c.33-9,4.52-18.76,5.76-24.26s-.86-7.31-.57-13.28.48-7.24.42-8,1.25-3.68.45-4.54-2.27-2.39-2.68-8.2c-.22-3-4-6.51-7.56-10.71-3.27-3.82-2.66-8.26-14.26-10.18C81,28.15,81.63,39.72,74.09,51.34s-6,22-.76,39.29,17.55,33.11,24.61,34.05S122.33,123.74,122.78,111.17Z"/><path id="_Path_5" data-name="&lt;Path&gt;" class="cls-5" d="M114.75,127s-2.68,13.87-1.81,23-12.36,10-21.89,9.48-26.29-12.55-27.41-19.7c0,0,5.28-7.28,5.28-25.08v-18L91.4,122Z"/><g id="_Group_2" data-name="&lt;Group&gt;"><path id="_Path_6" data-name="&lt;Path&gt;" class="cls-4" d="M99.34,64.67c.07-2.77-2.83-3.4-7.09-3.55-4.53-.16-9.59.34-11.91,2.69a12.4,12.4,0,0,0-2.62,4.73,11.53,11.53,0,0,1,9.11-3.8C93,64.78,99.3,65.9,99.34,64.67Z"/><g id="_Group_3" data-name="&lt;Group&gt;"><path id="_Path_7" data-name="&lt;Path&gt;" class="cls-4" d="M97.23,70.87a4.07,4.07,0,0,0-.58-.43A7.28,7.28,0,0,0,95,69.75a10.38,10.38,0,0,0-2.43-.29,13,13,0,0,0-1.38.06c-.54,0-1,.08-1.48.15s-1,.13-1.45.22-.94.17-1.38.3a18,18,0,0,0-2.39.81,15.12,15.12,0,0,0-1.66.82l-.64.37.09-.17a3.83,3.83,0,0,1,.27-.49A6.82,6.82,0,0,1,83.86,70a7.14,7.14,0,0,1,1.09-.8,7.8,7.8,0,0,1,1.35-.7A10.48,10.48,0,0,1,87.82,68a12.69,12.69,0,0,1,1.63-.32,16,16,0,0,1,1.64-.1,10.87,10.87,0,0,1,1.63.13,7,7,0,0,1,1.5.39,5.83,5.83,0,0,1,1.25.62,4.74,4.74,0,0,1,1.46,1.45A2.34,2.34,0,0,1,97.23,70.87Z"/></g><path id="_Path_8" data-name="&lt;Path&gt;" class="cls-4" d="M91.66,70.37c0-1.3-1-1.81-2.34-1.81S87,69.07,87,70.37a2.34,2.34,0,0,0,4.68,0Z"/></g><path id="_Path_9" data-name="&lt;Path&gt;" class="cls-6" d="M100,89.83a12.2,12.2,0,0,0,9.12,4.31,12.38,12.38,0,0,0,9.18-4.31,26.26,26.26,0,0,1-9.15,1.72A39.52,39.52,0,0,1,100,89.83Z"/><g id="_Group_4" data-name="&lt;Group&gt;"><g id="_Group_5" data-name="&lt;Group&gt;"><path id="_Path_10" data-name="&lt;Path&gt;" class="cls-4" d="M114.49,70.63a2.71,2.71,0,0,1,.23-.54,4.58,4.58,0,0,1,1-1.2,6,6,0,0,1,.86-.62,5.87,5.87,0,0,1,1.07-.51,8.7,8.7,0,0,1,2.51-.53,7.16,7.16,0,0,1,1.31,0,5.26,5.26,0,0,1,1.3.28,4.91,4.91,0,0,1,2,1.22,4.6,4.6,0,0,1,.91,1.32,3.61,3.61,0,0,1,.16.42l.05.15a5.08,5.08,0,0,1-.56-.22c-.34-.15-.79-.36-1.32-.54a10.2,10.2,0,0,0-1.74-.49c-.31-.06-.66-.13-1-.16a9.63,9.63,0,0,0-1.08-.09c-.37,0-.74,0-1.1,0s-.72,0-1,.1a9,9,0,0,0-1,.18,8.15,8.15,0,0,0-.87.27,4.71,4.71,0,0,0-.71.32,4.2,4.2,0,0,0-.54.3A3,3,0,0,0,114.49,70.63Z"/></g><path id="_Path_11" data-name="&lt;Path&gt;" class="cls-4" d="M116.94,70.37c0-1.3,1-1.81,2.34-1.81s2.34.51,2.34,1.81a2.34,2.34,0,0,1-4.68,0Z"/><path id="_Path_12" data-name="&lt;Path&gt;" class="cls-4" d="M116.42,65.29c-2.66-.08-2.48-2.48,2.93-4.7s8.42-1.2,9.49.51-.45,4.54-.45,4.54a2.07,2.07,0,0,0-1.95-2.3C124.23,63,119.26,65.38,116.42,65.29Z"/></g><path id="_Path_13" data-name="&lt;Path&gt;" class="cls-4" d="M91.66,100a51.48,51.48,0,0,1,14.55-1.71c5.92.37,4-.09,8.54,0,3.31-1.08,4.53,0,4.53,0s-4.13,6.74-10.14,7S91.66,100,91.66,100Z"/><path id="_Path_14" data-name="&lt;Path&gt;" class="cls-5" d="M97.23,99.67A23,23,0,0,0,109.14,103,8.65,8.65,0,0,0,116,99.67Z"/><path id="_Path_15" data-name="&lt;Path&gt;" class="cls-6" d="M72.27,110.4c4.64,12.77,10.82,25.78,23.67,31.63s17.34-4.9,17.34-4.9l.71-7.46Z"/><path id="_Compound_Path_" data-name="&lt;Compound Path&gt;" class="cls-4" d="M127.79,101.35c-1.1-3.86-3.62-8.11-6.61-9.49s-5,1.72-10.51,1.56-8.91-1.4-13.44-1-12.48,2.16-12,10.56c-5-3.59-17.91-15.89-19.16-30.84l-6,.51a57.78,57.78,0,0,0,8.79,32.59c10.21,16.27,21.75,26.27,28.35,29.1s14.07,3.17,20.88-2.8S128.89,105.2,127.79,101.35Zm-17.91,11.39c-7.22.09-11.22-2.1-16.4-6.81-3-2.75-5-6.7,5.09-6.27,14.44.62,17.39,0,17.39,0s3.52-1.45,4.22,0S119.64,112.62,109.88,112.74Z"/></g></g></g></svg>