<svg xmlns="http://www.w3.org/2000/svg" xmlns:xlink="http://www.w3.org/1999/xlink" viewBox="3434 1641 180 180"><defs><style>.a{clip-path:url(#a);}.b{fill:none;}.c{fill:#2970ff;}.d,.g{fill:#091440;}.e{fill:#fff;}.f{clip-path:url(#b);}.g{opacity:0.5;}.h{fill:#83889e;}</style><clipPath id="a"><circle cx="90" cy="90" r="90" transform="translate(2.9)"/></clipPath><clipPath id="b"><path d="M64.9,97.5c2,12.1-1,23.6-2.3,30.6-1.1,6.1,1.4,11.1,5.3,15.9,5.4,6.5,16.1,18,26.1,18.3,19,.5,19-20.6,18.7-32.3-.3-11.8.7-14.7.7-14.7Z"/></clipPath></defs><g transform="translate(3431.1 1641)"><g class="a"><circle class="b" cx="90" cy="90" r="90" transform="translate(2.9)"/><path class="c" d="M90,0A90,90,0,1,1,0,90,90,90,0,0,1,90,0Z" transform="translate(2.9)"/><path class="d" d="M112.8,131.3l61.9,33.8v32H0V155l62.3-30.7,3.8-2.4Z"/><path class="e" d="M64.9,97.5c2,12.1-1,23.6-2.3,30.6-1.1,6.1,1.4,11.1,5.3,15.9,5.4,6.5,14.8,17.4,24.8,17,14.6-.5,20.3-19.3,20-31.1s.7-14.7.7-14.7Z"/><g class="f"><path class="g" d="M87.7,108.2c-10.3,2.6-17.7-3.2-12.6,7.3s25,24.6,33.3,24.2c7.8-.4,7.7-9.2,7.7-9.2l.2-9.7Z"/></g><path class="d" d="M73.2,18.4A19.722,19.722,0,0,1,83.5,9.7C90.8,6.9,94,6.5,94,6.5L83.5,14.3Z"/><path class="e" d="M60.6,77.5s5.9,27.6,8.9,32.4,12.2,10.8,22.2,14.8,16.2,5.1,20.4,3.3c4.2-1.7,9.8-8,12.2-12.9s5.7-13.7,6.5-20.9a79.191,79.191,0,0,1,2-11s5.3-19.6-.5-31.3c-5.9-11.7-9.4-27.4-30.5-25.5s-38.1,3-42,14.5S60.6,77.5,60.6,77.5Z"/><path class="d" d="M86.8,76.9a2.764,2.764,0,0,1,.6-.6A10.582,10.582,0,0,1,89.2,75c.4-.2.8-.5,1.3-.7s1-.5,1.5-.7,1.1-.4,1.7-.6,1.1-.3,1.7-.5c.6-.1,1.2-.2,1.9-.3a10.819,10.819,0,0,1,1.8,0,5.84,5.84,0,0,1,1.8.4,2.845,2.845,0,0,1,1.4.9,2.787,2.787,0,0,1,.7,1.3,1.668,1.668,0,0,1,0,1,1.546,1.546,0,0,1-.3.8,4.531,4.531,0,0,0-.1-.8,5.9,5.9,0,0,0-.4-.8c-.1-.1-.2-.3-.3-.4s-.3-.2-.4-.3a3.582,3.582,0,0,0-1.1-.4,6.534,6.534,0,0,0-1.4,0,9.971,9.971,0,0,0-1.6.2c-.5.1-1.1.2-1.6.3-.6.1-1.2.3-1.7.4s-1.1.3-1.6.4c-1.1.3-2.1.5-2.9.7a19.119,19.119,0,0,0-2.1.6A2.767,2.767,0,0,1,86.8,76.9Z"/><path class="d" d="M129.5,76.5a3.224,3.224,0,0,0-.6-.2,4.876,4.876,0,0,0-.7-.3,5.9,5.9,0,0,1-.8-.4,4.053,4.053,0,0,1-.9-.5,4.671,4.671,0,0,1-1-.5c-.4-.1-.7-.3-1.1-.4s-.7-.2-1.1-.3h-1a3.553,3.553,0,0,0-1,.2c-.3.1-.6.3-.9.4a5.547,5.547,0,0,0-.8.6c-.2.2-.5.4-.7.6s-.4.3-.5.5a2.22,2.22,0,0,1-.5.4,3.224,3.224,0,0,0,.2-.6,6.417,6.417,0,0,1,.7-1.6,5.5,5.5,0,0,1,.7-.9,10.627,10.627,0,0,1,1.1-.9,3.33,3.33,0,0,1,1.5-.5c.3,0,.5-.1.8-.1l.8.1a8.33,8.33,0,0,1,1.5.4,3.458,3.458,0,0,1,1.2.7,3.915,3.915,0,0,1,1,.8,3.043,3.043,0,0,1,.8.8,7.574,7.574,0,0,1,1,1.3A1.727,1.727,0,0,1,129.5,76.5Z"/><circle class="d" cx="2.5" cy="2.5" r="2.5" transform="translate(92.476 73.332) rotate(-2.949)"/><circle class="d" cx="2.5" cy="2.5" r="2.5" transform="translate(119.779 72.632) rotate(-2.949)"/><path class="g" d="M117.6,72c1-1.5,2.1-3.9,4-4s6.4-.3,9.4-.5c3.7-.2,3.2,3.1,2.6,6.3,0,0,.3-4.2-2.8-4s-5,1.7-8.7,2.1A19.709,19.709,0,0,1,117.6,72Z"/><path class="g" d="M103.1,71.8s-3.6,1.1-9.4-.8c-3.1-1-4.9-1.5-7.4-1.1s-5.1,3-5.1,3,.6-5.1,4-5.6,3.3,0,6.7.1,8.8-.6,10.7,2.1A2.979,2.979,0,0,1,103.1,71.8Z"/><path class="g" d="M115.2,72.7c-2.1,2.3-2.1,3.3-1.5,5.1C114.4,79.6,115.2,72.7,115.2,72.7Z"/><path class="g" d="M118.531,96.1a23.371,23.371,0,0,1-4.111.64c-2.467.183-11.42-.091-11.42-.091s1.553,3.472,9.776,3.472C117.983,100.029,118.531,96.1,118.531,96.1Z" transform="translate(-0.266 1.19)"/><path class="h" d="M96.9,104.6a5.964,5.964,0,0,0,3.9,1c3.4-.5,6.5-.8,7.9-.3,2.4.9,4.8-.5,6.5-.3,1.8.2,5.3,1.2,7.1-.8h0s.4,3-6.7,2.5c-3-.2-3.9.8-5.8.5a29.915,29.915,0,0,0-7.8-.4,22.384,22.384,0,0,1-2.6,0A2.4,2.4,0,0,1,96.9,104.6Z" transform="translate(0 1)"/><path class="d" d="M61.8,86.7s7.8-2.7,7.7-9.3c-.1-9-1.7-18.1,3.8-26.3S94.7,36.7,94.7,36.7s5.8,7,13.3,9.3c9.1,2.8,15.3-2.6,19.6.4s6.5,12.5,6.6,21.1c0,4.4-2.4,20.9-2.4,20.9S137,78,138.2,70a199.7,199.7,0,0,0,1.9-21l3.5,2.4a19.045,19.045,0,0,0-4.8-13.2,7.965,7.965,0,0,0,2.8.6c-2.3-9.4-12.5-25.1-25.3-29.7-16-5.8-24.1-2.9-30.7-1s-7.8,3.7-7.8,3.7l2.7-4.7s-7.1,3.3-9.6,9.7a59.051,59.051,0,0,1-2.8,6.3s-9.4,2.2-13.7,10.8c-9.4,19,3.4,40.7,3.4,40.7Z"/><path class="e" d="M66.9,81.5S68,71.3,59.7,71.1s-9.3,9.5-6.3,16c3.1,6.5,10.8,16.4,13,14.2C68.7,99.1,73.1,85.6,66.9,81.5Z"/></g></g></svg>