<svg id="illustrations" xmlns="http://www.w3.org/2000/svg" xmlns:xlink="http://www.w3.org/1999/xlink" viewBox="0 0 180 180"><defs><style>.cls-1{fill:none;}.cls-2{clip-path:url(#clip-path);}.cls-3{fill:#6ed3f3;}.cls-4{fill:#091440;}.cls-5{fill:#fff;}.cls-6{fill:#848aa0;}</style><clipPath id="clip-path"><circle class="cls-1" cx="90" cy="90" r="90"/></clipPath></defs><g class="cls-2"><rect class="cls-3" x="-3.21" y="-0.1" width="184.98" height="178.98"/><ellipse class="cls-4" cx="83.44" cy="167.86" rx="81.07" ry="36.49"/><path class="cls-5" d="M66.84,151.78c10.67,10.66,20,22.27,22.27,24.43s4,3.24,6.89-1.48,15.83-19.17,15.83-19.17l1.45-30.1L68.33,108.18l-4.59-1.5Z"/><path class="cls-6" d="M67.59,110.84c4.25,7.6,19.1,24.2,30.7,23.53s10.94-11.48,10.94-11.48Z"/><path class="cls-4" d="M82.5,12.47c-11.61,0-28.89,10-35.64,28.62S38.22,84.82,39,106.42s-7.56,30.24-4.32,56.16,15.12,62.64,15.12,62.64l18.09,5.93s-1.35-17.81,2.7-30S79,177.7,72.78,152.05,67.11,114,65,97.78s-7-22-3.89-29.23S84.39,25.16,96.54,25.16s25.11,26.73,25.11,26.73l7.08,11.56S137,53.24,126.51,33,98.16,5.18,82.5,12.47Z"/><path class="cls-4" d="M125.16,90.22c1.08,9.72,1.35,34,2.43,43.74s3.78,17.28,3.24,34.29,1.62,29.16-5.4,41.31-32.67,1.62-32.67,1.62,5.13-20.79,8.91-35.91,5.94-40,7.56-45.9S125.16,90.22,125.16,90.22Z"/><path class="cls-5" d="M76.4,120.15A31.58,31.58,0,0,1,69,113.09a38.76,38.76,0,0,1-4.06-8q-2.66-6.51-4.83-13.2c.51,2.37-2.2,4.47-4.61,4.19S51.18,94,49.73,92a14.67,14.67,0,0,1-3.11-7.28,36.35,36.35,0,0,0-.38-5c-.54-2.33-2-5.51-1-7.86a4,4,0,0,1,5.26-2.33c1.76.81,3,3.7,4.88,4,2.7.44,4.61-2.51,5.67-5C65.51,58,69,47,74.67,37a29.6,29.6,0,0,1,6-7.85,28.8,28.8,0,0,1,6.52-4c9-4.25,18.44-4.9,26.79,1.26A36,36,0,0,1,127.9,53c.11,3.35,1.51,7.36.83,10.43-.93,4.24-2.16,8.5-1.59,12.89.21,1.66.67,3.28.92,4.94.8,5.3-.64,10.66-2.07,15.82l-4.06,14.71a56.8,56.8,0,0,1-3.22,9.47c-1.36,2.87-3.55,7.3-6.79,8.43-3,1-7.56.44-10.63.15A51.09,51.09,0,0,1,76.4,120.15Z"/><path class="cls-6" d="M114.76,113.85c-3.51,1.35-5.13,2.43-11.07-.14,0,0,2.57,3,5.81,3A7.12,7.12,0,0,0,114.76,113.85Z"/><path class="cls-6" d="M96,109.26c4.59.13,17.82,1.35,22-1.49,0,0,1-2.7-3.1-4,0,0-1.76,2-3,1.89s-2.84-1.48-3.51-1.48S98.29,109.12,96,109.26Z"/><path class="cls-6" d="M115,96.43c-2.29.68-10.39.14-10.39.14a12,12,0,0,0,5.8,1.75A6,6,0,0,0,115,96.43Z"/><path class="cls-4" d="M72.44,61.74c3.75-4.66,8.91-9.31,14.48-8.4s10,3.54,11.85,2.63c0,0-.1,5-6.48,3.34S82.16,54.55,72.44,61.74Z"/><path class="cls-4" d="M114.36,59.72c2.33-2.53,3-4.15,13.56-3.75l.71,3.54s-2,1.12-6.68,1.22A22,22,0,0,1,114.36,59.72Z"/><circle class="cls-4" cx="87.07" cy="68.68" r="3.29"/><circle class="cls-4" cx="118.12" cy="69.89" r="2.82"/><path class="cls-4" d="M80.34,69.17c2.5-1.42,4.73-2.91,6.55-3s5.87.81,7.56,2.56a12.17,12.17,0,0,0-7.38-3.37C82.77,65.18,80.34,69.17,80.34,69.17Z"/><path class="cls-4" d="M125.93,69.42c-2.18-1.1-4.14-2.27-5.68-2.25s-4.93,1-6.28,2.57a10.23,10.23,0,0,1,6.08-3.25C123.69,66.11,125.93,69.42,125.93,69.42Z"/></g></svg>