<svg id="illustrations" xmlns="http://www.w3.org/2000/svg" xmlns:xlink="http://www.w3.org/1999/xlink" viewBox="0 0 180 180"><defs><style>.cls-1{fill:none;}.cls-2{clip-path:url(#clip-path);}.cls-3{fill:#2970ff;}.cls-4{fill:#091440;}.cls-5{fill:#c4cbd2;}.cls-6{fill:#8997a5;}.cls-7{fill:#0a1440;}.cls-8{fill:#f9fafa;}</style><clipPath id="clip-path"><circle class="cls-1" cx="90" cy="90" r="90"/></clipPath></defs><title>Akin</title><g class="cls-2"><rect class="cls-3" x="-2.79" y="-2.49" width="185.59" height="165.38"/><path class="cls-4" d="M125.81,135.56c-1.14-.27-2.59-.57-4.24-.87s-3.62-.7-5.48-1a1,1,0,0,1,0,.14c-8.37-1.24-16.8-2.12-25.23-2.77-9-.69-18-1.16-27-.95a73,73,0,0,0-15.25,1.69C27,136.91,6,144.8-15.16,151.65l-2.46.79.12,40.89H200.38V165S173.21,145.72,125.81,135.56Z"/><path class="cls-5" d="M58.77,106l-1.25,24.54s17.51,26,36.89,26.14c21,.09,24.7-23.14,21.68-23-3.73-2.35-4.09-8.13-4.09-8.13Z"/><path class="cls-6" d="M62.18,109.65c5.72,8,9.52,12.84,18.64,20.14,18.64,14.93,33.38,2.08,33.38,2.08l-4-7.76L74.16,106Z"/><path class="cls-5" d="M120,120.76c.49-1.49,3-9.94,3-10a32.37,32.37,0,0,1,2.8-6,51.21,51.21,0,0,0,5.37-16.32,26.47,26.47,0,0,0-.38-11.31,97.6,97.6,0,0,1-2.62-11.74c-.8-5.18.5-7.23.32-8.4-.1-.62-1.27-1.77-2-4.46a85,85,0,0,0-4.56-12.91,61.11,61.11,0,0,0-5-9.22c-2-2.92-4.68-4.55-7.57-6.6a40.87,40.87,0,0,0-29.18-6.79A43.61,43.61,0,0,0,53.87,31.4c-6,6.9-7.22,16.41-6.78,25.11.09,1.64.23,3.27.41,4.9a4.1,4.1,0,0,0,.23,1.05c.16.37.36,1.58-.36,1.29A4.55,4.55,0,0,0,41.9,64.9a6.78,6.78,0,0,0-1.18,3.41c-.44,4.19,1.23,8.28,2.87,12.17C44.73,83.2,45.91,86,48,88.14a4.4,4.4,0,0,0,2.19,1.43c1.48.3,2.57-.69,3.33-1.77.47.68.32,2.25.41,3.06.16,1.55.33,3.11.51,4.66a64,64,0,0,0,1.31,8.58c0,.05,0,.1,0,.15,1,3.65,22.1,22.1,27.44,24,3.72,1.33,18.29,5.77,25,3.27S119.49,122.27,120,120.76Z"/><path class="cls-7" d="M95.56,56.69c2.4,1.05,4.17,1.38,4.74.51.66-1,1.11-2.31-3.09-3.66S88.36,50.09,86,50.39,75,55,73.36,56.39c0,0,9.3-2.71,11.85-2.63S95.56,56.69,95.56,56.69Z"/><path class="cls-7" d="M117.79,56.83c-1.25,1-2.18.72-2.82-.08s-.21-2,1.76-3.54c2.13-1.61,4.59-3.16,5.75-2.78s5.08,5,5.81,6.4c0,0-4.4-3-5.66-3S117.79,56.83,117.79,56.83Z"/><circle class="cls-7" cx="85.8" cy="64.8" r="2.28"/><circle class="cls-7" cx="118.55" cy="65.2" r="2.28" transform="translate(-5.85 12) rotate(-5.65)"/><path class="cls-7" d="M78.82,65.2c3.12-1.47,5.13-2.67,6.91-2.68,2,0,8.79,2.68,8.79,2.68s-7.12-1.41-8.87-1.34A56.53,56.53,0,0,0,78.82,65.2Z"/><path class="cls-7" d="M114,66.1c2.37-2.39,2.53-2.58,4.22-3.15,1.94-.64,7.57,2,7.57,2s-5.58-1.38-7.33-1A21.89,21.89,0,0,0,114,66.1Z"/><path class="cls-7" d="M108.09,88.74V93.2s-8.46.81-12.58,2-8.84,2.91-8.84,2.91-.12-4.51,3.08-5.33,6.41-1.31,8.12-1.77A47.57,47.57,0,0,0,104.13,88,32.31,32.31,0,0,0,108.09,88.74Z"/><path class="cls-7" d="M111.16,88.64l.87,4.11s4.39-.88,7-.3a12.17,12.17,0,0,1,4.4,1.86,3.39,3.39,0,0,0,1-3.72,26.81,26.81,0,0,1-4.3-.28c-1.2-.31-4.49-1.79-5.7-3.17Z"/><path class="cls-7" d="M99.16,107.91c2.73,1.27,7.82,1.5,9.69,1.42s6.33-1,7.55-2.24c0,0-3.06,6.88-7.4,6.81S100.76,110.08,99.16,107.91Z"/><path class="cls-7" d="M91.41,99s8,5.44,17.15,5.22,9.34-7.11,9.34-7.11Z"/><path class="cls-8" d="M97.24,102c1.15,0,8.63.07,11.25,0,2.84-.08,6.89-.38,7-2V97.82l-20.61.92-3.5.25A34,34,0,0,0,97.24,102Z"/><path class="cls-6" d="M89.75,98.51c5.11-1.39,14-3.47,16.13-3.73a9.82,9.82,0,0,1,5.21,1.13s3.18-2.43,6.14-2.26S121.15,95,121.15,95s-2.08,3-10.84,3.47S93,100,89.75,98.51Z"/><path class="cls-7" d="M81.09,116.44c1.51,4.9,6.69,13.33,8.91,13.84s9.53,3.13,16.61,1.75,11.86-7.11,13-10.11a15.6,15.6,0,0,0-10.71-3.36c-6.74.28-14.28,4.22-14.28,4.22S85.92,122.59,81.09,116.44Z"/><path class="cls-6" d="M96.47,83.94c1.66,1.4,10.72,3.72,13.66,3.2s6.25-1.16,8.42-3.2c0,0-5.23,5.23-8.81,5.23S98.51,85.72,96.47,83.94Z"/></g></svg>