<?xml version="1.0" encoding="utf-8"?>
<!-- Generator: Adobe Illustrator 23.1.1, SVG Export Plug-In . SVG Version: 6.00 Build 0)  -->
<svg version="1.1" id="Layer_1" xmlns="http://www.w3.org/2000/svg" xmlns:xlink="http://www.w3.org/1999/xlink" x="0px" y="0px"
	 viewBox="0 0 180 180" style="enable-background:new 0 0 180 180;" xml:space="preserve">
<style type="text/css">
	.st0{fill:#6ED3F3;}
	.st1{fill:#E6E8EC;}
	.st2{fill:#FFFFFF;}
	.st3{enable-background:new    ;}
	.st4{fill:#848AA0;}
	.st5{fill:#091440;}
</style>
<g id="Layer_3">
	<circle id="_Path__4_" class="st0" cx="90" cy="90" r="90"/>
	<path class="st1" d="M86.6,140.3c4.4,1.1,13.7,0.5,16.9-2.3c1.3-1.2,2.4-6.1,1.3-7.1c-1.3-1.3,0.7-7.6-0.1-7.6
		c-8.2,0.6-38.3-11.4-41.7-15.2c0,0-0.4,6.2,0.2,8.2C65.9,124.2,78.8,138.5,86.6,140.3z"/>
	<path class="st2" d="M58.9,69.1c-1.3,9.9-0.4,20.3,4,29.2c1.4,2.9,3.2,5.5,5,8.2c2.4,3.6,4.9,7.3,8.5,9.8c3.1,2.2,6.9,3.3,10.6,4.3
		c3.5,0.9,7,1.7,10.6,2.4c2.3,0.4,4.8,0.8,7.1,0.3c3.8-0.9,6.7-4.1,8.9-7.4c4.5-6.9,8.7-15.8,9.6-24c0.8-7,1.3-11.8,0.9-15.7
		c-0.2-1.6-1.4-5.6-0.4-6.6c0.6-0.6,0.1-7.8,0.1-9.9c0-9.2,2.9-22.1-1.7-27.9C114.2,22,74,32.1,71,34.3c-4,2.9-5.3,9.3-6.8,13.7
		C61.8,54.8,59.8,61.9,58.9,69.1z"/>
	<path class="st2" d="M101.2,137.7c-0.1,0.2-0.2,0.4-0.2,0.5C101.1,138,101.2,137.9,101.2,137.7z"/>
	<path class="st2" d="M82.8,158.7c15.3,0,20.9-17.3,23-22.8c-4.3,1.6-13.9,1.3-18.3,0.2c-7.8-1.8-17.6-11-20.8-17.6
		c-2.2-4.6-3.4-11.9-3.9-20.2c0-15.5-3.6-24-3.6-24s-2.7-5.9-6.5-6.9c-2-1.6-6.1-2.1-8.1,0.9c-4,6,4.7,12.4,5.7,19.4
		c0.1,4.8,5.1,11.9,10.3,8.3c-0.2,11.5-2.1,29.7-6.7,32c0,0.1-3.3,1.4-3.4,1.4C47.8,136.1,65.4,158.7,82.8,158.7z"/>
	<g class="st3">
		<path class="st4" d="M117.8,116c2.3-4.8,1.5-2.9,3.1-10.1c0.3-1.2,1.3-7.1,1.7-10.7c-2.6,7.1-7.4,11-7.1,4.5
			c0.1-3-4.9-0.4-6.8,0.1c-1.5,0.4-4.1-1-5-4.3c-0.1-0.5-5-1.7-5.4,0.8c-0.5,3.3-7.7,5.4-13.8,3.6c-6.8-2-2.6,8.4-13,3.5
			c-12-5.6-11.1-21.2-11-25.9L58,75.6c-0.7,3.2-0.7,12.1-0.7,16.5c-0.1,9.8-0.3,11.9,6.7,18.6c8.7,8.5,21.6,15.8,28.6,17.8
			c2.8,0.8,13.4,0.6,16.1-1C113.2,124.9,116.1,119.4,117.8,116z"/>
	</g>
	<path class="st2" d="M104.2,116.1c6.9,1.5,11.6-12.4,7.5-13.6c-5.3,1.5-7.3,1.4-9.3,1.4c-4.4,0-9.9,2.9-15.6,0.4
		c-0.4-2.6-4.2,2.8-2.3,5.3c1.4,1.6,9,10,14.3,7C100.5,115.7,102.4,115.7,104.2,116.1z"/>
	<path class="st5" d="M90.8,68.6c-0.5-0.1-4.4-0.9-8.1-1.3c-2-0.2-3.8-0.4-5.7-0.5c-1.1-0.1-5.1,1.5-5.6,2.2c1,1.4,7.7,1.5,8.9,1.6
		c1.4,0.1,7,0.4,8.4,0.4c1,0,3.6,0.6,3.7-0.3C92.4,69.8,91.7,68.7,90.8,68.6z"/>
	<path class="st5" d="M106.1,70.8c1.2-1.4,3-2.1,4.8-2.6c1.8-0.4,5-1.8,6.8-2.2c1.3-0.3,4.1-0.2,5.3,0.1c0.5,0.1,0.6,0.2,1,0.6
		c0.8,0.8-0.2,2.8-0.3,2.7c-0.9-0.5-1.9-0.3-3.6-0.2c-3.4,0.3-11.6,1.5-12.6,1.9C107,71.3,105.3,71.8,106.1,70.8z"/>
	<path class="st5" d="M80.4,72.1c1.7-0.2,3.4-0.2,5.1-0.1c1,0.1,2,0.1,3,0.4s1.9,0.7,2.5,1.5c-1,0-3.2-1-7-1.1
		c-2.8-0.1-7.3,1.1-8.1,1C77,72.8,79,72.3,80.4,72.1z"/>
	<path class="st5" d="M81.7,74.7c0.3,0.6,1.1,1.4,2.6,1.3c1.4,0,2-1.1,2.1-1.4c0.2-0.5,0.3-1.5-0.1-2c-0.3-0.4-1.4-0.5-2-0.5
		c-0.9,0.1-1.7-0.3-2.6,0.2C81.4,72.6,81.4,74.1,81.7,74.7z"/>
	<path class="st5" d="M114.2,71.2c2.2-0.3,3.5-0.3,4.5,0.1c0.5,0.2,1.9,1,1.3,1c-1.4-0.3-5.3-0.3-6.9-0.1c-2,0.2-6.5,2-6.7,1.8
		c-0.2-0.3,1-0.9,1.1-1C108.6,72.4,110.4,71.7,114.2,71.2z"/>
	<path class="st5" d="M116.7,72.8c0,1.4-1.2,2.2-2.5,2.2c-0.8,0-2.3-0.5-2.3-1.9c0-1,0.2-1.7,2.2-1.4
		C114.8,71.8,116.7,70.4,116.7,72.8z"/>
	<path class="st4" d="M101.5,94.4c1.5,0,3.1-1,3.7-1.4c1.1-0.8,2.6-0.6,3.4,0.3c0.2,0.3-1.7,3.4-8.2,3.3c-4.6,0-9.1-3.2-8.3-3.6
		c1.1-0.4,4.3-1.1,5.4-0.4C98.2,93.1,100,94.4,101.5,94.4z"/>
	<path class="st4" d="M88,105c4.4,2,9.4,6.3,12.9,6.2c4.5-0.1,6.7-4.6,7.9-5.6c-0.1,0.1-6.3,1.2-7.9,1.2
		C97.7,106.9,90.5,105.6,88,105z"/>
	<path class="st5" d="M52.8,67.4c2.2,1.7,5,3.3,5.3,8.2l2.3,1.8c0,0,0.2-2.6,1.7-6.2c4.3-10.4,4.9-14.8,4.8-20.8
		c0-3.9,0.6-7.1,1.3-9.3c0.4-1.4,1.9-0.7,3.3-0.1c26.9,10.1,51.1,5.1,52.5,0.7l0.2,8.9c0,0,2.3-1.3,1.8-14.4
		c-0.4-10.3-12.5-18.6-24.6-23.4c-16.7-6.7-29.8,1.5-42.9,8.9C43.9,29.8,50.1,46,52.8,67.4z"/>
	<path class="st5" d="M83.9,104c-0.1-0.2-0.1-0.5,0-0.8c0.3-0.5,1-0.8,1.6-0.7s0.2,0.3,0.8,0.5c1.7,0.7,3.6,0.9,5.4,0.6
		c1-0.2,6.2-1.3,7.9-1.1c1.2,0.1,1.7,1.2,2.9,0.9c0.6-0.2,1.1-0.6,1.8-0.9c1-0.4,1.3-0.1,2.5,0c3.1,0.4,3,0.4,5.9-0.7
		c0.3-0.1,0.7-0.2,0.9,0c0.3,0.3-0.1,0.8-0.5,0.9s-1.2-0.4-1.4-0.2c-1.6,1.5-3.1,2.3-4.8,3.2c-0.7,0.4-8.4,1.3-10.9,1
		c-1.5-0.2-4.5-0.6-5.8-1.2c-0.4-0.2-2.8-0.9-3.3-1.2c-1.4-0.9-1.2,0.3-1.9,0.2C84.6,104.5,84,104.2,83.9,104z"/>
	<path class="st1" d="M99.8,105.1c1.1,0,2.1,0.4,3.2,0.3c1-0.1,1.5-0.5,2.6-0.6c1.6-0.1,4.5-0.8,6.2-2.4c-2.3,2.2-2.8,3.7-5.8,4.9
		c-3,1.2-5.7,1.3-8.7,0.3c-1.5-0.5-9.5-2.3-10.3-3.5c0.5,0.4,3,0.9,4.4,0.9C92.8,105.1,98.2,105.1,99.8,105.1z"/>
	<path class="st2" d="M16.7,142.1"/>
	<path class="st5" d="M104.8,130.8c-4.1,9.1-12.4,15.3-21.7,16.2c-11.9,1.1-24.9-6.4-29-19c-10.1,3-25.1,9.9-37.2,14.4
		C33.2,165.2,59.8,180,90,180c24.8,0,47.2-10,63.4-26.2L104.8,130.8z"/>
</g>
<g id="Layer_4">
</g>
</svg>
