<svg xmlns="http://www.w3.org/2000/svg" viewBox="0 0 180 180"><defs><style>.cls-1{fill:#2f74fb;}.cls-2{fill:none;}.cls-3{fill:#091440;}.cls-4{fill:#fff;}.cls-5{fill:#848aa0;}</style></defs><title>Milvian</title><g id="illustrations_c"><circle id="_Path_" data-name="&lt;Path&gt;" class="cls-1" cx="90" cy="90" r="90"/><polygon class="cls-2" points="114.72 117.81 114.72 117.81 114.72 117.81 114.72 117.81"/><path class="cls-3" d="M145.61,147.12a24,24,0,0,0-3.56-12.68c6.24-10.22,2-11.18-.26-13.91s-4.17-6.8-.23-17.06,1.78-19.57-5-26.49-4.06-11.68-4.64-15.72-1.77-4.21-6.11-9.94-5.41-9.41-8.34-14.44-10.38-10.74-19.52-11-20.23.34-27.13,7.46c-4.52.67-12,3-15.22,9.24S52.53,55.67,45,67.71,30.67,86.6,41.8,97.37c-2.86,12.13-11.66,19.16-15.37,27.86-2.35,5.5-2.33,11.73,3.66,19.88l-8.23,3.68a90,90,0,0,0,133.92,2.62Z"/><path class="cls-4" d="M109.66,127.51c0,.37-.12.75-.18,1.14C109.54,128.26,109.61,127.88,109.66,127.51Z"/><path class="cls-4" d="M109.42,129c-.06.39-.12.79-.19,1.2C109.3,129.77,109.36,129.37,109.42,129Z"/><path class="cls-4" d="M109.88,126.16c-.06.39-.13.8-.2,1.22C109.75,127,109.82,126.55,109.88,126.16Z"/><path class="cls-4" d="M110.06,125l-.15,1Z"/><path class="cls-4" d="M110.08,124.82c.06-.35.11-.69.16-1h0C110.19,124.13,110.14,124.47,110.08,124.82Z"/><path class="cls-4" d="M109,131.81l0-.15c.07-.44.15-.88.22-1.3C109.12,130.83,109,131.32,109,131.81Z"/><path class="cls-4" d="M108.9,132.11c-.07.41-.14.83-.22,1.25C108.76,132.94,108.83,132.52,108.9,132.11Z"/><path class="cls-4" d="M80.83,151.59c6.5,7.56,22.13,9.44,24.55-1.52,1.33-6,2.4-11.62,3.23-16.32-.09.52-.18,1.05-.28,1.59-8.17,1.89-16.08-3.22-21.36-10.64-1.93-2.72-4.37-5.89-6.83-9.14,1.56,1,2.93,1.89,4.18,2.76h0c6.49.63,13.18-5.27,13.43-4.29s0,6.3,5.64,5.89,5.3-6.13,6.26-5.75,3.85,5.32,5.07,3.64h0c2.83-6,.5-7.91,1.64-10.07.69-1.33,1.5-2.5,2.31-4v0l2.23-5.6h0c.1-.76.22-1.5.36-2.19,1.16-5.7,1.62-8.65.82-12.38a27.35,27.35,0,0,1-.75-10.2,26.75,26.75,0,0,0,.27-5.15A7,7,0,0,0,117,65.32c-3.54-.61-11,.89-9.85-.79,2.12-3,4.47-4.55,8.25-4,3,.41,4.68,1.74,5.55,3.28,0-.14-.06-.29-.1-.42C120,60.23,121.81,47,114,44.64s-15-3.08-28.68-6.17c-6.37-1.82-17.42,10.87-17.2,18.06a37,37,0,0,0,.33,4.15,12.5,12.5,0,0,1-.59,6A7.06,7.06,0,0,0,67.59,71a37.48,37.48,0,0,1,1.3,5.8h0C71.68,94.91,78.47,97.43,83,101.55s4,8.62.35,7.68-6.34,1.37-5.7,4.83c0,0-6.74-3.65-9.62-9a41.38,41.38,0,0,0,2.94,8.57c3,6.2,7.21,9.71,10.56,15.89a37,37,0,0,1,2.8,6.58C87.76,147,80.83,151.59,80.83,151.59Z"/><path class="cls-5" d="M101.59,127.29c-5.37-.36-11.72-2.64-17.27-9-1.25-.87-2.62-1.8-4.18-2.76C82.6,118.81,85,122,87,124.7c5.28,7.42,13.19,12.53,21.36,10.64.1-.54.19-1.07.28-1.59l.07-.39c.08-.42.15-.84.22-1.25,0-.1,0-.2,0-.3.08-.49.17-1,.25-1.45l0-.18c.07-.41.13-.81.19-1.2l.06-.33c.06-.39.13-.77.18-1.14l0-.13c.07-.42.14-.83.2-1.22l0-.2.15-1,0-.17c.06-.35.11-.69.16-1A10.92,10.92,0,0,1,101.59,127.29Z"/><path class="cls-3" d="M89.12,63c3.46.26,7.13,2.63,7.45.35.36-2.53-4.8-5.85-10.58-4.7s-9,6.81-9.48,8.06C81.87,62.89,85.66,62.74,89.12,63Z"/><path class="cls-3" d="M115.42,60.49c-3.78-.51-6.13,1-8.25,4-1.18,1.68,6.31.18,9.85.79a7,7,0,0,1,4.58,2.89,3.44,3.44,0,0,1,.29.47,9,9,0,0,0-.39-3.74,6.11,6.11,0,0,0-.53-1.17C120.1,62.23,118.44,60.9,115.42,60.49Z"/><path class="cls-3" d="M86.86,66.48a7.78,7.78,0,0,0-2.92,1.06,5.46,5.46,0,0,0-2.06,2.23,9.56,9.56,0,0,1,2.43-1.54A10.29,10.29,0,0,1,87,67.47a9.09,9.09,0,0,1,5.52.87A5.35,5.35,0,0,0,90,66.7,7.22,7.22,0,0,0,86.86,66.48Z"/><path class="cls-3" d="M89.31,72.68a2.3,2.3,0,0,0-.37-1.52,8,8,0,0,1,1.43.33,14.16,14.16,0,0,1,3,1.49,5.6,5.6,0,0,0-2.25-2.89,6.18,6.18,0,0,0-3.72-1,6.64,6.64,0,0,0-3.6,1.27,5.32,5.32,0,0,0-2.12,3,12,12,0,0,1,2.88-1.62l.24-.08a2.33,2.33,0,0,0-.13.52,2.35,2.35,0,1,0,4.68.51Z"/><path class="cls-3" d="M109,72.17a2.35,2.35,0,1,0,4.68.51,2.49,2.49,0,0,0-.07-.86,10.08,10.08,0,0,1,1.32.49,20.9,20.9,0,0,1,2.55,1.42A5.31,5.31,0,0,0,115.77,71a5.66,5.66,0,0,0-3.07-1.41,5.09,5.09,0,0,0-3.34.72,5.16,5.16,0,0,0-2.09,2.45c.62-.25,1.18-.5,1.73-.7Z"/><path class="cls-3" d="M98.9,89.1a58.57,58.57,0,0,1-6.06,5.23c-2.52,1.71-4.73,4.22-3.58,9.85,3.95-5.78,8.19-8.64,11.61-9s4.35-.25,6.11.65,6.12,3.12,7.1,8.68c.78-4.72,1-8.18-2.14-10.5-2.79-2-3.76-2.77-4.56-4A9.14,9.14,0,0,1,98.9,89.1Z"/><path class="cls-5" d="M106.37,96.42c-1.62-.14-1.35.79-2.41.84s-2.1-1.28-3.35-1-4.51,3.27-6.71,5.31c1.94,0,3.91-1.15,5.67-1.59s2.58.36,4.48.2,1.9-.76,3.49-.44,2.53,2,3.67,1.79C109.45,99.07,108,96.57,106.37,96.42Z"/><path class="cls-3" d="M103.87,103.88c-1.87.08-3.77,1.46-5.28,3,1.87,3.23.52,7.5,5,7.9s3.14-4.44,5.11-8.09C107.14,103.85,105.73,103.8,103.87,103.88Z"/><path class="cls-4" d="M65.08,79.11,65,79c-2.4-3.39-6.77-3.6-9.91-1.18s-3.22,10.38,2.25,16.34c5.08,5.54,7.88,4.42,8.69,1.92C65.48,90.33,65.2,83.14,65.08,79.11Z"/><path class="cls-3" d="M119.63,109.55l-1-5.8c-.81,1.49-1.62,2.66-2.31,4-1.14,2.16,1.19,4.08-1.64,10.07h0s4-3.86,4.88-8a109.74,109.74,0,0,0,1.3-11.69h0Z"/><polygon class="cls-5" points="119.63 109.55 120.9 98.13 118.67 103.73 118.67 103.75 119.63 109.55"/><path class="cls-3" d="M109.65,114.17c-1-.38-.6,5.35-6.26,5.75S98,115,97.75,114s-6.94,4.92-13.43,4.29h0c5.55,6.33,11.9,8.61,17.27,9a10.92,10.92,0,0,0,8.65-3.47h0a28.8,28.8,0,0,0,4.48-6h0C113.5,119.49,110.6,114.54,109.65,114.17Z"/><path class="cls-3" d="M77.61,114.06c-.64-3.46,2.09-5.77,5.7-4.83s4.14-3.55-.35-7.68S71.68,94.91,68.89,76.77h0C67.7,69.12,65,76,65,76s0,1.2.07,3.11c.12,4,.4,11.22,1,17a52.54,52.54,0,0,0,.9,6.29,11.12,11.12,0,0,0,1,2.7C70.87,110.41,77.61,114.06,77.61,114.06Z"/><path class="cls-3" d="M112.85,67.86a7.48,7.48,0,0,1,2.29.69A8.41,8.41,0,0,1,117.2,70a4.63,4.63,0,0,0-1.65-2.12,5.69,5.69,0,0,0-2.57-1,6.15,6.15,0,0,0-2.73.26A4.68,4.68,0,0,0,108,68.61a9.31,9.31,0,0,1,2.42-.73A8.85,8.85,0,0,1,112.85,67.86Z"/><path class="cls-5" d="M98.9,89.1a9.14,9.14,0,0,0,8.48.87,5.55,5.55,0,0,0,2.88-2.92,41.75,41.75,0,0,1-14.32-.28A14.87,14.87,0,0,0,98.9,89.1Z"/></g></svg>