<svg xmlns="http://www.w3.org/2000/svg" xmlns:xlink="http://www.w3.org/1999/xlink" viewBox="0 0 180 180"><defs><style>.cls-1,.cls-9{fill:none;}.cls-2{isolation:isolate;}.cls-3{mix-blend-mode:screen;}.cls-4{clip-path:url(#clip-path);}.cls-5{fill:#3ad7a4;}.cls-6{fill:#fff;}.cls-7{fill:#091440;}.cls-8{fill:#848aa0;}.cls-9{stroke:#fff;stroke-miterlimit:10;stroke-width:0.25px;}</style><clipPath id="clip-path"><circle class="cls-1" cx="90" cy="90" r="90"/></clipPath></defs><g class="cls-2"><g id="illustrations"><g class="cls-3"><g class="cls-4"><rect class="cls-5" x="-3.21" y="-0.1" width="184.98" height="178.98"/><path class="cls-6" d="M57.81,98.08c.34,7.7.23,21.85-1.58,25.81s.11,10.42-30.45,21.51c0,0,19.13,37.36,55.13,36.23s62.94-30.34,62.94-30.34-27.63-8.49-29.67-10.42a50.92,50.92,0,0,1-5.25-6.94L102.19,108Z"/><path class="cls-7" d="M116.49,141.66c0,.05,4.54,17-21.07,17-17.7,0-45.93-3.27-57.59-18.09C17,145.36,3.09,154.43,2.4,165.6,1.27,184,36.63,201.23,81.39,204s82-10,83.09-28.42C165.33,161.67,145.47,148.49,116.49,141.66Z"/></g></g><path class="cls-8" d="M60.94,101.5c-.13,7.8,3.43,23.52,12.78,29.57,12.35,8,27.83,4.56,27.83,4.56Z"/><path class="cls-9" d="M57.29,99.65c1.45,6,2.78,9.2,2.45,14s-1.89,19.71-1.89,19.71a30.3,30.3,0,0,0,24.92,24.78c22.41,4.34,24.74-22.54,24.74-22.54v-1.51L66,97.73Z"/><path class="cls-6" d="M64.31,62.79a48.9,48.9,0,0,1-3.67,13,6.17,6.17,0,0,1-1.83,2.64c-2.43,1.72-5.73-.52-7.47-2.94s-3.51-5.44-6.48-5.7a3.16,3.16,0,0,0-1.82.33,4.46,4.46,0,0,0-1.84,3.09c-1.81,8.1,2.49,16.48,8.35,22.36,2,2,4.4,3.91,7.22,4,1.36,0,3-.19,3.8,1a3.17,3.17,0,0,1,.37.91c1.94,6.62,3.82,13.45,7.88,19,5.2,7.16,13.5,11.52,22,13.83,6.55,1.78,14.3,2.23,19.39-2.27,3.28-2.9,4.76-7.28,6.1-11.45l7.86-24.35c1.2-3.71,2.41-7.52,2.14-11.41-.31-4.71-2.7-9.8-.26-13.84a5.55,5.55,0,0,0,.87-1.67,4,4,0,0,0-.07-1.47l-2-10.92c-.78-4.36-1.61-8.83-3.92-12.6-4.1-6.66-12.3-9.94-20.12-10S85.5,37,78.25,39.91c-4.78,1.93-9.38,4.48-11.9,9.22C64.27,53,64.89,58.53,64.31,62.79Z"/><path class="cls-7" d="M60,76.43l-2.15,7.33C57.57,84.77,57,86,56,86a2.52,2.52,0,0,1-1.44-.53l-8.48-5.22c2.47.3,4.66-2.28,4.43-4.75a6.31,6.31,0,0,0-4.76-5.14c-.69-.19-1.94.08-2.4-.5a2.46,2.46,0,0,1-.4-1.36A55.28,55.28,0,0,1,44.39,50.6a9.87,9.87,0,0,0-2.09,4.9c-.33,0-.45-.44-.47-.77-.15-3.35,1.48-6.41,2.19-9.64s2.82-6.86,4.4-9.6a34.36,34.36,0,0,1,8.14-9c2.63-2.13,6.17-3.33,7.89-6.25A37.47,37.47,0,0,0,57.37,23c0-1.73,6.05-4.79,7.37-5.58,10.78-6.44,24.47-5.78,36.37-3.54A96.86,96.86,0,0,1,116.27,18c4.69,1.71,9.91,3.54,13.84,6.72,3.61,2.91,4.35,6.7,3.85,11.16a10.13,10.13,0,0,1-4.15,7c-.86.6-2.87.92-3.09,2-.46,2.2,2.09,6.28,2.88,8.28a35.39,35.39,0,0,1,1.63,5.34c1,4.65.58,10.65-4.75,12.4-2.87-4.21-2.39-9.74-3.24-14.76a27,27,0,0,0-4.76-11.28c-2-2.69-4.6-5.11-7.87-5.67-5.26-.91-10.54,3.15-15.72,1.88-1.18-.29-2.3-.85-3.5-1-3.86-.52-6.91,3-10.06,5.22a18.77,18.77,0,0,1-10.21,3.52,6.26,6.26,0,0,0-3.14.59c-1.34.86-1.62,2.66-1.81,4.24A84.76,84.76,0,0,1,58.91,79"/><path class="cls-8" d="M95.42,103.18A3.7,3.7,0,0,0,97,105.77a11.48,11.48,0,0,0,8.16,3.14c3-.21,5.92-2.28,6.56-5.2a12.49,12.49,0,0,1-8.38.57,24.66,24.66,0,0,1-4-1.41c-1.17-.51-2.52-1.51-3.75-1.71A15.1,15.1,0,0,1,95.42,103.18Z"/><path class="cls-7" d="M71.4,72.39c9.23-5,13.34-7,20.56-5.33s6.33,3.56,6.33,3.56-8.66-1.47-12.55-1.18S71.4,72.39,71.4,72.39Z"/><path class="cls-7" d="M114.28,70.49c.53-3.1,3.58-4.06,7-3.43s4.88,1,4.88,1l.38,2.43A21.75,21.75,0,0,0,114.28,70.49Z"/><circle class="cls-7" cx="85.37" cy="77.01" r="2.59"/><circle class="cls-7" cx="116.18" cy="77.01" r="2.59"/><path class="cls-7" d="M77.81,77.28c5-3,10.15-5.92,16.52.74,0,0-4.52-3.18-7.63-3.11S77.81,77.28,77.81,77.28Z"/><path class="cls-7" d="M111.68,76.4c2.7-1.87,7.09-3.19,10-1.86S123.25,77,123.25,77s-.77-2.47-4.48-2.24A24.78,24.78,0,0,0,111.68,76.4Z"/><path class="cls-8" d="M109.29,118.69a12.42,12.42,0,0,1-11,0s2.81,3.85,6.22,3.48A6.17,6.17,0,0,0,109.29,118.69Z"/><path class="cls-8" d="M89.51,112.54c3.12-.15,9-1.4,11.63-1.33s2.67.66,4.6.66,2.14-.89,3.55-.66a31.93,31.93,0,0,1,4.3,1.33,36,36,0,0,1-7.93,1.11C100.71,113.88,89.51,112.54,89.51,112.54Z"/></g></g></svg>