<svg id="illustrations" xmlns="http://www.w3.org/2000/svg" xmlns:xlink="http://www.w3.org/1999/xlink" viewBox="0 0 180 180"><defs><style>.cls-1{fill:none;}.cls-2{clip-path:url(#clip-path);}.cls-3{fill:#3ad7a4;}.cls-4{fill:#0a1440;}.cls-5{fill:#f9fafa;}.cls-6{fill:#8997a5;}</style><clipPath id="clip-path"><circle class="cls-1" cx="90" cy="90" r="90"/></clipPath></defs><g class="cls-2"><rect class="cls-3" x="-3.21" y="-0.1" width="184.98" height="178.98"/><ellipse class="cls-4" cx="77.23" cy="165.82" rx="76.3" ry="36.59" transform="matrix(1, -0.1, 0.1, 1, -15.53, 8.16)"/><path class="cls-5" d="M46,129.82c8.59,12.15,30.52,35.86,56,30.82S108,127.16,108,127.16L72.93,92.79Z"/><path class="cls-6" d="M69.56,106.23c1.89,7.59,6.93,15.59,13.15,18s17.48.89,17.48.89Z"/><path class="cls-4" d="M64.43,126.9c.47,2.35,1.33,4.94.14,7A6.2,6.2,0,0,1,61,136.48a13.56,13.56,0,0,1-14.89-5c-4.64,2.93-10.54,5.93-15.29,3.17,2.86-.31,5.81-.65,8.3-2.08s4.41-4.27,3.86-7.1-4.34-4.73-6.55-2.89a16.43,16.43,0,0,0-1.89,2.39c-2.48,3-8,2.61-10-.75A9.72,9.72,0,0,0,31.3,107a15.2,15.2,0,0,1-15.33.81A9.59,9.59,0,0,0,26.69,103a9.61,9.61,0,0,0-2.54-11.48A9.24,9.24,0,0,1,16,91c4.87-1.17,6.43-7.33,6.24-12.32s-1-10.61,2.16-14.48c2.26-2.76,6.08-3.89,8.33-6.65C35.9,53.65,35.06,48,36.62,43.2a14.55,14.55,0,0,1,7.81-8.62c1.9-.84,4-1.26,5.86-2.09C54,30.86,56.92,27.78,59.88,25,67.67,17.57,77.11,11.4,87.72,9.79S110.19,12,116.1,20.93a9.71,9.71,0,0,1,12.17,5.64c.89,2.58.62,5.38.9,8.09.42,4.15,2.11,8,3.11,12.09s1.21,8.61-1.1,12.08A82.25,82.25,0,0,0,82.54,62c-5.25,2-10.5,4.77-13.81,9.32-3.87,5.33-4.52,12.39-3.81,18.93.38,3.55,1.13,7,1.83,10.53.52,2.55,2,6.47,1.62,9s-2.75,4.92-3.5,7.48A20,20,0,0,0,64.43,126.9Z"/><path class="cls-4" d="M139.61,76.52A4.69,4.69,0,0,1,139.7,80c-.42.81-1.25,1.32-1.78,2.06-1,1.46-.72,3.53.18,5.09a35.22,35.22,0,0,0,3.38,4.17,16.41,16.41,0,0,1-.16,20.12,27,27,0,0,0-2.93,3.59,4.31,4.31,0,0,0-.2,4.39l2.83.41a3.78,3.78,0,1,1-7.52.55c-.83,2.79-1.81,5.78-4.19,7.44a10,10,0,0,1-4.38,1.5,15.17,15.17,0,0,1-9-1.28,9.65,9.65,0,0,1-5.26-7.16c-.42-3.64,1.63-7,3.42-10.22a94.53,94.53,0,0,0,12.05-44,8.23,8.23,0,0,1,.85-4.32C131.16,55.64,138.75,73.73,139.61,76.52Z"/><path class="cls-5" d="M71.77,54.6A10,10,0,0,1,75,52.44a14.46,14.46,0,0,1,5-.49c5.89-.05,12.32-2,15.34-7.06,1.74-2.92,2.21-6.62,4.6-9,2.17-2.18,5.45-2.8,8.53-2.93a37.44,37.44,0,0,1,9.67.87,7.7,7.7,0,0,1,3.23,1.33c1.47,1.19,1.15,3,1.79,4.65a41.38,41.38,0,0,0,3,5.48,34.76,34.76,0,0,1,3.54,10.19c.33,1.71.57,3.42.82,5.14.4,2.73-.6,5.43-1.28,8a9.71,9.71,0,0,0-.47,3.24c.14,1.73,1.09,3.27,1.51,4.93a40.23,40.23,0,0,1,.74,7.82c.2,3.8-1.29,7.92-2.54,11.46a69.72,69.72,0,0,1-5.7,13.11c-1.89,3.33-5.3,8.43-7.32,11.69a25.46,25.46,0,0,1-3,4.11,6.41,6.41,0,0,1-4.35,2.16c-4.12.54-8.28-.36-12.22-1.49-6.15-1.78-12.22-4.27-17.11-8.42a47.25,47.25,0,0,1-9.14-11,36.14,36.14,0,0,1-3.58-6,31.55,31.55,0,0,1-1.54-7.34c-4.69,1.56-9.48-3.2-10.88-7.22a22.36,22.36,0,0,1-1.42-7.35c0-1,.55-3.4,2.15-2.51a2.89,2.89,0,0,1,.91,1.27,4.34,4.34,0,0,0,3,2.15c1.46.26,3.59-.34,4.19-1.85a8.32,8.32,0,0,0,.14-3.3C62.38,66.88,66.64,59.37,71.77,54.6Z"/><path class="cls-4" d="M76.74,62.31c6.34-1.89,12.67-3.89,21.56,0,0,0,2.22-2,0-3.23S84.63,56,76.74,62.31Z"/><path class="cls-4" d="M119.52,60.07c-2,.9-2.66,3.9.89,3s5.69-1.84,10.07-1.42a1.21,1.21,0,0,0-.16-1.59C129.52,59.42,125.41,58.06,119.52,60.07Z"/><circle class="cls-4" cx="91.86" cy="69.75" r="2.78"/><circle class="cls-4" cx="121.97" cy="70.19" r="2.78"/><path class="cls-6" d="M94.08,102.86c2.55-1.33,9.55-1.44,11.33-1.44s2.78,1.55,4.33,1.55,2-2.22,3.89-2.11,3.23,2.22,4.34,1.33c0,0-2.89,3.23-9.23,2.89A106.05,106.05,0,0,1,94.08,102.86Z"/><path class="cls-6" d="M98.41,109.53c3.78,2.22,10.33,3.66,15.45.78,0,0-1.67,4.11-7.12,4.11S98.41,109.53,98.41,109.53Z"/><path class="cls-6" d="M103.41,93.64c3.11,1,8.56,2.22,10.11,1.78a12.86,12.86,0,0,0,3.34-1.78s.22,4-3.89,3.89S103.41,93.64,103.41,93.64Z"/><path class="cls-4" d="M84.19,71.08c2.55-1.33,5.33-3.89,7.78-3.77s5.44,2.22,5.44,2.22-1.11-3.11-5.89-3.11S84.19,71.08,84.19,71.08Z"/><path class="cls-4" d="M116.3,70.08c3.22-2,6.67-4.44,11.44-.77,0,0,0,1.44-.88.77S123.08,66.42,116.3,70.08Z"/></g></svg>