<svg id="illustrations" xmlns="http://www.w3.org/2000/svg" xmlns:xlink="http://www.w3.org/1999/xlink" viewBox="0 0 180 180"><defs><style>.cls-1{fill:none;}.cls-2{clip-path:url(#clip-path);}.cls-3{fill:#6ed3f3;}.cls-4{fill:#fff;}.cls-5{fill:#848aa0;}.cls-6{fill:#091440;}</style><clipPath id="clip-path"><circle class="cls-1" cx="90" cy="90" r="90"/></clipPath></defs><g class="cls-2"><rect class="cls-3" x="-3.21" y="-0.1" width="184.98" height="178.98"/><path class="cls-4" d="M114.28,140.72A24.55,24.55,0,0,1,112,139a7.36,7.36,0,0,1-1.16-1.14c-1.5-2-.14-15.35-1-15.66L73.64,109.5,57.81,98.08c.07,1.49.2,3.57.37,6l-2.94-1c.27,4.07,4.52,10.21,3.74,21.18-.24,3.29-.5,6.61-.74,9.64-1.65,3-3.7,1.11-32.46,11.55,0,0,19.13,37.36,55.13,36.23s62.94-30.34,62.94-30.34q-6.32-1.95-12.6-4C125.65,145.45,119.31,144,114.28,140.72Z"/><path class="cls-5" d="M58.55,107.17C60.73,115,67.48,123.36,76.42,129s20.7,1.5,20.7,1.5L66.31,106Z"/><path class="cls-4" d="M63.35,41.31a17.11,17.11,0,0,1,9.07-7.23A46.78,46.78,0,0,1,84,31.75c8.33-.91,17.65-1.29,24.1,4.06,3.14,2.6,5.19,6.28,6.88,10,3.08,6.77,4.57,14.13,5.79,21.42S123.3,81.71,123,89.06a73.91,73.91,0,0,1-1,9.38c-1.27,7.48-3.18,12.8-7.73,18.88-3.31,4.41-8.12,10.16-13.36,11.86-9.71,3.16-18.27-2.2-26.53-6.65-4.92-2.64-10.38-4.94-13.56-9.77Q59,109.91,57.24,107c-.65-1.1-1.88-2.64-2-4-2.5,2-5.76.24-7.62-1.87s-2.71-5.55-3.49-8.26c-1.56-5.45-2.59-11.79.68-16.44,2.12-1.56,5.25,0,6.68,2.25s1.91,4.93,3.37,7.12c2.69-3,.78-7.65,1-11.67.16-3.44,2-6.47,4-9.15,1.69-2.22,3.76-4.32,3.43-7.32-.25-2.22-1.55-4.21-1.8-6.48A17,17,0,0,1,63.35,41.31Z"/><path class="cls-6" d="M121.45,56.25c.23,2.43.24,5.34-1.76,6.72a69.65,69.65,0,0,0-7.6-21.39,15,15,0,0,0-2.25-3.26,13.73,13.73,0,0,0-2.7-2c-5.71-3.48-10.94-3.74-17.63-3.86-6.33-.11-14.23-.21-19.36,3.51A21.87,21.87,0,0,0,62,47.55c-.73,2.5-.79,3.62.17,6,1.07,2.6,2.12,5.37.84,8.12-1,2.14-3.15,3.49-4.54,5.4-2.29,3.13-2.3,7.33-2.21,11.22l.17,7.56c-1.14,1.14-3.21,0-3.8-1.47s-.38-3.19-.79-4.75a6.09,6.09,0,0,0-5.36-4.38c-.5,0-1.1,0-1.41-.45a1.54,1.54,0,0,1-.22-.85c-.31-4.32-1.24-8.48-1.52-12.87-.27-4.17-.54-8.42.43-12.49,1.06-4.46,3.54-8.44,6.2-12.17,1.34-1.88,2.81-4,2.39-6.31,1.59.35,2.24,2.23,2.6,3.82A31.32,31.32,0,0,1,61.83,22.2v3.5c3.1-4.24,9-4.93,14.12-6.18a45,45,0,0,0,11-4.27c6.44-3.56,12.34-8.83,19.66-9.57a19.72,19.72,0,0,1-8.21,8.46,9.58,9.58,0,0,1,8.89-1.91c2.94.9,5.4,3.21,8.45,3.58,3.6.42,6.93-2,10.54-2.34-1,3.25-3.93,5.57-6.93,7.19-1.87,1-4.48,1.63-6.13,2.95-2,1.6-1.4,1.93.51,2.89C117.5,28.43,121,30,124.21,33c-1.63-.11-5.75-1.42-6.46.82-.57,1.8.69,2.88,1.36,4.24a16.52,16.52,0,0,1,1.42,5.5C121.05,47.78,121.05,52,121.45,56.25Z"/><path class="cls-5" d="M103.56,93.57A14.08,14.08,0,0,1,100,95c-3.13.61-6.24-.92-9.06-2.41l11,.25a11.14,11.14,0,0,0,2.08-.07c.75-.11,1.44-.42,2.17-.55C105.36,92.72,104.43,93.13,103.56,93.57Z"/><path class="cls-5" d="M82.4,105.05c3.78-1.51,8.66-3.89,10.89-3.89s2.85,1.32,5,1.24,1.29-1.06,3.85-.9,8.56,3.55,8.56,3.55-7.44.93-12.41,1S82.4,105.05,82.4,105.05Z"/><path class="cls-5" d="M90.93,108.93c5.14.83,9.4,1.28,12.88,0,0,0-1.54,4-5.48,3.49A15.79,15.79,0,0,1,90.93,108.93Z"/><path class="cls-6" d="M73.18,72.39c3.75-2.9,10.56-6.18,14-.85C87.18,71.54,83.18,66.58,73.18,72.39Z"/><path class="cls-6" d="M103.81,71.54c2.93-1.22,10.81-5.11,11.93,0C115.74,71.54,114.44,67.65,103.81,71.54Z"/><circle class="cls-6" cx="82.02" cy="71.3" r="2.62"/><circle class="cls-6" cx="112.39" cy="71.8" r="2.62"/><path class="cls-6" d="M80.59,59.26a18.62,18.62,0,0,0-3.5.25,18,18,0,0,0-4,1.48c-1.71.79-3.65,1.88-3.88,3.75a46.52,46.52,0,0,1,7.63-1.64,18.86,18.86,0,0,1,3.83,0c1.32.15,2.63.8,3.94.88,1.72.09,2.3-1.68,1.38-3C84.89,59.29,82.34,59.25,80.59,59.26Z"/><path class="cls-6" d="M111.16,59.34a14.11,14.11,0,0,1,4.79.59c1,.29,3.65,1.07,3.85,2.26.13.78-.64,1.1-1.26,1.2a12.47,12.47,0,0,1-3.85-.27,7.77,7.77,0,0,0-3.42.2,10.09,10.09,0,0,1-2,.23c-1.34,0-3.57-.58-2.42-2.23A6.08,6.08,0,0,1,111.16,59.34Z"/><path class="cls-6" d="M116.49,141.66c0,.05,6.59,15.9-19,15.86-17.71,0-38.49-4.46-50.15-19.29C26.51,143,3.09,154.43,2.4,165.6,1.27,184,36.63,201.23,81.39,204s82-10,83.09-28.42C165.33,161.67,145.47,148.49,116.49,141.66Z"/></g></svg>