<svg xmlns="http://www.w3.org/2000/svg" viewBox="0 0 180 180"><defs><style>.cls-1{fill:#3ad7a4;}.cls-2{fill:#091440;}.cls-3{fill:#fff;}.cls-4{fill:#848aa0;}.cls-5{fill:none;}</style></defs><title>dominic</title><g id="illustrations_c"><circle id="_Path_" data-name="&lt;Path&gt;" class="cls-1" cx="90" cy="90" r="90"/><path class="cls-2" d="M101.84,125.45l-38.6-1.63L18,144a90,90,0,0,0,139.85,5.06Z"/><path class="cls-2" d="M60.7,71.72c5.92,2.07,6.58-.89,7.23-7.65A13.62,13.62,0,0,1,74,54.15s-2.51-8.7,2.77-12.65S96,35.3,109.52,40.05L123,44.79A26.53,26.53,0,0,1,128,61c0,.82,0,1.59-.07,2.34,3.53-10.79,5.93-23.44.66-34.76S108.93,9.07,95.62,8.68,71.54,10.13,64.24,21.73c-.52-1.85.66-5.15.66-5.15s-4.2,3.3-7.25,13.05c-5.27,1.72-6.59,5.94-6.72,11.87s3.69,22.28,8.17,30.35h0A2.6,2.6,0,0,0,60.7,71.72Z"/><path class="cls-3" d="M127.91,63.34c0-.75,0-1.52.07-2.34a26.53,26.53,0,0,0-5-16.21l-13.51-4.74C96,35.3,82,37.54,76.77,41.5S74,54.15,74,54.15a13.62,13.62,0,0,0-6.07,9.92c-.65,6.76-1.31,9.72-7.23,7.65a2.6,2.6,0,0,1-1.6.13c-1.74-.36-3.5-1.95-5.63-1.19-2.79,1-5.8,5.29-3.08,9.3s2.67,6.69,3.91,8.31,3.92,2.68,5.54,4.87C61.2,95,63.61,97.52,65.65,96a69.72,69.72,0,0,1-3.89,31.27,5,5,0,0,0,.85,5.07c9.93,11.43,28.2,16.45,37.78,12.88,8.93-3.34,10.73-12.44,11.35-22.18,4.92-2,8.7-8.43,12.66-19.85,4.54-13,5.54-18.17,4.43-23.07C127.82,75.64,127.67,71.36,127.91,63.34Z"/><path class="cls-4" d="M109.55,123.62c-6,.82-18,1.85-27.12-5.8a75.91,75.91,0,0,1-8.26-8,35.54,35.54,0,0,0,11.08,17c8.19,6.88,18.71,6.73,25.13,6a55.19,55.19,0,0,0,1.35-9.85A8.67,8.67,0,0,1,109.55,123.62Z"/><path class="cls-5" d="M115.17,67.5l-11.64-.08a4.71,4.71,0,0,1,1.58,2.21l.44,1.28c2.51-1.49,6.31-.94,8,0l.36-1.24A5,5,0,0,1,115.17,67.5Z"/><path class="cls-5" d="M104.17,70a3.69,3.69,0,0,0-2.68-2.41,40.5,40.5,0,0,0-7.16-.94l-1.25,0A48.09,48.09,0,0,0,87,67a5.71,5.71,0,0,0-4,2.51l-.59.87a7.09,7.09,0,0,0-.92,5.92l1.84,6.36a5.89,5.89,0,0,0,5,4.22c5.39.65,9.28.59,11-.17,2.87-1.31,5.42-9.15,6.13-11.52a3.07,3.07,0,0,0,0-1.85Zm-10.26,1.5c-.39,0-.78,0-1.17,0a2.13,2.13,0,0,1,.15.75,2.3,2.3,0,0,1-4.6.06,2,2,0,0,1,.07-.5l-1.14.19a31,31,0,0,0-3.44.92,7.29,7.29,0,0,1,2.93-2.4,10.35,10.35,0,0,1,3.71-1,9.56,9.56,0,0,1,3.83.47,6.77,6.77,0,0,1,3.16,2.13A22.33,22.33,0,0,0,93.91,71.45Z"/><path class="cls-5" d="M126.93,69.06h5.39a4.54,4.54,0,0,0-3.18-2.24,33.16,33.16,0,0,0-4.75-.36c-.44,0-.89,0-1.34,0a28.86,28.86,0,0,0-6,1,3.42,3.42,0,0,0-2.22,2.43l-1,3.39a3.71,3.71,0,0,0-.05,1.9c.83,3.4,2.84,8.89,5,10,1.36.73,4.58.75,9.07.06A5.4,5.4,0,0,0,132,81.05l1.6-5a8.24,8.24,0,0,0-.73-5.94l0,0h-6ZM123,72.19l-1.27-.25c-.54-.09-1.06-.16-1.57-.21a1.73,1.73,0,0,1,0,.42,2.29,2.29,0,0,1-4.57.24c-.3.12-.61.24-.93.39a4,4,0,0,1,1.79-2.31,5.28,5.28,0,0,1,2.93-.8,6.19,6.19,0,0,1,2.86.8,10,10,0,0,1,1.17.85,7.47,7.47,0,0,1,.91,1.11A10.51,10.51,0,0,1,123,72.19Z"/><path class="cls-2" d="M135.72,69.06h-2.25l-.16-.29a5.56,5.56,0,0,0-4-2.94c-.43-.07-.94-.13-1.48-.18a7.7,7.7,0,0,0,.09-2.9c-.29-2-1-2.67-3-3.4s-3.12.22-7.48,2.23c-2.53,1.17-5,1.74-2.75,2.82s7.89-.39,10-.69c1.54-.22,2.45,1.16,2.83,1.91A30.85,30.85,0,0,0,123,65.5a30.15,30.15,0,0,0-6.11,1L101,66.41a40.48,40.48,0,0,0-6.61-.81,47,47,0,0,0-7.47.4,6.72,6.72,0,0,0-4.76,2.94l-.44.65-20.59-.16v1l20,.15a8.09,8.09,0,0,0-.6,6l1.84,6.35a6.91,6.91,0,0,0,5.81,5,57.66,57.66,0,0,0,6.51.45,13.08,13.08,0,0,0,5-.71c3.17-1.44,5.72-9,6.67-12.14a4,4,0,0,0,0-2.46l-.38-1.12c2.32-1.54,6.29-.79,7.37,0L112.91,73a4.69,4.69,0,0,0-.06,2.41c.09.37,2.2,8.93,5.5,10.69a8.71,8.71,0,0,0,4,.69A38.15,38.15,0,0,0,128,86.3a6.37,6.37,0,0,0,5-5l1.6-5a9.27,9.27,0,0,0-.6-6.26h1.72Zm-30.37,6.12c-.71,2.37-3.26,10.21-6.13,11.52-1.67.76-5.56.82-11,.17a5.89,5.89,0,0,1-5-4.22l-1.84-6.36a7.09,7.09,0,0,1,.92-5.92L83,69.5A5.71,5.71,0,0,1,87,67a48.09,48.09,0,0,1,6.06-.41l1.25,0a40.5,40.5,0,0,1,7.16.94A3.69,3.69,0,0,1,104.17,70l1.15,3.38A3.07,3.07,0,0,1,105.35,75.18Zm.2-4.27-.44-1.28a4.71,4.71,0,0,0-1.58-2.21l11.64.08a5,5,0,0,0-1.27,2.14l-.36,1.24C111.86,70,108.06,69.42,105.55,70.91Zm27.36-.8a8.24,8.24,0,0,1,.73,5.94l-1.6,5a5.4,5.4,0,0,1-4.15,4.26c-4.49.69-7.71.67-9.07-.06-2.16-1.15-4.17-6.64-5-10a3.71,3.71,0,0,1,.05-1.9l1-3.39a3.42,3.42,0,0,1,2.22-2.43,28.86,28.86,0,0,1,6-1c.45,0,.9,0,1.34,0a33.16,33.16,0,0,1,4.75.36,4.54,4.54,0,0,1,3.18,2.24h-5.39v1h6Z"/><path class="cls-2" d="M94.25,69.92a9.56,9.56,0,0,0-3.83-.47,10.35,10.35,0,0,0-3.71,1,7.29,7.29,0,0,0-2.93,2.4,31,31,0,0,1,3.44-.92l1.14-.19a2,2,0,0,0-.07.5,2.3,2.3,0,0,0,4.6-.06,2.13,2.13,0,0,0-.15-.75c.39,0,.78,0,1.17,0a22.33,22.33,0,0,1,3.5.6A6.77,6.77,0,0,0,94.25,69.92Z"/><path class="cls-2" d="M122.32,70.47a6.19,6.19,0,0,0-2.86-.8,5.28,5.28,0,0,0-2.93.8,4,4,0,0,0-1.79,2.31c.32-.15.63-.27.93-.39a2.29,2.29,0,0,0,4.57-.24,1.73,1.73,0,0,0,0-.42c.51,0,1,.12,1.57.21l1.27.25a10.51,10.51,0,0,0,1.37.24,7.47,7.47,0,0,0-.91-1.11A10,10,0,0,0,122.32,70.47Z"/><path class="cls-2" d="M88.14,63c3.92-.16,9.21,1.47,13.12,1.13s4.07-1.8,1.72-2.57c-5.27-1.74-12.14-4.39-15.25-3.79a12.68,12.68,0,0,0-7.6,5.68C78.93,65.66,84.23,63.13,88.14,63Z"/><path class="cls-4" d="M100.39,92c4.28,3.14,13.91,4.55,16.77-1C112.53,92.41,104.41,92.36,100.39,92Z"/><path class="cls-4" d="M112.39,99.49c-1.17.5-1.62,2.16-2.77,2.06s-2.17-2.29-3.48-2.06-4.08,3.14-8.35,4.64c3.42-.2,7.45.83,11.83.36s6.36-.86,6.36-.86-.16-.3-.94-1.57S113.56,99,112.39,99.49Z"/><path class="cls-4" d="M111.23,109.82c-4-.7-6.61.54-7.13,1.06s2.94,2.83,5.41,2.25S113.06,110.14,111.23,109.82Z"/></g></svg>