<svg id="illustrations" xmlns="http://www.w3.org/2000/svg" xmlns:xlink="http://www.w3.org/1999/xlink" viewBox="0 0 180 180"><defs><style>.cls-1{fill:none;}.cls-2{clip-path:url(#clip-path);}.cls-3{fill:#6ed3f3;}.cls-4{fill:#fff;}.cls-5{fill:#848aa0;}.cls-6{fill:#091440;}</style><clipPath id="clip-path"><circle class="cls-1" cx="90" cy="90" r="90"/></clipPath></defs><g class="cls-2"><rect class="cls-3" x="-3.21" y="-0.1" width="184.98" height="178.98"/><path class="cls-4" d="M57.81,98.08c.34,7.7.23,21.85-1.58,25.81s.11,10.42-30.45,21.51c0,0,19.13,37.36,55.13,36.23s62.94-30.34,62.94-30.34-27.63-8.49-29.67-10.42a50.92,50.92,0,0,1-5.25-6.94L102.19,108Z"/><path class="cls-5" d="M60,103.89c2.55,10.94,9.79,26.11,22.25,31.55,11.58,5.05,21.87-2.33,26.67-7.36Z"/><path class="cls-4" d="M57.81,98.08C61,109.4,69.13,116.19,73,120.27s10.64,11.09,27,11.09,23-28.62,24.45-33.28c3.17-10-2.49-20.15-.91-24s3.17-8.38,2.72-10.19a23.09,23.09,0,0,0-1.81-4.3,47.61,47.61,0,0,0-2.49-9.28c-1.59-3.63-6.79-12.68-12-14.49s-32.61-6.57-38.72,2.71S56.45,60.27,55.78,72a4.94,4.94,0,0,0-6.12-1.58C45.59,72,48.08,83.59,48.08,83.59s1.81,6.79,2.49,9.06.68,5.2,3.17,6.11A3.94,3.94,0,0,0,57.81,98.08Z"/><path class="cls-6" d="M56.3,83c-2.71-7.1-6.19-13.82-7-20.38s-3.39-14.34,3-25.74c0,0-2.34-6.86,8.61-14S80,11.51,94,11.36,123,19.59,130.57,33.78c0,0,2,4.3-3.17,6.56A7,7,0,0,1,129.06,45c-.12,1.24-1.76,2-1.76,2s.14-3.6-.28-3.61c0,0-.51,3-.75,4.12s-1.59,1.16-1.59,1.16h-.53s.46,7.56,0,9.82c0,0-.74-9-8.31-17.92S106,34.76,103.1,35.51,76.15,40,73,39.59c0,0,1.13,7.7-3.47,12.38S62,59.59,59.93,68.5s-3.25,13.35-2.87,15.84Z"/><path class="cls-6" d="M99.85,67.44c-3.32-2.79-9.28-6.72-16.3-6.42s-8.68.67-13.74,3.2c0,0,3.78-6.59,13.81-7.35,10.55-.79,16.23,4.61,16.23,4.61S101.28,65.55,99.85,67.44Z"/><path class="cls-6" d="M110.57,66.53c2.79-1.2,12.58-2.71,15.46,0,0,0,1-.1,1-1.52s-1.28-1.87-2.49-2.55a15.29,15.29,0,0,0-9.89-1.29A5.21,5.21,0,0,0,110.57,66.53Z"/><path class="cls-6" d="M106.11,99.21c-1.35.12-2.86-3.55-5.88-3.17s-11.85.76-17.81,5.06-3.17,7.77-3.17,7.77,3.09-3.77,11.62-5.36a65.52,65.52,0,0,1,15.24-1.07s4.31-1.29,7.55,0,1.89,5.07,1.89,5.07,5.21.53,4.53-4.52-9.51-7.48-9.51-7.48S108.6,99,106.11,99.21Z"/><path class="cls-6" d="M85.7,129.14c-.11,2.36,5.58,9,16.18,7.45s10.69-6,10.7-10.24c0-3.17-5-2.6-5-2.6s3.34-4.47,3-8.54c0,0-2.33,1.33-6.87,1.15A50.27,50.27,0,0,1,94,114.78a13.19,13.19,0,0,0,5,8.55S85.93,124.28,85.7,129.14Z"/><path class="cls-6" d="M86.38,70.38a2.94,2.94,0,1,1-5.88,0c0-1.62,1.32-2.32,2.94-2.32S86.38,68.76,86.38,70.38Z"/><path class="cls-6" d="M117.12,72.45a2.94,2.94,0,1,1-5.88,0c0-1.63,1.31-2.27,2.94-2.27S117.12,70.82,117.12,72.45Z"/><path class="cls-6" d="M76.15,71.29c2.79-1.81,4.16-3.25,7.29-3.47a13.17,13.17,0,0,1,9.47,3.92s-5-4.45-9.47-3S76.15,71.29,76.15,71.29Z"/><path class="cls-6" d="M110,71.74c2.72-1.21,4.15-2.72,7.55-1.66A11.76,11.76,0,0,1,123,74.23s-3-2.87-5.9-3.17A27.36,27.36,0,0,0,110,71.74Z"/><path class="cls-5" d="M98.07,92.53c1.41.9,4.15,3,9.79,1.65s5.84-2.45,5.84-2.45-1.43,2.87-6.16,3.87S98.07,92.53,98.07,92.53Z"/><path class="cls-5" d="M86.79,105.6c-2.18-.49,10.27-2.53,14.27-2.18s3.85,2.2,5.13,2.18,1.76-2,4.23-2.23,4.57.37,5,1.53c0,0-2.27,3-9.27,3.24S87.22,105.69,86.79,105.6Z"/><path class="cls-5" d="M91.7,108.52c3.77,2.57,8.8,4.9,12.32,4.71s6.25-.33,8.28-3.73c0,0-1.25,4.31-8,4.72S91.7,108.52,91.7,108.52Z"/><path class="cls-6" d="M116.49,141.66c0,.05.66,15.5-17.12,18.87-17.4,3.29-49.88-5.15-61.54-20C17,145.36,3.09,154.43,2.4,165.6,1.27,184,36.63,201.23,81.39,204s82-10,83.09-28.42C165.33,161.67,145.47,148.49,116.49,141.66Z"/></g></svg>