<svg id="illustrations" xmlns="http://www.w3.org/2000/svg" xmlns:xlink="http://www.w3.org/1999/xlink" viewBox="0 0 180 180"><defs><style>.cls-1{fill:none;}.cls-2{clip-path:url(#clip-path);}.cls-3{fill:#3ad7a4;}.cls-4{fill:#091440;}.cls-5{fill:#fff;}.cls-6{fill:#848aa0;}</style><clipPath id="clip-path"><circle class="cls-1" cx="90" cy="90" r="90"/></clipPath></defs><g class="cls-2"><rect class="cls-3" x="-3.21" y="-0.1" width="184.98" height="178.98"/><ellipse class="cls-4" cx="81.39" cy="164.62" rx="32.22" ry="84.67" transform="translate(-85.58 241.07) rotate(-88.29)"/><path class="cls-4" d="M34,103.94c-.09-5.43-.87-10.83-.67-16.25a88,88,0,0,1,1.9-13.49c1.61-8.18,3.28-16.36,5.29-24.45,1.94-7.84,4.24-15.67,8.12-22.75s9.48-13.44,16.72-17c9.47-4.66,20.69-4.15,31-2,12.3,2.59,20.4,14.19,24.8,25.17,2.74,6.81,1.27,14,.08,20.85-2.3-9.24-5.27-19.41-13.4-24.37a24,24,0,0,0-9.75-3.1c-3.91-.46-6.12.12-9.68,1.64a69.36,69.36,0,0,0-7.24,3.43c-3,1.72-3.59,3.35-5,6.47q-4,9-8,18a68.55,68.55,0,0,1-6.53,12.4c-1.25,1.75-2.78,3-3.31,5a17.2,17.2,0,0,0,.22,7.65c1.1,4.57,3.3,8.9,4.92,13.29,1.94,5.25,3.44,10.84,2.76,16.39a31.52,31.52,0,0,1-3.48,10.41c-2.07,4.06-4.82,8.06-8.93,10A21,21,0,0,1,45.63,133a62,62,0,0,1-11.71-.66c-1-.15-4.62-.25-5.16-1.23-.41-.75,1.21-3.33,1.49-4.1A64.6,64.6,0,0,0,34,103.94Z"/><path class="cls-5" d="M62.83,92.42c.15,6.57,1.48,22.23-1,27.86s-5.18,12-12.29,13.77l36.74,50.08,29.18-55.26s-4.15-1-5.63-3.41-3.11-5-3.11-5L76.16,97.91Z"/><path class="cls-6" d="M65.05,101c2.94,6.87,4.92,14,17,21.33,5.63,3.41,17.24,2.86,17.24,2.86L72.7,102.85Z"/><path class="cls-4" d="M144.88,137.88l-.21-.13-.47-.08c-5.13-5.22-11.79-7.74-14.89-15-1.12-2.63-1.67-5.55-3.41-7.82a51.67,51.67,0,0,0,13.58,12.75,66.64,66.64,0,0,1-11.16-13.12c-2.13-3.38-3.9-7.41-2.88-11.27.46-1.75,1.46-3.31,2.08-5,1.26-3.42.91-7.18.56-10.79L126.76,74c3.19,8.16,4.37,7.23,8.38,24.88-2.24-17-4.17-19.3-6.44-28.91-.68-2.91-.93-9.82-5.14-6.64-2.93,2.21-5,6-6.37,9.33-1.9,4.45-3,9.21-4.36,13.85a101.34,101.34,0,0,1-9.75,22.28c-2.28,3.87-4.87,7.71-5.76,12.11-2,9.83,7.38,13.57,15.16,15.67A91.33,91.33,0,0,0,125,139.36c6.52.82,11.73-.16,18-1.14C143.65,138.12,144.27,138,144.88,137.88Z"/><path class="cls-5" d="M66,103.35a30.25,30.25,0,0,0,7.5,9.74A77.08,77.08,0,0,0,81,119.26c2.74,1.78,5.65,3.3,8.55,4.81,4.53,2.37,10,4.75,14.51,2.38,2.35-1.23,3.91-3.52,5.37-5.73a148.48,148.48,0,0,0,10.91-18.59,48.34,48.34,0,0,0,3.83-10,53.9,53.9,0,0,0,1.66-12c0-3.35-2.34-8.06-.71-11.19s2.44-5.72,1.91-9.21c-.29-1.92-1.62-3.39-1.75-5.37a30,30,0,0,0-2.48-11.43,42.14,42.14,0,0,0-6.5-10.53,22.52,22.52,0,0,0-15.92-7.23,32.59,32.59,0,0,0-17.16,4.48c-5.42,3-10.35,7.63-12,13.61-1,3.76-.76,7.87-2.43,11.39a30.47,30.47,0,0,1-3,4.46c-1.43,2-2.54,4.15-3.85,6.21-.81,1.29-1.27,3.45-2.61,4.23a3.38,3.38,0,0,1-3.75-.65,14.05,14.05,0,0,1-2.42-3.24c-1.74-2.67-6-7.58-9-3.68s-.55,7.13,1.27,10.91c1.15,2.38,1.44,5.06,2.17,7.59A22.47,22.47,0,0,0,50,85.92a9.51,9.51,0,0,0,4.37,4.23,10.15,10.15,0,0,0,5.55.19,1.36,1.36,0,0,1,.8,0,1.22,1.22,0,0,1,.54.66,49.1,49.1,0,0,1,2.22,6.23A45.65,45.65,0,0,0,66,103.35Z"/><path class="cls-4" d="M72.68,61.35c2.34-2.22,6.56-5.22,9.22-5.44s15.23,2,16.34,3a4.45,4.45,0,0,1,1,4.44s1,.35-11-2.33C77.79,58.68,72.68,61.35,72.68,61.35Z"/><path class="cls-4" d="M114.25,60.55a6.19,6.19,0,0,1,2.08-1.28,23.32,23.32,0,0,1,9-1.81,3.88,3.88,0,0,1,1,.08c.16.09.09.17.18.33a6.28,6.28,0,0,1,.67,3.48c-.29.1-11.66,1.67-12.65,2C111.94,64.25,113.19,61.63,114.25,60.55Z"/><circle class="cls-4" cx="85.9" cy="68.68" r="3.11"/><circle class="cls-4" cx="116.53" cy="68.35" r="2.67"/><path class="cls-4" d="M78.57,69.79c3.25-1.24,8.11-5.55,13.78-.88,0,0-3.89-4.34-7.67-3.12a26.31,26.31,0,0,0-6.44,3.12S78.21,69.93,78.57,69.79Z"/><path class="cls-4" d="M113,68.68c.44-2,2.2-4.1,8.22-2.77,4.55,1,3.44,3.66,3.44,3.66s-3.66-3.22-7.44-2.78C113.71,67.21,113,68.68,113,68.68Z"/><path class="cls-6" d="M90.68,106.91s10.78.22,14.56.22,5.33.33,7.33-1c0,0-1.55-2.56-3.11-2.67s-2.67.78-3.78.78-1.66-1-2.89-1S95.57,106.46,90.68,106.91Z"/><path class="cls-6" d="M109.57,110.91c-1.22,1.11-3.89,2.88-9.55,1.22,0,0,2.55,3.11,5,2.55S109.57,110.91,109.57,110.91Z"/><path class="cls-6" d="M98.53,94.94c2.23.89,8.74,2.82,12.6,1,0,0-.89,2.81-7.26,2.37S98.53,94.94,98.53,94.94Z"/><path class="cls-4" d="M52.52,71.87a16.07,16.07,0,0,0,1.88-7.71l3.81,3.29a2.75,2.75,0,0,0,.84.56c.47.18,1,0,1.42.18C58.8,70.4,55.17,71.6,52.52,71.87Z"/></g></svg>