<svg xmlns="http://www.w3.org/2000/svg" viewBox="0 0 180 180"><defs><style>.cls-1{fill:#6ed3f3;}.cls-2{fill:none;stroke:#091440;stroke-linecap:round;stroke-linejoin:round;stroke-width:0;}.cls-3{fill:#091440;}.cls-4{fill:#fff;}.cls-5{fill:#848aa0;}</style></defs><title>changhugo</title><g id="illustrations_c"><circle id="_Path_" data-name="&lt;Path&gt;" class="cls-1" cx="90" cy="90" r="90"/><path class="cls-2" d="M111.28,126.6v0"/><path class="cls-2" d="M111.32,126.21c0,.1,0,.21,0,.34"/><path class="cls-3" d="M111.34,125.91v-.08l.73-6.77-.73,6.77Z"/><path class="cls-2" d="M111.34,125.94a2.06,2.06,0,0,1,0,.21"/><path class="cls-2" d="M111.32,126.15v.06"/><path class="cls-3" d="M111.25,126.83l0-.23c0,.13,0,.27,0,.42v.07a31.3,31.3,0,0,1-.78,3.93l-.49,0c-7.61.39-34.77-1.64-40.46-27.68,0,0,0-.07,0-.1a17.08,17.08,0,0,0,6,8.06c9.18,6.44,21.58,10.59,29.19,10.59a10.8,10.8,0,0,0,7.43-2.88c3.09-2.7,5.42-7,8.07-11.74,4.91-8.68,4.36-12.32,5.42-24.14.5-5.66.72-10.11.81-13.74.1-4.61,0-7.91-.07-10.69-.1-5-2.69-18-2.69-18a49.35,49.35,0,0,1-11.1-1.27c-7-1.47-18.44-8.69-22.56-10s-10.84.24-13.77,7.56c-3.12,7.8,2.27,16.42-2.13,20.42-3,2.76-2.18,9.38-3.74,12.89-.18.4-.37.81-.58,1.24C67,66.92,64.63,64.11,62,64.21a4.34,4.34,0,0,0-1,.17c-4.54,1.42-2.68,10.28-2.54,14.17s2.26,4.27,3.11,6.55c.68,1.81,2.64,4.25,5.11,4,0,6.21-.26,25.19-4.11,34.72l-44.63,20a90,90,0,0,0,141.64,3.38Z"/><path class="cls-3" d="M69.74,71.68c.21-.43.4-.84.58-1.24,1.56-3.51.7-10.13,3.74-12.89,4.4-4-1-12.62,2.13-20.42,2.93-7.32,9.66-8.83,13.77-7.56s15.54,8.49,22.56,10a49.35,49.35,0,0,0,11.1,1.27s2.59,13,2.69,18c0,2.78.17,6.08.07,10.69,3.58-14.83,6.2-35.38-3.71-43.86-16.33-13.95-36.77-8.07-46.5-3.16C65.2,27.94,62,35.64,61,43.48c-.68,5-.18,12.63,1,20.73C64.63,64.11,67,66.92,69.74,71.68Z"/><path class="cls-4" d="M92.85,148.39c15.13-2.66,17.92-17.54,18.4-21.56.06-.44.08-.74.09-.89a29,29,0,0,1-.9,5.08l-.49,0c-7.61.39-34.77-1.64-40.46-27.68,0,0,0-.07,0-.1a17.08,17.08,0,0,0,6,8.06c9.18,6.44,21.58,10.59,29.19,10.59a10.8,10.8,0,0,0,7.43-2.88l-.73,6.77v0l.73-6.77c3.09-2.7,5.42-7,8.07-11.74,4.91-8.68,4.36-12.32,5.42-24.14.5-5.66.72-10.11.81-13.74.1-4.61,0-7.91-.07-10.69-.1-5-2.69-18-2.69-18a49.35,49.35,0,0,1-11.1-1.27c-7-1.47-18.44-8.69-22.56-10s-10.84.24-13.77,7.56c-3.12,7.8,2.27,16.42-2.13,20.42-3,2.76-2.18,9.38-3.74,12.89-.18.4-.37.81-.58,1.24C67,66.92,64.63,64.11,62,64.21a4.34,4.34,0,0,0-1,.17c-4.54,1.42-2.68,10.28-2.54,14.17s2.26,4.27,3.11,6.55c.68,1.81,2.64,4.25,5.11,4,0,6.21-.26,25.19-4.11,34.72-.16.39-.33.78-.5,1.15C59.78,129.59,75.32,151.48,92.85,148.39Z"/><path class="cls-5" d="M112.08,119.06a10.8,10.8,0,0,1-7.43,2.88c-7.61,0-20-4.15-29.19-10.59a17.08,17.08,0,0,1-6-8.06s0,.08,0,.1c5.69,26,32.85,28.07,40.46,27.68l.49,0a29,29,0,0,0,.9-5.08v-.11Z"/><path class="cls-3" d="M94.38,71.71a2.2,2.2,0,0,0-.24-1.08,9.75,9.75,0,0,1,1.94.51,12.37,12.37,0,0,1,3,1.68,5.61,5.61,0,0,0-2.2-3,6.81,6.81,0,0,0-3.72-1.24,7.1,7.1,0,0,0-3.77,1,7.26,7.26,0,0,0-2.63,2.65A33.91,33.91,0,0,1,90,71l.06,0a2,2,0,0,0-.11.59,2.23,2.23,0,1,0,4.46.19Z"/><path class="cls-3" d="M119.27,68.46a4.92,4.92,0,0,0-4.71,3.77c.55-.31,1.06-.61,1.55-.87a2.23,2.23,0,0,0,4.4-.17,2.52,2.52,0,0,0,0-.55,5.3,5.3,0,0,1,1,.35,14.53,14.53,0,0,1,2.32,1.46,4.58,4.58,0,0,0-4.51-4Z"/><path class="cls-3" d="M89.09,63.32c5,.5,16.62,1.06,12.09-1.2-3.85-1.92-10.84-3.82-13.83-2.54s-5.26,4.8-5.26,4.8S84.14,62.83,89.09,63.32Z"/><path class="cls-3" d="M122.76,59.72a15.47,15.47,0,0,0-9.19,2.53c-3.48,2.1,4.75,1.78,8.35,1.57S126.5,65,126.5,65,126.5,60.05,122.76,59.72Z"/><path class="cls-5" d="M116.09,91.29a39.22,39.22,0,0,1-16.67-.17C101.92,93.81,111.34,97.26,116.09,91.29Z"/><path class="cls-5" d="M110.7,109.7c-3.39.51-4.8,0-6.66.29-1.39.19,1.34,3.19,3.48,3.14S112.67,109.4,110.7,109.7Z"/><path class="cls-3" d="M95.76,100.76c-2-.5-3.5-.89-3.55-.9h0c-1.26.21,6.37,4.46,13.35,5.34C102.07,104.63,97.8,103,95.76,100.76Z"/><path class="cls-3" d="M109.3,105.3l.49,0c5.62-.77,7.77-4.27,7.77-5.39h0c-1,.43-1.83.86-2.61,1.24C114,102.51,112.12,104.79,109.3,105.3Z"/><path class="cls-4" d="M114.94,101.11c-2.41,1.19-4.18,2.06-6.72,2.06-2.22,0-8.46-1.43-12.46-2.41,2,2.21,6.31,3.87,9.79,4.44a12.63,12.63,0,0,0,3.38.17l.37-.07C112.12,104.79,114,102.51,114.94,101.11Z"/><path class="cls-5" d="M110.45,98.4c-2,.7-3.18.08-5.22-.17a48.38,48.38,0,0,0-13,1.63h0c.05,0,1.51.4,3.55.9,4,1,10.24,2.41,12.46,2.41,2.54,0,4.31-.87,6.72-2.06.78-.38,1.64-.81,2.61-1.24h0C114.88,99.35,112.49,97.69,110.45,98.4Z"/></g></svg>