<svg id="illustrations" xmlns="http://www.w3.org/2000/svg" xmlns:xlink="http://www.w3.org/1999/xlink" viewBox="0 0 180 180"><defs><style>.cls-1{fill:none;}.cls-2{clip-path:url(#clip-path);}.cls-3{fill:#6ed3f3;}.cls-4{fill:#fff;}.cls-5{fill:#091440;}.cls-6{fill:#848aa0;}.cls-7{fill:#596d81;}.cls-8{fill:#3d5873;}</style><clipPath id="clip-path"><circle class="cls-1" cx="90.19" cy="90.09" r="90.09"/></clipPath></defs><title>Klebe</title><g class="cls-2"><rect class="cls-3" x="-8.22" y="-8.18" width="196.54" height="196.54"/><path class="cls-4" d="M52.15,131.9c3.21-3.26,12.85-6.48,11.59-21.2s-6.56-17.36-6.56-17.36L59.76,90l19.16,5,25,11.69,6.6,8.43V129l11.36,15.78-8.65,21.44L78.4,167.35l-28.61-7V141.17Z"/><path class="cls-5" d="M51.46,130.58c-17.55,4.6-67.14,19.09-67.14,19.09l.12,38.69H190.65v-26.8S160.59,134.39,110.56,129c0,0,6.54,23-21.39,23S51.46,130.58,51.46,130.58Z"/><path class="cls-6" d="M63,98.9c2.41,11.59,27.24,32.23,37.66,33.1,8,.67,9.86-5.2,9.86-5.2v-4Z"/><path class="cls-4" d="M46.87,80.44c-.27,5.92,8.65,23.13,14.45,16.15,3.13,7.73,7.45,16.6,18.73,20.44s18.1,6.9,22,7.92a18.07,18.07,0,0,0,11.24-1c2.3-1.22,3.24-5.49,3.24-5.49,4.11-8.42,10.42-21.31,11.36-31s-1.41-12.76-1.2-17.34,1-4.54,1.28-6.41-2.41-7.15-2.41-7.15c-1.53-10.06-2-16.3-8.07-25s-17-8.73-20.81-7.59-27,13.41-27,13.41L46.05,65.55Z"/><path class="cls-7" d="M63.74,110.7C57.53,109,50,104.13,47.65,98.1c-1.47-3.86-1.79-8.12-3.6-11.83s-5-6.65-7.34-10.14c-6.78-10.29-4.56-24.55,2.22-34.84S56.23,23.83,66.62,17.2a51.18,51.18,0,0,1,9.92-5.31c5.82-2.11,12.18-2.13,18.37-1.83a29.39,29.39,0,0,1,9.83,1.68c3.1,1.26,5.88,3.71,6.74,6.94,3.78-4.73,11.71-4.22,16.22-.19s6.16,10.43,6.38,16.48-.78,12.1-.48,18.14c.17,3.42.74,6.88,0,10.22-.95,4.49-3.23,8.82-4.56,13.22-.9,3-1.94-2.34-2.21-3.54-.58-2.68.06-5.24.81-8.07.93-3.52-2.43-7.81-2.47-11.06a27.39,27.39,0,0,0-.93-5.81c-.71-3-.6-3.9-1.44-6-2.12-5.32-5.13-10.8-10-13.78a22.64,22.64,0,0,0-9.15-2.66,21.33,21.33,0,0,0-7.56.13,9,9,0,0,0-6,4.32c-1.37,2.71-.81,5.94-1,9a17.2,17.2,0,0,1-17.7,16c-1.29,0-2.77-.16-3.67.76a3.73,3.73,0,0,0-.82,2.22,10.41,10.41,0,0,0,1.86,7.77c1.74,2.12,5,3.07,7.34,1.62a13.18,13.18,0,0,1-13.45,1.64,7.32,7.32,0,0,0,8.06,3.63c-1.73,3.15-5,5.82-8.54,5.55-2.59-.2-4.79-1.85-7.18-2.86s-5.63-1.14-7.11,1-.37,4.77.72,7a22.25,22.25,0,0,0,4.25,6.48A8,8,0,0,0,60,92.23c.95,3.14,2.42,5.62,2.78,8.88C62.84,102,63.89,110.74,63.74,110.7Z"/><path class="cls-6" d="M98.73,95.4a40.51,40.51,0,0,1,4.22-1,20.94,20.94,0,0,1,7.85.16,11.25,11.25,0,0,1,4.52,1.87,5.27,5.27,0,0,1,2.26,4c-5.77-3-12.82-3.53-19.3-2.21a38,38,0,0,1-5.4,1.18,3.12,3.12,0,0,1-2.61-1,4.67,4.67,0,0,1-.71-2,4.17,4.17,0,0,0,3,.83C94.56,97,96.78,95.94,98.73,95.4Z"/><path class="cls-6" d="M114.13,102.43a12.72,12.72,0,0,1-3,.27c-4.17,0-8.57,0-12.14-2,0,.07,16.08.35,17.55.51A5.47,5.47,0,0,1,114.13,102.43Z"/><ellipse class="cls-8" cx="89.77" cy="64.78" rx="2.16" ry="2"/><ellipse class="cls-8" cx="117.52" cy="66.33" rx="2.16" ry="2"/><path class="cls-7" d="M82.85,59.9a49.81,49.81,0,0,1,7.55-1.36c1.54-.18,3.07-.44,4.62-.52a23.51,23.51,0,0,1,4.33.6,1.53,1.53,0,0,0,1.8-2.1c-.3-1.21-1.59-1.42-2.58-1.38C95.55,55.27,88.15,55.43,82.85,59.9Z"/><path class="cls-7" d="M115.28,57.18a2.31,2.31,0,0,0,.66,2.14,1.7,1.7,0,0,0,.88.25c3,.31,6.13.57,8.89,1.87,1,.37,2,2.21,2.22,1s-1.62-3.52-3.63-4.26a76.24,76.24,0,0,0-7.5-2.41A1.49,1.49,0,0,0,115.28,57.18Z"/><path class="cls-5" d="M83.87,65.83c2.91-1.58,4.82-2.66,8.6-2.13s4.1,1.85,4.1,1.85.85-2.59-5.87-2.9A8.22,8.22,0,0,0,83.87,65.83Z"/><path class="cls-5" d="M113,65.77a9.92,9.92,0,0,1,4.67-1.44,8.43,8.43,0,0,1,5.63,2.61,17.78,17.78,0,0,0-5.67-1.85A15.37,15.37,0,0,0,113,65.77Z"/><path class="cls-6" d="M103.71,85.93c3.47-.14,10.91-.38,13.1-2,0,0,1.07,3.19-1.22,3.76S107.38,88.76,103.71,85.93Z"/></g></svg>