<svg id="illustrations" xmlns="http://www.w3.org/2000/svg" xmlns:xlink="http://www.w3.org/1999/xlink" viewBox="0 0 180 180"><defs><style>.cls-1{fill:none;}.cls-2{clip-path:url(#clip-path);}.cls-3{fill:#091440;}.cls-4{clip-path:url(#clip-path-2);}.cls-5{fill:#2ed9a3;}.cls-6{fill:#3d5873;}.cls-7{fill:#fff;}.cls-8{fill:#848aa0;}.cls-9{fill:#0a1440;}</style><clipPath id="clip-path"><circle class="cls-1" cx="-109.15" cy="90" r="90"/></clipPath><clipPath id="clip-path-2"><circle class="cls-1" cx="90" cy="90" r="90"/></clipPath></defs><title>Leslie</title><g class="cls-2"><path class="cls-3" d="M-73.34,135.56c-1.14-.27-2.58-.57-4.24-.87s-3.62-.7-5.47-1l0,.14c-8.37-1.24-16.8-2.12-25.23-2.77-9-.69-18-1.16-27-.95a73,73,0,0,0-15.25,1.69c-21.68,5.13-42.63,13-63.8,19.87l-2.46.79.12,40.89H1.23V165S-25.93,145.72-73.34,135.56Z"/></g><g class="cls-4"><rect class="cls-5" width="180.3" height="180.3"/><path class="cls-3" d="M186.87,168.74c-.93-22.32-54.92-40.4-97.7-40.93-43.28-.54-98,16.6-99.42,38.81-1.4,22.6,52.45,50.26,101.61,49.65C136.87,215.71,187.79,190.8,186.87,168.74Z"/><path class="cls-6" d="M136.74,143c-6.12-6.5,2-24.83.07-39.28l-4-29.86c-1.18-8.73-1.35-14.53-4.66-22.74-2.34-.85-3.16,1.82-4.3,4-7.69,15-6.89,32.94-12.7,48.74-1.38,3.73-2.69,7.5-2.82,11.46-.62,18.25,10.78,14.4,11,20.44.39,9.16-3.6,12.86,3.85,19.21,5.32,4.54,13.09,3.52,19.15.65,5.26-2.48,9.33-7.71,9.7-13.52C151.8,146,140.83,147.38,136.74,143Z"/><path class="cls-7" d="M109.43,117.16c.69,6.85,8.39,16.34,8.39,16.34s2.85,16.11-11.39,23.62-37.08.43-42.53-5.8-6.16-20.52-6.16-20.52l8.73-24.2,15.39-3.35,21.28,5.12Z"/><path class="cls-8" d="M108.67,121.1c-2.62,2.59-8.59,8.15-19.09,4.57s-15.86-15.59-15.86-15.59l26.39,8Z"/><path class="cls-7" d="M101.12,18.55c11.44,1.08,17.07,5.1,21.85,14.86s3.83,13,4.51,14.41a15.35,15.35,0,0,1,1.41,7.5c-.32,3-1.44,3.69-.89,7.26s3.38,8.54,2.75,16.37c-.45,5.55-2.38,10.86-4.23,16.06a56.23,56.23,0,0,1-6.41,12.66c-2.28,3.36-3.54,7.66-6.82,10.26s-6.62,4.95-10.78,4.7c-6.92-.4-22-6.61-28.12-11.36-9.85-7.62-14.17-36.81-14.17-36.81l1-32.55s21.56-21.24,27-23.75S101.12,18.55,101.12,18.55Z"/><path class="cls-6" d="M102.91,54.56c.71-.65.42-2.52-.34-3.58-2.94-4.14-11-5.3-17.95-2.54-4.87,1.92-8.23,5.69-7.8,6.39.61,1,7.88-5.5,16.34-3.74C98.77,52.26,101.57,55.78,102.91,54.56Z"/><path class="cls-6" d="M120.26,49.13c-2.43,1.45-4.45,3.92-4,4.57s2.72-1.26,7.12-1.52c3.11-.17,4.67.62,5.21-.18s-.62-3.32-2.54-4.13C123.91,46.94,121.59,48.33,120.26,49.13Z"/><path class="cls-8" d="M91.85,92.14c2.22.87,6.48,2.59,11.25.87a10.62,10.62,0,0,1,8.89.64s1.81-2.59,7-.24c0,0-2.14,2.29-7.69,2.17s-14.75-.88-17.15-1.44S91.85,92.14,91.85,92.14Z"/><path class="cls-8" d="M117.22,82c-4.9,3.13-12.7,3.4-15.76.55,0,0,5.23,4.68,9.24,4.54S117.22,82,117.22,82Z"/><circle class="cls-9" cx="120.47" cy="60.67" r="2.77"/><circle class="cls-9" cx="89.98" cy="60.85" r="2.77"/><path class="cls-9" d="M114.57,62s3.47-4.47,8.09-3.54c5,1,5.19,2.4,5.19,2.4s2.32-1.5-.88-3.14c-2.62-1.33-6.49-1.67-9.22.3A14.08,14.08,0,0,0,114.57,62Z"/><path class="cls-9" d="M99.36,62.37c-2-2.48-5-6.21-9.83-5.44s-7.82,4.67-8.88,4.5c0,0,1,.51,3.56-.84,2.84-1.48,5.69-2.72,9.4-1.55A14.42,14.42,0,0,1,99.36,62.37Z"/><path class="cls-6" d="M124.5,36.77c-4.94-12.5-15.72-21.1-29.73-16.44-10.21,3.4-14.4,12.41-17.14,22.07-3,10.51-8.85,21.72-9.85,32.53-.68,7.47,1.43,22.49,2.77,29.31s8.64,20.49,7,32.11-13.38,23.46-13.38,23.46c2.39-5.1,9.19-15,8.2-20.46-1.42,3.5-3.58,5.94-5.34,9.26l-4.65,8.73a22.61,22.61,0,0,0-2.24,5.24,15,15,0,0,0,0,6.42,22.08,22.08,0,0,0,16.3,16.78c-3.62,3.38-8.91,4.58-13.83,4s-9.56-2.67-13.8-5.23c-4.57-2.76-7.11-6.51-10.19-10.66-9.8-13.18-11.68-32.07-7.88-47.71,2.48-10.22,1.17-20.74,2.11-31.11.84-9.32,1.78-18.87,4.1-28C40.8,52,44.54,35.53,54.74,23.23,64,12.12,78.7,7.16,92.85,8c12,.7,29.15,7.64,31.39,21.27C125.32,35.86,124.5,36.77,124.5,36.77Z"/><path class="cls-8" d="M116.56,96.78a6.87,6.87,0,0,1-6.45,3.19,11.72,11.72,0,0,1-5.77-2.72s4.2,1.35,6.15,1.12A46.22,46.22,0,0,0,116.56,96.78Z"/></g></svg>