<svg xmlns="http://www.w3.org/2000/svg" viewBox="0 0 180 180"><defs><style>.cls-1{fill:#2f74fb;}.cls-2{fill:#091440;}.cls-3{fill:#fff;}.cls-4{fill:#848aa0;}</style></defs><title>michael2xl</title><g id="illustrations_c"><circle id="_Path_" data-name="&lt;Path&gt;" class="cls-1" cx="90" cy="90" r="90"/><path class="cls-2" d="M87.42,123.82,62.6,122.29,17,142.67a90,90,0,0,0,137.91,9.64Z"/><path class="cls-2" d="M121.92,58.58c3.51-4.53.94-10.82.94-10.82s11.52-3.81,6.29-15.51S114,20.38,114,20.38s-5.64-.89-8.5-4.43-2.59-5.41-2.59-5.41-3,2.93-2.14,5.94a31.06,31.06,0,0,0-22-1.06,43.9,43.9,0,0,1-11.69,2s1.06,4.69.35,5.93-3.72-3-3.72-3-5.14,4.43-6.11,9.75a9.8,9.8,0,0,0,2.65,8.63s-4.69,13-2.21,22.47,10.34,18,10.34,18Z"/><path class="cls-3" d="M66.06,89.32c.18,7.44-3.4,29.43-7.29,34.57s5.73,23.2,32.38,23.2c12.3,0,15-18.25,15.94-27.74S68.54,84.27,68.54,84.27Z"/><path class="cls-4" d="M70.55,85.6c-.37,5.74-3.52,2.92-3,7.47A53.47,53.47,0,0,0,85,126.38a32,32,0,0,0,19.16,8.45,70.16,70.16,0,0,0,3-15.48C107.85,111.17,78.58,91,70.55,85.6Z"/><path class="cls-3" d="M73.43,51.66s4.27,4.12,15.3,3.12S103.57,46.12,107.67,39c7.71-1.55,9.93,4.19,12.3,8.83s1.11,12.59,2.62,14.69c1.66,2.28.57,5.92.57,5.92s.31,2.35,1.07,8.54.17,6.13-1.26,14a114,114,0,0,1-7.59,23.39c-2.53,5.38-2.24,7.28-8.34,8.65s-12.48,2.09-23.6-5.19S69.59,105,68.5,96s-.09-23.7,1.91-30.79A130.38,130.38,0,0,0,73.43,51.66Z"/><path class="cls-3" d="M66.36,70.74c-2.35-5.1-9.08-1.14-9.13,2.05,0,2.41-2,8.25-.44,10.65S60.78,87.9,61,90s1.24,5.1,4.79,2.21S68.84,76.12,66.36,70.74Z"/><path class="cls-2" d="M63.2,91a3.62,3.62,0,0,0-.76,1.18,2.27,2.27,0,0,0-.12.69,1,1,0,0,0,.23.72,1,1,0,0,1-.69-.6A2.15,2.15,0,0,1,61.7,92a2.86,2.86,0,0,1,.76-1.72.5.5,0,0,1,.74.66Z"/><path class="cls-2" d="M69.58,68.82c-1.41,18.87,5.7,35.67,10.62,36.75s4.21-1.56,6.25,1.32,3.37,7.58,9.14,7.34a7.2,7.2,0,0,0,6.78-5.75l4.27-.26s1.45,6,4.33,6c2,0,3.64-2.72,4.12-4.65.17-.68.28-2.65,1-2.47,1.46.39,2.54-2,3.76-4.22,0,0-5,15.78-8.23,18.43s-8.65,4.41-15.38,3.28-11.54-2.56-18.75-9-9-16.11-9.86-22.48,0-18.87,0-18.87Z"/><path class="cls-2" d="M84.67,63.67c3.81.7,9,3.1,12.48,3s3.27-3.28,2-3.6c-6.25-1.63-10.08-3.8-16.35-3.59S74,64.23,72.9,68.46C77.13,64.72,80.86,63,84.67,63.67Z"/><path class="cls-2" d="M122.59,62.54c-1.12-1-6.13-.85-9.72,0s-4.68,2.49-5,4.51c-.42,2.61,6.35-.14,9.8-1.13s4.61.55,5.5,2.54C124.78,65.64,123.72,63.53,122.59,62.54Z"/><path class="cls-2" d="M120.45,73.31a4.72,4.72,0,0,0-2-2.79,5.55,5.55,0,0,0-3.45-1,7.52,7.52,0,0,0-3.31,1,7.85,7.85,0,0,0-2.5,2.19c1-.2,2-.47,2.87-.68a1.86,1.86,0,0,0,0,.33,2.18,2.18,0,0,0,.34,1.31,27.66,27.66,0,0,0,3.43.53,2.27,2.27,0,0,0,.81-1.64,2.37,2.37,0,0,0-.15-.92,7.62,7.62,0,0,1,1.27.32A10.42,10.42,0,0,1,120.45,73.31Z"/><path class="cls-2" d="M86.49,67a11.35,11.35,0,0,0-7,2.72A19.45,19.45,0,0,1,86.52,68a12.36,12.36,0,0,1,7,1.72,7.49,7.49,0,0,0-3.16-2.13A10.41,10.41,0,0,0,86.49,67Z"/><path class="cls-2" d="M116.24,69a6.28,6.28,0,0,1,2.11.41,5.75,5.75,0,0,1,1.86,1.25,3.5,3.5,0,0,0-1.5-1.94,4.91,4.91,0,0,0-2.43-.72,7.12,7.12,0,0,0-4.57,1.53l2.31-.39A13,13,0,0,1,116.24,69Z"/><path class="cls-2" d="M106.62,103.37c-6.14,1.27-11.14-2.22-14.78-4.3-2.69-.62-4.61-1.17-4.61-1.17a22.59,22.59,0,0,0,16.29,6.54c9.15,0,10.54-7.38,10.54-7.38a18.15,18.15,0,0,1-1.84,1.22A7.66,7.66,0,0,1,106.62,103.37Z"/><path class="cls-3" d="M106.62,103.37a7.66,7.66,0,0,0,5.6-5.09,17.31,17.31,0,0,1-7.09,2.47c-3.7.3-9.33-.76-13.29-1.68C95.48,101.15,100.48,104.64,106.62,103.37Z"/><path class="cls-4" d="M97.39,97.9c-6.62-.23-10.16,0-10.16,0s1.92.55,4.61,1.17c4,.92,9.59,2,13.29,1.68a17.31,17.31,0,0,0,7.09-2.47,18.15,18.15,0,0,0,1.84-1.22l.3-.5s-1.67.37-4.41.74A62.9,62.9,0,0,1,97.39,97.9Z"/><path class="cls-2" d="M88.75,72.52a2.28,2.28,0,0,0-.45-1.45,10.83,10.83,0,0,1,2.13,0,22.48,22.48,0,0,1,3.83,1.06,7.87,7.87,0,0,0-3.47-2.57,9.31,9.31,0,0,0-4.4-.28,13.57,13.57,0,0,0-4.09,1.26A13.39,13.39,0,0,0,78.89,73c1.41-.26,2.7-.72,4-1,.48-.13,1-.22,1.43-.32a2.6,2.6,0,0,0-.12.63,2.23,2.23,0,0,0,.4,1.39c1.37,0,2.77,0,3.84-.1A2.37,2.37,0,0,0,88.75,72.52Z"/><path class="cls-4" d="M104.48,92.47a50.48,50.48,0,0,0,5.24-.43A11.09,11.09,0,0,0,113,89.6a46.41,46.41,0,0,1-17-.84,8.62,8.62,0,0,0,4.62,3.66C101.94,92.47,103.24,92.49,104.48,92.47Z"/><path class="cls-2" d="M114.85,92.56a9.07,9.07,0,0,0-5.13-.52,50.48,50.48,0,0,1-5.24.43c-1.24,0-2.54,0-3.87,0-4.27-.14-8.68-.52-11.36-.47-3,0-5.47,1.61-6.93,6.84,3.28-3.51,8.29-2.68,14.94-1.86s10.84.18,13.88-.73,3.71-.27,4.82,3C117.52,97.39,118,93.92,114.85,92.56Z"/></g></svg>