<svg id="illustrations" xmlns="http://www.w3.org/2000/svg" xmlns:xlink="http://www.w3.org/1999/xlink" viewBox="0 0 180 180"><defs><style>.cls-1{fill:none;}.cls-2{clip-path:url(#clip-path);}.cls-3{fill:#3ad7a4;}.cls-4{fill:#091440;}.cls-5{fill:#fff;}.cls-6{fill:#848aa0;}</style><clipPath id="clip-path"><circle class="cls-1" cx="90" cy="90" r="90"/></clipPath></defs><title>Winslow</title><g class="cls-2"><rect class="cls-3" x="-3.21" y="-4.1" width="184.98" height="178.98"/><ellipse class="cls-4" cx="78.05" cy="168.12" rx="33.46" ry="81.19" transform="translate(-96.48 230.51) rotate(-84.77)"/><path class="cls-5" d="M108.08,153.49c-3,2.65-8.25,9.55-26.36.82s-37.1-19.69-38.19-19.49a35.27,35.27,0,0,0,14.74-13.25c5.95-9.61,3.44-25.82,3.44-25.82S57,93,55.5,89.64s-3.16-9.2-3-12.42,2.81-7.07,6.85-5.88a52.35,52.35,0,0,1-1.4-10.2c-.12-5.09,22.32-26.88,22.32-26.88l29.23,1.44,12.67,5.47,9.14,6.52,2.22,15.89-.29,5.61c.07,3.65,5.26,6.47.45,7.93,0,0,2.39,15.9-1.9,29.19s-8.06,16.94-8.93,19.17S122.32,134,112,135.56c0,0-1,8.05-2,12A36.16,36.16,0,0,1,108.08,153.49Z"/><path class="cls-6" d="M98.75,114.41c1.11.1,5.34-.13,7.38-1.17s3.06-2.08,6.5-.43a3.55,3.55,0,0,0,1.9-.29c.34-.17.66-.6,1-.72,1.17-.37,2.59.36,3.59.89a36.54,36.54,0,0,1,3.43,2.46s-1.54,1.09-9.08.61-8.13.38-11.94-.58S98.75,114.41,98.75,114.41Z"/><path class="cls-4" d="M118.89,76.79c4.9-2,9.68-5,13.24-4.63s3.7,3.26,3.7,3.26-.94-1-4.78-.44S118.89,76.79,118.89,76.79Z"/><path class="cls-4" d="M100.79,72.34a48.54,48.54,0,0,0-13,1.23,20.58,20.58,0,0,1,2.43-.11c6.26-.16,12.5.09,18.23,2.71,1,.46,1.72.54,1.66-.8C110,72.6,105.29,72.42,100.79,72.34Z"/><circle class="cls-4" cx="96.67" cy="79.29" r="2.6"/><circle class="cls-4" cx="126.11" cy="80.75" r="2.6"/><path class="cls-6" d="M114.11,107.51a8.54,8.54,0,0,0,5.06-3c-1.94,1-3.45,2.45-6.75,1.54a6.25,6.25,0,0,0-3.92-2.52c-2.71-.55-3.15.86-3.15.86-.14.45,3,2,3.26,2.2A9.2,9.2,0,0,0,114.11,107.51Z"/><path class="cls-6" d="M112,135.56c-7.28.56-11.42.64-20.11-4.46A90.22,90.22,0,0,1,77.7,120.89s12.07,14.32,19.79,17.33a15.19,15.19,0,0,0,14.4-1.59Z"/><path class="cls-4" d="M105,80.05c-2.32-1.47-5.72-4.6-9.07-3.24A29.64,29.64,0,0,0,90,80.05a41.86,41.86,0,0,1,6.37-2.45C98.28,77.25,101,77.85,105,80.05Z"/><path class="cls-4" d="M121.58,80.34a5.38,5.38,0,0,1,4.77-2.17A17.72,17.72,0,0,1,132.27,80a22.77,22.77,0,0,0-6-.93A15.81,15.81,0,0,0,121.58,80.34Z"/><path class="cls-6" d="M108.05,118.59c3.61.79,6.22.88,7.84,0,0,0,1.14,4.41-2.72,4.52S107.57,121.58,108.05,118.59Z"/><path class="cls-4" d="M133.22,69.19c.72-7.83,0-13.53-.91-20.28,0,0,.25-6.12-.87-9.51s-10.22-25-29.71-22.6-20.1,1.35-30.45,8C63.19,30,55.58,39.43,53.21,42.9c.82-1.19,3.84.28,4,.7,1.84,6.44,0,13.21.94,19.84a48.72,48.72,0,0,1,10.89-7,62.79,62.79,0,0,1,10.25-3.37c-.83-4.38,2.69-9.28,12.73-6.93s12.56,4.94,19.69,4.37,13.06.58,17.54-2.5C129.21,48,133.28,56.28,133.22,69.19Z"/></g></svg>