<svg id="illustrations" xmlns="http://www.w3.org/2000/svg" xmlns:xlink="http://www.w3.org/1999/xlink" viewBox="0 0 180 180"><defs><style>.cls-1{fill:none;}.cls-2{clip-path:url(#clip-path);}.cls-3{fill:#3ad7a4;}.cls-4{fill:#fff;}.cls-5{fill:#848aa0;}.cls-6{fill:#091440;}</style><clipPath id="clip-path"><circle class="cls-1" cx="90" cy="90" r="90"/></clipPath></defs><g class="cls-2"><rect class="cls-3" x="-3.21" y="-0.1" width="184.98" height="178.98"/><path class="cls-4" d="M115.54,140.72a22,22,0,0,1-2.23-1.72,7,7,0,0,1-1.11-1.14c-1.44-2-1.3-17.51-1.19-18.4.46-3.78-34.39-10-34.39-10L61.47,98.08c.07,1.49.2,3.57.35,6L59,103c.26,4.07,4.32,10.21,3.58,21.18-.23,3.29-.47,6.61-.71,9.64-1.58,3-3.54,1.11-31.08,11.55,0,0,18.32,37.36,52.78,36.23s60.27-30.34,60.27-30.34q-6-1.95-12.07-4C126.43,145.45,120.36,144,115.54,140.72Z"/><path class="cls-5" d="M61.48,108.28c3.24,7.45,6.5,16.07,20.2,21.18,9.9,3.69,20.71-1.36,20.71-1.36l-33.89-20Z"/><path class="cls-6" d="M118.6,142.17c0,.05,4.42,13.58-21.13,15.35-17.34,1.2-37.65-3.44-49.31-18.26C27.35,144.06,3.09,154.43,2.4,165.6,1.27,184,36.63,201.23,81.39,204s82-10,83.09-28.42C165.33,161.67,147.58,149,118.6,142.17Z"/><path class="cls-4" d="M106.49,37.36c-3.29-.87-6.75-.57-10.13-.26a70.76,70.76,0,0,0-9,1.21,50.47,50.47,0,0,0-11.49,4.27c-4.6,2.28-9.14,5.08-12.07,9.29a32.3,32.3,0,0,0-3.35,6.67c-2.81,7-5.06,14.39-5.35,22a12.24,12.24,0,0,0-4.23-3.7c-2.08-1.1-4.82-1.5-6.64,0-2.39,1.95-1.77,5.73-.71,8.64A63.37,63.37,0,0,0,51,99.76a11.06,11.06,0,0,0,3.89,3.8c1.41.68,2.38-.11,3.7.2,2.06.48,2.86,2.82,2.93,4.52.2,5.06,4.52,7.23,8.21,9.92a150.1,150.1,0,0,0,12.9,8.41,19.49,19.49,0,0,0,3.5,1.7,18.09,18.09,0,0,0,5.29.75,34.2,34.2,0,0,0,9.63-.83c6.17-1.6,9.43-5.62,12.45-10.92A51.39,51.39,0,0,0,119,103.05c1.57-7,1.65-14.3,1.73-21.51a24.69,24.69,0,0,0-.59-6.92,9.21,9.21,0,0,1-.53-2.41,12.32,12.32,0,0,1,.81-3.17c.67-2.41.11-5-.46-7.4C118.1,53.62,115.92,39.85,106.49,37.36Z"/><path class="cls-6" d="M74.47,67.82a1.08,1.08,0,0,1-.14-1.58c1.69-1.85,5.32-2.92,8.17-3.19a39.86,39.86,0,0,1,9.63.56c1,.14,2,.28,2.91.48a7.77,7.77,0,0,1,2.26.72,1.94,1.94,0,0,1,1.15,1.55.93.93,0,0,1-.39.76,2.43,2.43,0,0,1-1.44.27,29.67,29.67,0,0,1-3.4-.52,49.58,49.58,0,0,0-9.45-.4,12.71,12.71,0,0,0-2.39.19c-1.51.31-2.74,1.13-4.23,1.51A3.05,3.05,0,0,1,74.47,67.82Z"/><path class="cls-6" d="M109.36,64c-2,.51-4.63,1.71-3.6,3a2,2,0,0,0,1.25.57,14.38,14.38,0,0,0,4.85-.08c.77-.17,1.48-.46,2.27-.61a15.57,15.57,0,0,1,4.64.27c1.61.19,2.18-.74,2-1.57-.29-1.1-1.75-1.75-3.48-1.9a28.72,28.72,0,0,0-7,.11A9.29,9.29,0,0,0,109.36,64Z"/><path class="cls-6" d="M42.43,50.55c-.32-1.64-.76-3.27-.93-4.93A20.87,20.87,0,0,1,45,32.45a47.2,47.2,0,0,1,9.38-10.18c5-4.34,11-8.47,17.64-8.38a41.56,41.56,0,0,0,4.73.12c3-.3,5.61-2.08,8.49-2.94a14.34,14.34,0,0,1,9.26.39c2.17.86,4.13,2.26,6.39,2.87s4.5.41,6.74.8A13.83,13.83,0,0,1,118.7,28.54a9.39,9.39,0,0,0-2.1-11.06,12.58,12.58,0,0,1,2.5,14.88,8.32,8.32,0,0,0,2.59-7.11,10.88,10.88,0,0,1-2.8,12.9c2.51,1,5.82.2,7-2.21s-.67-5.95-3.37-5.76a3.11,3.11,0,0,1,3.25,1,9.07,9.07,0,0,1,1.68,3.14,9.05,9.05,0,0,1,.81,3.4c-.1,3.55-4.12,5.63-7.63,6.17l.91,5.95c.82,5.28,1.54,11.08-1.3,15.61a6.26,6.26,0,0,1-.66-2.71,45.63,45.63,0,0,0-7.24-20.42,9.65,9.65,0,0,1-5.44,7.29A17.53,17.53,0,0,1,97.68,51a6.14,6.14,0,0,0-2.14,0,5.86,5.86,0,0,0-2,1.13,37.39,37.39,0,0,1-24.81,7.16c-.07,8.72-6,16.39-7.13,25-1.41-.58-3.3.88-4.41-.15a3,3,0,0,1-.65-1.38,10.77,10.77,0,0,0-4.09-5.61c-1.93-1.38-3.86-1.47-6-2.17s-2.18-3.3-2.44-5.41c-.37-3-.46-6-.61-9A67.64,67.64,0,0,0,42.43,50.55Z"/><path class="cls-6" d="M85.88,102.14a13.36,13.36,0,0,0-3.78,5.45c-1,2.91.18,6.07,3.53,3.42a36.84,36.84,0,0,0,2.78-2.94c3.58-3.54,9.17-3.81,14.2-3.72,2.41.05,5.1.25,6.75,2a13.74,13.74,0,0,1,2.06,4.1,3.46,3.46,0,0,0,2.09,2.22,2.55,2.55,0,0,0,2.66-1.41,5.61,5.61,0,0,0,.43-3.17,15.41,15.41,0,0,0-7.94-12c-1.51-.81-4.26,1.09-6.13,1-1.5-.07-2.89-.77-4.39-.81C93.84,96.22,88.92,99.37,85.88,102.14Z"/><path class="cls-6" d="M101,128.23c6.17-1.6,9.43-5.62,12.45-10.92A51.39,51.39,0,0,0,119,103.05c.33-1.47.58-3,.79-4.44a3.42,3.42,0,0,0-.76-1.33,81.75,81.75,0,0,1-4,11.9c-.6,1.42-1.42,3-2.91,3.38s-2.83-.46-4.15-1.11a17.08,17.08,0,0,0-10.72-1.38c-4.34.88-8.52,3.46-12.9,2.73A7.55,7.55,0,0,1,82,112a11.64,11.64,0,0,1-2.31-1.89A85.05,85.05,0,0,1,61.47,83.36c-.91-2.12-2.21-1.62-4.18-1.4a.47.47,0,0,0-.32.12.44.44,0,0,0-.08.3,9.66,9.66,0,0,0,.52,4.51c1.55,3.36.87,6.77,1,10.41a30.33,30.33,0,0,0,6,17.92c4.22,5.41,11.25,9.14,17.52,11.66a27.35,27.35,0,0,0,9.5,2.18A34.2,34.2,0,0,0,101,128.23Z"/><circle class="cls-6" cx="88.32" cy="71.7" r="2.52"/><circle class="cls-6" cx="113.53" cy="72.35" r="2.52"/><path class="cls-6" d="M78.8,72.23C81,70.79,86.06,68,91.28,70.42c0,0-1.48-3-6.24-1.78S78.8,72.23,78.8,72.23Z"/><path class="cls-6" d="M117.58,71.59c-2-.94-6.58-2.58-9.82.86,0,0,.29-3.23,4.19-3S117.58,71.59,117.58,71.59Z"/><path class="cls-5" d="M95.38,106.41s-.58-.82-2.24,1.23-.34,2.76.38,2.11c0,0-.16.25-.66-.22s.64-1.65,1-2.07,1-1,1.34-.77S95.38,106.41,95.38,106.41Z"/><circle class="cls-6" cx="55.35" cy="100.16" r="2.19"/><path class="cls-5" d="M95.11,93.61c1.17,1.22,7.5,2.9,10.39,2.34,0,0-4.55,1.34-7.66,0S95.11,93.61,95.11,93.61Z"/><path class="cls-6" d="M129.79,67.71c-.19-1.53-1.29-1.34-2-1.28s-1.71-1.07-11.22-1.13S105,68.81,105,68.81l-5.83.44a19.41,19.41,0,0,0-9-4.65c-5.72-1.25-20.46,1.55-20.46,1.55l.1,1.38-19.47,11,2.08,1.72L70.75,69.88l2.18,1.35s1,13.82,6.85,15,8.21.57,12.3-.11,4.67-3.4,5.75-5.12,2.51-8.8,4.57-9,2.49,1.44,3.57,6a17.16,17.16,0,0,0,4.81,7.81s1.86.82,7.72.75,7.38-2.63,8.13-4.47,1.6-9.41,2.21-11.09S130,69.23,129.79,67.71ZM98.58,72.58c0,6.64-5.09,11.73-5.09,11.73s-1.07,1.12-6.88,1.86S78,83.63,78,83.63C75.14,78,75,71.61,75.12,68.76c.06-1.62,7.34-3.08,9.29-3.37S98.6,66,98.58,72.58ZM124.5,83.06s-2.61,3-7.86,2.28-6.22-1.74-6.22-1.74-4.54-4.71-4.51-10.8S117,66,118.78,66.27s8.34,1.67,8.39,3.15A30,30,0,0,1,124.5,83.06Z"/></g></svg>