<svg id="illustrations" xmlns="http://www.w3.org/2000/svg" xmlns:xlink="http://www.w3.org/1999/xlink" viewBox="0 0 180 180"><defs><style>.cls-1{fill:none;}.cls-2{clip-path:url(#clip-path);}.cls-3{fill:#6ed3f3;}.cls-4{fill:#fff;}.cls-5{fill:#848aa0;}.cls-6{fill:#091440;}</style><clipPath id="clip-path"><circle class="cls-1" cx="90" cy="90" r="90"/></clipPath></defs><g class="cls-2"><rect class="cls-3" x="-3.21" y="-0.1" width="184.98" height="178.98"/><path class="cls-4" d="M60.15,98.08c.31,7.7.2,21.85-1.44,25.81s.1,10.42-27.68,21.51c0,0,17.39,37.36,50.11,36.23s57.2-30.34,57.2-30.34-25.11-8.49-27-10.42a51.21,51.21,0,0,1-4.77-6.94L100.48,108Z"/><path class="cls-5" d="M60.23,110.26c2.55,9.75,9.79,23.26,22.25,28.1,11.58,4.5,21.87-2.07,26.67-6.56Z"/><path class="cls-6" d="M113.48,141.66c0,.05.6,15.5-15.57,18.87-15.8,3.29-45.32-5.15-55.92-20-18.92,4.8-31.58,13.87-32.2,25C8.76,184,40.9,201.23,81.57,204s74.49-10,75.52-28.42C157.87,161.67,139.82,148.49,113.48,141.66Z"/><path class="cls-6" d="M60.16,88.26v0Z"/><path class="cls-6" d="M60.12,89.33c0-.12,0-.24,0-.36C60.13,89.09,60.12,89.21,60.12,89.33Z"/><path class="cls-6" d="M60,90.41l0-.43Z"/><path class="cls-6" d="M60.16,87.19a.53.53,0,0,1,0-.13A.53.53,0,0,0,60.16,87.19Z"/><path class="cls-6" d="M59.51,94.06c.07-.33.13-.67.18-1C59.64,93.39,59.58,93.73,59.51,94.06Z"/><path class="cls-6" d="M58.4,79.69h0Z"/><path class="cls-6" d="M55.7,79.06c.38.45,1.92-.68,2.23-.19a3.46,3.46,0,0,0,.53-.35c1-.8,1.95-1.65,2.88-2.53l.34-.31c.16-.12.32-.24.49-.35l.26-.13-.37.15A6.43,6.43,0,0,0,64,74.14c-.18-1.73,4.68,3.43,5,1.72.22-1.2,3.52-5.46,4-6.58,3.16-7.3,3-2.21,6.11-9.51,1-2.38.42-11.39,2.73-12.57A12.37,12.37,0,0,1,86,45.73c8.35-.53,14.15.72,22.12,3.28,5.25,1.68,4.89,1.5,8.45,5.71,4.35,5.13,5.12,7.6,4.66,14.31-.45,6.56-3.17,11.56.68,20,5.66-9.14,15-16.37,24.55-21.28q-5.07-8.66-9.37-17.72a32.78,32.78,0,0,1,12.9,7,86.58,86.58,0,0,0-32.23-38.47c3.45-.45,7.26-5.63,10-7.73C114.06,7.74,86.42,10,83.6,10.7S68.59,18.93,63.17,24c-1.08,1-1.54,2-3,2.58-3.07,1.22-6.78,1.65-10,2.56q-11.37,3.24-22.49,7.27a48,48,0,0,1,11.5,24.55c.28,1.85.35,4-1,5.3a5.55,5.55,0,0,1-2.58,1.27,18.85,18.85,0,0,1-5.84.59c2.74,2.61,4.43,6.11,6.83,9,1.53,1.86,6.53,6.49,8.71,3.92,1-1.16.62-3.34,1.93-4.69,1.15-1.19,3.22.67,4.9.8Z"/><path class="cls-6" d="M59.76,92.65l.09-.63Z"/><path class="cls-6" d="M62.43,75.2c.55-.23.29-.13,0,0Z"/><path class="cls-6" d="M59.92,91.51,60,91Z"/><path class="cls-4" d="M121.29,57.8c-1.07-4.91-4.74-9-9.09-11.49s-9.34-3.69-14.31-4.49c-5.62-.91-11.45-1.39-17,0A9.19,9.19,0,0,0,76.54,44C74.64,46,74.45,49,74.17,51.65A54.56,54.56,0,0,1,71.76,63a2.74,2.74,0,0,1-.71,1.28,3.84,3.84,0,0,1-1.41.59,5.4,5.4,0,0,0-3,2.4A16.18,16.18,0,0,0,65.5,70.1a17.91,17.91,0,0,1-4.24,6.84c-1.13,1.14-2.83,2.18-4.26,1.44a5.52,5.52,0,0,1-1.23-1c-2.05-2-9.39-5.06-10.23-.28a7.05,7.05,0,0,0,.25,2.73A59.45,59.45,0,0,0,49,90.08c1.4,3.8,4.52,10,8.54,9.5-.08,3.54,1.82,8.36,3.27,11.59,4.75,10.53,13.05,20,24.09,23.44,6.63,2,13.72,1.77,20.56,1.43,8.68-.42,11.07-6.52,12.68-14.14,1.26-5.93,3.12-11.78,4.23-17.73.73-3.87,0-7.84-.33-11.77a47.93,47.93,0,0,1,2.46-19.05c1-3,1.69-3.83-.22-6.34C122,64.08,122.05,61.27,121.29,57.8Z"/><path class="cls-6" d="M62.43,75.2l-.26.13c-.17.11-.33.23-.49.35l-.34.31"/><path class="cls-6" d="M64,74.13s0,21.34,5.2,29.14a37.85,37.85,0,0,0,6,6.5,17.49,17.49,0,0,0,5.15,3.7,6,6,0,0,0,6-.56,16.39,16.39,0,0,0,2.35-3.11c3.51-4.86,10.29-5.73,16.27-6.17,3.16-.23,6.41-.45,9.44.49a11.09,11.09,0,0,1,6.74,5.33c-1,4.15-2.19,8.28-3.08,12.45-1.61,7.62-4,13.72-12.68,14.14-6.84.34-13.93.62-20.56-1.43-11-3.41-19.34-12.91-24.09-23.44a40.37,40.37,0,0,1-3-9.1c.54-2.67,1.25-5.34,1.77-8,1-5.11,1.13-10.87-1.58-15.19L55.7,76.18l6.77-4.94s2.2.36,1.92,1.43S64,74.13,64,74.13Z"/><path class="cls-5" d="M112.39,101.22a3.11,3.11,0,0,0,2.4-.93,2.39,2.39,0,0,1-1.3,1.93,4.91,4.91,0,0,1-2.36.51,10.15,10.15,0,0,1-6-1.72A25.66,25.66,0,0,0,112.39,101.22Z"/><path class="cls-6" d="M95.44,68.81a99.87,99.87,0,0,0-13.16.79c-2.45.24-5.08.56-6.89,2.22a31.05,31.05,0,0,1,7.47-5c5-2.66,11.91-3.19,17.43-1.91,1.14.27,4,1,4.25,2.48a1.84,1.84,0,0,1-.84,1.75c-2.18,1.45-5.69-.24-8.1-.33Z"/><path class="cls-6" d="M118.13,71.83c-.6-.17-1.13-.31-1.52-.39A4.26,4.26,0,0,1,115.3,71c-2.29-1.34,1.06-2.76,2.28-2.81,1.87-.08,5.2-1,6.92-.08a2.17,2.17,0,0,1,1.15,1.56,4.24,4.24,0,0,1-.88,2.66C123.47,73.36,120.31,72.44,118.13,71.83Z"/><circle class="cls-6" cx="89.47" cy="77.74" r="2.67"/><circle class="cls-6" cx="116.92" cy="79.06" r="2.67"/><path class="cls-5" d="M105.64,95s-1-.15-.68,2.47,1.74,2.17,1.78,1.2c0,0,.06.29-.62.32s-.74-1.61-.76-2.2,0-1.48.38-1.49S105.64,95,105.64,95Z"/><path class="cls-6" d="M83.09,77.16A13.64,13.64,0,0,1,91.38,75a14.11,14.11,0,0,1,6.55,2.09s-3.67-1.72-6.55-1.51A69.4,69.4,0,0,0,83.09,77.16Z"/><path class="cls-6" d="M112.94,78a6.24,6.24,0,0,1,5.41-1.47,7.51,7.51,0,0,1,3.93,2.59s-2.15-2-4-2A28.8,28.8,0,0,0,112.94,78Z"/><path class="cls-4" d="M102.18,110.65a22.81,22.81,0,0,0-3.59.5c-.43.09-4.73,1.42-4.71,1.44a9.78,9.78,0,0,0,5.46,3.3,19.85,19.85,0,0,0,2.79.31,31.31,31.31,0,0,0,7.92-.17,6,6,0,0,0,3.44-1.63,2.77,2.77,0,0,0,.28-3.54c-1.37-1.58-3.34.48-5,.46s-3.36-.5-5-.64A11.34,11.34,0,0,0,102.18,110.65Z"/><path class="cls-5" d="M98.34,112.71c2.83.41,10.1,1.68,13.57-.45,0,0-1.55,2.68-6.42,2.38S98.34,112.71,98.34,112.71Z"/></g></svg>