<svg xmlns="http://www.w3.org/2000/svg" viewBox="0 0 180 180"><defs><style>.cls-1{fill:#6ed3f3;}.cls-2{fill:#091440;}.cls-3{fill:#fff;}.cls-4{fill:#848aa0;}</style></defs><title>tiago</title><g id="illustrations"><path id="_Path_" data-name="&lt;Path&gt;" class="cls-1" d="M90,0A90,90,0,0,0,15.52,140.54l49.34-19.07c.27-2,.45-4.31.61-6.76a161.55,161.55,0,0,0-.23-18.12C61.08,94.68,56.32,86,55,81A19,19,0,0,1,54.37,77c-2.33-1.8-5.29-5.65-5-13.53.33-9.12,2.65-11.09,1.27-16.35-2.72-10.34,1.31-18.47,7.94-21.76s6.63-5.47,6.63-5.47.54-5.4,17.76-7.59S120.65,18.64,127.11,30s3,23.42,3,23.42a16.27,16.27,0,0,1-1.84,12.42c0,.56-.06,1.09-.08,1.6a4.31,4.31,0,0,1-.05,3.35s0-.06,0-.16c0,4.68.34,7.52.19,13.24-.19,7.42-.82,7.43-2.4,12.4,0,0-1.27,4.92-1.81,7.45-1.11,5.22-1.77,6.79-4,10.19-1.88,2.89-2.13,7.73-6,10.53-.09.59-.17,1.17-.26,1.75l46.2,20.29A90,90,0,0,0,90,0Z"/><path id="_Path_2" data-name="&lt;Path&gt;" class="cls-2" d="M113.47,128.52h0c-2,11.41-6.18,20.29-24.17,20.29-15,0-22.53-9-25.15-14.83a10.66,10.66,0,0,1-.29-8,22.27,22.27,0,0,0,1-4.49L15.52,140.54a90,90,0,0,0,144.53,6l-46.2-20.29C113.73,127,113.6,127.76,113.47,128.52Z"/><path id="_Path_3" data-name="&lt;Path&gt;" class="cls-3" d="M113.47,128.52c.13-.76.26-1.53.38-2.31.09-.58.17-1.16.26-1.75l0,0Z"/><path id="_Path_4" data-name="&lt;Path&gt;" class="cls-3" d="M64.15,134c2.62,5.81,10.1,14.83,25.15,14.83,18,0,22.13-8.88,24.17-20.29a17.6,17.6,0,0,1-16.27,4.87c-10.26-2.06-19.29-14.64-23.63-22.64a35.09,35.09,0,0,1-4.25-10.27c-1.18-7.43-3.63-29.67-10.57-29.67-3.07,0-4.5,2.46-4.38,6.15A19,19,0,0,0,55,81C56.32,86,61.08,94.68,65.24,96.59a161.55,161.55,0,0,1,.23,18.12c-.16,2.45-.34,4.74-.61,6.76a22.27,22.27,0,0,1-1,4.49A10.66,10.66,0,0,0,64.15,134Z"/><path id="_Path_5" data-name="&lt;Path&gt;" class="cls-4" d="M114.06,124.5a10.06,10.06,0,0,1-2.31,1.23c-4.37,1.63-16.92,3.07-25.69-3.26-5.6-4-9.57-7.14-12.49-11.72,4.34,8,13.37,20.58,23.63,22.64a17.6,17.6,0,0,0,16.27-4.87h0Z"/><path id="_Compound_Path_" data-name="&lt;Compound Path&gt;" class="cls-3" d="M112.44,53.45C106.7,53,100,46.53,98.81,46.34c0,0,4.64,5.78-1.1,8.18C90,57.74,78.76,52.18,77,50.59c-2.53-2.31,1.45,1-3,8.5-2.54,4.27-5.83,5.48-5.66,12.45,0,0,2.06,22.43,12.12,29.67,4.5,3.25,3.84,12.56,13.26,16.68,2.85,1.25,7.06,1.35,11.74,1.11,4.15-.22,6.49,1.34,10.6-2.56,2.65-2.51,2.94-7.51,5.51-12.69a80.51,80.51,0,0,1,4.3-7.46c1.58-5,2.21-5,2.4-12.4.15-5.72-.22-8.56-.19-13.24A2.82,2.82,0,0,0,125,68.33c-3,0-12.31,1.24-12.31,1.24s.84-2.1,1.53-3.78,2.86-1.54,5.94-2,5.6-.24,7.47,2.64a5.18,5.18,0,0,1,.53,1c0-.51,0-1,.08-1.6C125.87,53.64,124,54.44,112.44,53.45Zm-30.93,13c2.76-2.57,5.6-3.12,9.52-2.64s7.84.34,8.72,2a8.6,8.6,0,0,1,.8,3.78s-11.92-1.24-15.68-1.24a11.67,11.67,0,0,0-6.72,2.48S77.46,70.19,81.51,66.41Zm12,7.26a2.92,2.92,0,0,1-5.75.73c-.63.18-1.23.34-1.79.45a6,6,0,0,1-1.88.15,2.14,2.14,0,0,1-.69-.23l.18,0a1.81,1.81,0,0,0,.46-.16,15.1,15.1,0,0,0,1.46-.87,19.54,19.54,0,0,1,2.18-1.26,12,12,0,0,1,2.84-1,8.85,8.85,0,0,1,1.55-.19l.35,0h.41c.24,0,.48,0,.72,0a11.41,11.41,0,0,1,1.38.21,7,7,0,0,1,1.22.38A3.82,3.82,0,0,1,97.73,73a1.16,1.16,0,0,1,.29.67,1.56,1.56,0,0,0-.56-.33,5.34,5.34,0,0,0-1.6-.24l-1.09,0c-.39,0-.8.07-1.23.1h-.09A2,2,0,0,1,93.5,73.67Zm11,22.07a9.14,9.14,0,0,1-7.3-4.41s2.25,1,8.81,1.45c5.77.37,10.34-2.47,8.46.11C112.44,95.72,108.78,95.94,104.53,95.74Zm-7.14,5.83c-3.77.15-5.82-.2-7.59,2.44-.76-3.36-.83-6.65,4.83-6.15a32.4,32.4,0,0,0,11.47-1.45C106.64,99.37,106,101.24,97.39,101.57Zm8.69,10.05c4.64,0,5.19,2.5,1,2.29C100.38,113.58,100.69,111.62,106.08,111.62Zm9.27-6.09c-2.79,0-4.2.91-7.54,1.56s-5.27-1.61-10.89-1.29c-4.21.24-4.74-1.94-4.74-1.94l3.25.5c2.3.34,3.1-.11,5.44-.59a6.92,6.92,0,0,1,5,.83,2.21,2.21,0,0,0,2.18.14,6.91,6.91,0,0,1,4-.88c4.8.75,6.1.41,6.1.41S118.15,105.58,115.35,105.53Zm4.31-.77c-1.42-2.71-2.89-2.47-5.63-2.79-6.3-.75-6.83-2.63-6.58-5.54a19.19,19.19,0,0,0,8.4,2C119.94,98.2,120.05,101.46,119.66,104.76ZM114.43,74a2.63,2.63,0,0,1,.87-1.59,3.69,3.69,0,0,1,1.06-.7c.21-.09.42-.15.64-.23l.69-.13a7.37,7.37,0,0,1,1.41,0,11.13,11.13,0,0,1,3.93,1,9.15,9.15,0,0,1,2,1.28c.52.42.9.81,1.18,1.06s.26.23.35.28l.13.1h-.16a2.5,2.5,0,0,1-.48,0,9,9,0,0,1-1.6-.37c-.62-.17-1.31-.38-2-.57l-.57-.13a2.92,2.92,0,0,1-5.82-.34c0-.06,0-.12,0-.18a3,3,0,0,0-1.16.71,2.53,2.53,0,0,0-.39.46A1.64,1.64,0,0,1,114.43,74Z"/><path id="_Path_6" data-name="&lt;Path&gt;" class="cls-2" d="M58.75,70.81c6.94,0,9.39,22.24,10.57,29.67a35.09,35.09,0,0,0,4.25,10.27c2.92,4.58,6.89,7.69,12.49,11.72,8.77,6.33,21.32,4.89,25.69,3.26a10.06,10.06,0,0,0,2.31-1.23l0,0c3.85-2.8,4.1-7.64,6-10.53,2.2-3.4,2.86-5,4-10.19.54-2.53,1.81-7.45,1.81-7.45a80.51,80.51,0,0,0-4.3,7.46c-2.57,5.18-2.86,10.18-5.51,12.69-4.11,3.9-6.45,2.34-10.6,2.56-4.68.24-8.89.14-11.74-1.11-9.42-4.12-8.76-13.43-13.26-16.68C70.4,94,68.34,71.54,68.34,71.54c-.17-7,3.12-8.18,5.66-12.45,4.47-7.53.49-10.81,3-8.5,1.74,1.59,13,7.15,20.69,3.93,5.74-2.4,1.1-8.18,1.1-8.18,1.15.19,7.89,6.61,13.63,7.11,11.56,1,13.43.19,15.79,12.41a16.27,16.27,0,0,0,1.84-12.42s3.51-12-3-23.42S100.18,10.07,83,12.26,65.2,19.85,65.2,19.85s0,2.18-6.63,5.47S47.91,36.74,50.63,47.08c1.38,5.26-.94,7.23-1.27,16.35-.28,7.88,2.68,11.73,5,13.53C54.25,73.27,55.68,70.81,58.75,70.81Z"/><path id="_Path_7" data-name="&lt;Path&gt;" class="cls-2" d="M84.87,68.33c3.76,0,15.68,1.24,15.68,1.24a8.6,8.6,0,0,0-.8-3.78c-.88-1.68-4.8-1.54-8.72-2s-6.76.07-9.52,2.64c-4.05,3.78-3.36,4.4-3.36,4.4A11.67,11.67,0,0,1,84.87,68.33Z"/><path id="_Path_8" data-name="&lt;Path&gt;" class="cls-2" d="M120.15,63.77c-3.08.48-5.25.34-5.94,2s-1.53,3.78-1.53,3.78S122,68.33,125,68.33a2.82,2.82,0,0,1,3.09,2.32c0,.1,0,.16,0,.16a4.31,4.31,0,0,0,.05-3.35,5.18,5.18,0,0,0-.53-1C125.75,63.53,123.23,63.29,120.15,63.77Z"/><path id="_Path_9" data-name="&lt;Path&gt;" class="cls-4" d="M114.5,92.89c1.88-2.58-2.69.26-8.46-.11-6.56-.42-8.81-1.45-8.81-1.45a9.14,9.14,0,0,0,7.3,4.41C108.78,95.94,112.44,95.72,114.5,92.89Z"/><path id="_Path_10" data-name="&lt;Path&gt;" class="cls-4" d="M112.11,103.86a6.91,6.91,0,0,0-4,.88,2.21,2.21,0,0,1-2.18-.14,6.92,6.92,0,0,0-5-.83c-2.34.48-3.14.93-5.44.59l-3.25-.5s.53,2.18,4.74,1.94c5.62-.32,7.55,1.94,10.89,1.29s4.75-1.6,7.54-1.56,2.86-1.26,2.86-1.26S116.91,104.61,112.11,103.86Z"/><path id="_Path_11" data-name="&lt;Path&gt;" class="cls-2" d="M94.77,73.12l1.09,0a5.34,5.34,0,0,1,1.6.24,1.56,1.56,0,0,1,.56.33,1.16,1.16,0,0,0-.29-.67,3.82,3.82,0,0,0-1.59-1.12,7,7,0,0,0-1.22-.38,11.41,11.41,0,0,0-1.38-.21c-.24,0-.48,0-.72,0h-.41l-.35,0a8.85,8.85,0,0,0-1.55.19,12,12,0,0,0-2.84,1,19.54,19.54,0,0,0-2.18,1.26,15.1,15.1,0,0,1-1.46.87,1.81,1.81,0,0,1-.46.16l-.18,0a2.14,2.14,0,0,0,.69.23A6,6,0,0,0,86,74.85c.56-.11,1.16-.27,1.79-.45a2.92,2.92,0,0,0,5.75-.73,2,2,0,0,0,0-.44h.09C94,73.19,94.38,73.14,94.77,73.12Z"/><path id="_Path_12" data-name="&lt;Path&gt;" class="cls-2" d="M114.83,74.2a3,3,0,0,1,1.16-.71c0,.06,0,.12,0,.18a2.92,2.92,0,0,0,5.82.34l.57.13c.73.19,1.42.4,2,.57a9,9,0,0,0,1.6.37,2.5,2.5,0,0,0,.48,0h.16l-.13-.1c-.09,0-.2-.17-.35-.28s-.66-.64-1.18-1.06a9.15,9.15,0,0,0-2-1.28,11.13,11.13,0,0,0-3.93-1,7.37,7.37,0,0,0-1.41,0l-.69.13c-.22.08-.43.14-.64.23a3.69,3.69,0,0,0-1.06.7,2.63,2.63,0,0,0-.87,1.59,1.64,1.64,0,0,0,0,.65A2.53,2.53,0,0,1,114.83,74.2Z"/><path id="_Path_13" data-name="&lt;Path&gt;" class="cls-2" d="M94.63,97.86C89,97.36,89,100.65,89.8,104c1.77-2.64,3.82-2.29,7.59-2.44,8.65-.33,9.25-2.2,8.71-5.16A32.4,32.4,0,0,1,94.63,97.86Z"/><path id="_Path_14" data-name="&lt;Path&gt;" class="cls-2" d="M115.85,98.42a19.19,19.19,0,0,1-8.4-2c-.25,2.91.28,4.79,6.58,5.54,2.74.32,4.21.08,5.63,2.79C120.05,101.46,119.94,98.2,115.85,98.42Z"/><path id="_Path_15" data-name="&lt;Path&gt;" class="cls-4" d="M106.08,111.62c-5.39,0-5.7,2,1,2.29C111.27,114.12,110.72,111.62,106.08,111.62Z"/></g></svg>