<svg id="illustrations" xmlns="http://www.w3.org/2000/svg" xmlns:xlink="http://www.w3.org/1999/xlink" viewBox="0 0 180 180"><defs><style>.cls-1{fill:none;}.cls-2{clip-path:url(#clip-path);}.cls-3{fill:#3ad7a4;}.cls-4{fill:#091440;}.cls-5{fill:#cbcdd7;}.cls-6{fill:#848aa0;}</style><clipPath id="clip-path"><circle id="_Clipping_Path_" data-name="&lt;Clipping Path&gt;" class="cls-1" cx="90" cy="90" r="90"/></clipPath></defs><title>collins</title><g id="_Clip_Group_" data-name="&lt;Clip Group&gt;"><g class="cls-2"><circle id="_Path_" data-name="&lt;Path&gt;" class="cls-3" cx="90" cy="90" r="90"/><polygon id="_Path_2" data-name="&lt;Path&gt;" class="cls-4" points="62.63 126.94 12.61 145.43 8.67 188.01 179.81 188.01 166.02 148.08 106.63 128.49 62.63 126.94"/><g id="_Group_" data-name="&lt;Group&gt;"><path id="_Path_3" data-name="&lt;Path&gt;" class="cls-5" d="M62.78,89.36s.4,16.87-.54,25.62a48.55,48.55,0,0,1-3.63,13.49s12.21,17.23,31.1,17.38c18.67.15,20.68-11.95,20.68-11.95s2.48-25.71,2.3-30S62.78,89.36,62.78,89.36Z"/><path id="_Path_4" data-name="&lt;Path&gt;" class="cls-6" d="M70.68,106.57C76.46,120.26,82.88,129.8,96,131s15.11-4.52,15.11-4.52l1-10.06Z"/><path id="_Path_5" data-name="&lt;Path&gt;" class="cls-5" d="M101.71,124.48c-9.71,1-22.8-2.51-32.24-17.23S59.67,76.43,59.85,67,57.37,25,87,21.12s35.27,19.68,36.69,29.07,1.77,29.78,0,41.12S120.76,122.5,101.71,124.48Z"/><path id="_Path_6" data-name="&lt;Path&gt;" class="cls-6" d="M87.22,100.52h7.43c6.37,0,17.42.22,19.72,0,.94-.08,1.94.1,2.4-.32.66-.59.11-1.37-.86-.91-1.64.76-1.82-1.67-4.34-3.64s-4.82-2.79-8.15-1.8c-2-.39-5.89-1-8.31.65-1.76,1.2-4.68,5.22-6.53,5.28-.54,0-1.76-1.58-2.61-.15C85.59,100.26,86.13,100.58,87.22,100.52Z"/><path id="_Path_7" data-name="&lt;Path&gt;" class="cls-6" d="M90.46,84.65c1.09,2.19,5.22,4.63,12.45,4.63a17.81,17.81,0,0,0,11.81-4.63,107.54,107.54,0,0,1-11.18.77C98.5,85.42,90.46,84.65,90.46,84.65Z"/><g id="_Group_2" data-name="&lt;Group&gt;"><path id="_Path_8" data-name="&lt;Path&gt;" class="cls-4" d="M93.18,62.86c1.35-1.44-.54-3.17-5.91-4.27S77.2,57.71,73.7,61.33l-2,2.19a30.11,30.11,0,0,1,8.55-2.76C84.21,60.34,91.65,64.5,93.18,62.86Z"/><g id="_Group_3" data-name="&lt;Group&gt;"><path id="_Path_9" data-name="&lt;Path&gt;" class="cls-4" d="M76.35,71.77a3.6,3.6,0,0,1,.37-.62A7.92,7.92,0,0,1,78,69.76a9.79,9.79,0,0,1,2.31-1.42,10.94,10.94,0,0,1,1.46-.52,9,9,0,0,1,1.56-.32,10.56,10.56,0,0,1,1.58-.1c.15,0,.23,0,.42,0l.37,0c.22,0,.51.06.78.11A6.21,6.21,0,0,1,88,68a5.69,5.69,0,0,1,1.17.67,4.6,4.6,0,0,1,1.33,1.43,2.56,2.56,0,0,1,.3.66,7.19,7.19,0,0,0-2.16-1.08c-.33-.1-.7-.17-1.08-.25a11.18,11.18,0,0,0-1.19-.11,10,10,0,0,0-1.32,0c-.46,0-.92.07-1.38.14s-.92.14-1.37.22-.89.18-1.32.29-.83.23-1.22.36-.76.26-1.09.39A22.34,22.34,0,0,0,76.35,71.77Z"/></g><path id="_Path_10" data-name="&lt;Path&gt;" class="cls-4" d="M85.67,70.06c0-1.49-1.2-1.59-2.69-1.59s-2.68.1-2.68,1.59a2.69,2.69,0,1,0,5.37,0Z"/></g><g id="_Group_4" data-name="&lt;Group&gt;"><path id="_Path_11" data-name="&lt;Path&gt;" class="cls-4" d="M109.06,62.2c-1-1.44.42-3.17,4.52-4.27s8.1-1.44,10.78,2.18c1.34,1.4.33,4.11.33,4.11s.23-4.11-5.72-3.87C115.94,60.48,110.23,63.85,109.06,62.2Z"/><g id="_Group_5" data-name="&lt;Group&gt;"><path id="_Path_12" data-name="&lt;Path&gt;" class="cls-4" d="M123.08,71.77a12.29,12.29,0,0,0-2-1.28,11.94,11.94,0,0,0-2.06-.84,9,9,0,0,0-1.19-.3c-.41-.09-.84-.14-1.26-.19-.21,0-.43,0-.64-.06l-.28,0h-.35l-.61,0a3.75,3.75,0,0,0-.56,0,9.25,9.25,0,0,0-2.12.56,14.09,14.09,0,0,0-2.1,1,3.46,3.46,0,0,1,.31-.62,6,6,0,0,1,1.18-1.39,7,7,0,0,1,1-.73,6.14,6.14,0,0,1,1.3-.56,5.27,5.27,0,0,1,.76-.19,3.88,3.88,0,0,1,.76-.1l.35,0h.43c.25,0,.51,0,.77,0a9.61,9.61,0,0,1,1.51.3,7.74,7.74,0,0,1,1.39.55,7,7,0,0,1,1.19.74,6.16,6.16,0,0,1,.91.84,5.72,5.72,0,0,1,1,1.52A3.72,3.72,0,0,1,123.08,71.77Z"/></g><path id="_Path_13" data-name="&lt;Path&gt;" class="cls-4" d="M112.09,70.06c0-1.49,1.2-1.59,2.69-1.59s2.69.1,2.69,1.59a2.69,2.69,0,0,1-5.38,0Z"/></g><path id="_Path_14" data-name="&lt;Path&gt;" class="cls-4" d="M61.56,78.77c1.26-.58,6.31-14.07,7-23.43,1.07-14.27,13.69-21.54,32.24-20.47,16.6,1,19.26,4.92,21.11,11.69s2.48,8.5,2.69,14.2c0-15.35.88-40.76-32.27-41.31C54.46,18.83,49.65,55.63,61.56,78.77Z"/><path id="_Path_15" data-name="&lt;Path&gt;" class="cls-5" d="M64,75.14s-3.64-7.24-8.42-6.79-3.84,15.5,1.06,22.26c4.19,5.77,7.58,5.27,8.46,1.37S64,75.14,64,75.14Z"/><path id="_Path_16" data-name="&lt;Path&gt;" class="cls-6" d="M96.44,107.91s6.63,1.67,12.3-.66C103.78,112.56,99.54,110.05,96.44,107.91Z"/></g></g></g></svg>