<svg id="illustrations" xmlns="http://www.w3.org/2000/svg" xmlns:xlink="http://www.w3.org/1999/xlink" viewBox="0 0 180 180"><defs><style>.cls-1{fill:none;}.cls-2{clip-path:url(#clip-path);}.cls-3{fill:#3ad7a4;}.cls-4{fill:#091440;}.cls-5{fill:#fff;}.cls-6{fill:#848aa0;}.cls-7{fill:#cbcdd7;}</style><clipPath id="clip-path"><circle id="_Clipping_Path_" data-name="&lt;Clipping Path&gt;" class="cls-1" cx="90" cy="90" r="90"/></clipPath></defs><title>justin</title><g id="_Clip_Group_" data-name="&lt;Clip Group&gt;"><g class="cls-2"><circle id="_Path_" data-name="&lt;Path&gt;" class="cls-3" cx="90" cy="90" r="90"/><polygon id="_Path_2" data-name="&lt;Path&gt;" class="cls-4" points="58.55 127.36 5.52 152.05 1.75 188.37 165.46 188.37 152.26 154.59 95.86 129.73 58.55 127.36"/><g id="_Group_" data-name="&lt;Group&gt;"><path id="_Path_3" data-name="&lt;Path&gt;" class="cls-5" d="M62.09,88.17s1.77,26.8-3.54,39.19c5,13.61,26.62,23.58,44.17,13.53,2.43-1.39,4.52-3.27,4.67-6.06,1.37-26.17,1.26-29,1.26-29Z"/><path id="_Path_4" data-name="&lt;Path&gt;" class="cls-6" d="M73.12,116.11s9.7,13.83,19.7,17.24,14.62.6,14.62.6l.7-14.15Z"/><path id="_Path_5" data-name="&lt;Path&gt;" class="cls-5" d="M97.5,126.93c-10.89-.46-14.17-.81-23.14-11.31S63.25,92,62.18,80.77s-2.43-34.85,2.28-43.06S81.38,23,96.05,22.34s26.24,5.48,27.76,20.08-.3,22.36,0,31,.92,21.74-2.28,28.64-9.36,17.25-14.65,22S103.49,127.18,97.5,126.93Z"/><g id="_Group_2" data-name="&lt;Group&gt;"><path id="_Path_6" data-name="&lt;Path&gt;" class="cls-4" d="M92.66,64c-1.22-2.23-2.56-3.25-5.77-3.72s-7.31-1-10.24,0a5.08,5.08,0,0,0-3.44,5c2.28-2.8,3.74-2.62,7.5-2.54a30.36,30.36,0,0,1,8.71,1.93C90.59,65.11,93.54,65.67,92.66,64Z"/><g id="_Group_3" data-name="&lt;Group&gt;"><g id="_Group_4" data-name="&lt;Group&gt;"><path id="_Path_7" data-name="&lt;Path&gt;" class="cls-4" d="M77.92,70.24a2,2,0,0,1,.35-.54,4.31,4.31,0,0,1,1.38-1A7.23,7.23,0,0,1,82,68.05a10.84,10.84,0,0,1,2.72.1c.44.08.85.15,1.3.26s.84.23,1.24.37a10.93,10.93,0,0,1,2.11,1,15.6,15.6,0,0,1,1.33.92l.49.39s-.23,0-.63,0-1-.11-1.59-.22l-4.58-.7c-.8-.12-1.6-.24-2.35-.3-.38,0-.74,0-1.08,0H80a7.38,7.38,0,0,0-1.47.25A2.82,2.82,0,0,0,77.92,70.24Z"/></g><path id="_Path_8" data-name="&lt;Path&gt;" class="cls-4" d="M86.3,70a4.43,4.43,0,0,0-2.52-.75c-1.55,0-3.07-.79-3.07.75a2.8,2.8,0,1,0,5.59,0Z"/></g></g><g id="_Group_5" data-name="&lt;Group&gt;"><path id="_Path_9" data-name="&lt;Path&gt;" class="cls-4" d="M108.32,65.71c1.33-.9,7.34-2.68,10.57-2.26s4.62,1.7,5.06,2.64c-.25-3.54-.11-5.46-4.22-6-3.92-.49-9.17,0-11.39,1.38S107.57,66.22,108.32,65.71Z"/><g id="_Group_6" data-name="&lt;Group&gt;"><path id="_Path_10" data-name="&lt;Path&gt;" class="cls-4" d="M121.36,70.84a3.18,3.18,0,0,0-.57-.21,7.63,7.63,0,0,0-1.48-.25c-.3,0-.63,0-1,0l-1.09.06c-.75.06-1.54.17-2.35.3l-4.58.7c-.63.11-1.19.18-1.59.21a5.92,5.92,0,0,1-.63,0l.49-.39A11.67,11.67,0,0,1,112,69.37c.4-.13.82-.26,1.25-.36s.85-.19,1.3-.27a11.22,11.22,0,0,1,2.71-.09,6.7,6.7,0,0,1,2.33.63,3.94,3.94,0,0,1,1.38,1A1.79,1.79,0,0,1,121.36,70.84Z"/></g><path id="_Path_11" data-name="&lt;Path&gt;" class="cls-4" d="M110.41,70.59a4.45,4.45,0,0,1,2.53-.75c1.54,0,3.06-.8,3.06.75a2.8,2.8,0,0,1-5.59,0Z"/></g><path id="_Path_12" data-name="&lt;Path&gt;" class="cls-6" d="M92.48,88.17A13.68,13.68,0,0,0,102.06,93c6.54.62,10-4.86,10-4.86s-5,2.74-9.12,2.74S92.48,88.17,92.48,88.17Z"/><path id="_Path_13" data-name="&lt;Path&gt;" class="cls-4" d="M84.55,98.15c4.66.08,8.15,1.09,17.86.78s11.1-.9,13.59-.66c-3.18,2.33-5.11,9-13.12,9s-10.57-3.81-13.6-5.91S84.55,98.15,84.55,98.15Z"/><path id="_Path_14" data-name="&lt;Path&gt;" class="cls-5" d="M89.69,98.51s5.13,4.09,13.76,3.45,11.73-3.74,11.73-3.74Z"/><path id="_Path_15" data-name="&lt;Path&gt;" class="cls-7" d="M73.75,20.05c5.17-5.63,21-9.47,29.42-5.82S125.92,28.12,131,40c5.25,12.41,3.19,19.61,0,25.32s-5.89,7.44-7.15,8c-.59-8.73,2.29-20.3-6.08-30.65s-26-11.11-36.68-9.89S66.44,41.36,65.23,49.58c-.71,4.74.87,15.53,1,23.8.12,6.06-.28,5.54-.28,5.54s-8.86,2.21-13.07-6.13c-5.8-11.5-4.8-36.43,5.38-46.35C66,18.93,73.75,20.05,73.75,20.05Z"/><path id="_Path_16" data-name="&lt;Path&gt;" class="cls-7" d="M81.3,97s7.88-.15,18.52,0,15.24-.65,17.44-.4l2.19.25s-.69-3.13-5.53-3.84-9,.57-19.37,0S81.44,93.53,81.3,97Z"/><path id="_Path_17" data-name="&lt;Path&gt;" class="cls-7" d="M67.67,104.93a46.9,46.9,0,0,0,8.45,8.27,63.37,63.37,0,0,0,18.7,8.6c5.62,1.32,12.56,2.69,19-6.81,3.48-5.15,4.69-7.67,5.65-8.8-2.5,6.68-4.22,13-8.41,18.17-6,7.38-9.88,6.29-17.48,4.29C85.72,126.59,71.85,121,67.67,104.93Z"/><path id="_Path_18" data-name="&lt;Path&gt;" class="cls-7" d="M108.14,111.71a17.75,17.75,0,0,1-12.88,0C96.8,116.51,106,118.56,108.14,111.71Z"/><path id="_Path_19" data-name="&lt;Path&gt;" class="cls-5" d="M64.12,78.91c-.53-1.11-1-2.25-1.46-3.39-1.92-4.82-5.53-6.41-8.27-4.61-1.94,1.28-5,7.68,1.85,17.26s8.69,7,10.94,3.75C68.87,89.52,65.77,82.35,64.12,78.91Z"/></g></g></g></svg>