<svg xmlns="http://www.w3.org/2000/svg" xmlns:xlink="http://www.w3.org/1999/xlink" viewBox="1776 1947 180 180"><defs><style>.a{fill:#2970ff;}.b{clip-path:url(#a);}.c,.f,.g{fill:#091440;}.d{fill:#fff;}.e{clip-path:url(#b);}.f{opacity:0.5;}.g{opacity:0.74;}</style><clipPath id="a"><circle cx="90" cy="90" r="90"/></clipPath><clipPath id="b"><path d="M57.6,89.4s2.2,15.6,0,22.7-9.9,12.4-9.9,12.4,15.7,25.2,47.1,37.3c12.5-8.2,17.1-36.2,17.1-36.2Z"/></clipPath></defs><g transform="translate(1776 1947)"><circle class="a" cx="90" cy="90" r="90"/><g class="b"><path class="c" d="M180,189H4.4V147L66,114.9l32.6,4.7,65.2,34.5Z"/><path class="d" d="M57.6,89.4s2.2,15.6,0,22.7-9.9,12.4-9.9,12.4,15.7,25.2,47.1,37.3c12.5-8.2,17.1-36.2,17.1-36.2Z"/><g class="e"><path class="f" d="M63.5,107.8s10.3,23.7,32.6,34.9,20.3-8.3,20.3-8.3l-4.5-27.7Z"/></g><path class="d" d="M133.3,72.1c2.3-23.8-9.1-40.8-13.6-41.8s-11.2-9-28.3-5.7C74.3,27.8,65.2,39.7,63.6,64.4c-.1,1.8-.3,3.5-.4,5.2a141.451,141.451,0,0,0-3.1,19.7c-.9,11.2,1,16.8,8.2,24.1,7.1,7.3,32.9,20.6,40.3,18.4s15.5-12,19.9-21.5a45.788,45.788,0,0,0,4-19.6C133.4,80.8,133.3,72.1,133.3,72.1Z"/><path class="c" d="M83.8,66.2a10.543,10.543,0,0,1,2.3-1.4,17.307,17.307,0,0,1,2.7-.8,8.6,8.6,0,0,1,1.6-.1,9.852,9.852,0,0,1,1.7.2,7.494,7.494,0,0,1,1.6.5,10.092,10.092,0,0,1,1.5.7,5.67,5.67,0,0,1,1.3.8,9.016,9.016,0,0,1,1,.9,5.719,5.719,0,0,1,1.1,1.6,5.947,5.947,0,0,1,.3.7,6.122,6.122,0,0,0-.6-.5c-.4-.3-.9-.7-1.5-1.1a10.908,10.908,0,0,0-1.1-.6,6.117,6.117,0,0,0-1.2-.5c-.4-.2-.9-.3-1.3-.5a7.366,7.366,0,0,0-1.4-.4,6.753,6.753,0,0,0-1.4-.2,6.552,6.552,0,0,0-1.4,0,5.283,5.283,0,0,0-1.3.1c-.4,0-.8.1-1.2.1C84.9,66,83.8,66.2,83.8,66.2Z"/><circle class="c" cx="2.6" cy="2.6" r="2.6" transform="translate(88 64.5)"/><circle class="c" cx="2.6" cy="2.6" r="2.6" transform="translate(117 69.5)"/><path class="f" d="M104.3,62.8c1.4-1.2-.7-4-5.4-5.8s-10-3.3-14-1.7c-4.1,1.6-3.2,3.1-3.2,3.1a44.177,44.177,0,0,1,11.5,1.5C100,61.6,103,63.9,104.3,62.8Z"/><path class="f" d="M90.6,101.7s6.1-3.2,8.3-4.1,3.3-1.3,5.8,0,3.2.9,4.6.5,5.1,2.3,6.1,4.4a8.3,8.3,0,0,1,1,3,17.784,17.784,0,0,0-6.4-2.9c-3.6-.7-6.5-.9-8.8-1.4C98.8,100.6,90.6,101.7,90.6,101.7Z"/><path class="f" d="M98.9,88.1s5.7,3.2,11,3.5c5.4.3,6.5-3.1,6.5-3.1a36.928,36.928,0,0,1-5.2.3C107.9,88.9,98.9,88.1,98.9,88.1Z"/><path class="f" d="M114.3,64.5c.9-4.8,9.1-3.6,12.8-2.6s3.7,7.9,3.7,7.9-2-4.1-6.2-4.2S113.9,66.8,114.3,64.5Z"/><path class="c" d="M114.3,72.3a2.22,2.22,0,0,1,.4-.5,8.116,8.116,0,0,1,1.3-1.1,6.908,6.908,0,0,1,2.3-.9,5.9,5.9,0,0,1,1.4-.2,6.15,6.15,0,0,1,1.4.1l.7.1a1.854,1.854,0,0,1,.7.2,5.023,5.023,0,0,1,1.3.5,6.183,6.183,0,0,1,2,1.5,5.274,5.274,0,0,1,1,1.4,1.548,1.548,0,0,1,.2.6,10.144,10.144,0,0,0-1.9-1.2,9.261,9.261,0,0,0-2-.8c-.4-.1-.8-.2-1.1-.3-.2,0-.4-.1-.6-.1l-.6-.1a9.064,9.064,0,0,0-2.3-.1,11.759,11.759,0,0,0-2.1.3A7.755,7.755,0,0,0,114.3,72.3Z"/><path class="c" d="M65.3,72.1s.7-12.5,4.1-17.5S79.7,45,79.7,45s-2.7-6.8,2-10.7c4.6-3.9,12.1-4.2,21.9-1.9,5.1,1.2,11.3,2.5,16,3.4a12.568,12.568,0,0,1,9.8,8.9,43.849,43.849,0,0,1,1.5,6.7c.5,5,2.5,20.5,2.5,20.5a74.413,74.413,0,0,0,0-22.9A36.63,36.63,0,0,0,99,19.4C77.8,18.2,67.1,34.2,63.3,43.9A51.436,51.436,0,0,0,60,63.1S60.5,72,65.3,72.1Z"/><path class="g" d="M132.4,90.8c-1.7,13.8-10.3,13.7-11.9,7.9s-6.5-4.3-12.1-6c-8.4-2.5-14.3-1.3-20.5.1-6.2,1.5-16,6.1-20.2-5.4a43.449,43.449,0,0,1-1.7-22l-2.3,1.8A155.541,155.541,0,0,0,60,89.5c-.9,11.2,1,16.8,8.2,24.1,7.1,7.3,32.9,20.6,40.3,18.4s15.5-12,19.9-21.5A46.339,46.339,0,0,0,132.4,90.8ZM110,118.2a4.945,4.945,0,0,1-3.3-5.2,2.616,2.616,0,0,0,2.1-3c0-2.1-.1-2.1-.1-2.1l-7.4-.6a6.809,6.809,0,0,0-.8,3,3.428,3.428,0,0,0,1.3,2.4h-.1a3.275,3.275,0,0,1-1,3.6c-4.7,3.5-9.7,1.7-12.8-4.2a10.531,10.531,0,0,1,1-11.1c2-2.4,5.5-4.2,9-5.1s5-.8,8.1.8c3,1.5,3.6-.4,5.7,0s6.1,4.3,6.7,11.5C119,115.5,112.4,118.7,110,118.2Z"/><path class="d" d="M62.8,71s-2.2-8.5-6-7.9S53,68,53,72.1s-2.9,11.5,0,15.8a13.576,13.576,0,0,0,6.9,5.4S65.4,84.8,62.8,71Z"/></g></g></svg>