<svg id="illustrations" xmlns="http://www.w3.org/2000/svg" viewBox="0 0 180 180"><defs><style>.cls-1{fill:#3ad7a4;}.cls-2{fill:#091440;}.cls-3{fill:#fff;}.cls-4{fill:#848aa0;}</style></defs><title>dcr_portraits5</title><circle id="_Path_" data-name="&lt;Path&gt;" class="cls-1" cx="90" cy="90" r="90"/><path class="cls-2" d="M117.5,134.77c-.7.09-1.36.17-2,.22a29.11,29.11,0,0,1-1.44,5.94h0c-.69,2.39-1.67,4.64-3,5.84-3.82,3.35-33.64,12.87-52.84-13v0L22.25,149.24a90,90,0,0,0,133.48,2.23Z"/><path class="cls-3" d="M111,146.77c1.37-1.2,2.35-3.45,3-5.84,0,0-2,2.09-13.76-.49-8.6-1.9-16.89-10.1-22.62-19.48a31.1,31.1,0,0,0,11.7,7.48c16.39,5.62,20.11,7,26.11,6.55.63-.05,1.29-.13,2-.22l1.16-.16c8.28-1.23,9-4.76,9.87-9s6.17-7.76,9.34-19,1.59-17.76,1.23-23.25a59.32,59.32,0,0,1-.09-7.16c-1.74-2.82-3-4.36-8-2.81-4.09,1.28-5.61,1.67-4.75.38,1.42-2.14,6.94-5.91,10.6-5.59a4,4,0,0,1,1.87.64c-.16-.8-.39-2.42-.73-6.28a44.38,44.38,0,0,0-7.5-21,9.79,9.79,0,0,1-4.75,4.31c-7.92,3.93-20.7,2.54-28.64,1.09-1.17-7.13-3.42-9.51-3.42-9.51a30.43,30.43,0,0,1,.87,9c-2.8-.58-4.56-1.06-4.56-1.06s.31-5.41-8.5-8.34c-5.1,5.25-1.85,22.4-1.85,22.4s-2.63,3.09-7.11,9.73-2,14.2-2,14.2L65.44,85.1l-.72-2.84C62.25,75.21,57,71.1,53.26,72.15a6.32,6.32,0,0,0-1.75.79C48,75.2,47.32,80.61,48.86,84.57c1.76,4.56,4.05,17.3,10.75,17.89a7.65,7.65,0,0,0,1.68,0c1,10-1.39,26.63-3.09,31.31v0C77.39,159.64,107.2,150.12,111,146.77Zm-4-67.93c-.25-.24-.49-.49-.73-.76s0,0-.12-.06h-.28a17.31,17.31,0,0,0-3,.54,1.82,1.82,0,0,1,0,.42,2.31,2.31,0,0,1-4.53.68c-1.26.31-2.54.62-3.9.85a13.45,13.45,0,0,1,3.43-2.33c.43-.21.86-.4,1.3-.58l.06,0a17.9,17.9,0,0,1,2.53-.82,10.52,10.52,0,0,1,4.33-.28,2.65,2.65,0,0,1,.69.25,1.36,1.36,0,0,1,.4.32,1,1,0,0,1,.19.32c.13.3.28.59.42.89.28.61.6,1.21.87,1.87A11.22,11.22,0,0,1,107,78.84Zm.36,5.74a12.15,12.15,0,0,1-7.65,2.49C95.38,86.81,95,84.57,95,84.57S97.44,86.52,107.34,84.57Zm11.34,35.64c-3.69-.11-4.61-2.7-4.61-2.7s5.64,1.06,8.64,0C122.71,117.51,122.37,120.32,118.68,120.21Zm3.89-8.29c-2.25.7-4.73-.86-6.82-.74s-11.55.6-14,.09c10.39-.83,12.71-2.37,15.35-2.3s3.26,1.32,5.5.7,4.57-1,6.82.78A20.57,20.57,0,0,0,122.57,111.93Zm10.74-26.15c-2.51.39-7.52-2.44-7.52-2.44s4.69,1.16,7.2,1,3.34-1,3.34-1A3.57,3.57,0,0,1,133.31,85.78Zm-6.67-9.32a7,7,0,0,1,3.4-1.57,4.69,4.69,0,0,1,3.85,1A3.67,3.67,0,0,1,135,79.36,4.9,4.9,0,0,0,133,77.12a3.88,3.88,0,0,0-2-.32,1.51,1.51,0,0,1,.2.8,2.32,2.32,0,0,1-4.56.6c-.68.35-1.36.73-2.09,1.16A6.86,6.86,0,0,1,126.64,76.46Zm-.85,23.68,4.69-1.09s-1.16,2.64-8.84,3.33S111,98.75,111,98.75C112.73,100.76,121.1,101.23,125.79,100.14ZM96.34,69c5.91-2.25,12.73.39,15.49,1.41s6.11,4,2.64,4.44c-3.92.45-12.22-1.8-18.19.19s-8.74.76-8.74.76A19.23,19.23,0,0,1,96.34,69Z"/><path class="cls-4" d="M89.4,128.44A31.1,31.1,0,0,1,77.69,121c5.73,9.39,14,17.59,22.62,19.48,11.71,2.58,13.72.52,13.76.49h0a29.11,29.11,0,0,0,1.44-5.94C109.51,135.48,105.79,134.05,89.4,128.44Z"/><path class="cls-4" d="M125.79,83.33s5,2.83,7.52,2.44a3.57,3.57,0,0,0,3-2.44s-.84.77-3.34,1S125.79,83.33,125.79,83.33Z"/><path class="cls-2" d="M126.31,73.75c-.85,1.29.66.9,4.75-.38,4.93-1.55,6.21,0,8,2.81h0c2.44-2.44,2-5.94-.24-7.38a4,4,0,0,0-1.87-.64C133.25,67.84,127.73,71.61,126.31,73.75Z"/><path class="cls-2" d="M96.28,75c6-2,14.27.26,18.19-.19,3.48-.4.13-3.41-2.64-4.44S102.26,66.75,96.34,69a19.23,19.23,0,0,0-8.81,6.8S90.3,77,96.28,75Z"/><path class="cls-2" d="M107.76,78.25c-.15-.3-.3-.59-.42-.89a1,1,0,0,0-.19-.32,1.36,1.36,0,0,0-.4-.32,2.65,2.65,0,0,0-.69-.25,10.52,10.52,0,0,0-4.33.28,17.9,17.9,0,0,0-2.53.82l-.06,0c-.44.18-.88.37-1.3.58a13.45,13.45,0,0,0-3.43,2.33c1.36-.23,2.63-.53,3.9-.85a2.31,2.31,0,0,0,4.53-.68,1.82,1.82,0,0,0,0-.42,17.31,17.31,0,0,1,3-.54h.28c.07,0-.08-.17.12.06s.48.52.73.76a11.22,11.22,0,0,0,1.65,1.28C108.36,79.47,108,78.86,107.76,78.25Z"/><path class="cls-4" d="M95,84.57s.39,2.23,4.69,2.49a12.15,12.15,0,0,0,7.65-2.49C97.44,86.52,95,84.57,95,84.57Z"/><path class="cls-4" d="M121.64,102.39c7.67-.7,8.84-3.33,8.84-3.33l-4.69,1.09c-4.69,1.09-13.06.62-14.77-1.4C111,98.75,114,103.09,121.64,102.39Z"/><path class="cls-4" d="M122.65,109.68c-2.25.62-2.87-.62-5.5-.7s-5,1.47-15.35,2.3c2.4.51,11.86,0,14-.09s4.57,1.44,6.82.74a20.57,20.57,0,0,1,6.9-1.47C127.22,108.67,124.9,109.06,122.65,109.68Z"/><path class="cls-4" d="M114.07,117.51s.92,2.59,4.61,2.7,4-2.7,4-2.7C119.71,118.57,114.07,117.51,114.07,117.51Z"/><path class="cls-2" d="M64.72,82.26l.72,2.84,5.14-1.77s-2.47-7.56,2-14.2,7.11-9.73,7.11-9.73S76.45,42.25,81.55,37c8.81,2.94,8.5,8.34,8.5,8.34s1.76.48,4.56,1.06a30.43,30.43,0,0,0-.87-9S96,39.77,97.15,46.9c7.94,1.44,20.72,2.83,28.64-1.09a9.79,9.79,0,0,0,4.75-4.31c3-6.26-4.95-14.53-9.13-18.09-5.25-4.48-24.88-13.44-45-6.18s-29.2,20.86-27,42.8a92.26,92.26,0,0,0,2.1,12.92,6.32,6.32,0,0,1,1.75-.79C57,71.1,62.25,75.21,64.72,82.26Z"/><path class="cls-2" d="M128.89,79.93a2.32,2.32,0,0,0,2.31-2.33,1.51,1.51,0,0,0-.2-.8,3.88,3.88,0,0,1,2,.32A4.9,4.9,0,0,1,135,79.36a3.67,3.67,0,0,0-1.14-3.52,4.69,4.69,0,0,0-3.85-1,7,7,0,0,0-3.4,1.57,6.86,6.86,0,0,0-2.09,2.9c.73-.42,1.42-.8,2.09-1.16A2.32,2.32,0,0,0,128.89,79.93Z"/></svg>