<svg xmlns="http://www.w3.org/2000/svg" viewBox="0 0 180 180"><defs><style>.cls-1{fill:#3ad7a4;}.cls-2{fill:none;}.cls-3{fill:#091440;}.cls-4{fill:#fff;}.cls-5{fill:#848aa0;}</style></defs><title>Asset 10</title><g id="Layer_2" data-name="Layer 2"><g id="illustrations"><g id="_Group_" data-name="&lt;Group&gt;"><circle id="_Path_" data-name="&lt;Path&gt;" class="cls-1" cx="90" cy="90" r="90"/><g id="_Group_2" data-name="&lt;Group&gt;"><path id="_Path_2" data-name="&lt;Path&gt;" class="cls-2" d="M123.38,71.22a7.55,7.55,0,0,0-.09-1.21,3.15,3.15,0,0,0-.11-.44c0,.71.11,1.35.18,2Z"/><path id="_Path_3" data-name="&lt;Path&gt;" class="cls-3" d="M101.28,140.43c-20.37,11.77-39.46-17.05-39.46-17.05l1.64-6.57-50,20.59A90,90,0,0,0,164.16,141l-51.89-23.66C111.32,125.08,108.67,136.16,101.28,140.43Z"/><path id="_Compound_Path_" data-name="&lt;Compound Path&gt;" class="cls-3" d="M64.85,71.43c0-.36,0-.72.05-1.09l3.94-.08c.34.07,2.56.62,2.91,1.84,0,.13,0,.26,0,.39L72,75.68a7.88,7.88,0,0,0,7.87,7.44h4.58c3.08,0,7.9-.1,9.17-3.32l2.67-7.72s0-.1,0-.16a4.35,4.35,0,0,1,2.91-2.3,3.3,3.3,0,0,1,2.66,1.65,2.87,2.87,0,0,0,0,.41l2.07,6.7c.74,2.29,2.77,4,10.22,4.74h2a7.85,7.85,0,0,0,7.87-7.44l.19-3.32,0-.28c.27-1.36,2.93-1.83,3-1.83l.42-.07V67l-4.52-.6a13.49,13.49,0,0,0,0-4.69,4.52,4.52,0,0,0-3.61-3.95c-4.12-.78-8.48,2-10.78,4.26s-1.89,3.62-.21,3.34,4.92-2.49,9.23-2.77a5.12,5.12,0,0,1,5.25,3.8L119.78,66h0l-4.61-.19c-4.38-.19-6.69.4-10.91,1.78a3.73,3.73,0,0,0-.61.26,16.59,16.59,0,0,1-4.44.62,44.27,44.27,0,0,1-5.35-.9A36.06,36.06,0,0,0,81,65.77L76.37,66h0a6.28,6.28,0,0,0-1.69.23l-5.28.7h0l-.54.08-.46.06h0l-3.3.47c.28-3.17.81-6.21,1.79-7.82,2.6-4.28,2.85-2.07,2.07-7.4-.65-4.5,1.68-12.57,4.84-16.11a11.82,11.82,0,0,1,1.84-1.48c.2-.1.38-.2.56-.31a5.1,5.1,0,0,1,2.38-.69,217.91,217.91,0,0,0,32.23,0c6.45-.39,9.42,2.89,9.9,10.25.46,7,2.28,11.56,2.51,17.58h0s.58-15.52,0-21.6c-1.06-10.78-4.67-18.44-16.1-22.72s-20.67-3.51-31.32-.78S53.32,28.65,53.45,47.61A95.87,95.87,0,0,0,55.4,67.3,4.44,4.44,0,0,1,58,66.64C61.52,66.8,63.67,69.33,64.85,71.43Zm50.24-4.66,4.58.19a7.66,7.66,0,0,1,1.14.23,3.7,3.7,0,0,1,1.58,1,3.66,3.66,0,0,1,.79,1.34,3.15,3.15,0,0,1,.11.44,7.55,7.55,0,0,1,.09,1.21l0,.3-.23,4.1a6.89,6.89,0,0,1-6.88,6.5h-2c-7.29-.75-8.8-2.39-9.34-4l-2-6.65a2.26,2.26,0,0,1,1.65-2.93C108.63,67.16,110.87,66.59,115.09,66.77ZM81,66.77c.51,0,1,0,1.52,0a35.49,35.49,0,0,1,11,1.77,2.83,2.83,0,0,1,1.73,3.32l-2.64,7.64c-1.06,2.67-5.94,2.68-8.55,2.66H79.86A6.89,6.89,0,0,1,73,75.62L72.72,71A3.84,3.84,0,0,1,76.18,67l.25,0Z"/><path id="_Compound_Path_2" data-name="&lt;Compound Path&gt;" class="cls-4" d="M101.28,140.43c7.39-4.27,10-15.35,11-23.09.15-1.21.25-2.33.33-3.34,5.12-7.48,5.93-9.83,7.21-16.94s4.08-12.34,4.08-18.58c0-.44,0-.85,0-1.24a7.9,7.9,0,0,1-7.63,5.88h-2c-7.45-.76-9.48-2.45-10.22-4.74l-2.07-6.7a2.87,2.87,0,0,1,0-.41,3.3,3.3,0,0,0-2.66-1.65,4.35,4.35,0,0,0-2.91,2.3c0,.06,0,.11,0,.16L93.61,79.8c-1.27,3.22-6.09,3.32-9.17,3.32H79.86A7.88,7.88,0,0,1,72,75.68l-.19-3.19c0-.13,0-.26,0-.39-.35-1.22-2.57-1.77-2.91-1.84l-3.94.08c0,.37,0,.73-.05,1.09-1.18-2.1-3.33-4.63-6.84-4.79a4.44,4.44,0,0,0-2.61.66c-3.4,2.16-3.15,9.29-.91,14.59,2.5,5.92,5,8.68,8,10.49h0s2.61,17.86,1,24.43l-1.64,6.57S80.91,152.2,101.28,140.43Zm-6.87-31.22a14.45,14.45,0,0,0,8.79.27C100.81,112.93,97.17,112.74,94.41,109.21ZM106.77,102a10.57,10.57,0,0,1-2.69.22l-.09.16a4.52,4.52,0,0,1-2.9,1.69A6.51,6.51,0,0,0,102,102l0-.21-.19,0-.33,0a23.44,23.44,0,0,0-6.23.2l-.15.06h0a10.29,10.29,0,0,0,1.45,1.86,13.84,13.84,0,0,1-3.46-1.47h0a13.55,13.55,0,0,1-3.24-.08,6.26,6.26,0,0,1-3.68-1.52s8.24-4,11.22-4a4,4,0,0,0,4.94,0c2.52.51,7.49,3.2,7.49,3.2A4.65,4.65,0,0,1,106.77,102ZM99.4,89.88c4.55-.07,8.92,0,8.92,0a12.17,12.17,0,0,1-7.21,2.47c-4.75.25-9.25-1.08-10-2.47C91.11,89.88,94.84,89.94,99.4,89.88Zm-29.78,18.8h0a54.44,54.44,0,0,0,9.32,10.21c4.5,3.63,6.25,6.23,15.31,5.84s12.94-2.86,18.2-10.52c-1.86,7.4-10.51,19.9-23,16S69.62,108.68,69.62,108.68Z"/><path id="_Path_4" data-name="&lt;Path&gt;" class="cls-5" d="M89.41,130.23c12.53,3.88,21.18-8.62,23-16-5.26,7.66-9.15,10.13-18.2,10.52s-10.81-2.21-15.31-5.84a54.44,54.44,0,0,1-9.32-10.21h0S76.88,126.36,89.41,130.23Z"/><path id="_Path_5" data-name="&lt;Path&gt;" class="cls-4" d="M93.59,102.24h0Z"/><path id="_Path_6" data-name="&lt;Path&gt;" class="cls-4" d="M93.47,102.27l.07,0Z"/><path id="_Path_7" data-name="&lt;Path&gt;" class="cls-4" d="M94,102.13l.57-.14Z"/><path id="_Path_8" data-name="&lt;Path&gt;" class="cls-4" d="M93.14,102.31l.23,0Z"/><path id="_Compound_Path_3" data-name="&lt;Compound Path&gt;" class="cls-4" d="M102.89,71.43l2,6.65c.54,1.65,2,3.29,9.34,4h2a6.89,6.89,0,0,0,6.88-6.5l.23-4.1c-.07-.6-.13-1.24-.18-2a3.66,3.66,0,0,0-.79-1.34,3.7,3.7,0,0,0-1.58-1,7.66,7.66,0,0,0-1.14-.23l-4.58-.19c-4.22-.18-6.46.39-10.55,1.73A2.26,2.26,0,0,0,102.89,71.43ZM114,67.94c.23,0,.42,0,.68,0l.78.16a6.63,6.63,0,0,1,1.35.52,6.22,6.22,0,0,1,1.92,1.59,5.71,5.71,0,0,1,.86,1.48,2.84,2.84,0,0,1,.18.62A14.17,14.17,0,0,0,118,71.12c-.27-.16-.58-.3-.88-.45s-.65-.26-1-.38-.51-.12-.77-.18a2.39,2.39,0,0,1,.09.66,2.67,2.67,0,0,1-5.34.13h0a6.41,6.41,0,0,0-.94,1.17c-.22.33-.36.52-.36.52a5.5,5.5,0,0,1,0-.64,3.83,3.83,0,0,1,.38-1.72,3.15,3.15,0,0,1,.76-1,4.51,4.51,0,0,1,1.22-.77,6.28,6.28,0,0,1,1.41-.39A7.9,7.9,0,0,1,114,67.94Z"/><path id="_Compound_Path_4" data-name="&lt;Compound Path&gt;" class="cls-4" d="M76.18,67A3.84,3.84,0,0,0,72.72,71L73,75.62a6.89,6.89,0,0,0,6.88,6.5h4.27c2.61,0,7.49,0,8.55-2.66l2.64-7.64a2.83,2.83,0,0,0-1.73-3.32,35.49,35.49,0,0,0-11-1.77c-.5,0-1,0-1.52,0L76.43,67ZM80,69.43a5.31,5.31,0,0,1,1-.82A6,6,0,0,1,82.29,68a7.63,7.63,0,0,1,1.46-.38c.25,0,.5-.07.76-.09l.82,0,.71.05.86.18a6.33,6.33,0,0,1,1.44.66,6,6,0,0,1,1.89,1.9A6.14,6.14,0,0,1,91,71.92a4.3,4.3,0,0,1,.13.67A17.19,17.19,0,0,0,89.37,71c-.27-.2-.56-.4-.87-.59a8.39,8.39,0,0,0-1-.51l-.53-.2-.56-.13-.51-.08h0a2.54,2.54,0,0,1,.33,1.26,2.68,2.68,0,1,1-5.35,0,2.07,2.07,0,0,1,0-.5c-.06,0-.13,0-.18.07-.58.3-1.07.64-1.43.87s-.58.35-.58.35.09-.23.28-.62A6.52,6.52,0,0,1,80,69.43Z"/><path id="_Compound_Path_5" data-name="&lt;Compound Path&gt;" class="cls-4" d="M110.8,33.72a217.91,217.91,0,0,1-32.23,0,5.1,5.1,0,0,0-2.38.69c-.18.11-.36.21-.56.31a11.82,11.82,0,0,0-1.84,1.48C70.63,39.71,68.3,47.78,69,52.28c.78,5.33.53,3.12-2.07,7.4-1,1.61-1.51,4.65-1.79,7.82l3.3-.47h0l.46-.06.54-.08h0l5.28-.7A6.28,6.28,0,0,1,76.36,66h0L81,65.77a36.06,36.06,0,0,1,12.84,1.76,44.27,44.27,0,0,0,5.35.9,16.59,16.59,0,0,0,4.44-.62,3.73,3.73,0,0,1,.61-.26c4.22-1.38,6.53-2,10.91-1.78l4.61.19h0l3.31.44a5.12,5.12,0,0,0-5.25-3.8c-4.31.28-7.55,2.49-9.23,2.77s-2.15-1,.21-3.34,6.66-5,10.78-4.26a4.52,4.52,0,0,1,3.61,3.95v-.18c-.23-6-2-10.55-2.51-17.58C120.22,36.61,117.25,33.33,110.8,33.72ZM91.67,65.09c-1.83-.28-6.09-2.2-10.78-2.48a12.9,12.9,0,0,0-8.3,2.81s1.88-6.94,6.38-7.64,9.32,2.62,12.37,4.45S93.5,65.37,91.67,65.09Z"/><path id="_Path_9" data-name="&lt;Path&gt;" class="cls-3" d="M79.31,71.21c.36-.23.85-.57,1.43-.87.05,0,.12,0,.18-.07a2.07,2.07,0,0,0,0,.5,2.68,2.68,0,1,0,5.35,0,2.54,2.54,0,0,0-.33-1.26h0l.51.08.56.13.53.2a8.39,8.39,0,0,1,1,.51c.31.19.6.39.87.59a17.19,17.19,0,0,1,1.74,1.57,4.3,4.3,0,0,0-.13-.67,6.14,6.14,0,0,0-.75-1.67,6,6,0,0,0-1.89-1.9,6.33,6.33,0,0,0-1.44-.66L86,67.51l-.71-.05-.82,0c-.26,0-.51.06-.76.09a7.63,7.63,0,0,0-1.46.38,6,6,0,0,0-1.29.65,5.31,5.31,0,0,0-1,.82,6.52,6.52,0,0,0-1,1.51c-.19.39-.28.62-.28.62S79,71.44,79.31,71.21Z"/><path id="_Path_10" data-name="&lt;Path&gt;" class="cls-3" d="M111.15,68.42a4.51,4.51,0,0,0-1.22.77,3.15,3.15,0,0,0-.76,1,3.83,3.83,0,0,0-.38,1.72,5.5,5.5,0,0,0,0,.64s.14-.19.36-.52a6.41,6.41,0,0,1,.94-1.17h0a2.67,2.67,0,0,0,5.34-.13,2.39,2.39,0,0,0-.09-.66c.26.06.52.11.77.18s.67.24,1,.38.61.29.88.45a14.17,14.17,0,0,1,1.79,1.24,2.84,2.84,0,0,0-.18-.62,5.71,5.71,0,0,0-.86-1.48,6.22,6.22,0,0,0-1.92-1.59,6.63,6.63,0,0,0-1.35-.52l-.78-.16c-.26,0-.45,0-.68,0a7.9,7.9,0,0,0-1.48.09A6.28,6.28,0,0,0,111.15,68.42Z"/><path id="_Path_11" data-name="&lt;Path&gt;" class="cls-3" d="M91.34,62.23c-3-1.83-7.87-5.15-12.37-4.45s-6.38,7.64-6.38,7.64a12.9,12.9,0,0,1,8.3-2.81c4.69.28,9,2.2,10.78,2.48S94.39,64.06,91.34,62.23Z"/><path id="_Path_12" data-name="&lt;Path&gt;" class="cls-3" d="M94,102.13l-.38.1h-.09l-.07,0h-.1l-.23,0h0a13.84,13.84,0,0,0,3.46,1.47,10.29,10.29,0,0,1-1.45-1.86h0l.15-.06-.72.13Z"/><path id="_Path_13" data-name="&lt;Path&gt;" class="cls-3" d="M103,102a2.37,2.37,0,0,0-.42-.13l-.21,0-.35-.06,0,.21a6.51,6.51,0,0,1-.92,2.07,4.52,4.52,0,0,0,2.9-1.69l.09-.16a6.5,6.5,0,0,1-.88-.11A.6.6,0,0,0,103,102Z"/><path id="_Path_14" data-name="&lt;Path&gt;" class="cls-5" d="M101.11,92.35a12.17,12.17,0,0,0,7.21-2.47s-4.37-.07-8.92,0-8.29,0-8.29,0C91.86,91.27,96.36,92.6,101.11,92.35Z"/><path id="_Path_15" data-name="&lt;Path&gt;" class="cls-5" d="M97.44,96.72c-3,0-11.22,4-11.22,4a6.26,6.26,0,0,0,3.68,1.52,13.55,13.55,0,0,0,3.24.08h0l.23,0h.1l.07,0h.09l.38-.1.57-.14.72-.13a23.44,23.44,0,0,1,6.23-.2l.33,0,.19,0,.35.06.21,0a2.37,2.37,0,0,1,.42.13.6.6,0,0,1,.17.08,6.5,6.5,0,0,0,.88.11,10.57,10.57,0,0,0,2.69-.22,4.65,4.65,0,0,0,3.1-2s-5-2.69-7.49-3.2A4,4,0,0,1,97.44,96.72Z"/><path id="_Path_16" data-name="&lt;Path&gt;" class="cls-5" d="M94.41,109.21c2.76,3.53,6.4,3.72,8.79.27A14.45,14.45,0,0,1,94.41,109.21Z"/></g></g></g></g></svg>