<svg xmlns="http://www.w3.org/2000/svg" viewBox="0 0 180 180"><title>red</title><circle cx="90" cy="90" r="90" fill="#3ad7a4"/><path d="M126.181,48.152a15.611,15.611,0,0,0-1.114-4.407A23.523,23.523,0,0,1,126.181,48.152Z" fill="none"/><path d="M111.111,128.763c-.006.91-.014,1.714-.025,2.334-.07,3.84,1.984,19.465-17.449,23.575C73.592,158.912,56.324,136,60.779,129.508a7.857,7.857,0,0,0,.554-.983l-41.654,17.64a90,90,0,0,0,138.413,2.689L111.14,128.586C111.132,128.644,111.122,128.7,111.111,128.763Z" fill="#091440"/><path d="M93.637,154.672c19.433-4.11,17.379-19.735,17.449-23.575.011-.62.019-1.425.025-2.334-.326,1.8-2.006,4.5-9.323,3.908-10.122-.819-17.674-8.134-23.327-14.817.413.223.837.442,1.282.656,11.863,5.7,15.548,6.875,20.84,8.143a30.313,30.313,0,0,0,10.535.316v.3h0v-.3c3.728-.546,7.149-1.854,8.581-4.294a19.341,19.341,0,0,0,1.89-4.208,37.1,37.1,0,0,1,2.662-6.719c1.754-3.317,3.933-9.679,4.049-20.919-.313-8.733-.151-12.712-.209-14.313-.044-1.234,1.054-4.326,1.514-7.012.2-1.056-.794-2.416-4.467-3.114s-6.919.063-9.132.327c-1.987.237,1.055-4.648,2.786-5.043s6.666-.311,8.7.828a4.972,4.972,0,0,1,1.921,2.168c-.471-1.949-1.294-4.182-2.068-8.249-.39-2.05-.6-4.272-.9-6.456-.014.153-.016.3-.031.45-.068-.765-.143-1.524-.24-2.266a23.523,23.523,0,0,0-1.114-4.407,7.2,7.2,0,0,0-1-1.628s-5.857,1.91-16.649-2.367-21.749-4.816-27.55-.179c-6.353,5.078-2.213,15.45-2.213,15.45S74.7,57.828,73.118,66.838a69.5,69.5,0,0,0-1.09,15.4s-1.587.2-3.524.436c-1.585-5.883-4.589-11.546-9.359-10.755a5.625,5.625,0,0,0-2.932,1.439c-1.681,1.572-2.735,4.519-1.717,9.575,1.369,6.8,3.9,13.309,7.3,14.645a6.413,6.413,0,0,0,2.151.446c.159,3.805.8,23.518-2.611,30.5a7.857,7.857,0,0,1-.554.983C56.324,136,73.592,158.912,93.637,154.672ZM94.8,70.833a2.559,2.559,0,0,1-.885,3.6l-3-.281a2.572,2.572,0,0,1-.9-1.929,2.539,2.539,0,0,1,.025-.261c-1.4.389-2.8.826-4.261,1.33a10.267,10.267,0,0,1,3.386-2.7A16.164,16.164,0,0,1,93.242,69.1a9.914,9.914,0,0,1,2.267-.258,4.734,4.734,0,0,1,2.41.646,4.968,4.968,0,0,1,1.568,1.74,4.473,4.473,0,0,0,1.322,1.524,3.406,3.406,0,0,1-2.047-.87,5.385,5.385,0,0,0-1.553-1.011A5.076,5.076,0,0,0,94.8,70.833Zm17.583,39.743c-2.891-.028-3.858-3.211-3.858-3.211s5.725,1.305,8.479.222C117.424,108.425,115.269,110.6,112.379,110.576Zm7.386-7.494a51.448,51.448,0,0,1-6.165.5c-2.132-.061-5.039-.738-7.037-.847-3.981-.217-6.854.452-8.439.3,0,0,7.2-2.646,11.412-2.514,3.02.094,3.511,1.018,4.456,1.053s2.581-1.329,4.583-1.057S119.765,103.082,119.765,103.082Zm-1.114-32.769a7.846,7.846,0,0,1,3.066-.691,5.491,5.491,0,0,1,1.7.261,3.986,3.986,0,0,1,1.5.966,3.243,3.243,0,0,1,.9,3.081,4.766,4.766,0,0,0-1.879-1.849,4.013,4.013,0,0,0-1.049-.374,7.327,7.327,0,0,0-1.17-.085c-.036,0-.075,0-.111.005a2.217,2.217,0,0,1,.192.932,2.578,2.578,0,0,1-1.287,2.241c-.991-.115-2.123-.261-3.158-.427a2.576,2.576,0,0,1-.734-1.783,2.1,2.1,0,0,1,.051-.462c-.161.024-.312.04-.477.069A5.712,5.712,0,0,1,118.651,70.314Zm2.182,18.776c2.07-.827.454,2.539-2.6,4.2s-14.3-1.45-15.2-3.61l3.566.216C110.16,90.111,118.763,89.916,120.833,89.089ZM81.763,65.111c3.715-4.268,10.623-5.168,16.01-4.511s8.147-.052,8.464,1.032.265,5.468-2.972,4.611c-1.987-.526-4.223-.973-10.251-1.092s-13.392,4.581-13.392,4.581A10.364,10.364,0,0,1,81.763,65.111Z" fill="#fff"/><path d="M111.118,126.969a30.313,30.313,0,0,1-10.535-.316c-5.292-1.268-8.977-2.447-20.84-8.143-.445-.214-.869-.433-1.282-.656,5.653,6.684,13.205,14,23.327,14.817,7.318.592,9-2.111,9.323-3.908.011-.06.02-.119.028-.176l-.021-1.32h0Z" fill="#848aa0"/><path d="M68.5,82.673c1.938-.238,3.524-.436,3.524-.436a69.5,69.5,0,0,1,1.09-15.4c1.577-9.01,4.539-11.817,4.539-11.817S73.517,44.648,79.87,39.57c5.8-4.637,16.758-4.1,27.55.179s16.649,2.367,16.649,2.367a7.2,7.2,0,0,1,1,1.628,15.611,15.611,0,0,1,1.114,4.407c.1.741.172,1.5.24,2.266.015-.154.018-.3.031-.45,1.226-13.805-4.324-21.506-15.53-24.52-17.217-4.63-26.646-2.587-36.958,1.516C63.737,31.034,51.63,42.89,54.486,61.587c.707,4.626,1.274,8.522,1.727,11.77a5.625,5.625,0,0,1,2.932-1.439C63.916,71.128,66.919,76.79,68.5,82.673Z" fill="#091440"/><path d="M118.23,93.289c3.057-1.661,4.673-5.026,2.6-4.2s-10.673,1.022-14.239.806l-3.566-.216C103.93,91.839,115.173,94.95,118.23,93.289Z" fill="#848aa0"/><path d="M103.265,66.243c3.237.858,3.289-3.526,2.972-4.611s-3.078-.375-8.464-1.032-12.295.243-16.01,4.511a10.364,10.364,0,0,0-2.142,4.621s7.364-4.7,13.392-4.581S101.279,65.717,103.265,66.243Z" fill="#091440"/><path d="M127.495,62.5c-2.036-1.139-6.97-1.223-8.7-.828s-4.773,5.28-2.786,5.043c2.213-.265,5.449-1.026,9.132-.327s4.666,2.058,4.467,3.114v.008a5.581,5.581,0,0,0-.189-4.841A4.972,4.972,0,0,0,127.495,62.5Z" fill="#091440"/><path d="M118.574,100.514c-2-.272-3.637,1.092-4.583,1.057s-1.436-.959-4.456-1.053c-4.212-.131-11.412,2.514-11.412,2.514,1.585.149,4.458-.519,8.439-.3,2,.109,4.906.786,7.037.847a51.448,51.448,0,0,0,6.165-.5S120.576,100.786,118.574,100.514Z" fill="#848aa0"/><path d="M108.52,107.365s.968,3.183,3.858,3.211,5.045-2.151,4.621-2.989C114.245,108.67,108.52,107.365,108.52,107.365Z" fill="#848aa0"/><path d="M116.629,72.591a2.576,2.576,0,0,0,.734,1.783c1.035.166,2.167.312,3.158.427a2.578,2.578,0,0,0,1.287-2.241,2.217,2.217,0,0,0-.192-.932c.036,0,.075,0,.111-.005a7.327,7.327,0,0,1,1.17.085,4.013,4.013,0,0,1,1.049.374,4.766,4.766,0,0,1,1.879,1.849,3.243,3.243,0,0,0-.9-3.081,3.986,3.986,0,0,0-1.5-.966,5.491,5.491,0,0,0-1.7-.261,7.846,7.846,0,0,0-3.066.691A5.712,5.712,0,0,0,116.2,72.2c.165-.029.316-.044.477-.069A2.1,2.1,0,0,0,116.629,72.591Z" fill="#091440"/><path d="M98.762,71.882a3.406,3.406,0,0,0,2.047.87,4.473,4.473,0,0,1-1.322-1.524,4.968,4.968,0,0,0-1.568-1.74,4.734,4.734,0,0,0-2.41-.646,9.914,9.914,0,0,0-2.267.258,16.164,16.164,0,0,0-4.074,1.489,10.267,10.267,0,0,0-3.386,2.7c1.457-.5,2.863-.941,4.261-1.33a2.539,2.539,0,0,0-.025.261,2.572,2.572,0,0,0,.9,1.929l3,.281a2.559,2.559,0,0,0,.885-3.6,5.076,5.076,0,0,1,2.413.037A5.385,5.385,0,0,1,98.762,71.882Z" fill="#091440"/></svg>