<svg xmlns="http://www.w3.org/2000/svg" xmlns:xlink="http://www.w3.org/1999/xlink" viewBox="1776 1638 180 180"><defs><style>.a{clip-path:url(#a);}.b{fill:#6ed3f3;}.c,.f{fill:#091440;}.d{fill:#fff;}.e{clip-path:url(#c);}.f{opacity:0.5;}</style><clipPath id="a"><circle cx="90" cy="90" r="90"/></clipPath><clipPath id="c"><path d="M62.2,95.2s.7,17.2.1,21.9c-1.3,8.9-3.4,11.5-3.7,13.8-.9,6.2.3,9.2,3.3,14.8,4.2,7.8,14.3,15.5,25.8,15.6,25.4.2,24.2-19.3,24.5-25.7.6-11.8.2-26.4.2-26.4Z"/></clipPath></defs><g transform="translate(1776 1638)"><g class="a"><circle class="b" cx="90" cy="90" r="90"/></g><g class="a"><path class="c" d="M176.5,214.2H3.5V156.3l60.7-31.6,48.1,4.6,64.2,34Z"/><path class="d" d="M62.2,95.2s.7,17.2.1,21.9c-1.3,8.9-3.4,11.5-3.7,13.8-.9,6.2.3,9.2,3.3,14.8,4.2,7.8,14.3,15.5,25.8,15.6,25.4.2,24.2-19.3,24.5-25.7.6-11.8.2-26.4.2-26.4Z"/><g class="e"><path class="f" d="M70.6,101.2c5.7,18.3,22,31.6,32.8,32.4s15-6.7,15-6.7l-3.7-9.6Z"/></g><path class="d" d="M61.4,89.2S72.7,114,88.6,120.9c10.9,4.7,15.6,4.4,19.7,2.2s12.5-5.7,15.4-17.4c2.8-11.7,2.3-15.4,3.4-31s1.2-30.1-11.2-43.5-39.7-4-47,5.3-8.4,25.3-7,32.5S61.4,89.2,61.4,89.2Z"/><path class="f" d="M113.2,58.5c-.9,1.5-1.9,3.6,4.9,2.4,6.7-1.2,8.5,3.2,8.5,3.2s.8-5.7-4.8-6.6S113.9,57.4,113.2,58.5Z"/><path class="f" d="M94.1,60.6c-1.6-2.4-4.2-2.9-8.9-2-3,.5-5.5,1.6-6.9,7.2,0,0,3.9-3.2,6.7-3.5S96.3,64,94.1,60.6Z"/><path class="c" d="M112.5,69.6a2.8,2.8,0,0,1,.1-.6,2.092,2.092,0,0,1,.4-.6,4.62,4.62,0,0,1,.7-.7,8.794,8.794,0,0,1,1-.6,5.638,5.638,0,0,1,1.2-.4c.4-.1.9-.1,1.3-.2a5.7,5.7,0,0,1,1.3.1,5.853,5.853,0,0,1,1.3.2l1.2.3a7.475,7.475,0,0,1,2,.9,4.879,4.879,0,0,1,1.3,1c.3.3.3.5.3.5a3.224,3.224,0,0,0-.6-.2c-.4-.1-.9-.2-1.4-.3-.6-.1-1.3-.2-2-.3a22.3,22.3,0,0,1-2.3-.4,17.96,17.96,0,0,0-2.2-.2,3.083,3.083,0,0,0-1,.1,2.92,2.92,0,0,0-.9.2,4.874,4.874,0,0,0-.7.3,2.186,2.186,0,0,0-.5.3A2.826,2.826,0,0,0,112.5,69.6Z"/><path class="c" d="M94.5,71a2.475,2.475,0,0,0-.6-.4c-.4-.2-.9-.5-1.5-.8a5.091,5.091,0,0,0-2.2-.5,4.869,4.869,0,0,0-1.2.1h-.3l-.4.1a1.854,1.854,0,0,0-.7.2,6.468,6.468,0,0,0-1.3.4c-.4.2-.9.3-1.3.5-.8.3-1.6.7-2.3.9-1.4.6-2.3.9-2.3.9a12.105,12.105,0,0,1,1.8-1.8,8.65,8.65,0,0,1,1-.7,12.75,12.75,0,0,1,1.2-.7c.4-.2.9-.5,1.3-.7a8.8,8.8,0,0,1,1.5-.5c.3-.1.6-.1.8-.2l.4-.1h.5a8.083,8.083,0,0,1,1.6.1,5.783,5.783,0,0,1,1.4.5A10.539,10.539,0,0,1,93,69a4.89,4.89,0,0,1,1.2,1.5A5.2,5.2,0,0,1,94.5,71Z"/><path class="c" d="M80.3,69.6a7.126,7.126,0,0,1,1.2-1.1,14.629,14.629,0,0,1,1.3-.9c.5-.3,1.1-.6,1.7-.9a12.665,12.665,0,0,1,1.8-.6,11.046,11.046,0,0,1,1.6-.3h1.6a1,1,0,0,0-.4.1,8.113,8.113,0,0,1-1.1.3c-.4.1-.9.3-1.5.5-.5.2-1.1.4-1.7.7-1.1.5-2.2,1-3.1,1.4C80.9,69.3,80.3,69.6,80.3,69.6Z"/><path class="c" d="M113.1,65.9a4.83,4.83,0,0,1,1.7-.8,6.014,6.014,0,0,1,2-.3,9.064,9.064,0,0,1,2.3.1,7.945,7.945,0,0,1,2.2.6,15.044,15.044,0,0,1,1.8.9,6.292,6.292,0,0,1,1.1.8,2.958,2.958,0,0,1,.4.3,4.2,4.2,0,0,0-.5-.2c-.3-.1-.7-.3-1.3-.5-.3-.1-.5-.2-.8-.3s-.6-.2-1-.3a15.985,15.985,0,0,0-2.1-.5c-.4,0-.7-.1-1.1-.1s-.7-.1-1.1-.1a11.483,11.483,0,0,0-1.9.1A10.71,10.71,0,0,0,113.1,65.9Z"/><circle class="c" cx="2.4" cy="2.4" r="2.4" transform="translate(85.3 68)"/><circle class="c" cx="2.4" cy="2.4" r="2.4" transform="translate(114 66.7)"/><path class="f" d="M113.7,89.2s-.4.5-3.4.8-6.9.1-9,.2a22.953,22.953,0,0,1-5-.6s5.6,4.9,12.8,2.7C113.5,91,113.7,89.2,113.7,89.2Z"/><path class="c" d="M118.1,97.1c-.4-.3-.7-.2-.9.1-.7,1.1-.8,1.8-2,1.6a58.446,58.446,0,0,0-7.8-.7,118.9,118.9,0,0,0-13.2,1c-1.4.2-1.3-.7-2-1.9-.2-.3-.4-.4-.9-.1-1.3,1-.7,3.2.6,3.8a.9.9,0,0,0,.5.1c3,.2,8,3.3,14,2.9s5.7-2.7,10.4-2.9a1.952,1.952,0,0,0,.7-.1A2.319,2.319,0,0,0,118.1,97.1Z"/><path class="d" d="M98.2,98.7a27.614,27.614,0,0,0,7.8,1.7,25.34,25.34,0,0,0,7.7-1.8A41.373,41.373,0,0,0,98.2,98.7Z"/><path class="c" d="M69,85.3s4.5-18.2,3.7-25.1c0,0-7.3-8.6-.8-17.3,5.1-6.8,9.9-9.8,23.9-10.5,12.5-.7,19.5,1.5,23.5,5.4,6.2,6.1,6.1,16.6,7.1,28.9.3,5.5.3,13.9.3,13.9s3.8-16.5.8-33.7c-1.9-11.2-9.6-17.8-16-22s-25.6-8.7-42.9,2C54,35.9,54.5,53.6,54.8,60.6s1.1,16.8,2.3,20.1C58.5,84,69,85.3,69,85.3Z"/><path class="d" d="M59.1,71.5c-4.6-.7-6.9,3.2-7.5,7-.3,1.8,0,9.8,5.7,16.2,3.7,4.1,6,6.2,8.8,4.8S66,72.6,59.1,71.5Z"/><path class="f" d="M93.8,99.1a43.789,43.789,0,0,1,12.7-2.2,22.543,22.543,0,0,1,9.9,2.3s-5.5-.6-10.5-.7C101,98.5,93.8,99.1,93.8,99.1Z"/></g></g></svg>