<svg id="illustrations" xmlns="http://www.w3.org/2000/svg" viewBox="0 0 180 180"><defs><style>.cls-1{fill:#6ed3f3;}.cls-2{fill:#091440;}.cls-3{fill:#fff;}.cls-4{fill:#848aa0;}.cls-5{fill:#cbcdd7;}</style></defs><title>dcr_portraits5</title><circle id="_Path_" data-name="&lt;Path&gt;" class="cls-1" cx="90" cy="90" r="90"/><path class="cls-2" d="M153.71,144.35l-38.87-16.78a10.17,10.17,0,0,1-5.59,1.88l-.39,2.83c-.12,1-.23,1.89-.32,2.68-.76,6.76-6.8,14.53-19.34,15.36-9.35.62-16-3.76-20.32-7.67-4.84-4.36-10.5-12.21-9.14-18.58l0-.22c.36-1.33.69-2.72,1-4.14L15,139.72a90,90,0,0,0,140.78,11.72Z"/><path class="cls-3" d="M59.73,124.07c-1.36,6.37,4.31,14.22,9.14,18.58,4.34,3.91,11,8.29,20.32,7.67,12.55-.83,18.58-8.59,19.34-15.36.09-.79.2-1.7.32-2.68v0s-4.79,7.32-16.35,3.07c-8.45-3.11-11.48-13.26-16.44-18.63,3.93,2.54,8.25,4.9,11.39,7.26,7,5.24,10.3,5.58,17.81,5.59,1.56,0,2.86,0,4-.15a10.17,10.17,0,0,0,5.59-1.88c2-1.53,3.73-4.08,7.43-8.2,5-5.58,9-11,9-24.05,0-8-.26-16.41-.54-24.06-1.52-1.61-2.29-3.3-7.26-2.54-2.5.39-6.41.95-6.41.95-1.92-.28-3.77-1.68-2.46-2.57,3.91-2.65,8.09-3.16,12.95-2.77a3.32,3.32,0,0,1,3,2c-.08-2-.16-4-.23-5.79-.1-2.39-.18-4.6-.25-6.54a30,30,0,0,0-3.44-13.79,15.58,15.58,0,0,1-10.46-2.77c-6.51-4.22-11.43-8.33-20.59-10.24-11.72-.17-24.19,2-28.12,8.24-1.9,3-4.44,9.31-2.57,12.47C68.23,53.56,70.1,60,69.14,66.48c-.58,4-1.14,7.68-1.51,10l-3.5.92c-.24-1-2.14-8.66-5.92-9.68h0c-4.06-1.1-8.07,0-7.94,6.12s2.23,21.61,10.48,19.52c1.28-.32,2.32-.62,3.16-.89l.18,1.09a193.29,193.29,0,0,1-3.32,26.16c-.31,1.42-.64,2.81-1,4.14Zm30.65-54a9.61,9.61,0,0,1,4.42,1.33c1.32.72,2.39,1.65,3.61,2.47a17.07,17.07,0,0,1-4.21-1.1,18,18,0,0,0-2.35-.6,2.59,2.59,0,1,1-3.93.06c-.5.09-1,.2-1.51.32a36.62,36.62,0,0,0-4,1.32,9.64,9.64,0,0,1,3.52-2.74A10,10,0,0,1,90.39,70.08Zm28.24,21.84s0,3.49-6.86,4.22c-3.77.4-9.55-2.1-11.31-4C107.07,93.65,112.86,94.3,118.62,91.92ZM85,78.31a4.33,4.33,0,0,1-1.83-1.85,8.69,8.69,0,0,0,4.47,1.67,16.12,16.12,0,0,0,2.41.07l1.24-.08c.41,0,.83-.09,1.27-.09-.38.21-.77.38-1.17.55s-.82.27-1.24.36a8.47,8.47,0,0,1-2.61.15A7.61,7.61,0,0,1,86,78.77L84.4,80.19l.72-1.79Zm-4-3-4.93,1.16C76.91,74.55,81,75.27,81,75.27ZM109.69,108a27.62,27.62,0,0,1-18.41-5.57s9.58-1,14-.68a29.18,29.18,0,0,0,8.36-.3,13.2,13.2,0,0,1,6.55,1S117.43,107.54,109.69,108Zm17-30a6,6,0,0,1-2.11.76,7.15,7.15,0,0,1-2.22,0,5.62,5.62,0,0,1-2.08-.72,23.59,23.59,0,0,0,4.14-.25,11,11,0,0,0,1.95-.49,18.3,18.3,0,0,0,1.93-.83A4.77,4.77,0,0,1,126.66,78Zm-10.31-6a7.74,7.74,0,0,1,4.2-1.94,8.43,8.43,0,0,1,4.56.63,7.38,7.38,0,0,1,3.16,3.17,16,16,0,0,0-3.69-1.76,8.33,8.33,0,0,0-2.28-.22,2.59,2.59,0,1,1-4,.79c-.38.17-.76.36-1.15.57a15.57,15.57,0,0,1-2,.95,4.62,4.62,0,0,1-2.22.29A14.3,14.3,0,0,0,116.35,72ZM76.22,70.26c.15-1.7,2.7-5.55,7.55-6.55S96,65.09,98.41,66.56l-.63,1a3.28,3.28,0,0,1-3.16,1.55,81.22,81.22,0,0,0-9-.5c-6.4,0-9.56,3.31-9.56,3.31Z"/><path class="cls-4" d="M64.12,77.39l3.5-.92c.37-2.3.93-6,1.51-10,1-6.51-.91-12.92-4.26-18.58-1.87-3.16.67-9.48,2.57-12.47,3.93-6.19,16.4-8.41,28.12-8.24,9.15,1.9,14.08,6,20.59,10.24a15.58,15.58,0,0,0,10.46,2.77A30,30,0,0,1,130.05,54c.07,1.95.16,4.15.25,6.54,0,0,0,0,0,0-.31-7.12,8.48-18.47,1-30.18S105,11.05,88.92,11.51,70.49,20,64.74,27.13,51.63,38.25,53.81,49C55,55.05,56.86,62.45,58.2,67.71,62,68.73,63.89,76.36,64.12,77.39Z"/><path class="cls-4" d="M105.27,129.6c-7.51,0-10.83-.35-17.81-5.59-3.15-2.36-7.47-4.72-11.39-7.26,5,5.36,8,15.51,16.44,18.63,11.56,4.26,16.35-3.07,16.35-3.07v0l.39-2.83C108.13,129.56,106.83,129.61,105.27,129.6Z"/><path class="cls-4" d="M111.76,96.14c6.86-.73,6.86-4.22,6.86-4.22-5.77,2.38-11.56,1.73-18.17.18C102.21,94,108,96.54,111.76,96.14Z"/><path class="cls-4" d="M127.55,64.32c-4.86-.39-9,.13-12.95,2.77-1.31.89.54,2.29,2.46,2.57,0,0,3.9-.56,6.41-.95,5-.76,5.75.93,7.26,2.54l0,0a9,9,0,0,0-.22-5A3.32,3.32,0,0,0,127.55,64.32Z"/><path class="cls-4" d="M85.62,68.64a81.22,81.22,0,0,1,9,.5,3.28,3.28,0,0,0,3.16-1.55l.63-1C96,65.09,88.62,62.7,83.77,63.7s-7.4,4.86-7.55,6.55L76.06,72S79.22,68.64,85.62,68.64Z"/><path class="cls-2" d="M87.92,72.23a2.59,2.59,0,1,0,3.93-.06A10,10,0,0,0,90.33,72,12.42,12.42,0,0,0,87.92,72.23Z"/><path class="cls-2" d="M118.34,72.69a2.59,2.59,0,1,0,4-.79c-.51,0-1,0-1.54.09A7.7,7.7,0,0,0,118.34,72.69Z"/><path class="cls-5" d="M124.39,77.79a23.59,23.59,0,0,1-4.14.25,5.62,5.62,0,0,0,2.08.72,7.15,7.15,0,0,0,2.22,0,6,6,0,0,0,2.11-.76,4.77,4.77,0,0,0,1.61-1.51,18.3,18.3,0,0,1-1.93.83A11,11,0,0,1,124.39,77.79Z"/><path class="cls-2" d="M110,106.81a28.11,28.11,0,0,1-13.4-3.72c-3-.34-5.3-.68-5.3-.68A27.62,27.62,0,0,0,109.69,108c7.75-.44,10.55-5.57,10.55-5.57l-2.2.24C117.61,105.15,114.25,106.94,110,106.81Z"/><path class="cls-3" d="M118,102.65c-6.3.71-5.49,1-10.53,1.14a83.83,83.83,0,0,1-10.93-.69,28.11,28.11,0,0,0,13.4,3.72C114.25,106.94,117.61,105.15,118,102.65Z"/><path class="cls-4" d="M113.68,101.43a29.18,29.18,0,0,1-8.36.3c-4.47-.27-14,.68-14,.68s2.29.34,5.3.68a83.83,83.83,0,0,0,10.93.69c5-.19,4.23-.43,10.53-1.14l2.2-.24A13.2,13.2,0,0,0,113.68,101.43Z"/><path class="cls-5" d="M76.06,76.42,81,75.27S76.91,74.55,76.06,76.42Z"/><path class="cls-5" d="M86,78.77a7.61,7.61,0,0,0,1.47.33A8.47,8.47,0,0,0,90.09,79c.42-.09.84-.23,1.24-.36s.79-.34,1.17-.55c-.44,0-.85.05-1.27.09L90,78.21a16.12,16.12,0,0,1-2.41-.07,8.69,8.69,0,0,1-4.47-1.67A4.33,4.33,0,0,0,85,78.31l.16.08-.72,1.79Z"/><path class="cls-4" d="M85.9,71.14a9.64,9.64,0,0,0-3.52,2.74,36.62,36.62,0,0,1,4-1.32c.5-.12,1-.23,1.51-.32A12.42,12.42,0,0,1,90.33,72a10,10,0,0,1,1.52.17,18,18,0,0,1,2.35.6,17.07,17.07,0,0,0,4.21,1.1c-1.22-.81-2.29-1.75-3.61-2.47a9.61,9.61,0,0,0-4.42-1.33A10,10,0,0,0,85.9,71.14Z"/><path class="cls-4" d="M115.21,74.21a15.57,15.57,0,0,0,2-.95c.39-.22.78-.4,1.15-.57a7.7,7.7,0,0,1,2.41-.7c.52,0,1-.08,1.54-.09a8.33,8.33,0,0,1,2.28.22,16,16,0,0,1,3.69,1.76,7.38,7.38,0,0,0-3.16-3.17,8.43,8.43,0,0,0-4.56-.63,7.74,7.74,0,0,0-4.2,1.94A14.3,14.3,0,0,1,113,74.5,4.62,4.62,0,0,0,115.21,74.21Z"/></svg>