<svg xmlns="http://www.w3.org/2000/svg" xmlns:xlink="http://www.w3.org/1999/xlink" viewBox="5817 1520 180 180"><defs><style>.a{clip-path:url(#a);}.b{fill:#3ad7a4;}.c,.e{fill:#091440;}.d{fill:#fff;}.e{opacity:0.5;}</style><clipPath id="a"><circle cx="90" cy="90" r="90"/></clipPath></defs><g transform="translate(5614 856)"><g transform="translate(203 664)"><g class="a"><circle class="b" cx="90" cy="90" r="90"/></g><g class="a"><path class="c" d="M157,201.7H3V150.2l55.4-29.6,41.4,5.6L157,156.4Z"/><path class="c" d="M129,43.1l-2.2-12.5-5.6,3.5v2.7Z"/><path class="d" d="M129.9,44.3c-6.1-11.7-10.1-13.3-18.6-15.2-13.2-3-13.8-5.8-31.1,2-3.4,2.4-7,9.6-8.2,14.2C68.8,57.2,61.5,69.4,61.5,69.4l.6,2.3L63.4,94H62.1c.3,12.7-2.3,25.1-3.5,26.6-.3.4-.2,7.6,9.1,17.9s28.3,8.1,35.8-6.9h0c.1-.7,1.3-7.4,1.5-8.1,2,.1,6.7-.2,9.4-2.1,4-2.8,6-11.5,7.3-14.2,4.1-8.8,5.9-15.4,7.8-27.4C131.4,67.6,132.7,53.3,129.9,44.3Z"/><path class="c" d="M123.7,23.5l7.5-1.6s-3.1-.8-5.3-1.6c-7.5-2.8-16.4-8.8-32.4-10-2.4-.2-13.3,1.9-15.1,2.5-2.3,2.7-1.5,3.5-4.1,5.9-3.5,3.2,1.5,5.2-2.7,5.8-3.5,5.1-3.3-8.6-5.7-2.9-19.2,14.8-10.1,44-10.1,44l7.8-2.2,10-25.9,25.6-7.9,15.3,5.7,1.8,6.9s8.5.7,9.7-4.6,8.1-11.1,8.1-11.1Z"/><path class="c" d="M65.1,72.6l5.7,2.8a57.923,57.923,0,0,1,1.7-22.1c1.3-4.7,2.9-8.8,6.4-11.2,8.8-7.1,14.7,0,35.4.2,8.7.1,13.3-2.4,10.7-7.5,0,0-2.9-17.1-25.5-23.5C90.2,8.7,70.6,10,64.2,19.2c-2,2.9,2.1,1.6-.4,4.1-4.4,4.5-5.8,8.4-7.6,13.9-5.4,16.1.7,32.8.7,32.8h0C59,70.8,63.8,65.9,65.1,72.6Z"/><path class="c" d="M81.7,73.2a13.9,13.9,0,0,1,4.1-2.7,13.576,13.576,0,0,1,4.9-1.2,12.221,12.221,0,0,1,5,.8,9.152,9.152,0,0,1,3.9,3.1,19.5,19.5,0,0,0-4.4-1.6,16.32,16.32,0,0,0-4.4-.3A42.163,42.163,0,0,0,81.7,73.2Z"/><path class="e" d="M103.1,65.8c1.4,1.1-3,2.8-3,2.8S88.6,65,84.4,66.3a30.743,30.743,0,0,0-4.2,1.4S81.6,63.3,88,63C94.5,62.8,101.5,64.5,103.1,65.8Z"/><circle class="c" cx="2.7" cy="2.7" r="2.7" transform="translate(87.7 70.5)"/><circle class="c" cx="2.7" cy="2.7" r="2.7" transform="translate(119.2 70.5)"/><path class="c" d="M116.2,73.2a9.847,9.847,0,0,1,3-2,10.592,10.592,0,0,1,3.6-.9,8.341,8.341,0,0,1,3.8.5,5.308,5.308,0,0,1,2.8,2.5,13.133,13.133,0,0,0-3.2-1,17.1,17.1,0,0,0-3.2,0C120.8,72.4,118.6,72.9,116.2,73.2Z"/><path class="e" d="M116.2,69.1h0s10-3,12.1-2.3a11.257,11.257,0,0,1,2.4,1.8c0-3.4-4.1-5.8-5.8-5.6q-.6.15-1.5.3A10.065,10.065,0,0,0,116.2,69.1Z"/><path class="c" d="M96.7,101.6s16.7,2.2,22.8,0C113.1,107.4,105.5,105.9,96.7,101.6Z"/><path class="e" d="M104.8,123.4s-18.1.6-29.2-9.5c0,0,4.4,14.6,27.7,17.6Z"/><circle class="c" cx="2.7" cy="2.7" r="2.7" transform="translate(119.7 70.1)"/><path class="e" d="M103.1,92.1s3.4,5.7,7.6,6.2,6.3-6.1,6.3-6.1Z"/></g></g><path class="c" d="M103.8,68.5H60.9l1.6,4,13.3,1.7V77h2.9v2.8h2.8v2.7H101V80.2h2.8V77h2.8V71.3h5.6V77h2.9v2.7h2.8v2.8h19.6V79.7h2.8V77h2.8V73.8H146V68.5Z" transform="translate(203 664)"/><g transform="translate(203 664)"><rect class="d" width="2.8" height="2.8" transform="translate(78.7 71.4)"/><rect class="d" width="2.8" height="2.8" transform="translate(81.5 74.2)"/><rect class="d" width="2.8" height="2.8" transform="translate(84.3 77)"/><rect class="d" width="2.8" height="2.8" transform="translate(84.3 71.4)"/><rect class="d" width="2.8" height="2.8" transform="translate(87.1 74.2)"/><rect class="d" width="2.8" height="2.8" transform="translate(89.9 77)"/></g><g transform="translate(203 664)"><rect class="d" width="2.8" height="2.8" transform="translate(118.2 71.4)"/><rect class="d" width="2.8" height="2.8" transform="translate(121.1 74.2)"/><rect class="d" width="2.8" height="2.8" transform="translate(123.9 77)"/><rect class="d" width="2.8" height="2.8" transform="translate(123.9 71.4)"/><rect class="d" width="2.8" height="2.8" transform="translate(126.7 74.2)"/><rect class="d" width="2.8" height="2.8" transform="translate(129.5 77)"/></g><path class="d" d="M65.1,72.6h0a11.517,11.517,0,0,0-5.7-7,6,6,0,0,0-5.3.7c-5.7,3.5-4.2,9.1-3.2,14.3a14.869,14.869,0,0,0,6.5,10c2.3,1.5,2,1.1,4.6,1.3V94h1.3Z" transform="translate(203 664)"/></g></svg>