<svg xmlns="http://www.w3.org/2000/svg" viewBox="0 0 180 180"><defs><style>.cls-1{fill:#6ed3f3;}.cls-2{fill:#091440;}.cls-3{fill:#fff;}.cls-4{fill:#848aa0;}</style></defs><title>Asset 6</title><g id="Layer_2" data-name="Layer 2"><g id="illustrations"><g id="_Group_" data-name="&lt;Group&gt;"><circle id="_Path_" data-name="&lt;Path&gt;" class="cls-1" cx="90" cy="90" r="90"/><g id="_Group_2" data-name="&lt;Group&gt;"><path id="_Path_2" data-name="&lt;Path&gt;" class="cls-2" d="M69.91,106.78c.3-5-2.65-13.51-2.65-13.51l-.12.12a.76.76,0,0,0,0-.15,9.07,9.07,0,0,1-7.45-6c-.35-1.18-.64-2.31-.9-3.42-.38,1.2-.79,2.55-1.21,4.1-1.77,6.59-12.17,13-12.17,13a14.53,14.53,0,0,1,2.83,1.72h0s4.49-2.34,6.53-4.51a23.59,23.59,0,0,1-4.2,6.54A24.47,24.47,0,0,1,54,109c3.9,6.17,12.11,5.72,12.11,5.72A12.23,12.23,0,0,0,69.91,106.78Z"/><path id="_Compound_Path_" data-name="&lt;Compound Path&gt;" class="cls-2" d="M90,180a89.92,89.92,0,0,0,74.21-39.07h0l-49.83-19.66a15.44,15.44,0,0,0,4.63-7s.56-.36,1.34-3.23c11.2-1,15.81-7.49,18.31-13-5.76-4.29-11.21-10.45-10.77-19.38s13.2-24.34-1.06-45.52S97.74,19,97.74,19,88,13.32,74.14,21.8,56.37,38.53,53.34,54.24c-1.92,10,1.64,18.92,4.48,24.11a35.08,35.08,0,0,1-.19-6c.23-4.12,2-4.11,3.62-3.48a5.22,5.22,0,0,1,1.47,1l.27.64,2.63,6.51a4.23,4.23,0,0,0,2,2.23c.73.37,2.4.37,2.16-1.12-.81-5-.92-15.62,4.35-21,4.17,1.29,11.8,1.73,15.2-3.89S92,45.18,94.21,39.56s5.69-6.63,5.69-6.63,8.51.72,11.24,6.34S117.65,55,121,58c1.87,1.68,3.34,2.37,4.43,4a17.42,17.42,0,0,0-7.37.92A8.92,8.92,0,0,0,114,65.4c-2.1,2.36,4.32,1,7.46.61a19.64,19.64,0,0,1,5.39.31c0,1.69,0,3.4-.12,5.14-1,16.48-2.69,25.67-4.57,32,.44-2.19.64-4.24.05-5.81-.89-2.4-4.14-4.39-11.77-4.77-1.41-.07-3-.09-4.68,0l-3,.11c-9,.36-13.92,1.13-16.46,3.27-2.81,2.36-.28,7.66.35,13.49a5.6,5.6,0,0,1-4.73,6.54s10.17,12.78,22.54,9.94a22.9,22.9,0,0,0,8.45-3.7l-.45,1.65L110.55,131s-3.5,11.22-20.55,9.39c-18.71-2-24.67-18.05-23.87-25.61L10.45,132.12A90,90,0,0,0,90,180Zm.52-81.15c11-3.55,25.37-2,27.47-1.28.72.23.47,4.75-.91,9.56-2.46,8.56-6.87,11.83-14.93,11.61C92,118.46,90,105,90.52,98.85Z"/><path id="_Compound_Path_2" data-name="&lt;Compound Path&gt;" class="cls-3" d="M90,140.37c17,1.83,20.55-9.39,20.55-9.39l1.84-6.82-1.09,4.06c-2.48,2.8-7.12,4.45-14.37,2.62-10.26-2.58-17.82-13.58-21-23.08h0a103.35,103.35,0,0,0,5.9,8.51,5.6,5.6,0,0,0,4.73-6.54c-.63-5.83-3.16-11.13-.35-13.49,2.54-2.14,7.41-2.91,16.46-3.27-2.32-1-4-2.42-4.27-3-.34-.8,5.35,1.17,8.82,1.13A41.73,41.73,0,0,0,114.86,90c-1.59,1-2.9,2.11-4.45,2.9,7.63.38,10.88,2.37,11.77,4.77.59,1.57.39,3.62-.05,5.81,1.88-6.35,3.61-15.54,4.57-32,.1-1.74.14-3.45.12-5.14a19.64,19.64,0,0,0-5.39-.31c-3.14.4-9.56,1.75-7.46-.61A8.92,8.92,0,0,1,118.06,63a17.42,17.42,0,0,1,7.37-.92c-1.09-1.66-2.56-2.35-4.43-4-3.35-3-7.12-13.14-9.86-18.76S99.9,32.93,99.9,32.93s-3.45,1-5.69,6.63-1.52,8.07-4.91,13.69-11,5.18-15.2,3.89c-5.27,5.43-5.16,16.07-4.35,21,.24,1.49-1.43,1.49-2.16,1.12a4.23,4.23,0,0,1-2-2.23L63,70.57l-.27-.64a5.22,5.22,0,0,0-1.47-1c-1.65-.63-3.39-.64-3.62,3.48a35.08,35.08,0,0,0,.19,6,47.43,47.43,0,0,0,1,5.49c.26,1.11.55,2.24.9,3.42a9.07,9.07,0,0,0,7.45,6,.76.76,0,0,1,0,.15l.12-.12s2.95,8.5,2.65,13.51a12.23,12.23,0,0,1-3.78,8C65.33,122.32,71.29,138.36,90,140.37Zm23-69.32a4.38,4.38,0,0,1,1.25-1.21,7.19,7.19,0,0,1,2.24-1,10.79,10.79,0,0,1,1.35-.25l.66-.05a5.74,5.74,0,0,1,.72,0,9.72,9.72,0,0,1,1.42.12,8.38,8.38,0,0,1,1.35.37,6.08,6.08,0,0,1,2.11,1.31,4.5,4.5,0,0,1,1,1.4,2.44,2.44,0,0,1,.2.62,7.7,7.7,0,0,0-1.86-1.07,9.89,9.89,0,0,0-2-.56c-.34-.06-.7-.1-1.07-.14a1.87,1.87,0,0,1,0,.35,2.53,2.53,0,0,1-5.06,0,1.23,1.23,0,0,1,0-.19c-.25,0-.5.07-.72.12a7.2,7.2,0,0,0-1.44.46,2.59,2.59,0,0,0-.54.3A2.12,2.12,0,0,1,113,71.05Zm-17.39-.44a6.12,6.12,0,0,0-1.45-.51,8.64,8.64,0,0,0-1-.15A9.72,9.72,0,0,0,92,69.88c-.29,0-.6,0-.91,0a2,2,0,0,1,.17.8,2.54,2.54,0,1,1-5.07,0,2.85,2.85,0,0,1,0-.29c-.45.1-.88.2-1.27.31a13.85,13.85,0,0,0-2.1.77,3.18,3.18,0,0,1,.34-.57,5.73,5.73,0,0,1,1.24-1.23,8.51,8.51,0,0,1,2.19-1.16A9.94,9.94,0,0,1,88,68.13a12.8,12.8,0,0,1,1.43-.19h1.43a10.57,10.57,0,0,1,1.39.19,7.32,7.32,0,0,1,1.28.38,5.4,5.4,0,0,1,1.07.56,3.85,3.85,0,0,1,1.26,1.28,1.85,1.85,0,0,1,.25.62A3.07,3.07,0,0,0,95.59,70.61ZM81.74,61.3c2.19-1.18,9.8-.72,13.67,0s4.48,3.37,2.39,3.8c-2.47.5-6.46-.53-10.9.09s-7.18,1.93-9.2,2.1S79.56,62.48,81.74,61.3Z"/><path id="_Path_3" data-name="&lt;Path&gt;" class="cls-4" d="M76,107.76h0c3.16,9.5,10.72,20.5,21,23.08,7.25,1.83,11.89.18,14.37-2.62l1.09-4.06.45-1.65a22.9,22.9,0,0,1-8.45,3.7c-12.37,2.84-22.54-9.94-22.54-9.94A103.35,103.35,0,0,1,76,107.76Z"/><path id="_Compound_Path_3" data-name="&lt;Compound Path&gt;" class="cls-3" d="M117.08,107.13c1.38-4.81,1.63-9.33.91-9.56-2.1-.68-16.43-2.27-27.47,1.28C90,105,92,118.46,102.15,118.74,110.21,119,114.62,115.69,117.08,107.13Zm-11.14-9c7.52.34,9.43,1,10.38.8l1-.18s-1.74,1.12-3.6,2.13-3.7,3-8.86,2.92-8.54-1.85-12.47-4A42.58,42.58,0,0,1,105.94,98.12Zm7.13,9.64c-2.68,4.73-4.18,5.44-7.73,5.28s-6.48-3.07-6.94-4.73C98.4,108.31,107,109.57,113.07,107.76Z"/><path id="_Path_4" data-name="&lt;Path&gt;" class="cls-2" d="M114.69,70.89c.22,0,.47-.08.72-.12a1.23,1.23,0,0,0,0,.19,2.53,2.53,0,0,0,5.06,0,1.87,1.87,0,0,0,0-.35c.37,0,.73.08,1.07.14a9.89,9.89,0,0,1,2,.56,7.7,7.7,0,0,1,1.86,1.07,2.44,2.44,0,0,0-.2-.62,4.5,4.5,0,0,0-1-1.4A6.08,6.08,0,0,0,122,69.05a8.38,8.38,0,0,0-1.35-.37,9.72,9.72,0,0,0-1.42-.12,5.74,5.74,0,0,0-.72,0l-.66.05a10.79,10.79,0,0,0-1.35.25,7.19,7.19,0,0,0-2.24,1A4.38,4.38,0,0,0,113,71.05a2.12,2.12,0,0,0-.27.6,2.59,2.59,0,0,1,.54-.3A7.2,7.2,0,0,1,114.69,70.89Z"/><path id="_Path_5" data-name="&lt;Path&gt;" class="cls-2" d="M94.61,69.06a5.4,5.4,0,0,0-1.07-.56,7.32,7.32,0,0,0-1.28-.38,10.57,10.57,0,0,0-1.39-.19H89.44a12.8,12.8,0,0,0-1.43.19,9.94,9.94,0,0,0-1.35.37,8.51,8.51,0,0,0-2.19,1.16,5.73,5.73,0,0,0-1.24,1.23,3.18,3.18,0,0,0-.34.57,13.85,13.85,0,0,1,2.1-.77c.39-.11.82-.21,1.27-.31a2.85,2.85,0,0,0,0,.29,2.54,2.54,0,1,0,5.07,0,2,2,0,0,0-.17-.8c.31,0,.62,0,.91,0a9.72,9.72,0,0,1,1.11.07,8.64,8.64,0,0,1,1,.15,6.12,6.12,0,0,1,1.45.51,3.07,3.07,0,0,1,.53.35,1.85,1.85,0,0,0-.25-.62A3.85,3.85,0,0,0,94.61,69.06Z"/><path id="_Path_6" data-name="&lt;Path&gt;" class="cls-2" d="M77.7,67.25c2-.17,4.77-1.48,9.2-2.1s8.43.41,10.9-.09c2.09-.43,1.49-3.13-2.39-3.8s-11.48-1.14-13.67,0S75.68,67.42,77.7,67.25Z"/><path id="_Path_7" data-name="&lt;Path&gt;" class="cls-4" d="M107.24,91.13c-3.47,0-9.16-1.93-8.82-1.13.23.55,2,2,4.27,3l3-.11c1.73,0,3.27,0,4.68,0,1.55-.79,2.86-2,4.45-2.9A41.73,41.73,0,0,1,107.24,91.13Z"/><path id="_Compound_Path_4" data-name="&lt;Compound Path&gt;" class="cls-2" d="M113.68,100.87c1.86-1,3.6-2.13,3.6-2.13l-1,.18c-.95.17-2.86-.46-10.38-.8a42.58,42.58,0,0,0-13.59,1.63c3.93,2.19,7.3,3.93,12.47,4S111.83,101.88,113.68,100.87Zm-9.2-2a49.57,49.57,0,0,1,7.88.49,12.54,12.54,0,0,1-7.54,2.36,12.31,12.31,0,0,1-7.57-2.28S100.79,99,104.48,98.87Z"/><path id="_Path_8" data-name="&lt;Path&gt;" class="cls-3" d="M112.36,99.36a49.57,49.57,0,0,0-7.88-.49c-3.69.14-7.23.57-7.23.57a12.31,12.31,0,0,0,7.57,2.28A12.54,12.54,0,0,0,112.36,99.36Z"/><path id="_Path_9" data-name="&lt;Path&gt;" class="cls-2" d="M98.4,108.31c.46,1.66,3.4,4.57,6.94,4.73s5-.55,7.73-5.28C107,109.57,98.4,108.31,98.4,108.31Z"/></g></g></g></g></svg>