<svg xmlns="http://www.w3.org/2000/svg" xmlns:xlink="http://www.w3.org/1999/xlink" viewBox="2013 1638 180 180"><defs><style>.a{clip-path:url(#a);}.b{fill:#3ad7a4;}.c,.f{fill:#091440;}.d{fill:#fff;}.e{clip-path:url(#c);}.f{opacity:0.5;}</style><clipPath id="a"><circle cx="90" cy="90" r="90"/></clipPath><clipPath id="c"><path d="M83.3,150.9c-18.2-1.4-25.6-17.6-23.5-31.3,0,0,3.7-8.6,4.3-34.3l50,7.2-1.4,33.2C112.6,138.2,106.8,152.7,83.3,150.9Z"/></clipPath></defs><g transform="translate(2013 1638)"><g class="a"><circle class="b" cx="90" cy="90" r="90"/></g><g class="a"><path class="c" d="M174.1,209.2H1V151.3l58.7-31.7,53.3,1.1,61.1,30.6Z"/><path class="d" d="M83.3,150.9c-18.2-1.4-25.6-17.6-23.5-31.3,0,0,3.7-8.6,4.3-34.3l50,7.2-1.4,33.2C112.6,138.2,106.8,152.7,83.3,150.9Z"/><g class="e"><path class="f" d="M70.8,104.1c6.5,14.7,10.6,25.3,24.9,28.8,22.3,5.5,22.5-9.6,17.2-17.5C107.6,107.6,70.8,104.1,70.8,104.1Z"/></g><path class="d" d="M104.3,123c9.5,0,13.4-4.9,16.9-14.5A78.06,78.06,0,0,0,125,75.8c-.9-7.4.1-20.6-.4-29-.5-8.5-8.8-25-31.3-19.2S70.5,34.7,65.9,44.9C61.2,55.1,61.2,79,61.5,85.3s11.9,25.4,24.2,32.5S104.3,123,104.3,123Z"/><path class="c" d="M61.1,36.2,57.2,43l1.8-.8s-3.8,14.1-.1,24.1l9.7,15.9s-3.5-19.1-.3-23.4c4.2-5.7,5.2-3.9,5.3-13.1S79.3,35.6,82.4,35c3.2-.6,10.6,4.1,10.6,4.1l-3.3-4.3s16,4.9,20.9,5.4l-5.8-3.3s12.1,2.4,16,3.6,3.9,15.4,3.9,15.4,2.2-9.2,1.3-16.7a32.967,32.967,0,0,0-5-13.3l3.8-.1-8-4.4,3.2-1.6c-4.5-1.1-20-9.3-39.9-3.2A28.624,28.624,0,0,0,63.4,29.9a26.371,26.371,0,0,1-2.3,3.5l-2.3,3.1,2.3-.3Z"/><circle class="c" cx="2.6" cy="2.6" r="2.6" transform="matrix(1, -0.017, 0.017, 1, 86.85, 67.442)"/><path class="d" d="M93.5,68l-8.2,1.7V68.2s.4-1.8.6-1.6c.1.2,7.6.8,7.6.8Z"/><path class="c" d="M83.3,71.4A7.2,7.2,0,0,1,85,69.7a10.3,10.3,0,0,1,4.9-1.9,7.569,7.569,0,0,1,1.5-.1,7.719,7.719,0,0,1,1.5.2c.5.1.9.3,1.3.4a4.129,4.129,0,0,1,1.1.7,4.358,4.358,0,0,1,1.1,1.5.979.979,0,0,1,.1.7l-.5-.5a6.013,6.013,0,0,0-1.4-.7,2.959,2.959,0,0,0-1-.2,3.75,3.75,0,0,0-1.1-.1H91.3c-.3,0-.9.1-1.3.1a27.57,27.57,0,0,0-4.7,1A20.322,20.322,0,0,0,83.3,71.4Z"/><path class="f" d="M96.8,89.6a7.546,7.546,0,0,0,6.6,4.1c8.7.6,9.5-3.6,9.5-3.6S101.9,90.8,96.8,89.6Z"/><path class="c" d="M96.3,64.6c-2.2-1.3-7.8-4.2-11.9-4.1s-6.3,5.7-5.1,6.2a7.128,7.128,0,0,1,5.2-3.1c3.5-.3,8,1.9,10,2.3S96.3,64.6,96.3,64.6Z"/><path class="c" d="M111.1,64.5c1.7-1.4,6-4.6,9.1-4.6s5,5.5,4.1,6c0,0-1.4-2.8-4.1-3s-5.1,2.1-6.6,2.5A2.527,2.527,0,0,1,111.1,64.5Z"/><ellipse class="c" cx="2.2" cy="2.6" rx="2.2" ry="2.6" transform="matrix(1, -0.017, 0.017, 1, 113.748, 67.636)"/><path class="d" d="M119,70.2l-.7-.3a2.5,2.5,0,0,0-2.6-.8,3.413,3.413,0,0,0-2.2,1.2,20.236,20.236,0,0,1-.4-2.6c.1-.1,1-.7,1-.7s1.6-.5,2,0a20.136,20.136,0,0,0,2.7,1.5Z"/><path class="c" d="M123,72.8s-.7-.4-1.7-1c-.5-.3-1-.6-1.6-.9a3.552,3.552,0,0,0-.9-.4l-.9-.3a2.92,2.92,0,0,0-.9-.2h-1c-.3,0-.6.1-.9.1a1.884,1.884,0,0,0-.8.2,6.373,6.373,0,0,0-.7.2c-.2.1-.4.1-.6.2a4.2,4.2,0,0,0-.5.2,5.2,5.2,0,0,1,.3-.5c.1-.1.2-.3.4-.5.1-.2.4-.4.6-.6a3.49,3.49,0,0,1,.9-.6,2.1,2.1,0,0,1,1.1-.4,5.067,5.067,0,0,1,1.3-.2,5.853,5.853,0,0,1,1.3.2,6.136,6.136,0,0,1,2.3,1.1,10.607,10.607,0,0,1,1.5,1.5A8.959,8.959,0,0,1,123,72.8Z"/><path class="d" d="M92.5,71.8a36.306,36.306,0,0,1-6.1.1c-3.9-.2,3.1,2.3,3.1,2.3Z"/><path class="d" d="M112.9,71.9a23.4,23.4,0,0,0,5.2.3c1,0,1.3.7-2.7,2.1Z"/><path class="c" d="M103.5,94.9c1.4,2.9-10.3,5.7-12.6,6.5,0,0-1.4,15,12,15.1,11.5.1,11.4-15.4,11.4-15.4-2.6-2.7-6.9-2.9-8.1-5.2-1.7-3.4,3.5-3.2,5.7-2.7,4.7,1,7,1.6,8.5,4.4s.3,11.7.1,15.6-3,9.7-7,12c-5.1,2.9-14.7,6.8-24-.4-9.4-7.2-7.8-21.5-5.5-26.2,2.3-4.6,5.5-4.6,9.4-5.5C98.4,92.2,102.2,92.2,103.5,94.9Z"/><path class="c" d="M103,115.3c4.1-.3,5.2-2.8,6.2-5s-1.6-1.2-5.4-1.2c-3.8.1-8.4-1.4-7.3,1.4C97.5,113.1,99.8,115.6,103,115.3Z"/><path class="f" d="M93,102.5a53.6,53.6,0,0,0,10.4,1.4,32.66,32.66,0,0,0,9.4-1.7s-4.6-3.4-6.9-2.2c-2.8,1.6-3.2,0-4.3,0C100.6,99.9,93,102.5,93,102.5Z"/><path class="c" d="M79.9,66.2s3.9-.1,9.8-.2c1.5,0,3.1-.1,4.8-.1h2.7a4.338,4.338,0,0,1,2.7,1.5,3.825,3.825,0,0,1,.7,3.1c-.1.3-.1.5-.2.8l-.5.7c-.2.4-.4.9-.6,1.3L98.1,76l-.1.3v.2l-.1.2a1.794,1.794,0,0,1-.5.7,4.125,4.125,0,0,1-1.3,1,4.707,4.707,0,0,1-1.6.4H90.1c-1.9,0-3.8.1-5.7.1H80.2L80,79h-.3c-.3,0-.5-.1-.7-.1a4.145,4.145,0,0,1-2.2-1.7,5.023,5.023,0,0,1-.5-1.3c0-.2-.1-.4-.1-.6v-.6c0-1.5,0-2.8-.1-4v-.8a2.388,2.388,0,0,1,.2-.9,4.678,4.678,0,0,1,.8-1.4A3.816,3.816,0,0,1,79,66.5a1.759,1.759,0,0,1,.6-.1C79.8,66.2,79.9,66.2,79.9,66.2Zm0,1a2.8,2.8,0,0,0-.6.1,2.918,2.918,0,0,0-1.4.8,3.328,3.328,0,0,0-.6,1,1.483,1.483,0,0,0-.1.7v.8c0,1.2,0,2.5.1,4v.6a.9.9,0,0,0,.1.5,3.552,3.552,0,0,0,.4.9,2.622,2.622,0,0,0,1.6,1.3,9.246,9.246,0,0,0,2.4.1,24.369,24.369,0,0,0,2.7-.1c1.8,0,3.7-.1,5.7-.1a28.1,28.1,0,0,0,2.9-.1h1.5a2.663,2.663,0,0,0,1.2-.3,3.592,3.592,0,0,0,1-.7c.1-.2.2-.3.3-.5l.1-.2.1-.1.1-.3,1.2-2.7c.2-.4.4-.9.6-1.3l.3-.7c.1-.2.1-.4.2-.6a2.47,2.47,0,0,0-.5-2.2A3.113,3.113,0,0,0,97.3,67H94.8c-1.7,0-3.3,0-4.8.1C83.8,67.1,79.9,67.2,79.9,67.2Z"/><path class="c" d="M64.2,69l12.6,1.2-.4,2.6L64,69.9Z"/><path class="c" d="M124.6,69.6l3.4.3-.3,1.4-3.1-.5Z"/><path class="c" d="M124.1,66.4s-3.6.1-9,.3c-1.3,0-2.8.1-4.3.1a3.75,3.75,0,0,0-1.1.1l-.9.3a4.349,4.349,0,0,0-.7.6,1.381,1.381,0,0,0-.3.4c-.1.1-.1.3-.2.4a2.8,2.8,0,0,0,.2,2c.3.8.7,1.6,1,2.4a25.569,25.569,0,0,1,1.1,2.4,8.794,8.794,0,0,0,.6,1,2.361,2.361,0,0,0,.9.6,3.6,3.6,0,0,0,1.1.2h4c1.8,0,3.5,0,5.2-.1h2.5a2.805,2.805,0,0,0,1.9-.7,2.6,2.6,0,0,0,.9-1.6,13.334,13.334,0,0,0,0-2c0-1.3,0-2.6-.1-3.7a2.65,2.65,0,0,0-1-2.1,3.653,3.653,0,0,0-1.4-.7h-.4Zm0-1h.2a1.087,1.087,0,0,1,.5.1,4.014,4.014,0,0,1,1.9.9,3.79,3.79,0,0,1,1.3,2.9c0,1.1,0,2.3.1,3.7a16.076,16.076,0,0,1,0,2.2,4.187,4.187,0,0,1-1.3,2.2,3.458,3.458,0,0,1-1.2.7,2.954,2.954,0,0,1-1.3.2,21.751,21.751,0,0,0-2.5.1c-1.7,0-3.4.1-5.2.1a24.369,24.369,0,0,0-2.7.1h-1.4a4.012,4.012,0,0,1-1.5-.3,3.805,3.805,0,0,1-1.3-.9,4.58,4.58,0,0,1-.8-1.3l-1.2-2.4a16.651,16.651,0,0,0-1.2-2.3,3.894,3.894,0,0,1-.2-3c.1-.2.2-.5.3-.7s.3-.4.4-.6a3.126,3.126,0,0,1,1.1-.9,6.944,6.944,0,0,1,1.3-.5c.5-.1.9,0,1.3-.1,1.5,0,3,0,4.3-.1C120.5,65.4,124.1,65.4,124.1,65.4Z"/><path class="c" d="M99.3,70.5l.4-.2c.2-.1.4-1.3.8-1.4a1.419,1.419,0,0,0,1.4.8,7.569,7.569,0,0,1,1.5-.1,6.15,6.15,0,0,1,1.4.1,1.138,1.138,0,0,0,1.4-.8c.4.1.5,1.1.7,1.2a.438.438,0,0,1,.3.1l-.5,1.4a.774.774,0,0,1-.3-.1,3.386,3.386,0,0,0-.8-.3c-.3-.1-.7-.2-1.1-.3a8.5,8.5,0,0,0-2.6,0c-.4.1-.8.2-1.1.3a4.348,4.348,0,0,0-.7.4c-.1.1-.2.1-.2.2Z"/><path class="d" d="M67.6,73.4s-6.4-12.1-11.8-1.5c-4.3,8.5,3,19.8,9,21C70.9,94.1,68.4,80.7,67.6,73.4Z"/></g></g></svg>