<svg xmlns="http://www.w3.org/2000/svg" viewBox="0 0 180 180"><defs><style>.cls-1{fill:#3ad7a4;}.cls-2{fill:#091440;}.cls-3{fill:#fff;}.cls-4{fill:#848aa0;}</style></defs><title>Thiago de Freitas Figueiredo</title><g id="illustrations_c"><circle id="_Path_" data-name="&lt;Path&gt;" class="cls-1" cx="90" cy="90" r="90"/><path class="cls-2" d="M100.11,128.64l-28.57-4.75L18.88,145.16a90,90,0,0,0,136.41,6.78Z"/><path class="cls-3" d="M125.88,54.36a24.29,24.29,0,0,0-1.22-4.46c1.65-5.7.06-11.46-4.48-16.26-5.5-5.82-15.11-11.43-30.71-9.2-13.78,2-22.08,6.2-27.62,17.7-4.79,10-5.13,26-2,36.5-2.07,1.08-3.56,3.45-2.88,7.66C58,93,61.21,99.07,65.74,100.53c.64,8,1,20.45-2.45,29.36-1.09,2.83-1.46,5.86.1,8.47,3.37,5.66,10,15.17,27.88,16.71,14.42,1.25,20.54-13.77,21.51-20.19.31-2.06.69-6.09,1-10.15h.12a9.59,9.59,0,0,0,7.22-5.27c4.59-8.25,5.09-15.42,6.38-24.2s.92-15-.08-19.57.86-5.41.91-10.15C128.43,60.21,127.46,62.64,125.88,54.36Z"/><path class="cls-2" d="M64.18,78c3.5.59,6.77,2.84,7.75,8.76v-.38s3-3.75,2.31-11.28-3.08-13.7.6-19.26-.47-11.4-.47-11.4,5.15-5,16.46-2.84C98,43,103.14,42.68,107.58,40c4.43,2.56,6.77,5.31,10.07,3.23,3.16,2,5.42,2.62,7,6.65,1.65-5.7.06-11.46-4.48-16.26-5.5-5.82-15.11-11.43-30.71-9.2-13.78,2-22.08,6.2-27.62,17.7-4.79,10-5.13,26-2,36.5A7,7,0,0,1,64.18,78Z"/><path class="cls-4" d="M93.91,122.66c-11.47-1.65-17.25-9.82-20.17-18.22h0c4.39,22.62,20.5,29.4,39,30.44.5-3.44.88-7,1.16-10.16C109.21,125.52,102.76,123.94,93.91,122.66Z"/><path class="cls-2" d="M92.45,62.09c3.23.83,8.66,2.86,10.48.9s2.18-2.51-1.82-3.54c-5.77-1.48-9.82-2.21-13.9-1.88s-7.29,5.24-8.54,7.05C87.13,61.4,89.21,61.27,92.45,62.09Z"/><path class="cls-2" d="M126.66,59.51c-2.77-2.2-11.23-.59-13,3.19-1.7,3.58,6.69-.2,10.59-.06,3.53.13,4.26,4,4.26,4S129.43,61.72,126.66,59.51Z"/><path class="cls-4" d="M117.48,87.37c-4.28,1.44-11,1.44-16.37,0a18.68,18.68,0,0,0,6.24,4l.24,0a21.38,21.38,0,0,1,6,0A8.9,8.9,0,0,0,117.48,87.37Z"/><path class="cls-2" d="M90.37,71.29a2.29,2.29,0,0,0-.19.82,2.42,2.42,0,1,0,4.83.2,2.37,2.37,0,0,0-.56-1.64,7,7,0,0,1,1.51.12,8,8,0,0,1,3.29,1.45,5.67,5.67,0,0,0-2.87-2.75,8.57,8.57,0,0,0-4.08-.58A11,11,0,0,0,88.46,70a9.26,9.26,0,0,0-3.1,2.46c1.33-.25,2.5-.61,3.69-.88C89.49,71.48,89.93,71.39,90.37,71.29Z"/><path class="cls-2" d="M123.38,69.93a5.55,5.55,0,0,0-3-.92,6.58,6.58,0,0,0-5.31,2.53c.53,0,1-.11,1.51-.19a2.4,2.4,0,0,0-.16.76,2.42,2.42,0,1,0,4.83.2,2.38,2.38,0,0,0-.3-1.26,8.74,8.74,0,0,1,1.75.28,7.78,7.78,0,0,1,2.39,1.15A3.77,3.77,0,0,0,123.38,69.93Z"/><path class="cls-4" d="M112.1,99.44c-1.69-.31-2.86-1.24-4.62-.77a85.54,85.54,0,0,1-8.79,1.74c5,.26,5.82.26,10.55.26,8.1,0,10.23-.47,10.23-.47a36.28,36.28,0,0,0-3.63-1.51C114.29,98.17,113.79,99.75,112.1,99.44Z"/><path class="cls-2" d="M99.66,116.26c-5.75.79-9.9,3-13.93,3.85,3.94,2.91,19.44,5.65,25.72,5.37,7.2-.33,11.71-6.73,12.76-12.64C116.21,122.08,105.41,115.48,99.66,116.26Z"/><path class="cls-2" d="M107.59,91.34l-.24,0c-4,.57-9.94,2.39-12.66,4.45a5.47,5.47,0,0,0-1.89,5.49A44.41,44.41,0,0,1,113,97.07c2.54.08,5.62,1.41,9.53,3.38-.32-3.2-2.1-8.1-8.9-9.13A21.38,21.38,0,0,0,107.59,91.34Z"/></g></svg>