<svg id="illustrations" xmlns="http://www.w3.org/2000/svg" xmlns:xlink="http://www.w3.org/1999/xlink" viewBox="0 0 180 180"><defs><style>.cls-1{fill:none;}.cls-2{clip-path:url(#clip-path);}.cls-3{fill:#6ed3f3;}.cls-4{fill:#091440;}.cls-5{fill:#fff;}.cls-6{fill:#848aa0;}</style><clipPath id="clip-path"><circle class="cls-1" cx="90" cy="90" r="90"/></clipPath></defs><g class="cls-2"><rect class="cls-3" x="-3.21" y="-0.1" width="184.98" height="178.98"/><ellipse class="cls-4" cx="81.39" cy="164.62" rx="84.67" ry="32.22"/><path class="cls-5" d="M56.37,91.16c1,7.49,3.33,19.11,2.45,23.19s-.31,11.82-9,19.16c0,0-4.57,2.48,1.78,7.91s28,21.23,46.44,17.18,10.13-27.55,8.14-30.35L104.62,123l-33.36-21.1-8-11.47Z"/><path class="cls-5" d="M72.82,55.65c2.11-4.4-1.82-9.35-3.69-13.21-1-2.17-2.13-4.56-1.59-6.92.63-2.79,3.45-4.65,6.27-5.14s5.71.08,8.54.51A82.92,82.92,0,0,0,98,31.78a21.82,21.82,0,0,1,5.42.2,50.47,50.47,0,0,0,5.94,1.34c1.6.17,3.44.26,4.82,1.16a7.88,7.88,0,0,1,2.49,3.12c2.91,5.61,3.94,12,4.93,18.2l.71,4.47a16.44,16.44,0,0,1,.31,3.63c-.14,2.33-1.23,4.48-1.75,6.74-1.21,5.24.66,10.69.52,16.07a37.14,37.14,0,0,1-.79,6.12A178.61,178.61,0,0,1,113.52,119a15.35,15.35,0,0,1-1.88,4,10.87,10.87,0,0,1-3.91,3.16,22,22,0,0,1-12.28,1.95c-9-.92-17.37-5.82-23.39-12.59s-9.84-15.31-11.93-24.13c-3,1.32-6.17-1.5-7.78-4.34a26.72,26.72,0,0,1-3.42-14.21c.08-1.66.39-3.48,1.66-4.55,1.57-1.32,4.07-.92,5.66.36a11.84,11.84,0,0,1,3.21,5.16c.57,1.48,1.58,3.29,3.14,3-.28,0-.14-7.19-.08-7.85a27.16,27.16,0,0,1,1.63-7.61C65.71,57.72,70.88,59.7,72.82,55.65Z"/><path class="cls-4" d="M129.3,26.15a6.45,6.45,0,0,0-3-3,7.25,7.25,0,0,0-1.14-.59c-1.62-.63-3.63-.2-5-1.26a5.57,5.57,0,0,1-1.36-1.81,1.58,1.58,0,0,1-.28-.95c.18-1.19,1.8-.47,2.35-.11a5.7,5.7,0,0,1,2,2.44c.18.42.37.91.8,1.07a5.74,5.74,0,0,0-.28-3.19,8.73,8.73,0,0,0-.52-.82c-.28-.41-.53-.85-.82-1.25a6.52,6.52,0,0,0-2.21-1.93,16.8,16.8,0,0,0-2.8-.81,20.81,20.81,0,0,1-2.37-1.44,10,10,0,0,0-2.76-.94c-2.53-.47-5-1.19-7.57-1.77a24.77,24.77,0,0,0-4.1-.71c-1.5-.08-3,.11-4.52,0-2-.19-4-1-6-1.18-2.73-.27-5.43.55-8,1.36.35-.68.71-1.35,1.07-2Q77.1,9.09,71.53,11.28c-1.72.67-4,1.19-5.51,2.27-1.29.93-1.56,1.71-3.41,1.7H56.37c1.31.73,2.84,1.91,2.47,3.37-.29,1.12-1.54,1.63-2.58,2.13-4.69,2.27-7.41,7.17-9.83,11.78-1.21,2.3-.48,2.65-.88,5.2.77-1.22.51-2.23,1.07-3.57S47.76,33,48.5,33c-3,5.2-3.39,11.54-2.38,17.44a54.08,54.08,0,0,0,2.61,9.33c.81,2.2,1.5,5.24,3.17,7s3.76,2.62,5.28,4.49a16,16,0,0,1,2.13,3.4c.28.6.74,3.28,1.15,3.54a2,2,0,0,0,2.63-1.09,6.39,6.39,0,0,0,.21-3.2,32,32,0,0,1,.49-8.9,7.76,7.76,0,0,1,1.61-3.84c2-2.2,5.88-2,7.68-4.4a6.15,6.15,0,0,0,.51-5.43c-.55-1.81-1.51-3.48-2-5.3a11.45,11.45,0,0,1,9-14.39c6.47-1.12,12.71,3.36,19.27,3.23,4.35-.09,9-2.13,12.8,0,2.42,1.41,3.64,4.18,4.7,6.77,1.95,4.75,3.93,9.67,3.89,14.81a22.5,22.5,0,0,1,.54-3c.17-1.09.31-2.18.41-3.28a60.76,60.76,0,0,0-.09-12.93,14.82,14.82,0,0,1-.43-3.13c.07-.51.14-.49.66-.31a4.89,4.89,0,0,1,1.29.75,11.22,11.22,0,0,1,2.25,2.21,27.94,27.94,0,0,1,1.6,2.74,15.88,15.88,0,0,0,.69-3.57,20,20,0,0,0,.2-3.86,9.93,9.93,0,0,0-2.89-6.78l0,0a2.19,2.19,0,0,1,2.77.85,4.24,4.24,0,0,1,.41,1.69c.08.83.17,1.66.25,2.49A6.55,6.55,0,0,0,129.3,26.15Z"/><path class="cls-4" d="M73.56,64.87C79.88,59.94,87.7,57.41,99,61.64c0,0,1,1.56-4,2.4s-11-1.43-13.24-1S73.56,64.87,73.56,64.87Z"/><path class="cls-4" d="M122.34,60.86c-1.85-1.48-5.83-1.87-7.78-.52a7.9,7.9,0,0,0-2.75,2.73c-.16.31-.25.76,0,1a.85.85,0,0,0,.38.12,15.74,15.74,0,0,0,5.92-.32,5.08,5.08,0,0,1,3.1-.25c.83.36,1.1,1.22,1.81,1.67A3.47,3.47,0,0,0,122.34,60.86Z"/><circle class="cls-4" cx="86.8" cy="69.29" r="2.69"/><circle class="cls-4" cx="113.26" cy="70.02" r="2.69"/><path class="cls-4" d="M80,69.79c3.77-2.26,4.87-3.09,6.59-3.18a14.74,14.74,0,0,1,7.64,2.81s-4.45-2.21-7.61-2A18.33,18.33,0,0,0,80,69.79Z"/><path class="cls-4" d="M109.13,69.21c2.57-1.37,6.43-3,10.26-.39a14.36,14.36,0,0,0-4.82-.91A47.55,47.55,0,0,0,109.13,69.21Z"/><path class="cls-6" d="M94.77,87.32a16.91,16.91,0,0,0,11.29,4.07s-4.47.78-7.22-.28A8.32,8.32,0,0,1,94.77,87.32Z"/><path class="cls-6" d="M106.9,116.14a1.76,1.76,0,0,1-.38-.79,24.55,24.55,0,0,1-.81-5,1.88,1.88,0,0,1,1-.22c.2-1-1-1.65-1.93-1.85a11,11,0,0,0-4.61,0c-.41.1-.89.3-.93.72a1.31,1.31,0,0,0,.18.63c1,2.09-.41,4.75-2.52,5.68a7.4,7.4,0,0,1-6.62-.75A21.65,21.65,0,0,1,85.19,110L73,96.05a54,54,0,0,1-6.78-8.89C64.4,83.9,63,79.08,63.4,75.37c-.22-.37-.45.56-.93.6,0,.56.07.93.13.92a1.79,1.79,0,0,1-1.28-.31c-.22.36-1.56-.83-1.58-.41-.06.88,1.17,3.39,1.24,4.27.18,2,.38,4.1.52,6.12a95.86,95.86,0,0,1,.14,10.17,52.64,52.64,0,0,0,10.42,18.82c6,6.77,14.38,11.67,23.39,12.59a22,22,0,0,0,12.28-1.95,10.87,10.87,0,0,0,3.91-3.16,15.35,15.35,0,0,0,1.88-4q2.85-8,4.92-16.33-4.27,6.36-8.92,12.46C108.87,116,107.63,116.91,106.9,116.14Z"/><path class="cls-6" d="M95.08,92.61a18,18,0,0,0-6.8,2.74,4.88,4.88,0,0,0-2.47,4.82l9-2.4c2.69-.71,5.66-1.4,8.15-.17a6.56,6.56,0,0,0,1.37.64c1.49.38,2.89-.81,4.4-1.07,2-.34,4,1.13,5.11,2.9.28.44.56,1,1.07,1.11.75.23,1.46-.49,1.79-1.21,1-2.2.39-3.35-1.63-5.43a7.14,7.14,0,0,0-3.31-1.85,7,7,0,0,0-4.6.77c-1.47.79-2,.08-3.46-.47C101,91.93,97.93,92.24,95.08,92.61Z"/><path class="cls-6" d="M89.51,101.49c3.91-1.25,5.55-2.19,7.75-2.65s5.61.61,7.53.47,5.11-1.41,8.07,1.49a43.09,43.09,0,0,1-7.94,1.19C101.87,102,89.51,101.49,89.51,101.49Z"/><path class="cls-6" d="M96.87,104.59c4.77,1.2,10.78,1.2,11.71.76s1.72-.88,1.72-.88-1.65,2.73-6.07,2.32A19,19,0,0,1,96.87,104.59Z"/></g></svg>