<svg id="illustrations" xmlns="http://www.w3.org/2000/svg" xmlns:xlink="http://www.w3.org/1999/xlink" viewBox="0 0 180 180"><defs><style>.cls-1{fill:none;}.cls-2{clip-path:url(#clip-path);}.cls-3{fill:#3ad7a4;}.cls-4{fill:#fff;}.cls-5{fill:#091440;}.cls-6{fill:#848aa0;}.cls-7{clip-path:url(#clip-path-2);}</style><clipPath id="clip-path"><circle class="cls-1" cx="90" cy="90" r="90"/></clipPath><clipPath id="clip-path-2"><circle class="cls-1" cx="281.75" cy="90.09" r="90.09"/></clipPath></defs><title>Victor</title><g class="cls-2"><rect class="cls-3" x="-3.3" width="186.13" height="180"/><path class="cls-4" d="M62.83,101.9v19.54l-8.45,7.18v15.7s20.3,13.79,21.44,13.79,21.66-.77,24.24,0,18.54-1.92,18.54-1.92L118,137l-10.22-6.25.64-15.66-34.6-6.07Z"/><path class="cls-5" d="M54.38,128.62c-16.09,4.21-64,14.66-64,14.66L-9,180h191.8V157.44s-29.22-21.72-75.09-26.65c0,0,2.07,20-23.53,18.89S54.38,128.62,54.38,128.62Z"/><path class="cls-6" d="M108.57,115.61l-35.44-3.94c4.74,9.64,17.1,19.08,24.07,18.1,8.12-1.15,10.76-7.22,10.76-7.22Z"/><path class="cls-4" d="M118.57,37.05a9,9,0,0,1,1.69,2c.61.75,1.19,1.53,1.72,2.32a25.31,25.31,0,0,1,3,6,31,31,0,0,1,1.46,7.43,39.24,39.24,0,0,1,.09,4.6c-.07,1.55.74,3,.72,4.61A6.67,6.67,0,0,1,126,67.81a13.62,13.62,0,0,0-2,2.78c-.57,1.56.18,2.84.51,4.3s.64,2.65,1,4c.71,3.08,1.26,6.32.58,9.44-1.22,5.63-7.54,21.34-13.24,29.49s-9,9.31-20,6.79-28.25-16-30.93-21.3c0,0-2.26-7.46-2.38-12.57a3.82,3.82,0,0,1-3.36,1.09c-2-.39-7.94-5.24-10-15.33S47.6,64.64,47.6,64.64l3.21-2.08L57,43.3S74.5,27,75.52,26.81s25.27-.19,25.88,0S118.57,37.05,118.57,37.05Z"/><path class="cls-5" d="M77.49,63.24a31,31,0,0,1,9.83-2.07c2.67-.14,6.92-.39,9.27,1.12a3.53,3.53,0,0,1,1.53,2.28c.76,3.77-4.24,2-6.13,1.59a31.21,31.21,0,0,0-11.91-.35,21.27,21.27,0,0,1-5.14.57,5,5,0,0,1-4.22-2.56,9,9,0,0,0,2.88.58A11.33,11.33,0,0,0,77.49,63.24Z"/><path class="cls-5" d="M111.49,65.21a2.6,2.6,0,0,0,2.26.92c2.83,0,5.73-1.11,8.43-.24,1.6.51,2.69,1.49,4.39,1.12a1.67,1.67,0,0,0,1-.49,1.38,1.38,0,0,0,.23-.51,3.35,3.35,0,0,0-1.77-3.79c-2.4-1.08-5.19-1-7.77-1C116.51,61.17,109.47,61.92,111.49,65.21Z"/><path class="cls-6" d="M94.61,101.44a22.44,22.44,0,0,1,3.48-.36,11.26,11.26,0,0,1,5.57.66,3.74,3.74,0,0,0,1.44.55c1.08,0,1.81-1.08,2.8-1.52a3.32,3.32,0,0,1,1.17-.26c1.43-.12,4.08.19,5,1.47a5,5,0,0,1-2,1,1.62,1.62,0,0,1-.69.12,2.47,2.47,0,0,1-.78-.3,3.07,3.07,0,0,0-3.13.38c-1.06.85-2,.83-3.39.94a6.37,6.37,0,0,1-1.69,0,11.5,11.5,0,0,1-1.78-.65c-3.56-1.4-7-.37-10.69-.59.19-.46,1.69-.53,2.19-.67C92.92,101.91,93.75,101.63,94.61,101.44Z"/><path class="cls-6" d="M109.38,108.34a7.45,7.45,0,0,1-3.65,3,4.33,4.33,0,0,1-1.11.29,6.26,6.26,0,0,1-3.42-1c-.44-.23-2.43-1.18-2.16-1.87s2.6.06,3.14.1a21.89,21.89,0,0,0,3.71,0C106.45,108.86,109.08,108.82,109.38,108.34Z"/><path class="cls-6" d="M62.17,61.46a22.37,22.37,0,0,1-6.25,4.77c1.53,1.39,2.87,3,3.08,4.62.52,4,.26,13.57.52,19.86a52.6,52.6,0,0,0,2.38,12.57s5,6.78,9,9.3c0,0-2.11-4,2.9-3.52l5,.5s-14.26-14.83-15-22.12C63,80.31,62.2,62.27,62.17,61.46Z"/><path class="cls-5" d="M99.13,10.27C80.38,9.77,52.4,31.39,52.4,31.39a69.39,69.39,0,0,0-1.59,31.17s7.24,4,8.11,8c.53-2,1-4.1,1.41-6.18a4.21,4.21,0,0,1,1.88-3c.42-.46,4.75-5.3,5.5-9.12.79-4-3.17-9.55-3.17-9.55,4.49-1.26,15.84-8.55,15.84-8.55s12.68,5.28,18.48,5.53,24.56-1.51,25.35-6.79S117.87,10.77,99.13,10.27Z"/><path class="cls-5" d="M117.25,70.91a2.52,2.52,0,0,1-5,0,2.53,2.53,0,0,1,5,0Z"/><path class="cls-5" d="M109.56,70.93c1.47-1.84,2-2.45,5.46-2.47,5.71,0,8.24,3.25,8.24,3.25a19,19,0,0,0-8.43-2.12C110.27,69.63,109.56,70.93,109.56,70.93Z"/><path class="cls-5" d="M87,70.62a2.52,2.52,0,1,1-5,.39,2.54,2.54,0,0,1,5-.39Z"/><path class="cls-5" d="M75.72,71.74a21.39,21.39,0,0,1,8.55-3.18,15.15,15.15,0,0,1,10.26,3s-6-2.41-10.32-1.89A41.14,41.14,0,0,0,75.72,71.74Z"/><path class="cls-6" d="M98.58,92.43c-.48-2,11.81,1.58,16.94-3.24,0,0,3,4.38-2.07,7.07S99.88,97.87,98.58,92.43Z"/></g><g class="cls-7"><path class="cls-5" d="M243,130.58c-17.54,4.6-67.13,19.09-67.13,19.09l.11,38.69H382.21v-26.8S352.15,134.39,302.12,129c0,0,6.53,23-21.39,23S243,130.58,243,130.58Z"/></g></svg>