<svg xmlns="http://www.w3.org/2000/svg" viewBox="0 0 346.157 45.806">
  <defs>
    <style>
      .cls-1 {
        fill: #ffc84e;
      }
    </style>
  </defs>
  <g id="Group_2641" data-name="Group 2641" transform="translate(0)">
    <path id="Path_1825" data-name="Path 1825" class="cls-1" d="M388.911,933.169H372.64v-5.976l13.728-22.6h10.65v21.954h4.319v6.629h-4.319v8.993h-8.107Zm0-6.629v-6.095c0-2.425.237-6.037.355-8.4h-.237c-.947,2.07-2.012,4.2-3.078,6.331l-4.972,8.164Z" transform="translate(-372.64 -903.876)"/>
    <path id="Path_1826" data-name="Path 1826" class="cls-1" d="M449.11,922.189c0-12.781,5.384-19.349,13.43-19.349s13.434,6.568,13.434,19.349-5.384,19.647-13.434,19.647S449.11,934.971,449.11,922.189Zm18.639,0c0-10.3-2.249-12.6-5.209-12.6-2.9,0-5.209,2.306-5.209,12.6,0,10.238,2.306,12.9,5.209,12.9C465.5,935.089,467.749,932.427,467.749,922.189Z" transform="translate(-417.894 -902.84)"/>
    <path id="Path_1827" data-name="Path 1827" class="cls-1" d="M536.951,933.169H520.68v-5.976l13.728-22.6h10.65v21.954h4.319v6.629h-4.319v8.993h-8.107Zm0-6.629v-6.095c0-2.425.237-6.037.355-8.4h-.237c-.947,2.07-2.013,4.2-3.078,6.331l-4.972,8.164Z" transform="translate(-460.248 -903.876)"/>
    <path id="Path_1828" data-name="Path 1828" class="cls-1" d="M598.01,930.093a5.269,5.269,0,1,1,5.266,5.446A5.262,5.262,0,0,1,598.01,930.093Zm0,19.17a5.269,5.269,0,1,1,5.266,5.446A5.262,5.262,0,0,1,598.01,949.263Z" transform="translate(-506.011 -915.711)"/>
    <path id="Path_1829" data-name="Path 1829" class="cls-1" d="M650.84,962.725c0-4.033,3.217-6.242,10.814-7.017a2.66,2.66,0,0,0-3.025-2.792,10.215,10.215,0,0,0-5.078,1.743L651.5,950.9a15.878,15.878,0,0,1,8.217-2.519c4.923,0,7.638,2.792,7.638,8.683v11.01H662.7l-.388-1.976h-.155a8.375,8.375,0,0,1-5.58,2.441A5.53,5.53,0,0,1,650.84,962.725Zm10.818-.229v-3.372c-4.033.543-5.348,1.706-5.348,3.18,0,1.241.853,1.821,2.208,1.821A4.3,4.3,0,0,0,661.658,962.5Z" transform="translate(-537.275 -929.79)"/>
    <path id="Path_1830" data-name="Path 1830" class="cls-1" d="M713.24,949.53h5.735l2.482,9.07c.5,1.9,1.008,3.915,1.51,5.931h.155c.465-2.017.967-4.033,1.474-5.931l2.519-9.07h5.466L726.3,968.757h-6.589Z" transform="translate(-574.202 -930.471)"/>
    <path id="Path_1831" data-name="Path 1831" class="cls-1" d="M761,958.469c0-6.4,4.5-10.079,9.381-10.079,4.845,0,9.344,3.682,9.344,10.079s-4.5,10.079-9.344,10.079C765.494,968.548,761,964.866,761,958.469Zm12.908,0c0-3.335-1.2-5.466-3.527-5.466-2.364,0-3.527,2.131-3.527,5.466s1.163,5.466,3.527,5.466C772.708,963.935,773.908,961.8,773.908,958.469Z" transform="translate(-602.466 -929.796)"/>
    <path id="Path_1832" data-name="Path 1832" class="cls-1" d="M812.52,931.017A3.31,3.31,0,1,1,815.814,934,3.017,3.017,0,0,1,812.52,931.017Zm.465,5.813h5.7v19.227h-5.7Z" transform="translate(-632.955 -917.771)"/>
    <path id="Path_1833" data-name="Path 1833" class="cls-1" d="M834.55,947.621c0-6.278,3.915-10.079,7.985-10.079a6.289,6.289,0,0,1,4.727,2.017l-.233-2.947V930.06h5.7v27.175h-4.654l-.388-1.9h-.155a7.614,7.614,0,0,1-5.115,2.364C837.652,957.7,834.55,953.9,834.55,947.621Zm12.483,3.682v-7.87a4.551,4.551,0,0,0-3.18-1.241c-1.821,0-3.449,1.706-3.449,5.348,0,3.8,1.278,5.5,3.49,5.5A3.6,3.6,0,0,0,847.033,951.3Z" transform="translate(-645.992 -918.948)"/>
    <path id="Path_1834" data-name="Path 1834" class="cls-1" d="M903.88,958.469c0-6.4,4.5-10.079,9.381-10.079,4.845,0,9.344,3.682,9.344,10.079s-4.5,10.079-9.344,10.079C908.379,968.548,903.88,964.866,903.88,958.469Zm12.908,0c0-3.335-1.2-5.466-3.527-5.466-2.364,0-3.527,2.131-3.527,5.466s1.163,5.466,3.527,5.466C915.588,963.935,916.788,961.8,916.788,958.469Z" transform="translate(-687.02 -929.796)"/>
    <path id="Path_1835" data-name="Path 1835" class="cls-1" d="M954.35,947.621c0-6.278,3.915-10.079,7.985-10.079a6.289,6.289,0,0,1,4.727,2.017l-.233-2.947V930.06h5.7v27.175h-4.654l-.388-1.9h-.155a7.613,7.613,0,0,1-5.115,2.364C957.452,957.7,954.35,953.9,954.35,947.621Zm12.483,3.682v-7.87a4.552,4.552,0,0,0-3.18-1.241c-1.821,0-3.449,1.706-3.449,5.348,0,3.8,1.278,5.5,3.49,5.5A3.6,3.6,0,0,0,966.833,951.3Z" transform="translate(-716.888 -918.948)"/>
    <path id="Path_1836" data-name="Path 1836" class="cls-1" d="M1004.834,975.883l1.008-4.344a6.239,6.239,0,0,0,1.278.233,3.267,3.267,0,0,0,3.372-2.519l.274-1.008-7.4-18.725h5.735l2.751,8.258c.543,1.743,1.008,3.568,1.51,5.466h.155c.425-1.821.853-3.645,1.319-5.466l2.327-8.258h5.466l-6.666,19.423c-1.821,4.846-3.878,7.327-8.413,7.327A8.755,8.755,0,0,1,1004.834,975.883Z" transform="translate(-745.891 -930.465)"/>
    <path id="Path_1837" data-name="Path 1837" class="cls-1" d="M1050.16,965.864l2.56-3.568a8.284,8.284,0,0,0,4.96,2.017c1.706,0,2.441-.621,2.441-1.629,0-1.278-1.939-1.861-3.915-2.637-2.327-.89-5.078-2.482-5.078-5.658,0-3.568,2.906-6.009,7.364-6.009a11.06,11.06,0,0,1,6.785,2.441l-2.56,3.409a7.094,7.094,0,0,0-4.07-1.629c-1.474,0-2.172.543-2.172,1.515,0,1.241,1.784,1.706,3.76,2.441,2.441.89,5.192,2.249,5.192,5.776,0,3.486-2.751,6.2-7.907,6.2A12.334,12.334,0,0,1,1050.16,965.864Z" transform="translate(-773.587 -929.79)"/>
    <path id="Path_1838" data-name="Path 1838" class="cls-1" d="M1089.84,965.864l2.559-3.568a8.285,8.285,0,0,0,4.96,2.017c1.706,0,2.441-.621,2.441-1.629,0-1.278-1.939-1.861-3.915-2.637-2.327-.89-5.078-2.482-5.078-5.658,0-3.568,2.906-6.009,7.364-6.009a11.062,11.062,0,0,1,6.785,2.441l-2.56,3.409a7.1,7.1,0,0,0-4.07-1.629c-1.473,0-2.172.543-2.172,1.515,0,1.241,1.784,1.706,3.76,2.441,2.441.89,5.193,2.249,5.193,5.776,0,3.486-2.751,6.2-7.907,6.2A12.324,12.324,0,0,1,1089.84,965.864Z" transform="translate(-797.069 -929.79)"/>
    <path id="Path_1839" data-name="Path 1839" class="cls-1" d="M1130.8,958.469c0-6.241,4.458-10.079,9.07-10.079,5.466,0,8.181,3.992,8.181,9.226a12.74,12.74,0,0,1-.233,2.519h-11.512a4.648,4.648,0,0,0,5,4.07,7.743,7.743,0,0,0,4.147-1.278l1.9,3.449a12.585,12.585,0,0,1-6.821,2.172C1135.025,968.548,1130.8,964.825,1130.8,958.469Zm12.4-2.094c0-2.131-.931-3.645-3.217-3.645-1.784,0-3.335,1.2-3.723,3.645Z" transform="translate(-821.308 -929.796)"/>
    <path id="Path_1840" data-name="Path 1840" class="cls-1" d="M1174.908,975.883l1.008-4.344a6.243,6.243,0,0,0,1.278.233,3.267,3.267,0,0,0,3.372-2.519l.27-1.008-7.405-18.725h5.735l2.751,8.258c.543,1.743,1.008,3.568,1.51,5.466h.155c.425-1.821.853-3.645,1.319-5.466l2.327-8.258h5.466l-6.666,19.423c-1.821,4.846-3.874,7.327-8.413,7.327A8.747,8.747,0,0,1,1174.908,975.883Z" transform="translate(-846.536 -930.465)"/>
  </g>
</svg>
