<svg xmlns="http://www.w3.org/2000/svg" xmlns:xlink="http://www.w3.org/1999/xlink" viewBox="-3789.5 855.5 1365.094 768.95"><defs><style>.a,.aa,.ab,.ac,.c,.f,.h,.i,.p,.w,.y{fill:none;}.b{opacity:0.23;}.c{stroke:#000;}.aa,.ab,.ac,.c,.f,.h,.i,.p,.w,.y{stroke-miterlimit:10;}.d{clip-path:url(#a);}.e,.k{fill:#091440;}.f{stroke:#6ed3f3;}.f,.i,.w{stroke-width:2px;}.g,.v{fill:#2f74fb;}.h,.i,.y{stroke:#091440;}.i{stroke-dasharray:1.019 5.095;}.j{fill:#3ad7a4;}.k,.v,.w,.x,.z{opacity:0.5;}.l{clip-path:url(#c);}.m{fill:#ffc84d;}.n{clip-path:url(#d);}.o{fill:#25549f;}.p{stroke:#2f74fb;stroke-width:2.12px;stroke-dasharray:0 30;}.aa,.ab,.p,.w{stroke-linecap:round;}.aa,.ab,.ac,.p,.w{stroke-linejoin:round;}.q{fill:#ed6d47;}.r{fill:#6ed3f3;}.s,.u{fill:#b6e9f9;}.s,.t{opacity:0.8;}.w{stroke:#b6e9f9;}.x{fill:#eaf6fc;}.y{stroke-width:1.2px;}.aa,.ac{stroke:#3ad7a4;}.aa,.ab,.ac{stroke-width:6px;}.ab{stroke:#fb7151;}</style><clipPath id="a"><rect width="1364.094" height="767.95"/></clipPath><clipPath id="c"><rect width="1364.094" height="767.95" transform="translate(0)"/></clipPath><clipPath id="d"><rect width="1364.094" height="767.95" transform="translate(0 0)"/></clipPath></defs><g transform="translate(-3789.5 837.8)"><rect class="a" width="1364.115" height="767.732" transform="translate(0.5 18.468)"/><g class="b" transform="translate(0.5 18.2)"><rect class="c" width="1364.094" height="767.95"/></g><g transform="translate(0.5 18.2)"><g class="d"><rect class="e" width="1364.094" height="767.95"/></g><g class="d"><g transform="translate(724.862 320.161)"><line class="f" x2="85.631" y2="106.357" transform="translate(0 0)"/></g><g transform="translate(725.408 341.432)"><circle class="g" cx="85.085" cy="85.085" r="85.085" transform="translate(0 0)"/></g><g transform="translate(733.589 349.614)"><circle class="h" cx="76.904" cy="76.904" r="76.904" transform="translate(0 0)"/></g><g transform="translate(741.225 357.25)"><circle class="i" cx="69.268" cy="69.268" r="69.268"/></g><g transform="translate(703.591 298.89)"><circle class="j" cx="21.271" cy="21.271" r="21.271"/><path class="k" d="M129.5,76.9a21.271,21.271,0,1,0,42.543,0c0,5.454-9.818,12-20.18,12C140.954,88.9,129.5,82.9,129.5,76.9Z" transform="translate(-129.5 -55.629)"/></g></g><g class="l"><circle class="m" cx="20.726" cy="20.726" r="20.726" transform="translate(773.95 193.624)"/></g><g class="n"><rect class="o" width="15.817" height="62.723" transform="translate(794.676 183.261)"/></g><g class="d"><path class="o" d="M779.6,18.2H703.791L149.1,20.382v767.95l554.691-2.182H2067.885V18.2Z" transform="translate(661.393 -18.2)"/></g><g class="d"><g transform="translate(810.151 127.083)"><rect class="g" width="10.908" height="3282.879" transform="translate(0 55.048) rotate(-90)"/><rect class="e" width="10.908" height="3282.879" transform="translate(0.19 43.948) rotate(-90)"/><line class="p" x2="3282.333" transform="translate(0.343)"/><line class="p" x2="3282.333" transform="translate(0.343 87.267)"/></g><rect class="e" width="15.817" height="15.817" transform="translate(799.019 171.14) rotate(-45)"/><g transform="translate(1353.731 171.262)"><rect class="e" width="585.78" height="10.908" transform="translate(0.252 596.934) rotate(-90)"/><rect class="g" width="585.78" height="10.908" transform="translate(11.35 596.58) rotate(-90)"/><path class="e" d="M260.154,49.6V60.508H248.7Z" transform="translate(-248.7 -49.6)"/><path class="g" d="M261.708,60.508H250.8V49.6Z" transform="translate(-239.346 -49.6)"/></g><g transform="translate(1353.719 -21.853)"><rect class="e" width="181.625" height="10.908" transform="translate(10.908 0.191) rotate(90)"/><rect class="g" width="181.625" height="10.908" transform="translate(22.008) rotate(90)"/><path class="e" d="M259.608,58.954V47.5H248.7Z" transform="translate(-248.689 134.161)"/><path class="g" d="M261.708,47.5H250.8V58.954Z" transform="translate(-239.335 134.161)"/></g><g transform="translate(2718.915 171.262)"><rect class="e" width="585.78" height="10.908" transform="translate(0.002 596.685) rotate(-90)"/><rect class="g" width="585.78" height="10.908" transform="translate(11.101 596.875) rotate(-90)"/><path class="e" d="M509.908,49.6V60.508H499Z" transform="translate(-499 -49.6)"/><path class="g" d="M511.908,60.508H501V49.6Z" transform="translate(-490.092 -49.6)"/></g><g transform="translate(2718.655 -21.958)"><rect class="e" width="181.625" height="10.908" transform="translate(10.908) rotate(90)"/><rect class="g" width="181.625" height="10.908" transform="translate(22.008 0.355) rotate(90)"/><path class="e" d="M509.908,58.954V47.5H499Z" transform="translate(-498.74 134.266)"/><path class="g" d="M511.908,47.5H501V58.954Z" transform="translate(-489.831 134.266)"/></g></g><g class="d"><g transform="translate(293.058 107.355)"><g transform="translate(3.855 17.892)"><path class="q" d="M92.685,73.367S44.142,42.278,63.232,89.73C82.867,138.272,78.5,200.45,79.595,211.358s29.453,56.178,67.087,51.269c34.907-4.363,36-34.907,37.634-56.178,2.727-33.271-8.727-72.541-8.727-72.541Z" transform="translate(-37.802 57.733)"/><path class="k" d="M110.179,139.014c23.453,19.09,43.088,4.363,43.088,4.363l-1.636-37.634L66,75.2S76.908,112.289,110.179,139.014Z" transform="translate(-5.663 110.442)"/><path class="q" d="M167.755,286.8c24-4.363,42.543-42.543,42.543-120.538,0-87.812-34.907-120.538-70.9-124.9C102.85,37.545,58.671,88.814,61.4,174.445,64.125,260.621,151.938,289.529,167.755,286.8Z" transform="translate(-26.696 -41.163)"/><path class="q" d="M58.005,103.705a36.357,36.357,0,0,0,17.453,20.726c10.908,5.454,25.635,9.272,30.543-4.909,8.181-22.908-22.362-69.814-42.543-53.451C52.006,75.889,54.187,92.251,58.005,103.705Z" transform="translate(-54.938 54.666)"/></g><path class="r" d="M216.052,65.247C168.6,27.613,87.333,25.431,86.243,79.973,52.427,88.7,41.518,146.514,72.607,173.24c0,0,22.362-1.636,27.271,27.816v10.908a12.019,12.019,0,0,0,4.909-3.273c4.363-4.363,10.908-13.09,12.545-30.543,2.182-23.453.545-40.361-2.727-52.906,7.636,6,34.907,19.09,80.177,16.908,60-3.272,77.449-38.179,77.449-38.179S236.778,82.155,216.052,65.247Z" transform="translate(-54.231 -37.883)"/></g><path class="j" d="M159.471,106.032c37.089,21.817,66.541,219.8,69.814,260.165,5.454,69.268-48,101.993-86.722,48.542-47.451-66-41.452-163.08-55.087-240.53C76.567,111.486,120.746,83.125,159.471,106.032Z" transform="translate(379.404 337.939)"/><g transform="translate(511.354 363.249)"><g transform="translate(72.245)"><path class="g" d="M180.041,98.981a17.083,17.083,0,0,1-32.725-9.818h0L133.135,84.8,107.5,170.431l14.181,4.363a17.083,17.083,0,1,1,32.725,9.818l14.181,4.363,25.635-85.631-14.181-4.363Z" transform="translate(-107.5 -84.8)"/><circle class="r" cx="19.09" cy="19.09" r="19.09" transform="matrix(0.29, -0.957, 0.957, 0.29, 19.826, 64.695)"/></g><path class="q" d="M169.332,111.09,189.512,92s24,9.818,24,13.09,18,43.088,18,43.088v62.178s-34.907,9.818-60,8.181v39.816L101.7,259.444l7.636-72a23.23,23.23,0,0,1,20.726-20.726l16.908-2.182Z" transform="translate(-61.089 -52.73)"/><path class="j" d="M136.5,120.531s13.09,20.181,69.268,7.636c0,0,4.909.545,7.636,31.089,3.273,30.543-1.636,27.271-1.636,27.271s3.273,73.086-2.182,105.266-31.634,60-58.36,58.36-54-26.18-56.724-76.359c-3.272-50.179,26.726-91.085,26.726-91.085s-3.818-2.182-1.636-9.818C126.138,149.984,131.592,112.9,136.5,120.531Z" transform="translate(-94.254 69.82)"/></g><path class="j" d="M157.26,89.445s42.543,31.089,71.45,31.089S263.616,88.9,263.616,88.9l26.18,27.271s69.268,25.089,74.177,38.179c5.454,13.09-33.816,361.068-33.816,361.068L67.266,514.327S44.9,180.53,41.085,155.987s98.175-46.906,98.175-46.906Z" transform="translate(179.809 296.711)"/><path class="k" d="M72.1,122.726,93.917,96l23.453,23.453-22.362-.545Z" transform="translate(318.42 328.336)"/><g transform="translate(178.827 430.641)"><path class="j" d="M83.837,105.032C46.748,126.849,36.931,300.838,33.658,341.2,28.2,410.467,94.745,445.919,120.38,385.378c29.453-69.268,21.817-134.719,34.907-212.168C166.741,110.486,122.562,82.125,83.837,105.032Z" transform="translate(-33.043 -97.156)"/><path class="j" d="M122.806,312.262c0-4.909,2.727-136.355,3.818-139.082.545-2.727-91.63-32.18-91.63-32.18s-6.545,42,6,155.99Z" transform="translate(-33.287 98.134)"/></g></g><g class="d"><rect class="g" width="26.726" height="106.357" transform="translate(554.691 586.871)"/><rect class="s" width="26.726" height="10.908" transform="translate(554.691 586.871)"/></g><g class="d"><g class="t" transform="translate(85.631 -85.085)"><path class="u" d="M1465.924,87.685V429.118H1167.58V2.6h-85.085V471.661h0a42.6,42.6,0,0,0,42.543,42.543h340.887V684.919H58.743c-22.908,0-40.906,17.453-42.543,39.816h0V875.816h85.085V770H1509.012a42.6,42.6,0,0,0,42.543-42.543h0V87.685Z" transform="translate(-16.2 -2.6)"/></g><path class="v" d="M17.6,861.5V719.145a34.545,34.545,0,0,1,34.361-32.18H1467.87V499.886H1118.256a34.219,34.219,0,0,1-34.361-34.361V4.1h68.723V430.618h314.707V83.731h68.723v637.05a34.219,34.219,0,0,1-34.361,34.361H86.868V860.954H17.6Z" transform="translate(75.667 -81.004)"/><line class="w" y2="134.173" transform="translate(106.902 654.503)"/><line class="w" y1="443.426" transform="translate(1173.197 -66.541)"/><line class="w" y1="407.974" transform="translate(1557.172 -66.541)"/><line class="w" y1="176.716" transform="translate(1557.172 427.063)"/><g transform="translate(855.763 213.222)"><g transform="translate(0 373.649)"><rect class="g" width="26.726" height="106.357"/><rect class="s" width="26.726" height="10.908"/></g><g transform="translate(388.884 373.649)"><rect class="g" width="26.726" height="106.357"/><rect class="s" width="26.726" height="10.908"/></g><g transform="translate(18.544 362.74)"><g transform="translate(0 13.09)"><circle class="e" cx="8.181" cy="8.181" r="8.181"/><circle class="e" cx="8.181" cy="8.181" r="8.181" transform="translate(0 40.361)"/><circle class="e" cx="8.181" cy="8.181" r="8.181" transform="translate(0 80.722)"/></g><g transform="translate(363.249 13.09)"><circle class="e" cx="8.181" cy="8.181" r="8.181"/><circle class="e" cx="8.181" cy="8.181" r="8.181" transform="translate(0 40.361)"/><circle class="e" cx="8.181" cy="8.181" r="8.181" transform="translate(0 80.722)"/></g><rect class="g" width="362.704" height="128.174" transform="translate(8.181)"/><g transform="translate(8.181)"><rect class="x" width="362.704" height="8.727"/></g><line class="y" y2="128.174" transform="translate(20.726)"/><line class="y" y2="128.174" transform="translate(362.704)"/></g><g transform="translate(610.324 373.649)"><rect class="g" width="26.726" height="106.357"/><rect class="s" width="26.726" height="10.908"/></g><g transform="translate(652.867 117.302)"><rect class="g" width="26.726" height="106.357"/><rect class="s" width="26.726" height="10.908"/></g><g transform="translate(423.791 117.302)"><rect class="g" width="26.726" height="106.357"/><rect class="s" width="26.726" height="10.908"/></g><g transform="translate(669.299 287.95)"><rect class="g" width="26.726" height="106.357" transform="translate(0 26.726) rotate(-90)"/><rect class="s" width="26.726" height="10.908" transform="translate(0.05 26.776) rotate(-90)"/></g><g transform="translate(285.181 58.421)"><rect class="g" width="26.726" height="106.357" transform="translate(0 26.726) rotate(-90)"/><rect class="s" width="26.726" height="10.908" transform="translate(0.05 26.775) rotate(-90)"/></g><g transform="translate(669.269)"><rect class="g" width="26.726" height="106.357" transform="translate(0 26.726) rotate(-90)"/><rect class="s" width="26.726" height="10.908" transform="translate(0.05 26.775) rotate(-90)"/></g></g><g class="t" transform="translate(1791.702)"><path class="u" d="M2381.413,444.718H1053.862V18.2H968.777V444.718H414.085V18.2H329V487.261h0A42.6,42.6,0,0,0,371.543,529.8h2009.87a42.6,42.6,0,0,0,42.542-42.543h0A42.6,42.6,0,0,0,2381.413,444.718Z" transform="translate(-329 -18.2)"/></g><path class="v" d="M364.861,515.486A34.218,34.218,0,0,1,330.5,481.125V19.7h68.723V446.218H970.277V19.7H1039V446.218H2374.731a34.361,34.361,0,0,1,0,68.723H364.861Z" transform="translate(1469.384 -11.519)"/><line class="w" y1="177.261" transform="translate(2452.75 235.076)"/><line class="w" y1="472.878" transform="translate(1813.519 -14.181)"/><g transform="translate(213.259 496.877)"><g transform="translate(0 89.994)"><rect class="g" width="26.726" height="106.357"/><rect class="s" width="26.726" height="10.908"/></g><g transform="translate(341.432 89.994)"><rect class="g" width="26.726" height="106.357"/><rect class="s" width="26.726" height="10.908"/></g><g transform="translate(26.726 89.994)"><rect class="g" width="314.161" height="53.451"/><rect class="s" width="314.161" height="10.908"/><rect class="e" width="314.161" height="10.908" transform="translate(0 41.997)"/></g><g class="z" transform="translate(69.268 15.272)"><rect class="g" width="229.076" height="74.722"/></g><g transform="translate(69.268 15.272)"><path class="g" d="M259.559,133.917v31.089H74.117V133.917H259.559M281.376,112.1H52.3v74.722H281.376V112.1Z" transform="translate(-52.3 -112.1)"/></g><rect class="g" width="22.362" height="15.272" transform="translate(172.898)"/></g><g transform="translate(937.576 0.274)"><g class="t" transform="translate(0 639.503)"><path class="u" d="M1835.929,135.5H214.943A42.6,42.6,0,0,0,172.4,178.043V298.58h85.085v-77.45h1535.9v77.45h85.085V178.043A42.6,42.6,0,0,0,1835.929,135.5Z" transform="translate(-172.4 -135.5)"/></g><path class="v" d="M1794.441,283.718v-77.45H242.723v77.45H174V171.361A34.219,34.219,0,0,1,208.361,137H1829.347a34.219,34.219,0,0,1,34.361,34.361V283.718Z" transform="translate(-165.273 510.684)"/><line class="w" y1="176.716" transform="translate(21.817 695.136)"/><g transform="translate(128.174 629.14)"><rect class="g" width="26.726" height="106.357"/><rect class="s" width="26.726" height="10.908"/><g transform="translate(355.613)"><rect class="g" width="26.726" height="106.357"/><rect class="s" width="26.726" height="10.908"/></g><g transform="translate(711.772)"><rect class="g" width="26.726" height="106.357"/><rect class="s" width="26.726" height="10.908"/></g><g transform="translate(1067.386)"><rect class="g" width="26.726" height="106.357"/><rect class="s" width="26.726" height="10.908"/></g><g transform="translate(1423.544)"><rect class="g" width="26.726" height="106.357"/><rect class="s" width="26.726" height="10.908"/></g></g><g transform="translate(842.413)"><g transform="translate(138.796 415.881)"><rect class="g" width="26.726" height="106.357"/><rect class="s" width="26.726" height="10.908"/></g><g transform="translate(0.122 357.127)"><rect class="g" width="26.726" height="106.357" transform="translate(0 26.726) rotate(-90)"/><rect class="s" width="26.726" height="10.908" transform="translate(0.05 26.776) rotate(-90)"/></g><rect class="g" width="26.726" height="106.357" transform="translate(0 26.726) rotate(-90)"/><rect class="s" width="26.726" height="10.908" transform="translate(0.05 26.776) rotate(-90)"/><g transform="translate(494.41 415.881)"><rect class="g" width="26.726" height="106.357"/><rect class="s" width="26.726" height="10.908"/></g><g transform="translate(850.568 415.881)"><rect class="g" width="26.726" height="106.357"/><rect class="s" width="26.726" height="10.908"/></g><g transform="translate(1199.091 415.881)"><rect class="g" width="26.726" height="106.357"/><rect class="s" width="26.726" height="10.908"/></g></g></g><g transform="translate(74.806 725.362)"><rect class="g" width="26.726" height="106.357" transform="translate(0 26.726) rotate(-90)"/><rect class="s" width="26.726" height="10.908" transform="translate(0.05 26.776) rotate(-90)"/></g><g transform="translate(2420.282 272.106)"><rect class="g" width="26.726" height="106.357" transform="translate(0.495 26.726) rotate(-90)"/><rect class="s" width="26.726" height="10.908" transform="translate(0 26.776) rotate(-90)"/></g><g transform="translate(2420.446 400.065)"><rect class="g" width="26.726" height="106.357" transform="translate(0 26.726) rotate(-90)"/><rect class="s" width="26.726" height="10.908" transform="translate(0.05 26.776) rotate(-90)"/></g><g transform="translate(2409.662 -99.266)"><g transform="translate(13.09 363.249)"><circle class="e" cx="8.181" cy="8.181" r="8.181"/><circle class="e" cx="8.181" cy="8.181" r="8.181" transform="translate(40.361)"/><circle class="e" cx="8.181" cy="8.181" r="8.181" transform="translate(80.722)"/></g><g transform="translate(13.09)"><circle class="e" cx="8.181" cy="8.181" r="8.181"/><circle class="e" cx="8.181" cy="8.181" r="8.181" transform="translate(40.361 0.545)"/><circle class="e" cx="8.181" cy="8.181" r="8.181" transform="translate(80.722)"/></g><rect class="g" width="128.174" height="362.704" transform="translate(0 8.181)"/><g transform="translate(0.161 8.392)"><rect class="x" width="362.704" height="8.727" transform="translate(0 362.704) rotate(-90)"/></g><line class="y" x2="128.174" transform="translate(0 358.886)"/><line class="y" x2="128.174" transform="translate(0 16.908)"/></g><g transform="translate(2998.17 407.974)"><g transform="translate(819.22 8.181)"><rect class="g" width="26.726" height="106.357"/><rect class="s" width="26.726" height="10.908"/></g><g transform="translate(0 0)"><g transform="translate(0 12.545)"><circle class="e" cx="8.181" cy="8.181" r="8.181"/><circle class="e" cx="8.181" cy="8.181" r="8.181" transform="translate(0 40.361)"/><circle class="e" cx="8.181" cy="8.181" r="8.181" transform="translate(0 80.722)"/></g><g transform="translate(811.039 12.545)"><circle class="e" cx="8.181" cy="8.181" r="8.181"/><circle class="e" cx="8.181" cy="8.181" r="8.181" transform="translate(0 40.906)"/><circle class="e" cx="8.181" cy="8.181" r="8.181" transform="translate(0 80.722)"/></g><path class="k" d="M1362.638,138.217,551.6,137.126V116.4l811.039,1.091Z" transform="translate(-543.964 11.228)"/><rect class="g" width="811.038" height="128.174" transform="translate(8.181)"/><g transform="translate(8.181)"><rect class="x" width="811.038" height="8.727"/></g><g transform="translate(29.452)"><line class="y" y2="127.628"/><line class="y" y2="127.628" transform="translate(767.405)"/></g></g><g transform="translate(87.267 61.632)"><line class="aa" x2="656.139"/><line class="ab" x2="88.358" transform="translate(567.781)"/><line class="ac" x2="605.415"/></g></g></g></g></g></svg>