<svg xmlns="http://www.w3.org/2000/svg" viewBox="0 0 42 42">
  <defs>
    <style>
      .cls-1 {
        fill: #70cbff;
      }

      .cls-2 {
        fill: #2970ff;
      }
    </style>
  </defs>
  <g id="Symbol_969_1" data-name="Symbol 969 – 1" transform="translate(-214.17 -1168.214)">
    <path id="Subtraction_2" data-name="Subtraction 2" class="cls-1" d="M559.75,23.56H544l4.661-4.566A15.753,15.753,0,0,1,552.169-6a19.28,19.28,0,0,0-.294,3.307,18.242,18.242,0,0,0,1.449,7.16,18.32,18.32,0,0,0,3.938,5.837,18.31,18.31,0,0,0,5.838,3.937,18.333,18.333,0,0,0,7.151,1.449h3.139A15.7,15.7,0,0,1,559.75,23.56Z" transform="translate(-329.83 1186.653)"/>
    <path id="XMLID_4_" class="cls-2" d="M115.75,0a15.746,15.746,0,1,0,0,31.492H131.5l-4.662-4.566A15.743,15.743,0,0,0,115.75,0Zm-7.875,18.37a2.624,2.624,0,1,1,2.625-2.624A2.626,2.626,0,0,1,107.875,18.37Zm7.875,0a2.624,2.624,0,1,1,2.625-2.624A2.626,2.626,0,0,1,115.75,18.37Zm7.875,0a2.624,2.624,0,1,1,0-5.249c1.449,0,2.625,2.624,2.625,2.624S125.074,18.37,123.625,18.37Z" transform="translate(124.67 1168.214)"/>
    <ellipse id="XMLID_3_" class="cls-1" cx="2.625" cy="2.624" rx="2.625" ry="2.624" transform="translate(237.795 1181.335)"/>
    <ellipse id="XMLID_2_" class="cls-1" cx="2.625" cy="2.624" rx="2.625" ry="2.624" transform="translate(229.92 1181.335)"/>
    <ellipse id="XMLID_1_" class="cls-1" cx="2.625" cy="2.624" rx="2.625" ry="2.624" transform="translate(245.67 1181.335)"/>
  </g>
</svg>
