<svg xmlns="http://www.w3.org/2000/svg" viewBox="0 0 158.756 30"><defs><style>.a{fill:#1b41b3;}</style></defs><g transform="translate(-213.545 -65.155)"><g transform="translate(213.545 65.155)"><g transform="translate(46.68 3.012)"><path class="a" d="M698.529,107.11c-2.6,0-4.553-2.178-4.553-5.067v-.052c0-2.86,1.958-5.017,4.553-5.017a4.926,4.926,0,0,1,3.979,2.015l3.371-2.609a8.563,8.563,0,0,0-7.3-3.46,8.985,8.985,0,0,0-9.25,9.122v.05a8.9,8.9,0,0,0,9.045,9.07A8.789,8.789,0,0,0,706,107.4l-3.361-2.394A5.027,5.027,0,0,1,698.529,107.11Z" transform="translate(-648.89 -84.174)"/><path class="a" d="M852.629,106.083a5.5,5.5,0,0,0,3.582-5.344v-.052a5.347,5.347,0,0,0-1.532-4.047c-1.236-1.262-3.165-1.9-5.736-1.9H840.61v17.651h4.528v-5.5h2.592l3.656,5.5h5.2l-4.236-6.187Zm-.971-5.033c0,1.483-1.13,2.405-2.948,2.405h-3.572V98.594h3.547c1.89,0,2.975.877,2.975,2.4v.052Z" transform="translate(-781.11 -85.765)"/><path class="a" d="M991.655,105.262h8.715V101.8h-8.715V98.546h9.622V94.77h-14.1v17.65h14.228v-3.775h-9.753Z" transform="translate(-909.214 -85.791)"/><path class="a" d="M1139.155,97.227a10.763,10.763,0,0,0-7.384-2.457h-6.75v17.65h6.647a10.774,10.774,0,0,0,7.455-2.534,8.356,8.356,0,0,0,2.642-6.344v-.052A8.2,8.2,0,0,0,1139.155,97.227Zm-2.05,6.394c0,2.987-2.015,4.842-5.258,4.842h-2.3V98.726h2.3c3.243,0,5.258,1.856,5.258,4.842Z" transform="translate(-1029.688 -85.791)"/><path class="a" d="M543.363,93.08c-4.842,0-8.493,3.92-8.493,9.119a9.1,9.1,0,0,0,15.783,6.163l-1.788-1.586a6.914,6.914,0,0,1-4.982,2.021,5.626,5.626,0,0,1-5.756-5.06l-.091-.554h13.613c.018-.218.031-.442.031-.669a10.545,10.545,0,0,0-2.1-6.648A7.686,7.686,0,0,0,543.363,93.08Zm-5.344,8.275.072-.542c.428-3.188,2.483-5.247,5.237-5.247,2.833,0,4.8,2.016,5.134,5.263l.054.527h-10.5Z" transform="translate(-513.89 -84.314)"/><path class="a" d="M376.422,32.6c-4.012,0-8.072,3.138-8.072,9.136,0,4.54,2.773,9.136,8.072,9.136a6.905,6.905,0,0,0,5.893-3.259l.869-1.228v4.144h3.264V23.91h-3.266V36.778l-.857-1.107A7.145,7.145,0,0,0,376.422,32.6Zm6.831,9.138c0,3.662-2.5,6.424-5.818,6.424-3.351,0-5.784-2.7-5.784-6.424,0-3.783,2.379-6.424,5.784-6.424C380.751,35.317,383.253,38.079,383.253,41.742Z" transform="translate(-368.35 -23.91)"/></g><g transform="translate(11.843)"><g transform="translate(3.301)"><path class="a" d="M188,47" transform="translate(-179.458 -41.079)"/><path class="a" d="M132.9,22.466l7.18,7.193h-7.062L121.178,17.8h7.328a5.932,5.932,0,0,0,0-11.863h-2.384L120.2,0h8.038a11.853,11.853,0,0,1,11.843,11.863C140.082,16.674,137.965,20.449,132.9,22.466Z" transform="translate(-120.2)"/></g><g transform="translate(0 23.727)"><path class="a" d="M94,188" transform="translate(-94 -188)"/></g></g><path class="a" d="M7.18,7.193,0,0H7.062L18.9,11.863H11.577a5.932,5.932,0,0,0,0,11.863h2.384l5.922,5.932H11.843A11.853,11.853,0,0,1,0,17.8C0,12.984,2.117,9.209,7.18,7.193Z"/></g></g></svg>