<svg xmlns="http://www.w3.org/2000/svg" xmlns:xlink="http://www.w3.org/1999/xlink" viewBox="10105 1411 108.586 20"><defs><style>.a{fill:#2ed6a1;}.b{clip-path:url(#a);}.c{clip-path:url(#b);}</style><clipPath id="a"><path d="M11.1,0l4.343,3.737h2.02a4.242,4.242,0,1,1,0,8.485H11.1L19.686,19.7h5.758l-4.949-4.343A7.975,7.975,0,0,0,17.464,0H11.1Z" transform="translate(-11.1 0)"/></clipPath><clipPath id="b"><path d="M0,0,4.949,4.343A7.975,7.975,0,0,0,7.98,19.7h6.364L10,15.96H7.98a4.242,4.242,0,1,1,0-8.485h6.364L5.758,0Z"/></clipPath></defs><g transform="translate(9415 703)"><path class="a" d="M59.1,13.664h0A6.239,6.239,0,0,1,65.565,7.3a5.753,5.753,0,0,1,5.152,2.525l-2.525,1.919a3.175,3.175,0,0,0-2.626-1.414,3.009,3.009,0,0,0-2.929,3.232h0a3.009,3.009,0,0,0,2.929,3.232,3.182,3.182,0,0,0,2.727-1.515L70.817,17.1A6.454,6.454,0,0,1,59.1,13.664" transform="translate(690.597 708.074)"/><path class="a" d="M71.9,7.4h5.758A5.688,5.688,0,0,1,81.7,8.713a3.8,3.8,0,0,1,1.111,2.828h0a3.776,3.776,0,0,1-2.525,3.737l2.929,4.242H79.274l-2.424-3.737H75.334v3.737H71.9V7.4Zm5.657,5.859c1.111,0,1.818-.606,1.818-1.414h0c0-1.01-.707-1.414-1.818-1.414H75.334V13.36h2.222Z" transform="translate(690.726 708.075)"/><path class="a" d="M84.3,7.4h9.8v2.929H87.633v1.818h5.859v2.727H87.633v1.919H94.2v2.929H84.3Z" transform="translate(690.852 708.075)"/><path class="a" d="M95.9,7.4h4.747c4.343,0,6.97,2.525,6.97,6.061h0c0,3.535-2.626,6.162-6.97,6.162H96V7.4Zm4.747,9.293c2.02,0,3.333-1.111,3.333-3.131h0a3.027,3.027,0,0,0-3.333-3.131H99.233v6.263h1.414Z" transform="translate(690.969 708.075)"/><path class="a" d="M52.363,19.926A6.049,6.049,0,0,1,46.1,13.664c0-3.636,2.525-6.364,5.96-6.364A5.5,5.5,0,0,1,56.4,9.219a7.484,7.484,0,0,1,1.414,4.646v.606H48.625v.2a3.567,3.567,0,0,0,3.737,3.232A4.364,4.364,0,0,0,55.7,16.492l1.414,1.313a5.862,5.862,0,0,1-4.747,2.121m-.4-10.606c-1.818,0-3.131,1.313-3.333,3.434v.2h6.667v-.2c-.2-2.121-1.515-3.434-3.333-3.434" transform="translate(690.466 708.074)"/><path class="a" d="M37.657,19.981c-2.828,0-5.657-2.222-5.657-6.364s2.828-6.364,5.657-6.364A5.122,5.122,0,0,1,41.8,9.375l.3.4V1.9h2.525V19.779H42.1V17.355l-.3.4a4.841,4.841,0,0,1-4.141,2.222m.707-10.505c-2.222,0-3.737,1.717-3.737,4.141a3.837,3.837,0,0,0,3.737,4.141A3.9,3.9,0,0,0,42.1,13.617a3.9,3.9,0,0,0-3.737-4.141" transform="translate(690.323 708.019)"/><g transform="translate(701.212 708)"><path class="a" d="M11.1,0l4.343,3.737h2.02a4.242,4.242,0,1,1,0,8.485H11.1L19.686,19.7h5.758l-4.949-4.343A7.975,7.975,0,0,0,17.464,0H11.1Z" transform="translate(-11.1 0)"/><g class="b"><rect class="a" width="14.343" height="19.798" transform="translate(0 0)"/></g></g><path class="a" d="M14.343,7.475H7.98a4.242,4.242,0,0,0,0,8.485H10L14.343,19.7H7.98A7.87,7.87,0,0,1,0,11.717,7.848,7.848,0,0,1,4.949,4.343L0,0H5.758Z" transform="translate(690 708)"/><g transform="translate(690 708)"><path class="a" d="M0,0,4.949,4.343A7.975,7.975,0,0,0,7.98,19.7h6.364L10,15.96H7.98a4.242,4.242,0,1,1,0-8.485h6.364L5.758,0Z"/><g class="c"><rect class="a" width="14.343" height="19.798"/></g></g></g></svg>