<svg xmlns="http://www.w3.org/2000/svg" viewBox="8627.001 3025.6 18.302 17.92"><defs><style>.a{fill:#091440;fill-rule:evenodd;}</style></defs><g transform="translate(7819 2339)"><path class="a" d="M130.6,1.6a9.176,9.176,0,0,0-9.2,9.2,9.067,9.067,0,0,0,6.3,8.7c.5.1.6-.2.6-.4V17.5c-2.6.6-3.1-1.2-3.1-1.2-.4-1.1-1-1.3-1-1.3-.8-.6.1-.6.1-.6a2.085,2.085,0,0,1,1.4.9,2.044,2.044,0,0,0,2.7.8,1.709,1.709,0,0,1,.6-1.2c-2-.2-4.2-1-4.2-4.5a4.217,4.217,0,0,1,.9-2.5,3.223,3.223,0,0,1,.1-2.4s.8-.2,2.5.9a8.967,8.967,0,0,1,4.6,0c1.8-1.2,2.5-.9,2.5-.9a3.178,3.178,0,0,1,.1,2.4,3.486,3.486,0,0,1,.9,2.5c0,3.5-2.2,4.3-4.2,4.5a2.258,2.258,0,0,1,.6,1.7v2.5a.449.449,0,0,0,.6.4,9.182,9.182,0,0,0-2.8-17.9Z" transform="translate(686.6 685)"/></g></svg>