<svg xmlns="http://www.w3.org/2000/svg" viewBox="8785 3025.6 18.4 18.4"><defs><style>.a{fill:#091440;}</style></defs><g transform="translate(7819 2339)"><path class="a" d="M94.4,15.9a8.989,8.989,0,0,1-2.6-1.7,7.821,7.821,0,0,1-1.7-2.6,8.149,8.149,0,0,1-.6-3.1,6.15,6.15,0,0,1,.1-1.4,6.945,6.945,0,0,0-3.6,6A7.229,7.229,0,0,0,88,18l-2,2h6.9a6.975,6.975,0,0,0,6-3.4H97.5A8.245,8.245,0,0,1,94.4,15.9Z" transform="translate(880 685)"/><path class="a" d="M97.5,15.4h6.9l-2-2a6.8,6.8,0,0,0,2-4.9,6.9,6.9,0,1,0-6.9,6.9ZM94.1,9.6a1.1,1.1,0,1,1,1.1-1.1A1.11,1.11,0,0,1,94.1,9.6ZM101,7.4a1.1,1.1,0,1,1-1.1,1.1A1.049,1.049,0,0,1,101,7.4ZM98.7,8.5a1.1,1.1,0,1,1-1.1-1.1A1.11,1.11,0,0,1,98.7,8.5Z" transform="translate(880 685)"/></g></svg>