<svg xmlns="http://www.w3.org/2000/svg" viewBox="8746 3028.1 18.014 16.121"><defs><style>.a{fill:#091440;}</style></defs><g transform="translate(7819 2339)"><g transform="translate(927 689.1)"><path class="a" d="M14.5,16.121A.683.683,0,0,1,14.1,16L9.577,12.925l-2.435,1.75a.734.734,0,0,1-.656.1.713.713,0,0,1-.447-.485L4.822,9.663.457,7.98A.7.7,0,0,1,0,7.323a.717.717,0,0,1,.447-.666L17.024.057A.966.966,0,0,1,17.262,0h.086A.713.713,0,0,1,17.8.2l.038.038a.708.708,0,0,1,.171.418V.77c0,.029-.01.057-.01.086l-2.8,14.685a.708.708,0,0,1-.428.523A.682.682,0,0,1,14.5,16.121ZM9.977,11.47l4.033,2.739L16.187,2.787,8.322,10.357l1.636,1.1A.029.029,0,0,1,9.977,11.47ZM6.61,10.861l.542,2.045,1.16-.837L6.791,11.032A.773.773,0,0,1,6.61,10.861ZM2.673,7.3l3,1.141a.719.719,0,0,1,.437.485l.38,1.436a.716.716,0,0,1,.219-.437L14.2,2.72Z" transform="translate(0)"/></g></g></svg>