<svg xmlns="http://www.w3.org/2000/svg" viewBox="8666.001 3028.3 18.5 14.8"><defs><style>.a{fill:#091440;}</style></defs><g transform="translate(7819 2339)"><path class="a" d="M184.9,6.1a7.945,7.945,0,0,1-2.2.6,3.92,3.92,0,0,0,1.7-2.1,8.544,8.544,0,0,1-2.4.9,4.01,4.01,0,0,0-2.8-1.2,3.8,3.8,0,0,0-3.8,3.8,2.768,2.768,0,0,0,.1.9,11.334,11.334,0,0,1-7.8-3.9,4.136,4.136,0,0,0-.5,1.9,3.659,3.659,0,0,0,1.7,3.1,3.371,3.371,0,0,1-1.7-.5h0a3.763,3.763,0,0,0,3,3.7,3.4,3.4,0,0,1-1,.1,1.7,1.7,0,0,1-.7-.1,3.755,3.755,0,0,0,3.5,2.6,7.621,7.621,0,0,1-4.7,1.6,2.768,2.768,0,0,1-.9-.1,10.71,10.71,0,0,0,16.5-9V7.9A5.008,5.008,0,0,0,184.9,6.1Z" transform="translate(680.6 685)"/></g></svg>