<svg xmlns="http://www.w3.org/2000/svg" viewBox="8548 3024 18 20.572"><defs><style>.a{fill:#091440;}</style></defs><g transform="translate(7819 2339)"><path class="a" d="M60.249,83.9A1.146,1.146,0,1,0,61.3,85.042,1.1,1.1,0,0,0,60.249,83.9ZM64,83.9a1.146,1.146,0,1,0,1.049,1.142A1.1,1.1,0,0,0,64,83.9Z" transform="translate(675.889 609.73)"/><path class="a" d="M15.891,0H2.109A2.114,2.114,0,0,0,0,2.119V16.025a2.114,2.114,0,0,0,2.109,2.119H13.773l-.545-1.9,1.317,1.224,1.245,1.152L18,20.571V2.119A2.114,2.114,0,0,0,15.891,0Zm-3.97,13.433s-.37-.442-.679-.833A3.246,3.246,0,0,0,13.1,11.376a5.886,5.886,0,0,1-1.183.607,6.77,6.77,0,0,1-1.491.442,7.205,7.205,0,0,1-2.664-.01,8.634,8.634,0,0,1-1.512-.442,6.028,6.028,0,0,1-.751-.35c-.031-.021-.062-.031-.093-.051a.142.142,0,0,1-.041-.031c-.185-.1-.288-.175-.288-.175a3.2,3.2,0,0,0,1.8,1.214c-.309.391-.689.854-.689.854A3.729,3.729,0,0,1,3.055,11.87a13.774,13.774,0,0,1,1.481-6,5.086,5.086,0,0,1,2.89-1.08l.1.123A6.939,6.939,0,0,0,4.824,6.264s.226-.123.607-.3a7.724,7.724,0,0,1,2.335-.648A1.013,1.013,0,0,1,7.941,5.3a8.7,8.7,0,0,1,2.078-.021,8.385,8.385,0,0,1,3.1.987,6.845,6.845,0,0,0-2.561-1.306l.144-.165a5.086,5.086,0,0,1,2.89,1.08,13.774,13.774,0,0,1,1.481,6A3.76,3.76,0,0,1,11.921,13.433Z" transform="translate(729 685)"/></g></svg>