<svg xmlns="http://www.w3.org/2000/svg" viewBox="8825 3029.829 17.627 12.342"><defs><style>.a{fill:#091440;}</style></defs><g transform="translate(7819 2339)"><path class="a" d="M17.264,1.931A2.209,2.209,0,0,0,15.71.378,51.581,51.581,0,0,0,8.813,0a53.623,53.623,0,0,0-6.9.363A2.254,2.254,0,0,0,.363,1.931,23.271,23.271,0,0,0,0,6.171a23.184,23.184,0,0,0,.363,4.24,2.209,2.209,0,0,0,1.554,1.554,51.691,51.691,0,0,0,6.9.378,53.623,53.623,0,0,0,6.9-.363,2.209,2.209,0,0,0,1.554-1.554,23.271,23.271,0,0,0,.363-4.24A22.1,22.1,0,0,0,17.264,1.931ZM7.057,8.813V3.528l4.588,2.643Z" transform="translate(1006 690.829)"/></g></svg>