<svg xmlns="http://www.w3.org/2000/svg" viewBox="-4067 2454.514 259.1 364.586"><defs><style>.a{fill:#e7f6fc;}.b{fill:#091440;}.c{fill:#3ad7a4;}.d{opacity:0.5;}.e{fill:#ed6d47;}.f{fill:#ffc84d;}.g{fill:#25549f;}.h{fill:#fff;}.i{fill:none;}.j{fill:#2260ad;}.k{fill:#2f74fb;}.l{fill:#69d5f7;}</style></defs><g transform="translate(-4344 856)"><path class="a" d="M29.456,0H6.094A6.086,6.086,0,0,0,0,6.094V42.071L6.521,35.55H29.029l6.521,6.521V6.094A6.086,6.086,0,0,0,29.456,0Z" transform="translate(388.725 1598.514)"/><g transform="translate(37 -72)"><g transform="translate(240 1712)"><path class="b" d="M241.1,313.9c-.4-1.4-1.2-3.3-1.1-4.7l.2-3.9H225.3V307a8.363,8.363,0,0,1-3.7,6.9l-8.3,5.5a3.7,3.7,0,0,0-1.9,3.2h29.5S241.9,317.2,241.1,313.9Z"/><path class="b" d="M195.2,310.2l.5-8-15.8,1.9-.2,1.5a9.018,9.018,0,0,1-5.2,7.2h-.1c-9,3.7-11.9,5.8-14.8,6.8a3.079,3.079,0,0,0-2,3h23.1l4.8-1.6v1.6h9l1.4-7.5Z"/><path class="c" d="M166.3,154.2c-7.4,46,4.8,69.5,8.2,89.8s4.7,55.3,4.7,62h17.3c4.2-23.9,8-34.1,3.5-61.3-4.8-28.6-3.2-93.3-3.2-93.3Z"/><g class="d"><path class="b" d="M197.5,219.9,189,192l7.6,3.6Z"/></g><path class="c" d="M181,175.1c-3.6-5.9,31.9,57.3,43.2,131h17.3s3.1-31.3-8.4-69.4c-5.1-19.8-7.5-32.5-8.4-40.8-1.3-10.8-3.4-19.7-8.1-29.5-.2-.5-8.8-14.9-9-15.3-10.6-21.8-10.9.4-10.9.4Z"/><path class="e" d="M148.3,100.3s-11.1-9.7-21.2-19.5c-6.2-16.4-1.5-39.3-1.5-39.3l8.1-1.1s7.2,21.3,6.9,30l21.6,10s10.2,10.6,6.2,17.8S148.3,100.3,148.3,100.3Z"/><path class="b" d="M154.7,76.9s-7,4.8-12.4,19.3c11.3,8.5,25.2,14.3,33.3,12.1,8.2-2.2,11-3.9,11.5-9.7s-5.2-10.6-8.8-12.4S154.7,76.9,154.7,76.9Z"/><path class="b" d="M182.7,82.7s16.9-6,23.6,11.7c9.8,25.8-2.4,42,1.3,56.7,0,0-5.6,5.1-19.7,7.2-14.2,2.1-21.5-4.1-21.5-4.1s-3.5-16.5-3-30.4c-8.4-5.8-9.5-12.1-5.1-19.1S175.3,83,182.7,82.7Z"/><path class="e" d="M181.5,64.3a25.133,25.133,0,0,1,3.2,1.1L191,81.7c-5.6,5.7-11.3,9.3-16,10.5L170.7,75Z"/><path class="f" d="M159,45.8a16.3,16.3,0,0,0,.2,9.6c2,6.2-2.2,13-3,20.7-.3,2.9.4,6.8,2.5,8.7a27.968,27.968,0,0,1,5.3-.1l-.9-5.9,2.7,6s9-3.8,13.9-9-17.2-32.5-17.2-32.5Z"/><path class="e" d="M162.1,80.3c6.4,2.1,16.8-3.4,20.9-11.3s5.2-28.9-4.5-32.4S159.7,40.5,157,51C155.6,56.6,153.2,77.4,162.1,80.3Z"/><path class="e" d="M156.3,55.6a14.38,14.38,0,0,1-5.5,7.7s4.6,4.2,9,3.6C164.3,66.3,156.3,55.6,156.3,55.6Z"/><path class="e" d="M178,61.7l3.1-3.3S178.4,54.2,174,47c-4.3-7.2-11.9-5.6-15.3-3.8-1.6.9-.9-2.5,2.8-5.2,2.5-1.8,6.2-3.3,11.6-3.2,7,.1,6.6-.9,12.1.8,8.4,2.7,13.3,10,7.6,25.4-1,2.7-5,9.1-5,9.1S176.9,73.3,178,61.7Z"/><path class="e" d="M184.4,62.5a5.57,5.57,0,0,1-2.3,3.6c-1.6,1.1-3.8,2-4.9-.1-1.8-3.4,2-11.4,5.5-9.3C184.7,58,184.7,60.6,184.4,62.5Z"/><path class="f" d="M159.4,37.4s4.3-4.6,13.2-3.6,12,.6,18.2,5c5.8,4.2,6.8,9.8,5.6,17.2-1.2,7.5,4.3,7.4,5.4,11.4.8,2.9.9,6.7-2,11.3-2.4,3.9-12.7,9.7-18.8,8.9l.7-7.2-3.1,8.9a31.461,31.461,0,0,1-12.3.2s-2.9-7.1-.5-11.2c3.3-5.7,3.8-5.1,6.9-9.4s-3-6.2-3.7-11.1a9.75,9.75,0,0,1,1.8-6.3,6.638,6.638,0,0,0-1.5-9.2,3.506,3.506,0,0,0-1.4-.6C164.6,40.9,159.4,37.4,159.4,37.4Z"/><path class="f" d="M170.1,43l-2.2,4.9s-9.7-1.4-13.9-3c0,0,2.9-8.4,9.4-9.9C169.8,33.6,170.1,43,170.1,43Z"/><path class="b" d="M165.6,159.2s3.4,3.7,15.3,3.7,28.2-9.2,28.2-9.2l2.2,3.7s-18.8,9.6-29.3,9.8-16.8-4.3-16.8-4.3Z"/><rect class="c" width="6.8" height="1" transform="matrix(0.122, -0.993, 0.993, 0.122, 166.981, 166.288)"/><rect class="c" width="1" height="6.9" transform="translate(188.507 160.923) rotate(-10.091)"/><rect class="c" width="1" height="7.2" transform="matrix(0.938, -0.347, 0.347, 0.938, 205.674, 154.796)"/><path class="b" d="M180.1,162.1v6.3l-6.3-1.2v-5.8Z"/><path class="g" d="M70.5,323.1H.5a.5.5,0,0,1,0-1h70a.5.5,0,0,1,0,1Z"/><path class="g" d="M199.2,323.1H74.4a.5.5,0,0,1,0-1H199.2a.5.5,0,1,1,0,1Z"/><path class="g" d="M258.6,323.1H206.5a.5.5,0,0,1,0-1h52.1a.472.472,0,0,1,.5.5A.536.536,0,0,1,258.6,323.1Z"/><path class="h" d="M157,70.5a7.151,7.151,0,0,0,4.9-.6C159.8,73.8,158.6,73.3,157,70.5Z"/><path class="e" d="M188.4,97.9c-2.8-10.1,8.5-15.6,14.8-9.1,9.5,9.7,12.1,34.6,12.1,56.9a95.48,95.48,0,0,1-8.1,36.3l4.1,7.5,4-2,1.2,11.5-8.1,7.9-8.2-4.5-2.4-15.2,1.2-46.4Z"/><path class="b" d="M192.2,123.9s8.1,3.7,23-.5c.3-14.1-3.1-28.8-9.7-34.1s-9.6-6.6-14.6-3.6-5.6,10.4-4.9,14.4C186.8,104.1,192.2,123.9,192.2,123.9Z"/><path class="e" d="M125.5,46l-1.1-13.3.9-13.7,2.9-7,2.7-.7,4.6,5.8,1.5,11,.5-2.3a4.461,4.461,0,0,1,2.9-3.2h0L140.3,34c.4,3.6-1.4,5-3.9,7.7l-2.9,3.2Z"/><g class="d"><path class="b" d="M127.4,14.8l1.1.5L133.2,32l-.8,53.9L127,80.8,124.8,73l-2.3-31.6Z"/></g><path class="e" d="M76.3,50a25.132,25.132,0,0,0-3.2,1.1L65,64.3l15,11,7.1-14.7Z"/><path class="b" d="M65.9,31.9c0-.5-.1-11.8,4.5-13.7,15.5-6.5,25.6-3.7,29.4,2.6s2,9.8,3.2,12.1l1.2,2.3s-1.9,3.9-13.6,2.7-24.5-5.4-24.5-5.4"/><path class="e" d="M93.8,61.4c-6.5,1.7-16.5-4.6-20.1-12.7s-3.2-29.2,6.8-32S99,21.8,100.9,32.5C102,38.2,102.9,59,93.8,61.4Z"/><path class="e" d="M101.3,37.1a20.641,20.641,0,0,0,4,8.5s-3.9,3.5-8.3,2.6C92.7,47.3,101.3,37.1,101.3,37.1Z"/><path class="b" d="M80.1,43.5,83,40.6s-4.3-4.4-1-12.1,11-7.2,14.6-5.8c2.8,1.1-2-8.4-15.4-6.4-6.9,1.1-6.7,0-11.8,2.5-8,3.8-11.8,11.7-4.2,26.2,1.3,2.5,6.2,8.4,6.2,8.4S82.7,54.8,80.1,43.5Z"/><path class="e" d="M73.8,45.1a5.694,5.694,0,0,0,2.8,3.3c1.7.8,4,1.5,4.8-.7,1.3-3.6-3.5-11-6.7-8.5C72.9,40.7,73.2,43.3,73.8,45.1Z"/><path class="b" d="M99,19.6c3,3.6,5.5,10.3,6.4,11.3l.8,1.1s-2.8-.5-5.4-5.2C98.1,22.2,99,19.6,99,19.6Z"/><path class="i" d="M70.1,190l3.9.4s4.5,33.3,2.3,53.2c-1.7,14.9-.3,49.9.4,66.5H53.5l10.2-58.3Z"/><path class="e" d="M89.3,315.8,77.2,319s-.2-3.5-.4-9H90.5A25.585,25.585,0,0,1,89.3,315.8Z"/><path class="b" d="M44.9,241c3.5-17.8-.8-72.9-.8-72.9L94,144.7l3,31.2c2.6,26.9-4.4,111.4-6.5,134.1H74.7c-.8-16.5-2.1-51.6-.4-66.5,2.2-19.9-1-42.2-1-42.2h0l-9.6,50.4L55.5,310H40.8C40.7,290.9,39.6,267.8,44.9,241Z"/><path class="e" d="M53.5,310l-1.2,9H40.8v-8.9H53.5Z"/><path class="g" d="M90.4,311s4.3,2.3,14,4.9,10.5,4.4,10.5,6.7H76.2l.6-11.6S83.3,319.7,90.4,311Z"/><path class="g" d="M40.7,312.5v10.1h26a4.717,4.717,0,0,0-1.2-3.8c-1.5-1.8-9.4-7.1-9.4-7.1s-4.3-1.7-7.1.6C46.3,314.6,43.7,315.6,40.7,312.5Z"/><path class="b" d="M95.5,244.9c-3.2,0-6.8,1.8-8.3,4.4,1.5,2.6,4.6,3.9,7.8,3.9Z"/><path class="b" d="M55.4,244.9a8.868,8.868,0,0,0-7.6,4.4,8.743,8.743,0,0,0,7.6,4.4,8.868,8.868,0,0,0,7.6-4.4A8.66,8.66,0,0,0,55.4,244.9Z"/><path class="j" d="M62.7,66.4S50.5,72,45.9,81.2s-3.3,98.6-3.3,98.6,46.1,3,55.5,0c0,0-4.5-88-13-104.6L84,73Z"/><path class="g" d="M58.9,68.4l7.2-9.7,17.8,9.7V79.3Z"/><g class="d"><path class="b" d="M81.2,76.9l1.6-7.5,1.1,7.5Z"/></g><g class="d"><path class="b" d="M57.4,90c9.5,11.3,34.8,18.8,34.8,18.8L90.3,95.7,78,84.9Z"/></g><path class="h" d="M94.1,52.1a26.6,26.6,0,0,0,5.8,0S98.4,57.2,94.1,52.1Z"/><path class="k" d="M124.4,18.2a.472.472,0,0,1-.5-.5V.5a.5.5,0,0,1,1,0V17.7A.472.472,0,0,1,124.4,18.2Z"/><path class="k" d="M124.4,57.3a.472.472,0,0,1-.5-.5V39.6a.5.5,0,0,1,1,0V56.8A.472.472,0,0,1,124.4,57.3Z"/><path class="k" d="M118.9,15.9a.55.55,0,0,1-.5-.3l-2.7-6.5c-.1-.3,0-.5.3-.7.3-.1.5,0,.7.3l2.7,6.5c.1.3,0,.5-.3.7Z"/><path class="k" d="M132.6,48.9a.55.55,0,0,1-.5-.3l-2.7-6.5c-.1-.3,0-.5.3-.7.3-.1.5,0,.7.3l2.7,6.5c.1.3,0,.5-.3.7Z"/><path class="k" d="M132.1,21.4a.6.6,0,0,1-.4-.1.483.483,0,0,1,0-.7l7.2-7.2a.495.495,0,0,1,.7.7l-7.2,7.2C132.4,21.4,132.3,21.4,132.1,21.4Zm10.1-10a.6.6,0,0,1-.4-.1.483.483,0,0,1,0-.7l2.1-2.1a.495.495,0,0,1,.7.7l-2.1,2.1C142.4,11.3,142.3,11.4,142.2,11.4Z"/><path class="k" d="M104.5,49.1a.6.6,0,0,1-.4-.1.483.483,0,0,1,0-.7l2.1-2.1a.495.495,0,1,1,.7.7L104.8,49C104.7,49,104.6,49.1,104.5,49.1Zm4.9-5a.6.6,0,0,1-.4-.1.483.483,0,0,1,0-.7l9.4-9.4a.495.495,0,1,1,.7.7L109.7,44C109.7,44.1,109.6,44.1,109.4,44.1Z"/><path class="k" d="M116.7,21.4a.6.6,0,0,1-.4-.1l-7.2-7.2a.495.495,0,1,1,.7-.7l7.2,7.2a.483.483,0,0,1,0,.7A.367.367,0,0,1,116.7,21.4Zm-10.1-10a.6.6,0,0,1-.4-.1l-2.1-2.1a.495.495,0,1,1,.7-.7l2.1,2.1a.483.483,0,0,1,0,.7A1.007,1.007,0,0,1,106.6,11.4Z"/><path class="k" d="M144.3,49.1a.6.6,0,0,1-.4-.1l-2.1-2.1a.495.495,0,1,1,.7-.7l2.1,2.1a.483.483,0,0,1,0,.7A1.007,1.007,0,0,1,144.3,49.1Zm-4.9-5a.6.6,0,0,1-.4-.1l-7.2-7.2a.495.495,0,0,1,.7-.7l7.2,7.2a.483.483,0,0,1,0,.7A.367.367,0,0,1,139.4,44.1Z"/><path class="k" d="M144.3,49.1a.6.6,0,0,1-.4-.1l-2.1-2.1a.495.495,0,1,1,.7-.7l2.1,2.1a.483.483,0,0,1,0,.7A1.007,1.007,0,0,1,144.3,49.1Zm-4.9-5a.6.6,0,0,1-.4-.1l-7.2-7.2a.495.495,0,0,1,.7-.7l7.2,7.2a.483.483,0,0,1,0,.7A.367.367,0,0,1,139.4,44.1Z"/><path class="k" d="M129.9,15.9h-.2a.517.517,0,0,1-.3-.7l2.7-6.5a.539.539,0,0,1,1,.4l-2.7,6.5A.55.55,0,0,1,129.9,15.9Z"/><path class="k" d="M116.2,48.9H116a.517.517,0,0,1-.3-.7l2.7-6.5a.539.539,0,0,1,1,.4l-2.7,6.5A.55.55,0,0,1,116.2,48.9Z"/><path class="k" d="M111.1,23.7h-.2L104.4,21a.539.539,0,1,1,.4-1l6.5,2.7a.517.517,0,0,1,.3.7A.85.85,0,0,1,111.1,23.7Z"/><path class="k" d="M144.1,37.3h-.2l-6.5-2.7a.539.539,0,1,1,.4-1l6.5,2.7a.517.517,0,0,1,.3.7A.55.55,0,0,1,144.1,37.3Z"/><path class="k" d="M104.7,37.3a.55.55,0,0,1-.5-.3c-.1-.3,0-.5.3-.7l6.5-2.7c.3-.1.5,0,.7.3.1.3,0,.5-.3.7l-6.5,2.7Z"/><path class="k" d="M137.7,23.7a.55.55,0,0,1-.5-.3c-.1-.3,0-.5.3-.7L144,20c.3-.1.5,0,.7.3.1.3,0,.5-.3.7l-6.5,2.7Z"/><path class="e" d="M119.9,24.2l1.4-12,2-1,5.2,3.3,1.6,17.1-1.6,12.6-10.6,1.9-3-17,2.3-14.8,2.3-1.1c.5,1.6.4,11,.4,11"/><path class="e" d="M117.9,46.1l-4.2-11.4L112.6,22h0a5.7,5.7,0,0,1,3.8,3.6l1.9,5.6Z"/><path class="e" d="M118.7,42.9,105.5,77s-42.8-4.1-45.7.3-3.7,11.6,2.7,13.5c14,4.2,56.6,3,56.6,3s3.6-11.7,5.6-20.8a196.451,196.451,0,0,0,3.7-28.9Z"/><path class="l" d="M94.6,76.1s-30.9-2.6-36.9-1.9c-5.9.7-11.5,5.4-11.1,10.7s3.9,10.4,12.3,12,40.9-1.6,40.9-1.6Z"/><path class="g" d="M105.5,77c-.3,2.6-1,10.9,2,17.4a.888.888,0,0,1-.7,1.2l-11,1.5a.737.737,0,0,1-.9-.7c-.5-3.3-2.4-16.2-1.1-20.9a.875.875,0,0,1,.9-.6l10,1.2C105.3,76.2,105.6,76.6,105.5,77Z"/></g></g></g></svg>