<svg id="Group_500" data-name="Group 500" xmlns="http://www.w3.org/2000/svg" width="155.493" height="103.662" viewBox="0 0 155.493 103.662">
  <g id="Group_486" data-name="Group 486" transform="translate(0 0)">
    <path id="XMLID_196_" d="M195.225,346.1h57.221v51.831H174.7V366.625A20.44,20.44,0,0,1,195.225,346.1Z" transform="translate(-174.7 -307.33)" fill="#091440"/>
    <path id="XMLID_195_" d="M193.961,371.1,180.9,384.161V371.1Z" transform="translate(-168.046 -280.499)" fill="#091440"/>
    <path id="XMLID_194_" d="M197.061,346.1,184,359.161V346.1Z" transform="translate(-164.719 -307.33)" fill="#fff"/>
    <path id="XMLID_193_" d="M237.2,368l12.854,12.854V368Z" transform="translate(-107.622 -283.826)" fill="#c4cbd2"/>
    <rect id="XMLID_192_" width="77.747" height="45.404" transform="translate(77.747 38.77)" fill="#091440"/>
    <rect id="XMLID_191_" width="76.088" height="6.427" transform="translate(77.747 45.197)" fill="#fff"/>
    <rect id="XMLID_190_" width="76.088" height="6.427" transform="translate(77.747 58.258)" fill="#fff"/>
    <rect id="XMLID_189_" width="76.088" height="6.427" transform="translate(77.747 71.112)" fill="#fff"/>
    <path id="XMLID_188_" d="M243.406,330.5H212.1v38.977h51.831V351.232A20.357,20.357,0,0,0,243.406,330.5Z" transform="translate(-134.561 -324.073)" fill="#091440"/>
    <path id="XMLID_187_" d="M204.732,327.4h37.733v38.977H184V348.132A20.661,20.661,0,0,1,204.732,327.4Z" transform="translate(-164.719 -327.4)" fill="#fff"/>
    <g id="XMLID_181_" transform="translate(34.001 5.183)">
      <path id="XMLID_186_" d="M200.246,334.5l.207.622a4.431,4.431,0,0,0,3.525,2.488h.622l-.415.415a4.422,4.422,0,0,0-1.244,4.146l.207.622-.622-.207a5.312,5.312,0,0,0-4.354,0l-.622.207.207-.622a5.012,5.012,0,0,0-1.244-4.146l-.415-.415h.622a4.929,4.929,0,0,0,3.525-2.488Z" transform="translate(-185.734 -324.963)" fill="#091440"/>
      <path id="XMLID_185_" d="M205.246,329.9l.207.622a4.431,4.431,0,0,0,3.525,2.488h.622l-.415.415a4.422,4.422,0,0,0-1.244,4.147l.207.622-.622-.207a5.312,5.312,0,0,0-4.354,0l-.622.207.207-.622a5.012,5.012,0,0,0-1.244-4.147l-.415-.415h.622a4.929,4.929,0,0,0,3.525-2.488Z" transform="translate(-180.368 -329.9)" fill="#091440"/>
      <path id="XMLID_184_" d="M195.246,329.9l.207.622a4.431,4.431,0,0,0,3.525,2.488h.622l-.415.415a4.422,4.422,0,0,0-1.244,4.147l.207.622-.622-.207a5.312,5.312,0,0,0-4.354,0l-.622.207.207-.622a5.012,5.012,0,0,0-1.244-4.147l-.415-.415h.622a4.929,4.929,0,0,0,3.524-2.488Z" transform="translate(-191.1 -329.9)" fill="#091440"/>
      <path id="XMLID_183_" d="M205.246,339.5l.207.622a4.431,4.431,0,0,0,3.525,2.488h.622l-.415.415a4.422,4.422,0,0,0-1.244,4.147l.207.622-.622-.207a5.313,5.313,0,0,0-4.354,0l-.622.207.207-.622a5.012,5.012,0,0,0-1.244-4.147l-.415-.415h.622a4.929,4.929,0,0,0,3.525-2.488Z" transform="translate(-180.368 -319.597)" fill="#091440"/>
      <path id="XMLID_182_" d="M195.246,339.5l.207.622a4.431,4.431,0,0,0,3.525,2.488h.622l-.415.415a4.422,4.422,0,0,0-1.244,4.147l.207.622-.622-.207a5.313,5.313,0,0,0-4.354,0l-.622.207.207-.622a5.012,5.012,0,0,0-1.244-4.147l-.415-.415h.622a4.929,4.929,0,0,0,3.524-2.488Z" transform="translate(-191.1 -319.597)" fill="#091440"/>
    </g>
    <path id="XMLID_180_" d="M200.132,354.3l6.22,10.574,6.22,10.781H187.9l6.22-10.781Z" transform="translate(-160.533 -298.53)" fill="#fff"/>
    <rect id="XMLID_179_" width="6.427" height="45.404" transform="translate(148.859 38.77)" fill="#fff"/>
    <path id="XMLID_178_" d="M224.7,346.1l12.854,13.061V346.1Z" transform="translate(-121.038 -307.33)" fill="#091440"/>
  </g>
</svg>
