<svg xmlns="http://www.w3.org/2000/svg" viewBox="13773 1329 20 20"><defs><style>.a,.b{fill:#8997a5;}.a{stroke:#fff;stroke-miterlimit:10;stroke-width:20px;}.c{fill:#091440;}.d{fill:none;}</style></defs><g transform="translate(12774 856)"><g transform="translate(1009 483)"><path class="a" d="M200,200" transform="translate(-200 -200)"/></g><g transform="translate(1002.475 474.245)"><path class="b" d="M82.55,35.885c0-5.57-6.525-10.985-6.525-10.985S69.5,30.315,69.5,35.885a6.525,6.525,0,0,0,13.05,0Z" transform="translate(-69.5 -24.9)"/><path class="a" d="M279.9,265.7" transform="translate(-269.38 -253.66)"/><path class="c" d="M76.12,224.115a6.523,6.523,0,0,1-6.41-5.315,7.505,7.505,0,0,0-.11,1.295,6.525,6.525,0,0,0,13.05,0,8.037,8.037,0,0,0-.11-1.295A6.541,6.541,0,0,1,76.12,224.115Z" transform="translate(-69.595 -209.105)"/></g><rect class="d" width="20" height="20" transform="translate(999 473)"/></g></svg>