<?xml version="1.0" encoding="UTF-8"?>
<svg width="24px" height="24px" viewBox="0 0 24 24" version="1.1" xmlns="http://www.w3.org/2000/svg" xmlns:xlink="http://www.w3.org/1999/xlink">
    <!-- Generator: Sketch 55.2 (78181) - https://sketchapp.com -->
    <title>ic_smartphone_24px</title>
    <desc>Created with Sketch.</desc>
    <g id="Page-1" stroke="none" stroke-width="1" fill="none" fill-rule="evenodd">
        <g id="Artboard" transform="translate(-423.000000, -30.000000)">
            <g id="ic_smartphone_24px" transform="translate(423.000000, 30.000000)">
                <rect id="Base" x="0" y="0" width="24" height="24"></rect>
                <path d="M8,2 L16,2 C17.1045695,2 18,2.8954305 18,4 L18,5 L6,5 L6,4 C6,2.8954305 6.8954305,2 8,2 Z" id="Rectangle" fill="#091440" fill-rule="nonzero"></path>
                <path d="M6,18 L18,18 L18,20 C18,21.1045695 17.1045695,22 16,22 L8,22 C6.8954305,22 6,21.1045695 6,20 L6,18 Z" id="Rectangle" fill="#091440" fill-rule="nonzero"></path>
                <rect id="Rectangle" fill="#2970FF" fill-rule="nonzero" x="6" y="5" width="12" height="13"></rect>
                <rect id="Rectangle" fill="#2970FF" fill-rule="nonzero" x="10" y="3" width="4" height="1" rx="0.5"></rect>
                <rect id="Rectangle" fill="#2970FF" fill-rule="nonzero" x="11" y="19" width="2" height="2" rx="1"></rect>
            </g>
            <g id="ic_smartphone_24px" transform="translate(444.000000, 52.000000)">
                <rect id="Base" x="0" y="0" width="48" height="48"></rect>
            </g>
        </g>
    </g>
</svg>