<svg xmlns="http://www.w3.org/2000/svg" viewBox="0 0 70 70">
  <defs>
    <style>
      .cls-1 {
        fill: #091440;
      }

      .cls-2 {
        fill: #fff;
      }
    </style>
  </defs>
  <g id="Symbol_344_1" data-name="Symbol 344 – 1" transform="translate(-215 -797)">
    <circle id="Ellipse_238" data-name="Ellipse 238" class="cls-1" cx="35" cy="35" r="35" transform="translate(215 797)"/>
    <g id="Group_2392" data-name="Group 2392" transform="translate(230.695 815.191)">
      <g id="symbol_1_" transform="translate(0)">
        <ellipse id="Ellipse_236" data-name="Ellipse 236" class="cls-2" cx="2.699" cy="2.699" rx="2.699" ry="2.699" transform="translate(19.73)"/>
        <path id="Path_1482" data-name="Path 1482" class="cls-2" d="M183.11,11.274A11.276,11.276,0,0,0,171.836,0h-1.091V5.4h1.091a5.759,5.759,0,0,1,5.757,5.757,5.663,5.663,0,0,1-5.985,5.757H163.5V28.186h5.157V22.309h3.406A10.82,10.82,0,0,0,183.11,11.562Z" transform="translate(-143.89)"/>
        <ellipse id="Ellipse_237" data-name="Ellipse 237" class="cls-2" cx="2.699" cy="2.699" rx="2.699" ry="2.699" transform="translate(14.093 28.425)"/>
        <path id="Path_1483" data-name="Path 1483" class="cls-2" d="M0,63.911A11.277,11.277,0,0,0,11.274,75.186h1.091v-5.4H11.274a5.759,5.759,0,0,1-5.757-5.757A5.663,5.663,0,0,1,11.5,58.274H19.61V47H14.453v5.877H11.046A10.813,10.813,0,0,0,0,63.623Z" transform="translate(0 -41.363)"/>
      </g>
    </g>
  </g>
</svg>
