<svg xmlns="http://www.w3.org/2000/svg" viewBox="0 0 550.1 465"><defs><style>.cls-1{fill:#fff;}</style></defs><title>Asset 93</title><g id="Layer_2" data-name="Layer 2"><g id="Layer_1-2" data-name="Layer 1"><path class="cls-1" d="M437.33,352.24,550.1,465H439.19l-186-186H368.28a93,93,0,0,0,0-186H330.85l-93-93H364.1c102.72,0,186,83.27,186,186C550.1,261.43,516.85,320.62,437.33,352.24Z"/><path class="cls-1" d="M112.76,112.76,0,0H110.9l186,186H181.82a93,93,0,1,0,0,186h37.43l93,93H186A186,186,0,0,1,0,279C0,203.57,33.25,144.38,112.76,112.76Z"/></g></g></svg>