<svg xmlns="http://www.w3.org/2000/svg" viewBox="0 0 1000 1000"><defs><style>.cls-1{fill:#4a4a4a;opacity:0;}.cls-2{fill:#fff;}</style></defs><title>launch icon inverse-02</title><g id="图层_2" data-name="图层 2"><g id="图层_1-2" data-name="图层 1"><rect class="cls-1" width="1000" height="1000"/><path class="cls-2" d="M356.31,443.8a27.85,27.85,0,0,1-12.87-31.42c-6.25-5.61-11.66-10.9-16.07-15.74-24.46-26.87-39.27-33.14-47.76-33.14a15.78,15.78,0,0,0-2.12.13c-6.49.89-12.35,6.42-17.42,16.46-12.65,25,2.8,64.88,17.75,103.42,3.16,8.13,6.42,16.54,9.38,24.72,8.06,22.27,11.78,48.25,12.29,74,7.6-17.08,15.72-33.68,24.1-49.13h0a662.55,662.55,0,0,1,50.69-79.15Q365.27,449,356.31,443.8Z"/><path class="cls-2" d="M604,546.79c.29-2.87.61-5.68,1-8.45a811.5,811.5,0,0,1-212.3-74.65,639.08,639.08,0,0,0-50.95,79.21c-26,47.88-48.82,105.68-61.14,154.6-14.13,56.1-13.64,96.26,1.35,113.09,10.63,11.92,38.18,16.32,73.63-2.1l7.72-4.94c28.88-18.39,53.82-34.28,95.85-92.17a10.31,10.31,0,1,1,16.69,12.12c-7.63,10.51-14.77,19.74-21.51,27.9,35.34-1.66,58.33,16.92,78.65,33.34,16.07,13,30,24.21,48,25.27,34.86,2,49.29-40.41,49.42-40.83h0c9.94-32.74.92-63.58-9.51-99.3C610.68,634.9,599.1,595.26,604,546.79Z"/><path class="cls-2" d="M610.84,503A811.88,811.88,0,0,1,417,433.57q-5.71,6.62-11.35,13.56A791.18,791.18,0,0,0,608,517.91Q609.34,510.17,610.84,503Z"/><path class="cls-2" d="M731.92,558c-1.3-7.88-9.91-13-23-13.58-4.32-.2-9-.42-13.85-.67a27.06,27.06,0,0,1-17.11,6.09,29,29,0,0,1-3.34-.2q-25-3-49.32-7.39c-.26,2.19-.51,4.4-.74,6.66-3.43,33.85,1.84,62.77,9,90,9.51-11.78,24.58-23.42,48.22-32.72C717.6,592.08,734.12,571.27,731.92,558Z"/><path class="cls-2" d="M678.71,515.25C570.13,499.92,472.06,466.47,378.89,413a11.53,11.53,0,0,0-5.76-1.55,11,11,0,0,0-7.8,3.2l-.39.38a6.72,6.72,0,0,0-1.79,5.68,7.08,7.08,0,0,0,3.48,5.25c96.45,55.77,198,89.52,310.46,103.18a6.63,6.63,0,0,0,5.53-1.94,6.74,6.74,0,0,0,1.92-5.65l0-.31A6.87,6.87,0,0,0,678.71,515.25Z"/><path class="cls-2" d="M389.16,395.1c90.85,52.14,186.5,84.77,292.44,99.72a26.49,26.49,0,0,1,5.18,1.27c35.6-36,58-87.73,57.82-134.73A183.07,183.07,0,0,0,561.55,179.07h-.8C459.8,179.5,378,262,378.46,362.92c0,5.81.2,18,1.13,28.56A31.87,31.87,0,0,1,389.16,395.1Zm72.31-143.27a143.4,143.4,0,0,1,106.24-40.22C642,214.7,702.6,275.34,705.65,349.67a143.91,143.91,0,0,1-33.79,98.94c-7.72,9.15-25.05,16.79-37.52,16.79-.68,0-1.34,0-2-.07-76.58-5.47-155.83-38.77-191.52-67.32-10.8-8.64-23.44-24.66-23.54-41.41v-.26A143,143,0,0,1,461.47,251.83Z"/><path class="cls-2" d="M464.89,362.36c-9.07-17.51-5.82-40-1.21-56.09,4.53-15.87,15.07-35.06,27.77-53.74a1.37,1.37,0,0,0-2.13-1.72c-24.61,26.93-45.14,59.78-45,98.25h0a43.42,43.42,0,0,0,12.8,30.63c20.5,20.32,55.63,37.25,75.59,46.69a1.37,1.37,0,0,0,1.37-2.36c-13.92-9.65-33.81-23.42-53-40.7C475.13,377.89,467.48,367.38,464.89,362.36Z"/><circle class="cls-2" cx="663.48" cy="343.43" r="4.99"/><circle class="cls-2" cx="659.54" cy="310.55" r="15.95"/><circle class="cls-2" cx="632.18" cy="286.7" r="11.4"/></g></g></svg>