<svg xmlns="http://www.w3.org/2000/svg" width="16.18" height="12.944" viewBox="0 0 16.18 12.944">
  <g id="Symbol_234_13" data-name="Symbol 234 – 13" transform="translate(-847 -689.3)">
    <path id="XMLID_2_" d="M182.58,5.874a6.948,6.948,0,0,1-1.924.525,3.429,3.429,0,0,0,1.487-1.837,7.472,7.472,0,0,1-2.1.787A3.507,3.507,0,0,0,177.595,4.3a3.322,3.322,0,0,0-3.323,3.323,2.421,2.421,0,0,0,.087.787A9.913,9.913,0,0,1,167.537,5a3.617,3.617,0,0,0-.437,1.662,3.2,3.2,0,0,0,1.487,2.711,2.948,2.948,0,0,1-1.487-.437h0a3.291,3.291,0,0,0,2.624,3.236,2.975,2.975,0,0,1-.875.087,1.488,1.488,0,0,1-.612-.087,3.284,3.284,0,0,0,3.061,2.274,6.665,6.665,0,0,1-4.111,1.4,2.421,2.421,0,0,1-.787-.087,9.367,9.367,0,0,0,14.431-7.871V7.448A4.38,4.38,0,0,0,182.58,5.874Z" transform="translate(680.6 685)" fill="#e9f8fe"/>
  </g>
</svg>
