<?xml version="1.0" encoding="UTF-8" standalone="no"?>
<!-- Generator: Adobe Illustrator 16.0.0, SVG Export Plug-In . SVG Version: 6.00 Build 0)  -->

<svg
   xmlns:dc="http://purl.org/dc/elements/1.1/"
   xmlns:cc="http://creativecommons.org/ns#"
   xmlns:rdf="http://www.w3.org/1999/02/22-rdf-syntax-ns#"
   xmlns:svg="http://www.w3.org/2000/svg"
   xmlns="http://www.w3.org/2000/svg"
   xmlns:sodipodi="http://sodipodi.sourceforge.net/DTD/sodipodi-0.dtd"
   xmlns:inkscape="http://www.inkscape.org/namespaces/inkscape"
   version="1.1"
   x="0px"
   y="0px"
   width="32"
   height="32"
   viewBox="0 0 32 32"
   enable-background="new 0 0 32 64"
   xml:space="preserve"
   id="svg11"
   sodipodi:docname="iconTwitter.svg"
   inkscape:version="0.92.3 (2405546, 2018-03-11)"><metadata
   id="metadata17"><rdf:RDF><cc:Work
       rdf:about=""><dc:format>image/svg+xml</dc:format><dc:type
         rdf:resource="http://purl.org/dc/dcmitype/StillImage" /><dc:title></dc:title></cc:Work></rdf:RDF></metadata><defs
   id="defs15">
	
	
</defs><sodipodi:namedview
   pagecolor="#ffffff"
   bordercolor="#666666"
   borderopacity="1"
   objecttolerance="10"
   gridtolerance="10"
   guidetolerance="10"
   inkscape:pageopacity="0"
   inkscape:pageshadow="2"
   inkscape:window-width="706"
   inkscape:window-height="480"
   id="namedview13"
   showgrid="false"
   inkscape:pagecheckerboard="true"
   inkscape:zoom="3.6875"
   inkscape:cx="17.355932"
   inkscape:cy="32"
   inkscape:window-x="51"
   inkscape:window-y="27"
   inkscape:window-maximized="0"
   inkscape:current-layer="svg11" />
<path
   style="fill:#ffffff"
   inkscape:connector-curvature="0"
   d="M 28,8.558 C 27.117,8.95 26.168,9.214 25.172,9.332 26.189,8.723 26.969,7.758 27.337,6.608 26.386,7.172 25.332,7.582 24.21,7.802 23.312,6.845 22.032,6.247 20.616,6.247 c -2.72,0 -4.924,2.205 -4.924,4.924 0,0.387 0.043,0.762 0.127,1.122 C 11.727,12.088 8.099,10.128 5.671,7.148 5.247,7.876 5.004,8.721 5.004,9.624 c 0,1.709 0.869,3.216 2.19,4.099 -0.807,-0.025 -1.566,-0.247 -2.23,-0.616 0,0.021 0,0.041 0,0.063 0,2.385 1.697,4.375 3.95,4.828 C 8.5,18.11 8.065,18.17 7.616,18.17 c -0.317,0 -0.626,-0.03 -0.927,-0.088 0.627,1.956 2.445,3.38 4.601,3.42 -1.686,1.32 -3.809,2.107 -6.115,2.107 -0.397,0 -0.79,-0.023 -1.175,-0.069 2.179,1.397 4.768,2.213 7.548,2.213 9.057,0 14.01,-7.503 14.01,-14.01 0,-0.214 -0.005,-0.426 -0.015,-0.637 C 26.505,10.413 27.34,9.545 28,8.558 Z"
   id="XMLID_793_" />
<g
   id="Layer_2"
   display="none"
   style="display:none"
   transform="translate(0,-32)">
</g>
<g
   id="specctr"
   display="none"
   style="display:none"
   transform="translate(0,-32)">
	<g
   id="Dimensions"
   display="inline"
   style="display:inline">
	</g>
	<g
   id="Spacing"
   display="inline"
   style="display:inline">
	</g>
	<g
   id="Text_Properties"
   display="inline"
   style="display:inline">
	</g>
	<g
   id="Object_Properties"
   display="inline"
   style="display:inline">
	</g>
</g>
</svg>