<svg xmlns="http://www.w3.org/2000/svg" width="18" height="18" viewBox="0 0 18 18">
  <g id="Symbol_1081_1" data-name="Symbol 1081 – 1" transform="translate(22459 1048)">
    <g id="Group_3068" data-name="Group 3068" transform="translate(-20700 18436)">
      <g id="facebook-icon" transform="translate(-1757 -19482)">
        <path id="Path_1914" data-name="Path 1914" d="M13.29,14.066a.776.776,0,0,0,.776-.776V.776A.776.776,0,0,0,13.29,0H.776A.776.776,0,0,0,0,.776V13.29a.776.776,0,0,0,.776.776H13.29Z" fill="#fff"/>
        <path id="Path_1915" data-name="Path 1915" d="M111.8,52.252V46.8h1.828l.274-2.123h-2.1V43.326c0-.615.171-1.033,1.052-1.033h1.124v-1.9a15.041,15.041,0,0,0-1.638-.084,2.558,2.558,0,0,0-2.73,2.806v1.566h-1.833V46.8h1.833v5.447H111.8Z" transform="translate(-102.094 -38.186)" fill="#1b41b3"/>
      </g>
    </g>
    <rect id="Rectangle_2230" data-name="Rectangle 2230" width="18" height="18" transform="translate(-22459 -1048)" fill="none"/>
  </g>
</svg>
