<svg xmlns="http://www.w3.org/2000/svg" width="18" height="18" viewBox="0 0 18 18">
  <g id="Symbol_1080_1" data-name="Symbol 1080 – 1" transform="translate(22167 1048)">
    <g id="sina-weibo-1" transform="translate(-22165 -1045)">
      <path id="Path_1907" data-name="Path 1907" d="M38.189,3.591c.064.833-.077,1.831-.627,1.88-.9.08-.429-.909-.418-1.5a2.906,2.906,0,0,0-2.882-2.924c-.409,0-1.358.277-1.212-.585.066-.38.388-.375.71-.418A3.807,3.807,0,0,1,38.189,3.591Z" transform="translate(-23.258 0)" fill="#fff"/>
      <path id="Path_1908" data-name="Path 1908" d="M10.963,9.5c1.043.571,2.3.855,2.088,2.548a3.236,3.236,0,0,1-.543,1.294c-1.763,2.468-7.081,3.505-10.4,1.63A3.358,3.358,0,0,1,.019,11.586,6.57,6.57,0,0,1,2.274,7.744a7.332,7.332,0,0,1,3.467-2.13c1.547-.389,2,.9,1.587,2.172.9-.06,2.795-1.06,3.634-.083a1.9,1.9,0,0,1,0,1.8Zm-1.128,4.01a2.516,2.516,0,0,0,.668-1.629c0-2.076-2.62-2.843-4.678-2.674A5.807,5.807,0,0,0,3.151,10a3.078,3.078,0,0,0-1.587,1.921C1.142,14,3.408,14.984,5.073,15.1A6.115,6.115,0,0,0,9.835,13.508Z" transform="translate(0 -3.902)" fill="#fff"/>
      <path id="Path_1909" data-name="Path 1909" d="M37.271,8.441c.088.636-.094,1.187-.459,1.211-.609.041-.381-.417-.418-.961a1.142,1.142,0,0,0-.543-.836c-.475-.223-1.211.162-1.211-.5,0-.492.427-.441.669-.46A1.8,1.8,0,0,1,37.271,8.441Z" transform="translate(-24.387 -4.85)" fill="#fff"/>
      <path id="Path_1910" data-name="Path 1910" d="M15.775,23.126c.89,2.69-3.747,3.941-4.595,1.629-.567-1.546.795-2.775,2.214-2.924A2.15,2.15,0,0,1,15.775,23.126Zm-2.13.46a.314.314,0,0,0,.585-.167C14.184,23.119,13.641,23.164,13.645,23.586Zm-.752,1.42c.78-.186.884-1.654-.292-1.379C11.612,23.859,11.8,25.265,12.893,25.006Z" transform="translate(-7.778 -15.358)" fill="#fff"/>
    </g>
    <rect id="Rectangle_2238" data-name="Rectangle 2238" width="18" height="18" transform="translate(-22167 -1048)" fill="none"/>
  </g>
</svg>
