<svg xmlns="http://www.w3.org/2000/svg" width="18" height="18" viewBox="0 0 18 18">
  <g id="Symbol_1077_1" data-name="Symbol 1077 – 1" transform="translate(22276 1048)">
    <g id="Symbol_1052" data-name="Symbol 1052" transform="translate(-23002.074 -1730.941)">
      <path id="Path_18" data-name="Path 18" d="M59.914,83.9a.78.78,0,1,0,.714.777A.746.746,0,0,0,59.914,83.9Zm2.557,0a.78.78,0,1,0,.714.777A.746.746,0,0,0,62.471,83.9Z" transform="translate(673.947 606.977)" fill="#fff"/>
      <path id="Path_19" data-name="Path 19" d="M10.822,0H1.436A1.439,1.439,0,0,0,0,1.443v9.47a1.439,1.439,0,0,0,1.436,1.443H9.379l-.371-1.3.9.834.848.784,1.506,1.331V1.443A1.439,1.439,0,0,0,10.822,0Zm-2.7,9.148s-.252-.3-.462-.567a2.21,2.21,0,0,0,1.268-.834,4.008,4.008,0,0,1-.806.413,4.61,4.61,0,0,1-1.016.3,4.907,4.907,0,0,1-1.814-.007,5.88,5.88,0,0,1-1.03-.3,4.1,4.1,0,0,1-.511-.238c-.021-.014-.042-.021-.063-.035a.1.1,0,0,1-.028-.021c-.126-.07-.2-.119-.2-.119a2.178,2.178,0,0,0,1.226.827c-.21.266-.469.581-.469.581A2.54,2.54,0,0,1,2.08,8.083,9.38,9.38,0,0,1,3.089,4a3.464,3.464,0,0,1,1.968-.735l.07.084a4.725,4.725,0,0,0-1.842.918s.154-.084.413-.2a5.26,5.26,0,0,1,1.59-.441.69.69,0,0,1,.119-.014,5.927,5.927,0,0,1,1.415-.014,5.71,5.71,0,0,1,2.108.672,4.662,4.662,0,0,0-1.744-.89l.1-.112A3.464,3.464,0,0,1,9.253,4a9.38,9.38,0,0,1,1.009,4.084A2.56,2.56,0,0,1,8.118,9.148Z" transform="translate(729 685)" fill="#fff"/>
    </g>
    <rect id="Rectangle_2235" data-name="Rectangle 2235" width="18" height="18" transform="translate(-22276 -1048)" fill="none"/>
  </g>
</svg>
