<?xml version="1.0" encoding="UTF-8" standalone="no"?>
<svg
   xmlns:dc="http://purl.org/dc/elements/1.1/"
   xmlns:cc="http://creativecommons.org/ns#"
   xmlns:rdf="http://www.w3.org/1999/02/22-rdf-syntax-ns#"
   xmlns:svg="http://www.w3.org/2000/svg"
   xmlns="http://www.w3.org/2000/svg"
   xmlns:sodipodi="http://sodipodi.sourceforge.net/DTD/sodipodi-0.dtd"
   xmlns:inkscape="http://www.inkscape.org/namespaces/inkscape"
   version="1.1"
   id="Layer_1"
   x="0px"
   y="0px"
   viewBox="0 0 32 32"
   xml:space="preserve"
   sodipodi:docname="iconMedium.svg"
   inkscape:version="0.92.3 (2405546, 2018-03-11)"
   width="32"
   height="32"><metadata
   id="metadata19"><rdf:RDF><cc:Work
       rdf:about=""><dc:format>image/svg+xml</dc:format><dc:type
         rdf:resource="http://purl.org/dc/dcmitype/StillImage" /><dc:title></dc:title></cc:Work></rdf:RDF></metadata><defs
   id="defs17" /><sodipodi:namedview
   pagecolor="#ffffff"
   bordercolor="#666666"
   borderopacity="1"
   objecttolerance="10"
   gridtolerance="10"
   guidetolerance="10"
   inkscape:pageopacity="0"
   inkscape:pageshadow="2"
   inkscape:window-width="1549"
   inkscape:window-height="873"
   id="namedview15"
   showgrid="false"
   inkscape:pagecheckerboard="true"
   inkscape:zoom="10.73097"
   inkscape:cx="1.6522988"
   inkscape:cy="31.15314"
   inkscape:window-x="51"
   inkscape:window-y="27"
   inkscape:window-maximized="1"
   inkscape:current-layer="Layer_1" />
<style
   type="text/css"
   id="style2">
	.st0{display:none;}
	.st1{display:inline;}
	.st2{fill:#D5EDFA;}
	.st3{fill:#FFFFFF;}
</style>
<g
   id="Layer_2_1_"
   class="st0"
   style="display:none"
   transform="translate(0,-32)">
</g>
<g
   id="specctr"
   class="st0"
   style="display:none"
   transform="translate(0,-32)">
	<g
   id="Dimensions"
   class="st1"
   style="display:inline">
	</g>
	<g
   id="Spacing"
   class="st1"
   style="display:inline">
	</g>
	<g
   id="Text_Properties"
   class="st1"
   style="display:inline">
	</g>
	<g
   id="Object_Properties"
   class="st1"
   style="display:inline">
	</g>
</g>


<path
   class="st3"
   d="M 4,4 V 28 H 28 V 4 Z m 19.9,5.7 -1.3,1.2 c -0.1,0.1 -0.2,0.2 -0.1,0.4 v 9.1 c 0,0.1 0,0.3 0.1,0.4 l 1.3,1.2 v 0.3 H 17.6 V 22 l 1.3,-1.3 C 19,20.6 19,20.5 19,20.3 V 13 l -3.6,9.2 H 14.9 L 10.7,13 v 6.2 c 0,0.3 0.1,0.5 0.2,0.7 l 1.7,2.1 v 0.3 H 7.8 V 22 L 9.5,19.9 C 9.7,19.7 9.8,19.4 9.7,19.2 V 12 C 9.7,11.8 9.6,11.6 9.5,11.5 L 8,9.7 V 9.4 h 4.7 l 3.6,7.9 3.2,-7.9 H 24 v 0.3 z"
   id="path12"
   inkscape:connector-curvature="0"
   style="fill:#ffffff" />
</svg>