<?xml version="1.0" encoding="UTF-8" standalone="no"?>
<svg
   xmlns:dc="http://purl.org/dc/elements/1.1/"
   xmlns:cc="http://creativecommons.org/ns#"
   xmlns:rdf="http://www.w3.org/1999/02/22-rdf-syntax-ns#"
   xmlns:svg="http://www.w3.org/2000/svg"
   xmlns="http://www.w3.org/2000/svg"
   xmlns:sodipodi="http://sodipodi.sourceforge.net/DTD/sodipodi-0.dtd"
   xmlns:inkscape="http://www.inkscape.org/namespaces/inkscape"
   class="icon"
   height="500"
   viewBox="0 0 500 1000"
   version="1.1"
   id="svg4"
   sodipodi:docname="5c2864d39e.svg"
   width="500"
   inkscape:version="0.92.3 (2405546, 2018-03-11)">
  <metadata
     id="metadata10">
    <rdf:RDF>
      <cc:Work
         rdf:about="">
        <dc:format>image/svg+xml</dc:format>
        <dc:type
           rdf:resource="http://purl.org/dc/dcmitype/StillImage" />
        <dc:title></dc:title>
      </cc:Work>
    </rdf:RDF>
  </metadata>
  <defs
     id="defs8" />
  <sodipodi:namedview
     pagecolor="#ffffff"
     bordercolor="#666666"
     borderopacity="1"
     objecttolerance="10"
     gridtolerance="10"
     guidetolerance="10"
     inkscape:pageopacity="0"
     inkscape:pageshadow="2"
     inkscape:window-width="1549"
     inkscape:window-height="873"
     id="namedview6"
     showgrid="false"
     inkscape:pagecheckerboard="true"
     inkscape:zoom="0.33886719"
     inkscape:cx="424.94524"
     inkscape:cy="256"
     inkscape:window-x="51"
     inkscape:window-y="27"
     inkscape:window-maximized="1"
     inkscape:current-layer="svg4" />
  <path
     d="M 250,897.824 C 30.864,897.824 -147.824,719.648 -147.824,500 -147.824,280.352 30.864,102.176 250,102.176 c 219.136,0 397.824,178.176 397.824,397.824 0,219.648 -178.688,397.824 -397.824,397.824 z m 0,-697.856 C 84.624,199.968 -50.032,334.624 -50.032,500 -50.032,665.376 84.624,800.032 250,800.032 415.376,800.032 550.032,665.376 550.032,500 550.032,334.624 415.376,199.968 250,199.968 Z M 403.088,451.36 214.16,325.92 c -25.6,-16.896 -59.904,-9.728 -76.8,15.36 l -4.096,6.144 c -16.896,25.6 -9.728,59.904 15.36,76.8 l 113.664,75.264 -113.664,75.264 c -25.6,16.896 -32.256,51.2 -15.36,76.8 l 4.096,6.144 c 16.896,25.6 51.2,32.256 76.8,15.36 l 188.928,-125.44 c 16.896,-11.264 25.6,-29.696 24.576,-48.64 1.024,-17.92 -7.68,-36.352 -24.576,-47.616 z"
     id="path2"
     style="fill:#ffffff;fill-opacity:1"
     inkscape:connector-curvature="0" />
</svg>
