<?xml version="1.0" encoding="UTF-8" standalone="no"?>
<!-- Generator: Adobe Illustrator 16.0.0, SVG Export Plug-In . SVG Version: 6.00 Build 0)  -->

<svg
   xmlns:dc="http://purl.org/dc/elements/1.1/"
   xmlns:cc="http://creativecommons.org/ns#"
   xmlns:rdf="http://www.w3.org/1999/02/22-rdf-syntax-ns#"
   xmlns:svg="http://www.w3.org/2000/svg"
   xmlns="http://www.w3.org/2000/svg"
   xmlns:sodipodi="http://sodipodi.sourceforge.net/DTD/sodipodi-0.dtd"
   xmlns:inkscape="http://www.inkscape.org/namespaces/inkscape"
   version="1.1"
   x="0px"
   y="0px"
   width="32"
   height="32"
   viewBox="0 0 32 32"
   enable-background="new 0 0 32 64"
   xml:space="preserve"
   id="svg11"
   sodipodi:docname="iconGithub.svg"
   inkscape:version="0.92.3 (2405546, 2018-03-11)"><metadata
   id="metadata17"><rdf:RDF><cc:Work
       rdf:about=""><dc:format>image/svg+xml</dc:format><dc:type
         rdf:resource="http://purl.org/dc/dcmitype/StillImage" /><dc:title></dc:title></cc:Work></rdf:RDF></metadata><defs
   id="defs15">
	
	
</defs><sodipodi:namedview
   pagecolor="#ffffff"
   bordercolor="#666666"
   borderopacity="1"
   objecttolerance="10"
   gridtolerance="10"
   guidetolerance="10"
   inkscape:pageopacity="0"
   inkscape:pageshadow="2"
   inkscape:window-width="1549"
   inkscape:window-height="873"
   id="namedview13"
   showgrid="false"
   inkscape:pagecheckerboard="true"
   inkscape:zoom="3.6875"
   inkscape:cx="17.355932"
   inkscape:cy="32"
   inkscape:window-x="51"
   inkscape:window-y="27"
   inkscape:window-maximized="1"
   inkscape:current-layer="svg11" />
<path
   style="clip-rule:evenodd;fill:#ffffff;fill-rule:evenodd"
   inkscape:connector-curvature="0"
   d="m 16,4.2959881 c -6.626,0 -12,5.372 -12,12.0009999 0,5.301 3.438,9.798 8.207,11.385 0.601,0.11 0.819,-0.261 0.819,-0.579 0,-0.284 -0.011,-1.039 -0.017,-2.041 -3.338,0.726 -4.042,-1.608 -4.042,-1.608 -0.546,-1.386 -1.332,-1.754 -1.332,-1.754 -1.09,-0.745 0.082,-0.73 0.082,-0.73 1.204,0.085 1.838,1.237 1.838,1.237 1.07,1.834 2.809,1.304 3.493,0.997 0.108,-0.775 0.419,-1.304 0.762,-1.603 -2.665,-0.304 -5.467,-1.333 -5.467,-5.932 0,-1.31 0.468,-2.381 1.235,-3.22 -0.123,-0.304 -0.535,-1.523 0.118,-3.1749999 0,0 1.007,-0.323 3.3,1.2299999 0.957,-0.267 1.983,-0.399 3.004,-0.404 1.02,0.005 2.046,0.138 3.004,0.404 2.291,-1.5529999 3.297,-1.2299999 3.297,-1.2299999 0.655,1.6519999 0.243,2.8719999 0.12,3.1749999 0.769,0.839 1.233,1.91 1.233,3.22 0,4.61 -2.806,5.625 -5.479,5.922 0.431,0.37 0.814,1.103 0.814,2.223 0,1.604 -0.015,2.898 -0.015,3.291 0,0.322 0.217,0.694 0.825,0.577 4.766,-1.591 8.201,-6.087 8.201,-11.385 C 28,9.6679881 22.627,4.2959881 16,4.2959881 Z"
   id="XMLID_792_" />
<g
   id="Layer_2"
   display="none"
   style="display:none"
   transform="translate(0,-32)">
</g>
<g
   id="specctr"
   display="none"
   style="display:none"
   transform="translate(0,-32)">
	<g
   id="Dimensions"
   display="inline"
   style="display:inline">
	</g>
	<g
   id="Spacing"
   display="inline"
   style="display:inline">
	</g>
	<g
   id="Text_Properties"
   display="inline"
   style="display:inline">
	</g>
	<g
   id="Object_Properties"
   display="inline"
   style="display:inline">
	</g>
</g>
</svg>