<svg xmlns="http://www.w3.org/2000/svg" width="18" height="18" viewBox="0 0 18 18">
  <g id="Symbol_1079_1" data-name="Symbol 1079 – 1" transform="translate(22203 1048)">
    <g id="Group_3067" data-name="Group 3067" transform="translate(-20593 18432)">
      <g id="wechat" transform="translate(-1608 -19478)">
        <path id="Path_1911" data-name="Path 1911" d="M13.3,11.3A2,2,0,0,1,11.3,13.3H1.995A2,2,0,0,1,0,11.3V1.995A2,2,0,0,1,1.995,0H11.3A2,2,0,0,1,13.3,1.995Z" fill="#fff"/>
        <g id="Group_2872" data-name="Group 2872" transform="translate(0.868 1.681)">
          <path id="Path_1912" data-name="Path 1912" d="M27.615,41.2a4.1,4.1,0,0,0-2.765,1.117,3.283,3.283,0,0,0-1.02,2.781c-.42-.052-.8-.109-1.186-.141a.737.737,0,0,0-.4.068c-.373.211-.731.448-1.155.713.078-.352.128-.66.217-.956a.364.364,0,0,0-.165-.481,3.27,3.27,0,0,1-1.425-3.673,3.636,3.636,0,0,1,2.554-2.493A4.282,4.282,0,0,1,26.948,39.5,3.2,3.2,0,0,1,27.615,41.2Zm-4.94-.437a.5.5,0,0,0-.476-.5.481.481,0,0,0-.5.465.475.475,0,0,0,.47.493A.489.489,0,0,0,22.675,40.762Zm2.577-.5a.5.5,0,0,0-.484.488.483.483,0,0,0,.5.472.48.48,0,1,0-.013-.96Z" transform="translate(-19.582 -37.92)" fill="#1b41b3"/>
          <path id="Path_1913" data-name="Path 1913" d="M130.764,127.122a3.645,3.645,0,0,0-.984-.413,5.5,5.5,0,0,0-1.024.192,3.422,3.422,0,0,1-2.776-.906,2.815,2.815,0,0,1,.444-4.591,3.734,3.734,0,0,1,4.828.719,2.742,2.742,0,0,1-.317,3.825c-.331.294-.45.535-.238.922A1.1,1.1,0,0,1,130.764,127.122Zm-3.869-3.746a.4.4,0,1,0,0-.8.4.4,0,1,0,0,.8Zm2.494-.8a.4.4,0,0,0-.4.383.395.395,0,1,0,.4-.383Z" transform="translate(-120.319 -117.151)" fill="#1b41b3"/>
        </g>
      </g>
    </g>
    <rect id="Rectangle_2237" data-name="Rectangle 2237" width="18" height="18" transform="translate(-22203 -1048)" fill="none"/>
  </g>
</svg>
