<?xml version="1.0" encoding="UTF-8" standalone="no"?>
<!-- Generator: Adobe Illustrator 16.0.0, SVG Export Plug-In . SVG Version: 6.00 Build 0)  -->

<svg
   xmlns:dc="http://purl.org/dc/elements/1.1/"
   xmlns:cc="http://creativecommons.org/ns#"
   xmlns:rdf="http://www.w3.org/1999/02/22-rdf-syntax-ns#"
   xmlns:svg="http://www.w3.org/2000/svg"
   xmlns="http://www.w3.org/2000/svg"
   xmlns:sodipodi="http://sodipodi.sourceforge.net/DTD/sodipodi-0.dtd"
   xmlns:inkscape="http://www.inkscape.org/namespaces/inkscape"
   version="1.1"
   x="0px"
   y="0px"
   width="32"
   height="32"
   viewBox="0 0 32 32"
   enable-background="new 0 0 32 64"
   xml:space="preserve"
   id="svg17"
   sodipodi:docname="iconReddit.svg"
   inkscape:version="0.92.3 (2405546, 2018-03-11)"><metadata
   id="metadata23"><rdf:RDF><cc:Work
       rdf:about=""><dc:format>image/svg+xml</dc:format><dc:type
         rdf:resource="http://purl.org/dc/dcmitype/StillImage" /><dc:title></dc:title></cc:Work></rdf:RDF></metadata><defs
   id="defs21">
	
	
	
	
	
	
	
	
</defs><sodipodi:namedview
   pagecolor="#ffffff"
   bordercolor="#666666"
   borderopacity="1"
   objecttolerance="10"
   gridtolerance="10"
   guidetolerance="10"
   inkscape:pageopacity="0"
   inkscape:pageshadow="2"
   inkscape:window-width="706"
   inkscape:window-height="480"
   id="namedview19"
   showgrid="false"
   inkscape:pagecheckerboard="true"
   inkscape:zoom="3.6875"
   inkscape:cx="9.1349196"
   inkscape:cy="32"
   inkscape:window-x="51"
   inkscape:window-y="27"
   inkscape:window-maximized="0"
   inkscape:current-layer="svg17" />
<path
   style="fill:#ffffff"
   inkscape:connector-curvature="0"
   d="m 14.042,17.565 c 0,0.893 -0.724,1.615 -1.615,1.615 -0.891,0 -1.615,-0.723 -1.615,-1.615 0,-0.895 0.725,-1.619 1.615,-1.619 0.892,0 1.615,0.725 1.615,1.619 z m 0,0"
   id="XMLID_808_" /><path
   style="fill:#ffffff"
   inkscape:connector-curvature="0"
   d="m 28,16.259 c 0,-1.998 -1.575,-3.625 -3.506,-3.625 -0.68,0 -1.308,0.205 -1.847,0.55 -1.664,-0.966 -3.762,-1.568 -6.054,-1.649 L 17.915,7.743 20.649,8.4 c -0.008,0.089 -0.027,0.175 -0.027,0.268 0,1.508 1.229,2.737 2.737,2.737 1.505,0 2.733,-1.229 2.733,-2.737 0,-1.508 -1.229,-2.733 -2.733,-2.733 -0.983,0 -1.838,0.524 -2.32,1.304 l -3.911,-0.936 -1.823,5.24 c -2.281,0.118 -4.356,0.754 -5.991,1.745 0.033,-0.021 0.063,-0.049 0.094,-0.07 C 8.857,12.85 8.208,12.635 7.506,12.635 5.57,12.635 4,14.258 4,16.256 c 0,1.338 0.709,2.496 1.757,3.123 0.431,3.736 4.883,6.686 10.307,6.686 5.459,0 9.935,-2.99 10.313,-6.76 C 27.351,18.662 28,17.536 28,16.259 Z M 23.361,7.151 c 0.836,0 1.516,0.68 1.516,1.516 0,0.84 -0.684,1.519 -1.516,1.519 -0.839,0 -1.518,-0.679 -1.518,-1.519 0,-0.836 0.679,-1.516 1.518,-1.516 z m -15.855,6.7 c 0.275,0 0.538,0.06 0.78,0.152 -1.323,1.062 -2.21,2.393 -2.478,3.863 -0.367,-0.428 -0.595,-0.991 -0.595,-1.608 0.001,-1.329 1.03,-2.407 2.293,-2.407 z m 8.558,10.994 c -5.036,0 -9.134,-2.714 -9.134,-6.054 0,-3.342 4.098,-6.058 9.134,-6.058 5.035,0 9.132,2.716 9.132,6.058 0,3.34 -4.097,6.054 -9.132,6.054 z M 26.292,17.733 C 25.991,16.302 25.104,15.01 23.8,13.974 c 0.224,-0.074 0.45,-0.123 0.695,-0.123 1.259,0 2.287,1.077 2.287,2.407 0,0.557 -0.185,1.066 -0.49,1.475 z m 0,0"
   id="XMLID_801_" /><path
   style="fill:#ffffff"
   inkscape:connector-curvature="0"
   d="m 21,17.565 c 0,0.893 -0.725,1.615 -1.619,1.615 -0.892,0 -1.615,-0.723 -1.615,-1.615 0,-0.895 0.724,-1.619 1.615,-1.619 0.894,0 1.619,0.725 1.619,1.619 z m 0,0"
   id="XMLID_798_" /><path
   style="fill:#ffffff"
   inkscape:connector-curvature="0"
   d="m 19.12,21.161 c -3.424,2.262 -6.187,0.13 -6.313,0.033 -0.261,-0.211 -0.643,-0.171 -0.854,0.093 -0.207,0.261 -0.166,0.643 0.093,0.854 0.022,0.019 1.602,1.259 3.896,1.259 1.141,0 2.459,-0.308 3.851,-1.226 0.279,-0.186 0.357,-0.561 0.172,-0.843 -0.187,-0.278 -0.563,-0.355 -0.845,-0.17 z m 0,0"
   id="XMLID_795_" />
<g
   id="Layer_2"
   display="none"
   style="display:none"
   transform="translate(0,-32)">
</g>
<g
   id="specctr"
   display="none"
   style="display:none"
   transform="translate(0,-32)">
	<g
   id="Dimensions"
   display="inline"
   style="display:inline">
	</g>
	<g
   id="Spacing"
   display="inline"
   style="display:inline">
	</g>
	<g
   id="Text_Properties"
   display="inline"
   style="display:inline">
	</g>
	<g
   id="Object_Properties"
   display="inline"
   style="display:inline">
	</g>
</g>
</svg>