<svg xmlns="http://www.w3.org/2000/svg" width="18" height="18" viewBox="0 0 18 18">
  <g id="Group_2914" data-name="Group 2914" transform="translate(-1007 -598)">
    <g id="Symbol_235_13" data-name="Symbol 235 – 13" transform="translate(200.627 -86.965)">
      <path id="XMLID_1_" d="M128.708,1.6A7.289,7.289,0,0,0,121.4,8.908a7.2,7.2,0,0,0,5,6.911c.4.079.477-.159.477-.318V14.231c-2.065.477-2.463-.953-2.463-.953-.318-.874-.794-1.033-.794-1.033-.636-.477.079-.477.079-.477a1.656,1.656,0,0,1,1.112.715,1.624,1.624,0,0,0,2.145.636,1.358,1.358,0,0,1,.477-.953c-1.589-.159-3.336-.794-3.336-3.575a3.35,3.35,0,0,1,.715-1.986A2.56,2.56,0,0,1,124.9,4.7s.636-.159,1.986.715a7.123,7.123,0,0,1,3.654,0c1.43-.953,1.986-.715,1.986-.715A2.524,2.524,0,0,1,132.6,6.6a2.769,2.769,0,0,1,.715,1.986c0,2.78-1.748,3.416-3.336,3.575a1.794,1.794,0,0,1,.477,1.35V15.5a.357.357,0,0,0,.477.318A7.294,7.294,0,0,0,128.708,1.6Z" transform="translate(686.6 685)" fill="#e9f8fe" fill-rule="evenodd"/>
    </g>
    <rect id="Rectangle_2020" data-name="Rectangle 2020" width="18" height="18" transform="translate(1007 598)" fill="none"/>
  </g>
</svg>
