<svg xmlns="http://www.w3.org/2000/svg" viewBox="0 0 20 20">
  <defs>
    <style>
      .cls-1 {
        fill: none;
      }

      .cls-2 {
        fill: #091440;
      }

      .cls-3 {
        fill: #fff;
      }
    </style>
  </defs>
  <g id="Symbol_343_1" data-name="Symbol 343 – 1" transform="translate(-1020 -823)">
    <path id="XMLID_13_" class="cls-1" d="M167.491,204.947A4.992,4.992,0,0,0,162.5,200h0A4.994,4.994,0,0,1,167.491,204.947Z" transform="translate(864.722 631.889)"/>
    <rect id="XMLID_12_" class="cls-2" width="11.111" height="1.111" transform="translate(1025.556 828.556)"/>
    <rect id="XMLID_11_" class="cls-2" width="5.556" height="1.111" transform="translate(1031.111 830.778)"/>
    <g id="XMLID_10_" transform="translate(1023.636 832.996)">
      <path id="Path_1484" data-name="Path 1484" class="cls-3" d="M87.6,227.118a2.216,2.216,0,0,0-2.084-2.213c-.044,0-.084,0-.129,0a1.208,1.208,0,0,0-.129,0,2.216,2.216,0,0,0-1.12,4.044A4.973,4.973,0,0,0,81.8,230.3a3.89,3.89,0,0,0,7.164,0,5.01,5.01,0,0,0-2.333-1.356A2.206,2.206,0,0,0,87.6,227.118Z" transform="translate(-81.8 -224.9)"/>
    </g>
    <path id="XMLID_7_" class="cls-2" d="M59.8,204.947a5,5,0,0,0-5-4.947h0a4.954,4.954,0,0,0-2.773.84.014.014,0,0,1-.009,0A5,5,0,1,0,59.8,205h0A.214.214,0,0,0,59.8,204.947Zm-5,3.942a3.9,3.9,0,0,1-3.582-2.373,5,5,0,0,1,2.333-1.36,2.216,2.216,0,0,1,1.12-4.044c.044,0,.084,0,.129,0a1.2,1.2,0,0,1,.129,0,2.216,2.216,0,0,1,1.116,4.044,4.973,4.973,0,0,1,2.333,1.356A3.892,3.892,0,0,1,54.8,208.889Z" transform="translate(972.413 631.889)"/>
    <g id="Group_2394" data-name="Group 2394" transform="translate(1020 823)">
      <g id="XMLID_2_" transform="translate(4.444 1.111)">
        <g id="Group_2393" data-name="Group 2393">
          <path id="Path_1485" data-name="Path 1485" class="cls-3" d="M113.333,25H100v8.618a4.989,4.989,0,0,1,2.773-.84h0a5,5,0,0,1,5,4.947v.053h0a5,5,0,0,1-5,5h10.556Zm-1.111,7.778h-5.556V31.667h5.556Zm0-2.222H101.111V29.444h11.111Zm0-2.222H101.111V27.222h11.111Z" transform="translate(-100 -25)"/>
        </g>
      </g>
      <rect id="XMLID_1_" class="cls-2" width="11.111" height="1.111" transform="translate(5.556 3.333)"/>
      <rect id="Rectangle_1030" data-name="Rectangle 1030" class="cls-1" width="20" height="20"/>
    </g>
  </g>
</svg>
