<?xml version="1.0" encoding="UTF-8" standalone="no"?>
<!-- Generator: Adobe Illustrator 16.0.0, SVG Export Plug-In . SVG Version: 6.00 Build 0)  -->

<svg
   xmlns:dc="http://purl.org/dc/elements/1.1/"
   xmlns:cc="http://creativecommons.org/ns#"
   xmlns:rdf="http://www.w3.org/1999/02/22-rdf-syntax-ns#"
   xmlns:svg="http://www.w3.org/2000/svg"
   xmlns="http://www.w3.org/2000/svg"
   xmlns:sodipodi="http://sodipodi.sourceforge.net/DTD/sodipodi-0.dtd"
   xmlns:inkscape="http://www.inkscape.org/namespaces/inkscape"
   version="1.1"
   x="0px"
   y="0px"
   width="32"
   height="32"
   viewBox="0 0 31.999997 31.999996"
   enable-background="new 0 0 32 64"
   xml:space="preserve"
   id="svg11"
   sodipodi:docname="iconDiscord.svg"
   inkscape:version="0.92.3 (2405546, 2018-03-11)"
   inkscape:export-filename="/home/jholdstock/Desktop/iconDiscord.png"
   inkscape:export-xdpi="96"
   inkscape:export-ydpi="96"><metadata
   id="metadata17"><rdf:RDF><cc:Work
       rdf:about=""><dc:format>image/svg+xml</dc:format><dc:type
         rdf:resource="http://purl.org/dc/dcmitype/StillImage" /><dc:title></dc:title></cc:Work></rdf:RDF></metadata><defs
   id="defs15" /><sodipodi:namedview
   pagecolor="#ffffff"
   bordercolor="#666666"
   borderopacity="1"
   objecttolerance="10"
   gridtolerance="10"
   guidetolerance="10"
   inkscape:pageopacity="0"
   inkscape:pageshadow="2"
   inkscape:window-width="1549"
   inkscape:window-height="873"
   id="namedview13"
   showgrid="false"
   inkscape:zoom="8.5460485"
   inkscape:cx="3.6290266"
   inkscape:cy="31.153071"
   inkscape:window-x="51"
   inkscape:window-y="27"
   inkscape:window-maximized="1"
   inkscape:current-layer="svg11"
   inkscape:pagecheckerboard="true"
   inkscape:snap-others="false"
   inkscape:snap-global="false"
   units="px"
   width="32mm" />

<g
   id="Layer_2"
   display="none"
   style="display:none"
   transform="translate(0,-31.999982)">
</g>
<g
   id="specctr"
   display="none"
   style="display:none"
   transform="translate(0,-31.999982)">
	<g
   id="Dimensions"
   display="inline"
   style="display:inline">
	</g>
	<g
   id="Spacing"
   display="inline"
   style="display:inline">
	</g>
	<g
   id="Text_Properties"
   display="inline"
   style="display:inline">
	</g>
	<g
   id="Object_Properties"
   display="inline"
   style="display:inline">
	</g>
</g>
<g
   id="g2906"
   transform="translate(0.203226,-0.60967665)"><path
     style="fill:#ffffff;fill-opacity:1;stroke-width:0.11806107"
     inkscape:connector-curvature="0"
     id="path4-53-2"
     d="m 13.659886,14.708879 c -0.672953,0 -1.20422,0.59032 -1.20422,1.310482 0,0.720171 0.543071,1.310481 1.20422,1.310481 0.672932,0 1.20422,-0.59031 1.20422,-1.310481 0.01176,-0.720162 -0.531288,-1.310482 -1.20422,-1.310482 z m 4.309213,0 c -0.672953,0 -1.20423,0.59032 -1.20423,1.310482 0,0.720171 0.543081,1.310481 1.20423,1.310481 0.672953,0 1.204221,-0.59031 1.204221,-1.310481 0,-0.720162 -0.531268,-1.310482 -1.204221,-1.310482 z"
     class="st0" /><path
     style="fill:#ffffff;fill-opacity:1;stroke-width:0.11806107"
     inkscape:connector-curvature="0"
     id="path6-5-9"
     d="M 23.706871,4.8035683 H 7.886678 c -1.334081,0 -2.420256,1.086165 -2.420256,2.43205 V 23.197485 c 0,1.345897 1.086175,2.432051 2.420256,2.432051 H 21.27482 l -0.625724,-2.184124 1.51117,1.40493 1.428538,1.322286 2.538322,2.243157 V 7.2356183 c 0,-1.345885 -1.086164,-2.43205 -2.420255,-2.43205 z M 19.1497,20.222344 c 0,0 -0.425006,-0.50767 -0.779183,-0.956294 1.546592,-0.436832 2.136893,-1.40494 2.136893,-1.40494 -0.484039,0.318785 -0.944479,0.543093 -1.35771,0.696573 -0.590301,0.247937 -1.156982,0.413201 -1.711868,0.507669 -1.133393,0.212492 -2.17233,0.153469 -3.057795,-0.01176 -0.672943,-0.129872 -1.251439,-0.318775 -1.735498,-0.507669 -0.271537,-0.10622 -0.566681,-0.236123 -0.861837,-0.401407 -0.03539,-0.02352 -0.07089,-0.03539 -0.10622,-0.05902 -0.02352,-0.01187 -0.03539,-0.02352 -0.04726,-0.03539 -0.212514,-0.118066 -0.330591,-0.200719 -0.330591,-0.200719 0,0 0.566713,0.9445 2.066088,1.393135 -0.354209,0.448625 -0.791019,0.979892 -0.791019,0.979892 -2.60915,-0.08265 -3.600858,-1.79453 -3.600858,-1.79453 0,-3.801567 1.700075,-6.88295 1.700075,-6.88295 1.700074,-1.275058 3.317506,-1.239644 3.317506,-1.239644 l 0.118067,0.141675 c -2.125097,0.613903 -3.105001,1.546599 -3.105001,1.546599 0,0 0.259743,-0.141686 0.696564,-0.342385 1.263243,-0.554876 2.266786,-0.708355 2.679987,-0.74378 0.07089,-0.01176 0.12987,-0.02363 0.200697,-0.02363 0.720172,-0.09441 1.5348,-0.118057 2.384833,-0.02363 1.121578,0.129871 2.325807,0.460429 3.553637,1.133393 0,0 -0.932674,-0.885477 -2.939707,-1.499375 l 0.165264,-0.188905 c 0,0 1.617451,-0.03539 3.317535,1.239635 0,0 1.700075,3.081394 1.700075,6.882959 0,0 -1.003512,1.711889 -3.612671,1.794531 z"
     class="st0" /></g></svg>