<svg xmlns="http://www.w3.org/2000/svg" width="18" height="18" viewBox="0 0 18 18">
  <g id="Symbol_1075_1" data-name="Symbol 1075 – 1" transform="translate(22349 1048)">
    <g id="Symbol_1054" data-name="Symbol 1054" transform="translate(-23274.945 -1734.945)">
      <g id="Group_179" data-name="Group 179" transform="translate(927 689.1)">
        <path id="Path_68" data-name="Path 68" d="M12.517,13.912a.59.59,0,0,1-.345-.107L8.265,11.154l-2.1,1.51a.633.633,0,0,1-.566.082.615.615,0,0,1-.386-.419L4.161,8.339.394,6.886A.6.6,0,0,1,0,6.32a.618.618,0,0,1,.386-.575L14.692.049A.833.833,0,0,1,14.9,0h.074a.615.615,0,0,1,.394.172L15.4.205a.611.611,0,0,1,.148.361v.1c0,.025-.008.049-.008.074L13.124,13.411a.611.611,0,0,1-.369.451A.589.589,0,0,1,12.517,13.912ZM8.61,9.9l3.48,2.364L13.97,2.4,7.182,8.938l1.412.952A.025.025,0,0,1,8.61,9.9ZM5.7,9.373l.468,1.765,1-.722L5.86,9.521A.667.667,0,0,1,5.7,9.373ZM2.306,6.3l2.585.985a.62.62,0,0,1,.378.419L5.6,8.946a.618.618,0,0,1,.189-.378l6.468-6.221Z" transform="translate(0)" fill="#fff"/>
      </g>
    </g>
    <rect id="Rectangle_2233" data-name="Rectangle 2233" width="18" height="18" transform="translate(-22349 -1048)" fill="none"/>
  </g>
</svg>
