<svg xmlns="http://www.w3.org/2000/svg" width="18" height="18" viewBox="0 0 18 18">
  <g id="Symbol_1074_1" data-name="Symbol 1074 – 1" transform="translate(22386 1048)">
    <path id="linkedin-icon-1" d="M0,6.6A1.5,1.5,0,0,1,.487,5.453,1.788,1.788,0,0,1,1.755,5a1.735,1.735,0,0,1,1.24.446,1.571,1.571,0,0,1,.487,1.2,1.467,1.467,0,0,1-.474,1.114,1.792,1.792,0,0,1-1.281.46H1.713a1.7,1.7,0,0,1-1.24-.46A1.544,1.544,0,0,1,0,6.6ZM.181,18.789v-9.3H3.273v9.3Zm4.805,0H8.078v-5.2a1.813,1.813,0,0,1,.7-1.553,1.513,1.513,0,0,1,1-.327q1.56,0,1.56,2.1v4.972H14.43V13.455a4.483,4.483,0,0,0-.975-3.127,3.326,3.326,0,0,0-2.577-1.066,3.161,3.161,0,0,0-2.8,1.546v.028H8.065l.014-.028V9.485H4.986q.028.446.028,2.772T4.986,18.789Z" transform="translate(-22384.711 -1050.723)" fill="#fff"/>
    <rect id="Rectangle_2232" data-name="Rectangle 2232" width="18" height="18" transform="translate(-22386 -1048)" fill="none"/>
  </g>
</svg>
