<svg xmlns="http://www.w3.org/2000/svg" width="18" height="18" viewBox="0 0 18 18">
  <g id="Symbol_1076_1" data-name="Symbol 1076 – 1" transform="translate(22313 1048)">
    <g id="Group_3092" data-name="Group 3092" transform="translate(-23346 -1702)">
      <g id="Group_3088" data-name="Group 3088" transform="translate(40)">
        <rect id="Rectangle_2233" data-name="Rectangle 2233" width="18" height="18" transform="translate(993 654)" fill="none"/>
      </g>
    </g>
    <rect id="Rectangle_2234" data-name="Rectangle 2234" width="18" height="18" transform="translate(-22313 -1048)" fill="none"/>
    <g id="irc" transform="translate(-22312.863 -1052.756)">
      <g id="Group_3087" data-name="Group 3087">
        <path id="Path_1952" data-name="Path 1952" d="M.864,8.2A1.43,1.43,0,0,1,2.287,6.756,1.444,1.444,0,0,1,3.727,8.2a1.429,1.429,0,0,1-1.44,1.422A1.414,1.414,0,0,1,.864,8.2ZM.972,12.14a.341.341,0,0,1,.342-.342H3.3a.341.341,0,0,1,.342.342v6.518A.354.354,0,0,1,3.3,19H1.314a.354.354,0,0,1-.342-.342Z" fill="#fff"/>
        <path id="Path_1953" data-name="Path 1953" d="M5.238,12.14a.341.341,0,0,1,.343-.342h.846a.326.326,0,0,1,.324.216l.324.793a2.482,2.482,0,0,1,1.963-1.189c.989,0,1.692.36,1.441.774L9.6,13.832a.306.306,0,0,1-.4.162,1.326,1.326,0,0,0-.432-.09.958.958,0,0,0-.955,1.027v3.727c0,.216-.108.342-.4.342H5.581a.354.354,0,0,1-.343-.342Z" fill="#fff"/>
        <path id="Path_1954" data-name="Path 1954" d="M14.348,11.618a3.356,3.356,0,0,1,2.7,1.3.358.358,0,0,1-.09.5l-1.08,1.026a.326.326,0,0,1-.4-.036A1.427,1.427,0,0,0,13,15.4a1.418,1.418,0,0,0,1.4,1.459,1.552,1.552,0,0,0,1.224-.558.294.294,0,0,1,.4-.071l1.081.935c.162.145.252.324.127.5a3.23,3.23,0,0,1-2.9,1.512A3.834,3.834,0,0,1,10.458,15.4,3.874,3.874,0,0,1,14.348,11.618Z" fill="#fff"/>
      </g>
    </g>
  </g>
</svg>
