<svg xmlns="http://www.w3.org/2000/svg" width="18" height="18" viewBox="0 0 18 18">
  <g id="Symbol_1078_1" data-name="Symbol 1078 – 1" transform="translate(22240 1048)">
    <g id="Group_3066" data-name="Group 3066" transform="translate(-20305.666 18428.48)">
      <g id="kakaotalk" transform="translate(-1933.031 -19475.047)">
        <path id="Path_1905" data-name="Path 1905" d="M31.69,36C27.443,36,24,38.715,24,42.064A5.913,5.913,0,0,0,27.6,47.2c-.118.406-.757,2.614-.782,2.787,0,0-.015.13.069.18a.232.232,0,0,0,.184.011c.242-.034,2.806-1.835,3.249-2.147a9.744,9.744,0,0,0,1.366.1c4.247,0,7.69-2.715,7.69-6.064S35.938,36,31.69,36Z" transform="translate(-24 -36)" fill="#fff"/>
        <path id="Path_1906" data-name="Path 1906" d="M50.821,97.428A.434.434,0,0,1,50.378,97V94.369h-.692a.434.434,0,1,1,0-.869h2.272a.434.434,0,1,1,0,.869h-.692V97A.434.434,0,0,1,50.821,97.428Zm3.89-.006a.364.364,0,0,1-.369-.2l-.22-.575H52.77l-.22.576a.364.364,0,0,1-.369.2.677.677,0,0,1-.282-.061c-.122-.056-.24-.212-.105-.63l1.061-2.793a.618.618,0,0,1,1.183,0L55.1,96.731c.135.419.017.575-.1.631a.678.678,0,0,1-.282.061Zm-.822-1.557-.443-1.259L53,95.866Zm1.923,1.5a.417.417,0,0,1-.425-.407V93.944a.453.453,0,0,1,.906,0V96.55h.943a.407.407,0,1,1,0,.813Zm2.465.059a.444.444,0,0,1-.444-.444V93.944a.444.444,0,0,1,.887,0V94.9l1.238-1.238a.344.344,0,0,1,.246-.1.449.449,0,0,1,.436.412.346.346,0,0,1-.1.27l-1.011,1.011L60.624,96.7a.444.444,0,0,1-.708.534l-1.04-1.379-.154.154v.968A.444.444,0,0,1,58.278,97.423Z" transform="translate(-47.383 -89.248)" fill="#1b41b3"/>
      </g>
    </g>
    <rect id="Rectangle_2236" data-name="Rectangle 2236" width="18" height="18" transform="translate(-22240 -1048)" fill="none"/>
  </g>
</svg>
