<svg xmlns="http://www.w3.org/2000/svg" width="18" height="18" viewBox="0 0 18 18">
  <g id="Symbol_1073_1" data-name="Symbol 1073 – 1" transform="translate(22422 1048)">
    <g id="Symbol_1053" data-name="Symbol 1053" transform="translate(-23427.428 -1735.828)">
      <path id="Path_20" data-name="Path 20" d="M16.327,1.826A2.089,2.089,0,0,0,14.858.357,48.781,48.781,0,0,0,8.335,0,50.713,50.713,0,0,0,1.813.343,2.131,2.131,0,0,0,.343,1.826,22.007,22.007,0,0,0,0,5.836a21.926,21.926,0,0,0,.343,4.01,2.089,2.089,0,0,0,1.469,1.469,48.885,48.885,0,0,0,6.523.357,50.712,50.712,0,0,0,6.523-.343,2.089,2.089,0,0,0,1.469-1.469,22.007,22.007,0,0,0,.343-4.01A20.9,20.9,0,0,0,16.327,1.826ZM6.674,8.335v-5l4.339,2.5Z" transform="translate(1006 690.829)" fill="#fff"/>
    </g>
    <rect id="Rectangle_2231" data-name="Rectangle 2231" width="18" height="18" transform="translate(-22422 -1048)" fill="none"/>
  </g>
</svg>
