<svg xmlns="http://www.w3.org/2000/svg" width="11.994" height="10.704" viewBox="0 0 11.994 10.704">
  <g id="Group_3065" data-name="Group 3065" transform="translate(-795.164 -589.067)">
    <g id="Group_2908" data-name="Group 2908" transform="translate(796.004 589.322)">
      <rect id="Rectangle_2010" data-name="Rectangle 2010" width="10.522" height="10.522" transform="translate(-0.104 -0.104)" fill="none"/>
      <g id="Group_2907" data-name="Group 2907" transform="translate(4.34 -0.84) rotate(45)">
        <path id="Path_1916" data-name="Path 1916" d="M2.96,5.193a.468.468,0,0,1-.661,0L1.306,4.2a.468.468,0,0,1,0-.661L3.538,1.306a.468.468,0,0,1,.661,0l.993.993a.468.468,0,0,1,0,.661l-.082.082.827.827.082-.082a1.637,1.637,0,0,0,0-2.315l-.084-.084h0L5.109.562h0L5.026.479a1.637,1.637,0,0,0-2.315,0L.479,2.712a1.637,1.637,0,0,0,0,2.315l.993.993a1.637,1.637,0,0,0,2.315,0l.5-.5L3.456,4.7Z" transform="translate(0 0.827)" fill="#2980ff"/>
        <path id="Path_1917" data-name="Path 1917" d="M5.026.479a1.637,1.637,0,0,0-2.315,0l-.5.5.827.827.5-.5a.468.468,0,0,1,.661,0l.823.823a.468.468,0,0,1,0,.661L2.791,5.023a.468.468,0,0,1-.661,0L1.306,4.2a.468.468,0,0,1,0-.661l.082-.082L.562,2.629l-.082.082a1.637,1.637,0,0,0,0,2.315L1.3,5.85l.018.018.069.069,0,0A1.637,1.637,0,0,0,3.618,5.85L5.85,3.618a1.637,1.637,0,0,0,0-2.315Z" transform="translate(3.307 0)" fill="#2980ff"/>
      </g>
    </g>
  </g>
</svg>
