<svg xmlns="http://www.w3.org/2000/svg" width="18" height="18" viewBox="0 0 18 18">
  <g id="Group_3064" data-name="Group 3064" transform="translate(-774 -586)">
    <g id="Group_3063" data-name="Group 3063" transform="translate(773.305 584.011)">
      <path id="Path_1949" data-name="Path 1949" d="M86.16,108.391a1.648,1.648,0,0,0-.646-.344,2.97,2.97,0,0,0-.818-.108,1.789,1.789,0,0,0-1.007.28,2.367,2.367,0,0,0-.673.646,1.354,1.354,0,0,0-.662-.721,2.242,2.242,0,0,0-.964-.2,1.972,1.972,0,0,0-.974.237,2.179,2.179,0,0,0-.727.668h-.021v-.754H78.225v5.566h1.529v-3.23a1.573,1.573,0,0,1,.118-.662,1.07,1.07,0,0,1,.285-.388.948.948,0,0,1,.345-.183,1.141,1.141,0,0,1,.285-.049,1.018,1.018,0,0,1,.554.124.688.688,0,0,1,.269.328,1.376,1.376,0,0,1,.092.447q.01.242.011.49v3.122h1.529v-3.1a3.448,3.448,0,0,1,.038-.511,1.294,1.294,0,0,1,.151-.452.9.9,0,0,1,.312-.323.981.981,0,0,1,.522-.124,1.036,1.036,0,0,1,.511.108.719.719,0,0,1,.285.291,1.123,1.123,0,0,1,.118.431q.022.248.022.528v3.154H86.73v-3.725a2.513,2.513,0,0,0-.151-.921A1.584,1.584,0,0,0,86.16,108.391Z" transform="translate(-72.771 -99.873)" fill="#e9f8fe"/>
      <path id="Path_1950" data-name="Path 1950" d="M3.8,3.972V3.213H1.918V18.745h.023v.023H3.8V18H2.757V3.972Z" fill="#e9f8fe"/>
      <path id="Path_1951" data-name="Path 1951" d="M297.525,3.213v.759h1.04V18h-1.04v.764h1.856v-.023h.023V3.213Z" transform="translate(-281.909)" fill="#e9f8fe"/>
    </g>
    <rect id="Rectangle_2225" data-name="Rectangle 2225" width="18" height="18" transform="translate(774 586)" fill="none"/>
  </g>
</svg>
