<?xml version="1.0" encoding="UTF-8" standalone="no"?>
<svg
   xmlns:dc="http://purl.org/dc/elements/1.1/"
   xmlns:cc="http://creativecommons.org/ns#"
   xmlns:rdf="http://www.w3.org/1999/02/22-rdf-syntax-ns#"
   xmlns:svg="http://www.w3.org/2000/svg"
   xmlns="http://www.w3.org/2000/svg"
   xmlns:sodipodi="http://sodipodi.sourceforge.net/DTD/sodipodi-0.dtd"
   xmlns:inkscape="http://www.inkscape.org/namespaces/inkscape"
   version="1.1"
   id="Layer_1"
   x="0px"
   y="0px"
   viewBox="0 0 32 32"
   xml:space="preserve"
   sodipodi:docname="iconLinkedin.svg"
   width="32"
   height="32"
   inkscape:version="0.92.3 (2405546, 2018-03-11)"><metadata
   id="metadata72"><rdf:RDF><cc:Work
       rdf:about=""><dc:format>image/svg+xml</dc:format><dc:type
         rdf:resource="http://purl.org/dc/dcmitype/StillImage" /><dc:title></dc:title></cc:Work></rdf:RDF></metadata><defs
   id="defs70" /><sodipodi:namedview
   pagecolor="#ffffff"
   bordercolor="#666666"
   borderopacity="1"
   objecttolerance="10"
   gridtolerance="10"
   guidetolerance="10"
   inkscape:pageopacity="0"
   inkscape:pageshadow="2"
   inkscape:window-width="1549"
   inkscape:window-height="873"
   id="namedview68"
   showgrid="false"
   inkscape:pagecheckerboard="true"
   inkscape:zoom="3.6875"
   inkscape:cx="16"
   inkscape:cy="32"
   inkscape:window-x="51"
   inkscape:window-y="27"
   inkscape:window-maximized="1"
   inkscape:current-layer="Layer_1" />
<style
   type="text/css"
   id="style55">
	.st0{display:none;}
	.st1{display:inline;}
	.st2{fill:#D5EDFA;}
	.st3{fill:#FFFFFF;}
</style>
<g
   id="Layer_2_1_"
   class="st0"
   style="display:none"
   transform="translate(0,-32)">
</g>
<g
   id="specctr"
   class="st0"
   style="display:none"
   transform="translate(0,-32)">
	<g
   id="Dimensions"
   class="st1"
   style="display:inline">
	</g>
	<g
   id="Spacing"
   class="st1"
   style="display:inline">
	</g>
	<g
   id="Text_Properties"
   class="st1"
   style="display:inline">
	</g>
	<g
   id="Object_Properties"
   class="st1"
   style="display:inline">
	</g>
</g>

<path
   class="st3"
   d="M 23,4 H 9 C 6.2,4 4,6.2 4,9 v 14 c 0,2.8 2.2,5 5,5 h 14 c 2.8,0 5,-2.2 5,-5 V 9 C 28,6.2 25.8,4 23,4 Z M 12,23 H 9 V 12 h 3 z M 10.5,10.7 c -1,0 -1.8,-0.8 -1.8,-1.8 0,-1 0.8,-1.8 1.8,-1.8 1,0 1.7,0.9 1.7,1.9 0,1 -0.7,1.7 -1.7,1.7 z M 24,23 h -3 v -5.6 c 0,-3.4 -4,-3.1 -4,0 V 23 H 14 V 12 h 3 v 1.8 c 1.4,-2.6 7,-2.8 7,2.5 z"
   id="path65"
   inkscape:connector-curvature="0"
   style="fill:#ffffff" />
</svg>