<svg xmlns="http://www.w3.org/2000/svg" width="18" height="18" viewBox="0 0 18 18">
  <g id="Symbol_1083_1" data-name="Symbol 1083 – 1" transform="translate(22532 1048)">
    <g id="XMLID_3_" transform="translate(-23418 -1735.012)">
      <path id="XMLID_17_" d="M217.242,12.971a1.071,1.071,0,1,1-1.071-1.071,1.085,1.085,0,0,1,1.071,1.071Zm0,0" transform="translate(676.63 684.161)" fill="#fff"/>
      <path id="XMLID_10_" d="M226.221,11.239a2.477,2.477,0,0,0-2.41-2.5,2.9,2.9,0,0,0-1.249.357,10.009,10.009,0,0,0-4.105-1.16l.892-2.588,1.874.446v.178a1.874,1.874,0,0,0,3.748,0A1.83,1.83,0,0,0,223.1,4.1a1.874,1.874,0,0,0-1.606.892l-2.677-.625-1.249,3.57a10.01,10.01,0,0,0-4.105,1.16l.089-.089a2.151,2.151,0,0,0-1.339-.357,2.421,2.421,0,0,0-2.41,2.5,2.511,2.511,0,0,0,1.16,2.142c.268,2.588,3.3,4.551,7.05,4.551s6.783-2.053,7.05-4.641a2.029,2.029,0,0,0,1.16-1.963Zm-3.213-6.247a1.071,1.071,0,1,1-1.071,1.071,1.152,1.152,0,0,1,1.071-1.071ZM212.12,9.633a1.132,1.132,0,0,1,.535.089,4.363,4.363,0,0,0-1.7,2.677,1.646,1.646,0,0,1-.446-1.071,1.742,1.742,0,0,1,1.606-1.7Zm5.89,7.5c-3.48,0-6.247-1.874-6.247-4.105,0-2.32,2.767-4.105,6.247-4.105s6.247,1.874,6.247,4.105-2.767,4.105-6.247,4.105Zm6.961-4.819a4.423,4.423,0,0,0-1.7-2.588.8.8,0,0,1,.446-.089,1.6,1.6,0,0,1,1.606,1.606,1.558,1.558,0,0,1-.357,1.071Zm0,0" transform="translate(677.2 685)" fill="#fff"/>
      <path id="XMLID_7_" d="M222.542,12.971a1.071,1.071,0,1,1-1.071-1.071,1.085,1.085,0,0,1,1.071,1.071Zm0,0" transform="translate(676.06 684.161)" fill="#fff"/>
      <path id="XMLID_4_" d="M220.7,15.888a3.626,3.626,0,0,1-4.284,0,.446.446,0,1,0-.535.714,4.5,4.5,0,0,0,2.677.892,4.823,4.823,0,0,0,2.677-.8.336.336,0,0,0,.089-.535c-.178-.357-.357-.446-.625-.268Zm0,0" transform="translate(676.566 683.742)" fill="#fff"/>
    </g>
    <rect id="Rectangle_2228" data-name="Rectangle 2228" width="18" height="18" transform="translate(-22532 -1048)" fill="none"/>
  </g>
</svg>
