<?xml version="1.0" encoding="UTF-8" standalone="no"?>
<svg
   xmlns:dc="http://purl.org/dc/elements/1.1/"
   xmlns:cc="http://creativecommons.org/ns#"
   xmlns:rdf="http://www.w3.org/1999/02/22-rdf-syntax-ns#"
   xmlns:svg="http://www.w3.org/2000/svg"
   xmlns="http://www.w3.org/2000/svg"
   xmlns:sodipodi="http://sodipodi.sourceforge.net/DTD/sodipodi-0.dtd"
   xmlns:inkscape="http://www.inkscape.org/namespaces/inkscape"
   enable-background="new 0 0 512 512"
   height="512px"
   version="1.1"
   viewBox="0 0 512 512"
   width="512px"
   xml:space="preserve"
   id="svg18"
   sodipodi:docname="qq.svg"
   inkscape:version="0.92.3 (2405546, 2018-03-11)"><metadata
     id="metadata24"><rdf:RDF><cc:Work
         rdf:about=""><dc:format>image/svg+xml</dc:format><dc:type
           rdf:resource="http://purl.org/dc/dcmitype/StillImage" /><dc:title></dc:title></cc:Work></rdf:RDF></metadata><defs
     id="defs22" /><sodipodi:namedview
     pagecolor="#ffffff"
     bordercolor="#666666"
     borderopacity="1"
     objecttolerance="10"
     gridtolerance="10"
     guidetolerance="10"
     inkscape:pageopacity="0"
     inkscape:pageshadow="2"
     inkscape:window-width="1549"
     inkscape:window-height="873"
     id="namedview20"
     showgrid="false"
     inkscape:pagecheckerboard="true"
     inkscape:zoom="0.4609375"
     inkscape:cx="192"
     inkscape:cy="256"
     inkscape:window-x="51"
     inkscape:window-y="27"
     inkscape:window-maximized="1"
     inkscape:current-layer="svg18" /><g
     id="Layer_1" /><g
     id="Layer_2"
     transform="translate(1.5298094,10.077264)"
     style="fill:#ffffff;fill-opacity:1"><g
       id="g5"
       style="fill:#ffffff;fill-opacity:1"><path
         d="m 147.921,278.381 c -0.002,0.016 -1.263,10.113 -2.527,21.749 -0.632,5.818 -1.265,12.021 -1.742,17.558 -0.239,2.77 -0.438,5.372 -0.58,7.689 -0.141,2.32 -0.225,4.346 -0.226,6.025 0.001,3.297 0.271,6.527 1.041,9.673 0.578,2.356 1.446,4.663 2.685,6.84 1.853,3.271 4.547,6.201 8.044,8.604 3.5,2.411 7.774,4.334 12.967,5.862 7.111,2.084 15.458,3.691 23.417,3.7 3.065,-0.001 6.08,-0.242 8.969,-0.834 2.167,-0.445 4.267,-1.09 6.249,-2.01 2.965,-1.371 5.7,-3.415 7.696,-6.244 0.996,-1.408 1.797,-2.995 2.363,-4.711 0.567,-1.717 0.901,-3.559 1.009,-5.497 0.508,-9.144 0.935,-21.039 1.236,-30.672 0.301,-9.631 0.476,-16.986 0.476,-16.994 l -9.997,-0.238 c 0,0.002 -0.011,0.455 -0.032,1.291 -0.146,5.847 -0.793,30.328 -1.667,46.059 -0.121,2.051 -0.606,3.462 -1.284,4.581 -0.516,0.839 -1.163,1.54 -2.018,2.183 -1.274,0.958 -3.055,1.757 -5.286,2.289 -2.223,0.536 -4.866,0.8 -7.714,0.798 -6.585,0.01 -14.223,-1.411 -20.595,-3.294 -3.943,-1.159 -6.979,-2.51 -9.281,-3.955 -1.729,-1.085 -3.05,-2.217 -4.095,-3.397 -1.56,-1.774 -2.55,-3.673 -3.221,-5.966 -0.664,-2.286 -0.962,-4.977 -0.96,-8.066 0,-1.341 0.073,-3.22 0.207,-5.417 0.469,-7.718 1.669,-19.368 2.749,-29.019 0.541,-4.83 1.051,-9.171 1.426,-12.302 0.188,-1.565 0.341,-2.828 0.448,-3.699 0.106,-0.871 0.166,-1.345 0.166,-1.347 z"
         id="path3"
         inkscape:connector-curvature="0"
         style="fill:#ffffff;fill-opacity:1" /></g><path
       d="m 227.902,116.763 c -5.839,0 -10.573,7.056 -10.573,15.76 0,8.704 4.734,15.76 10.573,15.76 5.839,0 10.574,-7.056 10.574,-15.76 0,-8.704 -4.734,-15.76 -10.574,-15.76 z m 3.021,19.702 c -2.502,0 -4.531,-3.024 -4.531,-6.754 0,-3.73 2.029,-6.754 4.531,-6.754 2.503,0 4.532,3.024 4.532,6.754 0,3.73 -2.029,6.754 -4.532,6.754 z"
       id="path7"
       inkscape:connector-curvature="0"
       style="fill:#ffffff;fill-opacity:1" /><path
       d="m 283.934,129.601 c 0.513,-0.946 1.065,-1.585 1.527,-1.942 0.475,-0.359 0.821,-0.465 1.184,-0.47 0.362,0.005 0.707,0.111 1.183,0.47 0.694,0.524 1.59,1.735 2.254,3.562 0.67,1.814 1.11,4.184 1.11,6.78 h 8.155 c -0.008,-5.285 -1.134,-10.146 -3.218,-13.997 -1.048,-1.921 -2.352,-3.599 -3.952,-4.844 -1.591,-1.244 -3.514,-2.023 -5.532,-2.018 -2.021,-0.005 -3.942,0.774 -5.534,2.018 -2.398,1.879 -4.14,4.685 -5.332,7.913 -1.19,3.24 -1.835,6.964 -1.838,10.928 h 8.158 c -0.012,-3.464 0.795,-6.521 1.835,-8.4 z"
       id="path9"
       inkscape:connector-curvature="0"
       style="fill:#ffffff;fill-opacity:1" /><path
       d="m 420.508,253.865 c -3.287,-4.821 -6.812,-9.257 -10.315,-13.251 0.273,-0.427 0.567,-0.855 0.824,-1.279 2.158,-3.571 3.73,-7.058 4.529,-10.544 1.21,-5.323 1.802,-10.45 1.802,-15.378 0.005,-8.473 -1.766,-16.351 -5.026,-23.517 -3.257,-7.172 -7.977,-13.623 -13.786,-19.432 l -5.519,-5.519 c -0.615,-6.041 -1.781,-13.675 -3.726,-23.863 C 384.351,115.194 361.642,75.56 333.907,56.495 307,38 272.713,30.785 254.471,30.526 239.483,30.314 205,36 175.036,56.496 c -27.778,19 -52.363,58.405 -55.384,84.587 -1.717,14.877 -2.229,24.361 -2.071,31.366 l -0.021,0.005 c -0.407,0.1 -3.25,0.745 -6.566,3.05 -1.65,1.155 -3.414,2.746 -4.931,4.895 -1.518,2.143 -2.764,4.844 -3.398,8.039 -0.997,4.982 -1.5,7.497 -1.754,8.769 -0.656,0.808 -1.519,1.979 -2.397,3.511 -0.827,1.448 -1.659,3.211 -2.293,5.269 -0.633,2.056 -1.064,4.413 -1.064,6.994 0,1.474 0.141,3.019 0.459,4.607 0.566,2.826 1.652,6.869 3.579,11.699 0.901,2.257 1.987,4.684 3.29,7.228 -4.691,4.982 -9.588,10.808 -14.05,17.352 -15.104,22.153 -31.595,62.469 -29.203,85.593 3.021,29.203 7.049,30.21 17.119,24.168 11.258,-6.755 24.167,-27.188 24.167,-27.188 0,0 13.75,37.493 36.251,57.398 26.182,23.16 50.349,37.258 79.552,43.3 19.057,3.942 31.677,4.455 38.149,4.335 6.472,0.12 19.091,-0.393 38.148,-4.335 29.203,-6.042 53.369,-20.14 79.553,-43.3 22.499,-19.905 36.251,-57.398 36.251,-57.398 0,0 12.908,20.434 24.168,27.188 10.069,6.042 14.098,5.035 17.118,-24.168 2.394,-23.126 -14.096,-63.441 -29.2,-85.595 z M 293.356,92.747 c 14.736,0 26.685,17.808 26.685,39.776 0,21.968 -11.948,39.776 -26.685,39.776 -14.737,0 -26.686,-17.808 -26.686,-39.776 0,-21.968 11.949,-39.776 26.686,-39.776 z m -74.516,0 c 14.737,0 26.685,17.808 26.685,39.776 0,21.968 -11.948,39.776 -26.685,39.776 -14.738,0 -26.685,-17.808 -26.685,-39.776 0,-21.968 11.947,-39.776 26.685,-39.776 z m -19.636,93.649 c 18.325,-7.854 51.768,-9.657 60.368,-9.999 l 0.051,-0.071 c 0,0 0.354,0.009 1.007,0.032 0.655,-0.022 1.007,-0.032 1.007,-0.032 l 0.052,0.071 c 8.601,0.342 42.043,2.146 60.368,9.999 21.146,9.063 33.23,14.098 33.23,19.133 0,5.035 -4.028,10.07 -15.105,15.105 -11.076,5.035 -16.111,4.028 -16.111,4.028 0,0 6.042,-7.049 8.056,-14.098 0,0 -30.184,24.987 -66.606,27.125 -0.287,0.021 -0.564,0.049 -0.861,0.064 l -0.258,0.007 c -0.659,0.03 -1.323,0.038 -1.986,0.052 -0.594,0.013 -1.192,0.035 -1.784,0.035 -0.592,0 -1.188,-0.021 -1.783,-0.035 -0.663,-0.014 -1.326,-0.022 -1.985,-0.052 l -0.259,-0.007 c -0.297,-0.015 -0.573,-0.043 -0.862,-0.064 -36.421,-2.137 -66.606,-27.125 -66.606,-27.125 2.014,7.049 8.056,14.098 8.056,14.098 0,0 -5.035,1.007 -16.112,-4.028 -11.077,-5.035 -15.104,-10.07 -15.104,-15.105 -0.004,-5.034 12.08,-10.07 33.227,-19.133 z m -91.242,18.064 c 0.364,-0.529 0.687,-0.93 0.898,-1.178 0.105,-0.124 0.184,-0.209 0.225,-0.254 l 0.026,-0.028 1.048,-1.048 0.297,-1.484 c 0,0 0,0 2.014,-10.07 0.372,-1.84 1.014,-3.167 1.762,-4.233 0.437,-0.621 0.928,-1.132 1.43,-1.589 0.688,1.862 1.59,4.07 2.771,6.555 2.647,5.567 6.671,12.479 12.671,19.719 8.994,10.86 22.459,22.439 42.186,31.232 19.725,8.8 45.662,14.811 79.585,14.809 1.587,0 3.192,-0.013 4.815,-0.04 31.223,-0.51 55.786,-5.721 75.057,-13.365 14.452,-5.731 25.916,-12.831 34.943,-20.278 13.548,-11.171 21.591,-23.102 26.234,-32.282 1.305,-2.579 2.335,-4.93 3.155,-7.002 2.477,3.227 4.537,6.588 6.137,10.11 2.684,5.917 4.126,12.285 4.131,19.381 0,4.127 -0.494,8.502 -1.554,13.162 -0.46,2.052 -1.563,4.67 -3.33,7.578 -3.083,5.102 -8.151,11.067 -14.723,17.123 -9.856,9.101 -23.079,18.455 -38.057,26.202 -14.979,7.754 -31.717,13.907 -48.605,16.771 -10.684,1.814 -21.749,2.639 -32.904,2.639 -21.486,0.002 -43.306,-3.062 -63.362,-7.902 -20.054,-4.837 -38.354,-11.457 -52.764,-18.47 -17.796,-8.666 -28.917,-20.078 -35.922,-30.512 -3.498,-5.216 -5.953,-10.189 -7.644,-14.426 -1.691,-4.233 -2.62,-7.742 -3.061,-9.951 -0.186,-0.929 -0.265,-1.808 -0.265,-2.646 0,-1.467 0.243,-2.82 0.622,-4.053 0.566,-1.849 1.452,-3.412 2.184,-4.47 z m 248.099,183.334 c -28.744,38.042 -84.449,44.855 -101.589,46.063 -17.142,-1.208 -72.846,-8.021 -101.589,-46.063 -34.238,-45.314 -28.196,-93.649 -24.168,-107.748 0.924,-3.235 2.128,-6.514 3.461,-9.685 4.604,3.261 9.745,6.349 15.498,9.146 15.169,7.377 34.066,14.194 54.794,19.198 20.726,5 43.273,8.18 65.707,8.182 11.647,0 23.265,-0.858 34.578,-2.779 27.634,-4.709 54.111,-17.341 74.54,-31.677 0.084,-0.06 0.164,-0.119 0.248,-0.179 1.021,2.575 1.946,5.197 2.688,7.793 4.027,14.1 10.069,62.434 -24.168,107.749 z"
       id="path11"
       inkscape:connector-curvature="0"
       style="fill:#ffffff;fill-opacity:1" /><path
       d="m 133.771,398.675 c -3.598,-3.183 -6.969,-6.817 -10.099,-10.675 -4.531,2.563 -10.186,6.019 -13.893,9.195 -5.513,4.727 -8.056,12.084 -3.021,13.091 0,0 -23.491,23.441 17.119,40.28 41.286,17.118 86.601,12.083 108.754,-3.021 1.062,-0.724 2.028,-1.395 2.946,-2.037 -6.076,-0.634 -13.474,-1.717 -22.255,-3.533 -29.202,-6.042 -53.369,-20.14 -79.551,-43.3 z"
       id="path13"
       inkscape:connector-curvature="0"
       style="fill:#ffffff;fill-opacity:1" /><path
       d="m 297.678,441.975 c -8.782,1.816 -16.18,2.899 -22.256,3.533 0.918,0.643 1.885,1.313 2.946,2.037 22.153,15.104 67.468,20.14 108.755,3.021 40.609,-16.839 17.119,-40.28 17.119,-40.28 5.034,-1.007 2.492,-8.364 -3.021,-13.091 -3.707,-3.177 -9.362,-6.632 -13.893,-9.195 -3.131,3.857 -6.502,7.492 -10.1,10.675 -26.181,23.16 -50.348,37.258 -79.55,43.3 z"
       id="path15"
       inkscape:connector-curvature="0"
       style="fill:#ffffff;fill-opacity:1" /></g></svg>