<svg xmlns="http://www.w3.org/2000/svg" width="18" height="18" viewBox="0 0 18 18">
  <g id="Symbol_1082_1" data-name="Symbol 1082 – 1" transform="translate(22495 1048)">
    <g id="Monogram" transform="translate(-23538.055 -1734.055)">
      <g id="Monogram-2" data-name="Monogram" transform="translate(1045.1 688.1)">
        <rect id="Rectangle-path" width="14.054" height="14.054" fill="#fff"/>
        <path id="Shape" d="M32.12,45.529A.366.366,0,0,0,32,45.221l-.882-1.062V44h2.737l2.116,4.64L37.832,44h2.609v.159l-.754.723a.22.22,0,0,0-.084.212V50.4a.22.22,0,0,0,.084.212l.736.723V51.5h-3.7v-.159l.763-.74c.075-.075.075-.1.075-.212V46.093l-2.12,5.385h-.287l-2.468-5.385V49.7a.5.5,0,0,0,.137.414l.992,1.2v.159H31v-.159l.992-1.2a.48.48,0,0,0,.128-.414Z" transform="translate(-28.766 -40.829)" fill="#1b41b3"/>
      </g>
    </g>
    <rect id="Rectangle_2229" data-name="Rectangle 2229" width="18" height="18" transform="translate(-22495 -1048)" fill="none"/>
  </g>
</svg>
