<?xml version="1.0" encoding="utf-8"?>
<!-- Generator: Adobe Illustrator 16.0.0, SVG Export Plug-In . SVG Version: 6.00 Build 0)  -->
<!DOCTYPE svg PUBLIC "-//W3C//DTD SVG 1.1//EN" "http://www.w3.org/Graphics/SVG/1.1/DTD/svg11.dtd">
<svg version="1.1" id="Layer_1" xmlns="http://www.w3.org/2000/svg" xmlns:xlink="http://www.w3.org/1999/xlink" x="0px" y="0px"
	 width="20px" height="15px" viewBox="0 0 20 15" enable-background="new 0 0 20 15" xml:space="preserve">
<g>
	<g>
		<g id="XMLID_1622_">
			<path id="XMLID_1647_" fill="#C6C6C6" d="M9.441,8.394h2.293c0.85,0,1.543-0.693,1.543-1.544c0-0.852-0.693-1.544-1.543-1.544
				h-0.732L9.441,3.95h2.293c1.6,0,2.898,1.298,2.898,2.9c0,1.215-0.748,2.255-1.809,2.687l1.809,1.568h-2.068L9.441,8.394z"/>
		</g>
		<g id="XMLID_1592_">
			<path id="XMLID_1616_" fill="#C6C6C6" d="M10.561,6.661H8.27c-0.852,0-1.545,0.692-1.545,1.544c0,0.851,0.693,1.544,1.545,1.544
				h0.729l1.563,1.355H8.27c-1.602,0-2.9-1.298-2.9-2.899c0-1.215,0.748-2.255,1.807-2.687L5.369,3.95h2.068L10.561,6.661z"/>
		</g>
	</g>
	<path fill="#C6C6C6" d="M10,1c3.584,0,6.5,2.916,6.5,6.5S13.584,14,10,14s-6.5-2.916-6.5-6.5S6.416,1,10,1 M10,0
		C5.857,0,2.5,3.358,2.5,7.5S5.857,15,10,15s7.5-3.358,7.5-7.5S14.143,0,10,0L10,0z"/>
</g>
</svg>
