<?xml version="1.0" encoding="utf-8"?>
<!-- Generator: Adobe Illustrator 22.1.0, SVG Export Plug-In . SVG Version: 6.00 Build 0)  -->
<svg version="1.1" id="Layer_1" xmlns="http://www.w3.org/2000/svg" xmlns:xlink="http://www.w3.org/1999/xlink" x="0px" y="0px"
	 viewBox="0 0 20 15" style="enable-background:new 0 0 20 15;" xml:space="preserve">
<style type="text/css">
	.st0{fill:#C6C6C6;}
</style>
<g>
	<path class="st0" d="M10,1c3.6,0,6.5,2.9,6.5,6.5S13.6,14,10,14s-6.5-2.9-6.5-6.5S6.4,1,10,1 M10,0C5.9,0,2.5,3.4,2.5,7.5
		S5.9,15,10,15s7.5-3.4,7.5-7.5S14.1,0,10,0L10,0z"/>
</g>
<g>
	<path class="st0" d="M12.4,9.2l1.8,1.8h-1.9L9.5,8.2h1.9c0.4,0,0.7-0.1,1-0.4c0.3-0.3,0.4-0.6,0.4-1c0-0.4-0.1-0.7-0.4-1
		c-0.3-0.3-0.6-0.4-1-0.4h-0.7L9.3,4h2.1c1.5,0,2.8,1.3,2.8,2.8C14.2,7.9,13.6,8.9,12.4,9.2z"/>
	<path class="st0" d="M7.6,5.8L5.8,4h1.9l2.8,2.8H8.6c-0.4,0-0.7,0.1-1,0.4c-0.3,0.3-0.4,0.6-0.4,1c0,0.4,0.1,0.7,0.4,1
		c0.3,0.3,0.6,0.4,1,0.4h0.7l1.4,1.4H8.6c-1.5,0-2.8-1.3-2.8-2.8C5.8,7.1,6.4,6.1,7.6,5.8z"/>
</g>
</svg>
