<svg xmlns="http://www.w3.org/2000/svg" width="180" height="180" viewBox="0 0 180 180">
  <title>Liz Bagot</title>
  <g>
    <circle cx="90" cy="90" r="90" fill="#6ed3f3"/>
    <g>
      <path d="M30.194,132.215,14.62,139.179a90.431,90.431,0,0,0,12.565,15.265,38.136,38.136,0,0,0,7.354-11.177S30.473,140.47,30.194,132.215Z" fill="#091440"/>
      <path d="M148.215,137.87a22.635,22.635,0,0,1,2.573,12.114,14.577,14.577,0,0,1,2.257,4.237,90.492,90.492,0,0,0,9.137-10.456Z" fill="#091440"/>
      <path d="M148.215,137.87c-3.3-6.167-11.541-6.324-11.541-6.324s3.45-2.2,4.077-13.016S132.126,92.5,128.676,81.991s-4.861-18.5-9.566-35.04-17.564-14.044-17.564-14.044S100.135,26.948,90.1,26.32C69.713,24.6,50.178,43.765,44.354,66.576c-4.108,16.086-3.025,27.521-4.436,48.984-5.645,4.557-9.462,7.689-9.724,14.69-.026.69-.021,1.339,0,1.966.28,8.255,4.345,11.052,4.345,11.052a38.136,38.136,0,0,1-7.354,11.177A89.684,89.684,0,0,0,85.327,179.88a48.158,48.158,0,0,0,3.041-25.439,98.089,98.089,0,0,0-9.153-27.13c-3.28-6.54-7.348-12.782-9.6-19.2a19.158,19.158,0,0,1-1.683-3.849l-.068-.229a43.323,43.323,0,0,1-1.615-16.57c.593-6.168,1.558-14.133,2.909-18.882,0,0,8.338-12.243,19.213-31.01,2.906-5.014,18,.282,21.634,5.642s8.185,16.671,8.376,22.653,1.6,9.79,1.743,15.432-.564,13.322-6.665,23.589c-3.609,6.074-6.915,11.7-8.574,15.045a4.95,4.95,0,0,1-1.209,1.551c-.247,1.205-.506,2.407-.777,3.6-1.612,15.989,1.26,38.028,7.5,52.6a89.832,89.832,0,0,0,42.648-23.457,14.577,14.577,0,0,0-2.257-4.237A22.635,22.635,0,0,0,148.215,137.87Z" fill="#848aa0"/>
      <path d="M102.895,125.076a173.549,173.549,0,0,1-4.879,17.277c-1.856,5.381-3.022,11.756-9.648,12.088a48.158,48.158,0,0,1-3.041,25.439Q87.649,180,90,180a90.27,90.27,0,0,0,20.4-2.322C104.155,163.1,101.283,141.065,102.895,125.076Z" fill="#091440"/>
      <path d="M98.016,142.353a173.549,173.549,0,0,0,4.879-17.277c.271-1.189.53-2.39.777-3.6a4.95,4.95,0,0,0,1.209-1.551c1.658-3.349,4.964-8.971,8.574-15.045,6.1-10.267,6.806-17.947,6.665-23.589s-1.552-9.451-1.743-15.432S113.631,48.571,110,43.211,91.273,32.555,88.368,37.569c-10.875,18.767-19.213,31.01-19.213,31.01-1.351,4.749-2.317,12.714-2.909,18.882a43.323,43.323,0,0,0,1.615,16.57l.068.229a19.158,19.158,0,0,0,1.683,3.849c2.254,6.421,6.322,12.663,9.6,19.2a98.089,98.089,0,0,1,9.153,27.13C94.994,154.11,96.16,147.734,98.016,142.353Z" fill="#fff"/>
    </g>
    <g>
      <path d="M81.447,71.207a2.218,2.218,0,0,0-.047-.529,13.545,13.545,0,0,1,2.322.437c1.178.325,2.369.785,3.666,1.186a9.606,9.606,0,0,0-3.073-2.624,8.361,8.361,0,0,0-4.08-1.057A7.955,7.955,0,0,0,76.176,69.8a8.994,8.994,0,0,0-2.914,2.819c1.268-.5,2.415-1.023,3.568-1.4.054-.018.108-.03.161-.047a2.228,2.228,0,0,0,4.454.035Z" fill="#091440"/>
      <path d="M87.631,63.978c4.569,1.2,4.194-3.344.947-3.931-6-1.085-11.719-1.183-13.9-.4s-5.526,5.138-5.526,5.138,4.748-3.018,8.018-2.853A56.189,56.189,0,0,1,87.631,63.978Z" fill="#848aa0"/>
      <path d="M118.251,62.25c-.618-2.537-4.159-2.855-6.888-2.671s-7.907.773-9.009,4.815c-.7,2.583,6.381-1.723,10.781-2.053a4.738,4.738,0,0,1,5.241,3.523S118.869,64.788,118.251,62.25Z" fill="#848aa0"/>
      <path d="M83.344,68.081a8.438,8.438,0,0,1,3.3,1.531,6.155,6.155,0,0,0-3.068-2.274,9.8,9.8,0,0,0-3.848-.563,10.156,10.156,0,0,0-3.769.935,8.268,8.268,0,0,0-3.012,2.352,13.426,13.426,0,0,1,6.832-2.288A12.471,12.471,0,0,1,83.344,68.081Z" fill="#091440"/>
      <path d="M111.717,69.565a6.9,6.9,0,0,0-3.529-.95,7.562,7.562,0,0,0-3.513.8,4.379,4.379,0,0,0-2.368,2.626,7.741,7.741,0,0,1,2.908-1.154c.048-.01.1-.012.145-.021-.005.05-.019.1-.021.147a2.234,2.234,0,1,0,4.431-.286,9.144,9.144,0,0,1,1.283.259,4.7,4.7,0,0,1,2.535,1.608A3.522,3.522,0,0,0,111.717,69.565Z" fill="#091440"/>
      <path d="M108.456,67.053a9.365,9.365,0,0,0-3.367.651,6.988,6.988,0,0,0-2.783,1.908,12.937,12.937,0,0,1,3.023-1.168,13.087,13.087,0,0,1,3.133-.392,12.064,12.064,0,0,1,3.122.384,15.518,15.518,0,0,1,3.026,1.175A7.569,7.569,0,0,0,111.83,67.7,8.875,8.875,0,0,0,108.456,67.053Z" fill="#091440"/>
      <path d="M105.12,88.623c-5.76.832-12.208,1.088-16.753-.64C90.416,91.055,98.272,95.023,105.12,88.623Z" fill="#848aa0"/>
      <path d="M97.776,104.432c-13.313-1.088-17.986-6.273-17.986-6.273s4.829,9.56,18.882,9.921c7.361,0,10.442-11.024,10.442-11.024C105.156,101.841,102.306,104.432,97.776,104.432Z" fill="#848aa0"/>
      <path d="M97.457,103.525c-8.766.441-13.723-3.981-14.931-5.217-1.038-.089-1.973-.149-2.735-.149,0,0,4.672,5.184,17.986,6.273,4.53,0,7.38-2.591,11.339-7.376,0,0-1.015.206-2.514.49C106.383,99.446,104.987,103.147,97.457,103.525Z" fill="#091440"/>
      <path d="M97.457,103.525c7.53-.379,8.926-4.079,9.144-5.979-2.8.532-7.335,1.345-10.3,1.637-3.643.359-9.584-.514-13.778-.875C83.734,99.545,88.691,103.966,97.457,103.525Z" fill="#fff"/>
      <path d="M103.345,95.151c-2.7.017-3.52.7-5.5.64a43.8,43.8,0,0,0-7.809,0A65.314,65.314,0,0,0,79.791,98.16c.762,0,1.7.059,2.735.149,4.194.361,10.135,1.235,13.778.875,2.961-.292,7.491-1.1,10.3-1.637,1.5-.285,2.514-.49,2.514-.49S107.569,95.124,103.345,95.151Z" fill="#848aa0"/>
    </g>
    <path d="M92.9,123.613c-5.65-.157-11.163-2.871-15.608-6.537.639,1.185,1.294,2.371,1.949,3.564,6.118,7.747,11.8,12.61,20.131,12.852a8.6,8.6,0,0,0,1.41-.082c1.039-3.724,2.044-7.8,2.89-11.925C101.423,123.432,97.343,123.736,92.9,123.613Z" fill="#848aa0"/>
  </g>
</svg>
