<svg xmlns="http://www.w3.org/2000/svg" width="70" height="70" viewBox="0 0 70 70"><g transform="translate(-214 -797)"><g transform="translate(1)"><circle cx="35" cy="35" r="35" transform="translate(213 797)" fill="#091440"/></g><g transform="translate(-1948.624 2073.048)"><path d="M2372.094-1244.839l-8.609,17.238h8.609l-4.3,12.929,17.218-17.238h-8.791l8.791-12.928" transform="translate(-176.62 -11.603)" fill="#2970ff"/><g transform="translate(2177.626 -1257.048)"><g transform="translate(0 0)"><circle cx="0.607" cy="0.607" r="0.607" fill="#6ed3f3"/><circle cx="0.607" cy="0.607" r="0.607" transform="translate(0 4.316)" fill="#6ed3f3"/><circle cx="0.607" cy="0.607" r="0.607" transform="translate(0 8.619)" fill="#6ed3f3"/><circle cx="0.607" cy="0.607" r="0.607" transform="translate(0 12.928)" fill="#6ed3f3"/><circle cx="0.607" cy="0.607" r="0.607" transform="translate(0 17.238)" fill="#6ed3f3"/><circle cx="0.607" cy="0.607" r="0.607" transform="translate(0 21.548)" fill="#6ed3f3"/><circle cx="0.607" cy="0.607" r="0.607" transform="translate(0 25.851)" fill="#6ed3f3"/><circle cx="0.607" cy="0.607" r="0.607" transform="translate(0 30.167)" fill="#6ed3f3"/></g><g transform="translate(4.316 0)"><circle cx="0.607" cy="0.607" r="0.607" fill="#6ed3f3"/><circle cx="0.607" cy="0.607" r="0.607" transform="translate(0 4.316)" fill="#6ed3f3"/><circle cx="0.607" cy="0.607" r="0.607" transform="translate(0 8.619)" fill="#6ed3f3"/><circle cx="0.607" cy="0.607" r="0.607" transform="translate(0 12.928)" fill="#6ed3f3"/><circle cx="0.607" cy="0.607" r="0.607" transform="translate(0 17.238)" fill="#6ed3f3"/><circle cx="0.607" cy="0.607" r="0.607" transform="translate(0 21.548)" fill="#6ed3f3"/><circle cx="0.607" cy="0.607" r="0.607" transform="translate(0 25.851)" fill="#6ed3f3"/><circle cx="0.607" cy="0.607" r="0.607" transform="translate(0 30.167)" fill="#6ed3f3"/></g><g transform="translate(8.619 0)"><circle cx="0.607" cy="0.607" r="0.607" fill="#6ed3f3"/><circle cx="0.607" cy="0.607" r="0.607" transform="translate(0 4.316)" fill="#6ed3f3"/><circle cx="0.607" cy="0.607" r="0.607" transform="translate(0 8.619)" fill="#6ed3f3"/><circle cx="0.607" cy="0.607" r="0.607" transform="translate(0 12.928)" fill="#6ed3f3"/><circle cx="0.607" cy="0.607" r="0.607" transform="translate(0 17.238)" fill="#6ed3f3"/><circle cx="0.607" cy="0.607" r="0.607" transform="translate(0 21.548)" fill="#6ed3f3"/><circle cx="0.607" cy="0.607" r="0.607" transform="translate(0 25.851)" fill="#6ed3f3"/><circle cx="0.607" cy="0.607" r="0.607" transform="translate(0 30.167)" fill="#6ed3f3"/></g><g transform="translate(12.929 0)"><circle cx="0.607" cy="0.607" r="0.607" fill="#6ed3f3"/><circle cx="0.607" cy="0.607" r="0.607" transform="translate(0 4.316)" fill="#6ed3f3"/><circle cx="0.607" cy="0.607" r="0.607" transform="translate(0 8.619)" fill="#6ed3f3"/><circle cx="0.607" cy="0.607" r="0.607" transform="translate(0 12.928)" fill="#6ed3f3"/><circle cx="0.607" cy="0.607" r="0.607" transform="translate(0 17.238)" fill="#6ed3f3"/><circle cx="0.607" cy="0.607" r="0.607" transform="translate(0 21.548)" fill="#6ed3f3"/><circle cx="0.607" cy="0.607" r="0.607" transform="translate(0 25.851)" fill="#6ed3f3"/><circle cx="0.607" cy="0.607" r="0.607" transform="translate(0 30.167)" fill="#6ed3f3"/></g><g transform="translate(17.238 0)"><circle cx="0.607" cy="0.607" r="0.607" fill="#6ed3f3"/><circle cx="0.607" cy="0.607" r="0.607" transform="translate(0 4.316)" fill="#6ed3f3"/><circle cx="0.607" cy="0.607" r="0.607" transform="translate(0 8.619)" fill="#6ed3f3"/><circle cx="0.607" cy="0.607" r="0.607" transform="translate(0 12.928)" fill="#6ed3f3"/><circle cx="0.607" cy="0.607" r="0.607" transform="translate(0 17.238)" fill="#6ed3f3"/><circle cx="0.607" cy="0.607" r="0.607" transform="translate(0 21.548)" fill="#6ed3f3"/><circle cx="0.607" cy="0.607" r="0.607" transform="translate(0 25.851)" fill="#6ed3f3"/><circle cx="0.607" cy="0.607" r="0.607" transform="translate(0 30.167)" fill="#6ed3f3"/></g><g transform="translate(21.548 0)"><circle cx="0.607" cy="0.607" r="0.607" fill="#6ed3f3"/><circle cx="0.607" cy="0.607" r="0.607" transform="translate(0 4.316)" fill="#6ed3f3"/><circle cx="0.607" cy="0.607" r="0.607" transform="translate(0 8.619)" fill="#6ed3f3"/><circle cx="0.607" cy="0.607" r="0.607" transform="translate(0 12.928)" fill="#6ed3f3"/><circle cx="0.607" cy="0.607" r="0.607" transform="translate(0 17.238)" fill="#6ed3f3"/><circle cx="0.607" cy="0.607" r="0.607" transform="translate(0 21.548)" fill="#6ed3f3"/><circle cx="0.607" cy="0.607" r="0.607" transform="translate(0 25.851)" fill="#6ed3f3"/><circle cx="0.607" cy="0.607" r="0.607" transform="translate(0 30.167)" fill="#6ed3f3"/></g><g transform="translate(25.857 0)"><circle cx="0.607" cy="0.607" r="0.607" fill="#6ed3f3"/><circle cx="0.607" cy="0.607" r="0.607" transform="translate(0 4.316)" fill="#6ed3f3"/><circle cx="0.607" cy="0.607" r="0.607" transform="translate(0 8.619)" fill="#6ed3f3"/><circle cx="0.607" cy="0.607" r="0.607" transform="translate(0 12.928)" fill="#6ed3f3"/><circle cx="0.607" cy="0.607" r="0.607" transform="translate(0 17.238)" fill="#6ed3f3"/><circle cx="0.607" cy="0.607" r="0.607" transform="translate(0 21.548)" fill="#6ed3f3"/><circle cx="0.607" cy="0.607" r="0.607" transform="translate(0 25.851)" fill="#6ed3f3"/><circle cx="0.607" cy="0.607" r="0.607" transform="translate(0 30.167)" fill="#6ed3f3"/></g><g transform="translate(30.167 0)"><circle cx="0.607" cy="0.607" r="0.607" fill="#6ed3f3"/><circle cx="0.607" cy="0.607" r="0.607" transform="translate(0 4.316)" fill="#6ed3f3"/><circle cx="0.607" cy="0.607" r="0.607" transform="translate(0 8.619)" fill="#6ed3f3"/><circle cx="0.607" cy="0.607" r="0.607" transform="translate(0 12.928)" fill="#6ed3f3"/><circle cx="0.607" cy="0.607" r="0.607" transform="translate(0 17.238)" fill="#6ed3f3"/><circle cx="0.607" cy="0.607" r="0.607" transform="translate(0 21.548)" fill="#6ed3f3"/><circle cx="0.607" cy="0.607" r="0.607" transform="translate(0 25.851)" fill="#6ed3f3"/><circle cx="0.607" cy="0.607" r="0.607" transform="translate(0 30.167)" fill="#6ed3f3"/></g><g transform="translate(34.47 0)"><circle cx="0.607" cy="0.607" r="0.607" fill="#6ed3f3"/><circle cx="0.607" cy="0.607" r="0.607" transform="translate(0 4.316)" fill="#6ed3f3"/><circle cx="0.607" cy="0.607" r="0.607" transform="translate(0 8.619)" fill="#6ed3f3"/><circle cx="0.607" cy="0.607" r="0.607" transform="translate(0 12.928)" fill="#6ed3f3"/><circle cx="0.607" cy="0.607" r="0.607" transform="translate(0 17.238)" fill="#6ed3f3"/><circle cx="0.607" cy="0.607" r="0.607" transform="translate(0 21.548)" fill="#6ed3f3"/><circle cx="0.607" cy="0.607" r="0.607" transform="translate(0 25.851)" fill="#6ed3f3"/><circle cx="0.607" cy="0.607" r="0.607" transform="translate(0 30.167)" fill="#6ed3f3"/></g><g transform="translate(38.786 0)"><circle cx="0.607" cy="0.607" r="0.607" fill="#6ed3f3"/><circle cx="0.607" cy="0.607" r="0.607" transform="translate(0 4.316)" fill="#6ed3f3"/><circle cx="0.607" cy="0.607" r="0.607" transform="translate(0 8.619)" fill="#6ed3f3"/><circle cx="0.607" cy="0.607" r="0.607" transform="translate(0 12.928)" fill="#6ed3f3"/><circle cx="0.607" cy="0.607" r="0.607" transform="translate(0 17.238)" fill="#6ed3f3"/><circle cx="0.607" cy="0.607" r="0.607" transform="translate(0 21.548)" fill="#6ed3f3"/><circle cx="0.607" cy="0.607" r="0.607" transform="translate(0 25.851)" fill="#6ed3f3"/><circle cx="0.607" cy="0.607" r="0.607" transform="translate(0 30.167)" fill="#6ed3f3"/></g></g></g></g></svg>