<svg xmlns="http://www.w3.org/2000/svg" width="180" height="180" viewBox="0 0 180 180">
  <title>Margaret Huang</title>
  <g>
    <circle cx="90" cy="90" r="90" fill="#3ad7a4"/>
    <g>
      <path d="M156.479,150.665l-6.886-3.065c5.133-10.675.717-18.832-4.987-24.837,0-6.541-6.7-12.147-6.7-12.147a33.566,33.566,0,0,0-.444-12.639c-1.557-7.3-8.589-12.433-10.458-33.616S122.054,35.71,106.658,32.6C95.65,25.12,78.927,30.1,68.144,39.6,58.27,48.3,47.7,67.4,44.3,97.913a155.143,155.143,0,0,0,.654,37.985l-24.665,11.03a90,90,0,0,0,136.186,3.737Z" fill="#091440"/>
      <path d="M123.7,80.989a78.117,78.117,0,0,1-2.486-16.179,44.271,44.271,0,0,0-4.953-18.51c-3.426-6.385-10.378-8.1-10.378-8.1s-7.843,4.516-15.318,7.786S81.746,60.146,77.714,67.317c-5.423,9.643-17.764,15.352-17.764,15.352l.414,9.86a6.83,6.83,0,0,0,4.528,6.206l.076.026v-.007a41.732,41.732,0,0,0,.751,6.8c-.054.664-.1,1.353-.133,2.1-.378,8.738-4.157,25.661-4.157,25.661s2.824,10.667,15.454,15.63c6.921,2.72,18.138,5.425,23.343-5.564a49.159,49.159,0,0,0,3.1-9.241h0c.02-.081.038-.166.057-.247.082-.34,1.536-7.666,1.549-7.744l.017-.1c5.384-1.841,8.935-5.807,11.466-10.242,3.582-6.276,3.793-8.622,5.634-16.481S125.572,88.464,123.7,80.989Z" fill="#fff"/>
      <path d="M97.247,127.123c-7.928-.247-20.529-9.034-26.867-14.827h0c13.987,20.29,24.269,21.562,32.95,21.841.593-2.424,1.108-5.025,1.568-7.756.013-.078.026-.157.039-.235l.017-.1A21.5,21.5,0,0,1,97.247,127.123Z" fill="#848aa0"/>
    </g>
    <g>
      <path d="M86.527,74.2a2.191,2.191,0,0,0-.14-2.634,14.354,14.354,0,0,1,1.864.311,16.224,16.224,0,0,1,3.132,1.1,5.843,5.843,0,0,0-2.55-2.556,7.838,7.838,0,0,0-7.213-.127,7.252,7.252,0,0,0-2.694,2.389c1.168-.336,2.2-.69,3.231-.911.237-.048.468-.07.7-.106a2.217,2.217,0,0,0-.064,2.523C83.984,74.183,85.458,74.19,86.527,74.2Z" fill="#091440"/>
      <path d="M88.816,63.69c4.059.9,5.155.837,5.62.321.4-.446.267-1.149-1.2-1.882-3.9-1.947-13.884-3.245-20.218,1.06A40.372,40.372,0,0,1,88.816,63.69Z" fill="#091440"/>
      <path d="M121.716,63.054c-3.88-3.871-14.036-2.162-15.681.59-.568.95.271,1.762,1.819,1.3,1.934-.581,5.976-2.593,8.769-2.36,5.093.425,5.43,3.3,5.43,3.3S123.411,65.052,121.716,63.054Z" fill="#091440"/>
      <path d="M100.516,95.756A9.1,9.1,0,0,0,107.985,92c-3.842,1.316-8.843,1.913-16.146,0C93.613,94.606,97.558,95.877,100.516,95.756Z" fill="#848aa0"/>
      <path d="M108.765,101.681a8.634,8.634,0,0,1-7.757,4.892c-5.606,0-9.373-.549-13.785-4.91-.879-.068-1.722-.12-2.523-.152.329.389,4.962,5.645,15.379,5.645,7.408,0,9.845-4.968,10.129-5.612Q109.474,101.6,108.765,101.681Z" fill="#091440"/>
      <path d="M108.765,101.681a57.036,57.036,0,0,1-9.289.911c-3.834-.063-8.349-.628-12.253-.93,4.413,4.361,8.18,4.91,13.785,4.91A8.634,8.634,0,0,0,108.765,101.681Z" fill="#fff"/>
      <path d="M117.3,72.974a6.224,6.224,0,0,0-2.075-2.173,6.536,6.536,0,0,0-2.934-1.036,5.259,5.259,0,0,0-3.145.659,4.474,4.474,0,0,0-1.988,2.337A17.477,17.477,0,0,1,109.217,72a2.2,2.2,0,0,0,.26,2.344c.859-.007,2.125-.04,3.606-.144a2.179,2.179,0,0,0,.1-2.285c.453.085.912.188,1.384.314C115.427,72.45,116.3,72.742,117.3,72.974Z" fill="#091440"/>
      <path d="M111.03,101.136c-4.485-1.8-5.437-2.362-6.818-2.849-1.464-.517-2.325.6-4.219.6s-2.538-1.392-5.014-.739-8.847,3.15-11.775,3.322c0,0,.6,1.808,3.444,4.3s8.753,6.086,14.551,5.855c5.391-.215,7.232-3.013,8.3-6.027s1.525-4.133,1.525-4.133h-.01A.178.178,0,0,0,111.03,101.136Zm-10.951,6.019c-10.418,0-15.051-5.256-15.379-5.645.8.032,1.645.084,2.523.152,3.9.3,8.419.867,12.253.93a57.036,57.036,0,0,0,9.289-.911q.708-.086,1.443-.138C109.924,102.187,107.487,107.155,100.079,107.155Z" fill="#848aa0"/>
    </g>
  </g>
</svg>
