<?xml version="1.0" encoding="utf-8"?>
<!-- Generator: Adobe Illustrator 22.0.1, SVG Export Plug-In . SVG Version: 6.00 Build 0)  -->
<svg version="1.1" id="Layer_1" xmlns="http://www.w3.org/2000/svg" xmlns:xlink="http://www.w3.org/1999/xlink" x="0px" y="0px"
	 viewBox="0 0 30 30" style="enable-background:new 0 0 30 30;" xml:space="preserve">
<style type="text/css">
	.st0{fill:#091440;}
</style>
<g>
	<path class="st0" d="M0,0v30h30V0H0z M24.9,22.8h-8v-0.3l1.6-1.6c0.2-0.2,0.2-0.2,0.2-0.5v-9.1l-4.6,11.6h-0.7L8.3,11.3v7.7
		c0,0.3,0,0.7,0.3,0.8l2.1,2.6v0.3h-6v-0.3l2.1-2.4c0.2-0.2,0.3-0.5,0.3-0.8v-9c0-0.3,0-0.5-0.3-0.7l-2-2.3V6.7h5.9l4.6,9.9l3.9-9.9
		h5.5V7l-1.6,1.5c0,0.3,0,0.5,0,0.7v11.4c0,0.2,0,0.3,0.2,0.5l1.6,1.5V22.8z"/>
</g>
</svg>
