<svg xmlns="http://www.w3.org/2000/svg" width="180" height="180" viewBox="0 0 180 180">
  <title>Milvian</title>
  <g>
    <circle cx="90" cy="90" r="90" fill="#2f74fb"/>
    <g>
      <path d="M149.454,148.742c3.254-5.583,4.927-11.116,4.521-15.049-9.168-1.019-10.457-7.992-10.457-7.992s3.331-2.218,2.207-9.543c-.838-5.466-6.281-8.319-6.281-8.319,6.147-10.978,7.116-23.659-3.215-39.562-10.035-15.447-2.159-22.8-11.283-33.5C100.279,5.87,86.339,18.371,86.339,18.371s-6.825-3.226-17.69.679S49.974,30.085,44.2,42.478s-1.37,21.275-1.37,21.275c-2.037,5.879-5.459,10.309-8.345,21.174s4.282,21.614,4.282,21.614-11.02,7.09-14.73,16.5c-3.743,9.5-3.048,16.8.425,24.583l-2.606,1.165a89.991,89.991,0,0,0,133.924,2.619Z" fill="#091440"/>
      <path d="M63.079,137.04c2.07,14.94,17.69,27.334,33.511,22.919,7.909-2.207,12.294-7.979,12.973-14.94.389-3.99.667-15.008.983-25.861a61.876,61.876,0,0,0,7.75-12.618c2.591-6.418,2.2-12.5,2.591-17.809s-.389-9.587-.716-15.158-.128-8.038,0-14.51-3.3-13.6-5.111-16.065-7.126-3.5-13.085-3.368S89.828,36,89.828,36,78.846,36.621,76,48.723c-1.949,8.29-7.194,14.227-12.377,20.518-.205,1.745-.341,3.316-.427,4.835h0c-1.555,3.887-7.337,12.112-7.337,12.112a68.613,68.613,0,0,0,2.713,8.245,5.01,5.01,0,0,0,2.716,2.408C61.287,105.192,61.466,125.4,63.079,137.04Z" fill="#fff"/>
    </g>
    <g>
      <g>
        <g>
          <path d="M93.558,64.884a1.476,1.476,0,0,0-1.028-1.7c-5.637-1.669-10.059-2.8-14.9-1.814A10.72,10.72,0,0,0,70.388,66.5s5.287-3.132,10.493-2.746a58.163,58.163,0,0,1,10.813,2.266,1.471,1.471,0,0,0,1.864-1.134Z" fill="#091440"/>
          <path d="M102.761,66.824c1.191-2.138,3.5-4.23,9.192-4.718s7.89,1.313,8.215,2.106a13.491,13.491,0,0,1,0,3.669s-.325-2.382-3.742-2.94-10.33,1.882-11.632,2.208S102.08,68.047,102.761,66.824Z" fill="#091440"/>
          <path d="M90.479,90.169c3.823,2.522,9.517,4.8,15.7.407A57.332,57.332,0,0,1,90.479,90.169Z" fill="#848aa0"/>
          <path d="M76,72.355a8.647,8.647,0,0,1,2.832-2.9,7.371,7.371,0,0,1,8.137.034,8.976,8.976,0,0,1,2.859,2.865c-1.254-.519-2.4-1.064-3.545-1.463a10.376,10.376,0,0,0-3.389-.644,10.1,10.1,0,0,0-3.378.6C78.376,71.248,77.243,71.808,76,72.355Z" fill="#091440"/>
          <path d="M104.714,72.762a6.516,6.516,0,0,1,2.147-2.773,6.053,6.053,0,0,1,3.52-1.171,5.914,5.914,0,0,1,5.639,3.944,14.81,14.81,0,0,0-2.852-1.434,8.04,8.04,0,0,0-2.777-.511,7.893,7.893,0,0,0-2.77.542A31.6,31.6,0,0,0,104.714,72.762Z" fill="#091440"/>
          <path d="M108.275,101.017s-3.543,7.951-9.781,7.985-13.437-3.834-13.587-7.558c5.722-2.663,11.33-2.563,15.943-2.464A14.545,14.545,0,0,1,108.275,101.017Z" fill="#091440"/>
          <path d="M98.328,107.444c-1.738.2-2.939-1.378-4.885-1.945s-7.914-1.787-8.537-4.055c0,6.73,8.66,10.621,13.422,10.621s9.782-4.667,9.947-11.047c-2.757,3.486-4.492,4.838-6.644,5.049C100.1,106.216,99.7,107.284,98.328,107.444Z" fill="#848aa0"/>
          <circle cx="82.39" cy="71.669" r="2.234" transform="matrix(0.043, -0.999, 0.999, 0.043, 7.264, 150.919)" fill="#091440"/>
          <circle cx="109.403" cy="71.669" r="2.234" transform="matrix(0.043, -0.999, 0.999, 0.043, 33.122, 177.907)" fill="#091440"/>
        </g>
        <path d="M86.339,101.249c1.849,1.886,7.1,4.25,12.292,4.14,6.133-.13,8.406-3.856,8.6-4.533C98.328,98.471,86.339,101.249,86.339,101.249Z" fill="#fff"/>
        <path d="M84.907,101.444c6.214-.85,9.082-1.222,12.481-.372s5.789-1.012,10.888-.055c-4.408-4.566-7.329-4.194-9.241-3.716s-3.346-.543-4.886-.271S87.3,99.213,84.907,101.444Z" fill="#848aa0"/>
      </g>
      <path d="M103.657,126.173a10.85,10.85,0,0,1-7.066,1.3c-13.777-1.028-18.716-6.867-23.639-13.085-1.269-1.6-2.466-3.128-3.557-4.7,1.629,5.985,4.683,9.94,8.292,14.5,5.013,6.332,10.043,12.277,24.071,13.324a11.048,11.048,0,0,0,7.195-1.319,6.929,6.929,0,0,0,1.1-.724c.168-4.771.325-10.563.492-16.309C107.924,122.559,105.3,125.352,103.657,126.173Z" fill="#848aa0"/>
    </g>
  </g>
</svg>
