<svg xmlns="http://www.w3.org/2000/svg" viewBox="10236 -5261 16 16"><defs><style>.a{fill:#c4cbd2;}.b{fill:#091440;}.c{fill:none;}</style></defs><g transform="translate(10153 -7083)"><g transform="translate(83 1822)"><path class="a" d="M927.873,86.991h.018V85H925.9v1.991h1.973Zm-.658-1.316h.356v.676h-.356Zm-1,0h.356v.676h-.356Z" transform="translate(-913.882 -81.978)"/><path class="b" d="M643.5,47.844V45h-3.556v.711a6.044,6.044,0,1,0,6.044,6.044h.608V48.413H643.93v3.342h.636a4.622,4.622,0,1,1-4.622-4.622v.711Zm-1.671-2.1h.676V46.1h-.676Zm0,1h.676V47.1h-.676Z" transform="translate(-632.264 -43.4)"/><rect class="b" width="0.356" height="0.676" transform="translate(12.338 3.698)"/><rect class="b" width="0.356" height="0.676" transform="translate(13.333 3.698)"/><rect class="a" width="0.676" height="0.356" transform="translate(9.564 3.342)"/><rect class="a" width="0.676" height="0.356" transform="translate(9.564 2.347)"/><rect class="c" width="16" height="16" transform="translate(0)"/></g></g></svg>