<svg xmlns="http://www.w3.org/2000/svg" viewBox="0 0 30 30">
  <defs>
    <style>
      .cls-1 {
        fill: #2970ff;
      }

      .cls-2 {
        fill: #8997a5;
      }

      .cls-3 {
        fill: none;
      }

      .cls-4 {
        fill: #091440;
      }
    </style>
  </defs>
  <g id="Symbol_314_1" data-name="Symbol 314 – 1" transform="translate(-233.091 -578.091)">
    <g id="Group_2015" data-name="Group 2015" transform="translate(233.091 578.091)">
      <path id="XMLID_7_" class="cls-1" d="M24.9,165.64h0l2.3.573a16.15,16.15,0,0,1-.26-2.3c-.02-.387-.027-.793-.027-1.207,0-.48.013-.947.04-1.387.033-.58.087-1.107.153-1.56q.04-.3.1-.56l-2.307.573c-.28,0-.507,1.313-.507,2.933S24.638,165.64,24.9,165.64Z" transform="translate(-22.771 -148.587)"/>
      <g id="XMLID_6_" transform="translate(23.133 23.247)">
        <path id="Path_1347" data-name="Path 1347" class="cls-2" d="M347.053,348.72h0a.165.165,0,0,0,.053.007L347,348.7Z" transform="translate(-347 -348.7)"/>
      </g>
      <g id="XMLID_5_" transform="translate(6.62 19.12)">
        <path id="Path_1348" data-name="Path 1348" class="cls-2" d="M99.313,286.8h0Z" transform="translate(-99.3 -286.8)"/>
      </g>
      <g id="XMLID_4_" transform="translate(6.567 9.124)">
        <path id="Path_1349" data-name="Path 1349" class="cls-2" d="M98.5,136.877l.06-.013A.072.072,0,0,0,98.5,136.877Z" transform="translate(-98.5 -136.861)"/>
      </g>
      <g id="Group_2014" data-name="Group 2014">
        <g id="XMLID_3_" transform="translate(23.127 4.968)">
          <path id="Path_1350" data-name="Path 1350" class="cls-2" d="M346.987,74.53h-.02c-.007,0-.013,0-.013.007s-.013.007-.02.007a.007.007,0,0,0-.007.007c-.007,0-.013.007-.027.013l.127-.033A.043.043,0,0,0,346.987,74.53Z" transform="translate(-346.9 -74.525)"/>
        </g>
        <rect id="Rectangle_859" data-name="Rectangle 859" class="cls-3" width="30" height="30"/>
      </g>
    </g>
    <path id="Path_1351" data-name="Path 1351" class="cls-1" d="M84.653,61.713a184.073,184.073,0,0,0-.04.013c-.007,0-.013.007-.027.007a.007.007,0,0,0-.007.007c-.007.007-.02.007-.027.013h0l-.94.233-2.307.58-.127.033L64.687,66.707H64.68l-.06.013h0L63,67.127h-.007a.126.126,0,0,0-.053.013c-.173.073-.327.46-.447,1.053q-.05.25-.1.56c-.067.453-.12.987-.153,1.56-.027.44-.04.9-.04,1.387,0,.42.007.827.027,1.207a15.337,15.337,0,0,0,.26,2.3h0c.14.667.313,1.067.513,1.067h0l1.627.407a.157.157,0,0,0,.053.013h.013l1.633.407v3.713l11.66,2.707V80.033l.02.007,3.18.793.107.027,3.267.813h0l.06.02h.007a.184.184,0,0,0,.06.007h.007v-20C84.68,61.707,84.667,61.707,84.653,61.713ZM76.32,81.427,67.987,79.5V77.527l.02.007,8.313,2.08Z" transform="translate(175.037 520.504)"/>
    <g id="XMLID_2_" transform="translate(258.057 582.204)">
      <path id="Path_1352" data-name="Path 1352" class="cls-4" d="M374.5,71.707c0,5.253.673,9.56,1.533,9.967h0l.06.02h.007a.184.184,0,0,0,.06.007h.007c.92,0,1.667-4.48,1.667-10s-.747-10-1.667-10h-.04a46.074,46.074,0,0,1-.04.013c-.007,0-.013.007-.027.007a.007.007,0,0,0-.007.007c-.007.007-.02.007-.027.013h0C375.173,62.167,374.5,66.467,374.5,71.707Z" transform="translate(-374.5 -61.7)"/>
    </g>
    <g id="XMLID_1_" transform="translate(237.237 587.224)">
      <path id="Path_1353" data-name="Path 1353" class="cls-4" d="M62.24,140.6c-.027.44-.04.9-.04,1.387,0,.42.007.827.027,1.207a15.338,15.338,0,0,0,.26,2.3h0c.14.667.313,1.067.513,1.067h0l1.627.407c-.453-.187-.807-2.347-.807-4.987s.353-4.78.8-4.98l-1.62.407h-.007a.126.126,0,0,0-.053.013c-.173.073-.327.46-.447,1.053q-.05.25-.1.56C62.32,139.493,62.273,140.02,62.24,140.6Z" transform="translate(-62.2 -137)"/>
    </g>
  </g>
</svg>
