<svg xmlns="http://www.w3.org/2000/svg" viewBox="-2235.6 4280.4 75 50"><defs><style>.a{fill:#8997a5;}.b{fill:#c4cbd2;}</style></defs><g transform="translate(0 -109)"><g transform="translate(-2546.1 4062)"><path class="a" d="M320.4,346.1H348v25H310.5V356A9.859,9.859,0,0,1,320.4,346.1Z"/><path class="a" d="M323,371.1l-6.2,6.3v-6.3Z"/><path class="b" d="M326.1,346.1l-6.2,6.3v-6.3Z"/><path class="b" d="M373,368l6.3,6.2V368Z"/><rect class="a" width="37.5" height="21.9" transform="translate(348 346.1)"/><rect class="b" width="36.7" height="3.1" transform="translate(348 349.2)"/><rect class="b" width="36.7" height="3.1" transform="translate(348 355.5)"/><rect class="b" width="36.7" height="3.1" transform="translate(348 361.7)"/><path class="a" d="M363.1,330.5H348v18.8h25v-8.8A9.881,9.881,0,0,0,363.1,330.5Z"/><path class="b" d="M329.8,327.4H348v18.8H319.9v-8.8A9.881,9.881,0,0,1,329.8,327.4Z"/><path class="a" d="M333.9,334.5l.1.3a2.137,2.137,0,0,0,1.7,1.2h.3l-.2.2a2.133,2.133,0,0,0-.6,2l.1.3-.3-.1a2.563,2.563,0,0,0-2.1,0l-.3.1.1-.3a2.417,2.417,0,0,0-.6-2l-.2-.2h.3a2.378,2.378,0,0,0,1.7-1.2Z"/><path class="a" d="M338.9,329.9l.1.3a2.137,2.137,0,0,0,1.7,1.2h.3l-.2.2a2.133,2.133,0,0,0-.6,2l.1.3-.3-.1a2.563,2.563,0,0,0-2.1,0l-.3.1.1-.3a2.417,2.417,0,0,0-.6-2l-.2-.2h.3a2.378,2.378,0,0,0,1.7-1.2Z"/><path class="a" d="M328.9,329.9l.1.3a2.137,2.137,0,0,0,1.7,1.2h.3l-.2.2a2.133,2.133,0,0,0-.6,2l.1.3-.3-.1a2.563,2.563,0,0,0-2.1,0l-.3.1.1-.3a2.417,2.417,0,0,0-.6-2l-.2-.2h.3a2.378,2.378,0,0,0,1.7-1.2Z"/><path class="a" d="M338.9,339.5l.1.3a2.137,2.137,0,0,0,1.7,1.2h.3l-.2.2a2.133,2.133,0,0,0-.6,2l.1.3-.3-.1a2.563,2.563,0,0,0-2.1,0l-.3.1.1-.3a2.417,2.417,0,0,0-.6-2l-.2-.2h.3a2.378,2.378,0,0,0,1.7-1.2Z"/><path class="a" d="M328.9,339.5l.1.3a2.137,2.137,0,0,0,1.7,1.2h.3l-.2.2a2.133,2.133,0,0,0-.6,2l.1.3-.3-.1a2.563,2.563,0,0,0-2.1,0l-.3.1.1-.3a2.417,2.417,0,0,0-.6-2l-.2-.2h.3a2.378,2.378,0,0,0,1.7-1.2Z"/><path class="b" d="M329.7,354.3l2.9,5.1,3,5.2H323.7l3-5.2Z"/><rect class="b" width="3.1" height="21.9" transform="translate(382.4 346.1)"/><path class="a" d="M360.5,346.1l6.3,6.3v-6.3Z"/></g></g></svg>