<svg xmlns="http://www.w3.org/2000/svg" viewBox="0 0 127.97 127.96"><defs><style>.cls-1{fill:#fff;}.cls-2{fill:#091440;}</style></defs><title>fixedFiniteSupply</title><g id="Layer_2" data-name="Layer 2"><g id="Layer_1-2" data-name="Layer 1"><circle class="cls-1" cx="63.95" cy="64.35" r="15.7"/><path class="cls-2" d="M64,72.2a15.71,15.71,0,0,1-15.2-11.78,15.45,15.45,0,0,0-.5,3.93,15.7,15.7,0,0,0,31.4,0,15.91,15.91,0,0,0-.49-3.93A15.72,15.72,0,0,1,64,72.2Z"/><path class="cls-2" d="M64,97.51A33.51,33.51,0,1,1,97.46,64,33.54,33.54,0,0,1,64,97.51Zm0-63.87A30.37,30.37,0,1,0,94.32,64,30.4,30.4,0,0,0,64,33.64Z"/><path class="cls-1" d="M64,112.32a48.31,48.31,0,0,1-24.27-6.53,1.57,1.57,0,1,1,1.58-2.71A45.18,45.18,0,0,0,64,109.18h1a1.57,1.57,0,0,1,.06,3.14Zm8-.68a1.57,1.57,0,0,1-.27-3.11A45.11,45.11,0,0,0,93.7,98a1.57,1.57,0,1,1,2.06,2.36,48.14,48.14,0,0,1-23.57,11.25ZM34.68,102a1.59,1.59,0,0,1-1-.34A48.4,48.4,0,0,1,18.5,80.43a1.57,1.57,0,1,1,2.95-1.06A45.29,45.29,0,0,0,35.66,99.23a1.57,1.57,0,0,1-1,2.79Zm65-6.27a1.57,1.57,0,0,1-1.2-2.59A44.94,44.94,0,0,0,108.6,71a1.57,1.57,0,0,1,3.1.48,48.16,48.16,0,0,1-10.84,23.75A1.57,1.57,0,0,1,99.66,95.75ZM18.09,74.69a1.58,1.58,0,0,1-1.54-1.26A48.78,48.78,0,0,1,15.63,64a48.26,48.26,0,0,1,2.93-16.61,1.57,1.57,0,0,1,3,1.08A45,45,0,0,0,18.77,64a45.63,45.63,0,0,0,.86,8.82,1.56,1.56,0,0,1-1.23,1.84Zm92.61-8.93a1.57,1.57,0,0,1-1.57-1.57V64a45.08,45.08,0,0,0-6.59-23.49,1.57,1.57,0,1,1,2.68-1.64,48.27,48.27,0,0,1,7,25.15v.19A1.57,1.57,0,0,1,110.7,65.76ZM22.94,43.11a1.59,1.59,0,0,1-.75-.2,1.57,1.57,0,0,1-.62-2.13A48.38,48.38,0,0,1,39.84,22.12a1.57,1.57,0,0,1,1.57,2.72A45.33,45.33,0,0,0,24.32,42.29,1.59,1.59,0,0,1,22.94,43.11Zm76.84-7.58A1.59,1.59,0,0,1,98.57,35,45.08,45.08,0,0,0,78.42,21.19a1.57,1.57,0,0,1,1-3A48.28,48.28,0,0,1,101,33a1.57,1.57,0,0,1-.19,2.21A1.62,1.62,0,0,1,99.78,35.53ZM47,22a1.55,1.55,0,0,1-1.46-1,1.57,1.57,0,0,1,.89-2A48.18,48.18,0,0,1,64,15.68a49.37,49.37,0,0,1,8.43.73,1.57,1.57,0,0,1-.54,3.1A45.36,45.36,0,0,0,47.53,21.9,1.63,1.63,0,0,1,47,22Z"/><path class="cls-1" d="M65,126.46a1.56,1.56,0,0,1,1.51-1.63h0a1.56,1.56,0,0,1,1.63,1.5h0A1.57,1.57,0,0,1,66.64,128h-.06A1.57,1.57,0,0,1,65,126.46Zm-5.44,1.41h0a1.57,1.57,0,0,1-1.46-1.67h0a1.57,1.57,0,0,1,1.67-1.46h0a1.56,1.56,0,0,1,1.46,1.67h0a1.56,1.56,0,0,1-1.56,1.46h-.11ZM71.9,126a1.56,1.56,0,0,1,1.31-1.79h0A1.56,1.56,0,0,1,75,125.49h0a1.57,1.57,0,0,1-1.31,1.79h0l-.23,0h0A1.57,1.57,0,0,1,71.9,126Zm-19.35,1h0a1.59,1.59,0,0,1-1.27-1.83h0a1.57,1.57,0,0,1,1.83-1.26h0a1.57,1.57,0,0,1,1.26,1.83h0A1.56,1.56,0,0,1,52.83,127h0Zm26.14-2.29a1.56,1.56,0,0,1,1.1-1.92h0a1.57,1.57,0,0,1,1.92,1.1h0a1.58,1.58,0,0,1-1.11,1.93h0a1.37,1.37,0,0,1-.4,0h0A1.57,1.57,0,0,1,78.69,124.72Zm-33,.65a1.57,1.57,0,0,1-1.06-2h0a1.56,1.56,0,0,1,2-1.06h0a1.57,1.57,0,0,1,1.06,2h0a1.57,1.57,0,0,1-1.51,1.12h0A1.67,1.67,0,0,1,45.67,125.37Zm39.63-2.64a1.57,1.57,0,0,1,.89-2h0a1.56,1.56,0,0,1,2,.89h0a1.57,1.57,0,0,1-.88,2h0a1.49,1.49,0,0,1-.58.11h0A1.58,1.58,0,0,1,85.3,122.73ZM39,123h0a1.57,1.57,0,0,1-.84-2.06h0a1.58,1.58,0,0,1,2.06-.84h0a1.57,1.57,0,0,1,.83,2.06h0a1.56,1.56,0,0,1-1.44,1h0A1.46,1.46,0,0,1,39,123Zm52.64-3a1.57,1.57,0,0,1,.65-2.12h0a1.57,1.57,0,0,1,2.13.65h0a1.57,1.57,0,0,1-.66,2.12h0a1.46,1.46,0,0,1-.73.18h0A1.57,1.57,0,0,1,91.65,120Zm-59-.15a1.57,1.57,0,0,1-.61-2.14h0a1.57,1.57,0,0,1,2.14-.6h0a1.56,1.56,0,0,1,.6,2.14h0a1.57,1.57,0,0,1-1.37.8h0A1.49,1.49,0,0,1,32.66,119.86Zm65-3.26a1.56,1.56,0,0,1,.42-2.18h0a1.57,1.57,0,0,1,2.18.42h0a1.57,1.57,0,0,1-.42,2.18h0a1.59,1.59,0,0,1-.88.27h0A1.56,1.56,0,0,1,97.66,116.6Zm-71-.54h0a1.56,1.56,0,0,1-.36-2.19h0a1.57,1.57,0,0,1,2.19-.36h0a1.58,1.58,0,0,1,.36,2.19h0a1.57,1.57,0,0,1-1.28.66h0A1.55,1.55,0,0,1,26.69,116.06Zm76.56-3.51a1.57,1.57,0,0,1,.18-2.21h0a1.57,1.57,0,0,1,2.21.18h0a1.56,1.56,0,0,1-.17,2.21h0a1.59,1.59,0,0,1-1,.38h0A1.57,1.57,0,0,1,103.25,112.55Zm-82.08-.92a1.59,1.59,0,0,1-.12-2.22h0a1.58,1.58,0,0,1,2.22-.12h0a1.57,1.57,0,0,1,.12,2.22h0a1.55,1.55,0,0,1-1.17.52h0A1.57,1.57,0,0,1,21.17,111.63Zm87.2-3.71a1.58,1.58,0,0,1-.07-2.22h0a1.58,1.58,0,0,1,2.22-.07h0a1.58,1.58,0,0,1,.07,2.22h0a1.57,1.57,0,0,1-1.15.49h0A1.57,1.57,0,0,1,108.37,107.92Zm-92.19-1.3a1.58,1.58,0,0,1,.12-2.22h0a1.58,1.58,0,0,1,2.22.13h0a1.58,1.58,0,0,1-.12,2.22h0a1.61,1.61,0,0,1-1,.39h0A1.55,1.55,0,0,1,16.18,106.62ZM113,102.75a1.57,1.57,0,0,1-.31-2.2h0a1.57,1.57,0,0,1,2.2-.31h0a1.58,1.58,0,0,1,.31,2.2h0a1.58,1.58,0,0,1-1.26.63h0A1.57,1.57,0,0,1,113,102.75ZM11.76,101.09a1.58,1.58,0,0,1,.37-2.19h0a1.57,1.57,0,0,1,2.19.37h0a1.57,1.57,0,0,1-.37,2.19h0a1.59,1.59,0,0,1-.91.29h0A1.57,1.57,0,0,1,11.76,101.09Zm105.17-4a1.56,1.56,0,0,1-.55-2.15h0a1.57,1.57,0,0,1,2.15-.55h0a1.57,1.57,0,0,1,.55,2.15h0a1.56,1.56,0,0,1-1.35.77h0A1.56,1.56,0,0,1,116.93,97.11ZM8,95.11H8A1.57,1.57,0,0,1,8.59,93h0a1.58,1.58,0,0,1,2.14.61h0a1.56,1.56,0,0,1-.61,2.13h0a1.49,1.49,0,0,1-.76.2h0A1.59,1.59,0,0,1,8,95.11Zm112.28-4a1.57,1.57,0,0,1-.78-2.08h0a1.56,1.56,0,0,1,2.07-.78h0a1.57,1.57,0,0,1,.79,2.08h0a1.55,1.55,0,0,1-1.43.93h0A1.49,1.49,0,0,1,120.26,91.07ZM4.89,88.74a1.56,1.56,0,0,1,.84-2h0a1.56,1.56,0,0,1,2.05.84h0a1.56,1.56,0,0,1-.84,2h0a1.61,1.61,0,0,1-.6.12h0A1.56,1.56,0,0,1,4.89,88.74Zm118-4a1.55,1.55,0,0,1-1-2h0a1.56,1.56,0,0,1,2-1h0a1.57,1.57,0,0,1,1,2h0a1.59,1.59,0,0,1-1.5,1.09h0A1.61,1.61,0,0,1,122.91,84.69ZM2.52,82.07h0a1.57,1.57,0,0,1,1.06-1.95h0a1.58,1.58,0,0,1,2,1.07h0a1.58,1.58,0,0,1-1.06,2h0A1.74,1.74,0,0,1,4,83.2H4A1.57,1.57,0,0,1,2.52,82.07Zm122.31-4a1.57,1.57,0,0,1-1.23-1.85h0A1.58,1.58,0,0,1,125.45,75h0a1.59,1.59,0,0,1,1.23,1.86h0a1.57,1.57,0,0,1-1.54,1.25h0A1.63,1.63,0,0,1,124.83,78.06ZM.91,75.18a1.56,1.56,0,0,1,1.27-1.82h0A1.57,1.57,0,0,1,4,74.64H4a1.56,1.56,0,0,1-1.28,1.81h0a1.24,1.24,0,0,1-.27,0h0A1.56,1.56,0,0,1,.91,75.18ZM126,71.26a1.57,1.57,0,0,1-1.42-1.71h0a1.57,1.57,0,0,1,1.7-1.42h0a1.56,1.56,0,0,1,1.42,1.7h0a1.56,1.56,0,0,1-1.56,1.43H126ZM.06,68.16a1.58,1.58,0,0,1,1.47-1.67h0A1.57,1.57,0,0,1,3.2,68h0a1.57,1.57,0,0,1-1.47,1.67h-.1A1.57,1.57,0,0,1,.06,68.16ZM124.83,64a1.57,1.57,0,0,1,1.57-1.57h0A1.57,1.57,0,0,1,128,64h0a1.57,1.57,0,0,1-1.57,1.57h0A1.57,1.57,0,0,1,124.83,64ZM1.49,62.72A1.57,1.57,0,0,1,0,61.08H0a1.56,1.56,0,0,1,1.64-1.49h0a1.56,1.56,0,0,1,1.49,1.64h0a1.56,1.56,0,0,1-1.56,1.49H1.49Zm123-5.44a1.57,1.57,0,0,1,1.39-1.73h0a1.56,1.56,0,0,1,1.73,1.39h0a1.56,1.56,0,0,1-1.39,1.73H126A1.58,1.58,0,0,1,124.46,57.28ZM2,55.84A1.57,1.57,0,0,1,.7,54.05h0a1.58,1.58,0,0,1,1.79-1.32h0a1.57,1.57,0,0,1,1.31,1.8h0a1.58,1.58,0,0,1-1.55,1.33h0Zm121.35-5.2a1.57,1.57,0,0,1,1.19-1.87h0A1.57,1.57,0,0,1,126.42,50h0a1.57,1.57,0,0,1-1.19,1.87h0a1.32,1.32,0,0,1-.34,0h0A1.57,1.57,0,0,1,123.36,50.64ZM3.28,49.05a1.57,1.57,0,0,1-1.1-1.93h0A1.57,1.57,0,0,1,4.11,46h0A1.57,1.57,0,0,1,5.21,48h0A1.57,1.57,0,0,1,3.7,49.11h0A1.52,1.52,0,0,1,3.28,49.05Zm118.25-4.88a1.57,1.57,0,0,1,1-2h0a1.57,1.57,0,0,1,2,1h0a1.56,1.56,0,0,1-1,2h0a1.52,1.52,0,0,1-.51.09h0A1.56,1.56,0,0,1,121.53,44.17ZM5.3,42.45a1.57,1.57,0,0,1-.88-2h0a1.57,1.57,0,0,1,2-.88h0a1.58,1.58,0,0,1,.88,2h0a1.59,1.59,0,0,1-1.46,1h0A1.46,1.46,0,0,1,5.3,42.45ZM119,37.94a1.56,1.56,0,0,1,.75-2.09h0a1.56,1.56,0,0,1,2.09.74h0a1.57,1.57,0,0,1-.75,2.09h0a1.43,1.43,0,0,1-.67.15h0A1.57,1.57,0,0,1,119,37.94ZM8,36.11A1.56,1.56,0,0,1,7.39,34h0a1.56,1.56,0,0,1,2.12-.65h0a1.56,1.56,0,0,1,.65,2.12h0a1.57,1.57,0,0,1-1.39.83h0A1.58,1.58,0,0,1,8,36.11ZM115.77,32a1.57,1.57,0,0,1,.5-2.16h0a1.57,1.57,0,0,1,2.16.5h0a1.58,1.58,0,0,1-.5,2.17h0a1.68,1.68,0,0,1-.83.23h0A1.55,1.55,0,0,1,115.77,32ZM11.46,30.12a1.56,1.56,0,0,1-.41-2.18h0a1.56,1.56,0,0,1,2.18-.41h0a1.56,1.56,0,0,1,.41,2.18h0a1.56,1.56,0,0,1-1.29.68h0A1.6,1.6,0,0,1,11.46,30.12ZM111.91,26.5h0a1.56,1.56,0,0,1,.26-2.2h0a1.58,1.58,0,0,1,2.21.27h0a1.57,1.57,0,0,1-.27,2.2h0a1.55,1.55,0,0,1-1,.34h0A1.56,1.56,0,0,1,111.91,26.5Zm-96.39-2a1.59,1.59,0,0,1-.17-2.22h0a1.58,1.58,0,0,1,2.22-.17h0a1.58,1.58,0,0,1,.17,2.22h0a1.56,1.56,0,0,1-1.19.54h0A1.59,1.59,0,0,1,15.52,24.54Zm92-3.1a1.57,1.57,0,0,1,0-2.22h0a1.58,1.58,0,0,1,2.22,0h0a1.58,1.58,0,0,1,0,2.22h0a1.56,1.56,0,0,1-1.1.44h0A1.55,1.55,0,0,1,107.48,21.44Zm-87.3-2a1.56,1.56,0,0,1,.07-2.21h0a1.58,1.58,0,0,1,2.22.08h0a1.57,1.57,0,0,1-.08,2.22h0a1.56,1.56,0,0,1-1.07.42h0A1.56,1.56,0,0,1,20.18,19.43Zm82.34-2.53h0a1.57,1.57,0,0,1-.22-2.21h0a1.57,1.57,0,0,1,2.21-.22h0a1.57,1.57,0,0,1,.22,2.21h0a1.56,1.56,0,0,1-1.22.57h0A1.54,1.54,0,0,1,102.52,16.9Zm-77.16-2a1.56,1.56,0,0,1,.32-2.19h0a1.57,1.57,0,0,1,2.2.32h0a1.57,1.57,0,0,1-.32,2.19h0a1.56,1.56,0,0,1-.94.31h0A1.55,1.55,0,0,1,25.36,14.87Zm71.73-1.95h0a1.56,1.56,0,0,1-.46-2.17h0a1.57,1.57,0,0,1,2.17-.46h0a1.57,1.57,0,0,1,.46,2.17h0a1.55,1.55,0,0,1-1.32.72h0A1.57,1.57,0,0,1,97.09,12.92ZM31,10.91a1.57,1.57,0,0,1,.56-2.15h0a1.56,1.56,0,0,1,2.14.56h0a1.57,1.57,0,0,1-.56,2.15h0a1.61,1.61,0,0,1-.79.21h0A1.55,1.55,0,0,1,31,10.91ZM91.26,9.57a1.56,1.56,0,0,1-.7-2.1h0a1.57,1.57,0,0,1,2.11-.7h0a1.57,1.57,0,0,1,.69,2.11h0a1.56,1.56,0,0,1-1.4.86h0A1.45,1.45,0,0,1,91.26,9.57Zm-54.19-2a1.56,1.56,0,0,1,.8-2.07h0a1.57,1.57,0,0,1,2.07.79h0a1.58,1.58,0,0,1-.79,2.08h0a1.63,1.63,0,0,1-.64.13h0A1.57,1.57,0,0,1,37.07,7.59Zm48-.7a1.57,1.57,0,0,1-.93-2h0a1.57,1.57,0,0,1,2-.92h0a1.56,1.56,0,0,1,.92,2h0a1.56,1.56,0,0,1-1.47,1h0A1.44,1.44,0,0,1,85.09,6.89ZM43.46,5a1.56,1.56,0,0,1,1-2h0a1.56,1.56,0,0,1,2,1h0a1.56,1.56,0,0,1-1,2h0a1.49,1.49,0,0,1-.47.07h0A1.57,1.57,0,0,1,43.46,5Zm35.2-.06A1.57,1.57,0,0,1,77.51,3h0a1.57,1.57,0,0,1,1.9-1.15h0a1.57,1.57,0,0,1,1.15,1.9h0A1.58,1.58,0,0,1,79,5h0A1.58,1.58,0,0,1,78.66,4.91ZM50.1,3.07a1.56,1.56,0,0,1,1.24-1.84h0a1.55,1.55,0,0,1,1.84,1.23h0A1.56,1.56,0,0,1,52,4.3h0a1.55,1.55,0,0,1-.31,0h0A1.57,1.57,0,0,1,50.1,3.07Zm21.95.59h0A1.56,1.56,0,0,1,70.7,1.89h0A1.57,1.57,0,0,1,72.46.54h0a1.58,1.58,0,0,1,1.35,1.77h0a1.57,1.57,0,0,1-1.56,1.36h-.2ZM56.91,1.93A1.59,1.59,0,0,1,58.34.22h0A1.58,1.58,0,0,1,60,1.65h0a1.57,1.57,0,0,1-1.43,1.7h-.14A1.57,1.57,0,0,1,56.91,1.93Zm8.43,1.21a1.56,1.56,0,0,1-1.53-1.61h0A1.56,1.56,0,0,1,65.41,0h0a1.56,1.56,0,0,1,1.53,1.6h0a1.56,1.56,0,0,1-1.57,1.54h0Z"/><path class="cls-2" d="M65,126.46a1.56,1.56,0,0,1,1.51-1.63h0a1.56,1.56,0,0,1,1.63,1.5h0A1.57,1.57,0,0,1,66.64,128h-.06A1.57,1.57,0,0,1,65,126.46Zm-5.44,1.41h0a1.57,1.57,0,0,1-1.46-1.67h0a1.57,1.57,0,0,1,1.67-1.46h0a1.56,1.56,0,0,1,1.46,1.67h0a1.56,1.56,0,0,1-1.56,1.46h-.11ZM71.9,126a1.56,1.56,0,0,1,1.31-1.79h0A1.56,1.56,0,0,1,75,125.49h0a1.57,1.57,0,0,1-1.31,1.79h0l-.23,0h0A1.57,1.57,0,0,1,71.9,126Zm-19.35,1h0a1.59,1.59,0,0,1-1.27-1.83h0a1.57,1.57,0,0,1,1.83-1.26h0a1.57,1.57,0,0,1,1.26,1.83h0A1.56,1.56,0,0,1,52.83,127h0Zm26.14-2.29a1.56,1.56,0,0,1,1.1-1.92h0a1.57,1.57,0,0,1,1.92,1.1h0a1.58,1.58,0,0,1-1.11,1.93h0a1.37,1.37,0,0,1-.4,0h0A1.57,1.57,0,0,1,78.69,124.72Zm-33,.65a1.57,1.57,0,0,1-1.06-2h0a1.56,1.56,0,0,1,2-1.06h0a1.57,1.57,0,0,1,1.06,2h0a1.57,1.57,0,0,1-1.51,1.12h0A1.67,1.67,0,0,1,45.67,125.37Zm39.63-2.64a1.57,1.57,0,0,1,.89-2h0a1.56,1.56,0,0,1,2,.89h0a1.57,1.57,0,0,1-.88,2h0a1.49,1.49,0,0,1-.58.11h0A1.58,1.58,0,0,1,85.3,122.73ZM39,123h0a1.57,1.57,0,0,1-.84-2.06h0a1.58,1.58,0,0,1,2.06-.84h0a1.57,1.57,0,0,1,.83,2.06h0a1.56,1.56,0,0,1-1.44,1h0A1.46,1.46,0,0,1,39,123Zm52.64-3a1.57,1.57,0,0,1,.65-2.12h0a1.57,1.57,0,0,1,2.13.65h0a1.57,1.57,0,0,1-.66,2.12h0a1.46,1.46,0,0,1-.73.18h0A1.57,1.57,0,0,1,91.65,120Zm-59-.15a1.57,1.57,0,0,1-.61-2.14h0a1.57,1.57,0,0,1,2.14-.6h0a1.56,1.56,0,0,1,.6,2.14h0a1.57,1.57,0,0,1-1.37.8h0A1.49,1.49,0,0,1,32.66,119.86Zm65-3.26a1.56,1.56,0,0,1,.42-2.18h0a1.57,1.57,0,0,1,2.18.42h0a1.57,1.57,0,0,1-.42,2.18h0a1.59,1.59,0,0,1-.88.27h0A1.56,1.56,0,0,1,97.66,116.6Zm-71-.54h0a1.56,1.56,0,0,1-.36-2.19h0a1.57,1.57,0,0,1,2.19-.36h0a1.58,1.58,0,0,1,.36,2.19h0a1.57,1.57,0,0,1-1.28.66h0A1.55,1.55,0,0,1,26.69,116.06Zm76.56-3.51a1.57,1.57,0,0,1,.18-2.21h0a1.57,1.57,0,0,1,2.21.18h0a1.56,1.56,0,0,1-.17,2.21h0a1.59,1.59,0,0,1-1,.38h0A1.57,1.57,0,0,1,103.25,112.55Zm-82.08-.92a1.59,1.59,0,0,1-.12-2.22h0a1.58,1.58,0,0,1,2.22-.12h0a1.57,1.57,0,0,1,.12,2.22h0a1.55,1.55,0,0,1-1.17.52h0A1.57,1.57,0,0,1,21.17,111.63Zm87.2-3.71a1.58,1.58,0,0,1-.07-2.22h0a1.58,1.58,0,0,1,2.22-.07h0a1.58,1.58,0,0,1,.07,2.22h0a1.57,1.57,0,0,1-1.15.49h0A1.57,1.57,0,0,1,108.37,107.92Zm-92.19-1.3a1.58,1.58,0,0,1,.12-2.22h0a1.58,1.58,0,0,1,2.22.13h0a1.58,1.58,0,0,1-.12,2.22h0a1.61,1.61,0,0,1-1,.39h0A1.55,1.55,0,0,1,16.18,106.62ZM113,102.75a1.57,1.57,0,0,1-.31-2.2h0a1.57,1.57,0,0,1,2.2-.31h0a1.58,1.58,0,0,1,.31,2.2h0a1.58,1.58,0,0,1-1.26.63h0A1.57,1.57,0,0,1,113,102.75ZM11.76,101.09a1.58,1.58,0,0,1,.37-2.19h0a1.57,1.57,0,0,1,2.19.37h0a1.57,1.57,0,0,1-.37,2.19h0a1.59,1.59,0,0,1-.91.29h0A1.57,1.57,0,0,1,11.76,101.09Zm105.17-4a1.56,1.56,0,0,1-.55-2.15h0a1.57,1.57,0,0,1,2.15-.55h0a1.57,1.57,0,0,1,.55,2.15h0a1.56,1.56,0,0,1-1.35.77h0A1.56,1.56,0,0,1,116.93,97.11ZM8,95.11H8A1.57,1.57,0,0,1,8.59,93h0a1.58,1.58,0,0,1,2.14.61h0a1.56,1.56,0,0,1-.61,2.13h0a1.49,1.49,0,0,1-.76.2h0A1.59,1.59,0,0,1,8,95.11Zm112.28-4a1.57,1.57,0,0,1-.78-2.08h0a1.56,1.56,0,0,1,2.07-.78h0a1.57,1.57,0,0,1,.79,2.08h0a1.55,1.55,0,0,1-1.43.93h0A1.49,1.49,0,0,1,120.26,91.07ZM4.89,88.74a1.56,1.56,0,0,1,.84-2h0a1.56,1.56,0,0,1,2.05.84h0a1.56,1.56,0,0,1-.84,2h0a1.61,1.61,0,0,1-.6.12h0A1.56,1.56,0,0,1,4.89,88.74Zm118-4a1.55,1.55,0,0,1-1-2h0a1.56,1.56,0,0,1,2-1h0a1.57,1.57,0,0,1,1,2h0a1.59,1.59,0,0,1-1.5,1.09h0A1.61,1.61,0,0,1,122.91,84.69ZM2.52,82.07h0a1.57,1.57,0,0,1,1.06-1.95h0a1.58,1.58,0,0,1,2,1.07h0a1.58,1.58,0,0,1-1.06,2h0A1.74,1.74,0,0,1,4,83.2H4A1.57,1.57,0,0,1,2.52,82.07Zm122.31-4a1.57,1.57,0,0,1-1.23-1.85h0A1.58,1.58,0,0,1,125.45,75h0a1.59,1.59,0,0,1,1.23,1.86h0a1.57,1.57,0,0,1-1.54,1.25h0A1.63,1.63,0,0,1,124.83,78.06ZM.91,75.18a1.56,1.56,0,0,1,1.27-1.82h0A1.57,1.57,0,0,1,4,74.64H4a1.56,1.56,0,0,1-1.28,1.81h0a1.24,1.24,0,0,1-.27,0h0A1.56,1.56,0,0,1,.91,75.18ZM126,71.26a1.57,1.57,0,0,1-1.42-1.71h0a1.57,1.57,0,0,1,1.7-1.42h0a1.56,1.56,0,0,1,1.42,1.7h0a1.56,1.56,0,0,1-1.56,1.43H126ZM.06,68.16a1.58,1.58,0,0,1,1.47-1.67h0A1.57,1.57,0,0,1,3.2,68h0a1.57,1.57,0,0,1-1.47,1.67h-.1A1.57,1.57,0,0,1,.06,68.16ZM124.83,64a1.57,1.57,0,0,1,1.57-1.57h0A1.57,1.57,0,0,1,128,64h0a1.57,1.57,0,0,1-1.57,1.57h0A1.57,1.57,0,0,1,124.83,64ZM1.49,62.72A1.57,1.57,0,0,1,0,61.08H0a1.56,1.56,0,0,1,1.64-1.49h0a1.56,1.56,0,0,1,1.49,1.64h0a1.56,1.56,0,0,1-1.56,1.49H1.49Zm123-5.44a1.57,1.57,0,0,1,1.39-1.73h0a1.56,1.56,0,0,1,1.73,1.39h0a1.56,1.56,0,0,1-1.39,1.73H126A1.58,1.58,0,0,1,124.46,57.28ZM2,55.84A1.57,1.57,0,0,1,.7,54.05h0a1.58,1.58,0,0,1,1.79-1.32h0a1.57,1.57,0,0,1,1.31,1.8h0a1.58,1.58,0,0,1-1.55,1.33h0Zm121.35-5.2a1.57,1.57,0,0,1,1.19-1.87h0A1.57,1.57,0,0,1,126.42,50h0a1.57,1.57,0,0,1-1.19,1.87h0a1.32,1.32,0,0,1-.34,0h0A1.57,1.57,0,0,1,123.36,50.64ZM3.28,49.05a1.57,1.57,0,0,1-1.1-1.93h0A1.57,1.57,0,0,1,4.11,46h0A1.57,1.57,0,0,1,5.21,48h0A1.57,1.57,0,0,1,3.7,49.11h0A1.52,1.52,0,0,1,3.28,49.05Zm118.25-4.88a1.57,1.57,0,0,1,1-2h0a1.57,1.57,0,0,1,2,1h0a1.56,1.56,0,0,1-1,2h0a1.52,1.52,0,0,1-.51.09h0A1.56,1.56,0,0,1,121.53,44.17ZM5.3,42.45a1.57,1.57,0,0,1-.88-2h0a1.57,1.57,0,0,1,2-.88h0a1.58,1.58,0,0,1,.88,2h0a1.59,1.59,0,0,1-1.46,1h0A1.46,1.46,0,0,1,5.3,42.45ZM119,37.94a1.56,1.56,0,0,1,.75-2.09h0a1.56,1.56,0,0,1,2.09.74h0a1.57,1.57,0,0,1-.75,2.09h0a1.43,1.43,0,0,1-.67.15h0A1.57,1.57,0,0,1,119,37.94ZM8,36.11A1.56,1.56,0,0,1,7.39,34h0a1.56,1.56,0,0,1,2.12-.65h0a1.56,1.56,0,0,1,.65,2.12h0a1.57,1.57,0,0,1-1.39.83h0A1.58,1.58,0,0,1,8,36.11ZM115.77,32a1.57,1.57,0,0,1,.5-2.16h0a1.57,1.57,0,0,1,2.16.5h0a1.58,1.58,0,0,1-.5,2.17h0a1.68,1.68,0,0,1-.83.23h0A1.55,1.55,0,0,1,115.77,32ZM11.46,30.12a1.56,1.56,0,0,1-.41-2.18h0a1.56,1.56,0,0,1,2.18-.41h0a1.56,1.56,0,0,1,.41,2.18h0a1.56,1.56,0,0,1-1.29.68h0A1.6,1.6,0,0,1,11.46,30.12ZM111.91,26.5h0a1.56,1.56,0,0,1,.26-2.2h0a1.58,1.58,0,0,1,2.21.27h0a1.57,1.57,0,0,1-.27,2.2h0a1.55,1.55,0,0,1-1,.34h0A1.56,1.56,0,0,1,111.91,26.5Zm-96.39-2a1.59,1.59,0,0,1-.17-2.22h0a1.58,1.58,0,0,1,2.22-.17h0a1.58,1.58,0,0,1,.17,2.22h0a1.56,1.56,0,0,1-1.19.54h0A1.59,1.59,0,0,1,15.52,24.54Zm92-3.1a1.57,1.57,0,0,1,0-2.22h0a1.58,1.58,0,0,1,2.22,0h0a1.58,1.58,0,0,1,0,2.22h0a1.56,1.56,0,0,1-1.1.44h0A1.55,1.55,0,0,1,107.48,21.44Zm-87.3-2a1.56,1.56,0,0,1,.07-2.21h0a1.58,1.58,0,0,1,2.22.08h0a1.57,1.57,0,0,1-.08,2.22h0a1.56,1.56,0,0,1-1.07.42h0A1.56,1.56,0,0,1,20.18,19.43Zm82.34-2.53h0a1.57,1.57,0,0,1-.22-2.21h0a1.57,1.57,0,0,1,2.21-.22h0a1.57,1.57,0,0,1,.22,2.21h0a1.56,1.56,0,0,1-1.22.57h0A1.54,1.54,0,0,1,102.52,16.9Zm-77.16-2a1.56,1.56,0,0,1,.32-2.19h0a1.57,1.57,0,0,1,2.2.32h0a1.57,1.57,0,0,1-.32,2.19h0a1.56,1.56,0,0,1-.94.31h0A1.55,1.55,0,0,1,25.36,14.87Zm71.73-1.95h0a1.56,1.56,0,0,1-.46-2.17h0a1.57,1.57,0,0,1,2.17-.46h0a1.57,1.57,0,0,1,.46,2.17h0a1.55,1.55,0,0,1-1.32.72h0A1.57,1.57,0,0,1,97.09,12.92ZM31,10.91a1.57,1.57,0,0,1,.56-2.15h0a1.56,1.56,0,0,1,2.14.56h0a1.57,1.57,0,0,1-.56,2.15h0a1.61,1.61,0,0,1-.79.21h0A1.55,1.55,0,0,1,31,10.91ZM91.26,9.57a1.56,1.56,0,0,1-.7-2.1h0a1.57,1.57,0,0,1,2.11-.7h0a1.57,1.57,0,0,1,.69,2.11h0a1.56,1.56,0,0,1-1.4.86h0A1.45,1.45,0,0,1,91.26,9.57Zm-54.19-2a1.56,1.56,0,0,1,.8-2.07h0a1.57,1.57,0,0,1,2.07.79h0a1.58,1.58,0,0,1-.79,2.08h0a1.63,1.63,0,0,1-.64.13h0A1.57,1.57,0,0,1,37.07,7.59Zm48-.7a1.57,1.57,0,0,1-.93-2h0a1.57,1.57,0,0,1,2-.92h0a1.56,1.56,0,0,1,.92,2h0a1.56,1.56,0,0,1-1.47,1h0A1.44,1.44,0,0,1,85.09,6.89ZM43.46,5a1.56,1.56,0,0,1,1-2h0a1.56,1.56,0,0,1,2,1h0a1.56,1.56,0,0,1-1,2h0a1.49,1.49,0,0,1-.47.07h0A1.57,1.57,0,0,1,43.46,5Zm35.2-.06A1.57,1.57,0,0,1,77.51,3h0a1.57,1.57,0,0,1,1.9-1.15h0a1.57,1.57,0,0,1,1.15,1.9h0A1.58,1.58,0,0,1,79,5h0A1.58,1.58,0,0,1,78.66,4.91ZM50.1,3.07a1.56,1.56,0,0,1,1.24-1.84h0a1.55,1.55,0,0,1,1.84,1.23h0A1.56,1.56,0,0,1,52,4.3h0a1.55,1.55,0,0,1-.31,0h0A1.57,1.57,0,0,1,50.1,3.07Zm21.95.59h0A1.56,1.56,0,0,1,70.7,1.89h0A1.57,1.57,0,0,1,72.46.54h0a1.58,1.58,0,0,1,1.35,1.77h0a1.57,1.57,0,0,1-1.56,1.36h-.2ZM56.91,1.93A1.59,1.59,0,0,1,58.34.22h0A1.58,1.58,0,0,1,60,1.65h0a1.57,1.57,0,0,1-1.43,1.7h-.14A1.57,1.57,0,0,1,56.91,1.93Zm8.43,1.21a1.56,1.56,0,0,1-1.53-1.61h0A1.56,1.56,0,0,1,65.41,0h0a1.56,1.56,0,0,1,1.53,1.6h0a1.56,1.56,0,0,1-1.57,1.54h0Z"/></g></g></svg>