<svg xmlns="http://www.w3.org/2000/svg" viewBox="0 0 139.13 118.81"><defs><style>.cls-1{fill:#091440;}.cls-2{fill:#fff;}</style></defs><title>universalFungibility</title><g id="Layer_2" data-name="Layer 2"><g id="Layer_1-2" data-name="Layer 1"><path class="cls-1" d="M69.56,118.81a58.88,58.88,0,0,1-35.82-12A59.89,59.89,0,0,1,12.62,76.38a.84.84,0,0,1,1.61-.48,58.16,58.16,0,0,0,20.52,29.56A57.74,57.74,0,0,0,127.29,59.4a.84.84,0,0,1,1.68,0A59.48,59.48,0,0,1,69.56,118.81Z"/><path class="cls-1" d="M11,60.24a.85.85,0,0,1-.84-.84A59.47,59.47,0,0,1,69.56,0a58.88,58.88,0,0,1,35.83,12,60,60,0,0,1,21.12,30.42.84.84,0,0,1-1.61.48,58.16,58.16,0,0,0-20.52-29.56A57.73,57.73,0,0,0,11.83,59.4.84.84,0,0,1,11,60.24Z"/><path class="cls-1" d="M125.7,43.51a.85.85,0,0,1-.35-.08l-3.79-1.77a.83.83,0,0,1-.4-1.11.84.84,0,0,1,1.11-.41l3,1.42,1.41-3a.84.84,0,0,1,1.52.71L126.46,43A.83.83,0,0,1,125.7,43.51Z"/><path class="cls-1" d="M11.66,80.76a.92.92,0,0,1-.36-.07.84.84,0,0,1-.4-1.12l1.76-3.79a.84.84,0,0,1,1.12-.4l3.79,1.77a.83.83,0,1,1-.71,1.51l-3-1.41-1.42,3A.82.82,0,0,1,11.66,80.76Z"/><rect class="cls-1" x="29.82" y="38.49" width="70.94" height="33.47"/><rect class="cls-2" x="38.19" y="46.85" width="71.12" height="33.47"/><circle class="cls-1" cx="73.75" cy="63.59" r="8.37"/><circle class="cls-1" cx="57.01" cy="63.59" r="4.18"/><circle class="cls-1" cx="90.48" cy="63.59" r="4.18"/><path class="cls-2" d="M10.82,48.58A10.82,10.82,0,1,0,21.64,59.4,10.82,10.82,0,0,0,10.82,48.58Z"/><polygon class="cls-1" points="10.82 55.25 13.22 59.4 15.61 63.55 10.82 63.55 6.03 63.55 8.42 59.4 10.82 55.25"/><path class="cls-2" d="M128.31,48.58A10.82,10.82,0,1,0,139.13,59.4,10.82,10.82,0,0,0,128.31,48.58Z"/><rect class="cls-1" x="124.03" y="55.13" width="8.55" height="8.55"/></g></g></svg>