<svg xmlns="http://www.w3.org/2000/svg" viewBox="0 0 134.25 101.53"><defs><style>.cls-1{fill:#fff;}.cls-2{fill:#091440;}</style></defs><title>multiStakeholderInclusivity</title><g id="Layer_2" data-name="Layer 2"><g id="Layer_1-2" data-name="Layer 1"><path class="cls-1" d="M134.24,44.18V36.42a7.77,7.77,0,0,0-7.76,7.76h0v11a1,1,0,0,1-1.94,0h0V20a3.88,3.88,0,0,0-7.75-.35V40.53h0a1,1,0,0,1-1.94,0v-24h0a3.89,3.89,0,0,0-7.77,0h0v24h0a1,1,0,0,1-1.94,0V19.08a3.88,3.88,0,1,0-7.76,0h0V40.53a1,1,0,1,1-1.93,0h0V25.64a3.88,3.88,0,1,0-7.76,0h0V41.52l0,26.37,0,33.64h36.87V72.25h.06a9.65,9.65,0,0,0,9.65-9.64Z"/><path class="cls-1" d="M0,56.87V49.11a7.77,7.77,0,0,1,7.77,7.76h0v11a1,1,0,1,0,1.94,0h0V32.66a3.88,3.88,0,0,1,7.75-.36V53.22h0a1,1,0,0,0,1,1,1,1,0,0,0,1-1v-24h0a3.88,3.88,0,1,1,7.76,0h0v24h0a1,1,0,1,0,1.94,0V31.78a3.89,3.89,0,1,1,7.77,0h0V53.23a1,1,0,1,0,1.94,0h0V38.33a3.88,3.88,0,1,1,7.76,0h0v63.19H9.7V84.94h0A9.65,9.65,0,0,1,0,75.3Z"/><path class="cls-2" d="M99.63,31.49V23.73a7.76,7.76,0,0,0-7.77,7.76h0v11a1,1,0,0,1-1.94,0h0V7.27a3.88,3.88,0,0,0-7.75-.35V27.84h0a1,1,0,0,1-2,0v-24h0a3.88,3.88,0,0,0-7.76,0h0v24h0a1,1,0,0,1-1.94,0V6.39a3.89,3.89,0,0,0-7.77,0h0V27.84a1,1,0,0,1-1.94,0h0V13a3.88,3.88,0,0,0-7.76,0h0v88.57H89.93v-42h0a9.65,9.65,0,0,0,9.65-9.64Z"/></g></g></svg>