<?xml version="1.0" encoding="utf-8"?>
<svg version="1.1" id="Layer_1" xmlns="http://www.w3.org/2000/svg" xmlns:xlink="http://www.w3.org/1999/xlink" x="0px" y="0px"
	 viewBox="0 0 90 44" style="enable-background:new 0 0 90 44;" xml:space="preserve">
<style type="text/css">
	.st0{fill:#091440;}
	.st1{fill:none;}
	.st2{fill:#e9f8fe;}
</style>
<path class="st0" d="M71.6,22.7c0-3.1-2.4-5.6-5.5-5.6l0,0H55.6h-4.4c0,2.5,1.9,4.5,4.4,4.5l0,0H62c0.3,0,0.6,0.3,0.6,0.6
	s-0.3,0.6-0.6,0.6H42.1c-1.2,0-2.1,1-2.2,2.2c0,1.1,0.8,2.1,2,2.2h11.8c0.3,0,0.6,0.3,0.6,0.6s-0.3,0.6-0.6,0.6H40.3
	c-1.2,0-2.2,1-2.1,2.2c0,1.2,1,2.2,2.1,2.2h13.5c0.3,0,0.6,0.3,0.6,0.6S54.1,34,53.7,34H41.6c-1.2,0-2.2,1-2.1,2.2
	c0,1.2,1,2.2,2.1,2.2h12.1c0.3,0,0.6,0.3,0.6,0.6s-0.3,0.6-0.6,0.6h-8.4c-1.2,0-2.2,1-2.1,2.2c0,1.2,1,2.2,2.1,2.2H90V22.7H71.6z"/>
<path class="st0" d="M36.3,15.6h13.5c1.2,0,2.2-1,2.1-2.2c0-1.2-1-2.2-2.1-2.2H36.3c-0.3,0-0.6-0.3-0.6-0.6S36,10,36.3,10h12.1
	c1.2,0,2.2-1,2.1-2.2c0-1.2-1-2.2-2.1-2.2H36.3c-0.3,0-0.6-0.3-0.6-0.6c0-0.3,0.3-0.6,0.6-0.6h8.4c1.2,0,2.2-1,2.1-2.2
	c0-1.2-1-2.2-2.1-2.2H0v21.3h18.4c0,3.1,2.4,5.6,5.5,5.6l0,0h10.5h4.4c0-2.5-1.9-4.5-4.4-4.5l0,0H28c-0.3,0-0.6-0.3-0.6-0.6
	s0.3-0.6,0.6-0.6h19.8c1.2,0,2.1-1,2.2-2.2c0-1.1-0.8-2.1-2-2.2H36.3c-0.3,0-0.6-0.3-0.6-0.6C35.7,15.9,35.9,15.6,36.3,15.6z"/>
<path class="st1" d="M62.9,35.8L62.9,35.8L62.9,35.8c-0.9,0-1.6,0.7-1.6,1.6c0,0.9,0.7,1.6,1.6,1.6c0.9,0,1.6-0.7,1.6-1.6
	S63.8,35.8,62.9,35.8z"/>
<path class="st2" d="M64,33.8v-7.7c0-0.6-0.5-1.1-1.1-1.1h-3.7v2.2l2.6-0.1v1.6H60v2.2h1.8v2.9c-1.6,0.5-2.6,1.9-2.6,3.6
	c-0.1,2.1,1.5,3.9,3.5,4c2.1,0.1,3.8-1.5,3.9-3.6c0-0.1,0-0.2,0-0.3C66.6,35.7,65.6,34.3,64,33.8z M62.9,39c-0.9,0-1.6-0.7-1.6-1.6
	c0-0.9,0.7-1.6,1.5-1.6l0,0l0,0c0.9,0,1.6,0.7,1.6,1.6C64.5,38.3,63.8,39,62.9,39z"/>
<path class="st1" d="M28.6,6.6C28.6,5.7,27.9,5,27,5s-1.6,0.7-1.6,1.6s0.7,1.6,1.6,1.6l0,0l0,0C28,8.2,28.6,7.5,28.6,6.6z"/>
<path class="st2" d="M28.1,16.9v-1.6h1.8v-2.2h-1.8v-2.9c1.6-0.5,2.6-1.9,2.6-3.6c0.1-2.1-1.5-3.9-3.5-4c-2.1-0.1-3.8,1.5-3.9,3.6
	c0,0.1,0,0.2,0,0.3c0,1.7,1.1,3.1,2.6,3.6v7.7c0,0.6,0.5,1.1,1.1,1.1h3.7v-2.2L28.1,16.9z M27.1,8.2L27.1,8.2
	c-0.9,0-1.6-0.7-1.6-1.6S26.2,5,27.1,5s1.6,0.7,1.6,1.6C28.6,7.5,28,8.2,27.1,8.2L27.1,8.2z"/>
</svg>
