<svg xmlns="http://www.w3.org/2000/svg" viewBox="-2543.8 4062 87.5 50"><defs><style>.a{fill:#091440;}.b{fill:#69d5f7;}.c{fill:#6ed5f4;}</style></defs><g transform="translate(-2546.1 4062)"><rect class="a" width="56.2" height="46.9" transform="translate(17.9 3.1)"/><path class="b" d="M27.3,9.4,21,12.5V9.4l6.3-3.2Z"/><path class="b" d="M27.3,15.6,21,12.5V9.4l6.3,3.1Z"/><path class="b" d="M27.3,34.4,21,37.5V34.4l6.3-3.2Z"/><path class="b" d="M27.3,40.6,21,37.5V34.4l6.3,3.1Z"/><path class="b" d="M64.8,31.3,71,28.1v3.2l-6.2,3.1Z"/><path class="b" d="M64.8,25,71,28.1v3.2l-6.2-3.2Z"/><path class="b" d="M64.8,43.8,71,40.6v3.2l-6.2,3.1Z"/><path class="b" d="M64.8,37.5,71,40.6v3.2l-6.2-3.2Z"/><rect class="b" width="31.2" height="3.1" transform="translate(30.4 9.4)"/><rect class="b" width="15.6" height="3.1" transform="translate(30.4 15.6)"/><rect class="b" width="31.2" height="3.1" transform="translate(30.4 21.9)"/><rect class="b" width="31.2" height="3.1" transform="translate(30.4 40.6)"/><rect class="b" width="13" height="3.1" transform="translate(30.4 34.4)"/><rect class="b" width="15.6" height="3.1" transform="translate(46 34.4)"/><rect class="b" width="15.6" height="3.1" transform="translate(30.4 28.1)"/><rect class="b" width="13" height="3.1" transform="translate(48.6 28.1)"/><rect class="c" width="56.2" height="3.1" transform="translate(17.9)"/><path class="a" d="M83.5,26.8l6.3-3.1v3.1l-6.3,3.1Z"/><path class="a" d="M83.5,20.6l6.3,3.1v3.1l-6.3-3.1Z"/><path class="a" d="M82.3,12.7l4.6-5.2,1.2,2.8-4.6,5.3Z"/><path class="a" d="M79.9,7l7,.5,1.2,2.8-7-.4Z"/><path class="a" d="M82.3,37.3l4.6,5.2,1.2-2.8-4.6-5.3Z"/><path class="a" d="M79.9,43l7-.5,1.2-2.8-7,.4Z"/><path class="a" d="M8.5,26.8,2.3,23.7v3.1l6.2,3.1Z"/><path class="a" d="M8.5,20.6,2.3,23.7v3.1l6.2-3.1Z"/><path class="a" d="M9.7,12.7,5.1,7.5,3.9,10.3l4.6,5.3Z"/><path class="a" d="M12.1,7l-7,.5L3.9,10.3l7-.4Z"/><path class="a" d="M9.7,37.3,5.1,42.5,3.9,39.7l4.6-5.3Z"/><path class="a" d="M12.1,43l-7-.5L3.9,39.7l7,.4Z"/></g></svg>