<svg xmlns="http://www.w3.org/2000/svg" viewBox="0 0 141.48 80.84"><defs><style>.cls-1{fill:#fff;}.cls-2{fill:#091440;}</style></defs><title>incrementalPrivacyAndSecurity</title><g id="Layer_2" data-name="Layer 2"><g id="Layer_1-2" data-name="Layer 1"><rect class="cls-1" x="40.24" y="30.32" width="60.82" height="47"/><path class="cls-2" d="M40.24,40.42V80.84h60.81V40.42ZM70.65,73.65a26,26,0,0,1-22.55-13,26,26,0,0,1,45.09,0A26,26,0,0,1,70.65,73.65Z"/><path class="cls-2" d="M77.79,53.49a10.1,10.1,0,1,0,3,7.14H70.65Z"/><ellipse class="cls-2" cx="50.53" cy="35.37" rx="5.05" ry="2.53"/><ellipse class="cls-2" cx="90.95" cy="35.37" rx="5.05" ry="2.53"/><path class="cls-2" d="M45.47,25.26V35.37H55.58V25.26A15.15,15.15,0,0,1,70.74,10.11h0A15.15,15.15,0,0,1,85.9,25.26V35.37H96V25.26A25.26,25.26,0,0,0,70.74,0h0A25.27,25.27,0,0,0,45.47,25.26Z"/><rect class="cls-2" x="116.21" y="37.57" width="25.26" height="5.05"/><rect class="cls-2" y="37.57" width="25.26" height="5.05"/><rect class="cls-2" x="10.35" y="58.62" width="19.11" height="5.05" transform="translate(-21.89 12.27) rotate(-22.5)"/><rect class="cls-2" x="116.21" y="37.57" width="25.26" height="5.05"/><rect class="cls-2" y="37.57" width="25.26" height="5.05"/><rect class="cls-2" x="10.28" y="16.49" width="19.18" height="5.05" transform="translate(30.94 44.19) rotate(-157.5)"/><polygon class="cls-2" points="129.44 13.02 111.78 20.36 113.72 25.02 131.37 17.68 129.44 13.02"/><rect class="cls-2" x="112.02" y="58.62" width="19.11" height="5.05" transform="translate(210.5 164.17) rotate(-157.5)"/></g></g></svg>