<svg xmlns="http://www.w3.org/2000/svg" viewBox="-2245 4062 87.5 50"><defs><style>.a{fill:#8997a5;}.b{fill:#c4cbd2;}</style></defs><g transform="translate(-2546.1 4062)"><rect class="a" width="56.2" height="46.9" transform="translate(316.7 3.1)"/><path class="a" d="M382.3,26.8l6.3-3.1v3.1l-6.3,3.1Z"/><path class="a" d="M382.3,20.6l6.3,3.1v3.1l-6.3-3.1Z"/><path class="a" d="M381.1,12.7l4.6-5.2,1.2,2.8-4.6,5.3Z"/><path class="a" d="M378.7,7l7,.5,1.2,2.8-7-.4Z"/><path class="a" d="M381.1,37.3l4.6,5.2,1.2-2.8-4.6-5.3Z"/><path class="a" d="M378.7,43l7-.5,1.2-2.8-7,.4Z"/><path class="a" d="M307.3,26.8l-6.2-3.1v3.1l6.2,3.1Z"/><path class="a" d="M307.3,20.6l-6.2,3.1v3.1l6.2-3.1Z"/><path class="a" d="M308.5,12.7l-4.6-5.2-1.2,2.8,4.6,5.3Z"/><path class="a" d="M310.9,7l-7,.5-1.2,2.8,7-.4Z"/><path class="a" d="M308.5,37.3l-4.6,5.2-1.2-2.8,4.6-5.3Z"/><path class="a" d="M310.9,43l-7-.5-1.2-2.8,7,.4Z"/></g><g transform="translate(-2546.1 4062)"><path class="b" d="M326.1,9.4l-6.3,3.1V9.4l6.3-3.2Z"/><path class="b" d="M326.1,15.6l-6.3-3.1V9.4l6.3,3.1Z"/><path class="b" d="M326.1,34.4l-6.3,3.1V34.4l6.3-3.2Z"/><path class="b" d="M326.1,40.6l-6.3-3.1V34.4l6.3,3.1Z"/><path class="b" d="M363.6,31.3l6.2-3.2v3.2l-6.2,3.1Z"/><path class="b" d="M363.6,25l6.2,3.1v3.2l-6.2-3.2Z"/><path class="b" d="M363.6,43.8l6.2-3.2v3.2l-6.2,3.1Z"/><path class="b" d="M363.6,37.5l6.2,3.1v3.2l-6.2-3.2Z"/><rect class="b" width="31.2" height="3.1" transform="translate(329.2 9.4)"/><rect class="b" width="15.6" height="3.1" transform="translate(329.2 15.6)"/><rect class="b" width="31.2" height="3.1" transform="translate(329.2 21.9)"/><rect class="b" width="31.2" height="3.1" transform="translate(329.2 40.6)"/><rect class="b" width="13" height="3.1" transform="translate(329.2 34.4)"/><rect class="b" width="15.6" height="3.1" transform="translate(344.8 34.4)"/><rect class="b" width="15.6" height="3.1" transform="translate(329.2 28.1)"/><rect class="b" width="13" height="3.1" transform="translate(347.4 28.1)"/></g><rect class="b" width="56.2" height="3.1" transform="translate(-2229.4 4062)"/></svg>