<svg xmlns="http://www.w3.org/2000/svg" viewBox="-2380.9 4187.6 87.5 50"><defs><style>.a{fill:#e9f8fe;}.b{fill:#091440;}</style></defs><g transform="translate(-2546.1 4062)"><rect class="a" width="37.6" height="25" transform="translate(190.1 144.3)"/><rect class="b" width="37.6" height="25" transform="translate(190.1 150.6)"/><path class="a" d="M208.9,155a15.736,15.736,0,0,0-13.9,8.1,16.183,16.183,0,0,0,13.9,8.1,15.854,15.854,0,0,0,13.9-8.1A15.936,15.936,0,0,0,208.9,155Z"/><circle class="b" cx="6.2" cy="6.2" r="6.2" transform="translate(202.7 156.9)"/><path class="a" d="M214,158l-5.1,5.1h7.2Z"/><ellipse class="b" cx="3.1" cy="1.6" rx="3.1" ry="1.6" transform="translate(193.4 145.8)"/><ellipse class="b" cx="3.1" cy="1.6" rx="3.1" ry="1.6" transform="translate(218.4 145.8)"/><path class="b" d="M193.3,141.2v6.3h6.2v-6.3a9.389,9.389,0,0,1,9.4-9.4h0a9.389,9.389,0,0,1,9.4,9.4v6.3h6.2v-6.3a15.62,15.62,0,0,0-15.6-15.6h0A15.62,15.62,0,0,0,193.3,141.2Z"/><rect class="b" width="15.6" height="3.1" transform="translate(237.1 148.8)"/><rect class="b" width="15.6" height="3.1" transform="translate(165.2 148.8)"/><rect class="b" width="11.8" height="3.1" transform="translate(171.447 164.187) rotate(-22.5)"/><rect class="b" width="15.6" height="3.1" transform="translate(237.1 148.8)"/><rect class="b" width="15.6" height="3.1" transform="translate(165.2 148.8)"/><rect class="b" width="11.9" height="3.1" transform="translate(182.362 141.008) rotate(-157.5)"/><path class="b" d="M245.3,133.6l-11,4.6,1.2,2.8,11-4.5Z"/><rect class="b" width="11.8" height="3.1" transform="translate(245.252 167.118) rotate(-157.5)"/></g></svg>
