<svg xmlns="http://www.w3.org/2000/svg" viewBox="-2371.4 4280.4 75 50"><defs><style>.a{fill:#091440;}.b{fill:#c4cbd2;}</style></defs><g transform="translate(0 -109)"><g transform="translate(-2546.1 4062)"><path class="a" d="M184.6,346.1h27.6v25H174.7V356A9.859,9.859,0,0,1,184.6,346.1Z"/><path class="a" d="M187.2,371.1l-6.3,6.3v-6.3Z"/><path class="b" d="M190.3,346.1l-6.3,6.3v-6.3Z"/><path class="b" d="M237.2,368l6.2,6.2V368Z"/><rect class="a" width="37.5" height="21.9" transform="translate(212.2 346.1)"/><rect class="b" width="36.7" height="3.1" transform="translate(212.2 349.2)"/><rect class="b" width="36.7" height="3.1" transform="translate(212.2 355.5)"/><rect class="b" width="36.7" height="3.1" transform="translate(212.2 361.7)"/><path class="a" d="M227.2,330.5H212.1v18.8h25v-8.8A9.819,9.819,0,0,0,227.2,330.5Z"/><path class="b" d="M194,327.4h18.2v18.8H184v-8.8A9.965,9.965,0,0,1,194,327.4Z"/><path class="a" d="M198.1,334.5l.1.3a2.137,2.137,0,0,0,1.7,1.2h.3l-.2.2a2.133,2.133,0,0,0-.6,2l.1.3-.3-.1a2.563,2.563,0,0,0-2.1,0l-.3.1.1-.3a2.417,2.417,0,0,0-.6-2l-.2-.2h.3a2.378,2.378,0,0,0,1.7-1.2Z"/><path class="a" d="M203.1,329.9l.1.3a2.137,2.137,0,0,0,1.7,1.2h.3l-.2.2a2.133,2.133,0,0,0-.6,2l.1.3-.3-.1a2.563,2.563,0,0,0-2.1,0l-.3.1.1-.3a2.417,2.417,0,0,0-.6-2l-.2-.2h.3a2.378,2.378,0,0,0,1.7-1.2Z"/><path class="a" d="M193.1,329.9l.1.3a2.137,2.137,0,0,0,1.7,1.2h.3l-.2.2a2.133,2.133,0,0,0-.6,2l.1.3-.3-.1a2.563,2.563,0,0,0-2.1,0l-.3.1.1-.3a2.417,2.417,0,0,0-.6-2l-.2-.2h.3a2.378,2.378,0,0,0,1.7-1.2Z"/><path class="a" d="M203.1,339.5l.1.3a2.137,2.137,0,0,0,1.7,1.2h.3l-.2.2a2.133,2.133,0,0,0-.6,2l.1.3-.3-.1a2.563,2.563,0,0,0-2.1,0l-.3.1.1-.3a2.417,2.417,0,0,0-.6-2l-.2-.2h.3a2.378,2.378,0,0,0,1.7-1.2Z"/><path class="a" d="M193.1,339.5l.1.3a2.137,2.137,0,0,0,1.7,1.2h.3l-.2.2a2.133,2.133,0,0,0-.6,2l.1.3-.3-.1a2.563,2.563,0,0,0-2.1,0l-.3.1.1-.3a2.417,2.417,0,0,0-.6-2l-.2-.2h.3a2.378,2.378,0,0,0,1.7-1.2Z"/><path class="b" d="M193.8,354.3l3,5.1,3,5.2H187.9l3-5.2Z"/><rect class="b" width="3.1" height="21.9" transform="translate(246.5 346.1)"/><path class="a" d="M224.7,346.1l6.2,6.3v-6.3Z"/></g></g></svg>