<svg xmlns="http://www.w3.org/2000/svg" viewBox="0 0 131.82 87.88"><defs><style>.cls-1{fill:#091440;}.cls-2{fill:#fff;}</style></defs><title>freeSpeechAndConsideration</title><g id="Layer_2" data-name="Layer 2"><g id="Layer_1-2" data-name="Layer 1"><path class="cls-1" d="M7,33H65.91a0,0,0,0,1,0,0V76.9a0,0,0,0,1,0,0H0a0,0,0,0,1,0,0V40A7,7,0,0,1,7,33Z"/><polygon class="cls-1" points="21.97 76.9 10.98 87.88 10.98 76.9 21.97 76.9"/><polygon class="cls-2" points="27.46 32.96 16.48 43.94 16.48 32.96 27.46 32.96"/><polygon class="cls-2" points="109.85 71.4 120.84 82.39 120.84 71.4 109.85 71.4"/><rect class="cls-2" x="65.91" y="32.96" width="65.91" height="38.45"/><rect class="cls-1" x="65.91" y="38.45" width="64.45" height="5.49"/><rect class="cls-1" x="65.91" y="49.43" width="64.45" height="5.49"/><rect class="cls-1" x="65.91" y="60.42" width="64.45" height="5.49"/><path class="cls-1" d="M65.91,5.49h36.89a7,7,0,0,1,7,7V33a0,0,0,0,1,0,0H65.91a0,0,0,0,1,0,0V5.49A0,0,0,0,1,65.91,5.49Z"/><path class="cls-2" d="M23.52,0H65.91a0,0,0,0,1,0,0V33a0,0,0,0,1,0,0H16.48a0,0,0,0,1,0,0V7A7,7,0,0,1,23.52,0Z"/><path class="cls-1" d="M41.19,12.56l.25.51a4,4,0,0,0,3,2.17l.55.08-.4.39a4,4,0,0,0-1.14,3.51l.1.55-.5-.26a4,4,0,0,0-3.69,0l-.5.26.1-.55a4,4,0,0,0-1.14-3.51l-.41-.39.56-.08a4,4,0,0,0,3-2.17Z"/><path class="cls-1" d="M50,4.45l.25.5a4,4,0,0,0,3,2.17l.55.08-.4.4a4,4,0,0,0-1.14,3.51l.1.55-.5-.26a4,4,0,0,0-3.69,0l-.5.26.1-.55A4,4,0,0,0,46.6,7.6l-.41-.4.56-.08a3.93,3.93,0,0,0,3-2.17Z"/><path class="cls-1" d="M32.41,4.45l.25.5a3.93,3.93,0,0,0,3,2.17l.56.08-.41.4a4,4,0,0,0-1.14,3.51l.1.55-.5-.26a4,4,0,0,0-3.69,0l-.5.26.1-.55A4,4,0,0,0,29,7.6l-.4-.4.55-.08a4,4,0,0,0,3-2.17Z"/><path class="cls-1" d="M50,21.3l.25.5a4,4,0,0,0,3,2.17l.55.08-.4.39A4,4,0,0,0,52.23,28l.1.56-.5-.27a4,4,0,0,0-3.69,0l-.5.27.1-.56a4,4,0,0,0-1.14-3.51l-.41-.39.56-.08a4,4,0,0,0,3-2.17Z"/><path class="cls-1" d="M32.41,21.3l.25.5a4,4,0,0,0,3,2.17l.56.08-.41.39A4,4,0,0,0,34.65,28l.1.56-.5-.27a4,4,0,0,0-3.69,0l-.5.27.1-.56A4,4,0,0,0,29,24.44l-.4-.39.55-.08a4,4,0,0,0,3-2.17Z"/><polygon class="cls-2" points="33.69 47.33 38.92 56.39 44.15 65.45 33.69 65.45 23.23 65.45 28.46 56.39 33.69 47.33"/><rect class="cls-2" x="126.33" y="32.96" width="5.49" height="38.45"/><polygon class="cls-1" points="87.88 32.96 98.87 43.94 98.87 32.96 87.88 32.96"/></g></g></svg>