<svg xmlns="http://www.w3.org/2000/svg" viewBox="0 0 141.48 80.84"><defs><style>.cls-1{fill:#091440;}.cls-2{fill:#fff;}</style></defs><title>freeAndOpenSourceSoftware</title><g id="Layer_2" data-name="Layer 2"><g id="Layer_1-2" data-name="Layer 1"><rect class="cls-1" x="25.26" y="5.05" width="90.95" height="75.79"/><polygon class="cls-2" points="40.42 15.16 30.32 20.21 30.32 15.16 40.42 10.11 40.42 15.16"/><polygon class="cls-2" points="40.42 25.26 30.32 20.21 30.32 15.16 40.42 20.21 40.42 25.26"/><polygon class="cls-2" points="40.42 55.58 30.32 60.63 30.32 55.58 40.42 50.53 40.42 55.58"/><polygon class="cls-2" points="40.42 65.69 30.32 60.63 30.32 55.58 40.42 60.63 40.42 65.69"/><polygon class="cls-2" points="101.05 50.53 111.16 45.48 111.16 50.53 101.05 55.58 101.05 50.53"/><polygon class="cls-2" points="101.05 40.42 111.16 45.48 111.16 50.53 101.05 45.47 101.05 40.42"/><polygon class="cls-2" points="101.05 70.74 111.16 65.69 111.16 70.74 101.05 75.79 101.05 70.74"/><polygon class="cls-2" points="101.05 60.63 111.16 65.69 111.16 70.74 101.05 65.69 101.05 60.63"/><rect class="cls-2" x="45.47" y="15.16" width="50.53" height="5.05"/><rect class="cls-2" x="45.47" y="25.26" width="25.26" height="5.05"/><rect class="cls-2" x="45.47" y="35.37" width="50.53" height="5.05"/><rect class="cls-2" x="45.47" y="65.69" width="50.53" height="5.05"/><rect class="cls-2" x="45.47" y="55.58" width="21.05" height="5.05"/><rect class="cls-2" x="70.74" y="55.58" width="25.26" height="5.05"/><rect class="cls-2" x="45.47" y="45.47" width="25.26" height="5.05"/><rect class="cls-2" x="74.95" y="45.47" width="21.05" height="5.05"/><rect class="cls-2" x="25.26" width="90.95" height="5.05"/><polygon class="cls-1" points="131.37 43.35 141.48 38.3 141.48 43.35 131.37 48.4 131.37 43.35"/><polygon class="cls-1" points="131.37 33.24 141.48 38.3 141.48 43.35 131.37 38.3 131.37 33.24"/><polygon class="cls-1" points="129.44 20.6 136.84 12.06 138.77 16.73 131.37 25.26 129.44 20.6"/><polygon class="cls-1" points="125.57 11.26 136.84 12.06 138.77 16.73 127.5 15.93 125.57 11.26"/><polygon class="cls-1" points="129.44 60.25 136.84 68.78 138.77 64.11 131.37 55.58 129.44 60.25"/><polygon class="cls-1" points="125.57 69.58 136.84 68.78 138.77 64.11 127.5 64.92 125.57 69.58"/><polygon class="cls-1" points="10.11 43.35 0 38.3 0 43.35 10.11 48.4 10.11 43.35"/><polygon class="cls-1" points="10.11 33.24 0 38.3 0 43.35 10.11 38.3 10.11 33.24"/><polygon class="cls-1" points="12.04 20.6 4.64 12.06 2.7 16.73 10.11 25.26 12.04 20.6"/><polygon class="cls-1" points="15.91 11.26 4.64 12.06 2.7 16.73 13.97 15.93 15.91 11.26"/><polygon class="cls-1" points="12.04 60.25 4.64 68.78 2.7 64.11 10.11 55.58 12.04 60.25"/><polygon class="cls-1" points="15.91 69.58 4.64 68.78 2.7 64.11 13.97 64.92 15.91 69.58"/></g></g></svg>