<svg xmlns="http://www.w3.org/2000/svg" viewBox="0 0 19.99 20.01"><defs><style>.cls-1{fill:#2ed8a3;}.cls-2{fill:#091440;}</style></defs><title>sgminer</title><g id="Layer_2" data-name="Layer 2"><g id="specctr"><path id="_Path_" data-name="&lt;Path&gt;" class="cls-1" d="M4.55,2.52h0a1.48,1.48,0,0,0-2,2A11.91,11.91,0,0,1,4.55,2.52Z"/><path id="_Path_2" data-name="&lt;Path&gt;" class="cls-1" d="M5.94,8,17.46,19.57a1.48,1.48,0,0,0,2.1-2.09L8,5.93Z"/><path id="_Path_3" data-name="&lt;Path&gt;" class="cls-2" d="M4.37,7.49l1,1.05L5.94,8,8,5.93l.53-.52-1-1.05L8,3.83,11.86,0h0a11.72,11.72,0,0,0-7.3,2.52h0a11.91,11.91,0,0,0-2,2h0A11.83,11.83,0,0,0,0,11.85L3.84,8Z"/></g></g></svg>