<?xml version="1.0" encoding="utf-8"?>
<!-- Generator: Adobe Illustrator 22.1.0, SVG Export Plug-In . SVG Version: 6.00 Build 0)  -->
<svg version="1.1" id="Layer_1" xmlns="http://www.w3.org/2000/svg" xmlns:xlink="http://www.w3.org/1999/xlink" x="0px" y="0px"
	 viewBox="0 0 309.6 222" style="enable-background:new 0 0 309.6 222;" xml:space="preserve">
<style type="text/css">
	.st0{fill:#091440;}
</style>
<g>
	<path class="st0" d="M0,191.9l15.5-18c15.2,15.2,36.3,25.4,59.5,25.4c27.9,0,44.3-13.3,44.3-32.2c0-21.7-15.8-27.9-36.6-36.9
		l-29.1-12.7c-20.5-8.1-44-22.6-44-52.4c0-31,27.9-53.9,66.6-53.9c25.4,0,47.7,10.2,62.6,25.1l-13.6,16.7
		c-13.3-11.8-28.8-19.2-49.9-19.2C51.8,33.9,36,45.3,36,63.6c0,19.5,18.9,26.7,36.3,33.8l28.5,12.4c25.1,10.2,44.9,24.2,44.9,54.2
		c0,32.2-27.3,58-71.9,58C44,222,18.3,210.2,0,191.9z"/>
	<path class="st0" d="M166.7,143.3c0-50.5,38.4-79.3,84-79.3c24.5,0,42.5,9.9,54.9,22l-12.7,16.4C280.5,91.5,267.5,85,251.7,85
		c-34.7,0-58.6,23.6-58.6,58.3c0,34.4,23.2,57.7,58,57.7c18.6,0,34.1-8.4,46.5-18.9l11.5,16.4c-16.7,14.9-37.5,23.6-59.8,23.6
		C202.1,222,166.7,193.2,166.7,143.3z"/>
</g>
</svg>
