<svg xmlns="http://www.w3.org/2000/svg" viewBox="1540 921 162.7 30"><defs><style>.a{fill:#2ed7a2;}.b{fill:#2972ff;}.c{fill:#fff;}</style></defs><g transform="translate(1540 921)"><path class="a" d="M16.9,18.4h9.5a6.4,6.4,0,0,0,0-12.8h-3L16.9,0h9.5a11.985,11.985,0,0,1,4.5,23.1l7.5,6.5H29.8Z"/><path class="b" d="M21.5,11.2H12A6.4,6.4,0,1,0,12,24h3l6.5,5.6H12A11.985,11.985,0,0,1,7.5,6.5L0,0H8.6Z"/><path class="c" d="M89.6,20.6h0A9.417,9.417,0,0,1,99.2,11a9.288,9.288,0,0,1,7.8,3.8l-3.8,2.9a4.752,4.752,0,0,0-4-2.1,4.535,4.535,0,0,0-4.4,4.8v.1c0,2.7,1.8,4.9,4.4,4.9a5.021,5.021,0,0,0,4.1-2.2l3.8,2.7A9.067,9.067,0,0,1,99,30,9.264,9.264,0,0,1,89.6,20.6Z"/><path class="c" d="M108.9,11.2h8.7c2.8,0,4.8.7,6,2a5.732,5.732,0,0,1,1.6,4.3v.1a5.915,5.915,0,0,1-3.8,5.7l4.4,6.4h-5.9l-3.7-5.6H114v5.6h-5.1Zm8.4,8.9c1.7,0,2.7-.8,2.7-2.2v-.1c0-1.4-1.1-2.2-2.8-2.2H114V20h3.3Z"/><path class="c" d="M127.6,11.2h14.8v4.3h-9.8v2.8h8.8v4h-8.8v2.9h9.9v4.3H127.6V11.2Z"/><path class="c" d="M145.2,11.2h7.1c6.6,0,10.4,3.8,10.4,9.1v.1c0,5.3-3.9,9.3-10.5,9.3h-7Zm7.2,13.9c3,0,5.1-1.7,5.1-4.7v-.1c0-2.9-2-4.7-5.1-4.7h-2.1V25h2.1Z"/><path class="c" d="M79.2,30a9.089,9.089,0,0,1-9.3-9.5c0-5.4,3.8-9.5,8.9-9.5a8,8,0,0,1,6.5,2.9,10.953,10.953,0,0,1,2.2,6.9,2.769,2.769,0,0,1-.1.9H73.6V22a5.459,5.459,0,0,0,5.6,4.9,6.658,6.658,0,0,0,5-2.1l2.2,1.9A8.831,8.831,0,0,1,79.2,30Zm-.5-16c-2.7,0-4.6,2-5.1,5.1v.3H83.7v-.3C83.3,16,81.4,14,78.7,14Z"/><path class="c" d="M57,30c-4.2,0-8.4-3.3-8.4-9.5S52.8,11,57,11a7.418,7.418,0,0,1,6.2,3.2l.4.5V2.8h3.8V29.6H63.6V26l-.4.6A7.257,7.257,0,0,1,57,30Zm1-15.8c-3.3,0-5.6,2.6-5.6,6.2s2.4,6.2,5.6,6.2,5.6-2.7,5.6-6.2A5.747,5.747,0,0,0,58,14.2Z"/></g></svg>