<svg xmlns="http://www.w3.org/2000/svg" xmlns:xlink="http://www.w3.org/1999/xlink" viewBox="3196 1642 180 180"><defs><style>.a{fill:#2dd8a3;}.b{clip-path:url(#a);}.c{fill:#596d81;}.d{clip-path:url(#b);}.e,.h,.j,.l{fill:#091440;}.f{fill:#fff;}.g{clip-path:url(#c);}.h{opacity:0.5;}.i{clip-path:url(#d);}.j{opacity:0.1;}.k{fill:none;}.l{opacity:0.25;}</style><clipPath id="a"><circle class="a" cx="90" cy="90" r="90"/></clipPath><clipPath id="b"><circle cx="90" cy="90" r="90"/></clipPath><clipPath id="c"><path d="M70.1,89.2s-1.4,18.9-3.1,23.3h0a27.435,27.435,0,0,0-1.6,13.9c1.3,8.9,7,20.8,27.8,21.2,22.2.5,21.5-29.2,21.5-29.2Z"/></clipPath><clipPath id="d"><path d="M100.1,15.8A35.721,35.721,0,0,0,64.4,51.5,37.538,37.538,0,0,0,65.7,61l4,29.3a37.752,37.752,0,0,0,12.2,23.1l14.4,7.4c10.8,5.9,16.4,3.8,16.4,3.8,10,0,11.6-4.4,14.5-14l3.6-11.7a114.471,114.471,0,0,0,5.1-33.8V51.5A35.871,35.871,0,0,0,100.1,15.8Z"/></clipPath></defs><g transform="translate(3196 1642)"><g class="b"><path class="c" d="M90,0A90,90,0,1,1,0,90,90,90,0,0,1,90,0Z"/></g><g class="d"><path class="e" d="M99.2,112.5H67L9.6,147.6V182h147V147.6Z"/><path class="f" d="M69.1,88.1s-.4,20-2.1,24.3h0a27.435,27.435,0,0,0-1.6,13.9c1.3,8.9,7,20.8,27.8,21.2,22.2.5,21.5-29.2,21.5-29.2Z"/><g class="g"><path class="h" d="M75.5,106.1c3.9,13.8,14.6,26.1,27.3,28.2s13-7.3,13-7.3l1.9-16.3Z"/></g><path class="f" d="M100.1,15.8A35.721,35.721,0,0,0,64.4,51.5,37.538,37.538,0,0,0,65.7,61l4,29.3a37.752,37.752,0,0,0,12.2,23.1l14.4,7.4c10.8,5.9,16.4,3.8,16.4,3.8,10,0,11.6-4.4,14.5-14l3.6-11.7a114.471,114.471,0,0,0,5.1-33.8V51.5A35.871,35.871,0,0,0,100.1,15.8Z"/><g class="i"><path class="j" d="M129.6,101.4c.4-2.3.4-4.3-2.1-6.5-2.4-2.1-7.8-2.3-9.9-2.2,0,0-7.6-.9-12.4,1.4-8.9,4.2-7,7.4-7.4,9.6-.5.6-.2,5.9-3.7,5.4-2.2-.3-2.6-6.8-5-12.6a12.884,12.884,0,0,0-7.3-7.4S78.5,92,76,81.6c-1.4-6-2.1-9.7-2.1-9.7s-7.2-6.6-5.1.8c1.7,6-1.7,20.6,7.9,37.3s27.1,17,31.2,16.8,13.9-3.8,16.5-7.4c2.2-3,5.7-17.9,6.2-20.3C130.6,99.5,130.4,99.2,129.6,101.4Zm-4.3,9.6c-3,1.6-5.3-3.9-3.8-4.4,1.1-.4-.9-2.8-3.6-2.6s-4.9.8-3.3,2.2c.5.4-5.3,6.2-9.8,6.2s-3.7-12.1-.4-12.7c9.6-2,13.1-4,14.3-5.3,1.9,2.4,5.4,4,8,5.3C128.8,100.8,126.6,110.3,125.3,111Z"/></g><path class="k" d="M108.4,51.5h27.4V65.1a113.492,113.492,0,0,1-5.1,33.8l-3.6,11.7a22.834,22.834,0,0,1-21.8,16.1h0A22.707,22.707,0,0,1,90,120.8l-7.8-7.1A39.493,39.493,0,0,1,69.6,89.8L64.4,51.5h44Z"/><path class="h" d="M116.4,63.5h0a9.684,9.684,0,0,1-8.9,2.5,53.917,53.917,0,0,0-13.1-1.7c-8,.3-8.9,1.6-8.9,1.6s2.6-5.2,7.4-4.9,9.8.9,14.1,1.3C111.3,62.8,116.4,63.5,116.4,63.5Z"/><path class="h" d="M124.3,68.7s-.5-.7,2.1-3.2c1.7-1.6,3.9-1.3,5.7-.6a10.613,10.613,0,0,0,2.3.5,1.949,1.949,0,0,1,1.4,1.9v1.4S132.5,65.6,124.3,68.7Z"/><path class="e" d="M92.1,70.8a13.487,13.487,0,0,1,2.4-1.6,16.865,16.865,0,0,1,2.7-1.1c.5-.1,1-.3,1.6-.4.3-.1.6-.1.8-.2l.4-.1h.5a12.751,12.751,0,0,1,1.9.1,3.178,3.178,0,0,1,.9.3,2.01,2.01,0,0,1,.8.4,6.706,6.706,0,0,1,1.4.9,9.428,9.428,0,0,1,1,1,6.19,6.19,0,0,1,1.1,1.8c.2.5.3.7.3.7a14.367,14.367,0,0,0-2.2-1.7c-.3-.2-.7-.4-1.1-.7l-.6-.3-.6-.3a3.079,3.079,0,0,0-1.3-.3c-.2-.1-.4,0-.7-.1h-1.1l-.4.1c-.3,0-.5.1-.8.1-.5.1-1,.1-1.5.2-1,.2-1.9.3-2.8.5A25.1,25.1,0,0,1,92.1,70.8Z"/><path class="e" d="M121.8,72.9a1.2,1.2,0,0,1,.4-.4,5.305,5.305,0,0,1,1.1-.9,14.51,14.51,0,0,1,1.8-1,15.546,15.546,0,0,1,2.3-.8l.6-.1c.3,0,.4-.1.6-.1H130a3.285,3.285,0,0,1,2.1,1.1,3.509,3.509,0,0,1,.5.8,1.854,1.854,0,0,1,.2.7.931.931,0,0,1,0,.6,5.166,5.166,0,0,0-1.6-1,1.854,1.854,0,0,0-.7-.2c-.3,0-.5-.1-.8-.1h-.9l-.5.1-.5.1c-1.5.3-2.9.6-4,.9C122.6,72.8,121.8,72.9,121.8,72.9Z"/><circle class="e" cx="2.9" cy="2.9" r="2.9" transform="translate(96.3 67.9)"/><ellipse class="e" cx="2.3" cy="2.9" rx="2.3" ry="2.9" transform="translate(125.2 69.8)"/><path class="e" d="M92.1,68.4a8.13,8.13,0,0,1,1.7-1,8.389,8.389,0,0,1,1.9-.7,15.537,15.537,0,0,1,2.3-.5,4.869,4.869,0,0,1,1.2-.1c.4-.1.8,0,1.1-.1h1.1a3.4,3.4,0,0,1,1,.1,10.625,10.625,0,0,1,1.4.3,1.75,1.75,0,0,0,.5.1h-1.9c-.6,0-1.3.1-2,.1a16.6,16.6,0,0,0-2.2.3A44.493,44.493,0,0,0,92.1,68.4Z"/><path class="e" d="M123.6,70.4a4.855,4.855,0,0,1,1-.9,6.348,6.348,0,0,1,1.2-.7,8.331,8.331,0,0,1,1.5-.4,4.3,4.3,0,0,1,1.6,0,1.445,1.445,0,0,1,.7.2l.6.3c.4.2.6.4.8.5a1.238,1.238,0,0,1,.3.2,1.577,1.577,0,0,1-.4-.1,2,2,0,0,0-.9-.2c-.4-.1-.8-.1-1.3-.2a6.6,6.6,0,0,0-1.4.1,5.768,5.768,0,0,0-1.4.3c-.4.1-.9.3-1.2.4C124.1,70.2,123.6,70.4,123.6,70.4Z"/><path class="h" d="M109.1,89.1a14.958,14.958,0,0,1,4.5,0c3.5.3,4.3,2.2,10.1,1.2a4.238,4.238,0,0,0,3-1.6c-2.1,4.1-3.9,5.4-8,4.5A25.86,25.86,0,0,1,109.1,89.1Z"/><path class="f" d="M67.7,75.1,74,71.9s-2.7-6.8,0-10.7,7.5-3.1,5.9-10.4-.4-12.6,5.6-13.2c6.1-.6,13.6,7.7,24.1,9.6s12.1,1.7,18.8-.8,7.4,18.8,7.4,18.8L139.7,53s3.2-3,3.4-4.5l-3.2-.2s6.2-4,3.2-10.7S133,20.8,130.5,21l-2.5.2s1-1.1-3.1-4S117,8.7,105.9,8,90.4,8,90.4,8s-8.8-.8-10.7,1.9l-1.9,2.7s-6.1-3.8-10-.8S65,20.2,59.2,21c0,0-1.3,4.8-4.4,4.4v3.4s-3.1,3.7-3.1,6.7S54.6,44,54.4,48s-.8,7.3,0,10.2S60.4,66.4,67.7,75.1Z"/><path class="l" d="M67.7,75.1,74,71.9s-2.7-6.8,0-10.7,7.5-3.1,5.9-10.4-.4-12.6,5.6-13.2c6.1-.6,13.6,7.7,24.1,9.6s12.1,1.7,18.8-.8,7.4,18.8,7.4,18.8L139.7,53s3.2-3,3.4-4.5l-3.2-.2s6.2-4,3.2-10.7S133,20.8,130.5,21l-2.5.2s1-1.1-3.1-4S117,8.7,105.9,8,90.4,8,90.4,8s-8.8-.8-10.7,1.9l-1.9,2.7s-6.1-3.8-10-.8S65,20.2,59.2,21c0,0-1.3,4.8-4.4,4.4v3.4s-3.1,3.7-3.1,6.7S54.6,44,54.4,48s-.8,7.3,0,10.2S60.4,66.4,67.7,75.1Z"/><path class="f" d="M69.3,74.3s-.8-6.5-3.9-10.6-6.1-6.3-7.9,0c-1.9,6.3.4,17.6,4,21.4a14.5,14.5,0,0,0,8.8,4.1Z"/><path class="j" d="M128.8,106.1a4.53,4.53,0,0,0,.1-.8A2.767,2.767,0,0,0,128.8,106.1Z"/><path class="h" d="M104.3,100.7a61.413,61.413,0,0,1,10.3-2.5,32.263,32.263,0,0,1,3.3.6c.7,0,2.2-.7,2.9-.6,4.5.6,5.9,3.1,5.9,3.1s-2.8-.1-6.5-.2c-.7,0-1.5.2-2.3.2-1.4,0-2.8-.2-4.2-.2C110.2,101,106.8,100.5,104.3,100.7Z"/></g></g></svg>