<svg id="illustrations" xmlns="http://www.w3.org/2000/svg" viewBox="0 0 180 180"><defs><style>.cls-1{fill:#6ed3f3;}.cls-2{fill:#848aa0;}.cls-3{fill:#091440;}.cls-4{fill:#fff;}</style></defs><title>dcr_portraits5</title><circle id="_Path_" data-name="&lt;Path&gt;" class="cls-1" cx="90" cy="90" r="90"/><path class="cls-2" d="M100.41,12.53c-18.56-1.55-35,4.5-43.77,22S38.86,67.75,32.16,90.59c-6,20.31-7.08,35.4,2.81,50.73l20.32-8.88s4.49-4.86,8.1-14c2.19-5.56,2.9-12.92,3.11-17.93-2.58.19-5.45.82-8.39-4.57A20.67,20.67,0,0,1,56.24,81s1.91,1.3,5.89,1.3c0,0,7.21,0,9.93-10.61s2.73-21.25,9.1-29.46C85.2,37,96.95,31,113.11,36.94S129,47.64,131,58.88c.51,2.85.88,5.56,1.14,8.23a6.55,6.55,0,0,0-5.26-3.23c-4.52-.48-9.26.83-11.21,4.92-.93,2,5.26-.66,9.68-1.89a8.54,8.54,0,0,1,6.85.73c.73,7.66.61,15.15.35,25.35-.36,14-4.2,17.69-9.61,26.08-5.79,9-8.09,12-13.27,12.82-1,1.89-2.11,4-3.05,5.85L138,151.28c.06-13.68,1.87-33.52,3.79-68C145.21,21.32,110.9,13.4,100.41,12.53Z"/><path class="cls-3" d="M104.63,142.16h0c-1.75,4.49-3.74,8.71-6.86,15.51-2.39,5.21-8.28,5.35-13.42,2.81-21-10.36-29.05-28-29.05-28L35,141.31l-14.19,6.2a90,90,0,0,0,129.68,9.15L138,151.28l-31.34-13.53C105.78,139.48,105,141,104.63,142.16Z"/><path class="cls-4" d="M84.35,160.48c5.14,2.54,11,2.4,13.42-2.81,3.12-6.8,5.11-11,6.86-15.51-15-1.24-23.18-11.56-27.62-22.85,4.79,3.94,10.21,6.66,14.76,9.38,6.08,3.63,6.3,3.44,14.3,3.44a24.07,24.07,0,0,0,3.62-.23c5.18-.79,7.49-3.85,13.27-12.82,5.41-8.39,9.25-12.1,9.61-26.08.26-10.2.38-17.68-.35-25.35a8.54,8.54,0,0,0-6.85-.73c-4.41,1.23-10.6,3.84-9.68,1.89,1.95-4.1,6.69-5.41,11.21-4.92a6.55,6.55,0,0,1,5.26,3.23c-.27-2.67-.64-5.37-1.14-8.23-2-11.24-1.76-16-17.92-21.94S85.2,37,81.17,42.2c-6.37,8.21-6.38,18.87-9.1,29.46s-9.93,10.61-9.93,10.61c-4,0-5.89-1.3-5.89-1.3a20.67,20.67,0,0,0,1.87,14.95c2.94,5.39,5.81,4.76,8.39,4.57-.21,5-.92,12.36-3.11,17.93-3.61,9.16-8.1,14-8.1,14S63.39,150.12,84.35,160.48Zm8.71-87.59a2.56,2.56,0,1,1-5-.7l-.92.14a14.27,14.27,0,0,0-4.07,1.24,7.14,7.14,0,0,1,3.64-2.74,14.33,14.33,0,0,1,2.21-.65A11.2,11.2,0,0,1,90.17,70a10.48,10.48,0,0,1,1.24.07,10.17,10.17,0,0,1,4.36,1.76A11.22,11.22,0,0,1,99,75.06c-1.36-.67-2.65-1.3-3.94-1.85a17.55,17.55,0,0,0-2-.73A2.55,2.55,0,0,1,93.05,72.88Zm17.27,37.43c-12.78.66-17.78-6.43-17.78-6.43s7.65-1.76,13.19-1.15,5.06.54,8.37.2a42.7,42.7,0,0,1,8,.27S119.84,109.82,110.32,110.31Zm7-39.09a7.62,7.62,0,0,1,4-1.83,7.75,7.75,0,0,1,7.53,3.41,17.57,17.57,0,0,0-3.69-1.28,11,11,0,0,0-2-.23,2.57,2.57,0,1,1-4.53,1l-.42.2A27.19,27.19,0,0,0,115,74.72,8,8,0,0,1,117.36,71.22Zm2,22.26c-.32,3.93-4.92,5.76-9.86,4.46-7.66-2-9.28-4.39-9.28-4.39a59.81,59.81,0,0,0,11.14,2A13.87,13.87,0,0,0,119.37,93.48ZM92.49,63.84c5,1.3,10.52,2.34,10.24,4.82-.36,3.13-1.56,1.64-7.4-.57a31.52,31.52,0,0,0-17.07-1.84C82.24,63.13,87.51,62.54,92.49,63.84Z"/><path class="cls-2" d="M106.07,132.13c-8,0-8.22.18-14.3-3.44-4.56-2.72-10-5.44-14.76-9.38,4.44,11.29,12.61,21.61,27.62,22.85h0c.42-1.12,1.15-2.68,2-4.41.94-1.89,2-4,3.05-5.85A24.07,24.07,0,0,1,106.07,132.13Z"/><path class="cls-3" d="M118.67,72.29a2.55,2.55,0,1,0,4.53-1,11,11,0,0,1,2,.23,17.57,17.57,0,0,1,3.69,1.28,7.75,7.75,0,0,0-7.53-3.41,7.62,7.62,0,0,0-4,1.83,8,8,0,0,0-2.34,3.5,27.19,27.19,0,0,1,3.24-2.22Z"/><path class="cls-2" d="M95.33,68.09c5.83,2.21,7,3.7,7.4.57.28-2.48-5.26-3.52-10.24-4.82s-10.24-.71-14.23,2.41A31.52,31.52,0,0,1,95.33,68.09Z"/><path class="cls-3" d="M99,75.06a11.22,11.22,0,0,0-3.19-3.22,10.17,10.17,0,0,0-4.36-1.76A10.48,10.48,0,0,0,90.17,70a11.2,11.2,0,0,0-1.23.16,14.33,14.33,0,0,0-2.21.65,7.14,7.14,0,0,0-3.64,2.74,14.27,14.27,0,0,1,4.07-1.24l.92-.14a2.57,2.57,0,1,0,4.9.29,17.55,17.55,0,0,1,2,.73C96.31,73.76,97.6,74.39,99,75.06Z"/><path class="cls-2" d="M109.51,97.94c4.94,1.31,9.54-.52,9.86-4.46a13.87,13.87,0,0,1-8,2.06,59.81,59.81,0,0,1-11.14-2S101.85,95.91,109.51,97.94Z"/><path class="cls-3" d="M119,104.19s-.35,4.35-5.76,5.09-13-.83-16.41-2.88C94.41,104.9,94,104.26,94,104l-1.48-.14s5,7.09,17.78,6.43c9.52-.49,11.75-7.11,11.75-7.11a9.38,9.38,0,0,0-3,1Z"/><path class="cls-4" d="M96.89,106.4c3.38,2.05,11,3.62,16.41,2.88s5.76-5.09,5.76-5.09h0c-2.14,1-4.33,2.42-8.18,2.19-5.6-.34-8.64-1.49-12.36-1.89L94,104C94,104.26,94.41,104.9,96.89,106.4Z"/><path class="cls-2" d="M114.1,102.93c-3.31.34-2.84.41-8.37-.2s-13.19,1.15-13.19,1.15L94,104l4.49.47c3.71.41,6.75,1.55,12.36,1.89,3.85.23,6-1.16,8.18-2.19a9.38,9.38,0,0,1,3-1A42.7,42.7,0,0,0,114.1,102.93Z"/></svg>