<svg xmlns="http://www.w3.org/2000/svg" viewBox="0 0 180 180"><defs><style>.cls-1{fill:#2f74fb;}.cls-2{fill:#091440;}.cls-3{fill:#fff;}.cls-4{fill:#848aa0;}</style></defs><title>esizedave</title><g id="illustrations_c"><circle id="_Path_" data-name="&lt;Path&gt;" class="cls-1" cx="90" cy="90" r="90"/><path class="cls-2" d="M109.93,126.26a56.82,56.82,0,0,1-1.6,6.47h0c-2.79,8.7-9.48,19.33-28.26,15.75-12.2-2.32-22.6-15.78-20.91-20.59a33.93,33.93,0,0,0,1.36-5.59L17.2,142.92a90,90,0,0,0,142.3,4.26Z"/><path class="cls-2" d="M63.13,73.08a3.87,3.87,0,0,1,1.74,2.64c-.15-6.44.07-14.16,5.19-18.47-3.68-3.74-4.17-10.26-2-15.11S85,37.45,91.25,39.86s17.4,2.78,23.2,0c6,4.71,5.43,14.62,5.92,20,.21,2.39.43,4,.58,5.37-.75-1.2-2.44-1.72-4.52-1.35-2.87.5-7.54,1.29-10.63,4.24,0,0,.36,1.72,1.94,1.58s8.69-1.51,11.06-1.51S121,69.75,121,69.75c0,.38-.11.79-.16,1.23.7-3.34,1.2-5.61,1.85-8.17,1.87-7.28,5.38-20.9,0-27.78,2.36-3,0-9.54,0-9.54a12.5,12.5,0,0,1-1.87,3.86c0-8.81-5.13-12.74-8.48-14.94L109,12.2s2.18,3.14,2.3,4.71c-6.4-5.67-11.47-3.26-19.69-.48s-8.4,1.22-17.06,3.64S65.17,28,61.3,33.46s-11.81,9.8-10.36,21.63A117.3,117.3,0,0,0,55,73.55C57.39,70.82,59,70.77,63.13,73.08Z"/><path class="cls-3" d="M80.07,148.48c18.78,3.58,25.47-7,28.26-15.75-3.45.94-7.69,2-12.88-.19-6.81-2.93-10.94-7.9-18.4-15.73h0c3.55,1.83,7.13,3.33,9.75,5,6.4,4,11.21,5.25,19,4a10.76,10.76,0,0,0,4.56-1.77l-.21,1.16a65.78,65.78,0,0,1-1.82,7.6,56.82,56.82,0,0,0,1.6-6.47c.08-.4.15-.79.22-1.13l.21-1.16c2.5-1.74,4.36-4.78,6.26-9.74,2.9-7.57,7.73-20,5.56-28.71C120.3,78,120.54,73.79,120.87,71c0-.44.11-.85.16-1.23,0,0,.14-1.51-2.23-1.51s-9.48,1.36-11.06,1.51-1.94-1.58-1.94-1.58c3.09-3,7.76-3.74,10.63-4.24,2.08-.37,3.77.15,4.52,1.35-.15-1.33-.37-3-.58-5.37-.49-5.43.12-15.34-5.92-20-5.8,2.78-16.93,2.42-23.2,0s-21-2.57-23.18,2.28-1.69,11.37,2,15.11c-5.12,4.31-5.34,12-5.19,18.47a3.87,3.87,0,0,0-1.74-2.64c-4.09-2.31-5.74-2.26-8.12.47l-.18.21c-2.76,3.26,0,12.81,1.59,15.44,1.1,1.88,2.83,4.4,5,5.51.3,6,.64,18.48-.9,27.59a33.93,33.93,0,0,1-1.36,5.59C57.47,132.7,67.87,146.16,80.07,148.48Zm5-74.63a2.1,2.1,0,1,1-4-1c-.31.07-.63.16-1,.26-.65.18-1.31.35-1.94.56a5.84,5.84,0,0,0-1.86.82,3.88,3.88,0,0,1,1.39-1.69,12.1,12.1,0,0,1,1.83-1.14,11.91,11.91,0,0,1,2-.86,8.84,8.84,0,0,1,2.22-.39,10.11,10.11,0,0,1,4.37.75,7.6,7.6,0,0,1,3.45,2.61,19.75,19.75,0,0,0-3.89-1.12,17.2,17.2,0,0,0-3.18-.26A2,2,0,0,1,85.09,73.85Zm11.54,38a64.17,64.17,0,0,0,9.33-.34C103.47,115,99.55,113.79,96.63,111.88Zm14.76-9.31s-3,3.13-9.63,3.38-9.64-1.87-13.53-3.31l1.66-.38c1.65-.38,7-1.67,9.92-1.67,2.47,0,3.13.93,5,.64,1.19-.17,1.85-1,5.31-.93S112.43,102.08,111.39,102.57Zm-6.86-6.86c-3.89.34-8.57-.64-10.48-3.28-1.59-2.2-.48-1.44-.48-1.44,3.81,2.37,13.58,1.91,19.11-.42A9.74,9.74,0,0,1,104.53,95.71ZM109.72,71a8.89,8.89,0,0,1,3-1,6.18,6.18,0,0,1,3.32.46,3.59,3.59,0,0,1,2.05,2.55A5.6,5.6,0,0,0,115.57,72a8.91,8.91,0,0,0-2.19,0,2.1,2.1,0,1,1-4,.82l0-.19a16.35,16.35,0,0,1-2.19.28A8.77,8.77,0,0,1,109.72,71ZM78.43,63.61c5.8-1,12.21,1.39,16.78,3.57,0,0,.64,3.64-2.29,3.12-3.53-.63-12.6-2.73-14.72-2.76s-4.18.36-8.14,4.15C70.9,68.24,72.63,64.55,78.43,63.61Z"/><path class="cls-4" d="M110.15,125.13l.21-1.16a10.76,10.76,0,0,1-4.56,1.77c-7.8,1.26-12.61,0-19-4-2.62-1.62-6.2-3.12-9.75-5h0c7.46,7.83,11.59,12.8,18.4,15.73,5.19,2.23,9.43,1.13,12.88.19h0A65.78,65.78,0,0,0,110.15,125.13Z"/><path class="cls-2" d="M109.39,72.84a2.1,2.1,0,1,0,4-.82,8.91,8.91,0,0,1,2.19,0,5.6,5.6,0,0,1,2.55,1.06,3.59,3.59,0,0,0-2.05-2.55,6.18,6.18,0,0,0-3.32-.46,8.89,8.89,0,0,0-3,1,8.77,8.77,0,0,0-2.49,1.9,16.35,16.35,0,0,0,2.19-.28Z"/><path class="cls-2" d="M92.92,70.3c2.93.52,2.29-3.12,2.29-3.12-4.57-2.18-11-4.52-16.78-3.57s-7.53,4.63-8.37,8.08c4-3.79,6-4.17,8.14-4.15S89.39,69.67,92.92,70.3Z"/><path class="cls-2" d="M87.75,72.64a19.75,19.75,0,0,1,3.89,1.12,7.6,7.6,0,0,0-3.45-2.61,10.11,10.11,0,0,0-4.37-.75,8.84,8.84,0,0,0-2.22.39,11.91,11.91,0,0,0-2,.86,12.1,12.1,0,0,0-1.83,1.14,3.88,3.88,0,0,0-1.39,1.69,5.84,5.84,0,0,1,1.86-.82c.63-.21,1.29-.38,1.94-.56.32-.1.64-.19,1-.26a2.1,2.1,0,1,0,4,1,2,2,0,0,0-.52-1.47A17.2,17.2,0,0,1,87.75,72.64Z"/><path class="cls-4" d="M93.57,91s-1.11-.76.48,1.44c1.91,2.64,6.59,3.62,10.48,3.28a9.74,9.74,0,0,0,8.15-5.14C107.15,92.9,97.38,93.36,93.57,91Z"/><path class="cls-4" d="M110.14,100.3c-3.46-.08-4.12.76-5.31.93-1.89.29-2.55-.64-5-.64-2.88,0-8.27,1.29-9.92,1.67l-1.66.38c1.52,0,3.34,0,5.3,0h15.41l0,.05c1,0,1.81,0,2.49-.05C112.43,102.08,113.6,100.37,110.14,100.3Z"/><path class="cls-2" d="M103.69,104.75c-3.94.56-6.86-.48-10.16-2.16-2,0-3.78,0-5.3,0,3.89,1.44,6.85,3.56,13.53,3.31s9.63-3.38,9.63-3.38c-.68,0-1.53,0-2.49.05C108.66,102.88,107.26,104.25,103.69,104.75Z"/><path class="cls-2" d="M93.88,102.58h0Z"/><path class="cls-3" d="M103.69,104.75c3.57-.5,5-1.87,5.21-2.13l0-.05H93.53C96.83,104.27,99.75,105.31,103.69,104.75Z"/><path class="cls-4" d="M106,111.54a64.17,64.17,0,0,1-9.33.34C99.55,113.79,103.47,115,106,111.54Z"/></g></svg>