<svg id="illustrations" xmlns="http://www.w3.org/2000/svg" viewBox="0 0 180 180"><defs><style>.cls-1{fill:#2f74fb;}.cls-2{fill:none;}.cls-3{fill:#091440;}.cls-4{fill:#fff;}.cls-5{fill:#848aa0;}</style></defs><title>dcr_portraits5</title><circle id="_Path_" data-name="&lt;Path&gt;" class="cls-1" cx="90" cy="90" r="90"/><path class="cls-2" d="M127.94,79.38c.94-.17,1.88-.36,2.82-.59,4.4-1,4.12-7,3.92-9.28,0-.26-.05-.48-.08-.69l-8.75.54a59.52,59.52,0,0,0,1.46,7.39C127.55,77.68,127.76,78.55,127.94,79.38Z"/><path class="cls-2" d="M125.14,59.24a26.23,26.23,0,0,0-1.85-8A31,31,0,0,1,125.14,59.24Z"/><polygon class="cls-2" points="114.68 37.64 114.68 37.64 114.69 37.65 114.68 37.64"/><path class="cls-2" d="M132,66.18a7.29,7.29,0,0,0-1.92-.43q-.78-.07-1.69-.1c-.85,0-1.84,0-2.9,0,0,.51.07,1,.11,1.55Z"/><path class="cls-3" d="M108.32,128.61h0L106.8,138h0c-.24,1.53-.28,1.69-.7,4.7-1,7-6.59,10.48-12.43,10.48-15.51,0-41.06-10-35.72-23.35.4-1,.74-2,1.06-2.92L18.45,144.59a90,90,0,0,0,138.85,5.16Z"/><path class="cls-4" d="M93.66,153.14c5.83,0,11.42-3.44,12.43-10.48.43-3,.47-3.18.7-4.7l-6.22-1.65c-4.53-1.2-14.21-5.59-21.7-14.78a59.14,59.14,0,0,0,14,4.77,84.55,84.55,0,0,0,15.47,2.32h0c8.95.28,12.39-2.6,14.61-7.37,3.21-6.88,2.83-14,4.66-23.11,1.54-7.68,1.78-11.72.56-17.75-1.06.15-2.18.25-3.34.33-5,.36-6.7-.07-8.82-1.86s-3.28-7.2-3.49-8c-.43-1.2-1-1.37-2.14-1.37-1.52,0-2.67,0-3,1.48-.48,1.94-.77,5.25-3.33,8.12-2,2.2-7,2.87-12.45,2.74-8-.19-10.59-2.07-11.23-4.41s-.76-4.59-1.4-6.06a5,5,0,0,0-1.64-1.64l-13.54,4c.6,4.48,3,9.31,3.17,14.31a40.62,40.62,0,0,1-4.15.72,11.24,11.24,0,0,0-2.38-5.46c-3.81-4.72-5.15-7.86-10.24-6.48a7.15,7.15,0,0,0-.77.27c-4.89,1.92-3.75,8.1-1.77,15.39,2.08,7.65,6.66,11,12.15,7.75a5.13,5.13,0,0,0,.42-.29c1.23,9.6,2,17.28-1.16,26.94-.32,1-.66,1.92-1.06,2.92C52.61,143.19,78.15,153.14,93.66,153.14Zm22.51-41.66a7.44,7.44,0,0,1-6.08.32c-2.17-.93,1.75-1.58,4.68-1.86C117.51,109.68,117.08,110.77,116.17,111.48ZM100.59,93c12.9.33,20.63-1.89,20.63-1.89a12.15,12.15,0,0,1-8.35,4.82C107.46,96.4,97,92.89,100.59,93Zm8.87,8.49c2.11-.16,3.54,1.36,4.9.75s3.8-1.88,4.9-.26a4.28,4.28,0,0,0,1.71,1.43s-1.68.89-7.3,1.18-16.78.8-16.78.8C102.13,104.93,104.83,101.82,109.46,101.47Z"/><path class="cls-5" d="M92.85,126.29a59.14,59.14,0,0,1-14-4.77c7.5,9.19,17.18,13.58,21.7,14.78l6.22,1.65h0l1.51-9.34A84.55,84.55,0,0,1,92.85,126.29Z"/><path class="cls-4" d="M127.94,79.38c-.18-.83-.39-1.7-.63-2.63a59.52,59.52,0,0,1-1.46-7.39c-.09-.74-.17-1.45-.22-2.14,0-.52-.08-1-.11-1.55-4.64.18-10.57,1-11.36,2.27s.36,4.1.92,6.72C116.17,80.13,121.83,80.47,127.94,79.38Zm-9.87-8.68a6.24,6.24,0,0,1,3.1-.76,5.22,5.22,0,0,1,3.14,1,3.39,3.39,0,0,1,1.45,2.8,5.52,5.52,0,0,0-2.22-1.43,6,6,0,0,0-1-.24,2.24,2.24,0,0,1,0,.39,2.68,2.68,0,0,1-5.34.27,3.63,3.63,0,0,0-.84.63A3.05,3.05,0,0,1,118.07,70.7Z"/><path class="cls-4" d="M114.69,37.65h0c-4.63,2.56-6,4.47-18.77.86s-30,5-28.24,14.07c1.41,7.23,4.82,5.83-1.41,12.46a9.35,9.35,0,0,0-2.67,6.18c6.55-2.33,13-4.58,13-4.58a57.16,57.16,0,0,1,14.72-2.15c7.67,0,12.65,2,18,2s9.62-1.71,16-1.95a2.17,2.17,0,0,0-2.43-1.4,49.46,49.46,0,0,0-8.16,1.68c-.8-3.67,3.09-5,6.24-5.35a4.63,4.63,0,0,1,4.21,1.37c0-.51-.07-1-.12-1.58a31,31,0,0,0-1.85-8C121.22,46,117.8,41.55,114.69,37.65ZM101.93,64c-2.58-.6-10.07-2.28-14.57-2A22.43,22.43,0,0,0,78.55,65s2.16-4.32,5.52-5.94,5.46-1.32,12.65,0S101.93,64,101.93,64Z"/><path class="cls-4" d="M91.53,80.43c8.82.18,11-1.35,12.25-3.22a16.46,16.46,0,0,0,1.25-3c.56-2.17,1.15-3.82,1-4.73-.34-2.3-9.08-4-17.83-3.57a20.48,20.48,0,0,0-4,.58,3.58,3.58,0,0,0-2.72,3.39c0,.85.05,1.85.13,3C81.85,76.89,82.71,80.25,91.53,80.43ZM88,70.62a12.75,12.75,0,0,1,4.1-1,10.37,10.37,0,0,1,4.28.49,4.87,4.87,0,0,1,1.91,1.22,6.52,6.52,0,0,1,1.11,1.82c-.62-.35-1.14-.8-1.71-1A5.39,5.39,0,0,0,96,71.6a15.16,15.16,0,0,0-2.54-.07,1.89,1.89,0,0,1,.18.86,2.69,2.69,0,0,1-5.37,0,2.07,2.07,0,0,1,0-.22c-1.22.23-2.44.53-3.76.76A11.26,11.26,0,0,1,88,70.62Z"/><path class="cls-5" d="M112.87,95.92a12.15,12.15,0,0,0,8.35-4.82s-7.73,2.22-20.63,1.89C97,92.89,107.46,96.4,112.87,95.92Z"/><path class="cls-5" d="M121,103.39a4.28,4.28,0,0,1-1.71-1.43c-1.1-1.62-3.54-.36-4.9.26s-2.79-.91-4.9-.75c-4.63.35-7.33,3.46-12.56,3.9,0,0,11.16-.5,16.78-.8S121,103.39,121,103.39Z"/><path class="cls-5" d="M114.76,109.94c-2.93.27-6.84.93-4.68,1.86a7.44,7.44,0,0,0,6.08-.32C117.08,110.77,117.51,109.68,114.76,109.94Z"/><path class="cls-3" d="M88.29,72.37a2.69,2.69,0,0,0,5.37,0,1.89,1.89,0,0,0-.18-.86A15.16,15.16,0,0,1,96,71.6a5.39,5.39,0,0,1,1.71.49c.56.24,1.09.7,1.71,1a6.52,6.52,0,0,0-1.11-1.82,4.87,4.87,0,0,0-1.91-1.22,10.37,10.37,0,0,0-4.28-.49,12.75,12.75,0,0,0-4.1,1,11.26,11.26,0,0,0-3.49,2.29c1.32-.23,2.55-.53,3.76-.76A2.07,2.07,0,0,0,88.29,72.37Z"/><path class="cls-3" d="M119.82,75.09a2.69,2.69,0,0,0,2.7-2.67,2.24,2.24,0,0,0,0-.39,6,6,0,0,1,1,.24,5.52,5.52,0,0,1,2.22,1.43,3.39,3.39,0,0,0-1.45-2.8,5.22,5.22,0,0,0-3.14-1,6.24,6.24,0,0,0-3.1.76,3.05,3.05,0,0,0-1.73,2.63,3.63,3.63,0,0,1,.84-.63A2.68,2.68,0,0,0,119.82,75.09Z"/><path class="cls-3" d="M96.71,59.07c-7.19-1.32-9.29-1.62-12.65,0S78.55,65,78.55,65a22.43,22.43,0,0,1,8.81-2.94c4.5-.3,12,1.38,14.57,2C101.93,64,103.91,60.39,96.71,59.07Z"/><path class="cls-3" d="M60.35,83.29a11.24,11.24,0,0,1,2.38,5.46A40.62,40.62,0,0,0,66.88,88c-.2-5-2.57-9.83-3.17-14.31l13.54-4a5,5,0,0,1,1.64,1.64c.64,1.47.77,3.76,1.4,6.06s3.25,4.21,11.23,4.41C97,81.92,102,81.25,104,79.05c2.56-2.87,2.86-6.18,3.33-8.12.38-1.45,1.53-1.48,3-1.48,1.18,0,1.71.17,2.14,1.37.21.83,1.38,6.25,3.49,8s3.79,2.21,8.82,1.86c1.16-.08,2.28-.18,3.34-.33,3.85-.54,6.8-1.74,7.33-5.29.21-1.44.86-5.21.94-5.69a1.33,1.33,0,0,1,.27-.46l.6-.58-.22-2.72a43.68,43.68,0,0,0-11.22-1.15,2.51,2.51,0,0,0,.25-1.61,3.64,3.64,0,0,0-.85-2.07A4.63,4.63,0,0,0,121,59.46c-3.16.35-7,1.68-6.24,5.35A49.46,49.46,0,0,1,123,63.12a2.17,2.17,0,0,1,2.43,1.4c-6.39.24-10.67,1.95-16,1.95s-10.36-2-18-2a57.16,57.16,0,0,0-14.72,2.15s-6.49,2.24-13,4.58A9.35,9.35,0,0,1,66.26,65c6.23-6.63,2.81-5.22,1.41-12.46C65.9,43.49,83.15,34.88,95.91,38.5s14.14,1.7,18.77-.86h0c3.11,3.9,6.53,8.39,8.6,13.61a26.23,26.23,0,0,1,1.85,8c0-9.89.62-10.09.61-14.31s-7.84-26.33-31-26.12S60.63,30.06,51,41.31C41.51,52.37,48.57,68.8,50,76.41a4,4,0,0,0-.69.66,7.15,7.15,0,0,1,.77-.27C55.2,75.44,56.54,78.57,60.35,83.29Zm53.81-15.35c.79-1.23,6.72-2.08,11.36-2.27,1.06,0,2.05-.05,2.9,0q.91,0,1.69.1a7.29,7.29,0,0,1,1.92.43l-6.4,1c.06.69.13,1.39.22,2.14l8.75-.54c0,.21.06.43.08.69.2,2.25.47,8.26-3.92,9.28-.94.22-1.89.42-2.82.59-6.11,1.09-11.77.75-12.85-4.72C114.53,72,113.47,69,114.17,67.94Zm-30-1.46a20.48,20.48,0,0,1,4-.58c8.74-.41,17.48,1.27,17.83,3.57.14.92-.45,2.56-1,4.73a16.46,16.46,0,0,1-1.25,3c-1.29,1.87-3.43,3.4-12.25,3.22s-9.68-3.54-9.94-7.59c-.07-1.13-.14-2.12-.13-3A3.58,3.58,0,0,1,84.18,66.48Z"/></svg>