<svg xmlns="http://www.w3.org/2000/svg" viewBox="0 0 180 180"><defs><style>.cls-1{fill:#2f74fb;}.cls-2{fill:#091440;}.cls-3{fill:#fff;}.cls-4{fill:#848aa0;}</style></defs><title>Asset 7</title><g id="Layer_2" data-name="Layer 2"><g id="illustrations"><g id="_Group_" data-name="&lt;Group&gt;"><circle id="_Path_" data-name="&lt;Path&gt;" class="cls-1" cx="90" cy="90" r="90"/><g id="_Group_2" data-name="&lt;Group&gt;"><path id="_Path_2" data-name="&lt;Path&gt;" class="cls-2" d="M-73.16-65.22l-.86,4s-3,7.94-20,9.2A35.51,35.51,0,0,1-124-64.53a5.7,5.7,0,0,1-1.09-5.3l0-.06L-174-49v.22A89.93,89.93,0,0,0-100-10,89.91,89.91,0,0,0-26-48.75L-72.78-67Z" transform="translate(190 190)"/><path id="_Compound_Path_" data-name="&lt;Compound Path&gt;" class="cls-3" d="M-124-64.53A35.51,35.51,0,0,0-94-52c17-1.26,20-9.2,20-9.2l.86-4h0c-2.25,7.1-13.63,10.07-21.79,6.43-10.85-4.82-17.3-16.46-20.3-23.32a20,20,0,0,0,2,1.8c10.64,8.51,16.83,15.47,25.34,15.47,6,0,9,.06,11.78-1.35a17.63,17.63,0,0,0,3.8-2.75c3.89-3.56,7.85-9.3,9.32-14.55,2.22-7.9,4.83-26.24,3.76-31.1-.75-3.4-.59-4.58-.32-8,0,0-1-3-5-2.53S-70.34-123.38-71-124s1.73-4.28,4.13-4.88c5-1.25,6.09-.8,7.19,0a2,2,0,0,1,.44.44c.26-8.59-3-18.4-7.26-23.61L-68-153.64s-.52,1.61-12.81,2.25c-15.7.82-21.58-5.51-21.58-5.51s-4.06,1.55-8.31,7.35.58,8.9-4.65,16.83-1,18.14-1,18.14h-2.93c0-.18-.05-.37-.08-.56,0,0-3.58-10.4-8.28-10.74h-.07c-4.62-.21-4.06,10.43-2.73,14.88,1.28,4.25,2.06,11.68,7,12.19.12,4.06.48,17.29,0,21.43A52.07,52.07,0,0,1-125-69.89l0,.06A5.7,5.7,0,0,0-124-64.53ZM-91.85-120l-.61-.16c-.21,0-.42-.1-.64-.13a8,8,0,0,0-1.21-.15,1.91,1.91,0,0,1,.11.62,2.72,2.72,0,0,1-2.72,2.72,2.72,2.72,0,0,1-2.72-2.72.43.43,0,0,1,0-.11,2.63,2.63,0,0,0-.3.08c-.39.13-.76.26-1.1.41a10,10,0,0,0-2.2,1.3,3.56,3.56,0,0,1,.3-.7,5.84,5.84,0,0,1,1.27-1.55,5.91,5.91,0,0,1,1.1-.81,7.36,7.36,0,0,1,1.38-.67c.25-.09.51-.18.77-.25a6.84,6.84,0,0,1,.81-.19,12.49,12.49,0,0,1,1.7-.18,10.54,10.54,0,0,1,1.63.11,7.43,7.43,0,0,1,1.61.39,6,6,0,0,1,1.41.63,5.65,5.65,0,0,1,1.11.8A5.71,5.71,0,0,1-88.85-119a2.91,2.91,0,0,1,.3.7,9.74,9.74,0,0,0-2.2-1.29C-91.09-119.7-91.46-119.84-91.85-120ZM-73-83.49c-4.29,4.28-7.19,6.49-13.41,0A19.72,19.72,0,0,0-73-83.49Zm3.23-4.79h0a39.45,39.45,0,0,1-9.94,1.45,53.33,53.33,0,0,1-13.14-1.39h0c-1.39-.3-2.34-.6-3.3,0a4.61,4.61,0,0,1,1.61-2.33,2.12,2.12,0,0,0,2,1.56c3.22-.22,8.49-.57,10.22-.65,2.56-.1,3.55.61,3.55.61a12.35,12.35,0,0,1,5-.57c1.17.08,2.24.21,3.13.34a1.54,1.54,0,0,0,1.56-1,10.44,10.44,0,0,1,1.34,2.07A3.41,3.41,0,0,0-69.76-88.28Zm-2.48-31a4,4,0,0,1,1.09-1.25,6.28,6.28,0,0,1,2.08-1.08,7.68,7.68,0,0,1,1.28-.29l.33,0,.08,0h.29c.21,0,.39,0,.64,0l.74.06.68.13a7.29,7.29,0,0,1,1.27.43,7,7,0,0,1,1.94,1.25,5.39,5.39,0,0,1,1.36,1.75s-.82-.36-2-.77a18.37,18.37,0,0,0-1.91-.55c-.35-.09-.71-.14-1.07-.2l-.45-.06s0,.09,0,.14a2.72,2.72,0,0,1-2.72,2.72,2.72,2.72,0,0,1-2.67-2.23A7.05,7.05,0,0,0-72-119a3.12,3.12,0,0,0-.51.3A2.12,2.12,0,0,1-72.24-119.25ZM-70.65-100s-2.91,3-9,3-9-3-9-3C-79.16-99.77-70.65-100-70.65-100ZM-99.3-130c6.5-.09,10.89,1.18,12.16,3.62s-2.72,2-6,1.57c-7.71-1.06-9.57-.83-16.34.84C-107.55-127.32-105.79-129.92-99.3-130Z" transform="translate(190 190)"/><path id="_Path_3" data-name="&lt;Path&gt;" class="cls-4" d="M-76.16-66.18C-79-64.77-82-64.83-87.94-64.83c-8.51,0-14.7-7-25.34-15.47a20,20,0,0,1-2-1.8c3,6.86,9.45,18.5,20.3,23.32,8.16,3.64,19.54.67,21.79-6.43h0l.38-1.76.42-2A17.63,17.63,0,0,1-76.16-66.18Z" transform="translate(190 190)"/><path id="_Path_4" data-name="&lt;Path&gt;" class="cls-2" d="M-88.85-119a5.71,5.71,0,0,0-1.28-1.55,5.65,5.65,0,0,0-1.11-.8,6,6,0,0,0-1.41-.63,7.43,7.43,0,0,0-1.61-.39,10.54,10.54,0,0,0-1.63-.11,12.49,12.49,0,0,0-1.7.18,6.84,6.84,0,0,0-.81.19c-.26.07-.52.16-.77.25a7.36,7.36,0,0,0-1.38.67,5.91,5.91,0,0,0-1.1.81,5.84,5.84,0,0,0-1.27,1.55,3.56,3.56,0,0,0-.3.7,10,10,0,0,1,2.2-1.3c.34-.15.71-.28,1.1-.41a2.63,2.63,0,0,1,.3-.08.43.43,0,0,0,0,.11,2.72,2.72,0,0,0,2.72,2.72,2.72,2.72,0,0,0,2.72-2.72,1.91,1.91,0,0,0-.11-.62,8,8,0,0,1,1.21.15c.22,0,.43.09.64.13l.61.16c.39.12.76.26,1.1.4a9.74,9.74,0,0,1,2.2,1.29A2.91,2.91,0,0,0-88.85-119Z" transform="translate(190 190)"/><path id="_Path_5" data-name="&lt;Path&gt;" class="cls-2" d="M-71.22-119.29a2.72,2.72,0,0,0,2.67,2.23,2.72,2.72,0,0,0,2.72-2.72s0-.09,0-.14l.45.06c.36.06.72.11,1.07.2a18.37,18.37,0,0,1,1.91.55c1.14.41,2,.77,2,.77a5.39,5.39,0,0,0-1.36-1.75,7,7,0,0,0-1.94-1.25,7.29,7.29,0,0,0-1.27-.43l-.68-.13-.74-.06c-.25,0-.43,0-.64,0h-.29l-.08,0-.33,0a7.68,7.68,0,0,0-1.28.29,6.28,6.28,0,0,0-2.08,1.08,4,4,0,0,0-1.09,1.25,2.12,2.12,0,0,0-.23.58A3.12,3.12,0,0,1-72-119,7.05,7.05,0,0,1-71.22-119.29Z" transform="translate(190 190)"/><path id="_Path_6" data-name="&lt;Path&gt;" class="cls-2" d="M-93.16-124.82c3.3.46,7.32.94,6-1.57S-92.8-130.1-99.3-130s-8.25,2.69-10.2,6C-102.73-125.65-100.87-125.88-93.16-124.82Z" transform="translate(190 190)"/><path id="_Path_7" data-name="&lt;Path&gt;" class="cls-2" d="M-59.72-128.9c-1.1-.79-2.19-1.24-7.19,0-2.4.6-4.84,4.25-4.13,4.88s2.45-.54,6.42-1.06,5,2.52,5,2.53h0a11.19,11.19,0,0,0,.7-2.69c.13-1.43.21-2.47-.38-3.23A2,2,0,0,0-59.72-128.9Z" transform="translate(190 190)"/><path id="_Path_8" data-name="&lt;Path&gt;" class="cls-4" d="M-79.7-96.95c6.14,0,9-3,9-3s-8.51.23-18.09,0C-88.74-100-85.84-96.95-79.7-96.95Z" transform="translate(190 190)"/><path id="_Path_9" data-name="&lt;Path&gt;" class="cls-2" d="M-119.32-115.14c0,.19,0,.38.08.56h2.93s-4.26-10.21,1-18.14.39-11,4.65-16.83,8.31-7.35,8.31-7.35,5.88,6.33,21.58,5.51C-68.52-152-68-153.64-68-153.64l1.46,1.57s0-5-7.73-12.57-14.13-10.25-21.48-10.64c1.2,3.87-6.91,6.19-15.88,10.44s-16.06,14.71-16.45,29.22a67.89,67.89,0,0,0,.41,9.74h.07C-122.9-125.54-119.32-115.14-119.32-115.14Z" transform="translate(190 190)"/><path id="_Path_10" data-name="&lt;Path&gt;" class="cls-4" d="M-70.65-89.26c-.89-.13-2-.26-3.13-.34a12.35,12.35,0,0,0-5,.57s-1-.71-3.55-.61c-1.73.08-7,.43-10.22.65a2.12,2.12,0,0,1-2-1.56,4.61,4.61,0,0,0-1.61,2.33c1-.6,1.91-.3,3.3,0h0A53.33,53.33,0,0,0-79.7-86.83a39.45,39.45,0,0,0,9.94-1.45h0a3.41,3.41,0,0,1,2,.11,10.44,10.44,0,0,0-1.34-2.07A1.54,1.54,0,0,1-70.65-89.26Z" transform="translate(190 190)"/><path id="_Path_11" data-name="&lt;Path&gt;" class="cls-4" d="M-73-83.49a19.72,19.72,0,0,1-13.41,0C-80.18-77-77.28-79.21-73-83.49Z" transform="translate(190 190)"/></g></g></g></g></svg>