<svg xmlns="http://www.w3.org/2000/svg" xmlns:xlink="http://www.w3.org/1999/xlink" viewBox="2959 1642 180 180"><defs><style>.a{fill:#2970ff;}.b{clip-path:url(#a);}.c{fill:#fff;}.d,.e,.g{fill:#091440;}.d{opacity:0.25;}.f{clip-path:url(#b);}.g{opacity:0.5;}</style><clipPath id="a"><circle cx="90" cy="90" r="90"/></clipPath><clipPath id="b"><path d="M109,115.3s-1.5,16.4-1.6,22.4-2.8,4.6-17.5,4.6-23.1,7.1-26.2-14.4-1.3-50.6-1.3-50.6L112.1,81Z"/></clipPath></defs><g transform="translate(2959 1642)"><path class="a" d="M90,0A90,90,0,1,1,0,90,90,90,0,0,1,90,0Z"/><g class="b"><path class="c" d="M140,128.3s-7.2-4.9-4.4-27.5,22.8-70.6-30.9-85.2C71.4,7,71.4,23.3,71.4,23.3S37.3,27.5,36.9,78c-.4,46,26.9,52.8,26.9,52.8l45.2-6.1C109,124.6,120.3,133.8,140,128.3Z"/><path class="d" d="M140,128.3s-7.2-4.9-4.4-27.5,22.8-70.6-30.9-85.2C71.4,7,71.4,23.3,71.4,23.3S37.3,27.5,36.9,78c-.4,46,26.9,52.8,26.9,52.8l45.2-6.1C109,124.6,120.3,133.8,140,128.3Z"/><path class="e" d="M167,200.4H13V148.9l52.8-21.6,41.2.3,60,27.5Z"/><path class="c" d="M109,115.3s-1.5,16.4-1.6,22.4S99.1,151.1,90,151c-12.6-.1-24.9-6.4-26.2-23.2-1.7-21.7-1.3-50.6-1.3-50.6l49.7,3.7Z"/><g class="f"><path class="g" d="M65.2,93s18.6,37.4,39.5,40.9,11.7-25,11.7-25Z"/></g><path class="e" d="M137.2,71.1a6.051,6.051,0,0,1-.1-2.4,10.548,10.548,0,0,1-.6-2.4L110,68.1l4.1,2.1,23.2,1.3C137.2,71.4,137.2,71.3,137.2,71.1Z"/><path class="c" d="M65.2,93.8s4.3,11.7,11.5,18,15.6,12.9,25.5,12.9,11.6-.8,14.2-4.7c2.6-3.8,9.4-19.9,10.8-28s.9-9.5,1.7-14.8c.8-5.2,2.8-12.5.6-18.2-2.3-5.8-3.7-26.2-22-32.5s-27.3-2.7-36.1,6.7S62.8,80.5,65.2,93.8Z"/><path class="e" d="M85.2,71.8a14.367,14.367,0,0,1,2.2-1.7l1.2-.6c.4-.2.9-.4,1.4-.6s1-.3,1.5-.5a9.363,9.363,0,0,1,1.6-.4,12.464,12.464,0,0,1,3.3-.2,1.95,1.95,0,0,1,.8.1l.9.3a5.67,5.67,0,0,1,1.3.8,4.851,4.851,0,0,1,1.2,1.7c.2.5.3.7.3.7a6.122,6.122,0,0,0-.6-.5,7.418,7.418,0,0,0-1.6-1c-.3-.1-.7-.3-1.1-.4a4.331,4.331,0,0,1-.5-.1h-.6a7.569,7.569,0,0,1-1.5.1,7.719,7.719,0,0,0-1.5.2c-.5.1-1,.1-1.5.2l-1.5.3q-1.5.3-2.7.6A25.551,25.551,0,0,1,85.2,71.8Z"/><path class="g" d="M104,91.9a46.739,46.739,0,0,0,16.5,0C114.4,97.3,109.3,96.4,104,91.9Z"/><path class="g" d="M97.6,104.9s10.7-3.8,13-3.8,2.8.8,3.7.8c1,.1,2.5-1.6,4.1-.8s2,3.9,2,3.9a5.2,5.2,0,0,0-2.8-.9c-1.8-.2-2.9.5-4.6.2C109,103.3,100,106.6,97.6,104.9Z"/><path class="g" d="M108.1,109.8s1.9.1,5.1,0l3.2-.1s-.9,2.1-4.1,2.1S106.2,109.7,108.1,109.8Z"/><path class="e" d="M95.9,70.6c0-1.4-1.2-1.8-2.6-1.8s-2.6.4-2.6,1.8a2.6,2.6,0,0,0,5.2,0Z"/><path class="e" d="M124.4,71.7c0-1.4-1.2-1.8-2.6-1.8s-2.6.4-2.6,1.8a2.647,2.647,0,0,0,2.6,2.6A2.582,2.582,0,0,0,124.4,71.7Z"/><path class="g" d="M103.3,65.7s2.2-1.2,1.1-2.9S95,58.3,90.7,59.1a10.093,10.093,0,0,0-6.1,3.2s4.8-2.2,8.7-1.1C99.4,62.9,98.4,65.7,103.3,65.7Z"/><path class="e" d="M117.5,72.5a4.2,4.2,0,0,0,.2-.5,7.293,7.293,0,0,1,.9-1.1,5.552,5.552,0,0,1,1.7-1.1,5.932,5.932,0,0,1,2.3-.5,4.483,4.483,0,0,1,1.2.1,4.234,4.234,0,0,1,1.2.4,2.178,2.178,0,0,1,.9.7,2.7,2.7,0,0,1,.7.8,2.979,2.979,0,0,1,.5,1.4.693.693,0,0,1,0,.5,10.669,10.669,0,0,0-1.5-1c-.4-.2-.9-.4-1.4-.6-.3-.1-.5-.1-.8-.2-.2,0-.8-.1-.9-.1a10.869,10.869,0,0,0-1.8.1,6.221,6.221,0,0,0-1.6.4C118.2,72.2,117.5,72.5,117.5,72.5Z"/><path class="g" d="M118.5,66.9a7.793,7.793,0,0,1,5.9-4.3c4.6-1,6.9.9,5.7,2.2-1.3,1.2-7.3,1.2-7.3,1.2Z"/><path class="e" d="M114.4,66"/><path class="c" d="M81.2,31.5c-5.3,4.7-9.2,8-9.8,20.4s.8,16.2.5,19A69.672,69.672,0,0,1,67,89s.7,31.2,20.1,38.5c-9,7-24.3,7.3-29.5-6.4s-3.9-26.9-2-38.9S59,72,60.1,61.1s.5-19.6,8.4-29.5S85.2,19.3,101,19.7s27.9,16.4,29.4,25.2l1.6,8.8s-19.6,4.6-31-7C86,31.6,81.2,31.5,81.2,31.5Z"/><path class="d" d="M81.2,31.5c-5.3,4.7-9.2,8-9.8,20.4s.8,16.2.5,19A69.672,69.672,0,0,1,67,89s.7,31.2,20.1,38.5c-9,7-24.3,7.3-29.5-6.4s-3.9-26.9-2-38.9S59,72,60.1,61.1s.5-19.6,8.4-29.5S85.2,19.3,101,19.7s27.9,16.4,29.4,25.2l1.6,8.8s-19.6,4.6-31-7C86,31.6,81.2,31.5,81.2,31.5Z"/><path class="e" d="M100.9,83.8H90.4a7.833,7.833,0,0,1-5.8-2.3A5.16,5.16,0,0,1,83,78.3l-1.8-8.6a4.317,4.317,0,0,1,3.9-4.4,74.577,74.577,0,0,1,21.1,0c2.4.4,4.1,2.2,3.9,4.4l-1.8,8.6a5.444,5.444,0,0,1-1.6,3.2A8.423,8.423,0,0,1,100.9,83.8ZM95.6,66a70.355,70.355,0,0,0-10.3.7c-1.6.2-2.8,1.4-2.6,2.7L84.5,78a3.977,3.977,0,0,0,1.2,2.3,6.409,6.409,0,0,0,4.7,1.8h10.5a6.658,6.658,0,0,0,4.7-1.8,3.977,3.977,0,0,0,1.2-2.3l1.8-8.6a2.719,2.719,0,0,0-2.6-2.7A72.69,72.69,0,0,0,95.6,66Z"/><path class="e" d="M130.6,83.8h-8.4a5.736,5.736,0,0,1-4.6-2.4,6.278,6.278,0,0,1-1.2-3.2l-.6-8.6a4.181,4.181,0,0,1,3.1-4.4,43.576,43.576,0,0,1,16.1,0,4.02,4.02,0,0,1,3.1,4.4l-1.6,8.6a6.63,6.63,0,0,1-1.2,3.2A6.225,6.225,0,0,1,130.6,83.8ZM126.8,66a39.4,39.4,0,0,0-7.7.7,2.594,2.594,0,0,0-1.9,2.8l.6,8.6a5.908,5.908,0,0,0,.9,2.4,4.172,4.172,0,0,0,3.4,1.8h8.4a4.531,4.531,0,0,0,4.3-4.2l1.6-8.6a2.637,2.637,0,0,0-1.9-2.8A39.4,39.4,0,0,0,126.8,66Z"/><path class="e" d="M108.3,66a7.406,7.406,0,0,0,5,1.8,6.527,6.527,0,0,0,3.2-.9l-.4,8a3.378,3.378,0,0,0-3.2-3.6c-3.8-.3-4.1,4.6-4.1,4.6l1.3-6.3Z"/><path class="e" d="M85.2,66,54.5,68.1l4.1,2.1,23.3,1.4C81.9,71.5,80.1,66.5,85.2,66Z"/><path class="c" d="M55.6,82.2a76.587,76.587,0,0,1,2.8-12.1,5.375,5.375,0,0,0-6.8-1.4c-6.2,2.8-3,14.9,3.2,19C55.1,85.9,55.4,84,55.6,82.2Z"/></g></g></svg>