<svg id="illustrations" xmlns="http://www.w3.org/2000/svg" xmlns:xlink="http://www.w3.org/1999/xlink" viewBox="0 0 180 180"><defs><style>.cls-1{fill:none;}.cls-2{clip-path:url(#clip-path);}.cls-3,.cls-7{fill:#6ed3f3;}.cls-4{fill:#091440;}.cls-5{fill:#fff;}.cls-6{fill:#848aa0;}.cls-7{opacity:0.25;}</style><clipPath id="clip-path"><circle id="_Clipping_Path_" data-name="&lt;Clipping Path&gt;" class="cls-1" cx="90" cy="90" r="90"/></clipPath></defs><title>mykolas</title><g id="_Clip_Group_" data-name="&lt;Clip Group&gt;"><g class="cls-2"><g id="_Group_" data-name="&lt;Group&gt;"><circle id="_Path_" data-name="&lt;Path&gt;" class="cls-3" cx="90" cy="90" r="90"/><polygon id="_Path_2" data-name="&lt;Path&gt;" class="cls-4" points="63.92 123.82 10.89 148.5 7.12 184.83 170.83 184.83 157.63 151.04 101.23 126.19 63.92 123.82"/><g id="_Group_2" data-name="&lt;Group&gt;"><path id="_Path_3" data-name="&lt;Path&gt;" class="cls-5" d="M62,90s1.52,17.57,0,26.05-4.86,12.55-5,13.4,2.6,12.07,16.81,20.39c17.08,10,32.86,1.68,34.92-12.06s4.09-37.33,4.09-37.33Z"/><path id="_Path_4" data-name="&lt;Path&gt;" class="cls-6" d="M70,116.41c6.88,11.74,13.72,20.92,24.7,22s14.68-5.67,14.68-5.67l3.08-28.25Z"/><polygon id="_Path_5" data-name="&lt;Path&gt;" class="cls-4" points="133.48 65.84 122.86 70.57 122.86 67.71 133.25 62.94 133.48 65.84"/><path id="_Path_6" data-name="&lt;Path&gt;" class="cls-5" d="M62.64,86c1,4.31.16,16.11,3.22,23.23S74,121.48,81,126.9s11.8,7.47,18.79,6.11,9-4.4,13.06-9.83,9.06-14.85,9.51-21.76,3.07-13.26,3.18-16.55-.29-8.55,0-12.21.8-6.72.81-7a61.17,61.17,0,0,1-1.15-6.88c-.23-3.18-1.51-14-3.71-18.66S116.87,28,110.74,25.65a40.18,40.18,0,0,0-26.88-1c-11.12,3.52-21.22,12.82-24,21S62.64,86,62.64,86Z"/><path id="_Path_7" data-name="&lt;Path&gt;" class="cls-6" d="M98.82,62.88c-4.28-1.43-8.49-3.88-14.71-3.61s-8,1.45-9.93,3.61-2,3-2,3,5.77-3,9.11-3.3,7.58,1,11.19,2S100.82,63.55,98.82,62.88Z"/><g id="_Group_3" data-name="&lt;Group&gt;"><path id="_Path_8" data-name="&lt;Path&gt;" class="cls-4" d="M93.75,69.74s-1-.51-2.48-1.11c-.36-.15-.77-.29-1.18-.44s-.86-.25-1.31-.37l-.68-.12-.69-.07a6.22,6.22,0,0,0-1.36.08c-.26,0-.56.07-.79.12l-.68.15c-.46.14-.92.25-1.35.43s-.84.36-1.22.56-.73.42-1.05.64a12.23,12.23,0,0,0-1.48,1.21c-.34.33-.53.54-.53.54a3.74,3.74,0,0,1,.2-.76,6.16,6.16,0,0,1,1-1.82,7.48,7.48,0,0,1,2.29-2A9.75,9.75,0,0,1,84,66.12c.29-.08.59-.17.89-.24s.54-.1.81-.15a6.52,6.52,0,0,1,1.87,0,8.14,8.14,0,0,1,1.7.43,9.16,9.16,0,0,1,2.56,1.51,9.3,9.3,0,0,1,1.45,1.45A5.94,5.94,0,0,1,93.75,69.74Z"/></g><circle id="_Path_9" data-name="&lt;Path&gt;" class="cls-4" cx="85.75" cy="69" r="2.54"/><g id="_Group_4" data-name="&lt;Group&gt;"><path id="_Path_10" data-name="&lt;Path&gt;" class="cls-4" d="M121.44,70.57s-.78-.57-1.94-1.25c-.28-.17-.6-.33-.93-.5s-.69-.32-1-.45a7.35,7.35,0,0,0-1.13-.34,5.71,5.71,0,0,0-1.15-.17H115s-.2,0-.29,0a3.85,3.85,0,0,0-.63,0,6.41,6.41,0,0,0-1.11.18,11.79,11.79,0,0,0-2,.67,16.05,16.05,0,0,0-1.46.74l-.57.33a3.31,3.31,0,0,1,.26-.63,5.69,5.69,0,0,1,1.06-1.44,5.82,5.82,0,0,1,.95-.78,6,6,0,0,1,1.23-.65,6.54,6.54,0,0,1,1.48-.39,5.37,5.37,0,0,1,.74-.07c.14,0,.17,0,.4,0l.4,0a4.18,4.18,0,0,1,.79.11,4.61,4.61,0,0,1,.75.21,6.71,6.71,0,0,1,1.35.63,7.28,7.28,0,0,1,1.1.81,9.36,9.36,0,0,1,.83.85A6.3,6.3,0,0,1,121.44,70.57Z"/></g><circle id="_Path_11" data-name="&lt;Path&gt;" class="cls-4" cx="114.49" cy="69.18" r="2.54"/><path id="_Path_12" data-name="&lt;Path&gt;" class="cls-6" d="M110.06,62.35c-1,.91-.31,1.71,6.62.59,5.16-.83,6.67-.36,8.32,1.87s.78,3.14.78,3.14,2.87-4.82-1.13-7S112.23,60.26,110.06,62.35Z"/><path id="_Path_13" data-name="&lt;Path&gt;" class="cls-6" d="M94.74,91.16s1,2.89,8.38,3.26c8.1.41,10.1-4.42,10.1-4.42a31.42,31.42,0,0,1-8.37,1.54A85.35,85.35,0,0,1,94.74,91.16Z"/><path id="_Path_14" data-name="&lt;Path&gt;" class="cls-6" d="M89.9,106.9A4.68,4.68,0,0,0,94.31,108c2.38-.84,5.27-1.77,6.57-1.12a4.88,4.88,0,0,0,4.1.55c2.14-.46,2.75-.72,4.46,0s3.06-1.23,3.06-1.23l-2.79-2.84c-1.82-1.86-2-2-3.33-1.35a2.12,2.12,0,0,1-2.52-.4c-.56-.35-1.83-.44-3.57.58S94.31,107.18,89.9,106.9Z"/><g id="_Group_5" data-name="&lt;Group&gt;"><path id="_Path_15" data-name="&lt;Path&gt;" class="cls-7" d="M71.36,67.89a16.46,16.46,0,0,1,.55,2.88c.29,2.86,1.24,7.32,2.35,9,1.4,2.09,11.42,3.83,17.09,1.48s7-5.75,8.39-11.33.24-5.23-3.6-6.19-16.73-1.13-21.79,0C71,64.48,71,66.58,71.36,67.89Z"/><path id="_Path_16" data-name="&lt;Path&gt;" class="cls-7" d="M107.81,67.28c.45,4.65,1.21,8.4,4.13,10.81s5.87,2.5,10.43,2.32,7.77-.86,8.66-5a37.78,37.78,0,0,0,1.07-9,4.36,4.36,0,0,0-3.84-3.91c-1.37-.11-6.34-.08-9.75,0a26.24,26.24,0,0,0-6.54.9h0a6.07,6.07,0,0,0-4.16,3.87Z"/><path id="_Path_17" data-name="&lt;Path&gt;" class="cls-4" d="M68.91,64v2.86S71.4,68,71.64,69.9c.09.59.52.77.56.18.17-2.67-.06-6.56,8.41-6.56,10.36,0,19.62.86,19.63,2.34a34.56,34.56,0,0,1-2,8.9c.8,1.33,2.24-4.06,3-7.36.41-1.54,1.92-1.54,3.54-1.54s2.08.28,2.66,2.85,1.64,7.13,2.4,6.69c-.72-3-2-8.41-1-10s10.32-2.61,15.18-2.44,7.13,1,7.53,2.61a14.05,14.05,0,0,1,.29,3.63h.35s0-2.11.64-2.72l.63-.62-.23-2.9A46.59,46.59,0,0,0,121,61.73c-6.89.23-11.47,2.08-17.2,2.08s-10.94-1.73-19.11-1.73A73.13,73.13,0,0,0,68.91,64Z"/><polygon id="_Path_18" data-name="&lt;Path&gt;" class="cls-4" points="69.74 66.83 58.56 71.67 58.56 68.82 68.91 63.99 69.74 66.83"/></g><path id="_Path_19" data-name="&lt;Path&gt;" class="cls-4" d="M65.08,82.38s.15-11.07-.83-22.49C62.74,42.48,70.85,35.43,78,32.13s24-5.6,31.85-2.1a27,27,0,0,1,11.56,10.09s-1-6.79,1.49-6.79c-1.49-10.48-11.65-16.5-25-16.31s-29,3.17-37.7,13.56c-7.27,8.66-10.25,26.57-6.95,40C55.12,80.47,65.08,82.38,65.08,82.38Z"/><path id="_Path_20" data-name="&lt;Path&gt;" class="cls-5" d="M63.56,91.5s-.58,5.88-4.27,5.69-5.14-7.38-6.06-11.84-2.94-5.84-3.34-9.42.94-5.73,4.35-5.36,7.38.94,10.29,9.9S63.56,91.5,63.56,91.5Z"/></g></g></g></g></svg>