<svg xmlns="http://www.w3.org/2000/svg" viewBox="0 0 180 180"><title>1</title><circle cx="90" cy="90" r="90" fill="#6ed3f3"/><path d="M113.793,132.419c-1.547,9.285-5.291,18.759-25.638,16.593S62.369,134.1,63.661,126.358q.06-.361.122-.756L18.57,144.748a89.992,89.992,0,0,0,140.372,3.1l-44.631-19.265C114.13,130.127,113.955,131.442,113.793,132.419Z" fill="#091440"/><path d="M88.154,149.011c20.347,2.167,24.091-7.308,25.638-16.593.163-.977.337-2.292.519-3.836q.152-1.292.309-2.793c-.408,1.246-2.894,8.133-8,8.071-12.054.91-18.42-7.578-23.014-14.954,2.6,1.264,5.028,2.135,6.7,2.961,9.025,4.465,15.322,5.542,20.375,4.075a10.4,10.4,0,0,0,4.351-3.138c3.855-4.192,7.726-11.769,10.319-19.194,3.586-10.269,4.506-13.451,3.691-17.526s-1.572-6.272-1.9-10.347c-.3-3.71,1.023-5.4,1.017-8.746-1.865-.176-8.213.978-9.59,1.467-1.727.613.267-4.311,2.755-5.11a25.339,25.339,0,0,1,6.245-.806A46.654,46.654,0,0,1,126,53.9a49.7,49.7,0,0,0-2.039-11.048c-2.177-5.72-4.949-12.219-26.115-12.064S77.552,43.164,76.159,51.52c-7.737,4.333-6.654,9.44-6.345,15.99.122,2.579-2.038,3.474-4.7,3.617-.079-.2-.157-.408-.236-.6-2.614-6.317-6.549-8.523-9.779-6.7a6.34,6.34,0,0,0-1.468,1.155c-3.423,3.586,0,14.344,3.1,20.049a15.2,15.2,0,0,0,4.33,5.35c1.656,1.106,3.274,1.057,4.577-.637a134.8,134.8,0,0,1-.273,17.92A157.12,157.12,0,0,1,63.783,125.6q-.062.395-.122.756C62.369,134.1,67.807,146.845,88.154,149.011ZM118.086,95.67c.735-.441-1.686,4.062-6.348,1.642-5.764-2.993-9.643-4.728-9.1-6.669,1.5,1.408,4.778.417,7.386,2.536C112.049,94.823,115.447,97.252,118.086,95.67ZM106.618,67.5c-2.57.114-9.293-1.369-14.883-.913s-7.985,1.027-7.186.114,5.019-3.764,7.528-3.992a100.731,100.731,0,0,1,11.749,0C107.021,62.941,109.184,67.39,106.618,67.5Zm-10.344,5.16a2.234,2.234,0,1,1-4.41-.49c-.2.049-.4.085-.607.139a20.227,20.227,0,0,0-3.7,1.382,7.612,7.612,0,0,1,3.135-2.808,12.291,12.291,0,0,1,4.052-1.277,13.722,13.722,0,0,1,2.127-.125,5.628,5.628,0,0,1,2.291.508,3.64,3.64,0,0,1,1.011.762,4.356,4.356,0,0,1,.619,1c.273.683.424,1.292.71,1.944a7.344,7.344,0,0,1-1.553-1.388,2.724,2.724,0,0,0-1.373-.831A5.477,5.477,0,0,0,96.9,71.4c-.316.022-.638.063-.958.093A2.214,2.214,0,0,1,96.274,72.664Zm13.491,40.481c-2.483.331-5.628-2.9-5.628-2.9,6.291,1.821,9.656.413,9.656.413A6.6,6.6,0,0,1,109.765,113.145Zm8.143-10.609.011-.005s-1.086,4.784-8.04,5.121c-6.036.293-10.711-3.234-14.1-5.608a15.338,15.338,0,0,0-2.671-.205c4.742-1.483,8.555,0,14.943.913s9.341-.8,12.085-2.4A18.424,18.424,0,0,1,117.907,102.536Zm.311-31.487a6.615,6.615,0,0,1,2.893-1.221,6.265,6.265,0,0,1,1.594-.052,3.981,3.981,0,0,1,1.7.48,2.149,2.149,0,0,1,1.055,1.52,2.362,2.362,0,0,1-.3,1.561,3.22,3.22,0,0,0-.515-1.261,1.235,1.235,0,0,0-.838-.513,5.394,5.394,0,0,0-1.672.1,2.21,2.21,0,0,1,.246,1,2.228,2.228,0,0,1-4.449.18,15,15,0,0,1-1.724.493A6.944,6.944,0,0,1,118.219,71.049Z" fill="#fff"/><path d="M110.678,125.942c-5.053,1.467-11.35.39-20.375-4.075-1.67-.826-4.1-1.7-6.7-2.961,4.594,7.376,10.959,15.864,23.014,14.954,5.109.061,7.595-6.825,8-8.071.04-.123.068-.211.068-.211l.341-2.773A10.4,10.4,0,0,1,110.678,125.942Z" fill="#848aa0"/><path d="M127.57,62.552c.013.058.222.958.39,2.01C127.854,63.853,127.72,63.2,127.57,62.552Z" fill="#fff"/><path d="M102.64,90.643c-.544,1.941,3.335,3.676,9.1,6.669,4.661,2.42,7.083-2.083,6.348-1.642-2.639,1.582-6.036-.847-8.06-2.491C107.418,91.06,104.136,92.051,102.64,90.643Z" fill="#848aa0"/><path d="M103.827,62.713a100.731,100.731,0,0,0-11.749,0c-2.51.228-6.73,3.08-7.528,3.992s1.6.342,7.186-.114,12.313,1.027,14.883.913S107.021,62.941,103.827,62.713Z" fill="#091440"/><path d="M118.568,68.459c1.377-.489,7.725-1.643,9.59-1.467h0a12.526,12.526,0,0,0-.2-2.43c-.168-1.052-.376-1.953-.39-2.01l0-.01h0a25.339,25.339,0,0,0-6.245.806C118.834,64.148,116.841,69.072,118.568,68.459Z" fill="#091440"/><path d="M98.571,71.476a2.724,2.724,0,0,1,1.373.831,7.344,7.344,0,0,0,1.553,1.388c-.286-.652-.437-1.261-.71-1.944a4.356,4.356,0,0,0-.619-1,3.64,3.64,0,0,0-1.011-.762,5.628,5.628,0,0,0-2.291-.508,13.722,13.722,0,0,0-2.127.125,12.291,12.291,0,0,0-4.052,1.277,7.612,7.612,0,0,0-3.135,2.808,20.227,20.227,0,0,1,3.7-1.382c.2-.054.4-.09.607-.139a2.234,2.234,0,1,0,4.072-.677c.321-.031.642-.071.958-.093A5.477,5.477,0,0,1,98.571,71.476Z" fill="#091440"/><path d="M120.152,74.9a2.234,2.234,0,0,0,2.234-2.234,2.21,2.21,0,0,0-.246-1,5.394,5.394,0,0,1,1.672-.1,1.235,1.235,0,0,1,.838.513,3.22,3.22,0,0,1,.515,1.261,2.362,2.362,0,0,0,.3-1.561,2.149,2.149,0,0,0-1.055-1.52,3.981,3.981,0,0,0-1.7-.48,6.265,6.265,0,0,0-1.594.052,6.615,6.615,0,0,0-2.893,1.221,6.944,6.944,0,0,0-2.006,2.288,15,15,0,0,0,1.724-.493A2.227,2.227,0,0,0,120.152,74.9Z" fill="#091440"/><path d="M117.213,103.029c-.025.014-.053.032-.08.049-.052.032-.1.068-.155.1-.859.576-2.583,1.961-7.147,1.961-3.384,0-7.769-1.188-12.332-2.79q-.886-.181-1.724-.3c3.393,2.374,8.067,5.9,14.1,5.608,6.953-.337,8.04-5.121,8.04-5.121l-.011.005c-.2.156-.4.3-.6.431A.583.583,0,0,1,117.213,103.029Z" fill="#091440"/><path d="M117.306,102.967c-.057.037-.115.075-.173.111.027-.016.055-.035.08-.049A.583.583,0,0,0,117.306,102.967Z" fill="#fff"/><path d="M116.979,103.177c-1.786,1.039-3.97,1.271-8.247,1.057A67.078,67.078,0,0,1,97.5,102.348c4.563,1.6,8.948,2.79,12.332,2.79C114.4,105.138,116.119,103.752,116.979,103.177Z" fill="#fff"/><path d="M64.881,70.528c.079.191.157.4.236.6,2.66-.142,4.82-1.037,4.7-3.617-.31-6.55-1.393-11.657,6.345-15.99,1.393-8.356.51-20.581,21.687-20.736s23.938,6.344,26.115,12.064l0,.01c4.822-9.279,2.3-15.37,2.3-15.37a16.561,16.561,0,0,1-1.878,6.46c.122-5.1-.685-9.689-6.165-13.291a6.94,6.94,0,0,1-1.4,2.87,12.988,12.988,0,0,0-1.353-4.4c-.633-.3-1.3-.595-2.019-.877-14.237-5.571-30.176-3.095-37.758,3.25C63.213,27.364,48.422,35.174,55.1,63.831,58.331,62.005,62.267,64.211,64.881,70.528Z" fill="#091440"/><path d="M108.047,102.751c-6.388-.913-10.2-2.4-14.943-.913a15.338,15.338,0,0,1,2.671.205q.838.125,1.724.3a67.078,67.078,0,0,0,11.231,1.885c4.278.214,6.461-.018,8.247-1.057.053-.031.1-.067.155-.1s.115-.073.173-.111c.2-.133.4-.275.6-.431a18.424,18.424,0,0,0,2.225-2.18C117.388,101.952,114.435,103.663,108.047,102.751Z" fill="#848aa0"/><path d="M65.638,89.748c-1.3,1.693-2.922,1.742-4.577.637,1.945,7.015,3.311,12.825,4.3,17.284h0A134.8,134.8,0,0,0,65.638,89.748Z" fill="#091440"/><path d="M113.793,110.662s-3.366,1.407-9.656-.413c0,0,3.145,3.228,5.628,2.9A6.6,6.6,0,0,0,113.793,110.662Z" fill="#848aa0"/></svg>