<svg xmlns="http://www.w3.org/2000/svg" viewBox="0 0 180 180"><defs><style>.cls-1{fill:#3ad7a4;}.cls-2{fill:#fff;}.cls-3{fill:#848aa0;}.cls-4{fill:#091440;}</style></defs><title>Asset 4</title><g id="Layer_2" data-name="Layer 2"><g id="illustrations"><g id="_Group_" data-name="&lt;Group&gt;"><circle id="_Path_" data-name="&lt;Path&gt;" class="cls-1" cx="90" cy="90" r="90"/><g id="_Group_2" data-name="&lt;Group&gt;"><path id="_Path_2" data-name="&lt;Path&gt;" class="cls-2" d="M130.63,66.57a6.71,6.71,0,0,1-.22,1.72A6,6,0,0,0,130.63,66.57Z"/><path id="_Path_3" data-name="&lt;Path&gt;" class="cls-2" d="M65.43,103.65c0,.6.08,1.2.12,1.82h0A11,11,0,0,0,65.43,103.65Z"/><path id="_Compound_Path_" data-name="&lt;Compound Path&gt;" class="cls-2" d="M64.79,127c-.35,4.51-.48,6.87.26,8.49,4.43,9.79,16,22.09,31,21.25,10.82-.6,12.94-7.15,12.94-7.15s1.67-6.12,3-12.62c-1,2-3,3.38-6.8,2.9-10.46-1.33-18.92-7.7-28.21-23.34a27.42,27.42,0,0,1-4.87-6.55s1.49,1.16,3.09,2.7c6.3,5.41,17.48,9.54,24.65,8.15s10.57-5.94,8.76-10.62c3.89,1.31,9.53-.65,9.53-.65l-.21,1.67c-.54,3.1,2.14,5,3.24,8.06l0,.12c.55-5.05,2-5.66,6.13-14.67,4.39-9.48,5-13.77,4.08-18.64a87.08,87.08,0,0,1-1.12-12.17,45.69,45.69,0,0,1,.11-5.6,4.23,4.23,0,0,0-3.76-3.93,22.71,22.71,0,0,0-8.08,1.09,8.17,8.17,0,0,1,7.68-4c1.91.22,2.84.69,3.36,1.28-1.68-3-1.55-3.2-2.12-7.2a43.22,43.22,0,0,0-3.43-10.3h0c-1.51-3.59-11-7.48-17.61-7.86C99,42,87.52,40.13,81.88,39.81c-2.38,3,.47,5.93-.14,11.17a11.12,11.12,0,0,1-8.83,9.94s.67,3.44-.6,10.32a35.68,35.68,0,0,1-2.57,7.87l-2,.25a24,24,0,0,0-.42-2.46c-1.08-4.76-3.95-10.52-8-10.11-.13,0-.26,0-.39.06-3.81.6-6,4.33-3.5,12.86,1.4,4.72.63,12.84,7.26,13.66a9.34,9.34,0,0,0,2,0,2.23,2.23,0,0,0,1.59-.88c.56,4.94-.4,13.79-.66,13.87,0,.7.08,1.41.11,2.13a107.1,107.1,0,0,1-.38,11.28C65.15,122.68,65,125,64.79,127ZM92.28,96.72c1.67-.91,4.5-1.9,11.42-2.82s9.45,2.18,7.4,2.74c-7,1.92-20.5,1-20.5,1Zm6.07-27.08a14.54,14.54,0,0,0-1.47,0,1.86,1.86,0,0,1,.18.77,2.89,2.89,0,0,1-.88,2.17A24,24,0,0,1,92,72.43a2.89,2.89,0,0,1-.74-1.84c0-.06,0-.1,0-.15l-.35.12a8,8,0,0,0-1.47.79,4.82,4.82,0,0,0-.54.42,2.79,2.79,0,0,1,.23-.67,4.89,4.89,0,0,1,1.16-1.5,5.55,5.55,0,0,1,1-.75,6.81,6.81,0,0,1,1.31-.6,8,8,0,0,1,1.48-.37c.53-.09,1-.12,1.49-.16s1,0,1.51,0a8.13,8.13,0,0,1,1.53.2,5.08,5.08,0,0,1,1.4.53,5.84,5.84,0,0,1,1,.72,12.36,12.36,0,0,1,1.3,1.26c.29.32.45.53.45.53s-.25-.06-.66-.2-1-.35-1.67-.6A7.59,7.59,0,0,0,98.35,69.64ZM123.5,100.5s-3.85,5.72-9,6.85-13-.41-23.34-5.67l-1.13-1.08c4.16,1.05,16.32-.89,19-.94s4.74-.13,7.78-.43,8.28-.27,8.28-.27ZM115,96.08c-.8-.94,2.54-2.32,4.46-2.14s6.58.79,7.42,2.15S116.14,97.45,115,96.08ZM117.31,71a4.56,4.56,0,0,1,.79-1.29,5.53,5.53,0,0,1,1.69-1.37,5.94,5.94,0,0,1,1.15-.49,8,8,0,0,1,1.31-.26l.58,0c.21,0,.46,0,.68,0a5.46,5.46,0,0,1,1.24.27,5.34,5.34,0,0,1,1.9,1.09,4.4,4.4,0,0,1,1,1.15,2.35,2.35,0,0,1,.25.52,14.87,14.87,0,0,0-1.8-.68,13,13,0,0,0-1.74-.36h-.06a2.27,2.27,0,0,1,.09.57,2.92,2.92,0,0,1-.64,1.89,23.67,23.67,0,0,1-4,.5,2.88,2.88,0,0,1-1.11-1.84,14.48,14.48,0,0,0-1.44.83A2.57,2.57,0,0,1,117.31,71Zm4.5,17c-.7,3-4.64,4.39-9.8,4.47s-9.9-1.66-9.93-3.82v0c0,.17.53,1.13,7.58.94C117.38,89.32,121.47,88.6,121.81,87.93ZM91.62,60.85c8.46-1.47,10.95-.26,14.8,1.17,2.85,1.06,2.58,3.55-.8,2.66a38.15,38.15,0,0,0-14.74-.76,22.6,22.6,0,0,0-9.51,4.51S83.17,62.31,91.62,60.85Z"/><path id="_Path_4" data-name="&lt;Path&gt;" class="cls-2" d="M113.08,131.08l-.13,0c0,.19,0,.38,0,.58C113,131.48,113.05,131.28,113.08,131.08Z"/><path id="_Path_5" data-name="&lt;Path&gt;" class="cls-3" d="M113,131.68c0-.2,0-.39,0-.58a32.39,32.39,0,0,1-6,.2c-12.58-.64-23.67-8.21-30-14.81,9.29,15.64,17.75,22,28.21,23.34,3.76.48,5.77-.92,6.8-2.9A11.1,11.1,0,0,0,113,131.68Z"/><path id="_Path_6" data-name="&lt;Path&gt;" class="cls-4" d="M102.83,70.94s-.16-.21-.45-.53a12.36,12.36,0,0,0-1.3-1.26,5.84,5.84,0,0,0-1-.72,5.08,5.08,0,0,0-1.4-.53,8.13,8.13,0,0,0-1.53-.2c-.51,0-1,0-1.51,0s-1,.07-1.49.16a8,8,0,0,0-1.48.37,6.81,6.81,0,0,0-1.31.6,5.55,5.55,0,0,0-1,.75,4.89,4.89,0,0,0-1.16,1.5,2.79,2.79,0,0,0-.23.67,4.82,4.82,0,0,1,.54-.42,8,8,0,0,1,1.47-.79l.35-.12s0,.09,0,.15A2.89,2.89,0,0,0,92,72.43a24,24,0,0,0,4.21.16,2.89,2.89,0,0,0,.88-2.17,1.86,1.86,0,0,0-.18-.77,14.54,14.54,0,0,1,1.47,0,7.59,7.59,0,0,1,2.15.5c.66.25,1.25.47,1.67.6S102.83,70.94,102.83,70.94Z"/><path id="_Path_7" data-name="&lt;Path&gt;" class="cls-4" d="M119.69,72.54a23.67,23.67,0,0,0,4-.5,2.92,2.92,0,0,0,.64-1.89,2.27,2.27,0,0,0-.09-.57h.06a13,13,0,0,1,1.74.36,14.87,14.87,0,0,1,1.8.68,2.35,2.35,0,0,0-.25-.52,4.4,4.4,0,0,0-1-1.15,5.34,5.34,0,0,0-1.9-1.09,5.46,5.46,0,0,0-1.24-.27c-.22,0-.47,0-.68,0l-.58,0a8,8,0,0,0-1.31.26,5.94,5.94,0,0,0-1.15.49,5.53,5.53,0,0,0-1.69,1.37,4.56,4.56,0,0,0-.79,1.29,2.57,2.57,0,0,0-.17.55,14.48,14.48,0,0,1,1.44-.83A2.88,2.88,0,0,0,119.69,72.54Z"/><path id="_Path_8" data-name="&lt;Path&gt;" class="cls-4" d="M105.62,64.68c3.38.89,3.65-1.6.8-2.66-3.85-1.43-6.34-2.64-14.8-1.17s-10.25,7.58-10.25,7.58a22.6,22.6,0,0,1,9.51-4.51A38.15,38.15,0,0,1,105.62,64.68Z"/><path id="_Path_9" data-name="&lt;Path&gt;" class="cls-4" d="M126.25,61.46a8.17,8.17,0,0,0-7.68,4,22.71,22.71,0,0,1,8.08-1.09,4.23,4.23,0,0,1,3.76,3.93,6.71,6.71,0,0,0,.22-1.72,7,7,0,0,0-1-3.83C129.09,62.15,128.16,61.68,126.25,61.46Z"/><path id="_Path_10" data-name="&lt;Path&gt;" class="cls-3" d="M102.08,88.58v0Z"/><path id="_Path_11" data-name="&lt;Path&gt;" class="cls-3" d="M102.08,88.58c0,2.16,4.8,3.91,9.93,3.82s9.1-1.49,9.8-4.47c-.34.67-4.43,1.39-12.15,1.59C102.61,89.71,102.12,88.75,102.08,88.58Z"/><path id="_Path_12" data-name="&lt;Path&gt;" class="cls-4" d="M111.8,105.16c-4.89.48-9.42-1.25-13.14-3.1-4.31-.15-7.48-.38-7.48-.38,10.38,5.26,18.2,6.79,23.34,5.67s9-6.85,9-6.85a10.58,10.58,0,0,1-2,.47C120,102.66,116.77,104.68,111.8,105.16Z"/><path id="_Path_13" data-name="&lt;Path&gt;" class="cls-3" d="M116.79,99.23c-3,.3-5.14.38-7.78.43s-14.8,2-19,.94l1.13,1.08s3.17.23,7.48.38l-.63-.32s18.69-.68,23.63-1c-.06.08-.15.16-.21.24a10.58,10.58,0,0,0,2-.47L125.07,99S119.84,98.93,116.79,99.23Z"/><path id="_Path_14" data-name="&lt;Path&gt;" class="cls-2" d="M111.8,105.16c5-.48,8.2-2.5,9.65-4.19.06-.08.15-.16.21-.24-4.94.33-23.63,1-23.63,1l.63.32C102.38,103.91,106.91,105.64,111.8,105.16Z"/><path id="_Path_15" data-name="&lt;Path&gt;" class="cls-4" d="M117.92,111.19l.21-1.67s-5.64,2-9.53.65c1.81,4.68-1.59,9.23-8.76,10.62s-18.35-2.74-24.65-8.15c-1.6-1.54-3.09-2.7-3.09-2.7A27.42,27.42,0,0,0,77,116.49c6.29,6.6,17.38,14.17,30,14.81a32.39,32.39,0,0,0,6-.2l.13,0c0,.2-.07.4-.11.6a11.1,11.1,0,0,1-1,5.25c-1.28,6.5-3,12.62-3,12.62s-2.12,6.55-12.94,7.15c-15,.84-26.61-11.46-31-21.25-.74-1.62-.61-4-.26-8.49L24.11,151.3a90,90,0,0,0,132.21-.46L113.72,131c9.74-1.71,8.42-8.92,7.49-11.61l0-.12C120.06,116.19,117.38,114.29,117.92,111.19Z"/><path id="_Path_16" data-name="&lt;Path&gt;" class="cls-4" d="M67.32,76.9a24,24,0,0,1,.42,2.46l2-.25a35.68,35.68,0,0,0,2.57-7.87c1.27-6.88.6-10.32.6-10.32A11.12,11.12,0,0,0,81.74,51c.61-5.24-2.24-8.17.14-11.17,5.64.32,17.11,2.15,24.57-2.43,6.59.38,16.1,4.27,17.61,7.86h0C124.6,35.9,118.74,24.4,108,23,83.43,19.93,74.41,36.38,74.41,36.38S57.14,37.56,58.92,66.85c.13,0,.26,0,.39-.06C63.37,66.38,66.24,72.14,67.32,76.9Z"/><path id="_Path_17" data-name="&lt;Path&gt;" class="cls-3" d="M111.1,96.64c2.05-.56-.48-3.65-7.4-2.74S94,95.81,92.28,96.72l-1.68.9S104.13,98.56,111.1,96.64Z"/><path id="_Path_18" data-name="&lt;Path&gt;" class="cls-3" d="M119.44,93.94c-1.92-.18-5.26,1.2-4.46,2.14,1.16,1.37,12.73,1.37,11.88,0S121.35,94.13,119.44,93.94Z"/><path id="_Path_19" data-name="&lt;Path&gt;" class="cls-4" d="M66.27,92.53a2.23,2.23,0,0,1-1.59.88,9.34,9.34,0,0,1-2,0,63.42,63.42,0,0,1,2.75,10.28,11,11,0,0,1,.12,1.81h0c0,.67,0,.94.06.93C65.87,106.32,66.83,97.47,66.27,92.53Z"/></g></g></g></g></svg>