<svg xmlns="http://www.w3.org/2000/svg" xmlns:xlink="http://www.w3.org/1999/xlink" viewBox="1776 2257 180 180"><defs><style>.a{clip-path:url(#a);}.b{fill:#8997a5;}.c,.f{fill:#091440;}.d{fill:#fff;}.e{clip-path:url(#c);}.f{opacity:0.5;}</style><clipPath id="a"><circle cx="90" cy="90" r="90"/></clipPath><clipPath id="c"><path d="M65.1,92.3s4.8,16.1,2.7,25.7c-1.2,5.4,7.5,7.6,7.5,7.6s-3.1,26.9,15.8,29.9,18.7-12.2,19.4-19.6a59.933,59.933,0,0,0,0-12.5Z"/></clipPath></defs><g transform="translate(1776 2257)"><g class="a"><circle class="b" cx="90" cy="90" r="90"/></g><g class="a"><path class="c" d="M167,207.7H13V156.2l49.9-26.1,46.9,2.1L167,162.4Z"/><path class="c" d="M58.8,77.7s-2.7-6.1-2.8-8.9,2-7.4,2-7.4-1.3,3.5-6.1,2.8c1.3-.6,2.4-3.4,2.7-4.9,2.5-13.7,8.3-17,8.3-17s-1.6-6,4.7-16c5.5-8.7,11.3-12.2,11.3-12.2s.3,5.9,7.7,6.6,16.4-4,26.3-2.4c9.9,1.7,14.3,11.5,14.3,11.5h-2.9s1.4.5,3.9,3.9c2,2.8,1.9,7.2,1.9,7.2l-2.9-2.2c2.9,6.6,4.7,28,0,38.9C122.6,88.7,58.8,77.7,58.8,77.7Z"/><path class="d" d="M65.1,92.3s3.1,10.9,3.2,20.7c.1,12.6-5.3,17.1-5.3,17.1s9.2,22.4,28.1,25.4,18.7-12.2,19.4-19.6a59.933,59.933,0,0,0,0-12.5Z"/><g class="e"><path class="f" d="M74.2,112.9s3.9,16.5,18.4,24.2c12.1,6.4,22.5,4.6,22.5-7S102.7,116,102.7,116Z"/></g><path class="d" d="M65.1,92.3s.5,8.3,10.2,22.8,15.6,17.9,24.4,18,11.9-2.9,17.3-15.4,13-23.4,12.5-36.8-3.1-23.8-5.1-31.7-11.3-16.9-19.8-18.4-21.3-3.2-29.3,6.4S65,63.9,66.2,77.3Z"/><path class="c" d="M78.9,70.1a5.945,5.945,0,0,1,.3-.7,5.446,5.446,0,0,1,1.3-1.7,7.222,7.222,0,0,1,2.6-1.6,4.711,4.711,0,0,1,1.7-.4,2.769,2.769,0,0,1,.9-.1h.9a2.769,2.769,0,0,1,.9.1,2.92,2.92,0,0,1,.9.2,7.494,7.494,0,0,1,1.6.5c.5.2,1,.5,1.4.7.4.3.8.6,1.1.8a8.818,8.818,0,0,1,1.4,1.5,2.767,2.767,0,0,1,.4.7,22.01,22.01,0,0,0-2.4-1.2c-.7-.3-1.6-.6-2.5-.9-.5-.1-.9-.2-1.4-.3a1.7,1.7,0,0,0-.7-.1,2.134,2.134,0,0,0-.8,0H85.1a5.9,5.9,0,0,0-1.4.2,6.468,6.468,0,0,0-1.3.4,11.73,11.73,0,0,0-1.1.5A8.883,8.883,0,0,0,78.9,70.1Z"/><path class="c" d="M112.4,70.1l.3-.6a3.975,3.975,0,0,1,1.1-1.3c.3-.2.6-.5.9-.7l1.2-.6a6.373,6.373,0,0,1,.7-.2,1.7,1.7,0,0,1,.7-.1,3.788,3.788,0,0,1,1.5,0,4.8,4.8,0,0,1,1.5.4c.5.2.9.4,1.3.6a5.922,5.922,0,0,1,1.8,1.7,5.57,5.57,0,0,1,.8,1.5,1.548,1.548,0,0,1,.2.6,17.336,17.336,0,0,0-1.8-1.3c-.5-.3-1.2-.7-1.8-1-.3-.1-.7-.3-1-.4a3.6,3.6,0,0,0-1.1-.2h-1.2a4.1,4.1,0,0,0-1.1.1,11.7,11.7,0,0,0-2,.5A15.132,15.132,0,0,0,112.4,70.1Z"/><circle class="c" cx="2.9" cy="2.9" r="2.9" transform="translate(83.1 65.9)"/><path class="c" d="M119.7,69.7c0-1.5-1.2-2.4-2.8-2.4s-2.8.9-2.8,2.4a2.8,2.8,0,0,0,5.6,0Z"/><path class="c" d="M97.6,58.6A2.425,2.425,0,0,1,96.3,63a18.964,18.964,0,0,1-4.6-.3,27.183,27.183,0,0,0-11-.2A52.2,52.2,0,0,0,75.1,64c2.9-5.5,5.6-7,10.9-6.6s9.8,0,11.6,1.2Z"/><path class="c" d="M110.5,63.9s2.3-.1,6.5-.7,5.9-.1,7.4.7a9.65,9.65,0,0,1,2.6,2.6s2.3-5.1-2.9-7.4c-3.1-1.4-5.8-.6-8.3-.2S111.5,60.5,110.5,63.9Z"/><path class="f" d="M95.5,92.9s5.8,3.3,10.7,3.2a10.545,10.545,0,0,0,7.4-2.9s-1.4.3-7.2,0C100,92.9,95.5,92.9,95.5,92.9Z"/><path class="f" d="M88.5,104.5a44.907,44.907,0,0,0,6.8,1.8c3.5.7,6,1.8,9.2,1.6a93.768,93.768,0,0,0,9.7-1.6,35.87,35.87,0,0,1-4.3-1c-1.4-.5-3.4.9-4.8,1-1.3.1-2.3-1-5-1.2C97.5,105.1,92.9,105.7,88.5,104.5Z"/><path class="f" d="M101.8,127.7c-1.1.3-2.2-1.6-1.8-2.9a1.852,1.852,0,0,1,2.3-1.3S103,127.4,101.8,127.7Z"/><path class="d" d="M68,96.1c-1.3,1.2-2.2,1.9-4.7,0a17.413,17.413,0,0,1-7-13.4c-.4-7.3-.9-10.8,3.2-10.3S65.8,76,68,80.5C69.4,83.4,71.2,93.2,68,96.1Z"/><path class="c" d="M78.5,67.3a10.148,10.148,0,0,1,1.9-1.4,11.288,11.288,0,0,1,2.2-1.1,6.468,6.468,0,0,1,1.3-.4c.5-.1.9-.2,1.4-.3a7.569,7.569,0,0,1,1.5-.1,6.15,6.15,0,0,1,1.4.1,2.768,2.768,0,0,1,1.3.3,3.582,3.582,0,0,1,1.1.4c.3.1.6.3.9.4a6.125,6.125,0,0,0,.6.4,1.106,1.106,0,0,1,.5.4,3.224,3.224,0,0,0-.6-.2,6.373,6.373,0,0,0-.7-.2c-.3-.1-.6-.1-.9-.2s-.7-.1-1.1-.2a3.5,3.5,0,0,0-1.2-.3H86.8c-.4,0-.9.1-1.3.1-.5,0-.9.2-1.3.2-.4.1-.9.2-1.3.3a11.256,11.256,0,0,0-2.2.8c-.6.3-1.2.5-1.6.7Z"/><path class="c" d="M110.8,67.4a7.731,7.731,0,0,1,1.9-1.1,11.392,11.392,0,0,1,2.2-.7,5.067,5.067,0,0,1,1.3-.2c.5,0,.9-.1,1.3-.1a5.7,5.7,0,0,1,1.3.1,5.853,5.853,0,0,1,1.3.2,11.392,11.392,0,0,1,2.2.7,5.766,5.766,0,0,1,1.4.8,3.609,3.609,0,0,1,.5.4,18.323,18.323,0,0,0-2.1-.6,20.891,20.891,0,0,0-4.6-.5h-1.2c-.4,0-.8.1-1.2.1a14.344,14.344,0,0,0-2.2.4A11.584,11.584,0,0,0,110.8,67.4Z"/></g></g></svg>