<?xml version="1.0" encoding="utf-8"?>
<!-- Generator: Adobe Illustrator 22.1.0, SVG Export Plug-In . SVG Version: 6.00 Build 0)  -->
<svg version="1.1" id="Layer_1" xmlns="http://www.w3.org/2000/svg" xmlns:xlink="http://www.w3.org/1999/xlink" x="0px" y="0px"
	 viewBox="0 0 57.4 57.4" style="enable-background:new 0 0 57.4 57.4;" xml:space="preserve">
<style type="text/css">
	.st0{fill:#E7EAED;}
	.st1{opacity:0.25;enable-background:new    ;}
	.st2{opacity:0.5;enable-background:new    ;}
	.st3{opacity:0.75;enable-background:new    ;}
</style>
<g transform="translate(1918.997 1640.578)">
	<g transform="translate(0)">
		<circle class="st0" cx="-1890.3" cy="-1611.9" r="28.7"/>
		<g transform="translate(0)">
			<path d="M-1890.2-1597.1L-1890.2-1597.1l-12.9-7.4v-14.6l12.9-7.4l12.6,7.4v14.6L-1890.2-1597.1L-1890.2-1597.1z M-1890.2-1621
				L-1890.2-1621l-8,4.6v9.2l8,4.6l8-4.6v-9.2L-1890.2-1621L-1890.2-1621z"/>
			<path class="st1" d="M-1890.2-1621l8,4.6l-8,4.6l-8-4.6L-1890.2-1621z"/>
			<path class="st2" d="M-1890.2-1611.7v9.4l-8.2-4.6l-0.2-9.6L-1890.2-1611.7z"/>
			<path class="st3" d="M-1890.2-1611.7v9.3l8.4-4.6l-0.1-9.6L-1890.2-1611.7z"/>
		</g>
	</g>
</g>
</svg>
