<svg xmlns="http://www.w3.org/2000/svg" viewBox="0 0 180 180"><title>4</title><circle cx="90" cy="90" r="90" fill="#3ad7a4"/><path d="M119.647,132.258c1.73-.537,3.355-1.1,4.857-1.721,3.753-4.507,4.95-13.492,4.351-21.279a37.907,37.907,0,0,1,1.372,18.211c4.939-3.542,7.347-8.669,6.418-17.212C135.3,97.9,132.12,96.783,131.517,83.148s5.145-27.869-8.415-46.764C112.94,22.225,96.831,16.559,89.14,21.481c-11.792-3-30.422,2.636-39.346,21.395C40.45,62.514,44.8,83.091,44.546,102.381c-.209,16,4.013,20.761,11.16,25.681L18.395,144.52a90,90,0,0,0,139.7,4.333ZM55.475,69.469C58.965,66,60.467,71.4,60.467,71.4l-2.258,13.02C56.531,80.882,51.985,72.935,55.475,69.469Zm7.73,64.694h0c9.516,9.051,20.245,7.78,20.245,7.78a67.343,67.343,0,0,1-6.3-11.4c-8.62-22.948-8.868-45.338-7.549-60.3.343-.618.567-.96.567-.96,20.13-2.46,19.343-28.823,40.965-25.524,15.9,2.425,10.583,12.285,12.759,25.316a3.876,3.876,0,0,0-1.614-.564c-2.454-.32-7.108.992-10.642,2.56-1.4.622.3,1.271,2.93,1.139s5.744-1.774,7.4-1.493a4.582,4.582,0,0,1,2.478,1.147c2.777,13.039,1.119,14.642-.286,21.74-1.439,7.269-1.811,13.57-6.4,19.326a103.373,103.373,0,0,1-7.129,8.4l-.985,5.645-1.589,9.883C97.288,153.813,75.515,147.033,63.205,134.164Z" fill="#091440"/><path d="M109.641,126.982l-.127.729s-2.529,4.7-11.483,3.743c-6.584-.7-11.964-5.649-16.386-12.291,7.738,5.879,15.8,7.953,20.83,7.189,2.841-.431,5.56-2.416,8.152-5.016a103.373,103.373,0,0,0,7.129-8.4c4.594-5.757,4.966-12.057,6.4-19.326,1.4-7.1,3.062-8.7.286-21.74a4.582,4.582,0,0,0-2.478-1.147c-1.659-.281-4.775,1.362-7.4,1.493s-4.331-.517-2.93-1.139c3.534-1.568,8.188-2.88,10.642-2.56a3.876,3.876,0,0,1,1.614.564c-2.176-13.031,3.136-22.891-12.759-25.316C89.51,40.462,90.3,66.824,70.167,69.285c0,0-.225.343-.567.96-1.319,14.959-1.071,37.349,7.549,60.3a67.343,67.343,0,0,0,6.3,11.4s-10.729,1.272-20.245-7.78h0c12.31,12.869,34.083,19.649,44.846,2.7Zm-6.5-11.278c-1.672-.173-4.149-3.025-4.149-3.025,1.7.714,7.827.712,9.918-.559C106.348,115.664,104.815,115.876,103.143,115.7Zm9-40.935a6.824,6.824,0,0,1,3.254-1.394,5.878,5.878,0,0,1,3.55.641A6.166,6.166,0,0,1,121.4,76.4a30.54,30.54,0,0,0-3.005-.911c-.229-.05-.454-.089-.677-.119a2.628,2.628,0,0,1,.281.768,2.657,2.657,0,1,1-5.227.059c-.883.353-1.773.79-2.777,1.174A7.652,7.652,0,0,1,112.146,74.769Zm-.285,21.708c-3.825,5.365-12.05,3.9-14.865-.562C97,95.915,104.617,99.1,111.86,96.477ZM87.472,68.3c3.592.18,11.775,1.885,10.428,2.838-1.384.979-4.37,1.288-8.57.451s-7.688-.827-12.971,1.953C81.885,68.28,83.881,68.124,87.472,68.3Zm2.345,7.7a2.657,2.657,0,1,1-5.23.078c-1.031.4-2.059.882-3.211,1.236A11.414,11.414,0,0,1,84.106,74.6a8.711,8.711,0,0,1,3.7-1.566,5.991,5.991,0,0,1,2.16.077,5.811,5.811,0,0,1,1.932.889,7.8,7.8,0,0,1,2.5,3.017,35.246,35.246,0,0,0-3.25-1.638,5.773,5.773,0,0,0-1.765-.411A2.638,2.638,0,0,1,89.818,76.008Zm11.16,27.858c1.948-.561,2.989.685,5.707-.149,1.962-.6,5.082,3.548,6.587,3.095a51.419,51.419,0,0,1-10.029,1.219,57.456,57.456,0,0,1-12.064-1.689A51.972,51.972,0,0,0,100.978,103.866Z" fill="#fff"/><path d="M102.474,126.352c-5.03.764-13.092-1.31-20.83-7.189,4.422,6.642,9.8,11.591,16.386,12.291,8.955.953,11.483-3.743,11.483-3.743l.127-.729.985-5.645C108.034,123.937,105.314,125.921,102.474,126.352Z" fill="#848aa0"/><path d="M111.86,96.477C104.617,99.1,97,95.915,97,95.915,99.81,100.379,108.036,101.842,111.86,96.477Z" fill="#848aa0"/><path d="M91.179,106.341a57.456,57.456,0,0,0,12.064,1.689,51.419,51.419,0,0,0,10.029-1.219c-1.505.454-4.625-3.7-6.587-3.095-2.718.833-3.759-.412-5.707.149A51.972,51.972,0,0,1,91.179,106.341Z" fill="#848aa0"/><path d="M98.994,112.679s2.477,2.852,4.149,3.025,3.205-.039,5.769-3.584C106.821,113.391,100.7,113.393,98.994,112.679Z" fill="#848aa0"/><path d="M89.33,71.594c4.2.837,7.187.529,8.57-.451,1.347-.953-6.836-2.658-10.428-2.838s-5.587-.025-11.113,5.242C81.642,70.767,85.13,70.757,89.33,71.594Z" fill="#091440"/><path d="M94.4,77.023a7.8,7.8,0,0,0-2.5-3.017,5.811,5.811,0,0,0-1.932-.889,5.991,5.991,0,0,0-2.16-.077,8.711,8.711,0,0,0-3.7,1.566,11.414,11.414,0,0,0-2.729,2.717c1.151-.354,2.179-.838,3.211-1.236a2.654,2.654,0,1,0,4.795-1.112,5.773,5.773,0,0,1,1.765.411A35.246,35.246,0,0,1,94.4,77.023Z" fill="#091440"/><path d="M112.767,77.091a2.657,2.657,0,0,0,5.228-.956,2.628,2.628,0,0,0-.281-.768c.223.03.449.07.677.119a30.54,30.54,0,0,1,3.005.911,6.166,6.166,0,0,0-2.447-2.382,5.878,5.878,0,0,0-3.55-.641,6.824,6.824,0,0,0-3.254,1.394,7.652,7.652,0,0,0-2.156,2.6c1-.384,1.894-.82,2.777-1.174A2.632,2.632,0,0,0,112.767,77.091Z" fill="#091440"/><path d="M60.467,71.4s-1.5-5.4-4.992-1.929,1.056,11.412,2.734,14.95Z" fill="#fff"/></svg>