<svg xmlns="http://www.w3.org/2000/svg" viewBox="0 0 180 180"><defs><style>.cls-1{fill:#3ad7a4;}.cls-2{fill:#091440;}.cls-3{fill:#fff;}.cls-4{fill:#848aa0;}</style></defs><title>DZ</title><g id="illustrations"><path id="_Path_" data-name="&lt;Path&gt;" class="cls-1" d="M62.43,125.2c2.16-10.09,2.14-20.66,1.77-27.55-2.11-.88-4.24-3.46-6-7.17C55.05,84.05,48.69,70.75,55.61,68a5.14,5.14,0,0,1,1.82-.37c-.23-1.18-.47-2.44-.73-3.78-4.28-22.09,6.43-42.24,22.11-47s30.67-4.46,42.08,5.05c14.14,11.78,9.32,32.7,9.32,32.7,0,3.19.27,7.35.39,9.45h0a6.27,6.27,0,0,1-.43,4.43c.28,14.58,1.78,20.72-.4,29.29-1.65,6.45-4.93,15-10.79,20.73-.1,1.21-.21,2.42-.33,3.64v.12s0,.06,0,.1c-.12,1.26-.26,2.51-.4,3.76l44.05,17.52a90,90,0,1,0-144.91-.46Z"/><path id="_Path_2" data-name="&lt;Path&gt;" class="cls-2" d="M115.56,141.59c-3.79,14.43-14,17.28-24.69,17.28s-34.79-13.56-30.32-26.73a61.66,61.66,0,0,0,1.88-6.94l-45.06,18a90,90,0,0,0,144.91.46l-44-17.52A117,117,0,0,1,115.56,141.59Z"/><path id="_Compound_Path_" data-name="&lt;Compound Path&gt;" class="cls-3" d="M90.87,158.87c10.72,0,20.9-2.85,24.69-17.28a117,117,0,0,0,2.67-15.49c.14-1.25.28-2.5.4-3.76-1,11-11.68,13.81-20.77,11.39-11.11-3-19.45-10.3-25.94-24.69H72c6.32,8.19,16.61,16,31.37,16a21.6,21.6,0,0,0,15.6-6.53c-.11,1.27-.24,2.68-.32,3.63.12-1.22.23-2.43.33-3.64,5.86-5.78,9.14-14.28,10.79-20.73,2.18-8.57.68-14.71.4-29.29a3.83,3.83,0,0,0-3.74-3.79,26.79,26.79,0,0,0-8.05,1.08c-1.09.33-1.83-1.34-1.08-2.4A3.51,3.51,0,0,1,120,61.89c2.37-.26,6.68-1.91,9.39.44A4,4,0,0,1,130.6,64h0c-.12-2.1-.37-6.26-.39-9.45,0,0-.4-11.38-8.68-17.33-10-7.2-27.55-7.2-38.63.06-11.69,7.67-6.33,22.3-6.33,22.3a30.4,30.4,0,0,0-4,7.2c-3.28,8.17-1,16.81-1,16.81l-2.89.62a64.2,64.2,0,0,0-4.42-11.1s-2.71-5.57-6.84-5.55a5.14,5.14,0,0,0-1.82.37c-6.92,2.79-.56,16.09,2.56,22.52,1.79,3.71,3.92,6.29,6,7.17.37,6.89.39,17.46-1.77,27.55a61.66,61.66,0,0,1-1.88,6.94C56.08,145.31,80.15,158.87,90.87,158.87Zm4.88-88.3a2.56,2.56,0,0,1-5.1.39l-.44.1-1.06.27c-.65.19-1.21.35-1.61.48l-.64.2a6.78,6.78,0,0,1,1.75-1.71,8.11,8.11,0,0,1,1-.63,9.79,9.79,0,0,1,1.22-.56,10.3,10.3,0,0,1,1.4-.4,8.32,8.32,0,0,1,1.5-.19,7,7,0,0,1,1.52.06,6.72,6.72,0,0,1,1.43.29,6.29,6.29,0,0,1,1.28.49,4.59,4.59,0,0,1,1,.61,5,5,0,0,1,.81.6c.22.21.4.4.55.56.29.31.44.5.44.5s-.25,0-.66-.17c-.2-.06-.44-.12-.7-.22s-.59-.13-.91-.23a9.63,9.63,0,0,0-1-.23,10.42,10.42,0,0,0-1.16-.18l-.64-.06Zm20.16,32.36a6.7,6.7,0,0,0,2.68-2.45c-4.74,1.16-13.62,1-21.42-.1.9.87,4.3,3.62,11.16,3.88l-.63,0c-10.71.14-14.28-4.5-14.28-4.5,8.5-1.31,25.34-2.09,28.11-.65C121.53,99.14,120.11,101.4,115.91,102.93Zm1.41-31.78c.11-.15.24-.34.4-.54a3.66,3.66,0,0,1,.63-.6,4,4,0,0,1,.84-.61,5.57,5.57,0,0,1,1.07-.51,5.2,5.2,0,0,1,1.25-.31,5.35,5.35,0,0,1,1.33-.06,6.91,6.91,0,0,1,1.3.2,7.28,7.28,0,0,1,1.19.43,6.7,6.7,0,0,1,1.82,1.21A5.25,5.25,0,0,1,128.44,72s-.79-.3-1.88-.67c-.54-.18-1.17-.37-1.82-.53l-.5-.09a2.56,2.56,0,0,1-5.09.22l-.24.08a7.78,7.78,0,0,0-.76.23c-.21.09-.42.15-.59.21-.34.12-.55.17-.55.17S117.11,71.45,117.32,71.15Zm-8.66,17.67c5.88-.2,10.74-.53,8.78,1-2.21,1.74-5.14,3-9.64,2.49-5.65-.57-6.94-3.49-6.94-3.49A65.78,65.78,0,0,0,108.66,88.82ZM85.55,62.25c3.48-2.34,9.52-.78,12.47,0,2.78.73,4.4,1.18,4.3,2.53-.07,1.07-1.48,1.74-2.53,1.48-3.54-.87-9.89-2-12.24-1.23-5.44,1.85-6.17,4.41-6.17,4.41S82.08,64.6,85.55,62.25Z"/><path id="_Path_3" data-name="&lt;Path&gt;" class="cls-4" d="M103.37,125c-14.76,0-25.05-7.79-31.37-16h-.08c6.49,14.39,14.83,21.72,25.94,24.69,9.09,2.42,19.78-.38,20.77-11.39,0,0,0-.07,0-.1v-.12c.08-1,.21-2.36.32-3.63A21.6,21.6,0,0,1,103.37,125Z"/><path id="_Path_4" data-name="&lt;Path&gt;" class="cls-2" d="M97.54,70.78a9.63,9.63,0,0,1,1,.23c.32.1.65.13.91.23s.5.16.7.22c.41.12.66.17.66.17s-.15-.19-.44-.5c-.15-.16-.33-.35-.55-.56a5,5,0,0,0-.81-.6,4.59,4.59,0,0,0-1-.61,6.29,6.29,0,0,0-1.28-.49,6.72,6.72,0,0,0-1.43-.29,7,7,0,0,0-1.52-.06,8.32,8.32,0,0,0-1.5.19,10.3,10.3,0,0,0-1.4.4,9.79,9.79,0,0,0-1.22.56,8.11,8.11,0,0,0-1,.63A6.78,6.78,0,0,0,86.9,72l.64-.2c.4-.13,1-.29,1.61-.48l1.06-.27.44-.1a2.56,2.56,0,0,0,5.1-.39v0l.64.06A10.42,10.42,0,0,1,97.54,70.78Z"/><path id="_Path_5" data-name="&lt;Path&gt;" class="cls-4" d="M87.55,65c2.35-.8,8.7.36,12.24,1.23,1,.26,2.46-.41,2.53-1.48.1-1.35-1.52-1.8-4.3-2.53-3-.78-9-2.34-12.47,0s-4.17,7.19-4.17,7.19S82.11,66.88,87.55,65Z"/><path id="_Path_6" data-name="&lt;Path&gt;" class="cls-4" d="M129.42,62.33c-2.71-2.35-7-.7-9.39-.44a3.51,3.51,0,0,0-2.73,1.46c-.75,1.06,0,2.73,1.08,2.4a26.79,26.79,0,0,1,8.05-1.08,3.83,3.83,0,0,1,3.74,3.79A6.27,6.27,0,0,0,130.6,64,4,4,0,0,0,129.42,62.33Z"/><path id="_Path_7" data-name="&lt;Path&gt;" class="cls-2" d="M118.15,71.25a7.78,7.78,0,0,1,.76-.23l.24-.08a2.56,2.56,0,0,0,5.09-.22l.5.09c.65.16,1.28.35,1.82.53,1.09.37,1.88.67,1.88.67a5.25,5.25,0,0,0-1.29-1.65,6.7,6.7,0,0,0-1.82-1.21,7.28,7.28,0,0,0-1.19-.43,6.91,6.91,0,0,0-1.3-.2,5.35,5.35,0,0,0-1.33.06,5.2,5.2,0,0,0-1.25.31,5.57,5.57,0,0,0-1.07.51,4,4,0,0,0-.84.61,3.66,3.66,0,0,0-.63.6c-.16.2-.29.39-.4.54s-.31.48-.31.48.21,0,.55-.17C117.73,71.4,117.94,71.34,118.15,71.25Z"/><path id="_Path_8" data-name="&lt;Path&gt;" class="cls-4" d="M107.8,92.31c4.5.46,7.43-.75,9.64-2.49,2-1.53-2.9-1.2-8.78-1a65.78,65.78,0,0,1-7.8,0S102.15,91.74,107.8,92.31Z"/><path id="_Path_9" data-name="&lt;Path&gt;" class="cls-2" d="M107.7,104.29l.63,0c-6.86-.26-10.26-3-11.16-3.88-1.28-.17-2.54-.37-3.75-.59C93.42,99.79,97,104.43,107.7,104.29Z"/><path id="_Path_10" data-name="&lt;Path&gt;" class="cls-2" d="M118.59,100.48a6.7,6.7,0,0,1-2.68,2.45c4.2-1.53,5.62-3.79,5.62-3.79A6.5,6.5,0,0,1,118.59,100.48Z"/><path id="_Path_11" data-name="&lt;Path&gt;" class="cls-4" d="M93.42,99.79c1.21.22,2.47.42,3.75.59,7.8,1.06,16.68,1.26,21.42.1a6.5,6.5,0,0,0,2.94-1.34C118.76,97.7,101.92,98.48,93.42,99.79Z"/><path id="_Path_12" data-name="&lt;Path&gt;" class="cls-2" d="M64.27,73.14a64.2,64.2,0,0,1,4.42,11.1l2.89-.62s-2.28-8.64,1-16.81a30.4,30.4,0,0,1,4-7.2S71.21,45,82.9,37.31c11.08-7.26,28.6-7.26,38.63-.06,8.28,6,8.68,17.33,8.68,17.33s4.82-20.92-9.32-32.7c-11.41-9.51-26.41-9.79-42.08-5.05s-26.39,24.89-22.11,47c.26,1.34.5,2.6.73,3.78C61.56,67.57,64.27,73.14,64.27,73.14Z"/></g></svg>