<svg xmlns="http://www.w3.org/2000/svg" xmlns:xlink="http://www.w3.org/1999/xlink" viewBox="3670 1638 180 180"><defs><style>.a{clip-path:url(#a);}.b{fill:#3ad7a4;}.c{clip-path:url(#b);}.d{fill:#fff;}.e,.h,.i,.j,.l{fill:none;stroke:#c4cbd2;stroke-miterlimit:10;}.e{stroke-width:1.829px;}.f,.k{fill:#091440;}.g{fill:#122f4b;}.h{stroke-width:2.167px;}.i{stroke-width:1.808px;}.j{stroke-width:1.921px;}.k{opacity:0.5;}.l{stroke-width:2.193px;}</style><clipPath id="a"><circle cx="90" cy="90" r="90"/></clipPath><clipPath id="b"><circle cx="90" cy="90" r="90" transform="translate(0.2)"/></clipPath></defs><g transform="translate(3669.8 1638)"><g class="a" transform="translate(0.2)"><circle class="b" cx="90" cy="90" r="90"/></g><g class="c"><circle class="d" cx="38.5" cy="38.5" r="38.5" transform="translate(45.101 26.371) rotate(-9.997)"/><line class="e" x1="12.5" y1="3.2" transform="translate(123.4 71.8)"/><path class="d" d="M118.1,54.5l9.5-3.6s3.2,42.1.1,52.6c-3,10.5-5.3,20.1-12.1,23.4s-19.7,4.7-30.6-1.4S59.3,84.3,59.3,84.3Z"/><path class="f" d="M0,142l53.4-18h56.1s44,24.1,48,33.6-1.2,16.1-1.2,16.1v15.8H3.3Z"/><path class="d" d="M61.6,91.3s-1.8,10.9-3.8,18.7a141.645,141.645,0,0,1-4.4,13.9s4.4,14.5,16.2,23.7,25.3,4.2,31.9-3.1,8-20.4,8-20.4Z"/><path class="f" d="M117.3,72.6a3.2,3.2,0,0,1,.1-.7,4.915,4.915,0,0,1,.8-1.7,7.006,7.006,0,0,1,.8-1,3.171,3.171,0,0,1,.6-.5,1.612,1.612,0,0,1,.7-.4,6.891,6.891,0,0,1,.8-.3c.3-.1.5-.1.8-.2h.8a1.95,1.95,0,0,1,.8.1l.4.1c.2,0,.3.1.4.1a6.373,6.373,0,0,0,.7.2c.5.2,1,.5,1.4.7a10.627,10.627,0,0,1,1.1.9,7.006,7.006,0,0,1,.8,1,6.76,6.76,0,0,1,.7,1.7,1.36,1.36,0,0,1,0,.7,6.474,6.474,0,0,0-1.5-1.7,7.018,7.018,0,0,0-.9-.6,4.671,4.671,0,0,0-1-.5,7.6,7.6,0,0,0-1.1-.4,6.373,6.373,0,0,0-.7-.2,1.007,1.007,0,0,1-.3-.1l-.3-.1a1.268,1.268,0,0,0-.6-.1H122a3.6,3.6,0,0,0-1.1.2c-.2,0-.3.1-.5.2s-.3.1-.5.2l-.9.6a14.251,14.251,0,0,0-1.2,1.1A3.958,3.958,0,0,1,117.3,72.6Z"/><circle class="g" cx="2.8" cy="2.8" r="2.8" transform="matrix(0.308, -0.951, 0.951, 0.308, 118.661, 72.665)"/><path class="f" d="M110.5,61.4s-2.9,3.1-4.3,3.1-7.3-1.7-11.3-2.4a15.029,15.029,0,0,0-11.2,2.1,14.082,14.082,0,0,1,9.2-4.7C98.9,58.9,110.5,61.4,110.5,61.4Z"/><path class="f" d="M117.9,64s2.9-5.6,8.4-5.3c2.2.1,2,3,2,3Z"/><path class="h" d="M107.2,75.6c-2.9,5-11.2,14-16.6,9.7h0c-5.1-4-6.4-14.1-3.1-19.7h0c3.6-6,13.7-4,18-1.1a15.142,15.142,0,0,1,2.6,2.3,5.357,5.357,0,0,1,.8,5.1A32.976,32.976,0,0,1,107.2,75.6Z"/><path class="i" d="M118.1,75.6c2.2,5.1,9.1,14.5,12.8,10.4h0c3.4-3.8,3.9-13.9,1.3-19.6h0c-2.8-6.1-10.5-4.5-13.4-1.8a26.473,26.473,0,0,0-1.7,2.2,6.736,6.736,0,0,0-.3,5A15.292,15.292,0,0,0,118.1,75.6Z"/><line class="j" x1="11.1" y2="0.1" transform="translate(107.1 65.8)"/><path class="j" d="M117.3,73.4l-2.8-2.8a2.416,2.416,0,0,0-3.5,0l-2.8,2.8"/><line class="e" x2="2.3" y2="0.1" transform="translate(133.6 74.9)"/><path class="k" d="M123.3,88.7c4.5-3.6-7.6,0-10.5.5-2.9.4-6.9,1.2-6.9,1.2S115.4,95,123.3,88.7Z"/><path class="k" d="M101.5,106.3s4.8-1.9,10.8-3.9c6.8-2.3,8.9-1.1,9.9.4a3.352,3.352,0,0,1,.7,2.8,9.856,9.856,0,0,0-2.4-.5c-.6.1-1.2.5-1.6.5-.7,0-.7-.7-3.7,0A43.955,43.955,0,0,1,101.5,106.3Z"/><path class="g" d="M102.4,106.4s12.7-1.9,16.6-1.8,3.8.9,3.8.9S121.6,107.6,102.4,106.4Z"/><path class="d" d="M111.2,105.3s5.7.9,9.3-.5C120.6,104.8,119.4,103.7,111.2,105.3Z"/><path class="f" d="M101.6,73.4a1.413,1.413,0,0,0-.5-.6,3.191,3.191,0,0,0-.6-.7,5.716,5.716,0,0,0-.8-.7c-.3-.2-.7-.5-1-.7-.4-.2-.8-.3-1.2-.5a5.9,5.9,0,0,0-1.4-.2h-.7l-.8.1c-.4.1-1.1.1-1.6.2l-1.5.3c-.5.1-.9.3-1.3.4-.4.2-.8.3-1.2.5a8.549,8.549,0,0,0-1.6,1.1,6.122,6.122,0,0,0-.6.5,1.758,1.758,0,0,1,.3-.8,4.521,4.521,0,0,1,1.3-1.7,6.233,6.233,0,0,1,1.2-.9c.4-.3.9-.5,1.4-.8.5-.2,1.1-.4,1.7-.6a10.106,10.106,0,0,1,1.7-.3l.9-.1h.9a11.627,11.627,0,0,1,1.8.4,3.766,3.766,0,0,1,1.5.9,3.459,3.459,0,0,1,1,1.1,3,3,0,0,1,.6,1.1l.3.9A5.417,5.417,0,0,1,101.6,73.4Z"/><circle class="g" cx="2.8" cy="2.8" r="2.8" transform="translate(89.959 69.029) rotate(-9.997)"/><path class="f" d="M124,104.1s-.2-2.8-3.8-3.7c-3-.8-8.2.5-12.1,2.1-2.4,1-8.8,3.8-8.8,3.8s1.4-1.8,7.1-6.6c4.8-4,9.1-6,10.8-4.1s.6.9.6.9,1.2-2.8,3.7-.7C124.1,97.9,124.6,101.4,124,104.1Z"/><path class="f" d="M128.8,96a45.136,45.136,0,0,1,.7,10.4c-.8,9.1-1.5,15.5-4.3,22.2-2.8,6.8-8.7,11.5-18.7,13s-17.4-1.5-25.2-7.7c-7.8-6.3-11.9-15.4-15.9-26.8-3.9-11.3-2.6-17.7-2.6-17.7s3.8,3.7,3.7-2.6l-.1-6.3,3.9-2s3,15,7.5,21.7,8.6,11.1,15.9,11.6a4.8,4.8,0,0,0,3.2-1.5c2.4,5.4,4.6,7.5,10.4,7,3.9-.3,2.3-2.5.8-4-1.4-1.6,7.9-2.9,11.3-2,3.4,1-2.4,3.4-.6,5.1C120.6,118.4,125.6,119.3,128.8,96Z"/><path class="f" d="M70.4,78.7s-1.5-8.3,1.3-13.3a12.582,12.582,0,0,1,7.8-6s2.9-8.9,1.2-15a103.42,103.42,0,0,0-4.4-12.2L86.6,29l-6.3-.9s6.6-4.1,17.3-3.3,20.3,6.6,20.3,6.6-3-7.2-14.3-11.8c-18-7.4-49.9,1.5-54.8,28.1-2,10.8,1.1,23,1.1,23S52,83.4,59.2,84.4C66.6,85.2,70.4,78.7,70.4,78.7Z"/><path class="l" d="M85.7,74H82.5L60.2,69.7"/><path class="d" d="M66.3,90.1a4.84,4.84,0,0,1-9,1.9,16.657,16.657,0,0,1-1.1-2.3c-3.6-7.7-7.6-13-6.1-19.1,1.1-4.6,4.4-6.3,10.1-2.8C65.1,70.8,67.7,78.8,66.3,90.1Z"/></g></g></svg>