<svg xmlns="http://www.w3.org/2000/svg" viewBox="0 0 180 180"><defs><style>.cls-1{fill:#2f74fb;}.cls-2{fill:#fff;}.cls-3{fill:#091440;}.cls-4{fill:#848aa0;}</style></defs><title>Asset 9</title><g id="Layer_2" data-name="Layer 2"><g id="illustrations"><g id="_Group_" data-name="&lt;Group&gt;"><circle id="_Path_" data-name="&lt;Path&gt;" class="cls-1" cx="90" cy="90" r="90"/><g id="_Group_2" data-name="&lt;Group&gt;"><path id="_Path_2" data-name="&lt;Path&gt;" class="cls-2" d="M94.59,101a9.62,9.62,0,0,1-4.46-.64c-2.43,1.12-4.31,4.23-2.76,8.27a7.06,7.06,0,0,0,8.42,4.62c4.71-1.07.68-3.41.59-5.09s1.49-2.49,6.16-3,6.17.62,6.09,2.22-3.34,3-.95,4.29,4.41-.64,5-3.55c.72-3.32.74-7.09-.71-8.74A85,85,0,0,1,101.25,101C98.12,101.14,97.51,100.81,94.59,101Z"/><path id="_Compound_Path_" data-name="&lt;Compound Path&gt;" class="cls-2" d="M112.19,32.54c-1.22-.95-2.45-1.8-3.68-2.6C101,36,87.91,28.21,81.42,28.07,74.56,27.92,70,38.18,69.54,44.27S73,52.34,73,52.34,67,63.77,67,74s8.39,21.5,12.87,21.86C85.76,96.32,86.73,93,99,93c10.29,0,12.62.65,16.07,3.39,1.9,1.51,5.79-.67,5.94-.75,1.12-4.59,1.89-9.12,2.53-13.16,1-6.34-1.92-9-1.61-16,0,0,.13-2.44-4.53-2.86a22.88,22.88,0,0,0-9.9,1.66c.33-3.36,2.22-5.67,8.11-5.76,4.29-.06,5.43.83,6.49,2.92a61.8,61.8,0,0,0-1-14.19C119.87,42.38,117.33,36.52,112.19,32.54ZM93,68.94a4.56,4.56,0,0,0-.56-.35,7.74,7.74,0,0,0-.75-.31,7.58,7.58,0,0,0-.91-.22c-.33,0-.68-.09-1-.12h0a2.57,2.57,0,0,1,.2,1,2.91,2.91,0,1,1-5.81,0,1.11,1.11,0,0,1,0-.19l-.84.36a12.9,12.9,0,0,0-1.85,1.12,2.89,2.89,0,0,1,.21-.61,5.17,5.17,0,0,1,.94-1.41,6.36,6.36,0,0,1,2-1.47,7.1,7.1,0,0,1,1.31-.5A8.38,8.38,0,0,1,87.26,66a10.59,10.59,0,0,1,1.38,0,9.87,9.87,0,0,1,1.39.21,7.56,7.56,0,0,1,1.24.45,5.39,5.39,0,0,1,1,.65,3.46,3.46,0,0,1,1,1.41,1.81,1.81,0,0,1,.14.64A3.19,3.19,0,0,0,93,68.94Zm1.24-5.66c-.53,1.72-1.91.93-7.25.73s-8.49,1.38-12.24,2.93a14,14,0,0,1,1.58-3.46c1.58-2,5.07-4.35,11.11-4.35S94.77,61.57,94.24,63.28Zm10.27,29.48c-5.55.94-9.74-1.2-10.16-3.33a34.78,34.78,0,0,0,9.56.57c5.47-.4,6.75-1.68,6.75-1.68S110.06,91.82,104.51,92.76Zm3.13-23.19a4.75,4.75,0,0,1,.83-1.55,5.44,5.44,0,0,1,2-1.62,5.8,5.8,0,0,1,1.38-.49,3.7,3.7,0,0,1,.74-.13l.37,0a2.92,2.92,0,0,1,.4,0c.22,0,.44,0,.67,0l.79.09a6,6,0,0,1,1.42.43,4.66,4.66,0,0,1,1.2.74,4.4,4.4,0,0,1,.83.92,3.85,3.85,0,0,1,.64,1.66,2.38,2.38,0,0,1,0,.66,4,4,0,0,0-.37-.51,5,5,0,0,0-.46-.51,6,6,0,0,0-.64-.54,5.05,5.05,0,0,0-1.79-.79l-.36-.06a2.35,2.35,0,0,1,.27,1.12,2.91,2.91,0,1,1-5.82,0,2.77,2.77,0,0,1,0-.3c-.17.09-.35.17-.5.26a9.63,9.63,0,0,0-1.75,1.33A2.58,2.58,0,0,1,107.64,69.57Z"/><path id="_Compound_Path_2" data-name="&lt;Compound Path&gt;" class="cls-3" d="M115.84,115.69c.11-.26.24-.5.35-.77,2.63-6.38,4.85-19.31,4.85-19.31h0c-.15.08-4,2.26-5.94.75C111.64,93.63,109.31,93,99,93c-12.29,0-13.26,3.34-19.11,2.86C75.43,95.48,67.12,84.19,67,74s6-21.64,6-21.64-4-2-3.5-8.07,5-16.35,11.88-16.2c6.49.14,19.58,7.93,27.09,1.87,1.23.8,2.46,1.65,3.68,2.6,5.14,4,7.68,9.84,8.91,15.72,1.67-13-10.11-22.67-10.43-22.92-.43-4.72-5.84-11.39-12.94-13.52C88.58,9.08,75.94,13,75.94,13A16.42,16.42,0,0,1,69,23.22c-6.1,4.26-15.22,11.05-17.5,20.19-1.71,6.83,1.2,16.85,3.48,24.41a9.37,9.37,0,0,1,1.72.07c4.18.55,6.71,7.59,6.71,7.59,2.51,4.47,5.2,15.19,2.44,18.31.32,1.43.61,3,.86,4.76a33.8,33.8,0,0,0,6.14,14.92c4.55,6.15,12.34,12,25.69,13.64,5.49.67,12.25-1.91,16.46-9.75h0a16.81,16.81,0,0,1-.61,2.34c-.7,9-3.57,24.43-15,25-14.24.72-28.44-4.39-33.55-13.48-1.75-3.12-3.82-6.07-2.66-9.45a18.56,18.56,0,0,0,.78-3.24c.07-.43.12-.9.17-1.39L13.82,137.93a90,90,0,0,0,152.84-.76Zm-4.32-16.77h0a2.59,2.59,0,0,1,.49.45c1.45,1.65,1.43,5.42.71,8.74-.64,2.91-2.65,4.88-5,3.55s.86-2.7.95-4.29-1.42-2.75-6.09-2.22-6.25,1.33-6.16,3,4.12,4-.59,5.09a7.06,7.06,0,0,1-8.42-4.62c-1.55-4,.33-7.15,2.76-8.27l.23-.1.31-.12C98.71,97.06,109.6,97.64,111.52,98.92Z"/><path id="_Path_3" data-name="&lt;Path&gt;" class="cls-2" d="M111.53,98.92h0c-1.92-1.28-12.81-1.86-20.85,1.23C98.69,99,107.12,98.55,111.53,98.92Z"/><path id="_Path_4" data-name="&lt;Path&gt;" class="cls-2" d="M63.2,121.78c-1.16,3.38.91,6.33,2.66,9.45,5.11,9.09,19.31,14.2,33.55,13.48,11.44-.57,14.31-16.05,15-25-1.6,5-6.93,15.68-22.45,11.41-14.32-4-19.1-17.65-19.1-17.65h0a33.8,33.8,0,0,1-6.14-14.92c-.25-1.76-.54-3.33-.86-4.76,2.76-3.12.07-13.84-2.44-18.31,0,0-2.53-7-6.71-7.59A9.37,9.37,0,0,0,55,67.82c-3,.2-4.15,2.31-3.12,6.89,1.21,5.39.66,9.61,4,13.61,3,3.59,3.55,6.52,7.24,6.43.9,7.91,1.57,16.9,1.07,22.4-.05.49-.1,1-.17,1.39A18.56,18.56,0,0,1,63.2,121.78Z"/><path id="_Path_5" data-name="&lt;Path&gt;" class="cls-4" d="M92,131.12c15.52,4.27,20.85-6.46,22.45-11.41a16.81,16.81,0,0,0,.61-2.34h0c-4.21,7.84-11,10.42-16.46,9.75-13.35-1.63-21.14-7.49-25.69-13.64h0S77.65,127.17,92,131.12Z"/><path id="_Path_6" data-name="&lt;Path&gt;" class="cls-3" d="M92.27,67.29a5.39,5.39,0,0,0-1-.65A7.56,7.56,0,0,0,90,66.19,9.87,9.87,0,0,0,88.64,66a10.59,10.59,0,0,0-1.38,0,8.38,8.38,0,0,0-1.43.25,7.1,7.1,0,0,0-1.31.5,6.36,6.36,0,0,0-2,1.47,5.17,5.17,0,0,0-.94,1.41,2.89,2.89,0,0,0-.21.61,12.9,12.9,0,0,1,1.85-1.12l.84-.36a1.11,1.11,0,0,0,0,.19,2.91,2.91,0,1,0,5.81,0,2.57,2.57,0,0,0-.2-1h0c.36,0,.71.07,1,.12a7.58,7.58,0,0,1,.91.22,7.74,7.74,0,0,1,.75.31,4.56,4.56,0,0,1,.56.35,3.19,3.19,0,0,1,.46.4,1.81,1.81,0,0,0-.14-.64A3.46,3.46,0,0,0,92.27,67.29Z"/><path id="_Path_7" data-name="&lt;Path&gt;" class="cls-3" d="M109.27,68.89c.15-.09.33-.17.5-.26a2.77,2.77,0,0,0,0,.3,2.91,2.91,0,1,0,5.82,0,2.35,2.35,0,0,0-.27-1.12l.36.06a5.05,5.05,0,0,1,1.79.79,6,6,0,0,1,.64.54,5,5,0,0,1,.46.51,4,4,0,0,1,.37.51,2.38,2.38,0,0,0,0-.66,3.85,3.85,0,0,0-.64-1.66,4.4,4.4,0,0,0-.83-.92,4.66,4.66,0,0,0-1.2-.74,6,6,0,0,0-1.42-.43l-.79-.09c-.23,0-.45,0-.67,0a2.92,2.92,0,0,0-.4,0l-.37,0a3.7,3.7,0,0,0-.74.13,5.8,5.8,0,0,0-1.38.49,5.44,5.44,0,0,0-2,1.62,4.75,4.75,0,0,0-.83,1.55,2.58,2.58,0,0,0-.12.65A9.63,9.63,0,0,1,109.27,68.89Z"/><path id="_Path_8" data-name="&lt;Path&gt;" class="cls-3" d="M87.44,59.13c-6,0-9.53,2.31-11.11,4.35a14,14,0,0,0-1.58,3.46C78.5,65.39,81.66,63.81,87,64s6.72,1,7.25-.73S93.48,59.13,87.44,59.13Z"/><path id="_Path_9" data-name="&lt;Path&gt;" class="cls-3" d="M115.63,59.53c-5.89.09-7.78,2.4-8.11,5.76a22.88,22.88,0,0,1,9.9-1.66c4.66.42,4.53,2.86,4.53,2.86a4.39,4.39,0,0,0,.17-4h0C121.06,60.36,119.92,59.47,115.63,59.53Z"/><path id="_Path_10" data-name="&lt;Path&gt;" class="cls-4" d="M94.35,89.43c.42,2.13,4.61,4.27,10.16,3.33s6.15-4.44,6.15-4.44-1.28,1.28-6.75,1.68A34.78,34.78,0,0,1,94.35,89.43Z"/><path id="_Path_11" data-name="&lt;Path&gt;" class="cls-4" d="M90.67,100.15l-.31.12-.23.1a9.62,9.62,0,0,0,4.46.64c2.92-.2,3.53.13,6.66,0A85,85,0,0,0,112,99.37a2.59,2.59,0,0,0-.49-.45C107.12,98.55,98.69,99,90.67,100.15Z"/></g></g></g></g></svg>