<svg id="illustrations" xmlns="http://www.w3.org/2000/svg" viewBox="0 0 180 180"><defs><style>.cls-1{fill:#3ad7a4;}.cls-2{fill:none;}.cls-3{fill:#fff;}.cls-4{fill:#848aa0;}.cls-5{fill:#091440;}</style></defs><title>dcr_portraits5</title><circle id="_Path_" data-name="&lt;Path&gt;" class="cls-1" cx="90" cy="90" r="90"/><path class="cls-2" d="M123.35,56.47c.2,1.28.36,2.52.47,3.73A34.65,34.65,0,0,0,123.35,56.47Z"/><path class="cls-3" d="M55.71,131.92c-.33.51-.67,1-1,1.45-4.6,6,9.26,25.55,29.64,25.55,16.32,0,21.29-6.77,23.31-17,0,0-4,2.15-13.43,1.79s-19.54-6.53-28.15-31.13h0a106,106,0,0,1-4.58-14.19c.08-.14.17-.27.25-.42,3.57-6.41-2-16.66-2-16.66-1.43-2.86-3-5-4.63-5.93-2.14-1.26-4.48-.67-7,2.54-4,5,2.55,12.45,4,16.18,1.28,3.36,5.19,9,8.57,5.41C62,116.75,59.34,126.3,55.71,131.92Z"/><path class="cls-3" d="M107.76,141.25l-.12.62C107.68,141.66,107.72,141.46,107.76,141.25Z"/><path class="cls-4" d="M107.64,141.87l.12-.62.93-4.8c-8.68,4.53-20,2.9-27.43-2.47-6.85-4.92-11.73-13-15.19-21.44h0c8.61,24.59,18.68,30.77,28.15,31.13s13.43-1.79,13.43-1.79h0Z"/><path class="cls-3" d="M116,65.64a13.7,13.7,0,0,0-5.06,2.54,4.78,4.78,0,0,1,1.37-5.72,9,9,0,0,1,8.26-1.11c1.65.56,2.86,1.22,3.46,2.41,0-.84-.06-2.07-.17-3.55-.12-1.21-.27-2.45-.47-3.73a21,21,0,0,0-9-14.29c.21,5-19-3.34-28.14-6.79-8.53-3.21-20.73,10.54-17.11,23.4,3,10.58-5.21,16.64-2.7,28.38.47,3.67,4.94,21.13,9.26,21.13,2,0,1.78-6.2,2.41-6.77,1.27-1.15,3.09-.15,5.23-.74,4.21-1.17,9.78-4.74,19.3-4.27,8.59.43,9,2.45,13.62,4,1.47.48,2.62-.71,3.27.12,1.86,2.36,1.39,6.17,2.48,5.61,1.49-.76,2.54-5.48,2.56-5.5.15-2.63.06-5.13.26-8.75.42-7.74.85-10.69-.26-16.53a53.9,53.9,0,0,1-.34-7.74l0,.08C123.56,65.21,119.47,64.56,116,65.64ZM114,68.58a9.42,9.42,0,0,1,3.34-.56,6.57,6.57,0,0,1,3.32.91,5.34,5.34,0,0,1,2.23,2.51,8.74,8.74,0,0,0-2.62-1.76,8.3,8.3,0,0,0-3-.68,11.49,11.49,0,0,0-6.1,1.4A6.92,6.92,0,0,1,114,68.58ZM74.6,67.79c.46-3.15,1.5-5.43,6.62-6.44a25.19,25.19,0,0,1,14.28,1.11c3.23,1.31,3.68,3.8,2.37,5.72,0,0-2.69-1.46-8.76-2.54S78.75,65,74.6,67.79Zm7.93,1a8.05,8.05,0,0,1,3.83-1.45,11.14,11.14,0,0,1,4,.32,5.57,5.57,0,0,1,3.31,2.21,6.93,6.93,0,0,0-3.48-1.46,14.61,14.61,0,0,0-3.77-.08,9.28,9.28,0,0,0-3.51,1.13,15,15,0,0,0-3.1,2.29A8.82,8.82,0,0,1,82.53,68.79Zm6.9,4.37a2.43,2.43,0,1,1-4.74-.85,30.75,30.75,0,0,0-3.42,1.08,7.62,7.62,0,0,1,2.92-2.56,8.46,8.46,0,0,1,3.91-1A7.33,7.33,0,0,1,92,71a7.17,7.17,0,0,1,2.54,3,24.11,24.11,0,0,0-3.25-1.58A10,10,0,0,0,89.17,72,2.4,2.4,0,0,1,89.43,73.16ZM104,96.27c-6.42.55-11.88-3.89-11.88-3.89,2,.82,4.92,1.23,10.45,1.37s10.45-.2,10.45-.2S110.44,95.72,104,96.27Zm16.22-23a8,8,0,0,0-2.91-.85,2.43,2.43,0,1,1-4,.49,8.59,8.59,0,0,0-2.78,1.69,5.17,5.17,0,0,1,2.5-3.24,7.26,7.26,0,0,1,4.14-1,6.69,6.69,0,0,1,4,1.59,6.34,6.34,0,0,1,2.14,3.46A14.68,14.68,0,0,0,120.24,73.3Z"/><path class="cls-3" d="M83.14,109c-.84,3.88.8,8.89,4.8,13.07s12,5.41,17.79,4.28a13.55,13.55,0,0,0,10.89-11.87c.61-6-.17-8.18-7-11.14s-12.3-1.88-18.13,0S84,105.23,83.14,109Zm14.15-4.73c4.39-1.42,4.48.44,6.75.15s2.22-.9,4.14-.38,3.43,1.63,6.64,3.89a11.33,11.33,0,0,1-2.28-.12c-.56,1-2.79,4-8.53,4-6.8,0-12.22-3.34-14.66-4.58h0a11.74,11.74,0,0,1-2.78-.78A99.77,99.77,0,0,0,97.29,104.31Z"/><path class="cls-5" d="M121.12,72a6.69,6.69,0,0,0-4-1.59,7.26,7.26,0,0,0-4.14,1,5.17,5.17,0,0,0-2.5,3.24,8.59,8.59,0,0,1,2.78-1.69,2.43,2.43,0,1,0,4-.49,8,8,0,0,1,2.91.85,14.68,14.68,0,0,1,3,2.17A6.34,6.34,0,0,0,121.12,72Z"/><path class="cls-5" d="M89.12,65.64c6.07,1.08,8.76,2.54,8.76,2.54,1.31-1.92.85-4.41-2.37-5.72a25.19,25.19,0,0,0-14.28-1.11c-5.12,1-6.16,3.29-6.62,6.44C78.75,65,83.05,64.56,89.12,65.64Z"/><path class="cls-4" d="M102.59,93.74c-5.53-.14-8.47-.55-10.45-1.37,0,0,5.46,4.44,11.88,3.89s9-2.73,9-2.73S108.12,93.88,102.59,93.74Z"/><path class="cls-5" d="M59.76,81.27s5.55,10.25,2,16.66c-.08.15-.17.28-.25.42a106,106,0,0,0,4.58,14.19C69.53,121,74.41,129.06,81.26,134c7.46,5.37,18.76,7,27.43,2.47l-.93,4.8c0,.21-.08.41-.12.62h0c-2,10.28-7,17-23.31,17-20.38,0-34.24-19.54-29.64-25.55.34-.45.68-.93,1-1.45L20.57,147.27a90,90,0,0,0,132.09,7.32L109.55,136a21.84,21.84,0,0,0,9.32-11.06,80.07,80.07,0,0,0,5.67-24.21h0s-1.08,4.74-2.56,5.5c-1.09.56-.62-3.25-2.48-5.61-.65-.82-1.8.36-3.27-.12-4.62-1.52-5-3.54-13.62-4-9.51-.48-15.09,3.1-19.3,4.27-2.15.6-4-.4-5.23.74-.63.57-.4,6.77-2.41,6.77-4.33,0-8.79-17.46-9.26-21.13-2.51-11.73,5.68-17.8,2.7-28.38-3.62-12.86,8.58-26.61,17.11-23.4,9.17,3.45,28.35,11.79,28.14,6.79a21,21,0,0,1,9,14.29,34.65,34.65,0,0,1,.47,3.73c.11,1.48.13,2.71.17,3.55-.6-1.19-1.81-1.85-3.46-2.41a9,9,0,0,0-8.26,1.11,4.78,4.78,0,0,0-1.37,5.72A13.7,13.7,0,0,1,116,65.64c3.51-1.08,7.6-.43,8.21,2.15l0-.08a6.84,6.84,0,0,0,0-3.41,58,58,0,0,0,1.1-10.08c0-15.29-4.8-19.89-11.42-24.17s-17.24-11.86-34.8-4.19C63.4,32.71,56.21,41.12,54.29,55.76a57.7,57.7,0,0,0,.83,19.58C56.79,76.32,58.33,78.41,59.76,81.27Zm31.78,22.14c5.83-1.91,11.34-3,18.13,0s7.56,5.13,7,11.14a13.55,13.55,0,0,1-10.89,11.87c-5.74,1.13-13.79-.11-17.79-4.28s-5.64-9.19-4.8-13.07S85.71,105.33,91.54,103.42Z"/><path class="cls-5" d="M94.56,74A7.17,7.17,0,0,0,92,71a7.33,7.33,0,0,0-3.92-1.15,8.46,8.46,0,0,0-3.91,1,7.62,7.62,0,0,0-2.92,2.56,30.75,30.75,0,0,1,3.42-1.08A2.43,2.43,0,1,0,89.17,72a10,10,0,0,1,2.13.48A24.11,24.11,0,0,1,94.56,74Z"/><path class="cls-5" d="M86.46,68.33a14.61,14.61,0,0,1,3.77.08,6.93,6.93,0,0,1,3.48,1.46,5.57,5.57,0,0,0-3.31-2.21,11.14,11.14,0,0,0-4-.32,8.05,8.05,0,0,0-3.83,1.45,8.82,8.82,0,0,0-2.69,3,15,15,0,0,1,3.1-2.29A9.28,9.28,0,0,1,86.46,68.33Z"/><path class="cls-5" d="M117.33,69a8.3,8.3,0,0,1,3,.68,8.74,8.74,0,0,1,2.62,1.76,5.34,5.34,0,0,0-2.23-2.51,6.57,6.57,0,0,0-3.32-.91,9.42,9.42,0,0,0-3.34.56,6.92,6.92,0,0,0-2.79,1.82A11.49,11.49,0,0,1,117.33,69Z"/><path class="cls-5" d="M104.71,110.24c-5.31,0-11.32-2.77-11.32-2.77h0a20.29,20.29,0,0,1-4-.2h0c2.44,1.24,7.86,4.58,14.66,4.58,5.74,0,8-3,8.53-4-.56-.08-1.12-.19-1.7-.32C110.66,108,109.54,110.24,104.71,110.24Z"/><path class="cls-3" d="M104.71,110.24c4.83,0,6-2.29,6.12-2.7-2.79-.6-5.87-1.52-9.8-.93a73.36,73.36,0,0,1-7.63.86h0S99.39,110.24,104.71,110.24Z"/><path class="cls-4" d="M93.39,107.46a73.36,73.36,0,0,0,7.63-.86c3.93-.58,7,.33,9.8.93.58.12,1.14.23,1.7.32a11.33,11.33,0,0,0,2.28.12c-3.21-2.26-4.72-3.37-6.64-3.89s-1.87.09-4.14.38-2.35-1.57-6.75-.15a99.77,99.77,0,0,1-10.7,2.18,11.74,11.74,0,0,0,2.78.78A20.29,20.29,0,0,0,93.39,107.46Z"/></svg>