<?xml version="1.0" encoding="utf-8"?>
<!-- Generator: Adobe Illustrator 16.0.0, SVG Export Plug-In . SVG Version: 6.00 Build 0)  -->
<!DOCTYPE svg PUBLIC "-//W3C//DTD SVG 1.1//EN" "http://www.w3.org/Graphics/SVG/1.1/DTD/svg11.dtd">
<svg version="1.1" id="Layer_1" xmlns="http://www.w3.org/2000/svg" xmlns:xlink="http://www.w3.org/1999/xlink" x="0px" y="0px"
	 width="340px" height="340px" viewBox="0.081 0.405 340 340" enable-background="new 0.081 0.405 340 340" xml:space="preserve">
<path opacity="0.5" fill="#FFFFFF" enable-background="new    " d="M252.402,233.711h-32.993c-1.104,0-2-0.896-2-2v-68.073
	c0-3.949-0.154-7.722-0.457-11.213c-0.289-3.282-1.074-6.153-2.332-8.53c-1.204-2.275-3.017-4.119-5.384-5.476
	c-2.394-1.362-5.775-2.056-10.042-2.056c-4.238,0-7.674,0.798-10.213,2.37c-2.565,1.597-4.604,3.701-6.053,6.259
	c-1.498,2.643-2.511,5.693-3.014,9.066c-0.525,3.514-0.793,7.125-0.793,10.741v66.91c0,1.104-0.896,2-2,2h-32.991
	c-1.104,0-2-0.896-2-2v-67.373c0-3.436-0.077-6.964-0.228-10.485c-0.148-3.251-0.767-6.277-1.841-8.995
	c-1.019-2.57-2.667-4.584-5.047-6.152c-2.372-1.553-6.029-2.341-10.865-2.341c-1.372,0-3.265,0.327-5.629,0.976
	c-2.28,0.624-4.536,1.826-6.705,3.577c-2.152,1.731-4.036,4.306-5.605,7.654c-1.568,3.356-2.366,7.878-2.366,13.438v69.701
	c0,1.104-0.896,2-2,2H68.857c-1.104,0-2-0.896-2-2V111.594c0-1.104,0.896-1.999,2-1.999h31.13c1.104,0,2,0.896,2,1.999v11.007
	c3.834-4.499,8.248-8.151,13.173-10.896c6.396-3.56,13.799-5.362,22.002-5.362c7.846,0,15.127,1.548,21.643,4.604
	c5.794,2.722,10.424,7.26,13.791,13.52c3.448-4.362,7.833-8.306,13.07-11.752c6.422-4.229,14.103-6.371,22.824-6.371
	c6.499,0,12.625,0.807,18.209,2.399c5.687,1.628,10.635,4.271,14.712,7.856c4.088,3.605,7.318,8.357,9.602,14.123
	c2.25,5.719,3.391,12.649,3.391,20.604v80.384C254.402,232.815,253.507,233.711,252.402,233.711L252.402,233.711z"/>
<path opacity="0.5" fill="#FFFFFF" enable-background="new    " d="M99.988,111.595v16.264h0.463
	c4.338-6.19,9.563-10.998,15.684-14.405c6.117-3.402,13.13-5.11,21.027-5.11c7.588,0,14.521,1.475,20.793,4.415
	c6.274,2.945,11.038,8.131,14.291,15.567c3.561-5.266,8.4-9.913,14.521-13.94c6.116-4.025,13.357-6.042,21.724-6.042
	c6.351,0,12.234,0.776,17.66,2.325c5.418,1.549,10.064,4.026,13.938,7.434c3.869,3.41,6.89,7.863,9.062,13.357
	c2.167,5.504,3.253,12.122,3.253,19.869v80.385H219.41v-68.074c0-4.024-0.154-7.82-0.465-11.385
	c-0.313-3.561-1.161-6.656-2.555-9.293c-1.396-2.631-3.45-4.725-6.157-6.274c-2.711-1.543-6.392-2.321-11.037-2.321
	c-4.646,0-8.403,0.896-11.269,2.671c-2.868,1.783-5.112,4.108-6.737,6.971c-1.626,2.869-2.711,6.12-3.252,9.762
	c-0.545,3.639-0.814,7.318-0.814,11.035v66.91h-32.991v-67.375c0-3.562-0.08-7.087-0.229-10.57c-0.158-3.486-0.814-6.7-1.979-9.645
	c-1.161-2.94-3.099-5.305-5.809-7.088c-2.711-1.775-6.699-2.671-11.965-2.671c-1.551,0-3.604,0.349-6.156,1.048
	c-2.556,0.696-5.036,2.016-7.435,3.948c-2.404,1.938-4.454,4.727-6.158,8.363c-1.705,3.643-2.556,8.402-2.556,14.287v69.701h-32.99
	V111.595H99.988z"/>
<path fill="#091440" d="M109.438,111.595v16.264h0.463c4.338-6.19,9.563-10.998,15.684-14.405c6.117-3.402,13.13-5.11,21.027-5.11
	c7.588,0,14.521,1.475,20.793,4.415c6.274,2.945,11.038,8.131,14.291,15.567c3.561-5.266,8.4-9.913,14.521-13.94
	c6.116-4.025,13.357-6.042,21.724-6.042c6.351,0,12.234,0.776,17.66,2.325c5.418,1.549,10.064,4.026,13.938,7.434
	c3.869,3.41,6.89,7.863,9.062,13.357c2.167,5.504,3.253,12.122,3.253,19.869v80.385H228.86v-68.074c0-4.024-0.154-7.82-0.465-11.385
	c-0.313-3.561-1.161-6.656-2.555-9.293c-1.396-2.631-3.45-4.725-6.157-6.274c-2.711-1.543-6.392-2.321-11.037-2.321
	c-4.646,0-8.403,0.896-11.269,2.671c-2.868,1.783-5.112,4.108-6.737,6.971c-1.626,2.869-2.711,6.12-3.252,9.762
	c-0.545,3.639-0.814,7.318-0.814,11.035v66.91h-32.991v-67.375c0-3.562-0.08-7.087-0.229-10.57c-0.158-3.486-0.814-6.7-1.979-9.645
	c-1.161-2.94-3.099-5.305-5.809-7.088c-2.711-1.775-6.699-2.671-11.965-2.671c-1.551,0-3.604,0.349-6.156,1.048
	c-2.556,0.696-5.036,2.016-7.435,3.948c-2.404,1.938-4.454,4.727-6.158,8.363c-1.705,3.643-2.556,8.402-2.556,14.287v69.701h-32.99
	V111.595H109.438z"/>
<path opacity="0.5" fill="#FFFFFF" enable-background="new    " d="M10.875,9.711v321.386h23.13v7.711H1.999V2.001h32.006v7.71
	H10.875z"/>
<path fill="#091440" stroke="#091440" stroke-width="9" stroke-miterlimit="10" d="M15.611,15.5v311.827h22.442v7.481H6.999V8.02
	h31.054v7.48H15.611z"/>
<path opacity="0.5" fill="#FFFFFF" enable-background="new    " d="M329.282,331.097V9.711h-23.13v-7.71h32.008v336.807h-32.008
	v-7.711H329.282L329.282,331.097z"/>
<path fill="#091440" stroke="#091440" stroke-width="9" stroke-miterlimit="10" d="M324.547,327.326V15.5h-22.441V8.02h31.056
	v326.788h-31.056v-7.481H324.547L324.547,327.326z"/>
</svg>
