<svg xmlns="http://www.w3.org/2000/svg" viewBox="0 0 180 180"><defs><style>.cls-1{fill:#2f74fb;}.cls-2{fill:#091440;}.cls-3{fill:#fff;}.cls-4{fill:#848aa0;}.cls-5{fill:#c1c4cf;}</style></defs><title>Asset 5</title><g id="Layer_2" data-name="Layer 2"><g id="illustrations"><g id="_Group_" data-name="&lt;Group&gt;"><circle id="_Path_" data-name="&lt;Path&gt;" class="cls-1" cx="90" cy="90" r="90"/><g id="_Group_2" data-name="&lt;Group&gt;"><path id="_Path_2" data-name="&lt;Path&gt;" class="cls-2" d="M116.19,124a5.23,5.23,0,0,1-1,.41l-.06.41v.09c-.06.49-.13,1-.19,1.44,0,.07,0,.15,0,.22-.06.48-.13,1-.2,1.4a1.87,1.87,0,0,0,0,.25c-.07.41-.13.8-.2,1.19l0,.16c-.07.41-.15.8-.22,1.17a2.38,2.38,0,0,0,0,.26c-.08.37-.16.73-.24,1.06s-.17.66-.26,1h0c-2,6.87-8.41,17-22,16.31-14.27-.72-24.33-14.95-27.57-20.21a4.51,4.51,0,0,1-.48-3.72l-44.2,20.45a90,90,0,0,0,144.93-5.12Z"/><path id="_Compound_Path_" data-name="&lt;Compound Path&gt;" class="cls-3" d="M64.1,129.11c3.24,5.26,13.3,19.49,27.57,20.21,13.61.68,20-9.44,22-16.31-6.12,3.49-18.83,1.94-24.09-2.42C82.83,125,78,117.23,74.76,113.75h0c2.37,1.46,5.26,2.88,8.36,5.11,6.58,4.74,10.68,7.35,18.18,6.89a121.36,121.36,0,0,0,13.16-1.23,5.35,5.35,0,0,0,.76-.16c0,.13,0,.27,0,.41l.06-.41a5.23,5.23,0,0,0,1-.41c2.45-1.38,2.93-4.9,6.82-10.14,4.87-6.58,4.32-13.85,6.62-24.07,1.76-7.84,2.3-8.75,1.45-13.49-.26-1.44-.65-3.23-1.17-5.67-.67-3.15-.3-7.34-.16-11.75h0l-.06,2c-6.78-5.14-10.4-4.58-14.36-3.49,0,0,1.93-5.3,6.64-4.79a14.25,14.25,0,0,1,2.34.47,17.6,17.6,0,0,1-1-2.22,18.86,18.86,0,0,1-8.69-1.52c-4.73-2-11.65-11.79-11.65-11.79l-7.19-1.07a21.1,21.1,0,0,1-11-4.77,17.21,17.21,0,0,0-2.82,1.68c-2.56,2-5.93,6.11-5.92,13.78,0,12.34-5.79,16.13-7.93,16.59,0,0,1,10.25-3.16,15h0a6.51,6.51,0,0,1-.51.54l-.06.06a5.47,5.47,0,0,1-.58.5,13,13,0,0,1-3.71,1.87h0a24.92,24.92,0,0,1-9.95.78c.16.65.33,1.26.5,1.82a39.25,39.25,0,0,0,3,6.87c2.52,4.59,6.16,8.89,9.79,6.56.72,6.25,1.54,14,1.62,17.79a31.79,31.79,0,0,1-1.34,9.9A4.51,4.51,0,0,0,64.1,129.11ZM83.43,69.3l1-.79,1.13-.91.07-.06,0,0,.08,0,0,0,.16-.11.33-.22.33-.23.44-.21a7.61,7.61,0,0,1,1.83-.58l.92-.09c.31,0,.61,0,.92,0a5.18,5.18,0,0,1,.88.12,5.87,5.87,0,0,1,.83.19,9,9,0,0,1,1.49.55,9.57,9.57,0,0,1,1.24.67,8.48,8.48,0,0,1,2.17,1.86s-1.09-.39-2.63-.84A19.57,19.57,0,0,0,92.08,68a6.9,6.9,0,0,0-1-.09,2.27,2.27,0,0,1,.27,1.1,2.76,2.76,0,0,1-5.5.38,12.92,12.92,0,0,1-1.87.88,5.86,5.86,0,0,1-2.08.43,1.2,1.2,0,0,1-.78-.2.47.47,0,0,0,.19,0,2.7,2.7,0,0,0,.52-.18A10.42,10.42,0,0,0,83.43,69.3Zm-1.55-4.07A5.52,5.52,0,0,1,83.07,64a8.24,8.24,0,0,1,1.51-1,8.79,8.79,0,0,1,.93-.43c.33-.13.67-.23,1-.33s.7-.14,1-.21a8.93,8.93,0,0,1,1-.08,7.52,7.52,0,0,1,1,0,5.14,5.14,0,0,1,.84.12,6.42,6.42,0,0,1,1.23.34l.44.18H91c-.2,0-.44,0-.69,0a7.63,7.63,0,0,0-.8.05c-.29,0-.58,0-.89.1a13.05,13.05,0,0,0-1.88.38,14.51,14.51,0,0,0-1.83.59c-.58.23-1.11.46-1.56.68C82.48,64.87,81.88,65.23,81.88,65.23Zm25,45.55c-3.25.9-2.37-2.09-.84-2.09S109.39,110.08,106.88,110.78Zm5.8-9.53a32.93,32.93,0,0,0-5.88.39,36.69,36.69,0,0,0-7.16-.07c-4.12.34-5.28-.72-5.28-.72,2.82-.2,7.78-2.44,9.23-2.95s2.57,1.19,3.34,1.19,2.39-1.54,3.51-1.11c3.25,1.54,7.1,2.87,7.1,2.87A18.49,18.49,0,0,1,112.68,101.25Zm5.42-37.57a5.35,5.35,0,0,1,.77-.27,6,6,0,0,1,.9-.17,6.16,6.16,0,0,1,1-.06,8.42,8.42,0,0,1,1,.08c.34.05.67.15,1,.22s.62.23.91.34.55.29.8.42a6.48,6.48,0,0,1,.67.46,5.82,5.82,0,0,1,.89.8c.2.2.31.33.31.33l-.42-.18c-.27-.1-.62-.3-1.06-.46-.22-.09-.45-.2-.7-.29a8.29,8.29,0,0,1-.79-.28c-.28-.07-.57-.14-.86-.23l-.88-.17c-.31,0-.6-.1-.9-.1a8.72,8.72,0,0,0-.88,0,12.1,12.1,0,0,0-1.57.12,11.19,11.19,0,0,0-1.56.34A4.34,4.34,0,0,1,118.1,63.68Zm-2.78,5a6.2,6.2,0,0,1,1.32-1.19,6.43,6.43,0,0,1,2.4-1,6.28,6.28,0,0,1,3.06.19,6.68,6.68,0,0,1,1.41.64,9,9,0,0,1,1.18.87l1.72,1.56,1.24,1.11c.31.27.51.41.51.41a3.82,3.82,0,0,1-.66-.08,9.25,9.25,0,0,1-1.66-.53,10.73,10.73,0,0,1-1-.49c-.36-.2-.74-.41-1.11-.64a11,11,0,0,0-1.46-.72c0,.06,0,.1,0,.16a2.77,2.77,0,1,1-5.53,0c0-.13,0-.24,0-.36a16.67,16.67,0,0,0-1.79.61A3.62,3.62,0,0,1,115.32,68.72ZM110.93,86.9a46.72,46.72,0,0,0,6.34-1.21s-1.23,3.19-6.46,4.15-9.14-1.18-12.28-3.18A48.14,48.14,0,0,0,110.93,86.9Zm-31.87-30c3.33-3.34,5.93-5.28,11.57-6,6-.8,8,1.49,9.89,5.18.32.65-6.59-1.11-12.74-.07s-12,5.63-12,5.63A17.17,17.17,0,0,1,79.06,56.94Z"/><path id="_Path_3" data-name="&lt;Path&gt;" class="cls-3" d="M114.46,129.52c-.07.41-.15.8-.22,1.17C114.31,130.32,114.39,129.93,114.46,129.52Z"/><path id="_Path_4" data-name="&lt;Path&gt;" class="cls-3" d="M114.69,128.17c-.07.41-.13.8-.2,1.19C114.56,129,114.62,128.58,114.69,128.17Z"/><path id="_Path_5" data-name="&lt;Path&gt;" class="cls-3" d="M114.93,126.52c-.06.48-.13.94-.2,1.4C114.8,127.47,114.87,127,114.93,126.52Z"/><path id="_Path_6" data-name="&lt;Path&gt;" class="cls-3" d="M115.16,124.86c-.06.49-.13,1-.19,1.44C115,125.83,115.1,125.35,115.16,124.86Z"/><path id="_Path_7" data-name="&lt;Path&gt;" class="cls-3" d="M114,132c-.07.32-.17.66-.26,1C113.78,132.67,113.88,132.33,114,132Z"/><path id="_Path_8" data-name="&lt;Path&gt;" class="cls-3" d="M114.19,131c-.08.37-.16.73-.24,1.06C114,131.68,114.11,131.32,114.19,131Z"/><path id="_Path_9" data-name="&lt;Path&gt;" class="cls-4" d="M114.46,124.52a121.36,121.36,0,0,1-13.16,1.23c-7.5.46-11.6-2.15-18.18-6.89-3.1-2.23-6-3.65-8.36-5.11h0C78,117.23,82.83,125,89.6,130.59c5.26,4.36,18,5.91,24.09,2.42h0c.09-.34.19-.68.26-1s.16-.69.24-1.06a2.38,2.38,0,0,1,0-.26c.07-.37.15-.76.22-1.17l0-.16c.07-.39.13-.78.2-1.19a1.87,1.87,0,0,1,0-.25c.07-.46.14-.92.2-1.4,0-.07,0-.15,0-.22.06-.47.13-1,.19-1.44v-.09c0-.14,0-.28,0-.41A5.35,5.35,0,0,1,114.46,124.52Z"/><polygon id="_Path_10" data-name="&lt;Path&gt;" class="cls-3" points="68.07 63.64 68.07 63.64 68.07 63.64 68.07 63.64"/><path id="_Path_11" data-name="&lt;Path&gt;" class="cls-4" d="M110.81,89.84c5.23-1,6.46-4.15,6.46-4.15a46.72,46.72,0,0,1-6.34,1.21,48.14,48.14,0,0,1-12.4-.24C101.67,88.66,105.57,90.81,110.81,89.84Z"/><path id="_Path_12" data-name="&lt;Path&gt;" class="cls-2" d="M81.29,70.52a.47.47,0,0,1-.19,0,1.2,1.2,0,0,0,.78.2A5.86,5.86,0,0,0,84,70.29a12.92,12.92,0,0,0,1.87-.88,2.76,2.76,0,0,0,5.5-.38,2.27,2.27,0,0,0-.27-1.1,6.9,6.9,0,0,1,1,.09,19.57,19.57,0,0,1,2.63.55c1.54.45,2.63.84,2.63.84a8.48,8.48,0,0,0-2.17-1.86,9.57,9.57,0,0,0-1.24-.67,9,9,0,0,0-1.49-.55,5.87,5.87,0,0,0-.83-.19,5.18,5.18,0,0,0-.88-.12c-.31,0-.61,0-.92,0l-.92.09a7.61,7.61,0,0,0-1.83.58l-.44.21-.33.23-.33.22-.16.11,0,0-.08,0,0,0-.07.06-1.13.91-1,.79a10.42,10.42,0,0,1-1.62,1A2.7,2.7,0,0,1,81.29,70.52Z"/><path id="_Path_13" data-name="&lt;Path&gt;" class="cls-2" d="M86.77,63.15a13.05,13.05,0,0,1,1.88-.38c.31-.06.6-.06.89-.1a7.63,7.63,0,0,1,.8-.05c.25,0,.49,0,.69,0h1l-.44-.18a6.42,6.42,0,0,0-1.23-.34,5.14,5.14,0,0,0-.84-.12,7.52,7.52,0,0,0-1,0,8.93,8.93,0,0,0-1,.08c-.34.07-.7.11-1,.21s-.68.2-1,.33a8.79,8.79,0,0,0-.93.43,8.24,8.24,0,0,0-1.51,1,5.52,5.52,0,0,0-1.19,1.27s.6-.36,1.5-.81c.45-.22,1-.45,1.56-.68A14.51,14.51,0,0,1,86.77,63.15Z"/><path id="_Path_14" data-name="&lt;Path&gt;" class="cls-5" d="M100.52,56.08c-1.85-3.69-3.85-6-9.89-5.18-5.64.76-8.24,2.7-11.57,6a17.17,17.17,0,0,0-3.25,4.7s5.81-4.58,12-5.63S100.84,56.73,100.52,56.08Z"/><path id="_Path_15" data-name="&lt;Path&gt;" class="cls-2" d="M116.7,69a2.77,2.77,0,1,0,5.53,0c0-.06,0-.1,0-.16a11,11,0,0,1,1.46.72c.37.23.75.44,1.11.64a10.73,10.73,0,0,0,1,.49,9.25,9.25,0,0,0,1.66.53,3.82,3.82,0,0,0,.66.08s-.2-.14-.51-.41l-1.24-1.11-1.72-1.56a9,9,0,0,0-1.18-.87,6.68,6.68,0,0,0-1.41-.64,6.28,6.28,0,0,0-3.06-.19,6.43,6.43,0,0,0-2.4,1,6.2,6.2,0,0,0-1.32,1.19,3.62,3.62,0,0,0-.38.56,16.67,16.67,0,0,1,1.79-.61C116.72,68.79,116.7,68.9,116.7,69Z"/><path id="_Path_16" data-name="&lt;Path&gt;" class="cls-2" d="M119.83,64.09a8.72,8.72,0,0,1,.88,0c.3,0,.59.07.9.1l.88.17c.29.09.58.16.86.23a8.29,8.29,0,0,0,.79.28c.25.09.48.2.7.29.44.16.79.36,1.06.46l.42.18s-.11-.13-.31-.33a5.82,5.82,0,0,0-.89-.8,6.48,6.48,0,0,0-.67-.46c-.25-.13-.51-.28-.8-.42s-.59-.24-.91-.34-.65-.17-1-.22a8.42,8.42,0,0,0-1-.08,6.16,6.16,0,0,0-1,.06,6,6,0,0,0-.9.17,5.35,5.35,0,0,0-.77.27,4.34,4.34,0,0,0-1.4.87,11.19,11.19,0,0,1,1.56-.34A12.1,12.1,0,0,1,119.83,64.09Z"/><path id="_Path_17" data-name="&lt;Path&gt;" class="cls-5" d="M124.3,53a14.25,14.25,0,0,0-2.34-.47c-4.71-.51-6.64,4.79-6.64,4.79,4-1.09,7.58-1.65,14.36,3.49l.06-2A14.31,14.31,0,0,1,124.3,53Z"/><path id="_Path_18" data-name="&lt;Path&gt;" class="cls-4" d="M106.93,99.09c-.77,0-1.89-1.69-3.34-1.19s-6.41,2.75-9.23,2.95c0,0,1.16,1.06,5.28.72a36.69,36.69,0,0,1,7.16.07,32.93,32.93,0,0,1,5.88-.39,18.49,18.49,0,0,0,4.86-.4s-3.85-1.33-7.1-2.87C109.32,97.55,107.7,99.09,106.93,99.09Z"/><path id="_Path_19" data-name="&lt;Path&gt;" class="cls-4" d="M106.88,110.78c2.51-.7.69-2.09-.84-2.09S103.63,111.68,106.88,110.78Z"/><path id="_Path_20" data-name="&lt;Path&gt;" class="cls-5" d="M50.09,82.45A24.92,24.92,0,0,0,60,81.67h0a13,13,0,0,0,3.71-1.87,5.47,5.47,0,0,0,.58-.5l.06-.06a6.51,6.51,0,0,0,.51-.54h0c4.11-4.8,3.16-15,3.16-15h0c2.14-.46,8-4.25,7.93-16.59,0-7.67,3.36-11.77,5.92-13.78a17.21,17.21,0,0,1,2.82-1.68,21.1,21.1,0,0,0,11,4.77l7.19,1.07s6.92,9.8,11.65,11.79a18.86,18.86,0,0,0,8.69,1.52,17.6,17.6,0,0,0,1,2.22,14.31,14.31,0,0,0,5.44,5.86h0c-.14,4.41-.51,8.6.16,11.75.52,2.44.91,4.23,1.17,5.67a17.59,17.59,0,0,0,8.13-11c-2.86-.37-4.41-3.15-5.26-5.9,3.3-1.3,5.26-6.44,5.26-6.44s-1.34-1.88-7.35-13.62c-13.22-25.83-46-21.67-52-13.78-9.37-2.14-23,13.32-27,23.88s-12.15,9.18-12.15,9.18-2.85,7.35-.09,17.91c2.25,8.62,10.1,13.26,12.91,14.68a39.25,39.25,0,0,1-3-6.87C50.42,83.71,50.25,83.1,50.09,82.45Z"/></g></g></g></g></svg>