<?xml version="1.0" encoding="utf-8"?>
<!-- Generator: Adobe Illustrator 23.0.1, SVG Export Plug-In . SVG Version: 6.00 Build 0)  -->
<svg version="1.1" id="Layer_1" xmlns="http://www.w3.org/2000/svg" xmlns:xlink="http://www.w3.org/1999/xlink" x="0px" y="0px"
	 viewBox="0 0 57.4 57.4" style="enable-background:new 0 0 57.4 57.4;" xml:space="preserve">
<style type="text/css">
	.st0{fill:#E7EAED;}
</style>
<title>companyzero</title>
<circle class="st0" cx="28.7" cy="28.7" r="28.7"/>
<g>
	<path d="M45.3,23.3c-3.9,0-7,3.1-7,7c0,3.9,3.1,7,7,7c3.9,0,7-3.1,7-7C52.3,26.4,49.2,23.3,45.3,23.3z M45.3,34.3
		c-2.1,0-3.8-1.7-3.8-3.8c0-2.1,1.7-3.8,3.8-3.8c2.1,0,3.8,1.7,3.8,3.8C49.2,32.5,47.5,34.3,45.3,34.3z"/>
	<rect x="20.8" y="18.7" width="3.1" height="2.8"/>
	<polygon points="20.8,37.1 23.9,37.1 23.9,25.8 23.9,22.3 20.8,22.3 	"/>
	<polygon points="29.5,23.9 29.5,18.7 26.4,18.7 26.4,24 24.8,24 24.8,26.5 26.4,26.5 26.4,28.7 26.4,37.1 29.5,37.1 29.5,33.1 
		29.5,32.3 29.5,26.5 31,26.5 31,24 29.5,24 	"/>
	<path d="M16,24.4c-1.1-0.7-2.4-1.2-3.9-1.2c-3.9,0-7.1,3.2-7.1,7.1c0,3.9,3.2,7.1,7.1,7.1c1.4,0,2.8-0.4,3.9-1.2V37h3.2V20.4
		L16,16.7V24.4z M12.1,34.2c-2.1,0-3.8-1.7-3.8-3.8s1.7-3.8,3.8-3.8c2.1,0,3.8,1.7,3.8,3.8S14.2,34.2,12.1,34.2z"/>
	<polygon points="36.7,18.7 33.6,18.7 33.6,24 32.1,24 32.1,26.5 33.6,26.5 33.6,37.1 36.7,40.7 36.7,37.4 36.7,26.5 38.2,26.5 
		38.2,24 36.7,24 	"/>
</g>
</svg>
