<svg xmlns="http://www.w3.org/2000/svg" viewBox="0 0 180 180"><defs><style>.cls-1{fill:#3ad7a4;}.cls-2{fill:none;}.cls-3{fill:#091440;}.cls-4{fill:#fff;}.cls-5{fill:#848aa0;}</style></defs><title>Asset 8</title><g id="Layer_2" data-name="Layer 2"><g id="illustrations"><g id="_Group_" data-name="&lt;Group&gt;"><circle id="_Path_" data-name="&lt;Path&gt;" class="cls-1" cx="90" cy="90" r="90"/><g id="_Group_2" data-name="&lt;Group&gt;"><path id="_Path_2" data-name="&lt;Path&gt;" class="cls-2" d="M131.27,65.33q0,.78-.09,1.62a.5.5,0,0,1,.13,0H132a3.21,3.21,0,0,0-.49-1.81C131.37,65.25,131.27,65.33,131.27,65.33Z"/><path id="_Path_3" data-name="&lt;Path&gt;" class="cls-2" d="M131.29,65.09v0Z"/><path id="_Path_4" data-name="&lt;Path&gt;" class="cls-2" d="M128.51,41.29c-.16-.62-.34-1.2-.53-1.74.19.59.37,1.17.53,1.75Z"/><path id="_Path_5" data-name="&lt;Path&gt;" class="cls-2" d="M131.65,57.75v0a23.36,23.36,0,0,0-.66-6.67A33.76,33.76,0,0,1,131.65,57.75Z"/><path id="_Path_6" data-name="&lt;Path&gt;" class="cls-2" d="M131.08,72.62l.8-4.7h-.57a.47.47,0,0,1-.17,0C131.09,69.32,131.06,70.88,131.08,72.62Z"/><path id="_Path_7" data-name="&lt;Path&gt;" class="cls-3" d="M121.83,123.68c-2.59,13.24-8,28.55-24.34,29-23,.58-33.81-16.29-37.27-23.18a5,5,0,0,1,.48-5.23l-45,16.58a90,90,0,0,0,150.07-2.27Z"/><path id="_Compound_Path_" data-name="&lt;Compound Path&gt;" class="cls-4" d="M60.22,129.47c3.46,6.89,14.29,23.76,37.27,23.18,16.3-.42,21.75-15.73,24.34-29a62.48,62.48,0,0,0,1-6.85c2.4-2.89,5.28-7.26,6.19-9.81,2.35-6.62,3.24-14.86,2.28-29.58-.06-1-.11-1.89-.14-2.77A3.76,3.76,0,0,1,127.65,77h-12A3.77,3.77,0,0,1,112,73.86l-1.09-6.4a3.39,3.39,0,0,1,0-1.23.54.54,0,0,0-.26-.09h-6.46a1.5,1.5,0,0,0-1.14.65,5,5,0,0,1,0,.67l-1.1,6.4A3.76,3.76,0,0,1,98.15,77H82a3.76,3.76,0,0,1-3.72-3.14l-1-5.8L64.85,69c-1.33,4.63-.43,12.74-.43,12.74l-1.59,0c-.29-.92-.6-1.87-1-2.88,0,0-1.33-6.31-4.81-9.29a6.59,6.59,0,0,0-1.29-.89,5.67,5.67,0,0,0-2.13-.63,6,6,0,0,0-.74,0c-5.26.22-5,7.77-3.92,10.8s3.18,9.77,5,12.52,4.36,7.21,7.44,5.62a4.11,4.11,0,0,0,.39-.24c.49,5.81,1.61,22.46-1,27.41A5,5,0,0,0,60.22,129.47Zm55.87-27.72a14.59,14.59,0,0,0-5.9,0,13.57,13.57,0,0,1-5.81.08c-2.7-.34-3.62.5-6.32.92a9.11,9.11,0,0,1-4,0c4.21-.75,7.5-2.61,10.28-3.1s2.61.16,4.72.24,2.37-1,4.8,0c1.49.64,6.06,1.76,6.06,1.76A11.71,11.71,0,0,1,116.09,101.75Zm-5.81-13.44c4.63-.26,6.57-1.31,6.57-1.31s-1.12,3.54-6.15,4.22c-5.74.77-8.51-.43-12.64-3C98.06,88.26,105.65,88.56,110.28,88.31Zm-35,26.74c7.75,6.6,18.2,11.48,30,10.22a28.28,28.28,0,0,0,13.49-4.89,21.38,21.38,0,0,1-16,9.17C91.36,130.37,81.92,123.4,75.31,115.05Z"/><path id="_Path_8" data-name="&lt;Path&gt;" class="cls-5" d="M102.77,129.55a21.38,21.38,0,0,0,16-9.17,28.28,28.28,0,0,1-13.49,4.89c-11.81,1.26-22.26-3.62-30-10.22C81.92,123.4,91.36,130.37,102.77,129.55Z"/><path id="_Compound_Path_2" data-name="&lt;Compound Path&gt;" class="cls-4" d="M131.27,65.33v-.24c0-.08,0-.18,0-.3A3.28,3.28,0,0,0,129,63.56h0v0a5.33,5.33,0,0,1-.68,1.52,4.34,4.34,0,0,0-2.9-1.85l-1.55-.13c-.69-.06-1.39-.09-2.09-.09l-.53.05c-3.89.45-7.11,1.6-8.81,1.28a2.63,2.63,0,0,0-.43.45,2.14,2.14,0,0,0-.2.32h1.63a.5.5,0,0,1,0,1h-1.27a9.18,9.18,0,0,1,1,3.66.51.51,0,0,1-.45.55.51.51,0,0,1-.55-.46,8.35,8.35,0,0,0-.87-3.2,3.2,3.2,0,0,0,0,.69l1.09,6.39a3.27,3.27,0,0,0,3.23,2.73h12a3.27,3.27,0,0,0,3.23-2.73l.2-1.15c0-1.74,0-3.3.06-4.73a.5.5,0,0,1-.33-.47.48.48,0,0,1,.37-.47q0-.84.09-1.62Zm-7.84,4.47c-.49-.23-1.05-.47-1.64-.68h0a3,3,0,1,1-6.05.39,2.06,2.06,0,0,1,.12-.86,6.76,6.76,0,0,0-.72.23,13,13,0,0,0-2,.93,4.14,4.14,0,0,1,.28-.57,5.17,5.17,0,0,1,.42-.6,6.15,6.15,0,0,1,.67-.7,6.42,6.42,0,0,1,.93-.69,5.49,5.49,0,0,1,1.2-.55,6.41,6.41,0,0,1,1.41-.29,7.44,7.44,0,0,1,1.49,0c.24,0,.49.09.73.15s.44.13.67.2a8.45,8.45,0,0,1,1.27.56,7.25,7.25,0,0,1,1.9,1.5,5.5,5.5,0,0,1,1,1.41,2.89,2.89,0,0,1,.21.61A18.86,18.86,0,0,0,123.43,69.8Z"/><path id="_Path_9" data-name="&lt;Path&gt;" class="cls-4" d="M77.89,64.51a3.8,3.8,0,0,1,1.35-1.07c1-1.59,3.07-3.53,7.37-4,6.71-.68,11.87.8,12.2,3.53l.74.06a3.82,3.82,0,0,1,2.68,1.45,4.12,4.12,0,0,1,.39.63h8.58a4.12,4.12,0,0,1,.39-.63,3.11,3.11,0,0,1,.31-.32,1.56,1.56,0,0,1-.78-1.52C111,59.6,117.18,58.2,123,59c5,.65,6,2.88,6,4.1h0a3.83,3.83,0,0,1,2.29,1c.07-1.29.19-3.54.3-6.36a33.76,33.76,0,0,0-.66-6.7c-.51-2.29-1.32-5.2-2.48-9.75-.16-.58-.34-1.16-.53-1.75-2.87-7.79-9.68-7.47-13.13-5.82-3.7,1.76-5.29,4-18,1S79.54,30.93,72.91,34,68.2,51.68,69.53,57.57s-2.36,6-4.27,10.3c0,0,0,.09-.05.13l11.92-.93A3.75,3.75,0,0,1,77.89,64.51Z"/><path id="_Compound_Path_3" data-name="&lt;Compound Path&gt;" class="cls-4" d="M101.21,70.68h-.07a.51.51,0,0,1-.43-.57,9.28,9.28,0,0,1,1.55-4H100.2a.5.5,0,0,1,0-1H102a2.14,2.14,0,0,0-.2-.32,3.23,3.23,0,0,0-2.32-1.26l-.69-.06a3.1,3.1,0,0,1-.09.5c-.5,1.77-3.79-.25-11-.7s-9.35,2.3-9.35,2.3a5,5,0,0,1,.41-1.28,3.71,3.71,0,0,0-.47.5A3.26,3.26,0,0,0,77.62,67l1.4-.11a.51.51,0,0,1,.54.46.5.5,0,0,1-.46.54L77.76,68l1,5.74A3.27,3.27,0,0,0,82,76.5H98.15a3.27,3.27,0,0,0,3.23-2.73l1-5.94a10.07,10.07,0,0,0-.7,2.42A.5.5,0,0,1,101.21,70.68Zm-5-1a8.05,8.05,0,0,0-1.48-.9,6.12,6.12,0,0,0-1-.36,6,6,0,0,0-1.14-.16,4.9,4.9,0,0,0-.76,0,1.8,1.8,0,0,1,.39,1.09,3,3,0,0,1-6,.89l-1.07.44-1.66.73-.64.31a4.3,4.3,0,0,1,.38-.62,8.91,8.91,0,0,1,1.29-1.4,12.73,12.73,0,0,1,2.15-1.57c.42-.25.85-.5,1.31-.72l.69-.32c.13,0,.21-.1.38-.16l.35-.13a6.48,6.48,0,0,1,3.36-.31,5,5,0,0,1,1.48.53,4.77,4.77,0,0,1,1.11.79,5.2,5.2,0,0,1,1.15,1.59,3.59,3.59,0,0,1,.24.69A6.51,6.51,0,0,0,96.19,69.69Z"/><path id="_Path_10" data-name="&lt;Path&gt;" class="cls-5" d="M110.7,91.22c5-.68,6.15-4.22,6.15-4.22s-1.94,1-6.57,1.31-12.22,0-12.22,0C102.19,90.79,105,92,110.7,91.22Z"/><path id="_Path_11" data-name="&lt;Path&gt;" class="cls-5" d="M109.1,99.89c-2.11-.08-1.94-.74-4.72-.24s-6.07,2.35-10.28,3.1a9.11,9.11,0,0,0,4,0c2.7-.42,3.62-1.26,6.32-.92a13.57,13.57,0,0,0,5.81-.08,14.59,14.59,0,0,1,5.9,0,11.71,11.71,0,0,0,3.87-.1s-4.57-1.12-6.06-1.76C111.47,98.84,111.2,100,109.1,99.89Z"/><path id="_Path_12" data-name="&lt;Path&gt;" class="cls-3" d="M124.16,68.85a7.25,7.25,0,0,0-1.9-1.5,8.45,8.45,0,0,0-1.27-.56c-.23-.07-.36-.13-.67-.2s-.49-.1-.73-.15a7.44,7.44,0,0,0-1.49,0,6.41,6.41,0,0,0-1.41.29,5.49,5.49,0,0,0-1.2.55,6.42,6.42,0,0,0-.93.69,6.15,6.15,0,0,0-.67.7,5.17,5.17,0,0,0-.42.6,4.14,4.14,0,0,0-.28.57,13,13,0,0,1,2-.93,6.76,6.76,0,0,1,.72-.23,2.06,2.06,0,0,0-.12.86,3,3,0,1,0,6.05-.39h0c.59.21,1.15.45,1.64.68a18.86,18.86,0,0,1,1.89,1.07,2.89,2.89,0,0,0-.21-.61A5.5,5.5,0,0,0,124.16,68.85Z"/><path id="_Path_13" data-name="&lt;Path&gt;" class="cls-5" d="M128.3,65.11a5.33,5.33,0,0,0,.68-1.52v0l-3.58-.3A4.34,4.34,0,0,1,128.3,65.11Z"/><path id="_Path_14" data-name="&lt;Path&gt;" class="cls-5" d="M121.23,63.09l.53-.05c-.76,0-1.53,0-2.29.09l-5.16.43a3.32,3.32,0,0,0-1.89.81C114.12,64.69,117.34,63.54,121.23,63.09Z"/><path id="_Path_15" data-name="&lt;Path&gt;" class="cls-5" d="M123,59c-5.82-.76-12,.64-11.88,3.71a1.56,1.56,0,0,0,.78,1.52,3.74,3.74,0,0,1,2.37-1.13l5.16-.43a27.67,27.67,0,0,1,4.46,0l5.14.43C129,61.84,128,59.61,123,59Z"/><path id="_Path_16" data-name="&lt;Path&gt;" class="cls-3" d="M95.35,67.86a4.77,4.77,0,0,0-1.11-.79,5,5,0,0,0-1.48-.53,6.48,6.48,0,0,0-3.36.31l-.35.13c-.17.06-.25.11-.38.16l-.69.32c-.46.22-.89.47-1.31.72a12.73,12.73,0,0,0-2.15,1.57,8.91,8.91,0,0,0-1.29,1.4,4.3,4.3,0,0,0-.38.62l.64-.31,1.66-.73,1.07-.44a3,3,0,0,0,6-.89,1.8,1.8,0,0,0-.39-1.09,4.9,4.9,0,0,1,.76,0,6,6,0,0,1,1.14.16,6.12,6.12,0,0,1,1,.36,8.05,8.05,0,0,1,1.48.9,6.51,6.51,0,0,1,.55.45,3.59,3.59,0,0,0-.24-.69A5.2,5.2,0,0,0,95.35,67.86Z"/><path id="_Path_17" data-name="&lt;Path&gt;" class="cls-5" d="M86.61,59.47c-4.3.44-6.38,2.38-7.37,4a3.78,3.78,0,0,1,1.32-.38l5.17-.43c1.5-.13,7.16-.13,8.66,0l4.42.37C98.48,60.27,93.32,58.79,86.61,59.47Z"/><path id="_Path_18" data-name="&lt;Path&gt;" class="cls-5" d="M87.7,63.3c7.24.45,10.53,2.47,11,.7a3.1,3.1,0,0,0,.09-.5l-4.47-.37c-1.45-.12-7.14-.12-8.58,0l-5.16.43a3.28,3.28,0,0,0-1.85.76,5,5,0,0,0-.41,1.28S80.45,62.86,87.7,63.3Z"/><path id="_Path_19" data-name="&lt;Path&gt;" class="cls-5" d="M131.31,64.79c0,.12,0,.22,0,.3v.24h0s.1-.08.24-.22a1.75,1.75,0,0,0-.18-.29Z"/><path id="_Path_20" data-name="&lt;Path&gt;" class="cls-5" d="M57,69.64c3.48,3,4.81,9.29,4.81,9.29.38,1,.69,2,1,2.88l1.59,0s-.9-8.11.43-12.74Z"/><path id="_Path_21" data-name="&lt;Path&gt;" class="cls-5" d="M55.75,68.75l.07,0L65.21,68s0-.09.05-.13c1.91-4.26,5.59-4.41,4.27-10.3S66.29,37.11,72.91,34s11.21-2.21,23.93.74,14.31.73,18-1c3.45-1.65,10.26-2,13.13,5.82.19.54.37,1.12.53,1.74h0c1.16,4.55,2,7.46,2.48,9.75a23.36,23.36,0,0,1,.66,6.67v0c-.11,2.82-.23,5.07-.3,6.36a3.59,3.59,0,0,1,.38.4,2.53,2.53,0,0,1,.13.22c1.17-1.35,3.65-5.2,3.31-13.34A41.33,41.33,0,0,0,118,19.3c-12.07-8.58-24.46-8.83-37.11-4.85S57.16,26.52,52.75,42.26c-2.53,9-1.34,19,.13,25.87a6,6,0,0,1,.74,0A5.67,5.67,0,0,1,55.75,68.75Z"/><path id="_Compound_Path_4" data-name="&lt;Compound Path&gt;" class="cls-3" d="M131.35,64.11a3.83,3.83,0,0,0-2.29-1h0l-5.14-.43a27.67,27.67,0,0,0-4.46,0l-5.16.43a3.74,3.74,0,0,0-2.37,1.13,3.11,3.11,0,0,0-.31.32,4.12,4.12,0,0,0-.39.63h-8.58a4.12,4.12,0,0,0-.39-.63,3.82,3.82,0,0,0-2.68-1.45L98.81,63l-4.42-.37c-1.5-.13-7.16-.13-8.66,0l-5.17.43a3.73,3.73,0,0,0-3.43,4L65.21,68l-9.39.73-.07,0a6.59,6.59,0,0,1,1.29.89L64.85,69l12.41-1,1,5.8A3.76,3.76,0,0,0,82,77H98.15a3.76,3.76,0,0,0,3.72-3.14l1.1-6.4a5,5,0,0,0,0-.67,1.5,1.5,0,0,1,1.14-.65h6.46a.54.54,0,0,1,.26.09,3.39,3.39,0,0,0,0,1.23l1.09,6.4A3.77,3.77,0,0,0,115.67,77h12a3.76,3.76,0,0,0,3.48-2.33,3.8,3.8,0,0,0,.25-.81l1-5.94h1.24a.5.5,0,0,0,.5-.5.5.5,0,0,0-.5-.5H132.5a3.72,3.72,0,0,0-.64-2.19,2.53,2.53,0,0,0-.13-.22A3.59,3.59,0,0,0,131.35,64.11Zm-30,9.66a3.27,3.27,0,0,1-3.23,2.73H82a3.27,3.27,0,0,1-3.23-2.73l-1-5.74,1.34-.11a.5.5,0,0,0,.46-.54.51.51,0,0,0-.54-.46l-1.4.11a3.26,3.26,0,0,1,.67-2.21,3.71,3.71,0,0,1,.47-.5,3.28,3.28,0,0,1,1.85-.76l5.16-.43c1.44-.12,7.13-.12,8.58,0l4.47.37.69.06a3.23,3.23,0,0,1,2.32,1.26,2.14,2.14,0,0,1,.2.32H100.2a.5.5,0,0,0,0,1h2.06a9.28,9.28,0,0,0-1.55,4,.51.51,0,0,0,.43.57h.07a.5.5,0,0,0,.49-.43,10.07,10.07,0,0,1,.7-2.42ZM132,66.92h-.69a.5.5,0,0,0-.13,0,.48.48,0,0,0-.37.47.5.5,0,0,0,.33.47.47.47,0,0,0,.17,0h.57l-.8,4.7-.2,1.15a3.27,3.27,0,0,1-3.23,2.73h-12a3.27,3.27,0,0,1-3.23-2.73l-1.09-6.39a3.2,3.2,0,0,1,0-.69,8.35,8.35,0,0,1,.87,3.2.51.51,0,0,0,.55.46.51.51,0,0,0,.45-.55,9.18,9.18,0,0,0-1-3.66h1.27a.5.5,0,0,0,0-1h-1.63a2.14,2.14,0,0,1,.2-.32,2.63,2.63,0,0,1,.43-.45,3.32,3.32,0,0,1,1.89-.81l5.16-.43c.76-.07,1.53-.09,2.29-.09s1.4,0,2.09.09l1.55.13,3.58.3h0a3.28,3.28,0,0,1,2.29,1.23l0,0a1.75,1.75,0,0,1,.18.29A3.21,3.21,0,0,1,132,66.92Z"/></g></g></g></g></svg>