<svg xmlns="http://www.w3.org/2000/svg" xmlns:xlink="http://www.w3.org/1999/xlink" viewBox="1539 1638 180 180"><defs><style>.a{clip-path:url(#a);}.b{fill:#3ad7a4;}.c,.e,.f{fill:#091440;}.d{fill:#fff;}.e{opacity:0.5;}.f{opacity:0.8;}</style><clipPath id="a"><circle cx="90" cy="90" r="90"/></clipPath></defs><g transform="translate(1539 1638)"><g class="a"><circle class="b" cx="90" cy="90" r="90"/></g><g class="a"><path class="c" d="M174.1,216.4H1V158.5l56.7-27.6h59.7l56.7,27.6Z"/><path class="d" d="M64.2,99s-1.4,21.4-2.6,26.1-3.9,5.7-3.9,5.7-.7,15,20.3,24.8,38.1-6.5,38.1-12.9,1.3-27.6,1.3-27.6Z"/><path class="e" d="M72.1,117.1s9.3,23,26.8,25.5c14,2,17.3-4.2,17.3-4.2l.6-13.3Z"/><path class="d" d="M130.4,86.8s-.2-2.5-.5-4.7c-.7-5.2-1.9-13.6-2.4-19.8-.6-8.9-3.6-42.5-39.5-34.7S62.4,59.6,64.3,71s8.9,35.9,11.8,41.4c3,5.5,21.6,18,36.1,12.9S132.8,99,130.4,86.8Z"/><path class="d" d="M129.9,82s-.8-2.8-3-13-3.1-22.6-5.5-26.7-7.3-7.9-13.2-6.9-9.7-1.3-17.4-.2-11.7,3.5-14.6,7.1c-2.9,3.5-4.6,12.2-3.9,16.2,0,0-4.1,8.7-4.4,13.6a80.316,80.316,0,0,1-2,11.7l-8.7-8-1.1-9.3a20.6,20.6,0,0,1-4.6-15,27.388,27.388,0,0,1,5.4-13.9,26.406,26.406,0,0,1,4.7-11c4-5.5,16.4-8.5,22.3-11.4,8.3-4,18.2-2.3,18.2-2.3s8.9-4.6,15.8,11.9c7.3,3.7,10.8,9.2,12,14.3,1.3,5.1-1.5,11-1.5,11s1,10.2.5,13.8C128.4,67.6,129.9,82,129.9,82Z"/><path class="f" d="M128.9,64c.5-3.6-.5-13.8-.5-13.8s2.8-5.9,1.5-11-4.8-10.7-12-14.3C111,8.4,102.1,13,102.1,13s-9.9-1.8-18.2,2.3C78,18.1,65.5,21,61.6,26.5a26.406,26.406,0,0,0-4.7,11,27.945,27.945,0,0,0-5.4,13.9,20.6,20.6,0,0,0,4.6,15l1.1,9.3,8.7,8a80.316,80.316,0,0,0,2-11.7c.3-4.9,4.4-13.6,4.4-13.6-.6-4,1-12.7,3.9-16.2s7-5.9,14.6-7.1c.4-.1.9-.1,1.3-.2-.2,6.3,2.8,13.4,8.7,15.1,0,0-7.1-5-7-12.8a10.074,10.074,0,0,1,.3-2.5c5.6-.2,9.2,1.3,14.2.5,5.9-1,10.8,2.8,13.2,6.9s4.6,12.9,5.7,23.4A108.64,108.64,0,0,0,130,81.9S128.4,67.6,128.9,64Z"/><path class="d" d="M68.1,99s-.9-14.9-4-20c-3-5.1-7.4-6.5-8.9,1.8C53.7,89,57.9,96,60.2,99,62.6,102.1,68.9,106.4,68.1,99Z"/><path class="d" d="M67.9,72.1c-1,7.1.4,11.9,5,17.7S86.8,98.9,89.3,97a11.771,11.771,0,0,0,3.5-5.5s9.3-3.1,16.6-3.1a70.775,70.775,0,0,1,13.9,1.5s1.5,7,4,6.2c2.5-.7,3.4-5.1,3-9.3,3.3,12.7-.6,26.5-3.6,33.4s-8.4,14.4-15.6,15.5-21.6,2.1-33.4-10.5S64.9,90.6,64.4,83.8a93.728,93.728,0,0,1,0-12.9Z"/><path class="f" d="M67.9,72.1c-1,7.1.4,11.9,5,17.7S86.8,98.9,89.3,97a11.771,11.771,0,0,0,3.5-5.5s9.3-3.1,16.6-3.1a70.775,70.775,0,0,1,13.9,1.5s1.5,7,4,6.2c2.5-.7,3.4-5.1,3-9.3,3.3,12.7-.6,26.5-3.6,33.4s-8.4,14.4-15.6,15.5-21.6,2.1-33.4-10.5S64.9,90.6,64.4,83.8a93.728,93.728,0,0,1,0-12.9Z"/><path class="d" d="M116.4,108.3c3.1-1.7,6.1-8.9,3.5-11.4L95.8,99.5c-.2,3.5,3.2,7.9,6.2,9C107.3,110.6,111.5,111,116.4,108.3Z"/><path class="e" d="M99.1,84s.2.7,3.2,0,7.4,1.5,11.7.6a12.8,12.8,0,0,0,3.1-.8,7.113,7.113,0,0,1-6,5.7c-5.1.9-7.7-1.6-10.1-3C98.5,85.3,99.1,84,99.1,84Z"/><path class="c" d="M82.1,73.4a12.105,12.105,0,0,1,1.8-1.8A19.077,19.077,0,0,1,86,70.1c.4-.2.8-.5,1.3-.7l.7-.3.7-.3a8.331,8.331,0,0,1,1.5-.4,8.6,8.6,0,0,1,1.6-.1,5.9,5.9,0,0,1,1.4.2c.4.1.8.3,1.2.4a10.06,10.06,0,0,1,1.6.9,4.574,4.574,0,0,0,.6.4,3.2,3.2,0,0,1-.7-.1c-.4,0-1-.1-1.8-.2a8.845,8.845,0,0,0-2.3,0,5.019,5.019,0,0,0-1.2.2,9.287,9.287,0,0,0-1.3.4l-.6.2-.7.4c-.4.2-.9.4-1.3.6a13.567,13.567,0,0,1-2.3.9C83,73.1,82.1,73.4,82.1,73.4Z"/><path class="c" d="M82.1,71.3A15.518,15.518,0,0,1,84,70.2c.6-.3,1.3-.6,2-.9.8-.3,1.6-.5,2.4-.8a10.855,10.855,0,0,1,2.5-.4,17.733,17.733,0,0,1,2.2-.1c.3,0,.6.1.9.1s.5.1.7.1a2.8,2.8,0,0,0,.6.1H94a3.085,3.085,0,0,0-.9.1c-.6.1-1.4.2-2.1.3a20.481,20.481,0,0,0-2.4.5c-1.6.4-3.2.9-4.5,1.3C82.9,71,82.1,71.3,82.1,71.3Z"/><circle class="c" cx="2.8" cy="2.8" r="2.8" transform="translate(87.2 68.3)"/><path class="d" d="M93.6,72a35.133,35.133,0,0,1-6.4,2c-2.2.3.9,1.8.9,1.8s4-.3,4.1-.4A30.677,30.677,0,0,0,93.6,72Z"/><path class="f" d="M98,64.7c-1.9,1.2-3.1,2.3-5.2,1.9a21.4,21.4,0,0,0-9.7.9,11.235,11.235,0,0,0-4.9,3.3s.1-5.1,2.5-6.3c2.4-1.3,6.7-1.9,9.3-2.2s4.3-.5,5.7,0A5.7,5.7,0,0,1,98,64.7Z"/><path class="f" d="M97.6,62.2s.3,1.4.9,1.7S99,62.7,97.6,62.2Z"/><path class="c" d="M112.2,70.2a1.01,1.01,0,0,1,.2-.5,6.142,6.142,0,0,1,.9-1.3,5.716,5.716,0,0,1,.8-.7,3.7,3.7,0,0,1,1.1-.5c.4-.1.9-.2,1.3-.3h1.3a6.882,6.882,0,0,1,1.3.2,5.637,5.637,0,0,1,1.2.4,7.845,7.845,0,0,1,1.8,1.1,6.005,6.005,0,0,1,1.4,1.5s-.8-.3-1.9-.6a12.091,12.091,0,0,1-1.8-.5c-.3-.1-.7-.1-1-.2-.3,0-.7-.1-1-.1a4.1,4.1,0,0,0-1.1-.1h-.9a8.447,8.447,0,0,0-1.7.5A15.519,15.519,0,0,0,112.2,70.2Z"/><path class="c" d="M123.4,69.1a11.1,11.1,0,0,0-1.5-.8,7.494,7.494,0,0,0-1.6-.5c-.3-.1-.6-.1-.9-.2a3.083,3.083,0,0,0-1-.1,12.1,12.1,0,0,0-1.9-.1,2.769,2.769,0,0,0-.9.1c-.3,0-.5.1-.8.1a3.73,3.73,0,0,0-1.2.2,1.213,1.213,0,0,0-.5.1,1.1,1.1,0,0,1,.4-.2c.3-.1.7-.3,1.2-.5a8.469,8.469,0,0,1,1.7-.4c.3,0,.7-.1,1-.1h1a6.529,6.529,0,0,1,2,.5,5.978,5.978,0,0,1,1.6.8A3.767,3.767,0,0,1,123.4,69.1Z"/><path class="c" d="M114.4,69.9c-.3-1.5.6-1.7,2.2-2.1,1.5-.3,3-.6,3.3.9a2.763,2.763,0,0,1-2.1,3.3A2.817,2.817,0,0,1,114.4,69.9Z"/><path class="d" d="M113.8,70.8a46.356,46.356,0,0,0,6.7.6c2.3-.2-.5,2-.5,2s-4,.5-4.1.5S113.8,70.8,113.8,70.8Z"/><path class="f" d="M114.3,64.9c3,.7,3.5.3,5.6,0s6,1,7.5,2.9a13.787,13.787,0,0,0-.6-3.8,5.419,5.419,0,0,0-5.5-3.2c-2.1.1-4.3.3-4.9,1.3A31.951,31.951,0,0,1,114.3,64.9Z"/><path class="c" d="M96.6,100.1c-4-1.6,8.9-2.4,13.6-2.8s9.7-.4,9.7-.4-1,3.2-5.5,5C108.5,104.3,102,102.3,96.6,100.1Z"/><path class="d" d="M98,98.6s4.4,1.9,11.8,1.5,8.5-3.2,8.5-3.2S103.6,97.5,98,98.6Z"/></g></g></svg>