<svg xmlns="http://www.w3.org/2000/svg" viewBox="0 0 180 180"><defs><style>.cls-1{fill:#3ad7a4;}.cls-2{fill:#091440;}.cls-3{fill:#fff;}.cls-4{fill:#848aa0;}.cls-5{fill:#6ed3f3;opacity:0.5;}</style></defs><title>kozel</title><g id="illustrations_c"><circle id="_Path_" data-name="&lt;Path&gt;" class="cls-1" cx="90" cy="90" r="90"/><path class="cls-2" d="M134.42,140.17c-4.1-15.65-8.44-35.2-4.54-44.66,4.38-10.6,5.88-12.18,1.39-22.28s-6.64-14.72-12.83-26.59S102,24.54,89,29.81c-3.81-4.73-7.5-5-16.95,0S55.18,35.62,50,53.09,39.9,71.59,38.73,82.43c-.94,8.76,5.38,16.25,5.38,16.25s4.57,11.73-13.52,34.84a28.55,28.55,0,0,0-4.77,8.7l-6.73,3.2a90,90,0,0,0,138.16,4.39ZM75.34,76.07s0,.07,0,.11l.49-.08h0l.5-.08c-.4-2.47-.41-4.91,0-5.21S80,69.1,88.39,69.18c9.77.08,10.84,1.95,10.94,2.52a11,11,0,0,1-1.49,6.6l.88.47a13,13,0,0,0,1.68-6.18,11.79,11.79,0,0,1,4.76,0,17.88,17.88,0,0,0,1.68,5.72l.92-.39a17.34,17.34,0,0,1-1.6-5.31h.31a2.17,2.17,0,0,0-.15.68,2.23,2.23,0,1,0,4.46.19,2.06,2.06,0,0,0-.1-.75c.5.06,1,.14,1.55.24.77.13,1.57.31,2.49.42a5.4,5.4,0,0,0-1.92-1.88,6.21,6.21,0,0,0-2.6-.86,5.71,5.71,0,0,0-4,1.11v-.08c.1-.73,1.13-2.43,8.56-2.51,1.15,0,2.17,0,3.08.09a4.5,4.5,0,0,1,.62.78V73.9s.14,6,.55,11.16.08,5.94-1.4,11.3c-.34,1.22-.7,2.43-1.08,3.64-1.25,4-3,5.17-3.7,9.19-.94,5.63-4.26,8.43-4.26,5.59,0-5.43,0-8.26,0-8.26a31.71,31.71,0,0,1-9.31,1.41c.78,4.54,3.38,8.89-.72,8.41a17.93,17.93,0,0,1-12.44-8.65.85.85,0,0,0-1.55.26c-.81,4.32-4.3,4.94-8.44,1.25-5-4.44-8.29-9.16-10.92-20.39a51.29,51.29,0,0,1-1.12-13.38Zm37.3-7.82a12.78,12.78,0,0,1,1.48-.34,4,4,0,0,1,2.19.29l-1.58,0C114,68.19,113.3,68.21,112.64,68.25Zm-20-27.55c7.42-1.74,13.52,2.39,17.32,6.51s4.28,8.41,5.27,12c.78,2.82,2.19,4.85,2.83,6.53-.59-1-2-1.77-4.2-1.43-3,.47-5.22,1.1-7.8,4.73-.55.79-.59,1.16-.31,1.29a2.37,2.37,0,0,0-.61,1.26v0a13.18,13.18,0,0,0-4.87,0v0c-.25-1.47-2.18-2.46-5.74-3,1.46-.92,2.35-3.09-.38-4.19-3.59-1.46-8.27-3.18-12.33-1.25s-8.27,6.71-8.27,6.71a55.66,55.66,0,0,1,8.69-2.24,17,17,0,0,1,6.64.59H88.4C80,68.1,76.49,69.61,75.87,69.91a1.08,1.08,0,0,0-.46.5l-11.07.76c.17-1.69.37-3.1.54-4.08C74.66,50.65,85.84,42.29,92.69,40.7ZM83.17,152.24c-21.13,0-25.33-15.91-25.33-15.91l1.38-5.41c2.94-9,3.7-26.28,3.29-35.57a7.41,7.41,0,0,1-3.64-.14c-4.2-1.08-4.28-5.53-5.69-8.75-1.06-2.44-2-6.3-1.75-8.84a13.46,13.46,0,0,0,4.84,4.18,14.94,14.94,0,0,0,6.09,1.5,114.3,114.3,0,0,1,1.52,12.94c.25,5.32,2.23,12.57,7.44,17.93a23.8,23.8,0,0,0,2.8,2.46C81.47,122,84.75,125.71,87,131.31c1.94,4.89,5.09,8.89,14,9.07h0a13.36,13.36,0,0,1-2.12,6.16h0C96.58,149.85,92.07,152.24,83.17,152.24Z"/><path class="cls-3" d="M101,140.38h0a13.46,13.46,0,0,1-2.11,6.16A13.36,13.36,0,0,0,101,140.38Z"/><path class="cls-3" d="M98.87,146.54c-5.59,3.52-15.25-3.12-17.47-12.4-2.38-9.95-5-13.84-10.09-20h0c-5.21-5.36-7.19-12.61-7.44-17.93A114.3,114.3,0,0,0,62.36,83.3a14.94,14.94,0,0,1-6.09-1.5,13.46,13.46,0,0,1-4.84-4.18c-.28,2.54.69,6.4,1.75,8.84,1.41,3.22,1.49,7.67,5.69,8.75a7.41,7.41,0,0,0,3.64.14c.41,9.29-.35,26.55-3.29,35.57l-1.38,5.41s4.2,15.91,25.33,15.91C92.07,152.24,96.58,149.85,98.87,146.54Z"/><path class="cls-4" d="M81.4,134.14c2.22,9.28,11.88,15.92,17.47,12.4h0a13.46,13.46,0,0,0,2.11-6.16c-8.92-.18-12.07-4.18-14-9.07-2.22-5.6-5.5-9.27-12.85-14.68a23.8,23.8,0,0,1-2.8-2.46h0C76.43,120.3,79,124.19,81.4,134.14Z"/><path class="cls-3" d="M65.17,88.81c2.63,11.23,5.93,16,10.92,20.39,4.14,3.69,7.63,3.07,8.44-1.25a.85.85,0,0,1,1.55-.26,17.93,17.93,0,0,0,12.44,8.65c4.1.48,1.5-3.87.72-8.41a31.71,31.71,0,0,0,9.31-1.41s0,2.83,0,8.26c0,2.84,3.32,0,4.26-5.59.67-4,2.45-5.22,3.7-9.19.38-1.21.74-2.42,1.08-3.64,1.48-5.36,1.81-6.18,1.4-11.3s-.55-11.16-.55-11.16V70.05a4.5,4.5,0,0,0-.62-.78c-.91-.06-1.93-.1-3.08-.09-7.43.08-8.46,1.78-8.56,2.51v.08a5.71,5.71,0,0,1,4-1.11,6.21,6.21,0,0,1,2.6.86,5.4,5.4,0,0,1,1.92,1.88c-.92-.11-1.72-.29-2.49-.42-.53-.1-1-.18-1.55-.24a2.06,2.06,0,0,1,.1.75,2.23,2.23,0,1,1-4.46-.19,2.17,2.17,0,0,1,.15-.68h-.31a17.34,17.34,0,0,0,1.6,5.31l-.92.39a17.88,17.88,0,0,1-1.68-5.72,11.79,11.79,0,0,0-4.76,0,13,13,0,0,1-1.68,6.18l-.88-.47a11,11,0,0,0,1.49-6.6c-.1-.57-1.17-2.44-10.94-2.52-8.4-.08-11.73,1.45-12.08,1.63s-.36,2.74,0,5.21l-.5.08h0l-.49.08s0-.07,0-.11l-11.29-.64A51.29,51.29,0,0,0,65.17,88.81Zm38.48,2.51a37.61,37.61,0,0,0,8.76-1.2,10.18,10.18,0,0,1-5.7,4.1,12.76,12.76,0,0,1-11.82-3.4A55.33,55.33,0,0,0,103.65,91.32ZM93.89,102c2.27-.12,2-.36,5.21-.94s3.83.28,5.11.28,2.28-1.44,4.34-1.32,3.1.29,3.1.29a5.73,5.73,0,0,1-3.1.85c-1.5.09-3.2,1.74-4.43,1.93s-1.9-.61-5.83-.13-7.91-.36-9.9-1.56A25.32,25.32,0,0,0,93.89,102ZM81.77,71.59a12.18,12.18,0,0,1,4-1.11,9.94,9.94,0,0,1,4.15.48A5.72,5.72,0,0,1,91.74,72a2.42,2.42,0,0,1,1,1.88,2.77,2.77,0,0,0-1.46-1.05,7.73,7.73,0,0,0-1.73-.37,17.22,17.22,0,0,0-3,0,2.23,2.23,0,1,1-4.09,1.13,2.43,2.43,0,0,1,.1-.55l-.27,0c-1.23.26-2.47.59-3.81.84A11,11,0,0,1,81.77,71.59Z"/><path class="cls-3" d="M114.12,67.91a12.78,12.78,0,0,0-1.48.34c.66,0,1.35-.06,2.09-.07l1.58,0A4,4,0,0,0,114.12,67.91Z"/><path class="cls-3" d="M64.34,71.17l11.07-.76a1.08,1.08,0,0,1,.46-.5c.62-.3,4.11-1.81,12.53-1.73h.53a17,17,0,0,0-6.64-.59,55.66,55.66,0,0,0-8.69,2.24s4.22-4.79,8.27-6.71,8.74-.21,12.33,1.25c2.73,1.1,1.84,3.27.38,4.19,3.56.51,5.49,1.5,5.74,3v0a13.18,13.18,0,0,1,4.87,0v0a2.37,2.37,0,0,1,.61-1.26c-.28-.13-.24-.5.31-1.29,2.58-3.63,4.79-4.26,7.8-4.73,2.21-.34,3.61.38,4.2,1.43-.64-1.68-2-3.71-2.83-6.53-1-3.55-1.47-7.84-5.27-12S100.11,39,92.69,40.7c-6.85,1.59-18,9.95-27.81,26.39C64.71,68.07,64.51,69.48,64.34,71.17Zm37.52-13.36c.87,2.81,1.31,6.56.5,8.69C102.36,66.5,101.36,61,101.86,57.81Z"/><path class="cls-2" d="M82.55,73a2.43,2.43,0,0,0-.1.55,2.23,2.23,0,1,0,4.09-1.13,17.22,17.22,0,0,1,3,0,7.73,7.73,0,0,1,1.73.37,2.77,2.77,0,0,1,1.46,1.05,2.42,2.42,0,0,0-1-1.88A5.72,5.72,0,0,0,89.87,71a9.94,9.94,0,0,0-4.15-.48,12.18,12.18,0,0,0-4,1.11,11,11,0,0,0-3.3,2.31c1.34-.25,2.58-.58,3.81-.84Z"/><path class="cls-4" d="M106.71,94.22a10.18,10.18,0,0,0,5.7-4.1,37.61,37.61,0,0,1-8.76,1.2,55.33,55.33,0,0,1-8.76-.5A12.76,12.76,0,0,0,106.71,94.22Z"/><path class="cls-4" d="M98.29,103c3.93-.48,4.6.33,5.83.13s2.93-1.84,4.43-1.93a5.73,5.73,0,0,0,3.1-.85s-1-.17-3.1-.29-3.06,1.32-4.34,1.32-1.94-.85-5.11-.28-2.94.82-5.21.94a25.32,25.32,0,0,1-5.5-.6C90.38,102.59,94.36,103.43,98.29,103Z"/><path class="cls-4" d="M101.86,57.81c-.5,3.19.5,8.69.5,8.69C103.17,64.37,102.73,60.62,101.86,57.81Z"/><path class="cls-5" d="M86,80.62c7.08.09,10.36-.6,12.25-2.1l-.42-.22a11,11,0,0,0,1.49-6.6c-.1-.57-1.17-2.44-10.94-2.52-8.4-.08-11.73,1.45-12.08,1.63s-.36,2.74,0,5.21l-.49.08a8.56,8.56,0,0,0,.69,2.41C77.31,80.07,78.91,80.54,86,80.62Z"/><path class="cls-5" d="M118.44,73.9V70.05a4.5,4.5,0,0,0-.62-.78c-.91-.06-1.93-.1-3.08-.09-7.43.08-8.46,1.78-8.56,2.51v.08l0,0a2.26,2.26,0,0,0,0,1.21.74.74,0,0,0,0,.21,4,4,0,0,0,.38,1.49,30.52,30.52,0,0,0,1.2,3.28l-.45.2.84,1.41c.53.69,1.06,1,7.55,1.07,1.15,0,2.14,0,3,0C118.51,77,118.44,73.9,118.44,73.9Z"/></g></svg>