<svg xmlns="http://www.w3.org/2000/svg" viewBox="0 0 180 180"><defs><style>.cls-1{fill:#3ad7a4;}.cls-2{fill:none;}.cls-3{fill:#091440;}.cls-4{fill:#fff;}.cls-5{fill:#848aa0;}</style></defs><title>morphy</title><g id="illustrations_c"><circle id="_Path_" data-name="&lt;Path&gt;" class="cls-1" cx="90" cy="90" r="90"/><path class="cls-2" d="M122.29,77.49a24.24,24.24,0,0,1,1.42,5.2,6.84,6.84,0,0,0,.81-.72,11.93,11.93,0,0,0,2.79-8.71c-.19-4.39-3-6-6.06-6.92a10.32,10.32,0,0,1-.42,1.71C120.34,69.82,120.81,73.71,122.29,77.49Z"/><path class="cls-3" d="M119.35,56.43l.17.44A2.35,2.35,0,0,0,119.35,56.43Z"/><path class="cls-3" d="M57.67,75.37c.54.17,1.51,4.22,2.47,8.87a2.74,2.74,0,0,0,2.59-2.66c.38-3.06.64-7.14,1.24-10.94,4.84,0,10.88,0,14,0a9,9,0,0,0-.47,2.58,13.84,13.84,0,0,0,3.4,9.86,9.15,9.15,0,0,0,6.88,2.87A11.84,11.84,0,0,0,99.55,75.65a9.53,9.53,0,0,0-.22-4.91c1.47-.91,5.54-1.76,7.78.29a10.35,10.35,0,0,0-.13,4.61,11.45,11.45,0,0,0,11.76,9.66,9,9,0,0,0,5.12-1.47,8.84,8.84,0,0,0,1.38-1.16,13,13,0,0,0,3.07-9.46c-.23-5.11-3.6-6.89-7-7.89a4.43,4.43,0,0,0-.14-1.26,2.62,2.62,0,0,0-.36-.86c-1.12-1.74-4.18-2.77-8.4-1.59s-6.23,3.57-4.53,5.15c.65.6,1.66.46,2.87.08a8.8,8.8,0,0,0-3.26,3.22c-2.58-2-6.79-1.28-8.62-.21a10.66,10.66,0,0,0-4.11-3.53c-.1-.06-.22-.1-.32-.15,1.1-.89,1.58-2.53.07-3.19-4.07-1.78-10.34-4.3-14.34-3s-6.3,6.75-6.3,6.75,3.12-2.89,6.9-2.89A21.74,21.74,0,0,1,86.39,65a10.91,10.91,0,0,0-1.31.25c-2.64.72-5.34,1.83-6.71,4.42-2.85,0-9.16,0-14.24,0,.69-3.89,1.77-7.34,3.79-8.88L71,58.56s-3.53-8.24-2.58-10.45,4,1,9.61-2.47a61.19,61.19,0,0,1,21.62-5.28c10.65-.67,13.51,1,16.16,7.31.9,2.13,1.63,3.93,2.26,5.5-1.88-6.73,1.29-11.6-5.65-22.49-8-12.55-31-9.89-41.21-5.27C58.6,31.14,53.56,36.86,50,45.42s-1.82,15.68.54,15.68c.86,2.81,1.25,8.34,2,13.79A14.29,14.29,0,0,1,57.67,75.37Zm54.43-8.18a11.12,11.12,0,0,1,5.59-1.39,13,13,0,0,1,1.93.15,4.11,4.11,0,0,1,1.21,2.1,10.32,10.32,0,0,0,.42-1.71c3.09,1,5.87,2.53,6.06,6.92A11.93,11.93,0,0,1,124.52,82a6.84,6.84,0,0,1-.81.72,7.82,7.82,0,0,1-5,1.61A10.46,10.46,0,0,1,108,75.5C107.34,71.26,108.23,69.47,112.1,67.19Zm-26.76-1a12.8,12.8,0,0,1,3.86-.35,17.21,17.21,0,0,0,3.74.93,2.33,2.33,0,0,0,.37,0,9.76,9.76,0,0,1,1,.47c4,2.29,4.93,4.07,4.28,8.3C98,79,95.13,84.94,87.74,84.94a8.17,8.17,0,0,1-6.15-2.56,13,13,0,0,1-3.13-9.12C78.67,68.61,81.89,67.11,85.34,66.18Z"/><path class="cls-3" d="M90,180a89.68,89.68,0,0,0,62.43-25.18l-42.61-18c-1.37,9.5-4.17,21-17.39,22.92-27.52,3.57-32-22.27-32-22.27L26.41,153.69A89.7,89.7,0,0,0,90,180Z"/><path class="cls-4" d="M92.43,159.75c13.22-2,16-13.42,17.39-22.92.1-.64.18-1.28.27-1.9-.24,1.75-.5,3.6-.86,5.48-6,.83-14-.56-23.62-10.9a72.77,72.77,0,0,1-7.67-9.2c2.41,1.51,5.25,3.06,8.68,5,10.85,6.08,17.75,4.72,23.88,1.36.2-.11.38-.23.57-.35,5.57-3.46,6.05-9.86,6.74-12A56.22,56.22,0,0,0,121,103.07c.77-5.31,2-7.49,2.71-12.79a27.34,27.34,0,0,0,.16-6.45,9,9,0,0,1-5.12,1.47A11.45,11.45,0,0,1,107,75.64a10.35,10.35,0,0,1,.13-4.61c-2.24-2-6.31-1.2-7.78-.29a9.53,9.53,0,0,1,.22,4.91A11.84,11.84,0,0,1,87.74,85.94a9.15,9.15,0,0,1-6.88-2.87,13.84,13.84,0,0,1-3.4-9.86,9,9,0,0,1,.47-2.58c-3.08,0-9.12,0-14,0-.6,3.8-.86,7.88-1.24,10.94a2.74,2.74,0,0,1-2.59,2.66c-1-4.65-1.93-8.7-2.47-8.87a14.29,14.29,0,0,0-5.17-.48c-.56,0-1.16.08-1.82.16-3.7.45-3.4,4.61-2.83,9.75s2,7.51,5.39,9.79,6.37,5.08,9.4,3.67c.28.83.58,1.68.9,2.54,1.7,6.37,2.12,15.29.59,24.6-1.67,10.17-3.66,12.08-3.66,12.08h0S64.91,163.32,92.43,159.75Zm8.84-49.2c2.6.81,6.66,1.15,8.82,0C109.24,113.2,104.28,114.31,101.27,110.55Zm14-6s-.38.25-2.18.09-3.28-.93-5.83,0-2.34.29-5.74,0-6.56.83-9.13,1.28c.61-4,8.28-9.07,11.06-7.38,1.7,1,2.91,1.11,3.81.31.41-.38,2.46-1.11,4.81.91C115,102.27,115.31,104.51,115.31,104.51ZM103.87,90.88c5.47-.32,7.52,1.22,7.52,1.22s0,1.09-3.21,2.51S98.22,95,94.87,93C93.13,92,98.41,91.2,103.87,90.88Z"/><path class="cls-5" d="M86.62,125.29c-3.43-1.92-6.27-3.47-8.68-5a72.77,72.77,0,0,0,7.67,9.2c9.59,10.34,17.58,11.73,23.62,10.9.36-1.88.62-3.73.86-5.48.31-2.33.65-5.44,1-8.63-.19.12-.37.24-.57.35C104.37,130,97.47,131.37,86.62,125.29Z"/><path class="cls-4" d="M108,75.5a10.46,10.46,0,0,0,10.77,8.8,7.82,7.82,0,0,0,5-1.61,24.24,24.24,0,0,0-1.42-5.2c-1.48-3.78-2-7.67-1.46-9.44a4.11,4.11,0,0,0-1.21-2.1,13,13,0,0,0-1.93-.15,11.12,11.12,0,0,0-5.59,1.39C108.23,69.47,107.34,71.26,108,75.5Zm2.18-4.22A5.26,5.26,0,0,1,113.47,70a5.35,5.35,0,0,1,3.34,1.16,6,6,0,0,1,1.93,2.69c-1-.47-1.85-1-2.73-1.34a7.25,7.25,0,0,0-1.67-.44,2.24,2.24,0,1,1-4.14,1.07s0-.08,0-.12a14.39,14.39,0,0,0-1.73,1.15A4.86,4.86,0,0,1,110.15,71.28Z"/><path class="cls-4" d="M99.66,40.36A61.19,61.19,0,0,0,78,45.64c-5.56,3.49-8.65.26-9.61,2.47S71,58.56,71,58.56l-3.09,2.2c-2,1.54-3.1,5-3.79,8.88,5.08,0,11.39,0,14.24,0,1.37-2.59,4.07-3.7,6.71-4.42A10.91,10.91,0,0,1,86.39,65a21.74,21.74,0,0,0-5.6-1.09c-3.78,0-6.9,2.89-6.9,2.89s2.3-5.41,6.3-6.75,10.27,1.19,14.34,3c1.51.66,1,2.3-.07,3.19.1,0,.22.09.32.15a10.66,10.66,0,0,1,4.11,3.53c1.83-1.07,6-1.81,8.62.21a8.8,8.8,0,0,1,3.26-3.22c-1.21.38-2.22.52-2.87-.08-1.7-1.58.32-4,4.53-5.15s7.28-.15,8.4,1.59a2.62,2.62,0,0,1,.36.86,11.72,11.72,0,0,0-.44-3.79c-.35-1-.75-2.11-1.23-3.4l-.17-.44c-.36-1-.78-2-1.27-3.26-.63-1.57-1.36-3.37-2.26-5.5C113.17,41.34,110.31,39.69,99.66,40.36Z"/><path class="cls-4" d="M81.59,82.38a8.17,8.17,0,0,0,6.15,2.56c7.39,0,10.28-5.94,10.83-9.45.65-4.23-.27-6-4.28-8.3a9.76,9.76,0,0,0-1-.47,2.33,2.33,0,0,1-.37,0,17.21,17.21,0,0,1-3.74-.93,12.8,12.8,0,0,0-3.86.35c-3.45.93-6.67,2.43-6.88,7.08A13,13,0,0,0,81.59,82.38ZM82,70.94a7,7,0,0,1,3.69-1.21,7.46,7.46,0,0,1,3.76.86,5.77,5.77,0,0,1,2.62,2.64,13.51,13.51,0,0,0-3.19-1.18,11.41,11.41,0,0,0-1.62-.27,2.18,2.18,0,0,1,.54,1.55,2.23,2.23,0,1,1-4.46-.19,2.27,2.27,0,0,1,.35-1.1,8.6,8.6,0,0,0-1,.29,19.81,19.81,0,0,0-3.07,1.52A6.41,6.41,0,0,1,82,70.94Z"/><path class="cls-3" d="M110.2,73.14a2.24,2.24,0,1,0,4.14-1.07,7.25,7.25,0,0,1,1.67.44c.88.32,1.71.87,2.73,1.34a6,6,0,0,0-1.93-2.69A5.35,5.35,0,0,0,113.47,70a5.26,5.26,0,0,0-3.32,1.28,4.86,4.86,0,0,0-1.66,2.89A14.39,14.39,0,0,1,110.22,73S110.2,73.1,110.2,73.14Z"/><path class="cls-3" d="M83.73,72a2.27,2.27,0,0,0-.35,1.1,2.23,2.23,0,1,0,4.46.19,2.18,2.18,0,0,0-.54-1.55,11.41,11.41,0,0,1,1.62.27,13.51,13.51,0,0,1,3.19,1.18,5.77,5.77,0,0,0-2.62-2.64,7.46,7.46,0,0,0-3.76-.86A7,7,0,0,0,82,70.94a6.41,6.41,0,0,0-2.33,2.91,19.81,19.81,0,0,1,3.07-1.52A8.6,8.6,0,0,1,83.73,72Z"/><path class="cls-5" d="M94.87,93c3.35,2,10.09,3,13.31,1.61s3.21-2.51,3.21-2.51-2-1.54-7.52-1.22S93.13,92,94.87,93Z"/><path class="cls-5" d="M107.3,98.85c-.9.8-2.11.73-3.81-.31C100.71,96.85,93,102,92.43,105.92c2.57-.45,5.72-1.54,9.13-1.28s3.18.88,5.74,0,4-.17,5.83,0,2.18-.09,2.18-.09-.28-2.24-3.2-4.75C109.76,97.74,107.71,98.47,107.3,98.85Z"/><path class="cls-5" d="M110.09,110.55c-2.16,1.15-6.22.81-8.82,0C104.28,114.31,109.24,113.2,110.09,110.55Z"/></g></svg>