<svg id="illustrations_c" xmlns="http://www.w3.org/2000/svg" viewBox="0 0 180 180"><defs><style>.cls-1{fill:#3ad7a4;}.cls-2{fill:#091440;}.cls-3{fill:#fff;}.cls-4{fill:#848aa0;}</style></defs><title>butterfly</title><circle id="_Path_" data-name="&lt;Path&gt;" class="cls-1" cx="90" cy="90" r="90"/><path class="cls-2" d="M150.45,140.83c-4-8.35-8-12.19-15.37-25.82-9.34-17.25-10.81-37-10.81-43.27,0-28.44-7.52-49-36.93-49-36.67,0-38.66,33.52-39.48,45.72-.17,2.62-.28,5.32-.34,8.06-.32,14.7.72,26.26-11.58,40.75A62.69,62.69,0,0,0,24,139l-7.17,3.4A90,90,0,0,0,161,145.29ZM89.23,125.17c-9.62,0-19.84-11.61-23.51-15.8-3.14-3.57-4.1-9.72-4.2-19.86a18.6,18.6,0,0,1,2.65-9.76c1.76-2.93,4.17-7.09,6.56-11.66C77.51,65.31,79.82,65.17,83,66c3.47.91,9.9,1.61,7.09-.75s-4.37-3.74-10-3.38a14.45,14.45,0,0,0-7.78,3c1.42-2.86,2.77-5.8,3.91-8.64,5.12-12.8,9.13-21.85,22-21.85,6.3,0,14.65,5.64,17.46,13.15,1.83,4.87,2.47,12.82,2.69,19.19A3.06,3.06,0,0,0,116,64.22a24,24,0,0,0-9.43,0c-2.15.51-4.59,3.64-1.53,3.45s9-1.18,11.58,0a3.5,3.5,0,0,1,1.86,1.47c0,2.43,0,4.49,0,5.84,0,5,2.32,5.79,2.32,11.68s-4,17.71-8.2,24.84c-3.58,6-8.29,10.94-13.52,13.12C96.24,125.84,92.66,125.17,89.23,125.17Z"/><path class="cls-3" d="M112.67,111.51c4.24-7.13,8.2-19,8.2-24.84S118.55,80,118.55,75c0-1.35,0-3.41,0-5.84a3.5,3.5,0,0,0-1.86-1.47c-2.58-1.19-8.52-.2-11.58,0s-.62-2.94,1.53-3.45a24,24,0,0,1,9.43,0,3.06,3.06,0,0,1,2.41,2.54c-.22-6.37-.86-14.32-2.69-19.19-2.81-7.51-11.16-13.15-17.46-13.15-12.88,0-16.89,9-22,21.85-1.14,2.84-2.49,5.78-3.91,8.64a14.45,14.45,0,0,1,7.78-3c5.58-.36,7.09,1,10,3.38S86.47,66.91,83,66c-3.18-.83-5.49-.69-12.27,2.09-2.39,4.57-4.8,8.73-6.56,11.66a18.6,18.6,0,0,0-2.65,9.76c.1,10.14,1.06,16.29,4.2,19.86,3.67,4.19,13.89,15.8,23.51,15.8,3.43,0,7,.67,9.92-.54C104.38,122.45,109.09,117.54,112.67,111.51Zm-7.91-39.8a6.84,6.84,0,0,1,4-1.51,6.69,6.69,0,0,1,6.59,4.41,12.88,12.88,0,0,0-3.21-1.85,9.06,9.06,0,0,0-1.86-.47,2.18,2.18,0,0,1,.18.89,2.23,2.23,0,1,1-4.46,0,1.87,1.87,0,0,1,0-.34l-.44.19a27.17,27.17,0,0,0-3.21,2A7.66,7.66,0,0,1,104.76,71.71Zm1.76,21.18c-6.41,4.78-15.36,2.53-18.09.48C88.43,93.37,98.48,94.31,106.52,92.89Zm-8.71,8.18c3.45-.9,6.7-.45,12-.9-.84.31-1.65.59-2.46.85-.38,1.63-1.94,5.51-10.17,5.51a18.37,18.37,0,0,1-13.73-5.79h0c-.7-.18-1.41-.36-2.15-.57h6.9A33,33,0,0,1,97.81,101.07Zm-20.58-30a7.2,7.2,0,0,1,4.14-1.34,7.29,7.29,0,0,1,4.12,1.35,7.65,7.65,0,0,1,2.65,3.17,22.45,22.45,0,0,0-3.4-1.8,9.35,9.35,0,0,0-2.31-.63,2.15,2.15,0,0,1,.46,1.34,2.24,2.24,0,0,1-4.47,0,2.19,2.19,0,0,1,.23-1c-.22.07-.44.14-.66.23-1.11.48-2.19,1.15-3.4,1.82A8.41,8.41,0,0,1,77.23,71.09Z"/><path class="cls-4" d="M106.52,92.89c-8,1.42-18.09.48-18.09.48C91.16,95.42,100.11,97.67,106.52,92.89Z"/><path class="cls-2" d="M106,72.84a1.87,1.87,0,0,0,0,.34,2.23,2.23,0,1,0,4.46,0,2.18,2.18,0,0,0-.18-.89,9.06,9.06,0,0,1,1.86.47,12.88,12.88,0,0,1,3.21,1.85,6.69,6.69,0,0,0-6.59-4.41,6.84,6.84,0,0,0-4,1.51A7.66,7.66,0,0,0,102.38,75a27.17,27.17,0,0,1,3.21-2Z"/><path class="cls-2" d="M78.65,72.22a2.19,2.19,0,0,0-.23,1,2.24,2.24,0,0,0,4.47,0,2.15,2.15,0,0,0-.46-1.34,9.35,9.35,0,0,1,2.31.63,22.45,22.45,0,0,1,3.4,1.8,7.65,7.65,0,0,0-2.65-3.17,7.29,7.29,0,0,0-4.12-1.35,7.2,7.2,0,0,0-4.14,1.34,8.41,8.41,0,0,0-2.64,3.18c1.21-.67,2.29-1.34,3.4-1.82C78.21,72.36,78.43,72.29,78.65,72.22Z"/><path class="cls-2" d="M98.19,105.67c-5.9,0-9.56-2.25-11.24-4.11-1.09-.24-2.23-.51-3.43-.82h0a18.37,18.37,0,0,0,13.73,5.79c8.23,0,9.79-3.88,10.17-5.51-.75.24-1.49.47-2.22.67C104.54,103,102.72,105.67,98.19,105.67Z"/><path class="cls-3" d="M98.19,105.67c4.53,0,6.35-2.65,7-4-5.29,1.41-10.38,1.57-18.23-.13C88.63,103.42,92.29,105.67,98.19,105.67Z"/><path class="cls-4" d="M83.52,100.74c1.2.31,2.34.58,3.43.82,7.85,1.7,12.94,1.54,18.23.13.73-.2,1.47-.43,2.22-.67s1.62-.54,2.46-.85c-5.35.45-8.6,0-12,.9a33,33,0,0,0-9.54-.9h-6.9C82.11,100.38,82.82,100.56,83.52,100.74Z"/></svg>