<svg id="illustrations_c" xmlns="http://www.w3.org/2000/svg" viewBox="0 0 180 180"><defs><style>.cls-1{fill:#6ed3f3;}.cls-2{fill:#091440;}.cls-3{fill:#fff;}.cls-4{fill:#848aa0;}</style></defs><title>guang</title><circle id="_Path_" data-name="&lt;Path&gt;" class="cls-1" cx="90" cy="90" r="90"/><path class="cls-2" d="M109.4,124.34l-.08.74a14.8,14.8,0,0,1-.17,1.76,18.81,18.81,0,0,1-1.48,5.32h0c-2.18,5.2-7.25,11.42-19,11.68-11,.24-21.79-5.11-26.5-10.49-2.84-3.23-4.4-7.28-3.43-11.46,0-.12.05-.26.08-.39L16.33,141.71a90,90,0,0,0,144.19,4.21Z"/><path class="cls-3" d="M109.32,125.08a17.21,17.21,0,0,1-.17,1.76A14.8,14.8,0,0,0,109.32,125.08Z"/><path class="cls-3" d="M62.15,133.35c4.71,5.38,15.51,10.73,26.5,10.49,11.77-.26,16.84-6.48,19-11.68-20.31,3.37-29.33-8.17-35.35-18.61a37.83,37.83,0,0,0,28.5,12.27,17.78,17.78,0,0,0,8.63-1.93l-.13,1.19.08-.74,0-.45a15.28,15.28,0,0,0,6.92-8.63c1.89-5.11,6.11-7.11,8.11-16.66,1.89-9,2.59-14.91,2.09-20.14l-.09-.86a61,61,0,0,1-.72-10.87c-.42-.46-2.52-1.58-5.63-1.21s-6.36,1.23-9.25-.57c-1.53-1,7-2,11.82-2a3.16,3.16,0,0,1,3.1,2.59c0-.79.08-1.65.13-2.6-1.41-2.68-4.68-5.27-8.44-7.3-5.72-2.7-14.15-3.77-14.15-3.77A29.35,29.35,0,0,0,108.18,56c-4.25-.92-8-2.55-13.64-7.23a58,58,0,0,0,4.76,6.54S88.65,48.16,86.15,39.61c-1,5.22-3.66,6.78-12.66,14.78S63.27,68.05,61.82,84.8c-6-1.81-7.2-11.39-7.32-12.47a5.27,5.27,0,0,0-2,.85,5.75,5.75,0,0,0-1.24,1.15c-1.85,2.3-1.12,5.51.58,9.27s2,12.14,5.4,13.9a3.11,3.11,0,0,0,1.82.32,4.75,4.75,0,0,0,3.53-2c.31,1.24.65,2.4,1,3.46a39.86,39.86,0,0,0,1.79,4.21,9.86,9.86,0,0,1-4.41.15,107.73,107.73,0,0,1-2.11,17.52c0,.12,0,.23-.07.35s0,.27-.08.39C57.75,126.07,59.31,130.12,62.15,133.35ZM95.33,92.72a48.07,48.07,0,0,0,17.11-.13C106.52,99.1,97.1,95.66,95.33,92.72Zm-7.9-21.44a2.24,2.24,0,0,1-4.47,0,2.14,2.14,0,0,1,.17-.84l-.8.09c-1.19.18-2.39.49-3.71.78a9.23,9.23,0,0,1,7.34-3,8.77,8.77,0,0,1,4,1.21,7,7,0,0,1,2.77,2.91A19.69,19.69,0,0,0,89.27,71a12.87,12.87,0,0,0-2-.46A2.44,2.44,0,0,1,87.43,71.28Zm3.81,32.42s6.2-1.26,9.06-2,3.6,1.09,5.7.08,5-.67,7.64.92C106.09,106,94.93,106.05,91.24,103.7Zm21.93-33.41a7.47,7.47,0,0,1,3.06-1.12,5.88,5.88,0,0,1,3.33.5,4.89,4.89,0,0,1,2.3,2.28,14.46,14.46,0,0,0-2.79-.78,8.19,8.19,0,0,0-1.78-.07,2.23,2.23,0,1,1-4.24,1s0-.09,0-.14c-.69.19-1.4.39-2.18.55A7.56,7.56,0,0,1,113.17,70.29Zm-5,15.86A1.87,1.87,0,1,1,106.31,88,1.87,1.87,0,0,1,108.18,86.15ZM80.49,61c4.11-1.86,9.44.39,14.65,1.48,4.19.88-1.16,3.47-6,2.44s-10.73-.9-13.88.32S76.37,62.9,80.49,61Z"/><path class="cls-4" d="M109.45,123.89a17.78,17.78,0,0,1-8.63,1.93,37.83,37.83,0,0,1-28.5-12.27c6,10.44,15,22,35.35,18.61h0a18.81,18.81,0,0,0,1.48-5.32,17.21,17.21,0,0,0,.17-1.76Z"/><path class="cls-2" d="M52.49,73.18a5.27,5.27,0,0,1,2-.85c.12,1.08,1.35,10.66,7.32,12.47,1.45-16.75,2.67-22.41,11.67-30.41s11.66-9.56,12.66-14.78c2.5,8.55,13.15,15.73,13.15,15.73a58,58,0,0,1-4.76-6.54c5.69,4.68,9.39,6.31,13.64,7.23a29.35,29.35,0,0,1-4.84-4.18s8.43,1.07,14.15,3.77c3.76,2,7,4.62,8.44,7.3-.05.95-.1,1.81-.13,2.6a3.16,3.16,0,0,0-3.1-2.59c-4.85,0-13.35,1.07-11.82,2,2.89,1.8,6.1,1,9.25.57s5.21.75,5.63,1.21a61,61,0,0,0,.72,10.87l.09.86a15.63,15.63,0,0,0,.68-4.19c.12-5.66,5-2.42,6.08-18s-12.82-29.82-25.15-37-25.22-9-35.25,2.1c-6.55-1.22-15.44,2.11-21.44,19.55C46,56.9,48.17,65.14,51.25,74.33A5.75,5.75,0,0,1,52.49,73.18Z"/><path class="cls-2" d="M65.39,103.48a39.86,39.86,0,0,1-1.79-4.21c-.37-1.06-.71-2.22-1-3.46a4.75,4.75,0,0,1-3.53,2,3.11,3.11,0,0,1-1.82-.32c.8,3.12,1.37,5.3,1.37,5.3a7.88,7.88,0,0,0,2.38.83A9.86,9.86,0,0,0,65.39,103.48Z"/><path class="cls-4" d="M112.44,92.59a48.07,48.07,0,0,1-17.11.13C97.1,95.66,106.52,99.1,112.44,92.59Z"/><path class="cls-4" d="M106,101.77c-2.1,1-2.85-.84-5.7-.08s-9.06,2-9.06,2c3.69,2.35,14.85,2.27,22.4-1C111,101.1,108.1,100.76,106,101.77Z"/><path class="cls-4" d="M108.18,89.88A1.87,1.87,0,1,0,106.31,88,1.86,1.86,0,0,0,108.18,89.88Z"/><path class="cls-2" d="M92.69,72.47a7,7,0,0,0-2.77-2.91,8.77,8.77,0,0,0-4-1.21,9.23,9.23,0,0,0-7.34,3c1.32-.29,2.52-.6,3.71-.78l.8-.09a2.14,2.14,0,0,0-.17.84,2.24,2.24,0,0,0,4.47,0,2.44,2.44,0,0,0-.14-.77,12.87,12.87,0,0,1,2,.46A19.69,19.69,0,0,1,92.69,72.47Z"/><path class="cls-2" d="M75.22,65.27c3.15-1.22,9-1.35,13.88-.32s10.23-1.56,6-2.44C89.93,61.42,84.6,59.17,80.49,61S72.07,66.49,75.22,65.27Z"/><path class="cls-2" d="M113.05,72.06a2.24,2.24,0,1,0,4.24-1,8.19,8.19,0,0,1,1.78.07,14.46,14.46,0,0,1,2.79.78,4.89,4.89,0,0,0-2.3-2.28,5.88,5.88,0,0,0-3.33-.5,7.47,7.47,0,0,0-3.06,1.12,7.56,7.56,0,0,0-2.29,2.18c.78-.16,1.49-.36,2.18-.55C113.06,72,113.05,72,113.05,72.06Z"/></svg>