<svg xmlns="http://www.w3.org/2000/svg" xmlns:xlink="http://www.w3.org/1999/xlink" viewBox="0 0 180 189.24"><defs><style>.cls-1{fill:none;}.cls-2{clip-path:url(#clip-path);}.cls-3{fill:#2f74fb;}.cls-4{fill:#091440;}.cls-5{fill:#cbcdd7;}.cls-6{fill:#848aa0;}</style><clipPath id="clip-path"><circle id="_Clipping_Path_" data-name="&lt;Clipping Path&gt;" class="cls-1" cx="90" cy="90" r="90"/></clipPath></defs><title>Asset 3</title><g id="Layer_2" data-name="Layer 2"><g id="illustrations"><g id="_Clip_Group_" data-name="&lt;Clip Group&gt;"><g class="cls-2"><circle id="_Path_" data-name="&lt;Path&gt;" class="cls-3" cx="90" cy="90" r="90"/><polygon id="_Path_2" data-name="&lt;Path&gt;" class="cls-4" points="59.8 120.59 8.46 145.9 4.45 189.24 178.62 189.24 164.57 148.6 104.58 122.16 59.8 120.59"/><g id="_Group_" data-name="&lt;Group&gt;"><path id="_Path_3" data-name="&lt;Path&gt;" class="cls-5" d="M62.06,87.48s1.4,20.71-.43,26.91l-1.83,6.2s14.14,31,47.57,17.51A14.37,14.37,0,0,0,116,127.85c.38-1.76.83-3.81,1.32-6.12,1.67-7.83,2.47-15.39,2.47-15.39V99.66Z"/><path id="_Path_4" data-name="&lt;Path&gt;" class="cls-6" d="M70.2,105.46c3,10.71,14.29,27.27,28.39,27.27s19.58-15.32,19.58-15.32L119.8,107Z"/><path id="_Path_5" data-name="&lt;Path&gt;" class="cls-5" d="M102.08,125.45c-4.77.12-14.49-1.81-20.24-5.89s-12.18-9.44-15.88-21-2.7-9.83-3.85-20.93-8.67-33.29,6.51-48.85,31.51-13.65,38.9-8.67S126,30.52,129.58,39.44s1.66,17.55,0,33.84-2.3,25.47-7.08,33.51-6.17,11.74-9.61,14.67S107.23,125.32,102.08,125.45Z"/><path id="_Path_6" data-name="&lt;Path&gt;" class="cls-5" d="M63.64,71.34s-3.83-7.44-7.91-6.85S51,77,54.89,86.39c2,4.92,5.82,6.85,8.75,5.33S66.88,75.9,63.64,71.34Z"/><g id="_Group_2" data-name="&lt;Group&gt;"><g id="_Group_3" data-name="&lt;Group&gt;"><path id="_Path_7" data-name="&lt;Path&gt;" class="cls-4" d="M79.82,70.54a5.86,5.86,0,0,1,1.88-1.41,8.91,8.91,0,0,1,1.05-.47A9.64,9.64,0,0,1,84,68.32a8,8,0,0,1,1.37-.18,10.49,10.49,0,0,1,1.43,0c.48,0,.95.12,1.41.2s.9.25,1.32.38.81.34,1.17.51a8.18,8.18,0,0,1,1,.59A7.32,7.32,0,0,1,93,70.87c.29.29.44.46.44.46s-.24,0-.64-.12c-.2,0-.44-.09-.7-.16s-.57-.12-.89-.2-.66-.16-1-.22l-1.13-.22c-.39,0-.79-.11-1.19-.18s-.82-.1-1.23-.12-.82-.07-1.23-.06h-.61l-.59,0c-.39,0-.77,0-1.14.05s-.71,0-1,.09C80.75,70.36,79.82,70.54,79.82,70.54Z"/></g><path id="_Path_8" data-name="&lt;Path&gt;" class="cls-4" d="M88.4,70.54c0-1.52-1.23-1.45-2.75-1.45s-2.75-.07-2.75,1.45a2.75,2.75,0,0,0,5.49,0Z"/></g><path id="_Path_9" data-name="&lt;Path&gt;" class="cls-4" d="M93.44,63.45c-5.36.79-7.8-2.87-12.1-2.23a17.6,17.6,0,0,0-6.69,2.23S76,58.89,81.81,58.1s8.36.5,10.51,1.53S96.14,63.06,93.44,63.45Z"/><g id="_Group_4" data-name="&lt;Group&gt;"><g id="_Group_5" data-name="&lt;Group&gt;"><path id="_Path_10" data-name="&lt;Path&gt;" class="cls-4" d="M125.46,70.6a19.12,19.12,0,0,0-2-.37c-.6-.05-1.27-.13-2-.12-.36,0-.73,0-1.1,0l-1.13.09c-.38.06-.76.08-1.13.15s-.74.11-1.1.19-.71.15-1,.21L115,71c-.61.11-1.1.27-1.48.33s-.6.1-.6.1.14-.17.4-.44a7.1,7.1,0,0,1,1.2-1c.27-.18.56-.39.89-.58s.7-.34,1.08-.5a10.64,10.64,0,0,1,1.22-.39,11.8,11.8,0,0,1,1.31-.24,8.85,8.85,0,0,1,2.63.13,7.08,7.08,0,0,1,2.15.8,5.67,5.67,0,0,1,1.28,1A3.19,3.19,0,0,1,125.46,70.6Z"/></g><path id="_Path_11" data-name="&lt;Path&gt;" class="cls-4" d="M115.91,70.6c0-1.52,1.23-1.45,2.75-1.45s2.75-.07,2.75,1.45a2.75,2.75,0,1,1-5.49,0Z"/><path id="_Path_12" data-name="&lt;Path&gt;" class="cls-4" d="M116.43,63.42c-2.91,0-4.14-1.43-3.26-2.55s2.31-1.43,6.45-2.39,7.24-2.47,9.71-.48,1.33,5.14,1.33,5.14-.14-2.75-3.8-2.12S118.15,63.44,116.43,63.42Z"/></g><path id="_Path_13" data-name="&lt;Path&gt;" class="cls-6" d="M93.31,89.71s1.61,5.2,10.86,5.13S115,89.71,115,89.71a52.38,52.38,0,0,1-10.86,1.36A43.05,43.05,0,0,1,93.31,89.71Z"/><path id="_Path_14" data-name="&lt;Path&gt;" class="cls-6" d="M89.82,100.92c-.44,1.12,1.83,1.63,3.38,1.71s5.22.65,10.36.73,7,.09,9.43-.48,3.68-.74,2.94-1.63-.09.93-2.62.28-2.81-1.92-5.58-1.84-3.35,1.06-3.35,1.06a3.74,3.74,0,0,0-3.18-1.06c-2,.25-7.18,2.53-8.08,2S90.27,99.8,89.82,100.92Z"/><path id="_Path_15" data-name="&lt;Path&gt;" class="cls-6" d="M97.9,109a10.49,10.49,0,0,0,7.43,3.11c3.59-.1,6.28-3.35,6.28-3.35a31.92,31.92,0,0,1-6.48.91A67.55,67.55,0,0,1,97.9,109Z"/><path id="_Path_16" data-name="&lt;Path&gt;" class="cls-4" d="M65.29,75.63c.83,1.66,4.37,1,4.37,1,0-12.2-5-11.23-2-19.62,2.66-7.39-4.1-11.46.79-17.41S90,24,107.22,26.82c17.68,2.91,22.64,7.22,23.53,20.51a132.93,132.93,0,0,1-.2,17.16s6-15.05,1.06-27.86S117.92,10.75,95.28,10,57.52,25.19,55,44s5,22.36,5,22.36Z"/></g></g></g></g></g></svg>