<svg xmlns="http://www.w3.org/2000/svg" viewBox="0 0 180 180"><defs><style>.cls-1{fill:#6ed3f3;}.cls-2{fill:none;}.cls-3{fill:#fff;}.cls-4{fill:#848aa0;}.cls-5{fill:#091440;}</style></defs><title>Asset 2</title><g id="Layer_2" data-name="Layer 2"><g id="illustrations"><g id="_Group_" data-name="&lt;Group&gt;"><circle id="_Path_" data-name="&lt;Path&gt;" class="cls-1" cx="90" cy="90" r="90"/><g id="_Group_2" data-name="&lt;Group&gt;"><path id="_Path_2" data-name="&lt;Path&gt;" class="cls-2" d="M122.08,63.19l3.26-.23a11.58,11.58,0,0,0-3.29-.84A7.78,7.78,0,0,1,122.08,63.19Z"/><path id="_Path_3" data-name="&lt;Path&gt;" class="cls-3" d="M58.76,119.28a3.83,3.83,0,0,0-.45,2.21c.15.69,5.8,23.64,30.69,26s25.59-18.47,25.68-20.33a20,20,0,0,1,.33-2h0c-.51,2.18-4.07,14.59-19.73,13.8-17.17-.87-28.18-20.07-29.61-29.26h0c-.37-1-.72-2.12-1-3.27a122.53,122.53,0,0,1-3.11-15c.54-3.87-.27-10.35-3-16.92a12,12,0,0,0-3.3-4.87,5.56,5.56,0,0,0-4.68-1.25c-2.21.37-2,10.88,0,17.77S57.66,96.29,60,94.84a1.69,1.69,0,0,0,.26-.22c.76,5.82,1.41,13.2.82,17.2A26.62,26.62,0,0,1,58.76,119.28Z"/><path id="_Path_4" data-name="&lt;Path&gt;" class="cls-4" d="M85.18,129.87c-10.34-5-16-10.25-19.49-20.17h0c1.43,9.19,12.44,28.39,29.61,29.26,15.66.79,19.22-11.62,19.73-13.8a30.32,30.32,0,0,1-2.41,2.69C106.08,134.3,96.6,135.4,85.18,129.87Z"/><path id="_Path_5" data-name="&lt;Path&gt;" class="cls-3" d="M100.29,41.16C89.88,40,86.83,33,77.82,33.65S65.41,41,64.48,47.58,66.6,60.5,65,62.63a3.07,3.07,0,0,0-.29.46l2.62-.51,5.41-.35c1.31-1.74,3.69-3.43,7.81-4a26.08,26.08,0,0,1,16.16,3.2A1.31,1.31,0,0,1,97,63.51c2.78.89,6.65.5,9.63-.13a4,4,0,0,1,.75-.18A6.6,6.6,0,0,1,108.71,61c2-2.32,7.74-3.85,11.14-2.21a3.72,3.72,0,0,1,2.07,2.63,9.26,9.26,0,0,0-1.51-5.88c-1.88-3-3.67-10.69-7.26-15.28C110.53,41.47,106.9,41.9,100.29,41.16Z"/><path id="_Compound_Path_" data-name="&lt;Compound Path&gt;" class="cls-3" d="M119.51,62.63c-2.31-1.86-8,.57-10.38,1.47-1.51.56-2.07.1-1.79-.89l-.74.17a2.75,2.75,0,0,0-1.93,1.71c-.53,1.72.55,5.16.55,5.16s-1.44-3.19-3.65-3.19-3.75,3.58-3.75,3.58.29-1.18.57-2.59.81-3-1.47-4.5a1.2,1.2,0,0,1-.72.32c-2.59.25-7.54-1-11.77-1.52C78.19,61.63,73,65.67,71.86,66.7c-.58.55-.93-1.51.4-3.76l-.56.21c-2.91,1.15-2,6.09-2,6.09-.34-3-2.36-3.62-2.36-3.62l-3.59.46a48.31,48.31,0,0,0-.52,14.48c.86,5.87,5.35,16.56,12.54,22,6.31,4.73,8,5.07,7.67,5.76s-8.49-.55-3.38,5,11.13,4.37,13.22,2.88c1.31-.84,3.55-2.41,3.43-3.25-.31-2.15-5.44-1.62-6-1.87s3.22-5.27,10.19-5.53,8.09,4.42,7.74,4.68-3.58.34-4,1.61c-.24.66.87,1.71,2,2.57,2.11,1.43,6.56,1.45,9.53-3,4.22-6.34-.75-5.68-.37-6.37.81-1.46,3.48-1.66,5.14-8l1.65-6.33c.33-5.33,2.2-9,.78-13.35A35.42,35.42,0,0,1,121.5,66c0-.41,0-.8.08-1.18A8.89,8.89,0,0,0,119.51,62.63Zm-6.36,22c-1.59,5.57-7,6.64-11.24,6-3.49-.57-7.45-1.71-8.62-4.13C93.29,86.45,107,87.83,113.15,84.63ZM77.41,70.1a6.13,6.13,0,0,1,1.25-1.41A7.58,7.58,0,0,1,81,67.34,9.05,9.05,0,0,1,82.49,67a9.39,9.39,0,0,1,1.59-.13,12,12,0,0,1,1.52.1,12.69,12.69,0,0,1,1.49.29,8.64,8.64,0,0,1,1.33.44,8.49,8.49,0,0,1,1.13.55A6.43,6.43,0,0,1,91,69.36a3.28,3.28,0,0,1,.43.56,5.45,5.45,0,0,0-.64-.24,17.07,17.07,0,0,0-1.67-.46L88,69l-1.24-.15c-.44-.05-.89-.06-1.33-.09l-.45,0a2.86,2.86,0,0,1,.53,1.5,2.9,2.9,0,0,1-5.8.33,3,3,0,0,1,.19-1.21l-.7.24a13.53,13.53,0,0,0-1.56.76l-.59.35A4.1,4.1,0,0,1,77.41,70.1Zm9.27,27.22c5.19-2.72,8.67-5,9.78-6.12s3.84-.15,4.42,1.11c1,2.14.42,4.93-6.38,6.88a20.57,20.57,0,0,0-10.45,7.31S81.5,100,86.68,97.32ZM96,101.91a21.66,21.66,0,0,1-5.61.51c2.47-.17,7.06-3,9.43-3.81s2.13.75,3.7.84,2.51-2,4.38-.84,4.59,2.85,4.59,2.85c-1.78,1-4.68-.57-5.61,0a4.79,4.79,0,0,1-5.31.45C100.48,101.4,98.86,101.23,96,101.91Zm19.39,2.47s-1.14-3.74-3.61-5.19-3.31-.85-5.18-2.38-1.29-5.18.71-5.27,5.32,3.57,7.28,5.27S115.36,104.38,115.36,104.38Zm3.06-34.78a6.05,6.05,0,0,0-.85-.38,7.2,7.2,0,0,0-1-.32,4.37,4.37,0,0,0-.49-.12,2.76,2.76,0,0,1,.19.86,2.9,2.9,0,0,1-5.8.33,2.82,2.82,0,0,1,.15-1l-.18,0a3.72,3.72,0,0,0-1.17.67,2.38,2.38,0,0,0-.39.43,1.52,1.52,0,0,1,0-.64,2.43,2.43,0,0,1,.26-.7,3.11,3.11,0,0,1,.62-.79,4.7,4.7,0,0,1,2.17-1.1,6.22,6.22,0,0,1,.65-.13l.64-.06a10.35,10.35,0,0,1,1.36,0,8.78,8.78,0,0,1,1.34.25,7,7,0,0,1,1.23.49,6,6,0,0,1,1,.65,6.59,6.59,0,0,1,.81.75,5.29,5.29,0,0,1,.88,1.34,3.24,3.24,0,0,1,.19.57A9,9,0,0,0,118.42,69.6Z"/><path id="_Path_6" data-name="&lt;Path&gt;" class="cls-5" d="M79.23,69.62l.7-.24a3,3,0,0,0-.19,1.21,2.9,2.9,0,0,0,5.8-.33,2.86,2.86,0,0,0-.53-1.5l.45,0c.44,0,.89,0,1.33.09L88,69l1.12.2a17.07,17.07,0,0,1,1.67.46,5.45,5.45,0,0,1,.64.24,3.28,3.28,0,0,0-.43-.56,6.43,6.43,0,0,0-1.48-1.16,8.49,8.49,0,0,0-1.13-.55,8.64,8.64,0,0,0-1.33-.44,12.69,12.69,0,0,0-1.49-.29,12,12,0,0,0-1.52-.1,9.39,9.39,0,0,0-1.59.13,9.05,9.05,0,0,0-1.49.39,7.58,7.58,0,0,0-2.34,1.35,6.13,6.13,0,0,0-1.25,1.41,4.1,4.1,0,0,0-.33.63l.59-.35A13.53,13.53,0,0,1,79.23,69.62Z"/><path id="_Path_7" data-name="&lt;Path&gt;" class="cls-5" d="M119.05,68.82a6.59,6.59,0,0,0-.81-.75,6,6,0,0,0-1-.65,7,7,0,0,0-1.23-.49,8.78,8.78,0,0,0-1.34-.25,10.35,10.35,0,0,0-1.36,0l-.64.06a6.22,6.22,0,0,0-.65.13,4.7,4.7,0,0,0-2.17,1.1,3.11,3.11,0,0,0-.62.79,2.43,2.43,0,0,0-.26.7,1.52,1.52,0,0,0,0,.64,2.38,2.38,0,0,1,.39-.43,3.72,3.72,0,0,1,1.17-.67l.18,0a2.82,2.82,0,0,0-.15,1,2.9,2.9,0,0,0,5.8-.33,2.76,2.76,0,0,0-.19-.86,4.37,4.37,0,0,1,.49.12,7.2,7.2,0,0,1,1,.32,6.05,6.05,0,0,1,.85.38,9,9,0,0,1,1.7,1.13,3.24,3.24,0,0,0-.19-.57A5.29,5.29,0,0,0,119.05,68.82Z"/><path id="_Compound_Path_2" data-name="&lt;Compound Path&gt;" class="cls-5" d="M119.85,58.78c-3.4-1.64-9.15-.11-11.14,2.21a6.6,6.6,0,0,0-1.36,2.21,4,4,0,0,0-.75.18l.74-.17c-.28,1,.28,1.45,1.79.89,2.4-.9,8.07-3.33,10.38-1.47a8.89,8.89,0,0,1,2.07,2.23c0,.38-.07.77-.08,1.18l6.76-.31a9.2,9.2,0,0,1,.22,3.47c.34-3,2.24-3.58,2.24-3.58v-3L122,62c0-.2-.07-.41-.12-.61A3.72,3.72,0,0,0,119.85,58.78ZM125.34,63l-3.26.23a7.78,7.78,0,0,0,0-1.07A11.58,11.58,0,0,1,125.34,63Z"/><path id="_Path_8" data-name="&lt;Path&gt;" class="cls-4" d="M101.91,90.58c4.28.69,9.65-.38,11.24-6-6.15,3.2-19.86,1.82-19.86,1.82C94.46,88.87,98.42,90,101.91,90.58Z"/><path id="_Path_9" data-name="&lt;Path&gt;" class="cls-5" d="M94.5,99.19c6.8-2,7.35-4.74,6.38-6.88-.58-1.26-3.32-2.21-4.42-1.11s-4.59,3.4-9.78,6.12-2.63,9.18-2.63,9.18A20.57,20.57,0,0,1,94.5,99.19Z"/><path id="_Path_10" data-name="&lt;Path&gt;" class="cls-5" d="M107.28,91.54c-2,.09-2.71,3.63-.71,5.27s2.72.94,5.18,2.38,3.61,5.19,3.61,5.19,1.15-5.87-.8-7.57S109.29,91.46,107.28,91.54Z"/><path id="_Path_11" data-name="&lt;Path&gt;" class="cls-4" d="M101.54,101.91a4.79,4.79,0,0,0,5.31-.45c.93-.57,3.83,1,5.61,0,0,0-2.72-1.73-4.59-2.85s-2.81.92-4.38.84-1.32-1.68-3.7-.84-7,3.64-9.43,3.81a21.66,21.66,0,0,0,5.61-.51C98.86,101.23,100.48,101.4,101.54,101.91Z"/><path id="_Path_12" data-name="&lt;Path&gt;" class="cls-5" d="M58.51,74.53c2.76,6.57,3.57,13,3,16.92a122.53,122.53,0,0,0,3.11,15c.32,1.15.67,2.22,1,3.27,3.5,9.92,9.15,15.18,19.49,20.17,11.42,5.53,20.9,4.43,27.42-2a30.32,30.32,0,0,0,2.41-2.69h0a20,20,0,0,0-.33,2c-.09,1.86-.8,22.69-25.68,20.33s-30.54-25.32-30.69-26a3.83,3.83,0,0,1,.45-2.21l-44,20.17a90,90,0,0,0,151.86-2.29l-49.32-15.39A36.31,36.31,0,0,0,122.21,105c.41-8,.28-14.32.28-14.32L120.84,97c-1.66,6.34-4.33,6.54-5.14,8-.38.69,4.59,0,.37,6.37-3,4.48-7.42,4.46-9.53,3-1.12-.86-2.23-1.91-2-2.57.46-1.27,3.7-1.36,4-1.61s-.77-4.93-7.74-4.68-10.79,5.27-10.19,5.53,5.72-.28,6,1.87c.12.84-2.12,2.41-3.43,3.25-2.09,1.49-8.11,2.71-13.22-2.88s3.11-4.35,3.38-5-1.36-1-7.67-5.76c-7.19-5.39-11.68-16.08-12.54-22a48.31,48.31,0,0,1,.52-14.48l3.59-.46s2,.64,2.36,3.62c0,0-.89-4.94,2-6.09l.56-.21c-1.33,2.25-1,4.31-.4,3.76,1.1-1,6.33-5.07,12.57-4.35,4.23.49,9.18,1.77,11.77,1.52a1.2,1.2,0,0,0,.72-.32c2.28,1.52,1.73,3.1,1.47,4.5s-.57,2.59-.57,2.59,1.54-3.58,3.75-3.58,3.65,3.19,3.65,3.19-1.08-3.44-.55-5.16a2.75,2.75,0,0,1,1.93-1.71c-3,.63-6.85,1-9.63.13a1.31,1.31,0,0,0-.27-2.07,26.08,26.08,0,0,0-16.16-3.2c-4.12.56-6.5,2.25-7.81,4l-5.41.35-2.62.51a3.07,3.07,0,0,1,.29-.46c1.61-2.13-1.44-8.5-.51-15.05s4.33-13.25,13.34-13.93S89.88,40,100.29,41.16c6.61.74,10.24.31,12.86-.91A14.21,14.21,0,0,0,117,37.44a15.58,15.58,0,0,0,4.16-7.08s-2.94.81-9.68-2.51S88.19,16.22,70.17,24.64c-10.22,4.77-7.26,10.2-7.26,10.2s-4.72,1-8.37,8.41c-2.51,5.07-1.3,16.43.67,26.41A12,12,0,0,1,58.51,74.53Z"/></g></g></g></g></svg>