<svg id="illustrations" xmlns="http://www.w3.org/2000/svg" viewBox="0 0 180 180"><defs><style>.cls-1{fill:#3ad7a4;}.cls-2{fill:#cbcdd7;}.cls-3{fill:#848aa0;}.cls-4{fill:#091440;}</style></defs><title>dcr_portraits5</title><circle id="_Path_" data-name="&lt;Path&gt;" class="cls-1" cx="90" cy="90" r="90"/><path class="cls-2" d="M87.29,151.23c11.08-.61,16.3-5,19-12.89-2.18,4.85-8.59,7.31-18.43.39s-14.1-24.85-17.49-29.21c1.6,2,3.26,4.09,4.92,6.43,1.49,2.1,3.2,4.31,5,6.45a79.89,79.89,0,0,1,7.75,3c2.15,1.07,6.71,5.68,14.06,5.92s9.75-.51,12.52-3.21,4.73-4.68,4.75-4.7l.89-1.56c5.86-10.43,8-22.35,9.34-31.2,1.52-10,0-15.45,0-22a3.88,3.88,0,0,0-4.07-3.32c-4,0-9.57,3.06-11.59,3.74s-1.81-3.25.66-4.83c2.27-1.46,6.25-3.45,8.77-3.86,2-.33,5-.05,6.31,2.29,0-7.15-.49-16.46-2.55-22.46a29.45,29.45,0,0,0-1.57-3.71c-3.8-7.2-8-9-14.42-7.11-14.26,4.19-29.35-2.76-35.82-.33-9.85,3.7-12,14-10.08,22.8,3.24,14.73-1.44,29.48-1.44,29.48a2.7,2.7,0,0,0-.45-.53c-.1-.57-.2-1.15-.32-1.75,0,0-3.67-10.71-9.15-10.67h-.39c-5.69.57-9.05,4-6.72,12.75S48.29,97,54.87,97.1a9,9,0,0,0,2.87-.43c0,5.6-.64,18.48-6.05,29.81a4.41,4.41,0,0,0-.38,1.38C50.35,135.86,67.59,152.3,87.29,151.23Zm5.66-79.49a13,13,0,0,0-2.58-1,2.69,2.69,0,1,1-4.53-.14l-1.25.2a12.31,12.31,0,0,0-2.13.62,4.47,4.47,0,0,0-1.87,1.27,3.62,3.62,0,0,1,1.35-2.09,8.39,8.39,0,0,1,2.19-1.28,13.15,13.15,0,0,1,2.39-.7,8.76,8.76,0,0,1,2.6-.15,8.92,8.92,0,0,1,4.7,2,9.69,9.69,0,0,1,2.93,3.93A25.84,25.84,0,0,0,92.95,71.74Zm5.37,46.73a22.55,22.55,0,0,0,13.45.53C108.19,122.46,102.68,123.26,98.32,118.47ZM91,110.61a30.08,30.08,0,0,0,7-3.47c3.27-2.33,5.79-4.48,10.17-1.83,2-1.53,3.84-2.14,7.87,1.43,2.88,2.54,3.3,3.67,3.3,3.67S108.4,112.73,91,110.61Zm26.25-39.75a9.81,9.81,0,0,1,4.07-2.13,5.39,5.39,0,0,1,2.53,0A4.56,4.56,0,0,1,126,70a6,6,0,0,1,1.62,4.23,9.84,9.84,0,0,0-2.64-3,3.74,3.74,0,0,0-2.39-.64,2.68,2.68,0,1,1-4.88,1.79l-3.37,1.89A11.93,11.93,0,0,1,117.21,70.86Zm1.74,24c-5,4.76-29.14.43-21.86,0C98.93,94.78,110.08,92.53,118.95,94.89ZM76.12,63.81c1.22-4.15,5.17-5.3,8.91-4.9s9.37,2.9,12.75,4.35c3.67,1.58,4,5.51,1,4.83S90,64.35,84.08,64.35s-8.7,5.51-8.7,5.51S74.89,68,76.12,63.81Z"/><path class="cls-3" d="M70.36,109.5c3.39,4.37,7.66,22.3,17.49,29.21s16.25,4.47,18.43-.39h0c.1-.22.19-.44.28-.65-.13-.07-.27-.13-.4-.21-3.73-2.25-4.64-.26-7.58.76s-15-7.94-18.33-15.84h0c-1.78-2.14-3.48-4.36-5-6.45C73.62,113.59,72,111.48,70.36,109.5Z"/><path class="cls-4" d="M120.24,74.73a2.67,2.67,0,0,0,2.37-4.18,3.74,3.74,0,0,1,2.39.64,9.84,9.84,0,0,1,2.64,3A6,6,0,0,0,126,70a4.56,4.56,0,0,0-2.2-1.27,5.39,5.39,0,0,0-2.53,0,9.81,9.81,0,0,0-4.07,2.13,11.93,11.93,0,0,0-2.84,3.38l3.37-1.89A2.68,2.68,0,0,0,120.24,74.73Z"/><path class="cls-4" d="M93.82,70.44a8.92,8.92,0,0,0-4.7-2,8.76,8.76,0,0,0-2.6.15,13.15,13.15,0,0,0-2.39.7,8.39,8.39,0,0,0-2.19,1.28,3.62,3.62,0,0,0-1.35,2.09,4.47,4.47,0,0,1,1.87-1.27,12.31,12.31,0,0,1,2.13-.62l1.25-.2a2.68,2.68,0,1,0,4.53.14,13,13,0,0,1,2.58,1,25.84,25.84,0,0,1,3.81,2.63A9.69,9.69,0,0,0,93.82,70.44Z"/><path class="cls-4" d="M84.08,64.35c5.92,0,11.7,3.06,14.69,3.74s2.68-3.25-1-4.83c-3.38-1.46-9-3.94-12.75-4.35s-7.68.75-8.91,4.9-.75,6.05-.75,6.05S78.16,64.34,84.08,64.35Z"/><path class="cls-4" d="M123.33,60.4c-2.52.41-6.49,2.4-8.77,3.86-2.47,1.58-2.68,5.51-.66,4.83s7.61-3.74,11.59-3.74a3.88,3.88,0,0,1,4.07,3.32,4.16,4.16,0,0,1,.08.53,12,12,0,0,0,.59-4.45,5.18,5.18,0,0,0-.59-2.05C128.36,60.34,125.36,60.07,123.33,60.4Z"/><path class="cls-3" d="M97.09,94.89c-7.28.43,16.88,4.76,21.86,0C110.08,92.53,98.93,94.78,97.09,94.89Z"/><path class="cls-3" d="M116,106.73c-4-3.56-5.83-3-7.87-1.43-4.39-2.65-6.9-.5-10.17,1.83a30.08,30.08,0,0,1-7,3.47c17.44,2.12,28.36-.2,28.36-.2S118.89,109.27,116,106.73Z"/><path class="cls-3" d="M98.32,118.47c4.37,4.79,9.88,4,13.45.53A22.55,22.55,0,0,1,98.32,118.47Z"/><path class="cls-4" d="M115.41,132.49a42.68,42.68,0,0,0,3.94-9.1h0s-2,2-4.75,4.7-5.17,3.45-12.52,3.21S90.15,126.45,88,125.38a79.89,79.89,0,0,0-7.75-3h0c3.28,7.9,15.39,16.85,18.33,15.84s3.84-3,7.58-.76c.14.08.27.14.4.21-.09.21-.18.43-.28.65h0c-2.69,7.94-7.91,12.29-19,12.89-19.7,1.08-36.94-15.37-36-23.36L17.12,142.8A90,90,0,0,0,156,151.14l-41.17-17.77C115,133.08,115.23,132.79,115.41,132.49Z"/><path class="cls-4" d="M63,79.08c.13.6.23,1.18.32,1.75a2.7,2.7,0,0,1,.45.53s4.69-14.75,1.44-29.48c-1.94-8.81.23-19.11,10.08-22.8,6.47-2.43,21.56,4.52,35.82.33,6.46-1.9,10.62-.09,14.42,7.11l.26.48C123.64,24.95,114,17.25,99.31,15.12c-10.56-1.53-21.55-.73-33.16,9.93s-13.21,19.44-13,28.87c.06,2.29.29,8.66.64,14.49C59.31,68.37,63,79.08,63,79.08Z"/></svg>