<?xml version="1.0" encoding="utf-8"?>
<svg version="1.1" id="Layer_1" xmlns="http://www.w3.org/2000/svg" xmlns:xlink="http://www.w3.org/1999/xlink" x="0px" y="0px"
	 viewBox="0 0 18.4 18.2" style="enable-background:new 0 0 18.4 18.2;" xml:space="preserve">
<style type="text/css">
	.st0{fill:#091440;}
</style>
<path class="st0" d="M14.6-0.1H3.8C1.7-0.1,0,1.6,0,3.7v10.7c0,2.1,1.7,3.8,3.8,3.8h10.7c2.1,0,3.8-1.7,3.8-3.8V3.7
	C18.4,1.6,16.7-0.1,14.6-0.1z M6.1,14.5H3.8V6h2.3V14.5z M5,5.1c-0.7,0-1.3-0.6-1.3-1.4S4.2,2.3,5,2.3s1.3,0.6,1.3,1.4
	S5.7,5.1,5,5.1z M15.3,14.5H13v-4.3c0-2.6-3.1-2.4-3.1,0v4.3H7.7V6H10v1.4c1.1-2,5.4-2.1,5.4,1.9V14.5z"/>
</svg>
