<svg id="illustrations_c" xmlns="http://www.w3.org/2000/svg" viewBox="0 0 180 180"><defs><style>.cls-1{fill:#6ed3f3;}.cls-2{fill:#091440;}.cls-3{fill:#fff;}.cls-4{fill:#848aa0;}</style></defs><title>sef</title><circle id="_Path_" data-name="&lt;Path&gt;" class="cls-1" cx="90" cy="90" r="90"/><path class="cls-2" d="M103.64,131.1c5.88-1.76,8.74-6.86,12.72-11.45,4.65-5.35,6.27-14.44,6.91-21.2a53.38,53.38,0,0,0-.46-12.82v0a30.71,30.71,0,0,1-1.8,6.16c-1.72,4.81-3.17,5.28-4.36,10.57s-2.12,5.42-2.47,3.31.63-5.14-1.34-7.89S109,96.23,106,95.31c-2.63-.8-2.18-2.62-5.12-3.08a10.06,10.06,0,0,0-1.57-.11H99c-4.37,0-3.38,1.18-6.68,2.77s-10,1.52-12.69,3-.35,9.51-2.25,9.93-.28-4.93-6.69-9.65c-5.16-3.8-7.79-12.9-8.26-19.61,0-1.26,0-2.69,0-4.33h0C62.42,62.55,66.2,59.76,73,56c0-6.61,6.76-9.65,13-7.75s16.92-.35,24.63-2.15a11.56,11.56,0,0,0,7,9.61c3.26,1.54,4.13,4.27,4.88,9.53a7.64,7.64,0,0,0-.79-1c-1.2-1.22-4.9-2.61-9.32-1.82s-6.42,2.39-7,4.76c-.29,1.17,4.48.44,8.38-.11a18.5,18.5,0,0,1,9,.61l.08,0c.21,1.62.43,3.43.7,5.46,0-.28.06-.6.09-.92.74-6.43,5.38-18.91,3.52-29.94-1.95-11.57-19.25-24.06-33.29-24.06S70.5,21.78,61.3,27.9,48.73,47.27,49.39,54.51c.55,6,2.82,11.89,4.84,16.82A20,20,0,0,1,58,74.23h-.05S62,80.78,62,96.3c0,7.29-.08,8.77,1.91,13.42a22.78,22.78,0,0,0,3.44,5.41,91.07,91.07,0,0,0,11,10.58c7.67,6.55,13.94,6.62,22.11,6a15.78,15.78,0,0,0,2.28-.35c-.53,1.46-1,2.7-1.25,3.39,0,.16-.12.32-.18.49l0,.06h0c-2.16,5.59-7.4,13.17-22.71,13.17-17.4,0-26.5-16.57-23.7-23.2a1.34,1.34,0,0,0,.07-.18L16.54,142A90,90,0,0,0,154.3,153ZM86.82,102.56a44.82,44.82,0,0,1,7.55-2.12c2.59-.27,3.25.22,5,.28s2.33-1,5.25-.55a7.47,7.47,0,0,1,4.58,2.77h0c3.23,2.27,2.78,8.51-3.06,8.89-6.55.42.34-2.22,1.38-4.26s-.9-.58-8.17-.58c-6.34,0-9.2-.65-8.64,1,1,3.05,5,3.16,2.78,3.86s-5.73.31-7.43-1.54C83.41,107.41,85.08,102.84,86.82,102.56Z"/><path class="cls-3" d="M101.48,134.73c-.08.23-.15.4-.18.49C101.36,135.05,101.43,134.89,101.48,134.73Z"/><path class="cls-3" d="M78.56,148.45c15.31,0,20.55-7.58,22.71-13.17A22.74,22.74,0,0,1,88,136c-7.76-1.75-13.12-7.48-20.64-20.84h0a22.78,22.78,0,0,1-3.44-5.41c-2-4.65-1.88-6.13-1.91-13.42,0-15.52-4.1-22.07-4.1-22.07H58a20,20,0,0,0-3.73-2.9c-1.86-1-3-.49-4.42,1.17-3.76,4.43,3.09,10.07,3.23,15,.13,4.75,1.34,11.59,6.51,8-.2,11.49-1.58,22.26-4.62,29.57a1.34,1.34,0,0,1-.07.18C52.06,131.88,61.16,148.45,78.56,148.45Z"/><path class="cls-3" d="M122.76,67.73l-.08,0a18.5,18.5,0,0,0-9-.61c-3.9.55-8.67,1.28-8.38.11.56-2.37,2.55-4,7-4.76s8.12.6,9.32,1.82a7.64,7.64,0,0,1,.79,1c-.75-5.26-1.62-8-4.88-9.53a11.56,11.56,0,0,1-7-9.61c-7.71,1.8-18.38,4.06-24.63,2.15S73,49.4,73,56c-6.77,3.75-10.55,6.54-10.55,18.22h0c0,1.64,0,3.07,0,4.33.47,6.71,3.1,15.81,8.26,19.61,6.41,4.72,4.79,10.07,6.69,9.65s-.42-8.45,2.25-9.93,9.31-1.38,12.69-3S94.6,92.17,99,92.12c-3.07-.28-6.49-1.09-7.61-2.51,7-.37,15.42-.59,18.86,0-.78,1.49-4.77,2.44-8.1,2.6-.4,0-.83,0-1.29,0,2.94.46,2.49,2.28,5.12,3.08,3,.92,4.92-.24,6.89,2.51s1,5.77,1.34,7.89,1.27,2,2.47-3.31,2.64-5.76,4.36-10.57a30.71,30.71,0,0,0,1.8-6.16c.21-4,.38-8.32.74-13.4,0,.32-.07.64-.09.92C123.19,71.16,123,69.35,122.76,67.73ZM85.35,72.2a2.4,2.4,0,1,1-4.8,0,2.25,2.25,0,0,1,.08-.58l-.45.08c-1.09.21-2.16.58-3.38.83a8.55,8.55,0,0,1,2.85-2.31,8.23,8.23,0,0,1,3.69-.89,7.06,7.06,0,0,1,3.71,1.07,6.51,6.51,0,0,1,2.45,2.79,21.9,21.9,0,0,0-3.13-1.38,8.88,8.88,0,0,0-1.13-.28A2.41,2.41,0,0,1,85.35,72.2Zm8.08-4.77c-.39,1.8-9.92-.61-15.08-1-4.36-.33-7.54-.55-7.54-.55A17.77,17.77,0,0,1,77.41,63c4-.88,6.71-.61,10.92.22S94.15,64.1,93.43,67.43Zm22,3.65a17.24,17.24,0,0,0-1.85-.22,2.35,2.35,0,0,1,.38,1.28,2.4,2.4,0,1,1-4.63-.85c-.8.22-1.61.51-2.51.85a6.43,6.43,0,0,1,5.74-3.33,7.38,7.38,0,0,1,6,3C117.35,71.55,116.37,71.26,115.39,71.08Z"/><path class="cls-3" d="M93.47,111.82c2.18-.7-1.74-.81-2.78-3.86-.56-1.62,2.3-1,8.64-1,7.27,0,9.21-1.47,8.17.58s-7.93,4.68-1.38,4.26c5.84-.38,6.29-6.62,3.06-8.89a21.59,21.59,0,0,0-5.78-.65,24.47,24.47,0,0,1-8,.19c-3.25-.61-6.39.58-8.54.08-1.74.28-3.41,4.85-.78,7.72C87.74,112.13,91.28,112.53,93.47,111.82Z"/><path class="cls-2" d="M88.33,63.21c-4.21-.83-6.87-1.1-10.92-.22a17.77,17.77,0,0,0-6.6,2.89s3.18.22,7.54.55c5.16.39,14.69,2.8,15.08,1C94.15,64.1,92.54,64.05,88.33,63.21Z"/><path class="cls-4" d="M102.12,92.21c3.33-.16,7.32-1.11,8.1-2.6-3.44-.59-11.82-.37-18.86,0C92.48,91,95.9,91.84,99,92.12h.29a10.06,10.06,0,0,1,1.57.11C101.29,92.24,101.72,92.23,102.12,92.21Z"/><path class="cls-2" d="M89.5,73.19a6.51,6.51,0,0,0-2.45-2.79,7.06,7.06,0,0,0-3.71-1.07,8.23,8.23,0,0,0-3.69.89,8.55,8.55,0,0,0-2.85,2.31c1.22-.25,2.29-.62,3.38-.83l.45-.08a2.25,2.25,0,0,0-.08.58,2.4,2.4,0,1,0,4.69-.67,8.88,8.88,0,0,1,1.13.28A21.9,21.9,0,0,1,89.5,73.19Z"/><path class="cls-2" d="M112.52,68.81a6.43,6.43,0,0,0-5.74,3.33c.9-.34,1.71-.63,2.51-.85a2.39,2.39,0,1,0,4.63.85,2.35,2.35,0,0,0-.38-1.28,17.24,17.24,0,0,1,1.85.22c1,.18,2,.47,3.09.68A7.38,7.38,0,0,0,112.52,68.81Z"/><path class="cls-4" d="M88,136a22.74,22.74,0,0,0,13.27-.69h0l0-.06c0-.09.1-.26.18-.49.26-.69.72-1.93,1.25-3.39a15.78,15.78,0,0,1-2.28.35c-8.17.64-14.44.57-22.11-6a91.07,91.07,0,0,1-11-10.58h0C74.88,128.49,80.24,134.22,88,136Z"/><path class="cls-4" d="M95.36,102.48a24.47,24.47,0,0,0,8-.19,21.59,21.59,0,0,1,5.78.65h0a7.47,7.47,0,0,0-4.58-2.77c-2.92-.44-3.49.6-5.25.55s-2.42-.55-5-.28a44.82,44.82,0,0,0-7.55,2.12C89,103.06,92.11,101.87,95.36,102.48Z"/></svg>