<svg xmlns="http://www.w3.org/2000/svg" viewBox="0 0 180 180"><defs><style>.cls-1{fill:#6ed3f3;}.cls-2{fill:#091440;}.cls-3{fill:#fff;}.cls-4{fill:#848aa0;}</style></defs><title>mario</title><g id="illustrations_c"><circle id="_Path_" data-name="&lt;Path&gt;" class="cls-1" cx="90" cy="90" r="90"/><path class="cls-2" d="M158.77,148.05,111.26,128c-.3,1.22-.64,2.45-1,3.68v0c-.17.54-.33,1.08-.51,1.62h0c-2,6.22-4.87,11.88-8.75,13.06-20.12,6.14-39.84-5.83-45-23.79L15.62,140.67a90,90,0,0,0,143.15,7.38Z"/><path class="cls-2" d="M55.79,70.57a20.88,20.88,0,0,1,3.31,5.59h0l3.45-1.28c.48-9.3-.69-20.78,1.74-27.28a44,44,0,0,1,7.44-12.16,12.32,12.32,0,0,1,13.89-3.65c4.84,1.88,9.93,5.21,15.46,6,9.59,1.45,14.53-4.87,14.53-4.87s8.79,4,11.49,16.25c2.13,9.66,1.33,17.78,1.1,23.41,1.9-8,3.13-27.51-1.93-39.31-5.55-13-11.93-18.29-21.15-21.62C95.43,8.19,83,8,72.83,10.8S62.55,21.89,62.55,21.89,54.17,29,50.93,39.24c-2.8,8.86-1.71,18.8.65,27.82A16.12,16.12,0,0,1,55.79,70.57Z"/><path class="cls-3" d="M110.25,131.72c-.17.54-.33,1.08-.51,1.62C109.92,132.8,110.08,132.26,110.25,131.72Z"/><path class="cls-3" d="M101,146.4c3.88-1.18,6.73-6.84,8.75-13.06a25.93,25.93,0,0,1-15.87,1.85C78.7,132.51,73,123.31,67.74,111.94h0c7.83,7.42,17.75,16,32.16,14.92A23,23,0,0,0,112.59,122c-.55,2.88-1.32,6.32-2.33,9.71.36-1.23.7-2.46,1-3.68.54-2.13,1-4.19,1.33-6,6.4-5,10.36-12.84,13-19.75,4.07-10.66,3-20.26,2.61-25.59a35.58,35.58,0,0,1,0-4c.23-5.63,1-13.75-1.1-23.41C124.4,36.93,115.61,33,115.61,33s-4.94,6.32-14.53,4.87c-5.53-.83-10.62-4.16-15.46-6a12.32,12.32,0,0,0-13.89,3.65A44,44,0,0,0,64.29,47.6c-2.43,6.5-1.26,18-1.74,27.28L59.1,76.16h0a20.88,20.88,0,0,0-3.31-5.59,16.12,16.12,0,0,0-4.21-3.51c-2.19-1.14-4.14-.88-5.74,1.07-2.56,3.13-1.28,6.59,0,10.83s2.42,11.35,7,15c3,2.45,5.69,2.27,7.5.9.23,8.34-.94,23-4.31,27.71C61.15,140.57,80.87,152.54,101,146.4ZM87.06,73.25a2.23,2.23,0,0,1-4.46-.19,3,3,0,0,1,.06-.42c-.87.2-1.75.48-2.74.67a7.94,7.94,0,0,1,2.75-2.26,7.58,7.58,0,0,1,3.6-.84,6.61,6.61,0,0,1,3.57,1.17,6.86,6.86,0,0,1,2.31,2.74c-1.1-.5-2.06-1-3-1.35a9.64,9.64,0,0,0-2.25-.52A2.11,2.11,0,0,1,87.06,73.25Zm1.58-4.06a8.89,8.89,0,0,0-3.63.07,15.19,15.19,0,0,0-3.52,1.18,33.64,33.64,0,0,0-3.32,1.9,12.14,12.14,0,0,1,2.94-2.59,10.38,10.38,0,0,1,1.79-.91,13.52,13.52,0,0,1,1.91-.55,7.88,7.88,0,0,1,4,.15,8.59,8.59,0,0,1,3.31,2.13A13.48,13.48,0,0,0,88.64,69.19Zm24.19,4.38c-1,.28-1.94.76-3.07,1.12a7.38,7.38,0,0,1,2.38-2.53,6.48,6.48,0,0,1,3.49-1.08,6,6,0,0,1,3.53,1.11,6.53,6.53,0,0,1,2.21,2.69c-1.07-.48-2-1-3-1.31a8.93,8.93,0,0,0-1.2-.33,2,2,0,0,1,.11.77,2.23,2.23,0,1,1-4.46-.19,1.26,1.26,0,0,1,0-.27Zm-7,39.84a4.71,4.71,0,0,1-3.17,2.16c-3.42.13-4.44-3.13-3.62-3a35.68,35.68,0,0,0,6.32,0C106.27,112.5,106.3,112.65,105.88,113.41Zm2.44-6.31c-2.17,0-3.89.72-5.15.72s-3.35-.82-7.24-.82-4.43-.27-7.69-1.62a33.11,33.11,0,0,0,6.42.36c2.17-.27,3.89-1.09,5.88-.46a12.21,12.21,0,0,0,6,.1c1.9-.37,3.25.36,7.24,1.22C112.39,107.19,110.49,107.1,108.32,107.1ZM112.92,65c2.15-1.08,4.48-1.57,9-1.18s5.14,6.52,5.14,6.52a24,24,0,0,0-6.32-2c-2.94-.34-6.71.25-10-.69C109.28,67.27,110.76,66.07,112.92,65Zm-.69,5a8,8,0,0,1,3.29-.86,6.56,6.56,0,0,1,3.32.81,7.54,7.54,0,0,1,2.53,2.15,16.58,16.58,0,0,0-2.85-1.44,7.5,7.5,0,0,0-3-.52,10.22,10.22,0,0,0-3,.58c-1,.32-2,.77-3,1.17A11.17,11.17,0,0,1,112.23,70Zm.69,23.3a13,13,0,0,1-7.1,3.72c-4.42.68-8.93-.88-11.16-3.72C100.14,93.93,106.09,95.12,112.92,93.26ZM81.81,62.6c4.84-1.48,9.92.35,13.87,3C99.19,68,87,67.11,83.29,67S72,67.36,72,67.36A43.86,43.86,0,0,1,81.81,62.6Z"/><path class="cls-4" d="M112.59,122a23,23,0,0,1-12.69,4.89c-14.41,1-24.33-7.5-32.16-14.92h0c5.21,11.37,11,20.57,26.13,23.25a25.93,25.93,0,0,0,15.87-1.85h0c.18-.54.34-1.08.51-1.62v0C111.27,128.29,112,124.85,112.59,122Z"/><path class="cls-2" d="M115,76.15A2.23,2.23,0,0,0,117.33,74a2,2,0,0,0-.11-.77,8.93,8.93,0,0,1,1.2.33c1,.32,1.88.83,3,1.31a6.53,6.53,0,0,0-2.21-2.69,6,6,0,0,0-3.53-1.11,6.48,6.48,0,0,0-3.49,1.08,7.38,7.38,0,0,0-2.38,2.53c1.13-.36,2.08-.84,3.07-1.12l.08,0a1.26,1.26,0,0,0,0,.27A2.24,2.24,0,0,0,115,76.15Z"/><path class="cls-2" d="M83.29,67c3.69.16,15.9,1.07,12.39-1.31-4-2.69-9-4.52-13.87-3A43.86,43.86,0,0,0,72,67.36S79.59,66.79,83.29,67Z"/><path class="cls-2" d="M92.15,74.12a6.86,6.86,0,0,0-2.31-2.74,6.61,6.61,0,0,0-3.57-1.17,7.58,7.58,0,0,0-3.6.84,7.94,7.94,0,0,0-2.75,2.26c1-.19,1.87-.47,2.74-.67a3,3,0,0,0-.06.42,2.23,2.23,0,0,0,4.46.19,2.11,2.11,0,0,0-.2-1,9.64,9.64,0,0,1,2.25.52C90.09,73.1,91.05,73.62,92.15,74.12Z"/><path class="cls-4" d="M105.82,97a13,13,0,0,0,7.1-3.72c-6.83,1.86-12.78.67-18.26,0C96.89,96.1,101.4,97.66,105.82,97Z"/><path class="cls-2" d="M110.74,67.68c3.33.94,7.1.35,10,.69a24,24,0,0,1,6.32,2s-.59-6.12-5.14-6.52-6.89.1-9,1.18S109.28,67.27,110.74,67.68Z"/><path class="cls-2" d="M88.84,68.44a7.88,7.88,0,0,0-4-.15,13.52,13.52,0,0,0-1.91.55,10.38,10.38,0,0,0-1.79.91,12.14,12.14,0,0,0-2.94,2.59,33.64,33.64,0,0,1,3.32-1.9A15.19,15.19,0,0,1,85,69.26a8.89,8.89,0,0,1,3.63-.07,13.48,13.48,0,0,1,3.51,1.38A8.59,8.59,0,0,0,88.84,68.44Z"/><path class="cls-2" d="M115.54,70.1a7.5,7.5,0,0,1,3,.52,16.58,16.58,0,0,1,2.85,1.44,7.54,7.54,0,0,0-2.53-2.15,6.56,6.56,0,0,0-3.32-.81,8,8,0,0,0-3.29.86,11.17,11.17,0,0,0-2.71,1.89c1-.4,2-.85,3-1.17A10.22,10.22,0,0,1,115.54,70.1Z"/><path class="cls-4" d="M106.51,105.38a12.21,12.21,0,0,1-6-.1c-2-.63-3.71.19-5.88.46a33.11,33.11,0,0,1-6.42-.36C91.5,106.73,92,107,95.93,107s6,.82,7.24.82,3-.72,5.15-.72,4.07.09,5.43-.5C109.76,105.74,108.41,105,106.51,105.38Z"/><path class="cls-4" d="M105.41,112.56a35.68,35.68,0,0,1-6.32,0c-.82-.11.2,3.15,3.62,3a4.71,4.71,0,0,0,3.17-2.16C106.3,112.65,106.27,112.5,105.41,112.56Z"/></g></svg>