<svg xmlns="http://www.w3.org/2000/svg" xmlns:xlink="http://www.w3.org/1999/xlink" viewBox="4616 1642 180 180"><defs><style>.a{clip-path:url(#a);}.b{fill:#2f74fb;}.c,.f{fill:#091440;}.d{fill:#e7e8ec;}.e{clip-path:url(#c);}.f{opacity:0.5;}.g{fill:#fff;}</style><clipPath id="a"><circle cx="90" cy="90" r="90"/></clipPath><clipPath id="c"><path d="M61.7,88.2s-3,6.8-.7,12.6c2.3,5.9.7,32.8.7,32.8s20.7,27.9,40.9,23.9c9.5-1.9,10.4-51.5,10.3-50.7Z"/></clipPath></defs><g transform="translate(4616 1642)"><g class="a"><circle class="b" cx="90" cy="90" r="90"/></g><g class="a"><path class="c" d="M158.8,202.9H16.2V155.2l46.7-22.8h45.2l50.7,22.8Z"/><path class="d" d="M55.9,79.3S58.7,95,61,100.8c2.3,5.9.7,32.8.7,32.8s20.7,27.9,40.9,23.9c9.5-1.9,10.4-51.5,10.3-50.7Z"/><g class="e"><path class="f" d="M70.2,108.3s6.9,16.3,19.8,22,24,5,28.7.9-2.5-17.8-2.5-17.8Z"/></g><path class="c" d="M139.4,48l-1.3-2a2.861,2.861,0,0,1-.9,3.8c-2.2,1.5-2-.9-2-.9h0s2.3-.7,3.2-5.3c.8-3.7-2.9-9-2.9-9a4.792,4.792,0,0,1,.2,4.3c-.9,1.7-1.5,1.6-1.5,1.6s3.5-7.8-4.4-9.9L118,42.4c1.6,1.9,3.5,5.4,2.9,11.7-.8,7.4,1.8,9,1.8,9V69a26.625,26.625,0,0,1,0,15c7.1-3.9,6.3-8.3,6.8-11.1l.5-2.8s4.3,2.8,6.4-.5c0,0-4.3.4-4.2-3.1s2.4-3,2.5-9.9C140.6,55.1,140.7,50,139.4,48Z"/><path class="d" d="M58,52.4c-1.4,16.3,4.5,43.3,8.7,52.1s6.5,20.1,30.7,21.1,24.8-23,26.5-32.2.6-18,.2-30.2S121.4,26,107,24,60.4,23.3,58,52.4Z"/><path class="c" d="M80.4,69.7a11.776,11.776,0,0,1,2-1.7c.3-.2.7-.4,1.1-.7.4-.2.8-.4,1.3-.6a6.606,6.606,0,0,1,1.5-.5c.5-.1,1.1-.2,1.6-.3h1.7a6.641,6.641,0,0,1,1.5.3,3.506,3.506,0,0,1,1.4.6,10.539,10.539,0,0,1,1.1.7,5.35,5.35,0,0,1,1.3,1.4,1.2,1.2,0,0,1,.3.6A12.382,12.382,0,0,0,93,68.4c-.3-.1-.7-.2-1.1-.3a5.019,5.019,0,0,0-1.2-.2,6.6,6.6,0,0,1-1.4.1H88a24.047,24.047,0,0,0-5.1,1.1C81.4,69.5,80.4,69.7,80.4,69.7Z"/><path class="c" d="M90.3,68.6c0-1.5-1.2-1.6-2.6-1.6-1.5,0-2.6.1-2.6,1.6a2.582,2.582,0,0,0,2.6,2.6A2.647,2.647,0,0,0,90.3,68.6Z"/><path class="c" d="M98.3,61.3A77.2,77.2,0,0,0,90,59.2a22.147,22.147,0,0,0-9.6-.6c-4.2.6-5.5,3.1-5,7.4h0a14.073,14.073,0,0,1,8.5-3.4c3.8,0,11.2,2.4,12.9,2C98.4,64.3,98.3,61.3,98.3,61.3Z"/><path class="c" d="M109.4,69.7v-.5a3.567,3.567,0,0,1,.6-1.3,2.7,2.7,0,0,1,.8-.7,3.7,3.7,0,0,1,1.1-.5,5.019,5.019,0,0,1,1.2-.2h.6a.9.9,0,0,1,.5.1l1.2.3a10.375,10.375,0,0,1,1,.4,6.447,6.447,0,0,1,1.6,1.1,4.013,4.013,0,0,1,1.2,1.4s-.7-.2-1.8-.5c-.5-.1-1.1-.3-1.7-.4-.3-.1-.6-.1-.9-.2s-.6-.1-.9-.2l-.5-.1h-1.2a5.768,5.768,0,0,0-1.4.3A4.162,4.162,0,0,0,109.4,69.7Z"/><path class="c" d="M108.4,63.9s1.8-3.8,3.2-4.1,2.2,0,4.8,0,3.4-.7,4.7-.1,3.8,1.7,3.2,7.3c0,0-1.7-3.9-5.3-3.8C115.3,63.4,108.4,63.9,108.4,63.9Z"/><path class="c" d="M115.6,68.6c0-1.5-1.2-1.6-2.6-1.6a3.741,3.741,0,0,0-2.6,1.6,2.582,2.582,0,0,0,2.6,2.6A2.647,2.647,0,0,0,115.6,68.6Z"/><path class="f" d="M94,88.3s.3.5,6.3,1a35.607,35.607,0,0,0,11.3-1,11.115,11.115,0,0,1-7.1,3.2A14.552,14.552,0,0,1,94,88.3Z"/><path class="f" d="M87.8,98.3a4.173,4.173,0,0,0,2.8,1.9c2,.3,4.4-.6,6.3-.5s2.7,1.1,5.9,1,4.2-.8,6.6-.3,4.6.6,5.6,0,.5-1.3,0-1-.5.8-1.1.2a9.442,9.442,0,0,0-5.4-2.9c-3.1-.5-3.3.6-4.9.4-1.7-.1-2.4-1.4-6.3-1s-5.1,2.1-6.3,2.3a4.166,4.166,0,0,1-2.6-.6C87.8,97.8,87.6,98.1,87.8,98.3Z"/><path class="f" d="M98.3,106.7c-.1-.1,6.1.2,8,0C102.8,109.5,101.5,108.1,98.3,106.7Z"/><path class="c" d="M127.9,30.3s1.7-6.5-3-10.5c-4.7-3.9-9-3.9-9-3.9s0-9.9-9.4-9a9.4,9.4,0,0,0-7.6-5.6c-7.5-.9-9,3.6-9,3.6A9,9,0,0,0,81,1.2c-6.9,1.2-6.8,6.3-6.8,6.3s-7-2.6-11.7,2A10.476,10.476,0,0,0,59,19.7s-6-.4-7.4,5.6a10.449,10.449,0,0,0-7.5,4.6,14.337,14.337,0,0,0-1.5,11.8l-2.7-2.4s.9,5.8,3.4,7.9c0,0-2.3,1.5-3.2,5.9-1.1,5.5,3.3,9.5,3.3,9.5s-4.3,2.2-3.4,6.5,4.5,4.1,4.5,4.1-2.5,3.3,0,8.3A6.439,6.439,0,0,0,50,85s-3,1.3-2.1,4a4.071,4.071,0,0,0,3.3,2.9s-1.9,4.6.5,6.5c2.4,2,4.2,1.6,4.2,1.6s-.8,8,6.1,6.7c0,0-.1-17.3-.2-27,0,0,3.4,1.9,2.6-.6-1.9-6.5.7-12.4,1.8-13.7L68,66.7a37.129,37.129,0,0,1-.4-8.1c.4-3,2.8-9.1,2.8-9.1a2.724,2.724,0,0,0,4.3-.9c1.8-3.1.7-4,.7-4s11.3,6.1,13.2-5.3C94,43,98,36.5,98,36.5s8,6.7,11.9-1.7c2.6,9,10.4,6.1,10.4,6.1a7.527,7.527,0,0,1,2.1,1.8l7.5-11.8A4.657,4.657,0,0,0,127.9,30.3Z"/><path class="g" d="M69.2,86.9s.5-6.9-3.8-7.2a5.615,5.615,0,0,1-5.6-5.9s-3.2-2.3-3.6-4.7l-.4-2.4a13.257,13.257,0,0,0-.9,12.8c1.4,3.2,6.7,11.9,8.8,11.9C67.1,91.4,69.2,86.9,69.2,86.9Z"/><path class="d" d="M69.2,86.9s.5-6.9-3.8-7.2a5.615,5.615,0,0,1-5.6-5.9s-3.2-2.3-3.6-4.7l-.4-2.4a13.257,13.257,0,0,0-.9,12.8c1.4,3.2,6.7,11.9,8.8,11.9C67.1,91.4,69.2,86.9,69.2,86.9Z"/></g></g></svg>