<svg id="illustrations" xmlns="http://www.w3.org/2000/svg" xmlns:xlink="http://www.w3.org/1999/xlink" viewBox="0 0 180 180"><defs><style>.cls-1{fill:none;}.cls-2{clip-path:url(#clip-path);}.cls-3{fill:#2f74fb;}.cls-4{fill:#091440;}.cls-5{fill:#cbcdd7;}.cls-6{fill:#6b718d;}</style><clipPath id="clip-path"><circle id="_Clipping_Path_" data-name="&lt;Clipping Path&gt;" class="cls-1" cx="90" cy="90" r="90"/></clipPath></defs><title>macaulay-davies</title><g id="_Clip_Group_" data-name="&lt;Clip Group&gt;"><g class="cls-2"><circle id="_Path_" data-name="&lt;Path&gt;" class="cls-3" cx="90" cy="90" r="90"/><polygon id="_Path_2" data-name="&lt;Path&gt;" class="cls-4" points="63.02 122.36 10.1 145.49 6.33 181.81 170.04 181.81 158.59 148.27 100.45 123.17 63.02 122.36"/><g id="_Group_" data-name="&lt;Group&gt;"><path id="_Path_3" data-name="&lt;Path&gt;" class="cls-5" d="M66.76,86.16S66,108.26,62,123.37l-.05.22c-1.41,6.61,4.46,14.75,9.48,19.27,4.5,4.06,11.37,8.6,21.07,8,13-.86,19.27-8.91,20.07-15.93,1.16-10.27,5.48-38.45,5.48-38.45Z"/><path id="_Path_4" data-name="&lt;Path&gt;" class="cls-6" d="M73.67,95.67C80.92,109.73,83,125.54,90,131.4c7.3,6.09,16.86,4.31,20.09,1.1S116,118,116,118l-13.7-28Z"/><path id="_Path_5" data-name="&lt;Path&gt;" class="cls-5" d="M105.78,128.43c8.58-.3,12.14-4.61,15.2-12.2,5.29-13.12,9-21.53,9.62-31.7s-.47-11.51-1-21.49,6.2-14.66,2-28.53-13.44-24.19-32.49-25S66.37,17.72,63.14,31s1.13,29.69,1.62,36.14-.81,11.3,1,19.69,7.13,16.86,15.71,27.76C88.32,123.28,91.63,128.92,105.78,128.43Z"/><path id="_Path_6" data-name="&lt;Path&gt;" class="cls-5" d="M67.66,70.26s-1.23-7-5.7-6.87-6.24,7.43-4.63,14.37,4.68,9,7.43,12.91,4.52.64,5-6.62A35.73,35.73,0,0,0,67.66,70.26Z"/><path id="_Path_7" data-name="&lt;Path&gt;" class="cls-4" d="M123.37,61.62c-2.56.83-4.38,1.68-7,2.57s-2.5,4-1,3.89c5.5-.22,10.1-3.88,12-4.1s2.45.87,2.45.87S129.73,59.58,123.37,61.62Z"/><g id="_Group_2" data-name="&lt;Group&gt;"><path id="_Path_8" data-name="&lt;Path&gt;" class="cls-4" d="M96.22,64.33c-4.47-.47-9.48-3.08-14.33-2.27S77,66.17,77,66.17a7.15,7.15,0,0,1,5.51-1c3,.81,7,4,11.83,3.77s5.21-2.71,4.41-3.53A3.54,3.54,0,0,0,96.22,64.33Z"/><g id="_Group_3" data-name="&lt;Group&gt;"><path id="_Path_9" data-name="&lt;Path&gt;" class="cls-4" d="M82.18,72.65a5.06,5.06,0,0,1,.57-.6,9.52,9.52,0,0,1,1.81-1.25,9.66,9.66,0,0,1,1.33-.61,11.7,11.7,0,0,1,1.58-.5c.55-.13,1.13-.24,1.73-.32A15.73,15.73,0,0,1,91,69.28c.17,0,.27,0,.49,0l.43,0a7.35,7.35,0,0,1,.89.1,10.65,10.65,0,0,1,1.79.44c.28.11.55.2.81.32s.51.25.74.39a7.52,7.52,0,0,1,1.23.9,5.87,5.87,0,0,1,1.36,1.78A3.4,3.4,0,0,1,99,74a8.46,8.46,0,0,0-2.3-1.61,11.29,11.29,0,0,0-1.21-.49c-.44-.14-.9-.26-1.39-.37s-1-.16-1.5-.21-1.18-.08-1.64-.08-1.1,0-1.64,0-1.07.06-1.59.12-1,.11-1.48.2-.92.15-1.34.25A21.64,21.64,0,0,0,82.18,72.65Z"/></g><path id="_Path_10" data-name="&lt;Path&gt;" class="cls-4" d="M93,71.75c0-1.33-1.09-1.49-2.43-1.49s-2.42.16-2.42,1.49a2.43,2.43,0,1,0,4.85,0Z"/><g id="_Group_4" data-name="&lt;Group&gt;"><path id="_Path_11" data-name="&lt;Path&gt;" class="cls-4" d="M96.07,75.5a5.36,5.36,0,0,1-1.2.85,8.26,8.26,0,0,1-1.39.61,9.71,9.71,0,0,1-1.69.41,8.62,8.62,0,0,1-1.75.06,5.15,5.15,0,0,1-.8-.09,4.79,4.79,0,0,1-.7-.16,5.21,5.21,0,0,1-1-.39c-.23-.11-.36-.19-.36-.19h.41c.25,0,.61,0,1,0s.91,0,1.42-.06a15.18,15.18,0,0,0,1.61-.17c.55-.06,1.09-.18,1.6-.26l1.41-.3Z"/></g></g><g id="_Group_5" data-name="&lt;Group&gt;"><path id="_Path_12" data-name="&lt;Path&gt;" class="cls-4" d="M123.49,71.41c0-1.34-1.09-1.49-2.43-1.49s-2.42.15-2.42,1.49a2.43,2.43,0,1,0,4.85,0Z"/><g id="_Group_6" data-name="&lt;Group&gt;"><path id="_Path_13" data-name="&lt;Path&gt;" class="cls-4" d="M127.44,71.88a5.18,5.18,0,0,0-.52-.25,8.12,8.12,0,0,0-1.35-.39A12.32,12.32,0,0,0,123.7,71c-.34,0-.7,0-1.06,0h-.79l-.3,0-.3,0-.23,0a3.85,3.85,0,0,0-.47.08,7,7,0,0,0-1,.29,6.7,6.7,0,0,0-1.6.92,9.51,9.51,0,0,0-1.46,1.38,4.28,4.28,0,0,1,.06-.6,5.17,5.17,0,0,1,.58-1.49,5.29,5.29,0,0,1,1.6-1.7,6,6,0,0,1,1.22-.61,4.44,4.44,0,0,1,.7-.2l.36-.08.31,0,.3,0,.21,0h.82a8.83,8.83,0,0,1,1.27.19,5.81,5.81,0,0,1,2.12.93,3.87,3.87,0,0,1,1.12,1.18A1.78,1.78,0,0,1,127.44,71.88Z"/></g><g id="_Group_7" data-name="&lt;Group&gt;"><path id="_Path_14" data-name="&lt;Path&gt;" class="cls-4" d="M118.07,75.75l1.27.32,1.26.29c.46.09.94.21,1.43.27.24,0,.49.08.73.1a5.72,5.72,0,0,0,.7.07c.47,0,.9.06,1.28.06s.7,0,.93,0H126l-.31.19a5.3,5.3,0,0,1-1.54.54,3.39,3.39,0,0,1-.73.09,7.12,7.12,0,0,1-1.59-.06,7.4,7.4,0,0,1-1.52-.42,6.41,6.41,0,0,1-1.23-.61A4.4,4.4,0,0,1,118.07,75.75Z"/></g></g><path id="_Path_15" data-name="&lt;Path&gt;" class="cls-6" d="M90.64,105.74c-.33,3.26,2.15-.17,9.57,2.68a20,20,0,0,0,7.75,1.29c6.65-.38,8.15-3.87,10.18-4,2.63-.12,3-.79,2.85-1.29-.43-1.41-1.46,1.15-3.25.61-2-.62-2.56-1.13-4.56-1.35a3.56,3.56,0,0,0-2.9.69c-1.89,1-3.53,0-4.65-.38s-9.38,2.07-11.42,2.33S90.73,104.88,90.64,105.74Z"/><path id="_Path_16" data-name="&lt;Path&gt;" class="cls-6" d="M113.83,116.23c-4.15,2.3-10.29,2.31-13.75.47a8.65,8.65,0,0,0,6.42,3.65C110.88,120.69,113.83,116.23,113.83,116.23Z"/><path id="_Path_17" data-name="&lt;Path&gt;" class="cls-6" d="M96.58,93.93c2.57,2.11,5.86,2.11,9,3.2s5.66.92,10.32-1c2.28-1,3.65-1.5,3.65-1.5-.53,2.49-5.71,5.2-9.24,5.62S98.9,98,96.58,93.93Z"/><path id="_Path_18" data-name="&lt;Path&gt;" class="cls-4" d="M69.82,80.75c4.6-9.65-1.31-24.66,3.85-33.53S86.5,34.27,93.9,36.69s7.72,6.13,11.27,5,8.07-5.33,13.55-4.36,8.67,3.59,9.46,13.15c.5,6.12.3,10.29,1.59,15.62,3.39-8.87,5.82-18.31,4.19-30.29C131.77,19.69,113.33,5.53,96.55,5.69s-36.62,15-37.8,34.89C57.62,59.41,69.82,80.75,69.82,80.75Z"/></g></g></g></svg>