<svg xmlns="http://www.w3.org/2000/svg" viewBox="0 0 57.422 57.422"><defs><style>.a{fill:#e7eaed;}</style></defs><g transform="translate(-343 -958)"><g transform="translate(0.003 173.422)"><g transform="translate(342.997 784.578)"><g transform="translate(0)"><circle class="a" cx="28.711" cy="28.711" r="28.711"/></g></g></g><g transform="translate(363 975)"><path d="M0,0H8.1c4.9,0,8.7,1.4,8.7,6,0,2.1-1.2,4.5-3.1,5.2v.1A5.4,5.4,0,0,1,18,16.9c0,4.9-4.1,7.1-9.2,7.1H0ZM7.9,9.6c2.6,0,3.8-1.1,3.8-2.8,0-1.9-1.2-2.6-3.7-2.6H5.4V9.6Zm.5,10.2c2.9,0,4.4-1,4.4-3.2,0-2.1-1.5-2.9-4.4-2.9h-3v6.2h3Z" transform="translate(1)"/></g></g></svg>