<svg xmlns="http://www.w3.org/2000/svg" xmlns:xlink="http://www.w3.org/1999/xlink" viewBox="0 0 180 188.01"><defs><style>.cls-1{fill:none;}.cls-2{clip-path:url(#clip-path);}.cls-3{fill:#2f74fb;}.cls-4{fill:#091440;}.cls-5{fill:#cbcdd7;}.cls-6{fill:#848aa0;}.cls-7{fill:#fff;}</style><clipPath id="clip-path"><circle id="_Clipping_Path_" data-name="&lt;Clipping Path&gt;" class="cls-1" cx="90" cy="90" r="90"/></clipPath></defs><title>Asset 1</title><g id="Layer_2" data-name="Layer 2"><g id="Grid"><g id="_Clip_Group_" data-name="&lt;Clip Group&gt;"><g class="cls-2"><circle id="_Path_" data-name="&lt;Path&gt;" class="cls-3" cx="90" cy="90" r="90"/><polygon id="_Path_2" data-name="&lt;Path&gt;" class="cls-4" points="67.64 126.32 12.61 145.43 8.67 188.01 179.81 188.01 166.02 148.08 106.63 128.49 67.64 126.32"/><path id="_Path_3" data-name="&lt;Path&gt;" class="cls-5" d="M59.33,91.19c1.55,14.74-1.13,35.81-2.81,39.91C62,139.55,75.9,151,93,146.47a33.27,33.27,0,0,0,12.2-6.34l3.35-2.68,3.69-40.23Z"/><path id="_Path_4" data-name="&lt;Path&gt;" class="cls-6" d="M65.84,104c2.8,8,9.42,21.81,18.55,27,14.52,8.3,24.74.31,24.74.31l2-15.36Z"/><g id="_Group_" data-name="&lt;Group&gt;"><path id="_Path_5" data-name="&lt;Path&gt;" class="cls-5" d="M99.21,128c-8.18.38-17.22-2.81-25.16-11.6S61,101.73,58.79,90s-1.47-27.62,0-37.88A26.65,26.65,0,0,1,85.66,29.77c16.12,0,34.33,3.42,35.79,21.87s3.18,26.14,2.93,31.39-4.45,26.87-9.83,34.69S107.15,127.62,99.21,128Z"/><path id="_Path_6" data-name="&lt;Path&gt;" class="cls-4" d="M119.61,105.86c-5.3,9.17-8.26,13.93-11.79,14.05s-6.79-1.34-12.53,0-7.61,1.37-12.1-1c-9.32-4.85-18.39-14.6-20.18-16.77,1.39,3.08,10.88,17.3,21.47,24.15,5.36,3.46,15.88,2.87,20.57,1.13S116,118.67,119.61,105.86Z"/></g><g id="_Group_2" data-name="&lt;Group&gt;"><path id="_Path_7" data-name="&lt;Path&gt;" class="cls-4" d="M85.06,101.16s2.67,4.84,13.64,4.95,14.38-5.81,14.38-5.81Z"/><path id="_Path_8" data-name="&lt;Path&gt;" class="cls-7" d="M87.5,100.83s3.5,3.68,12.05,3.76,11.27-4.84,11.27-4.84Z"/><path id="_Path_9" data-name="&lt;Path&gt;" class="cls-6" d="M85.06,101.22s22,2,28-.87c-2.37-3.79-7.27-4.57-8.94-4.69s-3.35,1-4.61,1-3.11-1-4.63-.78S86.35,98.3,85.06,101.22Z"/></g><path id="_Path_10" data-name="&lt;Path&gt;" class="cls-6" d="M92.47,112.48a7.9,7.9,0,0,0,6,3.22c4.28.36,7.14-3.08,7.14-3.08S98.11,113.68,92.47,112.48Z"/><path id="_Path_11" data-name="&lt;Path&gt;" class="cls-6" d="M90.29,89.41c-2.28-.67,2.33,4.24,10.86,4.33A12.72,12.72,0,0,0,110,90a.45.45,0,0,0-.44-.75C104.61,90.75,101.15,92.61,90.29,89.41Z"/><g id="_Group_3" data-name="&lt;Group&gt;"><g id="_Group_4" data-name="&lt;Group&gt;"><path id="_Path_12" data-name="&lt;Path&gt;" class="cls-4" d="M74,73a3.2,3.2,0,0,1,.35-.63A5.77,5.77,0,0,1,75.68,71a6.78,6.78,0,0,1,1.11-.68,7.93,7.93,0,0,1,1.36-.52,10,10,0,0,1,1.53-.29c.26,0,.53,0,.8,0h.79a10.86,10.86,0,0,1,1.57.19A11.05,11.05,0,0,1,84.3,70a10.64,10.64,0,0,1,2.41,1.14,7.49,7.49,0,0,1,1.95,1.69h0s-1-.3-2.39-.65c-.71-.17-1.52-.35-2.38-.49-.43-.08-.88-.12-1.33-.18s-.85-.09-1.36-.1l-.37,0h-1c-.44,0-.88,0-1.3.09s-.82.12-1.21.21-.74.19-1.07.3A10.41,10.41,0,0,0,74,73Z"/></g><path id="_Path_13" data-name="&lt;Path&gt;" class="cls-4" d="M78.76,72.07c0-1.42,1.17-1.68,2.59-1.67s2.57.3,2.55,1.72a2.57,2.57,0,1,1-5.14-.05Z"/></g><g id="_Group_5" data-name="&lt;Group&gt;"><g id="_Group_6" data-name="&lt;Group&gt;"><path id="_Path_14" data-name="&lt;Path&gt;" class="cls-4" d="M107,72.46a3,3,0,0,1,.29-.61,5.25,5.25,0,0,1,1.19-1.35,6.58,6.58,0,0,1,2.28-1.23,8.06,8.06,0,0,1,1.44-.3c.25,0,.5,0,.75-.05h.74a9.41,9.41,0,0,1,1.48.19,9.1,9.1,0,0,1,1.37.39,9.28,9.28,0,0,1,2.22,1.15,6.66,6.66,0,0,1,1.74,1.67h0s-.93-.3-2.22-.65c-.65-.16-1.4-.34-2.2-.48-.4-.07-.81-.13-1.22-.18s-.76-.09-1.25-.1l-.34,0H113c-.21,0-.41,0-.61,0q-.61,0-1.19.1a11,11,0,0,0-2.08.51,10,10,0,0,0-2,1Z"/></g><path id="_Path_15" data-name="&lt;Path&gt;" class="cls-4" d="M109.8,71.58c0-1.42,1.17-1.68,2.59-1.67s2.57.3,2.55,1.72a2.57,2.57,0,0,1-5.14-.05Z"/></g><path id="_Path_16" data-name="&lt;Path&gt;" class="cls-4" d="M89.65,65.9c-.19-3.32-4.1-3.59-7.28-3.92-4.89-.51-8.21.4-9.76,1.26s-3,3.81-3,3.81,2.65-2.57,5.53-2.72,5.52-.69,9.25,1.34S89.72,67,89.65,65.9Z"/><path id="_Path_17" data-name="&lt;Path&gt;" class="cls-4" d="M108,65.58c-.33-2.57,1.06-4,4.49-4.2s6.8-1,8.59,1.28,1.39,2.66,1.39,2.66-2.11-2.26-4.09-2.3C111.27,62.85,108,65.58,108,65.58Z"/><path id="_Path_18" data-name="&lt;Path&gt;" class="cls-4" d="M58.11,80s-3.89-14.51-3.67-25.3S58,34.34,66.52,27.37c7.61-6.19,30.86-12,46.62,2.4C123.81,39.54,122,57.51,122,57.51s-1.46-14.88-5.86-18.4-22.21-5.86-34.76-3.66-16.12,8.47-15.5,15.72c.57,6.59.54,7.61.54,7.61s-3.31,7-2.65,18.79C60.21,81.29,58.11,80,58.11,80Z"/><path id="_Path_19" data-name="&lt;Path&gt;" class="cls-5" d="M61.7,78.59a11.65,11.65,0,0,0-7-7.92,18.09,18.09,0,0,0-2.47-.77c-3.54-.8-6.6,6-2.08,16.67S60.21,96.23,61.62,94C63.69,90.78,63.25,84.45,61.7,78.59Z"/></g></g></g></g></svg>