<svg xmlns="http://www.w3.org/2000/svg" viewBox="0 0 180 180"><defs><style>.cls-1{fill:#3ad7a4;}.cls-2{fill:#091440;}.cls-3{fill:#fff;}.cls-4{fill:#848aa0;}</style></defs><title>Asset 1</title><g id="Layer_2" data-name="Layer 2"><g id="illustrations"><g id="_Group_" data-name="&lt;Group&gt;"><circle id="_Path_" data-name="&lt;Path&gt;" class="cls-1" cx="90" cy="90" r="90"/><g id="_Group_2" data-name="&lt;Group&gt;"><path id="_Path_2" data-name="&lt;Path&gt;" class="cls-2" d="M-28.33-45.56-74.56-66.22a9.65,9.65,0,0,1-3.5,1.82c-.31,1.74-.84,4.14-1.72,7.49h0c-.09.37-.19.73-.29,1.12-3,11.23-8.53,23.06-25.61,18.73-9.67-2.45-19.87-12.46-21.89-21.54a16.49,16.49,0,0,1,.67-9.8,24.73,24.73,0,0,0,.87-2.78l-.83,0-51.82,14.92A90,90,0,0,0-100-10,89.85,89.85,0,0,0-28.33-45.56Z" transform="translate(190 190)"/><path id="_Compound_Path_" data-name="&lt;Compound Path&gt;" class="cls-3" d="M-127.58-58.6c2,9.08,12.22,19.09,21.89,21.54,17.08,4.33,22.57-7.5,25.61-18.73.1-.39.2-.75.29-1.12-2.14,3.54-7.7,4.16-14.55,1.9-15.16-5-21.17-17.05-24-28.24h0c6.73,11.37,18.1,15.82,22.68,17.43,4.37,1.54,12.15,3.11,17.64,1.42a9.65,9.65,0,0,0,3.5-1.82,7.31,7.31,0,0,0,1.7-2.07c3.15-5.73,2.45-4,7.29-12.19,4.12-7,5.34-10.6,6-16.41.5-4.34.32-9.75.42-14.4,0-1.57.1-3,.23-4.38.37-3.53,1.23-5.87,1.56-8.06-.35-2.1-2-5.67-9.28-3.44a13.58,13.58,0,0,1-3.82.54,5.62,5.62,0,0,1,4.86-4.65c3.53-.54,6.5-.29,7.65.77-.48-3.54-.68-6.64-.68-6.64-.4-3.79-3-12.84-8.29-14s-14.95,3-23.86,6.62-14.78,0-14.78,0A61.15,61.15,0,0,1-107-138.5c-2.53,9.37-8.37,8.52-11.5,14.78-2.06,4.11.43,13.38.43,13.38l-4,.3c-3-6.86-6.65-12.58-11.49-12.55-1.77,0-2.72,1.19-3.17,2.83-.87,3.11.07,7.9.6,9.49.81,2.43,4.86,9.23,6.82,12.79a4.69,4.69,0,0,0,4.59,2.62c.29,3.44.53,7.35.56,10.87A56.2,56.2,0,0,1-126-71.18a24.73,24.73,0,0,1-.87,2.78A16.49,16.49,0,0,0-127.58-58.6Zm37.25-61a3,3,0,0,1-2.57,3.4,3,3,0,0,1-3.41-2.56,2.37,2.37,0,0,1,.07-1c-.29.13-.59.26-.85.39A22.56,22.56,0,0,0-99.38-118a7.11,7.11,0,0,1,1.66-2.22,8.6,8.6,0,0,1,1.06-.86,7.86,7.86,0,0,1,1.34-.78,8.53,8.53,0,0,1,1.56-.59,5.83,5.83,0,0,1,.85-.19l.21,0,.14,0h.1l.39,0a7.34,7.34,0,0,1,.85,0,6.55,6.55,0,0,1,.89,0,6.7,6.7,0,0,1,1.71.37,4.79,4.79,0,0,1,1.44.86,6.19,6.19,0,0,1,1,1,2.71,2.71,0,0,0,.65.66l.74.39c.42.23.66.38.66.38l-.76,0a8.11,8.11,0,0,1-.87-.07,2.87,2.87,0,0,1-1.16-.54,10.38,10.38,0,0,0-1-.66,4.62,4.62,0,0,0-1.13-.42,6.16,6.16,0,0,0-1.32-.13,5.56,5.56,0,0,0-.58,0A2.19,2.19,0,0,1-90.33-119.61ZM-88.2-124l-.77,0c-.3,0-.63,0-1,0a9.81,9.81,0,0,0-1.16.09c-.41,0-.84.08-1.28.17s-.89.16-1.35.28a11.51,11.51,0,0,0-1.36.38,22.54,22.54,0,0,0-2.62,1c-.4.21-.81.37-1.17.57l-1,.55c-.63.36-1.15.67-1.51.91l-.56.37a6,6,0,0,1,.45-.51,12.23,12.23,0,0,1,1.32-1.22,15.42,15.42,0,0,1,2.13-1.41c.42-.2.84-.46,1.3-.63s.92-.37,1.41-.52a11.81,11.81,0,0,1,1.45-.36,9.14,9.14,0,0,1,1.43-.21,7.88,7.88,0,0,1,1.36,0,6.57,6.57,0,0,1,1.2.07c.38.05.72.08,1,.15l.76.19c.42.11.65.19.65.19Zm7.72,42.29,5.54,0S-78.11-78.7-80.48-81.73Zm8.27-4.74c-1.88-.17-2.86.37-5.7-.13s-6.71-.88-9.76-1.15a10.05,10.05,0,0,1-5.41-2.1s10.81-.38,14-.52,2.63,1.33,3.64,1.47,1-1,2.65-.93,3.17,1.57,4.79,2.33C-69.78-86.61-70.32-86.3-72.21-86.47Zm12.15-30.66-.39-.41c-.24-.25-.59-.61-1-1a6.61,6.61,0,0,0-1.44-1,2.34,2.34,0,0,0-.24-.09,1.05,1.05,0,0,1,.05.19,3,3,0,0,1-2.57,3.4,3,3,0,0,1-3.4-2.57,2.45,2.45,0,0,1,.06-1l-.15.06c-.21.11-.41.18-.57.27l-.52.23s.09-.19.27-.51a5.69,5.69,0,0,1,.94-1.2,5.13,5.13,0,0,1,.82-.66,4.27,4.27,0,0,1,1.12-.52,5.11,5.11,0,0,1,2.69,0,8.42,8.42,0,0,1,1.23.4c.2.08.33.14.55.25a3.18,3.18,0,0,1,.6.36,4.63,4.63,0,0,1,1.44,1.79A4.74,4.74,0,0,1-60.06-117.13Zm-10-4.82a4.16,4.16,0,0,1,1-.77,6.32,6.32,0,0,1,1.66-.63,7.86,7.86,0,0,1,1-.15,5.83,5.83,0,0,1,1,0,6.68,6.68,0,0,1,3.58,1.18,6.66,6.66,0,0,1,.94.8l.31.35-.42-.19c-.27-.12-.65-.29-1.1-.46a10.34,10.34,0,0,0-3.35-.75c-.32,0-.6,0-.94,0a6.73,6.73,0,0,0-.91.06,7.76,7.76,0,0,0-1.59.3,5.17,5.17,0,0,0-1.07.44,2.24,2.24,0,0,0-.38.24A1.86,1.86,0,0,1-70.06-121.95Zm2.32,19.43s.34,1.36-1.93,3.26-6,2.56-10.16,1.6-6-2.07-6.66-4.86a4.28,4.28,0,0,0,2.88,1.1C-73.78-100.76-70.58-101-67.74-102.52ZM-79.3-132.34l-.5,4.21-.79-.88Zm-18,.76c5.56-.92,9.43-1.09,11.23-1.36a8.48,8.48,0,0,0,3-.77s.37.83.84,2l.42-2,.77,1.75.46-.78-.47,4.4-.73-1.09-1.29,1.61.25-1.2-.82,1s-1.91-.11-6.38-.43a25.73,25.73,0,0,0-15.79,4.12C-103.88-128.13-102.84-130.65-97.29-131.58Z" transform="translate(190 190)"/><path id="_Path_3" data-name="&lt;Path&gt;" class="cls-4" d="M-95.7-65.82c-4.58-1.61-16-6.06-22.68-17.43h0c2.87,11.19,8.88,23.23,24,28.24,6.85,2.26,12.41,1.64,14.55-1.9h0c.88-3.35,1.41-5.75,1.72-7.49C-83.55-62.71-91.33-64.28-95.7-65.82Z" transform="translate(190 190)"/><path id="_Path_4" data-name="&lt;Path&gt;" class="cls-2" d="M-89.12-120.85a4.62,4.62,0,0,1,1.13.42,10.38,10.38,0,0,1,1,.66,2.87,2.87,0,0,0,1.16.54,8.11,8.11,0,0,0,.87.07l.76,0s-.24-.15-.66-.38l-.74-.39a2.71,2.71,0,0,1-.65-.66,6.19,6.19,0,0,0-1-1,4.79,4.79,0,0,0-1.44-.86,6.7,6.7,0,0,0-1.71-.37,6.55,6.55,0,0,0-.89,0,7.34,7.34,0,0,0-.85,0l-.39,0h-.1l-.14,0-.21,0a5.83,5.83,0,0,0-.85.19,8.53,8.53,0,0,0-1.56.59,7.86,7.86,0,0,0-1.34.78,8.6,8.6,0,0,0-1.06.86A7.11,7.11,0,0,0-99.38-118a22.56,22.56,0,0,1,2.29-1.34c.26-.13.56-.26.85-.39a2.37,2.37,0,0,0-.07,1,3,3,0,0,0,3.41,2.56,3,3,0,0,0,2.57-3.4A2.19,2.19,0,0,0-91-121a5.56,5.56,0,0,1,.58,0A6.16,6.16,0,0,1-89.12-120.85Z" transform="translate(190 190)"/><path id="_Path_5" data-name="&lt;Path&gt;" class="cls-2" d="M-88.94-124.39c-.29-.07-.63-.1-1-.15a6.57,6.57,0,0,0-1.2-.07,7.88,7.88,0,0,0-1.36,0,9.14,9.14,0,0,0-1.43.21,11.81,11.81,0,0,0-1.45.36c-.49.15-1,.34-1.41.52s-.88.43-1.3.63a15.42,15.42,0,0,0-2.13,1.41,12.23,12.23,0,0,0-1.32,1.22,6,6,0,0,0-.45.51l.56-.37c.36-.24.88-.55,1.51-.91l1-.55c.36-.2.77-.36,1.17-.57a22.54,22.54,0,0,1,2.62-1,11.51,11.51,0,0,1,1.36-.38c.46-.12.91-.2,1.35-.28s.87-.12,1.28-.17A9.81,9.81,0,0,1-90-124c.36,0,.69,0,1,0l.77,0h.67s-.23-.08-.65-.19Z" transform="translate(190 190)"/><polygon id="_Path_6" data-name="&lt;Path&gt;" class="cls-2" points="110.7 57.66 109.41 60.99 110.2 61.87 110.7 57.66"/><path id="_Path_7" data-name="&lt;Path&gt;" class="cls-2" d="M-90-128.46c4.47.32,6.38.43,6.38.43l.82-1-.25,1.2,1.29-1.61.73,1.09.47-4.4-.46.78-.77-1.75-.42,2c-.47-1.15-.84-2-.84-2a8.48,8.48,0,0,1-3,.77c-1.8.27-5.67.44-11.23,1.36s-6.59,3.45-8.55,7.24A25.73,25.73,0,0,1-90-128.46Z" transform="translate(190 190)"/><path id="_Path_8" data-name="&lt;Path&gt;" class="cls-2" d="M-62-120.95a3.18,3.18,0,0,0-.6-.36c-.22-.11-.35-.17-.55-.25a8.42,8.42,0,0,0-1.23-.4,5.11,5.11,0,0,0-2.69,0,4.27,4.27,0,0,0-1.12.52,5.13,5.13,0,0,0-.82.66,5.69,5.69,0,0,0-.94,1.2c-.18.32-.27.51-.27.51l.52-.23c.16-.09.36-.16.57-.27l.15-.06a2.45,2.45,0,0,0-.06,1,3,3,0,0,0,3.4,2.57,3,3,0,0,0,2.57-3.4,1.05,1.05,0,0,0-.05-.19,2.34,2.34,0,0,1,.24.09,6.61,6.61,0,0,1,1.44,1c.41.37.76.73,1,1l.39.41a4.74,4.74,0,0,0-.51-2A4.63,4.63,0,0,0-62-120.95Z" transform="translate(190 190)"/><path id="_Path_9" data-name="&lt;Path&gt;" class="cls-2" d="M-68.88-122.25a7.76,7.76,0,0,1,1.59-.3,6.73,6.73,0,0,1,.91-.06c.34,0,.62,0,.94,0a10.34,10.34,0,0,1,3.35.75c.45.17.83.34,1.1.46l.42.19-.31-.35a6.66,6.66,0,0,0-.94-.8,6.68,6.68,0,0,0-3.58-1.18,5.83,5.83,0,0,0-1,0,7.86,7.86,0,0,0-1,.15,6.32,6.32,0,0,0-1.66.63,4.16,4.16,0,0,0-1,.77,1.86,1.86,0,0,0-.27.38,2.24,2.24,0,0,1,.38-.24A5.17,5.17,0,0,1-68.88-122.25Z" transform="translate(190 190)"/><path id="_Path_10" data-name="&lt;Path&gt;" class="cls-4" d="M-86.49-102.52c.61,2.79,2.46,3.91,6.66,4.86s7.89.31,10.16-1.6,1.93-3.26,1.93-3.26c-2.84,1.54-6,1.76-15.87,1.1A4.28,4.28,0,0,1-86.49-102.52Z" transform="translate(190 190)"/><path id="_Path_11" data-name="&lt;Path&gt;" class="cls-4" d="M-75.44-88.9c-1-.14-.45-1.61-3.64-1.47s-14,.52-14,.52a10.05,10.05,0,0,0,5.41,2.1c3,.27,6.92.65,9.76,1.15s3.82,0,5.7.13,2.43-.14,4.21-1c-1.62-.76-3.16-2.27-4.79-2.33S-74.43-88.75-75.44-88.9Z" transform="translate(190 190)"/><path id="_Path_12" data-name="&lt;Path&gt;" class="cls-4" d="M-80.48-81.73c2.37,3,5.54,0,5.54,0Z" transform="translate(190 190)"/><path id="_Path_13" data-name="&lt;Path&gt;" class="cls-2" d="M-133.59-122.59c4.84,0,8.54,5.69,11.49,12.55l4-.3s-2.49-9.27-.43-13.38c3.13-6.26,9-5.41,11.5-14.78a61.15,61.15,0,0,0,1.44-6.08s5.86,3.64,14.78,0,18.54-7.84,23.86-6.62,7.89,10.26,8.29,14c0,0,.2,3.1.68,6.64-1.15-1.06-4.12-1.31-7.65-.77a5.62,5.62,0,0,0-4.86,4.65,13.58,13.58,0,0,0,3.82-.54c7.31-2.23,8.93,1.34,9.28,3.44-.33,2.19-1.19,4.53-1.56,8.06-.13,1.33-.2,2.81-.23,4.38a58.1,58.1,0,0,0,3.64-12.08,96,96,0,0,0,1.25-11.78s2.85-.86,2.67-6.22.78-10.24-8.79-18.68l-.07,0a16.14,16.14,0,0,0-2.37-2.18C-74.55-171.2-84-174.17-99.27-173s-21.16,8-21.16,8-31.35,11-16.33,45.23C-136.31-121.4-135.36-122.58-133.59-122.59Z" transform="translate(190 190)"/></g></g></g></g></svg>