<svg xmlns="http://www.w3.org/2000/svg" xmlns:xlink="http://www.w3.org/1999/xlink" viewBox="2250 1641 180 180"><defs><style>.a{clip-path:url(#a);}.b{fill:#8997a5;}.c,.f{fill:#091440;}.d{fill:#fff;}.e{clip-path:url(#c);}.f{opacity:0.5;}</style><clipPath id="a"><circle cx="90" cy="90" r="90"/></clipPath><clipPath id="c"><path d="M61.4,86.4s1.2,22,.5,27.1S50.8,122,50.8,122s20,23.8,37.1,24.3,28.4-10.4,28.7-21.3,0-36.3,0-36.3Z"/></clipPath></defs><g transform="translate(2250 1641)"><g class="a"><circle class="b" cx="90" cy="90" r="90"/></g><g class="a"><path class="c" d="M174.1,205.9H1V139l49.8-17.1,62.2.5L169.1,148Z"/><path class="d" d="M61.4,86.4s.7,22.2-1,27.5c-1.6,4.9-9.5,8.1-9.5,8.1s20,23.8,37.1,24.3,28.4-10.4,28.7-21.3,0-36.3,0-36.3Z"/><g class="e"><path class="f" d="M81,97.3s7.4,29.9,33.8,29.9c16.3,0,13-16.2,13-16.2Z"/></g><path class="c" d="M132.9,63.3l-13.2-1,1.3,3.1,11.9,2.5Z"/><path class="d" d="M61.9,75c2.6,11-.5,11.3-.5,11.3s3.4,18.9,12.9,27.1,19.3,10.8,30.7,10.7,10.7-4.8,13.7-7.5c2.7-2.4,4.9-8.2,7.3-25.8,1.5-10.7.8-12.1.5-16.5s-.1-11.9-.9-29.8c-.3-8.5-1.9-13-9-15.7-10.1-3.9-32.9-8.5-44,0S59.1,63.5,61.9,75Z"/><path class="c" d="M84.5,70.4a9.424,9.424,0,0,1,2-1.6,13.345,13.345,0,0,1,2.4-1.1,13.654,13.654,0,0,1,2.9-.7l.8-.1h1.6a2.2,2.2,0,0,1,.8.1,5.783,5.783,0,0,1,1.4.5,4.44,4.44,0,0,1,1.1.8A4.848,4.848,0,0,1,98.6,70a4.184,4.184,0,0,1,.1.7,2.22,2.22,0,0,0-.4-.5c-.1-.2-.3-.3-.6-.5a5.582,5.582,0,0,0-.8-.5,2.935,2.935,0,0,0-1-.3,4.869,4.869,0,0,0-1.2-.1h-.6a1.952,1.952,0,0,0-.7.1c-.2,0-.5.1-.7.1h-.5c-.9.2-1.9.3-2.8.5s-1.7.3-2.4.5C85.5,70.3,84.5,70.4,84.5,70.4Z"/><path class="c" d="M116,70.1a1.01,1.01,0,0,1,.2-.5,2.7,2.7,0,0,1,.9-1.1,5.547,5.547,0,0,1,.8-.6,3,3,0,0,1,1-.4,8.524,8.524,0,0,1,2.3-.3h.6c.2,0,.3.1.5.1a4.874,4.874,0,0,1,1.1.4,8.794,8.794,0,0,1,1,.6,3.114,3.114,0,0,1,.7.9,2.146,2.146,0,0,1,.2,1.5.52.52,0,0,1-.2.4.1.1,0,0,1-.1.1,4.2,4.2,0,0,1-.2-.5c-.1-.1-.2-.3-.3-.4a2.181,2.181,0,0,0-.5-.4l-.6-.3a1.854,1.854,0,0,0-.7-.2c-.1,0-.3-.1-.4-.1s-.2-.1-.4-.1-.3-.1-.5-.1a.6.6,0,0,1-.4-.1,7.449,7.449,0,0,0-3.4.2A6.461,6.461,0,0,0,116,70.1Z"/><path class="c" d="M93.6,69c-.2-1.5-1.4-1.3-2.9-1s-2.7.4-2.4,1.9a2.586,2.586,0,0,0,3.1,2.2A2.682,2.682,0,0,0,93.6,69Z"/><path class="c" d="M121.9,69.1c-.2-1.4-1.3-1.2-2.7-1s-2.5.4-2.2,1.7a2.605,2.605,0,0,0,2.8,2.1A2.368,2.368,0,0,0,121.9,69.1Z"/><path class="f" d="M120.7,96.9l-2.9-.7a20.046,20.046,0,0,0-6.1-.7,33.851,33.851,0,0,0-6.9.6,65.664,65.664,0,0,1-7.5.9s6.6.8,10,1.3,3.9.5,6.6,0C116.5,97.9,120.7,96.9,120.7,96.9Z"/><path class="f" d="M111.2,110.2l-.1,6.4S115.8,114.4,111.2,110.2Z"/><path class="f" d="M107.7,103l5-.1c.5,0,1.1.3.8.7-2.3,2.6-4.5,1.7-7-.2C106,103.1,107.1,103,107.7,103Z"/><path class="f" d="M100.4,86.4a57.546,57.546,0,0,0,9.6,1,25.952,25.952,0,0,0,8.4-1,9.628,9.628,0,0,1-8.3,4.4C104.5,90.6,100.4,86.4,100.4,86.4Z"/><path class="c" d="M72.8,78.7s-4.3-17.6,2.1-18.6c-.7-10.4,4.7-29,20-29.4s26.9-.6,29.7,8.5c.4,1.3,1.1,5.3,1.1,5.3l1.2-6.7,2.3,2.5s1-5.3-3.5-11a16.04,16.04,0,0,0-5.7-4.9s3-2,6-1.4a13.466,13.466,0,0,0-7.3-3.4s.9-4.5,4.5-5.8c0,0-8.6-10.1-24.1-5.9a2.722,2.722,0,0,1-.7-2.6C98.8,2.4,99.7,2,99.7,2S80.1,0,71.3,14.1C65.5,23.4,67,24.5,67,24.5s-6.4,2.8-9.8,7.6c-8.9,12.5-1.8,30.3-1.8,30.3S66.7,80.9,72.8,78.7Z"/><path class="c" d="M68.6,28.8A18.436,18.436,0,0,1,67,15.7c1.7-6.9,4-7.1,4-7.1s-4,11.8.8,15.8C75.1,27,68.6,28.8,68.6,28.8Z"/><path class="d" d="M56.9,59.9c-6.9-.6-6.2,10.5-3.8,17.7S59,91,65.6,91.5C72.1,92,71.2,61.2,56.9,59.9Z"/><path class="f" d="M101.6,63.3s1.7-3-4.2-3.4c-5.8-.4-9.6-.7-12.8.2s-2.1,3.2-2.1,3.2a12.8,12.8,0,0,1,5.2-1C92.8,62.4,100.8,63.9,101.6,63.3Z"/><path class="f" d="M111.8,63.9c-1.3-1.5,2.4-3.1,6.3-4.1,3.9-.9,7.6.5,8.2,2.7a35.976,35.976,0,0,0-7.1.2C115.2,63.3,113.2,65.4,111.8,63.9Z"/><path class="c" d="M122.2,62.4c-2.1,0-1.1-.1-3.1,0-.5,0-.9.1-1.4.1h0a75.092,75.092,0,0,1-9.5,1.1,77.76,77.76,0,0,1-9.5-1.1h0c-.5,0-.9-.1-1.4-.1-2-.1-4,0-6.1,0a113.183,113.183,0,0,0-11.8,1V68a17.383,17.383,0,0,0,1.3,1.5,2.146,2.146,0,0,1,.4,1.5c0,.5.1,1,.1,1.5a8.753,8.753,0,0,0,.2,1.6,5.066,5.066,0,0,0,1.8,2.5,3.506,3.506,0,0,0,1.4.6,5.9,5.9,0,0,0,1.4.2,50.133,50.133,0,0,0,5.1.6,43.377,43.377,0,0,0,7.6-.2q1.35-.15,2.1-.3a4.184,4.184,0,0,1,.7-.1h.2a3.933,3.933,0,0,0,.6-.2,5.218,5.218,0,0,0,2-1.4,9.879,9.879,0,0,0,.9-1.5,2.959,2.959,0,0,0,.2-1V70.1h0c0-3.2.8-4.8,2.8-4.8s2.8,1.6,2.8,4.8h0v3.2a2.959,2.959,0,0,0,.2,1,3.766,3.766,0,0,0,.9,1.5,5.218,5.218,0,0,0,2,1.4c.3.1.5.1.6.2h.2a3.2,3.2,0,0,1,.7.1q.75.15,2.1.3a19.042,19.042,0,0,0,4.6.2,50.134,50.134,0,0,0,5.1-.6c.4-.1.9-.1,1.4-.2a3.506,3.506,0,0,0,1.4-.6,5.066,5.066,0,0,0,1.8-2.5,4.4,4.4,0,0,0,.2-1.6c0-.5.1-1,.1-1.5a2.146,2.146,0,0,1,.4-1.5A17.384,17.384,0,0,0,134,68V63.4A89.737,89.737,0,0,0,122.2,62.4Zm-18,10.9a1.854,1.854,0,0,1-.2.7,10.907,10.907,0,0,1-.6,1.1,3.008,3.008,0,0,1-1.5,1,3.224,3.224,0,0,0-.6.2,3.2,3.2,0,0,0-.7.1q-.75.15-2.1.3a42.55,42.55,0,0,1-7.5.2,49.675,49.675,0,0,1-5-.5l-.7-.1H85l-.3-.1a9.744,9.744,0,0,1-1.1-.5,3.524,3.524,0,0,1-1.4-2,5.283,5.283,0,0,1-.1-1.3V67.9a3.178,3.178,0,0,1,.2-1.4,2.384,2.384,0,0,1,.6-1.1,3.048,3.048,0,0,1,2.2-1.2l3-.3c1-.1,2.1-.2,3.1-.3a58.046,58.046,0,0,1,5.9,0c1,.1,1.9.1,2.8.2l.7.1h.6a4.179,4.179,0,0,1,1,.4,3.05,3.05,0,0,1,1.4,1.6c.1.3.2.7.3,1v5.8A.778.778,0,0,1,104.2,73.3Zm26.9.5a3.524,3.524,0,0,1-1.4,2,3.7,3.7,0,0,1-1.1.5l-.3.1H128l-.7.1c-1.8.2-3.4.4-5,.5a18.129,18.129,0,0,1-4.5-.2q-1.35-.15-2.1-.3a4.184,4.184,0,0,0-.7-.1,1.548,1.548,0,0,1-.6-.2,3.008,3.008,0,0,1-1.5-1,2.384,2.384,0,0,1-.6-1.1c-.1-.2-.1-.5-.2-.7V67.2a1.929,1.929,0,0,1,.3-1,3.638,3.638,0,0,1,1.4-1.6,4.179,4.179,0,0,1,1-.4h.6l.7-.1a26.353,26.353,0,0,1,2.8-.2,14.045,14.045,0,0,1,2.9,0c1,.1,2,.2,3.1.3l3,.3a4.014,4.014,0,0,1,2.2,1.2,2.384,2.384,0,0,1,.6,1.1,5.212,5.212,0,0,1,.2,1.4c0,1,.1,2,0,3v1.5A1.09,1.09,0,0,1,131.1,73.8Z"/><path class="d" d="M110.4,66.7l6.8,15.8-8.8-3.9Z"/><path class="c" d="M79.5,63.3l-13.2-1,1.3,3.1,11.9,2.5Z"/></g></g></svg>