<svg xmlns="http://www.w3.org/2000/svg" xmlns:xlink="http://www.w3.org/1999/xlink" viewBox="7255 1642 180 180"><defs><style>.a{clip-path:url(#a);}.b{fill:#2970ff;}.c,.f{fill:#091440;}.d{fill:#fff;}.e{clip-path:url(#c);}.f{opacity:0.5;}</style><clipPath id="a"><circle cx="90" cy="90" r="90"/></clipPath><clipPath id="c"><path d="M58,96.8c1.1,3.8,2.8,19.5,1.7,34.4-.7,8.7,8.1,21.4,23.4,24,17.2,3,30.5-6.5,33.1-24.2a180.309,180.309,0,0,0,2.2-29.3Z"/></clipPath></defs><g transform="translate(7255 1642)"><g class="a"><circle class="b" cx="90" cy="90" r="90"/></g><g class="a"><path class="c" d="M167,203.8H13V152.3l48-22.7,48.8-1.3L167,158.5Z"/><path class="d" d="M58,96.8c1.1,3.8,2.8,19.5,1.7,34.4-.7,8.7,8.1,21.4,23.4,24,17.2,3,30.5-6.5,33.1-24.2a180.309,180.309,0,0,0,2.2-29.3Z"/><path class="c" d="M109.3,32.3a15.644,15.644,0,0,1,11.5,4c4.9,4.7,13,20.5,8.5,40.8a53.291,53.291,0,0,1-4.5,12.4Z"/><g class="e"><path class="f" d="M69.1,113.2s8,24.1,30.2,26.5c20.4,2.2,25.5-22.7,25.5-22.7l-6.5-9.6Z"/></g><path class="d" d="M69.1,37.8C82,24.3,97.4,25.1,106.1,30s15.6,18.6,17,37.2,3.1,30.1,0,39.3S117,129.8,99,130.9c-17.9,1.1-34.2-5.9-39.9-37S56.2,51.3,69.1,37.8Z"/><path class="c" d="M72.3,72.3a7.6,7.6,0,0,1,2-2,12.628,12.628,0,0,1,2.6-1.4,9.132,9.132,0,0,1,3.3-.7h.9a2.2,2.2,0,0,1,.8.1c.6.1,1.2.2,1.7.3A6.91,6.91,0,0,1,86.3,70a8.741,8.741,0,0,1,1.4,1.6,5.947,5.947,0,0,1,.3.7,6.122,6.122,0,0,0-.6-.5,8.72,8.72,0,0,0-1.7-.9,9.165,9.165,0,0,0-2.5-.6,6.6,6.6,0,0,0-1.4-.1H80.3c-.5,0-1,.1-1.5.1-.5.1-1,.1-1.5.2a19.734,19.734,0,0,0-2.6.7C73.3,71.8,72.3,72.3,72.3,72.3Z"/><path class="c" d="M83.1,70.8c0-1.6-1.3-1.5-2.9-1.5s-2.9-.1-2.9,1.5a2.9,2.9,0,0,0,5.8,0Z"/><path class="c" d="M88.1,63.5c2.4-.6,1.4-4.1-2.8-4.8s-8.4-1.6-13,.9-4.4,5.7-4.4,5.7a12.153,12.153,0,0,1,7.9-3.7C80.7,61.6,84.5,64.4,88.1,63.5Z"/><path class="c" d="M106.5,72.3a1.548,1.548,0,0,1,.2-.6,4.637,4.637,0,0,1,.9-1.4,8.038,8.038,0,0,1,2-1.5,5.732,5.732,0,0,1,1.4-.4,7.083,7.083,0,0,1,1.5-.1h.6c.2,0,.5.1.8.1.5.1.9.3,1.4.4a7.844,7.844,0,0,1,2,1.4,3.265,3.265,0,0,1,.9,1.4,1.548,1.548,0,0,1,.2.6,8.3,8.3,0,0,0-1.8-1.1,10.662,10.662,0,0,0-1.9-.7c-.3-.1-.7-.1-1.1-.2l-.5-.1h-.7a4.485,4.485,0,0,0-1.1.1,4.253,4.253,0,0,0-1.1.2,10.663,10.663,0,0,0-1.9.7C107.3,71.7,106.5,72.3,106.5,72.3Z"/><path class="c" d="M122.7,62.7s-1.9-6.5-10.2-6-8.6,3.6-7.5,5c1.2,1.4,4.1-.9,8.6-1.6C120.3,59.2,122.7,62.7,122.7,62.7Z"/><path class="c" d="M114.6,70.8c0-1.6-1.3-1.5-2.9-1.5s-2.9-.1-2.9,1.5a2.9,2.9,0,0,0,5.8,0Z"/><path class="f" d="M89.4,93.1s2.4,2.7,9.4,3a11.466,11.466,0,0,0,10.1-4.6s-3.2,1.5-9.7,1.6C92.5,93.2,89.4,93.1,89.4,93.1Z"/><path class="f" d="M88.5,106.9a60.08,60.08,0,0,1,8-4.4c2.9-1.1,3.8.4,4.9,0s1.3-1.2,4.2-.4a7.968,7.968,0,0,1,4.4,3.7Z"/><path class="c" d="M87.4,107.8c-2.4,1-3.2-1.9,0-.9,1.1.3,12.7-2,22.6-1.1,1.3-.2,1.5-1.1,2.5-.2s-.5,1.2-2.5,1.3-5,1.8-10.9,1.7C94.6,108.6,87.4,107.8,87.4,107.8Z"/><path class="d" d="M91.7,106.5a19.35,19.35,0,0,0,7,.9c5.8-.2,7.6-1.8,7.6-1.8A53.561,53.561,0,0,0,91.7,106.5Z"/><path class="c" d="M60.8,65.3l2.8-.3s5.6-27.3,24.5-37.1c13.5-4.4,21.1,4.4,21.1,4.4s3.3-4.4,0-8.9-15.5-8.1-32.1-4.9-28.4,16.8-32.3,32C37.2,79.8,56,101.8,56,101.8l4.8-12.2A68.824,68.824,0,0,1,60.8,65.3Z"/><path class="d" d="M70.3,98.4s.2,6.4-6.1,6.8-7.3-.8-10.7-9.1-3-20.4,3.8-19,7.3,10.1,7.3,10.1Z"/></g></g></svg>