<svg xmlns="http://www.w3.org/2000/svg" xmlns:xlink="http://www.w3.org/1999/xlink" viewBox="190.521 1008.182 817.05 460.416"><defs><style>.a,.aa,.c,.f,.h,.i,.n,.u,.w,.y,.z{fill:none;}.b{opacity:0.23;}.c{stroke:#000;}.aa,.c,.f,.h,.i,.n,.u,.w,.y,.z{stroke-miterlimit:10;}.d{clip-path:url(#a);}.e,.k{fill:#091440;}.f{stroke:#6ed3f3;}.f,.i,.u{stroke-width:2px;}.g,.t{fill:#2f74fb;}.h,.i,.w{stroke:#091440;}.i{stroke-dasharray:1.019 5.095;}.j{fill:#3ad7a4;}.k,.t,.u,.v,.x{opacity:0.5;}.l{fill:#ffc84d;}.m{fill:#25549f;}.n{stroke:#2f74fb;stroke-width:2.12px;stroke-dasharray:0 30;}.n,.u,.y,.z{stroke-linecap:round;}.aa,.n,.u,.y,.z{stroke-linejoin:round;}.o{fill:#ed6d47;}.p{fill:#6ed3f3;}.q,.s{fill:#b6e9f9;}.q,.r{opacity:0.8;}.u{stroke:#b6e9f9;}.v{fill:#eaf6fc;}.w{stroke-width:1.2px;}.aa,.y{stroke:#3ad7a4;}.aa,.y,.z{stroke-width:6px;}.z{stroke:#fb7151;}</style><clipPath id="a"><rect width="816.05" height="459.415"/></clipPath></defs><g transform="translate(190.521 990.482)"><rect class="a" width="816.063" height="459.285" transform="translate(0.5 18.36)"/><g class="b" transform="translate(0.5 18.2)"><rect class="c" width="816.05" height="459.415"/></g><g transform="translate(0.5 18.2)"><g class="d" transform="translate(0 0)"><rect class="e" width="816.05" height="459.415"/></g><g class="d" transform="translate(0 0)"><g transform="translate(433.639 191.532)"><line class="f" x2="51.227" y2="63.626"/></g><g transform="translate(433.965 204.257)"><circle class="g" cx="50.901" cy="50.901" r="50.901"/></g><g transform="translate(438.859 209.152)"><circle class="h" cx="46.007" cy="46.007" r="46.007"/></g><g transform="translate(443.427 213.72)"><circle class="i" cx="41.439" cy="41.439" r="41.439"/></g><g transform="translate(420.913 178.807)"><circle class="j" cx="12.725" cy="12.725" r="12.725"/><path class="k" d="M129.5,76.9a12.725,12.725,0,1,0,25.451,0c0,3.263-5.873,7.178-12.073,7.178C136.352,84.078,129.5,80.489,129.5,76.9Z" transform="translate(-129.5 -64.175)"/></g></g><g class="d" transform="translate(0 0)"><circle class="l" cx="12.399" cy="12.399" r="12.399" transform="translate(463.005 115.833)"/></g><g class="d" transform="translate(0 0)"><rect class="m" width="9.462" height="37.523" transform="translate(475.404 109.633)"/></g><g class="d" transform="translate(0 0)"><path class="m" d="M526.291,18.2H480.936L149.1,19.505V478.921l331.836-1.305h816.05V18.2Z" transform="translate(335.766 -18.2)"/></g><g class="d" transform="translate(0 0)"><g transform="translate(484.661 76.025)"><g transform="translate(0)"><rect class="g" width="6.526" height="1963.936" transform="translate(0 32.931) rotate(-90)"/><rect class="e" width="6.526" height="1963.936" transform="translate(0.114 26.291) rotate(-90)"/><line class="n" x2="1963.61" transform="translate(0.205)"/><line class="n" x2="1963.61" transform="translate(0.205 52.206)"/></g></g><rect class="e" width="9.462" height="9.462" transform="translate(478.002 102.382) rotate(-45)"/><g transform="translate(809.85 102.455)"><rect class="e" width="350.435" height="6.526" transform="translate(0.15 357.108) rotate(-90)"/><rect class="g" width="350.435" height="6.526" transform="translate(6.79 356.895) rotate(-90)"/><path class="e" d="M255.552,49.6v6.526H248.7Z" transform="translate(-248.7 -49.6)"/><path class="g" d="M257.326,56.126H250.8V49.6Z" transform="translate(-243.948 -49.6)"/></g><g transform="translate(809.844 -13.073)"><rect class="e" width="108.654" height="6.526" transform="translate(6.526 0.114) rotate(90)"/><rect class="g" width="108.654" height="6.526" transform="translate(13.166) rotate(90)"/><path class="e" d="M255.226,54.352V47.5H248.7Z" transform="translate(-248.693 61.176)"/><path class="g" d="M257.326,47.5H250.8v6.852Z" transform="translate(-243.941 61.176)"/></g><g transform="translate(1626.553 102.455)"><rect class="e" width="350.435" height="6.526" transform="translate(0.001 356.958) rotate(-90)"/><rect class="g" width="350.435" height="6.526" transform="translate(6.641 357.072) rotate(-90)"/><path class="e" d="M505.526,49.6v6.526H499Z" transform="translate(-499 -49.6)"/><path class="g" d="M507.526,56.126H501V49.6Z" transform="translate(-494.474 -49.6)"/></g><g transform="translate(1626.397 -13.136)"><rect class="e" width="108.654" height="6.526" transform="translate(6.526) rotate(90)"/><rect class="g" width="108.654" height="6.526" transform="translate(13.166 0.212) rotate(90)"/><path class="e" d="M505.526,54.352V47.5H499Z" transform="translate(-498.844 61.239)"/><path class="g" d="M507.526,47.5H501v6.852Z" transform="translate(-494.319 61.239)"/></g></g><g class="d" transform="translate(0 0)"><g transform="translate(175.318 64.224)"><g transform="translate(2.306 10.704)"><path class="o" d="M79.065,69.349s-29.04-18.6-17.62,9.789c11.746,29.04,9.136,66.237,9.789,72.763s17.62,33.608,40.134,30.671c20.883-2.61,21.535-20.883,22.514-33.608,1.631-19.9-5.221-43.4-5.221-43.4Z" transform="translate(-46.232 9.08)"/><path class="k" d="M92.429,113.376c14.03,11.42,25.777,2.61,25.777,2.61l-.979-22.514L66,75.2S72.526,97.388,92.429,113.376Z" transform="translate(-29.905 35.858)"/><path class="o" d="M124.976,188.113c14.357-2.61,25.451-25.451,25.451-72.11,0-52.533-20.883-72.11-42.418-74.72C86.148,39,59.718,69.67,61.35,120.9,62.981,172.451,115.514,189.744,124.976,188.113Z" transform="translate(-40.59 -41.163)"/><path class="o" d="M56.773,87.222a21.75,21.75,0,0,0,10.441,12.4c6.526,3.263,15.336,5.547,18.272-2.937,4.894-13.7-13.378-41.765-25.451-31.976C53.184,70.581,54.489,80.37,56.773,87.222Z" transform="translate(-54.938 7.521)"/></g><path class="p" d="M151.038,54.253c-28.387-22.514-77-23.819-77.657,8.81-20.23,5.221-26.756,39.807-8.157,55.8,0,0,13.378-.979,16.314,16.641v6.526a7.191,7.191,0,0,0,2.937-1.958c2.61-2.61,6.526-7.831,7.5-18.272,1.305-14.03.326-24.145-1.631-31.65,4.568,3.589,20.882,11.42,47.965,10.115,35.892-1.958,46.333-22.84,46.333-22.84S163.437,64.368,151.038,54.253Z" transform="translate(-54.231 -37.883)"/></g><path class="j" d="M129.869,102.868c22.188,13.052,39.807,131.495,41.765,155.64,3.263,41.439-28.713,61.016-51.88,29.04-28.387-39.481-24.8-97.561-32.955-143.894C80.273,106.131,106.7,89.164,129.869,102.868Z" transform="translate(192.505 162.732)"/><g transform="translate(305.91 217.309)"><g transform="translate(43.22)"><path class="g" d="M150.9,93.284a10.22,10.22,0,1,1-19.577-5.873h0l-8.484-2.61L107.5,136.027l8.484,2.61a10.22,10.22,0,0,1,19.577,5.873l8.483,2.61L159.38,95.894l-8.484-2.61Z" transform="translate(-107.5 -84.8)"/><circle class="p" cx="11.42" cy="11.42" r="11.42" transform="matrix(0.29, -0.957, 0.957, 0.29, 11.861, 38.703)"/></g><path class="o" d="M142.16,103.42,154.233,92s14.357,5.873,14.357,7.831,10.768,25.777,10.768,25.777v37.2s-20.883,5.873-35.892,4.894v23.819l-41.765.653,4.568-43.07a13.9,13.9,0,0,1,12.4-12.4l10.115-1.305Z" transform="translate(-77.405 -68.507)"/><path class="j" d="M119.528,120.122s7.831,12.073,41.439,4.568c0,0,2.937.326,4.568,18.6,1.958,18.272-.979,16.314-.979,16.314s1.958,43.723-1.305,62.974-18.925,35.892-34.913,34.913S96.035,241.828,94.4,211.81c-1.958-30.019,15.988-54.49,15.988-54.49s-2.284-1.305-.979-5.873C113.328,137.742,116.591,115.554,119.528,120.122Z" transform="translate(-94.254 -6.247)"/></g><path class="j" d="M110.543,89.226s25.451,18.6,42.744,18.6S174.169,88.9,174.169,88.9l15.662,16.314s41.439,15.009,44.375,22.84c3.263,7.831-20.23,216-20.23,216l-157.271-.653S43.327,143.717,41.043,129.034s58.732-28.061,58.732-28.061Z" transform="translate(91.104 141.787)"/><path class="k" d="M72.1,111.988,85.152,96l14.03,14.03L85.8,109.7Z" transform="translate(161.523 157.853)"/><g transform="translate(106.981 257.625)"><path class="j" d="M63.55,101.868C41.362,114.919,35.489,219.006,33.531,243.151c-3.263,41.439,36.544,62.648,51.88,26.429,17.62-41.439,13.052-80.593,20.883-126.927C113.146,105.131,86.716,88.164,63.55,101.868Z" transform="translate(-33.163 -97.156)"/><path class="j" d="M86.841,243.455c0-2.937,1.631-81.572,2.284-83.2C89.451,158.62,34.308,141,34.308,141s-3.915,25.124,3.589,93.319Z" transform="translate(-33.287 2.059)"/></g></g><g class="d" transform="translate(0 0)"><rect class="g" width="15.988" height="63.626" transform="translate(331.836 351.087)"/><rect class="q" width="15.988" height="6.526" transform="translate(331.836 351.087)"/></g><g class="d" transform="translate(0 0)"><g class="r" transform="translate(51.227 -50.901)"><path class="s" d="M883.477,53.5V257.758H705V2.6H654.1V283.209h0a25.483,25.483,0,0,0,25.451,25.451H883.477V410.788H41.651A25.4,25.4,0,0,0,16.2,434.607h0v90.382H67.1v-63.3H909.254A25.483,25.483,0,0,0,934.7,436.239h0V53.5Z" transform="translate(-16.2 -2.6)"/></g><path class="t" d="M17.6,517.027V431.865a20.666,20.666,0,0,1,20.556-19.251H885.2V300.7H676.052A20.471,20.471,0,0,1,655.5,280.141V4.1h41.112V259.258H884.877V51.738H925.99V432.844A20.471,20.471,0,0,1,905.433,453.4H59.039v63.3H17.6Z" transform="translate(38.195 -50.107)"/><line class="u" y2="80.267" transform="translate(63.953 391.547)"/><line class="u" y1="265.273" transform="translate(701.849 -39.807)"/><line class="u" y1="244.064" transform="translate(931.556 -39.807)"/><line class="u" y1="105.718" transform="translate(931.556 255.485)"/><g transform="translate(511.948 127.557)"><g transform="translate(0 223.53)"><rect class="g" width="15.988" height="63.626"/><rect class="q" width="15.988" height="6.526"/></g><g transform="translate(232.644 223.53)"><rect class="g" width="15.988" height="63.626"/><rect class="q" width="15.988" height="6.526"/></g><g transform="translate(11.094 217.004)"><g transform="translate(0 7.831)"><circle class="e" cx="4.894" cy="4.894" r="4.894"/><circle class="e" cx="4.894" cy="4.894" r="4.894" transform="translate(0 24.145)"/><circle class="e" cx="4.894" cy="4.894" r="4.894" transform="translate(0 48.291)"/></g><g transform="translate(217.309 7.831)"><circle class="e" cx="4.894" cy="4.894" r="4.894"/><circle class="e" cx="4.894" cy="4.894" r="4.894" transform="translate(0 24.145)"/><circle class="e" cx="4.894" cy="4.894" r="4.894" transform="translate(0 48.291)"/></g><rect class="g" width="216.982" height="76.678" transform="translate(4.894)"/><g transform="translate(4.894)"><rect class="v" width="216.982" height="5.221"/></g><line class="w" y2="76.678" transform="translate(12.399)"/><line class="w" y2="76.678" transform="translate(216.982)"/></g><g transform="translate(365.118 223.53)"><rect class="g" width="15.988" height="63.626"/><rect class="q" width="15.988" height="6.526"/></g><g transform="translate(390.568 70.174)"><rect class="g" width="15.988" height="63.626"/><rect class="q" width="15.988" height="6.526"/></g><g transform="translate(253.527 70.174)"><rect class="g" width="15.988" height="63.626"/><rect class="q" width="15.988" height="6.526"/></g><g transform="translate(400.399 172.262)"><rect class="g" width="15.988" height="63.626" transform="translate(0 15.988) rotate(-90)"/><rect class="q" width="15.988" height="6.526" transform="translate(0.03 16.018) rotate(-90)"/></g><g transform="translate(170.606 34.95)"><rect class="g" width="15.988" height="63.626" transform="translate(0 15.988) rotate(-90)"/><rect class="q" width="15.988" height="6.526" transform="translate(0.03 16.018) rotate(-90)"/></g><g transform="translate(400.381 0)"><rect class="g" width="15.988" height="63.626" transform="translate(0 15.988) rotate(-90)"/><rect class="q" width="15.988" height="6.526" transform="translate(0.03 16.018) rotate(-90)"/></g></g><g class="r" transform="translate(1071.861)"><path class="s" d="M1556.827,273.358H762.639V18.2h-50.9V273.358H379.9V18.2H329V298.809h0a25.483,25.483,0,0,0,25.45,25.451H1556.827a25.483,25.483,0,0,0,25.45-25.451h0A25.483,25.483,0,0,0,1556.827,273.358Z" transform="translate(-329 -18.2)"/></g><path class="t" d="M351.056,316.3A20.471,20.471,0,0,1,330.5,295.741V19.7h41.112V274.858H713.237V19.7H754.35V274.858h799.083a20.556,20.556,0,0,1,0,41.113H351.056Z" transform="translate(746.255 -14.806)"/><line class="u" y1="106.044" transform="translate(1467.323 140.631)"/><line class="u" y1="282.893" transform="translate(1084.912 -8.484)"/><g transform="translate(127.579 297.25)"><g transform="translate(0 53.838)"><rect class="g" width="15.988" height="63.626"/><rect class="q" width="15.988" height="6.526"/></g><g transform="translate(204.257 53.838)"><rect class="g" width="15.988" height="63.626"/><rect class="q" width="15.988" height="6.526"/></g><g transform="translate(15.988 53.838)"><rect class="g" width="187.943" height="31.976"/><rect class="q" width="187.943" height="6.526"/><rect class="e" width="187.943" height="6.526" transform="translate(0 25.124)"/></g><g class="x" transform="translate(41.439 9.136)"><rect class="g" width="137.042" height="44.702"/></g><g transform="translate(41.439 9.136)"><path class="g" d="M176.29,125.152v18.6H65.352v-18.6H176.29M189.342,112.1H52.3v44.7H189.342V112.1Z" transform="translate(-52.3 -112.1)"/></g><rect class="g" width="13.378" height="9.136" transform="translate(103.434)"/></g><g transform="translate(560.891 0.164)"><g class="r" transform="translate(0 382.574)"><path class="s" d="M1167.583,135.5H197.851A25.483,25.483,0,0,0,172.4,160.951v72.11h50.9V186.727h918.831v46.333h50.9v-72.11A25.483,25.483,0,0,0,1167.583,135.5Z" transform="translate(-172.4 -135.5)"/></g><path class="t" d="M1143.406,224.772V178.439H215.113v46.333H174V157.556A20.471,20.471,0,0,1,194.556,137h969.732a20.471,20.471,0,0,1,20.556,20.556v67.216Z" transform="translate(-168.779 250.468)"/><line class="u" y1="105.718" transform="translate(13.052 415.855)"/><g transform="translate(76.678 376.374)"><rect class="g" width="15.988" height="63.626"/><rect class="q" width="15.988" height="6.526"/><g transform="translate(212.741)"><rect class="g" width="15.988" height="63.626"/><rect class="q" width="15.988" height="6.526"/></g><g transform="translate(425.808)"><rect class="g" width="15.988" height="63.626"/><rect class="q" width="15.988" height="6.526"/></g><g transform="translate(638.548)"><rect class="g" width="15.988" height="63.626"/><rect class="q" width="15.988" height="6.526"/></g><g transform="translate(851.615)"><rect class="g" width="15.988" height="63.626"/><rect class="q" width="15.988" height="6.526"/></g></g><g transform="translate(503.962 0)"><g transform="translate(83.033 248.795)"><rect class="g" width="15.988" height="63.626"/><rect class="q" width="15.988" height="6.526"/></g><g transform="translate(0.073 213.646)"><rect class="g" width="15.988" height="63.626" transform="translate(0 15.988) rotate(-90)"/><rect class="q" width="15.988" height="6.526" transform="translate(0.03 16.018) rotate(-90)"/></g><rect class="g" width="15.988" height="63.626" transform="translate(0 15.988) rotate(-90)"/><rect class="q" width="15.988" height="6.526" transform="translate(0.03 16.018) rotate(-90)"/><g transform="translate(295.774 248.795)"><rect class="g" width="15.988" height="63.626"/><rect class="q" width="15.988" height="6.526"/></g><g transform="translate(508.841 248.795)"><rect class="g" width="15.988" height="63.626"/><rect class="q" width="15.988" height="6.526"/></g><g transform="translate(717.34 248.795)"><rect class="g" width="15.988" height="63.626"/><rect class="q" width="15.988" height="6.526"/></g></g></g><g transform="translate(44.752 433.938)"><rect class="g" width="15.988" height="63.626" transform="translate(0 15.988) rotate(-90)"/><rect class="q" width="15.988" height="6.526" transform="translate(0.03 16.018) rotate(-90)"/></g><g transform="translate(1447.9 162.783)"><rect class="g" width="15.988" height="63.626" transform="translate(0.296 15.988) rotate(-90)"/><rect class="q" width="15.988" height="6.526" transform="translate(0 16.018) rotate(-90)"/></g><g transform="translate(1447.998 239.333)"><rect class="g" width="15.988" height="63.626" transform="translate(0 15.988) rotate(-90)"/><rect class="q" width="15.988" height="6.526" transform="translate(0.03 16.018) rotate(-90)"/></g><g transform="translate(1441.547 -59.385)"><g transform="translate(7.831 217.309)"><circle class="e" cx="4.894" cy="4.894" r="4.894"/><circle class="e" cx="4.894" cy="4.894" r="4.894" transform="translate(24.145)"/><circle class="e" cx="4.894" cy="4.894" r="4.894" transform="translate(48.291)"/></g><g transform="translate(7.831)"><circle class="e" cx="4.894" cy="4.894" r="4.894"/><circle class="e" cx="4.894" cy="4.894" r="4.894" transform="translate(24.145 0.326)"/><circle class="e" cx="4.894" cy="4.894" r="4.894" transform="translate(48.291)"/></g><rect class="g" width="76.678" height="216.982" transform="translate(0 4.894)"/><g transform="translate(0.096 5.021)"><rect class="v" width="216.982" height="5.221" transform="translate(0 216.982) rotate(-90)"/></g><line class="w" x2="76.678" transform="translate(0 214.698)"/><line class="w" x2="76.678" transform="translate(0 10.115)"/></g><g transform="translate(1793.613 244.064)"><g transform="translate(490.087 4.894)"><rect class="g" width="15.988" height="63.626"/><rect class="q" width="15.988" height="6.526"/></g><g transform="translate(0 7.505)"><circle class="e" cx="4.894" cy="4.894" r="4.894"/><circle class="e" cx="4.894" cy="4.894" r="4.894" transform="translate(0 24.145)"/><circle class="e" cx="4.894" cy="4.894" r="4.894" transform="translate(0 48.291)"/></g><g transform="translate(485.192 7.505)"><circle class="e" cx="4.894" cy="4.894" r="4.894"/><circle class="e" cx="4.894" cy="4.894" r="4.894" transform="translate(0 24.472)"/><circle class="e" cx="4.894" cy="4.894" r="4.894" transform="translate(0 48.291)"/></g><path class="k" d="M1036.792,129.452,551.6,128.8V116.4l485.192.653Z" transform="translate(-547.032 -40.048)"/><rect class="g" width="485.192" height="76.678" transform="translate(4.894)"/><g transform="translate(4.894)"><rect class="v" width="485.192" height="5.221"/></g><g transform="translate(17.62)"><line class="w" y2="76.352"/><line class="w" y2="76.352" transform="translate(459.089)"/></g><g transform="translate(52.206 36.871)"><line class="y" x2="392.526"/><line class="z" x2="52.859" transform="translate(339.667)"/><line class="aa" x2="362.181"/></g></g></g></g></g></svg>