<?xml version="1.0" encoding="utf-8"?>
<!-- Generator: Adobe Illustrator 21.0.0, SVG Export Plug-In . SVG Version: 6.00 Build 0)  -->
<svg version="1.1" id="Layer_1" xmlns="http://www.w3.org/2000/svg" xmlns:xlink="http://www.w3.org/1999/xlink" x="0px" y="0px"
	 viewBox="0 0 540 325" style="enable-background:new 0 0 540 325;" xml:space="preserve">
<style type="text/css">
	.st0{fill:#091440;}
	.st1{fill:#8795A2;}
	.st2{fill:#FDC6B9;}
	.st3{fill:#FDDBB9;}
	.st4{fill:#9CEBD1;}
	.st5{fill:#FEF5E4;}
	.st6{fill:#6ED3F3;}
	.st7{fill:none;stroke:#9CEBD1;stroke-width:0.7108;stroke-linecap:round;stroke-linejoin:round;stroke-miterlimit:10;}
	.st8{fill:#BCBFCB;}
	.st9{fill:none;stroke:#091440;stroke-width:2.1324;stroke-miterlimit:10;}
	.st10{fill:#2F74FB;}
	.st11{fill:#FB7151;}
	.st12{fill:#84899F;}
	.st13{fill:none;stroke:#C3CAD0;stroke-width:0.7108;stroke-linecap:round;stroke-linejoin:round;stroke-miterlimit:10;}
	.st14{fill:none;stroke:#B6E9F9;stroke-width:0.7108;stroke-linecap:round;stroke-linejoin:round;stroke-miterlimit:10;}
	.st15{fill:none;stroke:#6ED3F3;stroke-width:0.7108;stroke-linecap:round;stroke-linejoin:round;stroke-miterlimit:10;}
	.st16{fill:#464F70;}
	.st17{fill:#1A1A18;}
	.st18{fill:#DB9583;}
	.st19{fill:#3AD7A4;}
	.st20{fill:#25549F;}
	.st21{fill:#052F4B;}
	.st22{fill:#506D81;}
	.st23{fill:none;}
	.st24{fill:#436378;}
	.st25{fill:none;stroke:#091440;stroke-width:0.7108;stroke-linecap:round;stroke-linejoin:round;stroke-miterlimit:10;}
	.st26{fill:#FAC7B9;}
	.st27{fill:#F8B9A7;}
	.st28{fill:none;stroke:#2F74FB;stroke-width:2.8431;stroke-miterlimit:10;}
	.st29{fill:none;stroke:#091440;stroke-width:2.8431;stroke-miterlimit:10;}
	.st30{fill:none;stroke:#091440;stroke-width:2.8431;stroke-miterlimit:10;stroke-dasharray:0.7127,1.4254;}
	.st31{fill:#535A79;}
	.st32{fill:none;stroke:#F8B9A7;stroke-width:0.7108;stroke-linecap:round;stroke-linejoin:round;stroke-miterlimit:10;}
	.st33{fill:#081241;}
	.st34{fill:#67ABFD;}
	.st35{fill:#A4819F;}
	.st36{fill:#DAE7F7;}
</style>
<path id="XMLID_1028_" class="st0" d="M500.8,308.1l-6.3,5.4v2.4h18.4c0,0,0.8-2.7-0.6-7.8H500.8L500.8,308.1z"/>
<path id="XMLID_1031_" class="st0" d="M478.3,308.6c0,0-11.5,3.8-16.3,4.7c0,2.5,0,2.5,0,2.5h28.8l-0.3-7.5L478.3,308.6z"/>
<path class="st1" d="M510,219.8h-40.2c0,0,0.3,17.7,3.7,35c3.4,17.3,4.9,53.9,4.9,53.9l15.5,3.2c0,0,1.6-7.2,2.8-18.3
	c2.1,9,3.6,15.1,3.6,15.1s4.8-2.3,12.8,2.5C518.3,287.3,510,219.8,510,219.8z"/>
<path class="st2" d="M503.8,124.1c-5.2-5.1-13.1-4.9-18,1.1c-0.9,1.1-2.2,3.5-3.2,6.3l0,0c-1.4,0.6-4.9,3.8-4.6,5
	c0.2,0.8,1.6,1.8,2.6,2.4c-0.5,3.4-0.2,6.6,1.7,8.3c1.7,1.6,4.4,2.4,7.3,2.3l0.5,5.5c3.8-0.2,9.6-5.2,9.6-5.2l2.9-0.5l-0.6-7.4
	C505.5,135.7,507.8,127.9,503.8,124.1z"/>
<path class="st3" d="M370.2,128.1c-1.6,2.6-1.2,13.2,0,17.1c1.2,3.8-13.1,3.7-13.1,3.7l1.2-17.2c-2.5,0.1-4.6-0.5-6.1-2.1
	c-2.1-2.5-1.5-6.9,0.1-11.2c-0.9-0.7-2.4-1.8-3.8-3.4c2.5-0.2,5.2-1.7,6.5-2.7c1.1-1.9,2.2-3.5,3-4.3c5.5-5.4,13.7-6.6,18.3-1
	c0.1,0.2,0.2,0.3,0.4,0.5c1.1,1.3,1.9,2.9,2.3,5C380.5,121.8,371.8,125.5,370.2,128.1z"/>
<path class="st4" d="M210.9,49.6c0.1-0.1,0.2-0.4,0-0.5c-0.1-0.1-0.4-0.2-0.5,0l-10.9,9.3l0.2,0.8L210.9,49.6z"/>
<path class="st4" d="M209.3,64.5c0.2-0.1,0.2-0.3,0.1-0.5c-0.1-0.2-0.3-0.2-0.5-0.1l-6.7,4.2l0.2,0.7L209.3,64.5z"/>
<path class="st4" d="M228.8,66.9c-0.1-0.2-0.3-0.3-0.5-0.2c-7.8,3.8-15.9,7.3-23.6,10.6l0.2,0.7c7.8-3.3,15.9-6.8,23.7-10.6
	C228.8,67.3,228.8,67.1,228.8,66.9z"/>
<path class="st5" d="M188.8,68c0.1,0.1,0.2,0.1,0.3,0.1s0.2,0,0.2-0.1l10.5-9l-0.2-0.8l-10.7,9.2C188.7,67.6,188.7,67.8,188.8,68z"
	/>
<path class="st5" d="M194.5,73.5c0.1,0.1,0.2,0.2,0.3,0.2s0.1,0,0.2-0.1l7.5-4.7l-0.2-0.7l-7.6,4.8
	C194.4,73.1,194.3,73.3,194.5,73.5z"/>
<path class="st5" d="M199.3,79.6c-0.2,0.1-0.3,0.3-0.2,0.5c0.1,0.1,0.2,0.2,0.3,0.2h0.1c1.7-0.7,3.5-1.5,5.2-2.2l-0.2-0.7
	C202.9,78.1,201.1,78.9,199.3,79.6z"/>
<path class="st6" d="M191,96.4c0,0-1.6,6.2-9.8,6.2h-6.5V67.1h-53.3v35.5h4.9c0,0-7,0.2-12.5,0.2s-8.4-5.3-8.4-5.3s-0.8-5,2.9-12.9
	c3.7-7.8,13.9-21.6,20.5-24.5s11.8-3,11.8-3l6.6-0.2c0,0,13.9-1.8,22,4.6c0.8,0.7,1.6,1.3,2.4,2C182.9,73.5,190,87.4,191,96.4z"/>
<path id="XMLID_1221_" class="st7" d="M107.4,67.8c-7.2-6.2-14.4-12.3-21.6-18.5"/>
<path id="XMLID_1220_" class="st7" d="M101.7,73.3c-4.8-3-9.6-6-14.4-9.1"/>
<path id="XMLID_1219_" class="st7" d="M97,79.9c-9.5-4-19.5-8.2-29-12.8"/>
<polygon class="st0" points="370.1,298.1 370.1,280.3 352.4,280.3 352.4,262.5 334.6,262.5 334.6,244.8 316.8,244.8 316.8,227 
	299.1,227 299.1,209.2 274.5,209.2 274.5,227 274.5,244.8 274.5,262.5 274.5,262.5 274.5,280.3 274.5,280.3 274.5,298.1 
	274.5,298.1 274.5,315.9 387.9,315.9 387.9,298.1 "/>
<g id="XMLID_1205_">
	<path id="XMLID_1207_" class="st8" d="M281.3,213.3c0-2.2-1.8-4-4-4H18.8c-2.2,0-4,1.8-4,4v98.6c0,2.2,1.8,4,4,4h258.5
		c2.2,0,4-1.8,4-4V213.3L281.3,213.3z"/>
</g>
<g id="XMLID_1201_">
	<path id="XMLID_1204_" class="st0" d="M263.5,296.1c0,1.1-0.9,2-2,2h-49.3c-1.1,0-2-0.9-2-2V229c0-1.1,0.9-2,2-2h49.3
		c1.1,0,2,0.9,2,2V296.1z"/>
	<path id="XMLID_1203_" class="st9" d="M263.5,296.1c0,1.1-0.9,2-2,2h-49.3c-1.1,0-2-0.9-2-2V229c0-1.1,0.9-2,2-2h49.3
		c1.1,0,2,0.9,2,2V296.1z"/>
</g>
<g id="XMLID_1200_">
	<path class="st10" d="M232,243.7c-1.6,0-3-1.3-3-3V231c0-1.6,1.3-3,3-3h9.7c1.6,0,3,1.3,3,3v9.7c0,1.6-1.3,3-3,3H232z"/>
	<path class="st0" d="M241.7,229.1c1,0,1.9,0.9,1.9,1.9v9.7c0,1-0.9,1.9-1.9,1.9H232c-1,0-1.9-0.9-1.9-1.9V231c0-1,0.9-1.9,1.9-1.9
		H241.7 M241.7,227H232c-2.2,0-4,1.8-4,4v9.7c0,2.2,1.8,4,4,4h9.7c2.2,0,4-1.8,4-4V231C245.8,228.8,243.9,227,241.7,227L241.7,227z"
		/>
</g>
<g id="XMLID_1199_">
	<path class="st10" d="M214.2,243.7c-1.6,0-3-1.3-3-3V231c0-1.6,1.3-3,3-3h9.7c1.6,0,3,1.3,3,3v9.7c0,1.6-1.3,3-3,3H214.2z"/>
	<path class="st0" d="M224,229.1c1,0,1.9,0.9,1.9,1.9v9.7c0,1-0.9,1.9-1.9,1.9h-9.7c-1,0-1.9-0.9-1.9-1.9V231c0-1,0.9-1.9,1.9-1.9
		H224 M224,227h-9.7c-2.2,0-4,1.8-4,4v9.7c0,2.2,1.8,4,4,4h9.7c2.2,0,4-1.8,4-4V231C228,228.8,226.2,227,224,227L224,227z"/>
</g>
<g id="XMLID_1198_">
	<path class="st11" d="M249.8,243.7c-1.6,0-3-1.3-3-3V231c0-1.6,1.3-3,3-3h9.7c1.6,0,3,1.3,3,3v9.7c0,1.6-1.3,3-3,3H249.8z"/>
	<path class="st0" d="M259.5,229.1c1,0,1.9,0.9,1.9,1.9v9.7c0,1-0.9,1.9-1.9,1.9h-9.7c-1,0-1.9-0.9-1.9-1.9V231c0-1,0.9-1.9,1.9-1.9
		H259.5 M259.5,227h-9.7c-2.2,0-4,1.8-4,4v9.7c0,2.2,1.8,4,4,4h9.7c2.2,0,4-1.8,4-4V231C263.5,228.8,261.7,227,259.5,227L259.5,227z
		"/>
</g>
<g id="XMLID_1196_">
	<path class="st10" d="M232,261.5c-1.6,0-3-1.3-3-3v-9.7c0-1.6,1.3-3,3-3h9.7c1.6,0,3,1.3,3,3v9.7c0,1.6-1.3,3-3,3H232z"/>
	<path class="st0" d="M241.7,246.9c1,0,1.9,0.9,1.9,1.9v9.7c0,1-0.9,1.9-1.9,1.9H232c-1,0-1.9-0.9-1.9-1.9v-9.7c0-1,0.9-1.9,1.9-1.9
		L241.7,246.9 M241.7,244.8H232c-2.2,0-4,1.8-4,4v9.7c0,2.2,1.8,4,4,4h9.7c2.2,0,4-1.8,4-4v-9.7
		C245.8,246.6,243.9,244.8,241.7,244.8L241.7,244.8z"/>
</g>
<g id="XMLID_1195_">
	<path class="st11" d="M214.2,261.5c-1.6,0-3-1.3-3-3v-9.7c0-1.6,1.3-3,3-3h9.7c1.6,0,3,1.3,3,3v9.7c0,1.6-1.3,3-3,3H214.2z"/>
	<g>
		<path class="st0" d="M224,246.9c1,0,1.9,0.9,1.9,1.9v9.7c0,1-0.9,1.9-1.9,1.9h-9.7c-1,0-1.9-0.9-1.9-1.9v-9.7c0-1,0.9-1.9,1.9-1.9
			L224,246.9 M224,244.8h-9.7c-2.2,0-4,1.8-4,4v9.7c0,2.2,1.8,4,4,4h9.7c2.2,0,4-1.8,4-4v-9.7C228,246.6,226.2,244.8,224,244.8
			L224,244.8z"/>
	</g>
</g>
<g id="XMLID_1194_">
	<path class="st11" d="M249.8,261.5c-1.6,0-3-1.3-3-3v-9.7c0-1.6,1.3-3,3-3h9.7c1.6,0,3,1.3,3,3v9.7c0,1.6-1.3,3-3,3H249.8z"/>
	<path class="st0" d="M259.5,246.9c1,0,1.9,0.9,1.9,1.9v9.7c0,1-0.9,1.9-1.9,1.9h-9.7c-1,0-1.9-0.9-1.9-1.9v-9.7
		c0-1,0.9-1.9,1.9-1.9L259.5,246.9 M259.5,244.8h-9.7c-2.2,0-4,1.8-4,4v9.7c0,2.2,1.8,4,4,4h9.7c2.2,0,4-1.8,4-4v-9.7
		C263.5,246.6,261.7,244.8,259.5,244.8L259.5,244.8z"/>
</g>
<g id="XMLID_1192_">
	<path class="st10" d="M232,279.2c-1.6,0-3-1.3-3-3v-9.7c0-1.6,1.3-3,3-3h9.7c1.6,0,3,1.3,3,3v9.7c0,1.6-1.3,3-3,3H232z"/>
	<path class="st0" d="M241.7,264.7c1,0,1.9,0.9,1.9,1.9v9.7c0,1-0.9,1.9-1.9,1.9H232c-1,0-1.9-0.9-1.9-1.9v-9.7c0-1,0.9-1.9,1.9-1.9
		H241.7 M241.7,262.5H232c-2.2,0-4,1.8-4,4v9.7c0,2.2,1.8,4,4,4h9.7c2.2,0,4-1.8,4-4v-9.7C245.8,264.4,243.9,262.5,241.7,262.5
		L241.7,262.5z"/>
</g>
<g id="XMLID_1191_">
	<path class="st10" d="M214.2,279.2c-1.6,0-3-1.3-3-3v-9.7c0-1.6,1.3-3,3-3h9.7c1.6,0,3,1.3,3,3v9.7c0,1.6-1.3,3-3,3H214.2z"/>
	<path class="st0" d="M224,264.7c1,0,1.9,0.9,1.9,1.9v9.7c0,1-0.9,1.9-1.9,1.9h-9.7c-1,0-1.9-0.9-1.9-1.9v-9.7c0-1,0.9-1.9,1.9-1.9
		H224 M224,262.5h-9.7c-2.2,0-4,1.8-4,4v9.7c0,2.2,1.8,4,4,4h9.7c2.2,0,4-1.8,4-4v-9.7C228,264.4,226.2,262.5,224,262.5L224,262.5z"
		/>
</g>
<g id="XMLID_1190_">
	<path class="st11" d="M249.8,279.2c-1.6,0-3-1.3-3-3v-9.7c0-1.6,1.3-3,3-3h9.7c1.6,0,3,1.3,3,3v9.7c0,1.6-1.3,3-3,3H249.8z"/>
	<path class="st0" d="M259.5,264.7c1,0,1.9,0.9,1.9,1.9v9.7c0,1-0.9,1.9-1.9,1.9h-9.7c-1,0-1.9-0.9-1.9-1.9v-9.7
		c0-1,0.9-1.9,1.9-1.9H259.5 M259.5,262.5h-9.7c-2.2,0-4,1.8-4,4v9.7c0,2.2,1.8,4,4,4h9.7c2.2,0,4-1.8,4-4v-9.7
		C263.5,264.4,261.7,262.5,259.5,262.5L259.5,262.5z"/>
</g>
<g id="XMLID_1188_">
	<path class="st10" d="M232,297c-1.6,0-3-1.3-3-3v-9.7c0-1.6,1.3-3,3-3h9.7c1.6,0,3,1.3,3,3v9.7c0,1.6-1.3,3-3,3H232z"/>
	<path class="st0" d="M241.7,282.4c1,0,1.9,0.9,1.9,1.9v9.7c0,1-0.9,1.9-1.9,1.9H232c-1,0-1.9-0.9-1.9-1.9v-9.7c0-1,0.9-1.9,1.9-1.9
		H241.7 M241.7,280.3H232c-2.2,0-4,1.8-4,4v9.7c0,2.2,1.8,4,4,4h9.7c2.2,0,4-1.8,4-4v-9.7C245.8,282.1,243.9,280.3,241.7,280.3
		L241.7,280.3z"/>
</g>
<g id="XMLID_1187_">
	<path class="st11" d="M249.8,297c-1.6,0-3-1.3-3-3v-9.7c0-1.6,1.3-3,3-3h9.7c1.6,0,3,1.3,3,3v9.7c0,1.6-1.3,3-3,3H249.8z"/>
	<path class="st0" d="M259.5,282.4c1,0,1.9,0.9,1.9,1.9v9.7c0,1-0.9,1.9-1.9,1.9h-9.7c-1,0-1.9-0.9-1.9-1.9v-9.7
		c0-1,0.9-1.9,1.9-1.9H259.5 M259.5,280.3h-9.7c-2.2,0-4,1.8-4,4v9.7c0,2.2,1.8,4,4,4h9.7c2.2,0,4-1.8,4-4v-9.7
		C263.5,282.1,261.7,280.3,259.5,280.3L259.5,280.3z"/>
</g>
<g id="XMLID_1185_">
	<path class="st0" d="M125.4,297c-1.6,0-3-1.3-3-3v-9.7c0-1.6,1.3-3,3-3h63c1.6,0,3,1.3,3,3v9.7c0,1.6-1.3,3-3,3H125.4z"/>
	<path class="st0" d="M188.4,282.4c1,0,1.9,0.9,1.9,1.9v9.7c0,1-0.9,1.9-1.9,1.9h-63c-1,0-1.9-0.9-1.9-1.9v-9.7c0-1,0.9-1.9,1.9-1.9
		H188.4 M188.4,280.3h-63c-2.2,0-4,1.8-4,4v9.7c0,2.2,1.8,4,4,4h63c2.2,0,4-1.8,4-4v-9.7C192.4,282.1,190.6,280.3,188.4,280.3
		L188.4,280.3z"/>
</g>
<g id="XMLID_1184_">
	<path class="st11" d="M178.7,297c-1.6,0-3-1.3-3-3v-9.7c0-1.6,1.3-3,3-3h9.7c1.6,0,3,1.3,3,3v9.7c0,1.6-1.3,3-3,3H178.7z"/>
	<path class="st0" d="M188.4,282.4c1,0,1.9,0.9,1.9,1.9v9.7c0,1-0.9,1.9-1.9,1.9h-9.7c-1,0-1.9-0.9-1.9-1.9v-9.7
		c0-1,0.9-1.9,1.9-1.9H188.4 M188.4,280.3h-9.7c-2.2,0-4,1.8-4,4v9.7c0,2.2,1.8,4,4,4h9.7c2.2,0,4-1.8,4-4v-9.7
		C192.4,282.1,190.6,280.3,188.4,280.3L188.4,280.3z"/>
</g>
<g id="XMLID_1183_">
	<path class="st10" d="M160.9,297c-1.6,0-3-1.3-3-3v-9.7c0-1.6,1.3-3,3-3h9.7c1.6,0,3,1.3,3,3v9.7c0,1.6-1.3,3-3,3H160.9z"/>
	<path class="st0" d="M170.6,282.4c1,0,1.9,0.9,1.9,1.9v9.7c0,1-0.9,1.9-1.9,1.9h-9.7c-1,0-1.9-0.9-1.9-1.9v-9.7
		c0-1,0.9-1.9,1.9-1.9H170.6 M170.6,280.3h-9.7c-2.2,0-4,1.8-4,4v9.7c0,2.2,1.8,4,4,4h9.7c2.2,0,4-1.8,4-4v-9.7
		C174.7,282.1,172.9,280.3,170.6,280.3L170.6,280.3z"/>
</g>
<g id="XMLID_1182_">
	<path class="st10" d="M143.2,297c-1.6,0-3-1.3-3-3v-9.7c0-1.6,1.3-3,3-3h9.7c1.6,0,3,1.3,3,3v9.7c0,1.6-1.3,3-3,3H143.2z"/>
	<path class="st0" d="M152.9,282.4c1,0,1.9,0.9,1.9,1.9v9.7c0,1-0.9,1.9-1.9,1.9h-9.7c-1,0-1.9-0.9-1.9-1.9v-9.7
		c0-1,0.9-1.9,1.9-1.9H152.9 M152.9,280.3h-9.7c-2.2,0-4,1.8-4,4v9.7c0,2.2,1.8,4,4,4h9.7c2.2,0,4-1.8,4-4v-9.7
		C156.9,282.1,155.1,280.3,152.9,280.3L152.9,280.3z"/>
</g>
<g id="XMLID_1181_">
	<path class="st10" d="M125.4,297c-1.6,0-3-1.3-3-3v-9.7c0-1.6,1.3-3,3-3h9.7c1.6,0,3,1.3,3,3v9.7c0,1.6-1.3,3-3,3H125.4z"/>
	<path class="st0" d="M135.1,282.4c1,0,1.9,0.9,1.9,1.9v9.7c0,1-0.9,1.9-1.9,1.9h-9.7c-1,0-1.9-0.9-1.9-1.9v-9.7
		c0-1,0.9-1.9,1.9-1.9H135.1 M135.1,280.3h-9.7c-2.2,0-4,1.8-4,4v9.7c0,2.2,1.8,4,4,4h9.7c2.2,0,4-1.8,4-4v-9.7
		C139.1,282.1,137.3,280.3,135.1,280.3L135.1,280.3z"/>
</g>
<g id="XMLID_1179_">
	<path class="st0" d="M36.6,297c-1.6,0-3-1.3-3-3v-9.7c0-1.6,1.3-3,3-3h63c1.6,0,3,1.3,3,3v9.7c0,1.6-1.3,3-3,3H36.6z"/>
	<path class="st0" d="M99.6,282.4c1,0,1.9,0.9,1.9,1.9v9.7c0,1-0.9,1.9-1.9,1.9h-63c-1,0-1.9-0.9-1.9-1.9v-9.7c0-1,0.9-1.9,1.9-1.9
		H99.6 M99.6,280.3h-63c-2.2,0-4,1.8-4,4v9.7c0,2.2,1.8,4,4,4h63c2.2,0,4-1.8,4-4v-9.7C103.6,282.1,101.8,280.3,99.6,280.3
		L99.6,280.3z"/>
</g>
<g id="XMLID_1178_">
	<path class="st11" d="M72.1,297c-1.6,0-3-1.3-3-3v-9.7c0-1.6,1.3-3,3-3h9.7c1.6,0,3,1.3,3,3v9.7c0,1.6-1.3,3-3,3H72.1z"/>
	<g>
		<path class="st0" d="M81.8,282.4c1,0,1.9,0.9,1.9,1.9v9.7c0,1-0.9,1.9-1.9,1.9h-9.7c-1,0-1.9-0.9-1.9-1.9v-9.7
			c0-1,0.9-1.9,1.9-1.9H81.8 M81.8,280.3h-9.7c-2.2,0-4,1.8-4,4v9.7c0,2.2,1.8,4,4,4h9.7c2.2,0,4-1.8,4-4v-9.7
			C85.8,282.1,84,280.3,81.8,280.3L81.8,280.3z"/>
	</g>
</g>
<g id="XMLID_1177_">
	<path class="st11" d="M54.3,297c-1.6,0-3-1.3-3-3v-9.7c0-1.6,1.3-3,3-3H64c1.6,0,3,1.3,3,3v9.7c0,1.6-1.3,3-3,3H54.3z"/>
	<g>
		<path class="st0" d="M64,282.4c1,0,1.9,0.9,1.9,1.9v9.7c0,1-0.9,1.9-1.9,1.9h-9.7c-1,0-1.9-0.9-1.9-1.9v-9.7c0-1,0.9-1.9,1.9-1.9
			H64 M64,280.3h-9.7c-2.2,0-4,1.8-4,4v9.7c0,2.2,1.8,4,4,4H64c2.2,0,4-1.8,4-4v-9.7C68.1,282.1,66.2,280.3,64,280.3L64,280.3z"/>
	</g>
</g>
<g id="XMLID_1176_">
	<path class="st10" d="M36.6,297c-1.6,0-3-1.3-3-3v-9.7c0-1.6,1.3-3,3-3h9.7c1.6,0,3,1.3,3,3v9.7c0,1.6-1.3,3-3,3H36.6z"/>
	<path class="st0" d="M46.3,282.4c1,0,1.9,0.9,1.9,1.9v9.7c0,1-0.9,1.9-1.9,1.9h-9.7c-1,0-1.9-0.9-1.9-1.9v-9.7c0-1,0.9-1.9,1.9-1.9
		H46.3 M46.3,280.3h-9.7c-2.2,0-4,1.8-4,4v9.7c0,2.2,1.8,4,4,4h9.7c2.2,0,4-1.8,4-4v-9.7C50.3,282.1,48.5,280.3,46.3,280.3
		L46.3,280.3z"/>
</g>
<g id="XMLID_1175_">
	<path class="st11" d="M89.9,297c-1.6,0-3-1.3-3-3v-9.7c0-1.6,1.3-3,3-3h9.7c1.6,0,3,1.3,3,3v9.7c0,1.6-1.3,3-3,3H89.9z"/>
	<path class="st0" d="M99.6,282.4c1,0,1.9,0.9,1.9,1.9v9.7c0,1-0.9,1.9-1.9,1.9h-9.7c-1,0-1.9-0.9-1.9-1.9v-9.7c0-1,0.9-1.9,1.9-1.9
		H99.6 M99.6,280.3h-9.7c-2.2,0-4,1.8-4,4v9.7c0,2.2,1.8,4,4,4h9.7c2.2,0,4-1.8,4-4v-9.7C103.6,282.1,101.8,280.3,99.6,280.3
		L99.6,280.3z"/>
</g>
<rect id="XMLID_1173_" x="121.4" y="227" class="st0" width="71.1" height="17.8"/>
<rect id="XMLID_1172_" x="32.5" y="227" class="st0" width="71.1" height="17.8"/>
<rect id="XMLID_1171_" x="121.4" y="247.1" class="st0" width="71.1" height="17.8"/>
<rect id="XMLID_1170_" x="121.4" y="244.8" class="st12" width="71.1" height="17.8"/>
<rect id="XMLID_1169_" x="32.5" y="247.1" class="st0" width="71.1" height="17.8"/>
<rect id="XMLID_1168_" x="32.5" y="244.8" class="st12" width="71.1" height="17.8"/>
<line id="XMLID_1167_" class="st13" x1="39.1" y1="235" x2="39.1" y2="230.1"/>
<line id="XMLID_1166_" class="st13" x1="39.9" y1="229.2" x2="44.9" y2="229.2"/>
<line id="XMLID_1165_" class="st13" x1="39.9" y1="242.5" x2="44.9" y2="242.5"/>
<line id="XMLID_1164_" class="st13" x1="45.8" y1="230.1" x2="45.8" y2="235"/>
<line id="XMLID_1163_" class="st13" x1="45.8" y1="236.8" x2="45.8" y2="241.6"/>
<line id="XMLID_1162_" class="st13" x1="39.1" y1="236.8" x2="39.1" y2="241.6"/>
<line id="XMLID_1161_" class="st13" x1="39.9" y1="235.9" x2="44.9" y2="235.9"/>
<line id="XMLID_1159_" class="st13" x1="49.3" y1="235" x2="49.3" y2="230.1"/>
<line id="XMLID_1158_" class="st13" x1="50.2" y1="229.2" x2="55.1" y2="229.2"/>
<line id="XMLID_1157_" class="st13" x1="50.2" y1="242.5" x2="55.1" y2="242.5"/>
<line id="XMLID_1156_" class="st13" x1="56" y1="230.1" x2="56" y2="235"/>
<line id="XMLID_1155_" class="st13" x1="56" y1="236.8" x2="56" y2="241.6"/>
<line id="XMLID_1154_" class="st13" x1="49.3" y1="236.8" x2="49.3" y2="241.6"/>
<line id="XMLID_1153_" class="st13" x1="50.2" y1="235.9" x2="55.1" y2="235.9"/>
<line id="XMLID_1151_" class="st14" x1="59.5" y1="235" x2="59.5" y2="230.1"/>
<line id="XMLID_1150_" class="st14" x1="60.4" y1="229.2" x2="65.3" y2="229.2"/>
<line id="XMLID_1149_" class="st14" x1="60.4" y1="242.5" x2="65.3" y2="242.5"/>
<line id="XMLID_1148_" class="st14" x1="66.2" y1="230.1" x2="66.2" y2="235"/>
<line id="XMLID_1147_" class="st14" x1="66.2" y1="236.8" x2="66.2" y2="241.6"/>
<line id="XMLID_1146_" class="st14" x1="59.5" y1="236.8" x2="59.5" y2="241.6"/>
<line id="XMLID_1145_" class="st14" x1="60.4" y1="235.9" x2="65.3" y2="235.9"/>
<line id="XMLID_1143_" class="st14" x1="69.8" y1="235" x2="69.8" y2="230.1"/>
<line id="XMLID_1142_" class="st14" x1="70.6" y1="229.2" x2="75.6" y2="229.2"/>
<line id="XMLID_1141_" class="st14" x1="70.6" y1="242.5" x2="75.6" y2="242.5"/>
<line id="XMLID_1140_" class="st14" x1="76.4" y1="230.1" x2="76.4" y2="235"/>
<line id="XMLID_1139_" class="st14" x1="76.4" y1="236.8" x2="76.4" y2="241.6"/>
<line id="XMLID_1138_" class="st14" x1="69.8" y1="236.8" x2="69.8" y2="241.6"/>
<line id="XMLID_1137_" class="st14" x1="70.6" y1="235.9" x2="75.6" y2="235.9"/>
<line id="XMLID_1134_" class="st14" x1="80" y1="235" x2="80" y2="230.1"/>
<line id="XMLID_1133_" class="st14" x1="80.8" y1="229.2" x2="85.8" y2="229.2"/>
<line id="XMLID_1132_" class="st14" x1="80.8" y1="242.5" x2="85.8" y2="242.5"/>
<line id="XMLID_1131_" class="st14" x1="86.6" y1="230.1" x2="86.6" y2="235"/>
<line id="XMLID_1130_" class="st14" x1="86.6" y1="236.8" x2="86.6" y2="241.6"/>
<line id="XMLID_1129_" class="st14" x1="80" y1="236.8" x2="80" y2="241.6"/>
<line id="XMLID_1128_" class="st14" x1="80.8" y1="235.9" x2="85.8" y2="235.9"/>
<line id="XMLID_1126_" class="st14" x1="90.2" y1="235" x2="90.2" y2="230.1"/>
<line id="XMLID_1125_" class="st14" x1="91.1" y1="229.2" x2="96" y2="229.2"/>
<line id="XMLID_1124_" class="st14" x1="91.1" y1="242.5" x2="96" y2="242.5"/>
<line id="XMLID_1123_" class="st14" x1="96.9" y1="230.1" x2="96.9" y2="235"/>
<line id="XMLID_1122_" class="st14" x1="96.9" y1="236.8" x2="96.9" y2="241.6"/>
<line id="XMLID_1121_" class="st14" x1="90.2" y1="236.8" x2="90.2" y2="241.6"/>
<line id="XMLID_1120_" class="st14" x1="91.1" y1="235.9" x2="96" y2="235.9"/>
<line id="XMLID_1116_" class="st13" x1="128" y1="235" x2="128" y2="230.1"/>
<line id="XMLID_1115_" class="st13" x1="128.9" y1="229.2" x2="133.8" y2="229.2"/>
<line id="XMLID_1114_" class="st13" x1="128.9" y1="242.5" x2="133.8" y2="242.5"/>
<line id="XMLID_1113_" class="st13" x1="134.7" y1="230.1" x2="134.7" y2="235"/>
<line id="XMLID_1112_" class="st13" x1="134.7" y1="236.8" x2="134.7" y2="241.6"/>
<line id="XMLID_1111_" class="st13" x1="128" y1="236.8" x2="128" y2="241.6"/>
<line id="XMLID_1110_" class="st13" x1="128.9" y1="235.9" x2="133.8" y2="235.9"/>
<line id="XMLID_1108_" class="st13" x1="138.2" y1="235" x2="138.2" y2="230.1"/>
<line id="XMLID_1107_" class="st13" x1="139.1" y1="229.2" x2="144" y2="229.2"/>
<line id="XMLID_1106_" class="st13" x1="139.1" y1="242.5" x2="144" y2="242.5"/>
<line id="XMLID_1105_" class="st13" x1="144.9" y1="230.1" x2="144.9" y2="235"/>
<line id="XMLID_1104_" class="st13" x1="144.9" y1="236.8" x2="144.9" y2="241.6"/>
<line id="XMLID_1103_" class="st13" x1="138.2" y1="236.8" x2="138.2" y2="241.6"/>
<line id="XMLID_1102_" class="st13" x1="139.1" y1="235.9" x2="144" y2="235.9"/>
<line id="XMLID_1100_" class="st13" x1="148.5" y1="235" x2="148.5" y2="230.1"/>
<line id="XMLID_1099_" class="st13" x1="149.3" y1="229.2" x2="154.3" y2="229.2"/>
<line id="XMLID_1098_" class="st13" x1="149.3" y1="242.5" x2="154.3" y2="242.5"/>
<line id="XMLID_1097_" class="st13" x1="155.1" y1="230.1" x2="155.1" y2="235"/>
<line id="XMLID_1096_" class="st13" x1="155.1" y1="236.8" x2="155.1" y2="241.6"/>
<line id="XMLID_1095_" class="st13" x1="148.5" y1="236.8" x2="148.5" y2="241.6"/>
<line id="XMLID_1094_" class="st13" x1="149.3" y1="235.9" x2="154.3" y2="235.9"/>
<line id="XMLID_1092_" class="st13" x1="158.7" y1="235" x2="158.7" y2="230.1"/>
<line id="XMLID_1091_" class="st13" x1="159.6" y1="229.2" x2="164.5" y2="229.2"/>
<line id="XMLID_1090_" class="st13" x1="159.6" y1="242.5" x2="164.5" y2="242.5"/>
<line id="XMLID_1089_" class="st13" x1="165.4" y1="230.1" x2="165.4" y2="235"/>
<line id="XMLID_1088_" class="st13" x1="165.4" y1="236.8" x2="165.4" y2="241.6"/>
<line id="XMLID_1087_" class="st13" x1="158.7" y1="236.8" x2="158.7" y2="241.6"/>
<line id="XMLID_1086_" class="st13" x1="159.6" y1="235.9" x2="164.5" y2="235.9"/>
<line id="XMLID_1082_" class="st13" x1="168.9" y1="235" x2="168.9" y2="230.1"/>
<line id="XMLID_1081_" class="st13" x1="169.8" y1="229.2" x2="174.7" y2="229.2"/>
<line id="XMLID_1080_" class="st13" x1="169.8" y1="242.5" x2="174.7" y2="242.5"/>
<line id="XMLID_1079_" class="st13" x1="175.6" y1="230.1" x2="175.6" y2="235"/>
<line id="XMLID_1078_" class="st13" x1="175.6" y1="236.8" x2="175.6" y2="241.6"/>
<line id="XMLID_1077_" class="st13" x1="168.9" y1="236.8" x2="168.9" y2="241.6"/>
<line id="XMLID_1076_" class="st13" x1="169.8" y1="235.9" x2="174.7" y2="235.9"/>
<line id="XMLID_1074_" class="st15" x1="179.1" y1="235" x2="179.1" y2="230.1"/>
<line id="XMLID_1073_" class="st15" x1="180" y1="229.2" x2="184.9" y2="229.2"/>
<line id="XMLID_1072_" class="st15" x1="180" y1="242.5" x2="184.9" y2="242.5"/>
<line id="XMLID_1071_" class="st15" x1="185.8" y1="230.1" x2="185.8" y2="235"/>
<line id="XMLID_1070_" class="st15" x1="185.8" y1="236.8" x2="185.8" y2="241.6"/>
<line id="XMLID_1069_" class="st15" x1="179.1" y1="236.8" x2="179.1" y2="241.6"/>
<line id="XMLID_1068_" class="st15" x1="180" y1="235.9" x2="184.9" y2="235.9"/>
<rect id="XMLID_1064_" x="32.5" y="191.5" class="st12" width="231" height="17.8"/>
<rect id="XMLID_1063_" x="50.3" y="111.5" class="st10" width="8.9" height="57.8"/>
<path id="XMLID_1062_" class="st0" d="M133.2,114.9c-5.6,0-10.2,4.5-10.2,10.2c0,0.3,0,0.7,0.1,1H123l4.2,43.1h14.5l1.6-44.2
	C143.3,119.5,138.8,114.9,133.2,114.9z"/>
<path id="XMLID_1061_" class="st0" d="M164.5,114.9c5.6,0,10.2,4.5,10.2,10.2c0,0.3,0,0.7-0.1,1h0.1l-4.2,43.1H156l-1.6-44.2
	C154.4,119.5,158.9,114.9,164.5,114.9z"/>
<rect id="XMLID_1059_" x="236.9" y="111.5" class="st10" width="8.9" height="57.8"/>
<rect id="XMLID_1058_" x="14.8" y="169.3" class="st12" width="266.5" height="4.4"/>
<polygon id="XMLID_1057_" class="st16" points="263.5,191.5 32.5,191.5 14.8,173.7 281.3,173.7 "/>
<path id="XMLID_1054_" class="st2" d="M155.5,43.9v15.6c0,4.1-3.4,7.5-7.5,7.5s-7.5-3.4-7.5-7.5V43.9H155.5z"/>
<rect id="XMLID_1049_" x="379" y="313.8" class="st17" width="13" height="2.1"/>
<polygon id="XMLID_1048_" class="st18" points="432.9,307.7 426.1,307.7 426.1,303.5 433.7,303.5 "/>
<polygon id="XMLID_1047_" class="st18" points="458.6,307.7 451.9,307.7 451.9,303.5 459.5,303.5 "/>
<polygon id="XMLID_1046_" class="st18" points="442.3,212.9 444,218.4 451,229.2 453.4,225.2 450.5,211.2 "/>
<path class="st19" d="M454.5,254.8c-5.5-24.2-5.8-33.4-5.6-37.7c0,0-0.4-10.2-5.5-14.5l-30.3,2.8c2.3,19.3,6.1,40.1,8.2,54.6
	s4.7,39.3,4.7,44.1h7.6c0,0,3.8-23.9,0.9-43.6c-1.3-8.8-1.9-20-2.1-29.8c6.5,16.2,14.7,41.6,19,73.4h8.3
	C459.7,304.1,461.6,281.8,454.5,254.8z"/>
<path class="st11" d="M451.6,212.5c0,0-2.6-9.8-9.5-30c-0.7-4-1.4-7.9-1.9-11.7c-2.4-15.7-2.8-20.3-7.8-21.5
	c-5.1-1.1-16.7-0.7-17.8,3.2c-1.1,3.9-5.3,14.7-5.5,17.1c-0.2,2.4,2.6,40.5,4.5,48.1s19.9,9.9,25.6,0c2.1-5.4,2.1-5.4,2.1-5.4
	s0.9,1.2,2.3,2.7l0,0l0,0c1.6,1.6,3.9,3.6,6.6,4.8c-0.5-2.1-1-4.2-1.5-6.3L451.6,212.5z"/>
<path id="XMLID_1041_" class="st20" d="M432.9,307.7h-6.8c0,0-1.4,0.7-3.2,1.6c-7.8,3.6-13.5,5-13.5,5v1.5h24.8c0,0,0.6-1.7,0.1-4.1
	C433.8,309.4,432.9,307.7,432.9,307.7z"/>
<path id="XMLID_1040_" class="st20" d="M458.7,307.7h-6.8l-9.2,6.6v1.5H460c0,0,0.6-1.7,0.1-4.1
	C459.6,309.4,458.7,307.7,458.7,307.7z"/>
<path id="XMLID_1039_" class="st18" d="M422.8,219.8c2.5,0.1,6.8,0.5,6.8,0.5v18.6c-4.4-1.4-5.1-1.6-5.1-1.6l-2.4-9.6L422.8,219.8z"
	/>
<path id="XMLID_1038_" class="st21" d="M429.6,220.2c0,0,7.1-14.4,8.9-45.1c-0.4,25.3-6.2,48.1-6.2,48.1l-2.7,0.7L429.6,220.2
	L429.6,220.2z"/>
<path class="st18" d="M426.8,117.6c-7.2-4-14.2,1.5-17,12.3l-4.6,4.5l3.6,1.9c-0.5,9.3,4.8,9.4,8.7,8.6l0.8,5.8c0,0-0.2,1.8,2.1,1.8
	c2.4,0,5.1-2.6,5.1-2.6c1.4-1.1,3.4-1.1,3.4-1.1l-1.2-10.8C431.4,132,435,122.1,426.8,117.6z"/>
<path class="st10" d="M440.3,136.5c-0.5-6.1-2.7-14-8.7-19.1c-5-4.3-13.3-3.4-18.9,0.2c-2.5,1.3-4.5,9.1-4.5,9.1l7.8,1.5
	c0,0.4-0.1,0.7-0.1,1.1c-0.6,4.5-7.7,14.6,3,17.8C429.6,148,441.3,149.2,440.3,136.5z"/>
<path id="XMLID_1032_" class="st21" d="M422,147c0,0,3.6-4.6,3.8-8.2c-0.2,8.7-0.2,8.7-0.2,8.7L422,147z"/>
<path id="XMLID_1029_" class="st22" d="M494.6,295.1c0,0-10.3-36.5-14.7-59.2c-3.8-19.7-2.2-21.2-1.3-18.3l18.4,65.2L494.6,295.1z"
	/>
<path id="XMLID_1023_" class="st11" d="M486.3,122.2c-2.2,1.2,2.7,1.7,4.1,6.8c2.2,7.8,3.5,7,3.5,7s2.7-6.5,6-2.6
	c1.3,1.6,0.6,4.6-1.2,6.1c-0.8,0.6-1.5,0.7-1.5,0.7s1.7,1.3,2.7,2.7c1.3,1.7,2.5,4.2,2.5,4.2c0-3.6,10.8-4.9,7.6-16.4
	C506,115.9,492.3,119,486.3,122.2z"/>
<path class="st20" d="M519.8,182.6c-0.1-0.9-0.2-1.6-0.4-2.4c-0.9-9.4-3.4-28-10.6-29.7c-1.5-0.4-3-0.4-4.7-0.3h0.1L503,148
	c0,0,0-0.1-3.4,1.2c-1.2,0.5-2.6,1.3-4,2.1c-1.5,0.9-2.9,1.8-4,2.5c0,0-0.5-0.6-1-1.2c-0.4-0.5-0.7-1-0.8-1.3
	c-0.8,0.1-1.1,1.3-1.2,2.2c-1.5,0.8-2.7,1.7-3.5,2.8c-5.7,8.4-14.3,28.9-16.2,44.7c-1.6,13.4-1,31.3-1,31.3l45.3-1.7l-0.2-14.8
	l0.7-0.8C513.6,215.1,522.2,200.4,519.8,182.6z"/>
<path id="XMLID_1018_" class="st17" d="M494.5,156.7l-1.7-2.7l-1.9,2.7c0,0-11.8,19.8-13.5,51.4c3.7-30.4,13.9-51,13.9-51
	L494.5,156.7z"/>
<path id="XMLID_1016_" class="st1" d="M339,315.9h31.2v-6.8l-13.8-2.3c0,0-16.1,5.8-17.4,7L339,315.9L339,315.9z"/>
<rect id="XMLID_1015_" x="339" y="313.8" class="st1" width="31.2" height="2.1"/>
<path class="st20" d="M381.2,247.3c-5-15.3-8-32-8-32s4.3-8.9-0.1-15.9c-0.8-1.3-1.8-2.3-2.8-3.2c-4.8-9.7-18.3-2.2-18.3-2.2
	l-8.5,6.8c0,0,8,97.2,13,105.9c4.8,2.5,14.7,4.6,14.7,4.6l-0.8-37.8c6.1,13.1,13.1,23.8,20.6,27.3c6.6,1.9,14.8,2.9,14.8,2.9
	S386.1,262.6,381.2,247.3z"/>
<path class="st23" d="M372,172.8c-0.4,3.8-0.8,7.7-1,11.4l4.1-6.1C375.1,178,373.8,175.9,372,172.8L372,172.8z"/>
<path class="st19" d="M371.2,138.9L371.2,138.9c-2.1-1.8-5-2.2-8.6-0.7c-3.7,1.5-22.6,13.6-22.6,69l20.8-3.3l4.2,3.3
	c0,0,9.6-6.6,14.1-12.1c6.1-7.4,11-14.7,11-14.7S375.6,139.5,371.2,138.9z M371,184.2c0.3-3.7,0.6-7.6,1-11.4l0,0
	c1.8,3.1,3,5.2,3,5.2L371,184.2z"/>
<polygon id="XMLID_1007_" class="st3" points="365,207.2 355.2,207.2 358.9,202.4 "/>
<path id="XMLID_1005_" class="st0" d="M361.7,102.9c0,0,1.9,4.3,7.1,5.1c4.2,0.6,4.2,4.2,0.2,5.5c-4.6,1.5-5.3,5-5.3,5
	c1.2,0.6,1.6,1,1.6,1s3-3.3,4.5-0.8s0.4,6.9-4,6.6c-0.6,6.3,3.3,8.6,3.3,8.6s0.6-4.6,2.1-5.4c1.5-0.8,11.4-6.7,9.8-13.2
	c-0.9-2.1-2-2.5-2-2.5s2-2-1.2-6C374.5,102.7,370.1,100.5,361.7,102.9z"/>
<polygon id="XMLID_1004_" class="st21" points="358.9,202.4 365,207.2 358.4,203.1 "/>
<polygon id="XMLID_1003_" class="st24" points="362.4,315.9 362.4,314.8 359.4,315.8 "/>
<path id="XMLID_1002_" class="st1" d="M392.1,315.8l0.2-0.1l0,0c0.3-0.2,1-0.6,2.6-1.5c2.9-1.6,4.9-3.5,4.9-3.5l0.7,0.9l0.9-0.5
	l5.6-2.8l-0.4-0.7l-2-3.9l-11.7-2.2c0,0-3.5,10-13.9,12.3v2.1L392.1,315.8L392.1,315.8C392.1,315.9,392.1,315.8,392.1,315.8z"/>
<line id="XMLID_1001_" class="st25" x1="530.1" y1="315.4" x2="327.2" y2="315.4"/>
<path id="XMLID_995_" class="st21" d="M148,50.2c-5.8,0-10.6-1.5-11.2-7.1c0,0.4-0.1,0.9-0.1,1.3c0,17.1,11.3,17.1,11.3,17.1
	s11.3,0,11.3-17.1c0-0.4,0-0.9-0.1-1.3C158.6,48.7,153.8,50.2,148,50.2z"/>
<path class="st26" d="M162.7,45.1c-0.6,4.6-3,5.2-3.9,4.7c-0.4-0.2-0.4-1.5-0.3-3C156.9,52.7,152.8,59,148,59
	c-4.9,0-9.2-6.8-10.7-12.7c0.2,1.7,0.2,3.4-0.2,3.6c-0.9,0.4-3.2-0.2-3.9-4.7c-0.6-4.2,2.9-3,3.5-2.8c0-0.1,0-0.3,0-0.4
	c0-6.2,5.1-11.3,11.3-11.3c6.3,0,11.3,5.1,11.3,11.3c0,0.1,0,0.2,0,0.3C160.2,42,163.2,41.2,162.7,45.1z"/>
<path id="XMLID_993_" class="st11" d="M159.3,42.3c0,0,0.1,3.9,0.6,7c1.5,11.3-9,14.9-12.5,14.9s-0.5-1.3-3.1-2.3
	c-2.5-1-8.9,0.5-8-12.6c0.4-3.8,0.4-6.2,0.4-6.2s1.9,10.1,9,6.9c4,0,4,0,4,0S157,52.8,159.3,42.3z"/>
<path id="XMLID_992_" class="st11" d="M136.8,43.1c0,0,0.8-5,4.4-6c2.1-0.5,5.7,2.3,9.5,3.3c7.9,2,9.9-1,9.9-1s-0.1-4.6-2.8-7.9
	c-3.5-4.5-10.6-7.3-17.8,1C136.1,33.1,134.8,38.7,136.8,43.1z"/>
<path class="st27" d="M150.6,50L150.6,50l-1.3-2.8l-1.3-2.8l-1.3,2.8l-1.3,2.8l0,0c-0.1,0.1-0.1,0.1-0.1,0.2c0,0.5,1.2,0.9,2.7,0.9
	s2.7-0.4,2.7-0.9C150.7,50.1,150.7,50.1,150.6,50z"/>
<path id="XMLID_982_" class="st28" d="M198.7,46.2c0,0,16,1.7,16,21.9c0,9.3,0,18.1,0,32.3"/>
<g id="XMLID_976_">
	<g id="XMLID_978_">
		<path id="XMLID_981_" class="st29" d="M198.7,46.2c0,0,0.1,0,0.3,0"/>
		<path id="XMLID_980_" class="st30" d="M200.4,46.6c4.1,1.1,14.2,5.5,14.2,21.5c0,9.1,0,17.7,0,31.2"/>
		<path id="XMLID_979_" class="st29" d="M214.7,100.1c0,0.1,0,0.2,0,0.4"/>
	</g>
</g>
<rect x="121.4" y="67.1" class="st31" width="53.3" height="1"/>
<polygon class="st20" points="198.2,49.5 200.3,50.1 202.2,43.2 199.2,42.4 199.5,40.1 190.8,37.7 186.2,48.9 176.6,58.5 
	201.4,65.2 197.9,52.1 "/>
<line id="XMLID_624_" class="st32" x1="197.9" y1="42.4" x2="196.9" y2="49.2"/>
<line class="st32" x1="196.2" y1="41.9" x2="194.8" y2="48.6"/>
<line class="st32" x1="194.5" y1="41.5" x2="192.7" y2="48"/>
<line class="st32" x1="192.8" y1="41" x2="190.6" y2="47.5"/>
<line id="XMLID_620_" class="st32" x1="191.1" y1="40.6" x2="188.5" y2="46.9"/>
<rect id="XMLID_957_" x="201.3" y="99.9" class="st0" width="26.7" height="2.8"/>
<polygon id="XMLID_956_" class="st10" points="214.7,97.1 214.7,97.1 201.3,99.9 228,99.9 "/>
<rect id="XMLID_954_" x="50.3" y="107.1" class="st33" width="195.5" height="8.9"/>
<rect id="XMLID_953_" x="50.3" y="151.5" class="st33" width="8.9" height="8.9"/>
<rect id="XMLID_952_" x="236.9" y="151.5" class="st33" width="8.9" height="8.9"/>
<polygon class="st10" points="245.8,102.6 245.8,111.5 50.3,111.5 50.3,102.6 121.4,102.6 121.4,68.1 174.7,68.1 174.7,102.6 "/>
<rect id="XMLID_950_" x="50.3" y="115.9" class="st10" width="195.5" height="40"/>
<line id="XMLID_949_" class="st13" x1="263.5" y1="166.2" x2="281.3" y2="166.2"/>
<line id="XMLID_948_" class="st13" x1="272.4" y1="162.5" x2="281.3" y2="162.5"/>
<line id="XMLID_947_" class="st13" x1="32.8" y1="166.2" x2="15" y2="166.2"/>
<line id="XMLID_946_" class="st13" x1="23.9" y1="162.5" x2="15" y2="162.5"/>
<g id="XMLID_944_">
	<path class="st11" d="M214.2,297c-1.6,0-3-1.3-3-3v-9.7c0-1.6,1.3-3,3-3h9.7c1.6,0,3,1.3,3,3v9.7c0,1.6-1.3,3-3,3H214.2z"/>
	<g>
		<path class="st0" d="M224,282.4c1,0,1.9,0.9,1.9,1.9v9.7c0,1-0.9,1.9-1.9,1.9h-9.7c-1,0-1.9-0.9-1.9-1.9v-9.7c0-1,0.9-1.9,1.9-1.9
			H224 M224,280.3h-9.7c-2.2,0-4,1.8-4,4v9.7c0,2.2,1.8,4,4,4h9.7c2.2,0,4-1.8,4-4v-9.7C228,282.1,226.2,280.3,224,280.3L224,280.3z
			"/>
	</g>
</g>
<path class="st34" d="M174.7,68.1h-7.6l-34.5,34.5c10.4,0,31.1,0,42.1,0L174.7,68.1L174.7,68.1z"/>
<polygon class="st35" points="174.7,68.1 174.7,67.1 168.1,67.1 167.1,68.1 "/>
<path class="st36" d="M174.7,68.1v34.5c3.1,0,5.4,0,6.5,0c8.1,0,9.8-6.2,9.8-6.2c-1-9-8-22.9-19.3-32.8l-3.5,3.5h6.6L174.7,68.1
	L174.7,68.1z"/>
<path class="st21" d="M371.5,177.5l0.5-4.7c-2.7-4.8-6.6-12-8.9-17.4L371.5,177.5z"/>
<path class="st2" d="M510,219.8c0,0,0.4-0.7,1-1.8l-8.5-1.3l-0.5,3.1v16.1h10.4l1.6-6.6h-1.6L510,219.8z"/>
<polygon id="XMLID_1013_" class="st0" points="372.3,278 368,269.2 369.4,233.3 "/>
</svg>
