<?xml version="1.0" encoding="utf-8"?>
<!-- Generator: Adobe Illustrator 16.0.0, SVG Export Plug-In . SVG Version: 6.00 Build 0)  -->
<!DOCTYPE svg PUBLIC "-//W3C//DTD SVG 1.1//EN" "http://www.w3.org/Graphics/SVG/1.1/DTD/svg11.dtd">
<svg version="1.1" id="Layer_1" xmlns="http://www.w3.org/2000/svg" xmlns:xlink="http://www.w3.org/1999/xlink" x="0px" y="0px"
	 width="20px" height="15px" viewBox="0 0 20 15" enable-background="new 0 0 20 15" xml:space="preserve">
<g>
	<g>
		<path fill="#C6C6C6" d="M3.089,9.021c0.343,0.352,0.783,0.63,1.359,0.63c0.621,0,1.054-0.324,1.054-0.863
			c0-0.595-0.378-0.973-1.684-0.973V7.06c1.124,0,1.494-0.388,1.494-0.919c0-0.478-0.324-0.765-0.846-0.765
			c-0.45,0-0.802,0.216-1.152,0.54l-0.531-0.64c0.486-0.432,1.035-0.72,1.72-0.72c1.098,0,1.854,0.54,1.854,1.513
			c0,0.639-0.378,1.07-1,1.314v0.035c0.677,0.18,1.189,0.666,1.189,1.423c0,1.044-0.91,1.656-2.006,1.656
			c-0.929,0-1.541-0.36-1.947-0.81L3.089,9.021z"/>
		<path fill="#C6C6C6" d="M10.938,10.39l-1.27-2.305H8.776v2.305H7.733V4.503h1.98c1.225,0,2.17,0.432,2.17,1.746
			c0,0.9-0.469,1.44-1.18,1.684l1.404,2.457H10.938z M8.776,7.257h0.828c0.812,0,1.244-0.342,1.244-1.008
			c0-0.676-0.433-0.909-1.244-0.909H8.776V7.257z"/>
		<path fill="#C6C6C6" d="M13.097,4.503h1.566c1.801,0,2.872,0.972,2.872,2.916c0,1.954-1.071,2.971-2.818,2.971h-1.62V4.503z
			 M14.591,9.544c1.188,0,1.873-0.676,1.873-2.125c0-1.439-0.685-2.07-1.873-2.07H14.14v4.195H14.591z"/>
	</g>
	<path fill="#C6C6C6" d="M19,3v9H1V3H19 M20,2H0v11h20V2L20,2z"/>
</g>
</svg>
