<?xml version="1.0" encoding="utf-8"?>
<!-- Generator: Adobe Illustrator 16.0.0, SVG Export Plug-In . SVG Version: 6.00 Build 0)  -->
<!DOCTYPE svg PUBLIC "-//W3C//DTD SVG 1.1//EN" "http://www.w3.org/Graphics/SVG/1.1/DTD/svg11.dtd">
<svg version="1.1" id="Layer_1" xmlns="http://www.w3.org/2000/svg" xmlns:xlink="http://www.w3.org/1999/xlink" x="0px" y="0px"
	 width="20px" height="20px" viewBox="0 0 20 20" enable-background="new 0 0 20 20" xml:space="preserve">
<g>
	<path id="XMLID_2430_" fill="#96B3F9" d="M2.36,2.454L2.36,2.454C2.359,2.463,2.359,2.471,2.358,2.479
		C2.357,2.49,2.352,2.501,2.352,2.511C2.35,2.531,2.344,2.552,2.344,2.571v8.284v6.568c0,0.721,0.602,1.326,1.322,1.326h13.979
		V3.449H8.902v6.543L7.262,8.899L5.623,9.992V3.449H3.666c-0.058,0-0.114-0.006-0.17-0.014c-0.016,0.001-0.032,0-0.049,0
		C2.882,3.436,2.416,3.005,2.36,2.454z"/>
	<path id="XMLID_2431_" fill="#FFFFFF" d="M5.623,3.449v6.543l1.639-1.093l1.641,1.093V3.449h8.742h0.012l-1.094-2.187h-1.311H3.666
		c-0.018,0-0.035-0.001-0.053,0C3.559,1.255,3.504,1.25,3.447,1.25c-0.604,0-1.092,0.488-1.092,1.092
		c0,0.038,0.002,0.075,0.005,0.111c0.056,0.552,0.521,0.981,1.087,0.981c0.017,0,0.033,0.002,0.049,0.001
		c0.056,0.008,0.112,0.014,0.17,0.014H5.623z"/>
</g>
</svg>
