<?xml version="1.0" encoding="utf-8"?>
<!-- Generator: Adobe Illustrator 16.0.0, SVG Export Plug-In . SVG Version: 6.00 Build 0)  -->
<!DOCTYPE svg PUBLIC "-//W3C//DTD SVG 1.1//EN" "http://www.w3.org/Graphics/SVG/1.1/DTD/svg11.dtd">
<svg version="1.1" id="Layer_1" xmlns="http://www.w3.org/2000/svg" xmlns:xlink="http://www.w3.org/1999/xlink" x="0px" y="0px"
	 width="20px" height="20px" viewBox="0 0 20 20" enable-background="new 0 0 20 20" xml:space="preserve">
<path id="XMLID_804_" fill="#8297A5" d="M1.264,3.817C1.266,3.8,1.268,3.781,1.271,3.764C1.268,3.781,1.266,3.8,1.264,3.817z"/>
<path id="XMLID_294_" fill="#BFE8CC" d="M2.75,5.013h13.498V4.014c0-0.825-0.676-1.5-1.5-1.5H2.75c-0.74,0-1.358,0.543-1.479,1.249
	C1.392,4.47,2.01,5.013,2.75,5.013z"/>
<path id="XMLID_289_" fill="#8297A5" d="M1.256,3.879C1.258,3.863,1.26,3.848,1.262,3.832C1.26,3.848,1.258,3.863,1.256,3.879z"/>
<path id="XMLID_158_" fill="#8297A5" d="M1.252,3.944c0-0.012,0.001-0.023,0.002-0.035C1.254,3.921,1.252,3.933,1.252,3.944z"/>
<path id="XMLID_154_" fill="#FFFFFF" d="M17.25,5.013h-1h-0.002H2.75c-0.74,0-1.358-0.543-1.479-1.25l0,0v0.001
	C1.268,3.781,1.266,3.8,1.264,3.817c-0.001,0.005-0.002,0.01-0.002,0.015C1.26,3.848,1.258,3.863,1.256,3.879
	c0,0.01-0.001,0.021-0.002,0.03C1.253,3.921,1.252,3.933,1.252,3.944C1.25,3.968,1.25,3.99,1.25,4.014v2.499v6.976v2.498
	c0,0.824,0.675,1.5,1.5,1.5h14.5c0.824,0,1.5-0.676,1.5-1.5v-1.611c-1.727,0-3.125-1.398-3.125-3.125
	c0-1.725,1.398-3.124,3.125-3.124V6.513C18.75,5.688,18.074,5.013,17.25,5.013z"/>
<path id="XMLID_153_" fill="#BFE8CC" d="M15.625,11.25c0,1.727,1.398,3.125,3.125,3.125v-0.08v-1.25V9.376v-1.25
	C17.023,8.126,15.625,9.525,15.625,11.25z"/>
</svg>
