<?xml version="1.0" encoding="utf-8"?>
<!-- Generator: Adobe Illustrator 16.0.0, SVG Export Plug-In . SVG Version: 6.00 Build 0)  -->
<!DOCTYPE svg PUBLIC "-//W3C//DTD SVG 1.1//EN" "http://www.w3.org/Graphics/SVG/1.1/DTD/svg11.dtd">
<svg version="1.1" id="Layer_1" xmlns="http://www.w3.org/2000/svg" xmlns:xlink="http://www.w3.org/1999/xlink" x="0px" y="0px"
	 width="20px" height="20px" viewBox="0 0 20 20" enable-background="new 0 0 20 20" xml:space="preserve">
<g>
	<circle id="XMLID_2373_" fill="none" cx="15.632" cy="3.109" r="0.617"/>
	<circle id="XMLID_2372_" fill="none" cx="4.374" cy="3.109" r="0.617"/>
	<circle id="XMLID_2371_" fill="none" cx="15.632" cy="18.109" r="0.618"/>
	<rect id="XMLID_2366_" x="2.5" fill="#8795A2" width="15" height="1.25"/>
	<path id="XMLID_2346_" fill="#081241" d="M17.5,1.25h-15V20h15V1.25z M4.374,2.491c0.342,0,0.618,0.276,0.618,0.618
		c0,0.341-0.276,0.617-0.618,0.617c-0.34,0-0.617-0.276-0.617-0.617C3.757,2.768,4.034,2.491,4.374,2.491z M15.632,18.727
		c-0.34,0-0.617-0.277-0.617-0.618c0-0.341,0.277-0.618,0.617-0.618c0.342,0,0.618,0.276,0.618,0.618
		C16.25,18.45,15.974,18.727,15.632,18.727z M4.374,18.727c-0.34,0-0.617-0.277-0.617-0.618c0-0.341,0.277-0.618,0.617-0.618
		c0.342,0,0.618,0.276,0.618,0.618C4.992,18.45,4.716,18.727,4.374,18.727z M10,16.859c-3.452,0-6.25-2.798-6.25-6.25
		s2.798-6.25,6.25-6.25s6.25,2.798,6.25,6.25S13.452,16.859,10,16.859z M15.632,3.726c-0.34,0-0.617-0.276-0.617-0.617
		c0-0.341,0.277-0.618,0.617-0.618c0.342,0,0.618,0.276,0.618,0.618C16.25,3.45,15.974,3.726,15.632,3.726z"/>
	<path id="XMLID_2294_" fill="#8795A2" d="M10,4.359c-3.452,0-6.25,2.798-6.25,6.25s2.798,6.25,6.25,6.25s6.25-2.798,6.25-6.25
		S13.452,4.359,10,4.359z M10.007,11.854c-0.691,0-1.252-0.56-1.252-1.251s0.561-1.25,1.252-1.25c0.69,0,1.25,0.56,1.25,1.25
		S10.697,11.854,10.007,11.854z"/>
	<circle id="XMLID_480_" fill="#081241" cx="10.007" cy="10.603" r="1.251"/>
</g>
</svg>
