<?xml version="1.0" encoding="utf-8"?>
<!-- Generator: Adobe Illustrator 16.0.0, SVG Export Plug-In . SVG Version: 6.00 Build 0)  -->
<!DOCTYPE svg PUBLIC "-//W3C//DTD SVG 1.1//EN" "http://www.w3.org/Graphics/SVG/1.1/DTD/svg11.dtd">
<svg version="1.1" id="Layer_1" xmlns="http://www.w3.org/2000/svg" xmlns:xlink="http://www.w3.org/1999/xlink" x="0px" y="0px"
	 width="20px" height="20px" viewBox="0 0 20 20" enable-background="new 0 0 20 20" xml:space="preserve">
<path id="XMLID_979_" fill="#8297A5" d="M1.263,3.817c0.003-0.019,0.005-0.036,0.008-0.054C1.268,3.781,1.266,3.799,1.263,3.817z"/>
<path id="XMLID_974_" fill="#081241" d="M2.75,5.012h13.498V4.013c0-0.825-0.676-1.5-1.5-1.5H2.75c-0.74,0-1.359,0.542-1.479,1.25
	C1.391,4.469,2.01,5.012,2.75,5.012z"/>
<path id="XMLID_922_" fill="#8297A5" d="M1.256,3.879C1.257,3.863,1.26,3.847,1.262,3.832C1.259,3.847,1.257,3.863,1.256,3.879z"/>
<path id="XMLID_738_" fill="#8297A5" d="M1.251,3.944C1.252,3.932,1.252,3.92,1.254,3.908C1.252,3.92,1.252,3.932,1.251,3.944z"/>
<path id="XMLID_658_" fill="#007AFF" d="M17.25,5.012h-1h-0.002H2.75c-0.74,0-1.359-0.542-1.479-1.249l0,0l-0.001,0
	C1.268,3.781,1.266,3.799,1.263,3.817C1.262,3.822,1.262,3.827,1.262,3.832C1.26,3.847,1.257,3.863,1.256,3.879
	c0,0.01-0.002,0.02-0.002,0.029C1.252,3.92,1.252,3.932,1.251,3.944C1.25,3.967,1.25,3.99,1.25,4.013v2.499v6.976v2.499
	c0,0.825,0.674,1.5,1.5,1.5h14.5c0.824,0,1.5-0.675,1.5-1.5v-1.611c-1.727,0-3.126-1.399-3.126-3.125
	c0-1.726,1.399-3.125,3.126-3.125V6.512C18.75,5.687,18.074,5.012,17.25,5.012z"/>
<path id="XMLID_655_" fill="#081241" d="M15.624,11.25c0,1.726,1.399,3.125,3.126,3.125v-0.08v-1.25v-3.67v-1.25
	C17.023,8.125,15.624,9.524,15.624,11.25z"/>
</svg>
