<svg xmlns="http://www.w3.org/2000/svg" viewBox="-2386 3068.521 103.581 62.063"><defs><style>.a{fill:#091440;}.b{fill:#6ed3f3;}.c,.d{fill:none;stroke:#2970ff;stroke-linecap:round;stroke-linejoin:round;stroke-miterlimit:10;}.c{stroke-width:3.3px;}.d{stroke-width:3px;}</style></defs><g transform="translate(-59 -264)"><g transform="translate(-2327 3333)"><ellipse class="a" cx="4.529" cy="4.529" rx="4.529" ry="4.529" transform="translate(47.001 26.062)"/><rect class="a" width="6.757" height="6.757" transform="translate(0 27.25)"/><path class="a" d="M130.7,33.4l2.6,4.455,2.6,4.529H125.5l2.6-4.529Z" transform="translate(-32.315 -8.6)"/><g transform="translate(12.697 29.478)"><rect class="b" width="29.478" height="2.302"/><rect class="b" width="28.216" height="2.302" transform="translate(48.189)"/></g><path class="c" d="M88.476,11.425a10.706,10.706,0,0,0-2.97-6.608C78.23-2.46,60.558,3.405,46.079,17.884,35.386,28.577,29.446,40.9,29.892,49.59" transform="translate(-7.691 -0.435)"/><path class="d" d="M34,64.241c7.277,7.277,24.874,1.411,39.353-13.142,7.277-7.277,12.4-15.37,14.776-22.5" transform="translate(-8.755 -7.364)"/><path class="d" d="M30.186,10.16c-1.856,8.687,4.232,22.35,15.89,34.007C60.555,58.646,78.226,64.512,85.429,57.31S86.84,32.436,72.286,17.957C59.07,4.591,43.106-1.423,35.012,3.255" transform="translate(-7.688 -0.433)"/><ellipse class="a" cx="2.747" cy="2.747" rx="2.747" ry="2.747" transform="translate(24.577 0)"/><ellipse class="a" cx="2.747" cy="2.747" rx="2.747" ry="2.747" transform="translate(76.627 18.563)"/><ellipse class="a" cx="2.747" cy="2.747" rx="2.747" ry="2.747" transform="translate(19.38 46.407)"/></g></g></svg>