<svg xmlns="http://www.w3.org/2000/svg" viewBox="-1113.66 3069.574 73.9 60"><defs><style>.a{fill:#091440;}.b{fill:#fff;}</style></defs><g transform="translate(-1113.66 3069.574)"><rect class="a" width="32.308" height="4.615" transform="translate(13.846 4.615)"/><rect class="a" width="46.154" height="4.615" transform="translate(13.846 27.692)"/><path class="a" d="M46.317,31.577H9.231a4.612,4.612,0,0,1-4.615-4.615V17.731a4.612,4.612,0,0,1,4.615-4.615H49.14V8.5H9.231A9.223,9.223,0,0,0,0,17.731v9.231a9.223,9.223,0,0,0,9.231,9.231H46.317Z" transform="translate(0 -3.885)"/><path class="a" d="M43.076,55.615H80.162a4.612,4.612,0,0,1,4.615,4.615v9.231a4.612,4.612,0,0,1-4.615,4.615H33.9v4.615H80.162a9.223,9.223,0,0,0,9.231-9.231V60.231A9.223,9.223,0,0,0,80.162,51H43.076Z" transform="translate(-15.493 -23.308)"/><path class="a" d="M6.027,0A6.027,6.027,0,1,1,0,6.027,6.027,6.027,0,0,1,6.027,0Z" transform="translate(60.869 0.869)"/><path class="a" d="M84.9,4.615,88.049,6.9,84.9,9.231v4.615L94.185,6.9h0L84.9,0Z" transform="translate(-38.8 0)"/><path class="b" d="M110.5,6.95a5.729,5.729,0,0,0,.217,1.683,6.885,6.885,0,0,0,13.357,0,5.973,5.973,0,0,0,.217-1.683h0a5.729,5.729,0,0,0-.217-1.683V5.213a6.885,6.885,0,0,0-13.357,0v.054A5.5,5.5,0,0,0,110.5,6.95Zm6.9-3.475a3.475,3.475,0,1,1-3.475,3.475A3.5,3.5,0,0,1,117.4,3.475Z" transform="translate(-50.5)"/><path class="b" d="M6.027,0A6.027,6.027,0,1,1,0,6.027,6.027,6.027,0,0,1,6.027,0Z" transform="translate(0.869 47.023)"/><path class="a" d="M0,91.95a5.729,5.729,0,0,0,.217,1.683,6.885,6.885,0,0,0,13.357,0,5.973,5.973,0,0,0,.217-1.683h0a5.729,5.729,0,0,0-.217-1.683v-.054A6.774,6.774,0,0,0,6.9,85,6.877,6.877,0,0,0,.217,90.158v.054A6.1,6.1,0,0,0,0,91.95Zm6.9-3.475A3.475,3.475,0,1,1,3.421,91.95,3.5,3.5,0,0,1,6.9,88.475Z" transform="translate(0 -38.846)"/></g></svg>