<svg xmlns="http://www.w3.org/2000/svg" viewBox="-2065.959 3069.286 80.073 60"><defs><style>.a{fill:#091440;}</style></defs><g transform="translate(-2065.959 3069.286)"><path class="a" d="M74.6,0H66.981V10.037H74.6A10.052,10.052,0,0,1,84.637,20.073,9.943,9.943,0,0,1,74.6,30.037h-20V50.11H64.637V40H74.673A20,20,0,1,0,74.6,0Z" transform="translate(-14.6 0)"/><circle class="a" cx="4.982" cy="4.982" r="4.982" transform="translate(40.073 0)"/><path class="a" d="M40,13.7H30.037V23.737H20a19.963,19.963,0,1,0,0,39.927h7.619V53.7H20a10.037,10.037,0,1,1,0-20.073H40.073V13.7Z" transform="translate(0 -3.663)"/><path class="a" d="M45.982,68.3A4.987,4.987,0,0,0,41,73.282h0a4.982,4.982,0,1,0,9.963,0h0A4.941,4.941,0,0,0,45.982,68.3Z" transform="translate(-10.963 -18.263)"/></g></svg>