<svg xmlns="http://www.w3.org/2000/svg" viewBox="-2659 3069 68.586 60"><defs><style>.a{fill:#091440;}.b{fill:#2970ff;}</style></defs><g transform="translate(-2659 3069)"><path class="a" d="M4.833,287.854H58.475v-.034l1.508.017L68.586,275H55.733v6.341H43.77a11.422,11.422,0,0,0-18.92,0H12.888V275H8.6L0,287.871l4.833-.017Z" transform="translate(0 -227.871)"/><path class="b" d="M87.179,53.47a11.422,11.422,0,0,1,18.92,0h11.962V0H108.053V.069a11.414,11.414,0,0,1-22.828,0V0H75.2V53.47Zm9.443-36.3A12.819,12.819,0,1,1,83.8,29.991,12.822,12.822,0,0,1,96.622,17.172Z" transform="translate(-62.312)"/><path class="a" d="M12.819,0A12.819,12.819,0,1,1,0,12.819,12.819,12.819,0,0,1,12.819,0Z" transform="translate(21.508 17.172)"/></g></svg>