<?xml version="1.0" encoding="utf-8"?>
<!-- Generator: Adobe Illustrator 16.0.0, SVG Export Plug-In . SVG Version: 6.00 Build 0)  -->
<!DOCTYPE svg PUBLIC "-//W3C//DTD SVG 1.1//EN" "http://www.w3.org/Graphics/SVG/1.1/DTD/svg11.dtd">
<svg version="1.1" xmlns="http://www.w3.org/2000/svg" xmlns:xlink="http://www.w3.org/1999/xlink" x="0px" y="0px" width="32px"
	 height="64px" viewBox="0 0 32 64" enable-background="new 0 0 32 64" xml:space="preserve">
<g id="Layer_1">
	<path id="XMLID_793_" fill="#FFFFFF" d="M28,10.121c-0.883,0.392-1.832,0.656-2.828,0.774c1.017-0.609,1.797-1.574,2.165-2.724
		c-0.951,0.564-2.005,0.974-3.127,1.194c-0.898-0.957-2.178-1.555-3.594-1.555c-2.72,0-4.924,2.205-4.924,4.924
		c0,0.387,0.043,0.762,0.127,1.122c-4.092-0.205-7.72-2.165-10.148-5.145c-0.424,0.728-0.667,1.573-0.667,2.476
		c0,1.709,0.869,3.216,2.19,4.099c-0.807-0.025-1.566-0.247-2.23-0.616c0,0.021,0,0.041,0,0.063c0,2.385,1.697,4.375,3.95,4.828
		c-0.414,0.112-0.849,0.172-1.298,0.172c-0.317,0-0.626-0.03-0.927-0.088c0.627,1.956,2.445,3.38,4.601,3.42
		c-1.686,1.32-3.809,2.107-6.115,2.107c-0.397,0-0.79-0.023-1.175-0.069c2.179,1.397,4.768,2.213,7.548,2.213
		c9.057,0,14.01-7.503,14.01-14.01c0-0.214-0.005-0.426-0.015-0.637C26.505,11.976,27.34,11.108,28,10.121z"/>
	<path id="XMLID_764_" fill="#D5EDFA" d="M28,42.121c-0.883,0.392-1.832,0.656-2.828,0.774c1.017-0.609,1.797-1.574,2.165-2.724
		c-0.951,0.564-2.005,0.974-3.127,1.194c-0.898-0.957-2.178-1.555-3.594-1.555c-2.72,0-4.924,2.205-4.924,4.924
		c0,0.387,0.043,0.762,0.127,1.122c-4.092-0.205-7.72-2.165-10.148-5.145c-0.424,0.728-0.667,1.573-0.667,2.476
		c0,1.709,0.869,3.216,2.19,4.099c-0.807-0.025-1.566-0.247-2.23-0.616c0,0.021,0,0.041,0,0.063c0,2.385,1.697,4.375,3.95,4.828
		c-0.414,0.112-0.849,0.172-1.298,0.172c-0.317,0-0.626-0.03-0.927-0.088c0.627,1.956,2.445,3.38,4.601,3.42
		c-1.686,1.32-3.809,2.107-6.115,2.107c-0.397,0-0.79-0.023-1.175-0.069c2.179,1.397,4.768,2.213,7.548,2.213
		c9.057,0,14.01-7.503,14.01-14.01c0-0.214-0.005-0.426-0.015-0.637C26.505,43.976,27.34,43.108,28,42.121z"/>
</g>
<g id="Layer_2" display="none">
</g>
<g id="specctr" display="none">
	<g id="Dimensions" display="inline">
	</g>
	<g id="Spacing" display="inline">
	</g>
	<g id="Text_Properties" display="inline">
	</g>
	<g id="Object_Properties" display="inline">
	</g>
</g>
</svg>
