<?xml version="1.0" encoding="utf-8"?>
<!-- Generator: Adobe Illustrator 16.0.0, SVG Export Plug-In . SVG Version: 6.00 Build 0)  -->
<!DOCTYPE svg PUBLIC "-//W3C//DTD SVG 1.1//EN" "http://www.w3.org/Graphics/SVG/1.1/DTD/svg11.dtd">
<svg version="1.1" id="Layer_1" xmlns="http://www.w3.org/2000/svg" xmlns:xlink="http://www.w3.org/1999/xlink" x="0px" y="0px"
	 width="30px" height="30px" viewBox="0 0 30 30" enable-background="new 0 0 30 30" xml:space="preserve">
<g id="XMLID_2114_">
	<path id="XMLID_2128_" fill="#091440" d="M13.498,16.201c0,0.684-0.554,1.238-1.238,1.238c-0.683,0-1.238-0.556-1.238-1.238
		c0-0.686,0.556-1.242,1.238-1.242C12.944,14.959,13.498,15.516,13.498,16.201L13.498,16.201z"/>
	<path id="XMLID_2121_" fill="#091440" d="M24.199,15.199c0-1.531-1.207-2.779-2.688-2.779c-0.521,0-1.003,0.156-1.416,0.421
		c-1.275-0.74-2.885-1.202-4.642-1.265l1.014-2.907l2.097,0.505c-0.006,0.067-0.021,0.133-0.021,0.205
		c0,1.155,0.94,2.099,2.099,2.099c1.152,0,2.096-0.943,2.096-2.099c0-1.156-0.942-2.096-2.096-2.096
		c-0.754,0-1.408,0.401-1.779,0.999l-2.998-0.717l-1.398,4.017c-1.748,0.091-3.34,0.578-4.592,1.338
		c0.025-0.017,0.047-0.037,0.071-0.054c-0.422-0.282-0.92-0.446-1.458-0.446c-1.484,0-2.688,1.244-2.688,2.775
		c0,1.025,0.544,1.915,1.347,2.395c0.33,2.865,3.744,5.126,7.902,5.126c4.186,0,7.616-2.293,7.906-5.183
		C23.701,17.041,24.199,16.178,24.199,15.199L24.199,15.199z M20.643,8.217c0.642,0,1.162,0.521,1.162,1.162
		c0,0.644-0.522,1.164-1.162,1.164c-0.644,0-1.164-0.521-1.164-1.164C19.479,8.739,19.999,8.217,20.643,8.217L20.643,8.217z
		 M8.488,13.354c0.211,0,0.412,0.045,0.598,0.117c-1.014,0.814-1.694,1.834-1.899,2.96c-0.282-0.328-0.456-0.76-0.456-1.231
		C6.73,14.18,7.52,13.354,8.488,13.354L8.488,13.354z M15.049,21.781c-3.861,0-7.002-2.08-7.002-4.641
		c0-2.563,3.141-4.644,7.002-4.644c3.86,0,7.001,2.082,7.001,4.644C22.05,19.701,18.909,21.781,15.049,21.781L15.049,21.781z
		 M22.891,16.33c-0.23-1.098-0.912-2.088-1.912-2.883c0.172-0.057,0.347-0.094,0.533-0.094c0.965,0,1.754,0.826,1.754,1.846
		C23.266,15.627,23.124,16.016,22.891,16.33L22.891,16.33z"/>
	<path id="XMLID_2118_" fill="#091440" d="M18.832,16.201c0,0.684-0.555,1.238-1.241,1.238c-0.684,0-1.237-0.556-1.237-1.238
		c0-0.686,0.555-1.242,1.237-1.242C18.277,14.959,18.832,15.516,18.832,16.201L18.832,16.201z"/>
	<path id="XMLID_2115_" fill="#091440" d="M17.393,18.957c-2.625,1.734-4.744,0.1-4.842,0.025c-0.199-0.162-0.492-0.131-0.655,0.072
		c-0.159,0.198-0.128,0.491,0.071,0.653c0.018,0.015,1.229,0.965,2.987,0.965c0.874,0,1.886-0.235,2.952-0.938
		c0.214-0.142,0.273-0.43,0.131-0.646C17.896,18.875,17.607,18.814,17.393,18.957L17.393,18.957z"/>
</g>
</svg>
