<?xml version="1.0" encoding="utf-8"?>
<!-- Generator: Adobe Illustrator 16.0.0, SVG Export Plug-In . SVG Version: 6.00 Build 0)  -->
<!DOCTYPE svg PUBLIC "-//W3C//DTD SVG 1.1//EN" "http://www.w3.org/Graphics/SVG/1.1/DTD/svg11.dtd">
<svg version="1.1" id="Layer_1" xmlns="http://www.w3.org/2000/svg" xmlns:xlink="http://www.w3.org/1999/xlink" x="0px" y="0px"
	 width="32px" height="64px" viewBox="0 0 32 64" enable-background="new 0 0 32 64" xml:space="preserve">
<g id="Layer_2" display="none">
</g>
<g id="specctr" display="none">
	<g id="Dimensions" display="inline">
	</g>
	<g id="Spacing" display="inline">
	</g>
	<g id="Text_Properties" display="inline">
	</g>
	<g id="Object_Properties" display="inline">
	</g>
</g>
<path id="XMLID_820_" fill="#EAF6FD" d="M14.913,54.674c-1.25-0.528-2.373-1.285-3.337-2.249c-0.964-0.964-1.721-2.087-2.25-3.337
	C8.777,47.791,8.5,46.416,8.5,45c0-0.641,0.057-1.271,0.17-1.891C5.888,44.639,4,47.599,4,51c0,2.5,1.019,4.761,2.664,6.392L4,60h9
	c3.331,0,6.24-1.811,7.794-4.5H19C17.584,55.5,16.208,55.222,14.913,54.674z"/>
<path id="XMLID_815_" fill="#D5EDFA" d="M19,54h9l-2.664-2.608C26.98,49.761,28,47.5,28,45c0-4.971-4.029-9-9-9s-9,4.029-9,9
	S14.029,54,19,54z M14.5,46.5c-0.829,0-1.5-0.672-1.5-1.5s0.671-1.5,1.5-1.5c0.828,0,1.5,0.672,1.5,1.5S15.329,46.5,14.5,46.5z
	 M23.5,43.5c0.828,0,1.5,0.672,1.5,1.5s-0.672,1.5-1.5,1.5S22,45.828,22,45S22.672,43.5,23.5,43.5z M20.5,45
	c0,0.828-0.672,1.5-1.5,1.5s-1.5-0.672-1.5-1.5s0.672-1.5,1.5-1.5S20.5,44.172,20.5,45z"/>
<path id="XMLID_4_" fill="#FFFFFF" d="M14.913,22.673c-1.25-0.528-2.373-1.285-3.337-2.249c-0.964-0.964-1.721-2.087-2.25-3.337
	C8.777,15.791,8.5,14.416,8.5,13c0-0.641,0.057-1.271,0.17-1.891C5.888,12.638,4,15.598,4,19c0,2.5,1.019,4.761,2.664,6.392L4,28h9
	c3.331,0,6.24-1.811,7.794-4.5H19C17.584,23.5,16.208,23.221,14.913,22.673z"/>
<path id="XMLID_3_" fill="#FFFFFF" d="M19,22h9l-2.664-2.608C26.98,17.76,28,15.5,28,13c0-4.971-4.029-9-9-9s-9,4.029-9,9
	S14.029,22,19,22z M14.5,14.5c-0.829,0-1.5-0.672-1.5-1.5s0.671-1.5,1.5-1.5c0.828,0,1.5,0.672,1.5,1.5S15.329,14.5,14.5,14.5z
	 M23.5,11.5c0.828,0,1.5,0.672,1.5,1.5s-0.672,1.5-1.5,1.5S22,13.828,22,13S22.672,11.5,23.5,11.5z M20.5,13
	c0,0.828-0.672,1.5-1.5,1.5s-1.5-0.672-1.5-1.5s0.672-1.5,1.5-1.5S20.5,12.171,20.5,13z"/>
</svg>
