<?xml version="1.0" encoding="utf-8"?>
<!-- Generator: Adobe Illustrator 16.0.0, SVG Export Plug-In . SVG Version: 6.00 Build 0)  -->
<!DOCTYPE svg PUBLIC "-//W3C//DTD SVG 1.1//EN" "http://www.w3.org/Graphics/SVG/1.1/DTD/svg11.dtd">
<svg version="1.1" id="Layer_1" xmlns="http://www.w3.org/2000/svg" xmlns:xlink="http://www.w3.org/1999/xlink" x="0px" y="0px"
	 width="32px" height="32px" viewBox="0 0 32 32" enable-background="new 0 0 32 32" xml:space="preserve">
<g id="Layer_1_1_">
	<path id="XMLID_791_" fill="#FFFFFF" d="M14.749,17.938h5.125c1.903,0,3.453-1.549,3.453-3.453c0-1.904-1.55-3.453-3.453-3.453
		h-1.633L14.749,8h5.125c3.581,0,6.483,2.903,6.483,6.484c0,2.717-1.672,5.043-4.041,6.008L26.357,24h-4.625L14.749,17.938z"/>
	<path id="XMLID_789_" fill="#FFFFFF" d="M17.251,14.063h-5.125c-1.902,0-3.453,1.549-3.453,3.453c0,1.904,1.55,3.453,3.453,3.453
		h1.633L17.251,24h-5.125c-3.581,0-6.483-2.903-6.483-6.484c0-2.717,1.671-5.043,4.042-6.008L5.644,8h4.624L17.251,14.063z"/>
</g>
<g id="Layer_2" display="none">
</g>
<g id="specctr" display="none">
	<g id="Dimensions" display="inline">
	</g>
	<g id="Spacing" display="inline">
	</g>
	<g id="Text_Properties" display="inline">
	</g>
	<g id="Object_Properties" display="inline">
	</g>
</g>
</svg>
