<?xml version="1.0" encoding="utf-8"?>
<!-- Generator: Adobe Illustrator 16.0.0, SVG Export Plug-In . SVG Version: 6.00 Build 0)  -->
<!DOCTYPE svg PUBLIC "-//W3C//DTD SVG 1.1//EN" "http://www.w3.org/Graphics/SVG/1.1/DTD/svg11.dtd">
<svg version="1.1" xmlns="http://www.w3.org/2000/svg" xmlns:xlink="http://www.w3.org/1999/xlink" x="0px" y="0px" width="32px"
	 height="64px" viewBox="0 0 32 64" enable-background="new 0 0 32 64" xml:space="preserve">
<g id="Layer_1">
	<path id="XMLID_823_" fill="#D5EDFA" d="M15.755,54.777c0.283,1.005,0.771,2.234,0.868,2.87c0.318,2.093-2.645,3.092-3.807,1.403
		c-0.556-0.808-0.581-1.554-1.002-2.872c-1.484,0.41-2.287,1.012-3.406,0.868C6.721,56.831,6.283,54.5,7.474,53.44
		c0.748-0.666,1.967-0.651,3.006-1.135c0,0-0.978-3.075-1.537-4.542c-1.115,0.332-2.748,1.029-3.473,0.868
		C4.588,48.289,3.985,47.579,4,46.627c0.031-1.938,2.234-2.08,3.674-2.671c-0.355-1.128-0.945-1.908-0.868-3.139
		c0.099-1.582,1.976-2.498,3.34-1.536c0.645,0.454,1.063,2.109,1.469,3.339l4.475-1.47c-0.512-1.638-1.492-3.249-0.268-4.475
		c0.918-0.917,2.536-0.686,3.207,0.267c0.616,0.876,0.68,1.943,1.001,2.872c1.211-0.414,2.738-1.185,3.878-0.798
		c0.936,0.318,1.387,1.555,1.132,2.335c-0.471,1.489-2.164,1.688-3.674,2.203l1.47,4.542c1.255-0.411,1.892-0.941,3.072-0.935
		c1.204,0.007,1.959,0.875,2.07,1.736c0.286,2.234-2.237,2.436-3.807,3.005c0.482,1.562,0.893,1.897,0.868,3.139
		c-0.043,2.125-2.727,2.616-3.874,1.002c-0.416-0.585-0.521-1.522-0.936-2.738C20.229,53.306,15.825,54.838,15.755,54.777z
		 M18.895,49.433l-1.604-4.542l-4.341,1.536l1.469,4.475L18.895,49.433z"/>
	<path id="XMLID_760_" fill="#FFFFFF" d="M15.755,22.777c0.283,1.005,0.771,2.234,0.868,2.87c0.318,2.093-2.645,3.092-3.807,1.403
		c-0.556-0.808-0.581-1.554-1.002-2.872c-1.484,0.41-2.287,1.012-3.406,0.868C6.721,24.831,6.283,22.5,7.474,21.44
		c0.748-0.666,1.967-0.651,3.006-1.135c0,0-0.978-3.075-1.537-4.542c-1.115,0.332-2.748,1.029-3.473,0.868
		C4.588,16.289,3.985,15.579,4,14.627c0.031-1.938,2.234-2.08,3.674-2.671c-0.355-1.128-0.945-1.908-0.868-3.139
		c0.099-1.582,1.976-2.498,3.34-1.536c0.645,0.454,1.063,2.109,1.469,3.339l4.475-1.47c-0.512-1.638-1.492-3.249-0.268-4.475
		c0.918-0.917,2.536-0.686,3.207,0.267c0.616,0.876,0.68,1.943,1.001,2.872c1.211-0.414,2.738-1.185,3.878-0.798
		c0.936,0.318,1.387,1.555,1.132,2.335c-0.471,1.489-2.164,1.688-3.674,2.203l1.47,4.542c1.255-0.411,1.892-0.941,3.072-0.935
		c1.204,0.007,1.959,0.875,2.07,1.736c0.286,2.234-2.237,2.436-3.807,3.005c0.482,1.562,0.893,1.897,0.868,3.139
		c-0.043,2.125-2.727,2.616-3.874,1.002c-0.416-0.585-0.521-1.522-0.936-2.738C20.229,21.306,15.825,22.838,15.755,22.777z
		 M18.895,17.433l-1.604-4.542l-4.341,1.536l1.469,4.475L18.895,17.433z"/>
</g>
<g id="Layer_2" display="none">
</g>
<g id="specctr" display="none">
	<g id="Dimensions" display="inline">
	</g>
	<g id="Spacing" display="inline">
	</g>
	<g id="Text_Properties" display="inline">
	</g>
	<g id="Object_Properties" display="inline">
	</g>
</g>
</svg>
