<?xml version="1.0" encoding="utf-8"?>
<!-- Generator: Adobe Illustrator 16.0.0, SVG Export Plug-In . SVG Version: 6.00 Build 0)  -->
<!DOCTYPE svg PUBLIC "-//W3C//DTD SVG 1.1//EN" "http://www.w3.org/Graphics/SVG/1.1/DTD/svg11.dtd">
<svg version="1.1" xmlns="http://www.w3.org/2000/svg" xmlns:xlink="http://www.w3.org/1999/xlink" x="0px" y="0px" width="32px"
	 height="64px" viewBox="0 0 32 64" enable-background="new 0 0 32 64" xml:space="preserve">
<g id="Layer_1">
	<path id="XMLID_808_" fill="#FFFFFF" d="M14.021,18.818c0,0.893-0.724,1.615-1.615,1.615c-0.891,0-1.615-0.723-1.615-1.615
		c0-0.895,0.725-1.619,1.615-1.619C13.298,17.199,14.021,17.924,14.021,18.818L14.021,18.818z M14.021,18.818"/>
	<path id="XMLID_801_" fill="#FFFFFF" d="M27.979,17.512c0-1.998-1.575-3.625-3.506-3.625c-0.68,0-1.308,0.205-1.847,0.55
		c-1.664-0.966-3.762-1.568-6.054-1.649l1.322-3.792l2.734,0.657c-0.008,0.089-0.027,0.175-0.027,0.268
		c0,1.508,1.229,2.737,2.737,2.737c1.505,0,2.733-1.229,2.733-2.737s-1.229-2.733-2.733-2.733c-0.983,0-1.838,0.524-2.32,1.304
		l-3.911-0.936l-1.823,5.24c-2.281,0.118-4.356,0.754-5.991,1.745c0.033-0.021,0.063-0.049,0.094-0.07
		c-0.551-0.368-1.2-0.583-1.902-0.583c-1.936,0-3.506,1.623-3.506,3.621c0,1.338,0.709,2.496,1.757,3.123
		c0.431,3.736,4.883,6.686,10.307,6.686c5.459,0,9.935-2.99,10.313-6.76C27.33,19.915,27.979,18.789,27.979,17.512L27.979,17.512z
		 M23.34,8.404c0.836,0,1.516,0.68,1.516,1.516c0,0.84-0.684,1.519-1.516,1.519c-0.839,0-1.518-0.679-1.518-1.519
		C21.822,9.084,22.501,8.404,23.34,8.404L23.34,8.404z M7.485,15.104c0.275,0,0.538,0.06,0.78,0.152
		c-1.323,1.062-2.21,2.393-2.478,3.863c-0.367-0.428-0.595-0.991-0.595-1.608C5.193,16.182,6.222,15.104,7.485,15.104L7.485,15.104z
		 M16.043,26.098c-5.036,0-9.134-2.714-9.134-6.054c0-3.342,4.098-6.058,9.134-6.058c5.035,0,9.132,2.716,9.132,6.058
		C25.175,23.384,21.078,26.098,16.043,26.098L16.043,26.098z M26.271,18.986c-0.301-1.431-1.188-2.723-2.492-3.759
		c0.224-0.074,0.45-0.123,0.695-0.123c1.259,0,2.287,1.077,2.287,2.407C26.761,18.068,26.576,18.577,26.271,18.986L26.271,18.986z
		 M26.271,18.986"/>
	<path id="XMLID_798_" fill="#FFFFFF" d="M20.979,18.818c0,0.893-0.725,1.615-1.619,1.615c-0.892,0-1.615-0.723-1.615-1.615
		c0-0.895,0.724-1.619,1.615-1.619C20.254,17.199,20.979,17.924,20.979,18.818L20.979,18.818z M20.979,18.818"/>
	<path id="XMLID_795_" fill="#FFFFFF" d="M19.099,22.414c-3.424,2.262-6.187,0.13-6.313,0.033c-0.261-0.211-0.643-0.171-0.854,0.093
		c-0.207,0.261-0.166,0.643,0.093,0.854c0.022,0.019,1.602,1.259,3.896,1.259c1.141,0,2.459-0.308,3.851-1.226
		c0.279-0.186,0.357-0.561,0.172-0.843C19.757,22.306,19.381,22.229,19.099,22.414L19.099,22.414z M19.099,22.414"/>
	<path id="XMLID_779_" fill="#D5EDFA" d="M14.021,50.818c0,0.893-0.724,1.615-1.615,1.615c-0.891,0-1.615-0.723-1.615-1.615
		c0-0.895,0.725-1.619,1.615-1.619C13.298,49.199,14.021,49.924,14.021,50.818L14.021,50.818z M14.021,50.818"/>
	<path id="XMLID_772_" fill="#D5EDFA" d="M27.979,49.512c0-1.998-1.575-3.625-3.506-3.625c-0.68,0-1.308,0.205-1.847,0.55
		c-1.664-0.966-3.762-1.568-6.054-1.649l1.322-3.792l2.734,0.657c-0.008,0.089-0.027,0.175-0.027,0.268
		c0,1.508,1.229,2.737,2.737,2.737c1.505,0,2.733-1.229,2.733-2.737s-1.229-2.733-2.733-2.733c-0.983,0-1.838,0.524-2.32,1.304
		l-3.911-0.936l-1.823,5.24c-2.281,0.118-4.356,0.754-5.991,1.745c0.033-0.021,0.063-0.049,0.094-0.07
		c-0.551-0.368-1.2-0.583-1.902-0.583c-1.936,0-3.506,1.623-3.506,3.621c0,1.338,0.709,2.496,1.757,3.123
		c0.431,3.736,4.883,6.686,10.307,6.686c5.459,0,9.935-2.99,10.313-6.76C27.33,51.915,27.979,50.789,27.979,49.512L27.979,49.512z
		 M23.34,40.404c0.836,0,1.516,0.68,1.516,1.516c0,0.84-0.684,1.519-1.516,1.519c-0.839,0-1.518-0.679-1.518-1.519
		C21.822,41.084,22.501,40.404,23.34,40.404L23.34,40.404z M7.485,47.104c0.275,0,0.538,0.06,0.78,0.152
		c-1.323,1.062-2.21,2.393-2.478,3.863c-0.367-0.428-0.595-0.991-0.595-1.608C5.193,48.182,6.222,47.104,7.485,47.104L7.485,47.104z
		 M16.043,58.098c-5.036,0-9.134-2.714-9.134-6.054c0-3.342,4.098-6.058,9.134-6.058c5.035,0,9.132,2.716,9.132,6.058
		C25.175,55.384,21.078,58.098,16.043,58.098L16.043,58.098z M26.271,50.986c-0.301-1.431-1.188-2.723-2.492-3.759
		c0.224-0.074,0.45-0.123,0.695-0.123c1.259,0,2.287,1.077,2.287,2.407C26.761,50.068,26.576,50.577,26.271,50.986L26.271,50.986z
		 M26.271,50.986"/>
	<path id="XMLID_769_" fill="#D5EDFA" d="M20.979,50.818c0,0.893-0.725,1.615-1.619,1.615c-0.892,0-1.615-0.723-1.615-1.615
		c0-0.895,0.724-1.619,1.615-1.619C20.254,49.199,20.979,49.924,20.979,50.818L20.979,50.818z M20.979,50.818"/>
	<path id="XMLID_766_" fill="#D5EDFA" d="M19.099,54.414c-3.424,2.262-6.187,0.13-6.313,0.033c-0.261-0.211-0.643-0.171-0.854,0.093
		c-0.207,0.261-0.166,0.643,0.093,0.854c0.022,0.019,1.602,1.259,3.896,1.259c1.141,0,2.459-0.308,3.851-1.226
		c0.279-0.186,0.357-0.561,0.172-0.843C19.757,54.306,19.381,54.229,19.099,54.414L19.099,54.414z M19.099,54.414"/>
</g>
<g id="Layer_2" display="none">
</g>
<g id="specctr" display="none">
	<g id="Dimensions" display="inline">
	</g>
	<g id="Spacing" display="inline">
	</g>
	<g id="Text_Properties" display="inline">
	</g>
	<g id="Object_Properties" display="inline">
	</g>
</g>
</svg>
