<?xml version="1.0" encoding="utf-8"?>
<!-- Generator: Adobe Illustrator 16.0.0, SVG Export Plug-In . SVG Version: 6.00 Build 0)  -->
<!DOCTYPE svg PUBLIC "-//W3C//DTD SVG 1.1//EN" "http://www.w3.org/Graphics/SVG/1.1/DTD/svg11.dtd">
<svg version="1.1" xmlns="http://www.w3.org/2000/svg" xmlns:xlink="http://www.w3.org/1999/xlink" x="0px" y="0px" width="32px"
	 height="64px" viewBox="0 0 32 64" enable-background="new 0 0 32 64" xml:space="preserve">
<g id="Layer_1">
	<path id="XMLID_791_" fill="#FFFFFF" d="M14.749,17.938h5.125c1.904,0,3.453-1.549,3.453-3.453s-1.549-3.453-3.453-3.453h-1.633
		L14.749,8h5.125c3.581,0,6.483,2.903,6.483,6.484c0,2.717-1.671,5.043-4.041,6.008L26.357,24h-4.624L14.749,17.938z"/>
	<path id="XMLID_789_" fill="#FFFFFF" d="M17.251,14.063h-5.125c-1.903,0-3.453,1.549-3.453,3.453s1.549,3.453,3.453,3.453h1.633
		L17.251,24h-5.125c-3.581,0-6.484-2.903-6.484-6.484c0-2.717,1.671-5.043,4.042-6.008L5.643,8h4.624L17.251,14.063z"/>
	<path id="XMLID_786_" fill="#D5EDFA" d="M14.749,49.938h5.125c1.904,0,3.453-1.549,3.453-3.453s-1.549-3.453-3.453-3.453h-1.633
		L14.749,40h5.125c3.581,0,6.483,2.903,6.483,6.484c0,2.717-1.671,5.043-4.041,6.008L26.357,56h-4.624L14.749,49.938z"/>
	<path id="XMLID_784_" fill="#D5EDFA" d="M17.251,46.063h-5.125c-1.903,0-3.453,1.549-3.453,3.453s1.549,3.453,3.453,3.453h1.633
		L17.251,56h-5.125c-3.581,0-6.484-2.903-6.484-6.484c0-2.717,1.671-5.043,4.042-6.008L5.643,40h4.624L17.251,46.063z"/>
</g>
<g id="Layer_2" display="none">
</g>
<g id="specctr" display="none">
	<g id="Dimensions" display="inline">
	</g>
	<g id="Spacing" display="inline">
	</g>
	<g id="Text_Properties" display="inline">
	</g>
	<g id="Object_Properties" display="inline">
	</g>
</g>
</svg>
