<?xml version="1.0" encoding="utf-8"?>
<!-- Generator: Adobe Illustrator 16.0.0, SVG Export Plug-In . SVG Version: 6.00 Build 0)  -->
<!DOCTYPE svg PUBLIC "-//W3C//DTD SVG 1.1//EN" "http://www.w3.org/Graphics/SVG/1.1/DTD/svg11.dtd">
<svg version="1.1" xmlns="http://www.w3.org/2000/svg" xmlns:xlink="http://www.w3.org/1999/xlink" x="0px" y="0px" width="32px"
	 height="64px" viewBox="0 0 32 64" enable-background="new 0 0 32 64" xml:space="preserve">
<g id="Layer_1">
	<path id="XMLID_792_" fill-rule="evenodd" clip-rule="evenodd" fill="#FFFFFF" d="M16,3.91c-6.626,0-12,5.372-12,12.001
		c0,5.301,3.438,9.798,8.207,11.385c0.601,0.11,0.819-0.261,0.819-0.579c0-0.284-0.011-1.039-0.017-2.041
		c-3.338,0.726-4.042-1.608-4.042-1.608c-0.546-1.386-1.332-1.754-1.332-1.754c-1.09-0.745,0.082-0.73,0.082-0.73
		c1.204,0.085,1.838,1.237,1.838,1.237c1.07,1.834,2.809,1.304,3.493,0.997c0.108-0.775,0.419-1.304,0.762-1.603
		c-2.665-0.304-5.467-1.333-5.467-5.932c0-1.31,0.468-2.381,1.235-3.22c-0.123-0.304-0.535-1.523,0.118-3.175
		c0,0,1.007-0.323,3.3,1.23c0.957-0.267,1.983-0.399,3.004-0.404c1.02,0.005,2.046,0.138,3.004,0.404
		c2.291-1.553,3.297-1.23,3.297-1.23c0.655,1.652,0.243,2.872,0.12,3.175c0.769,0.839,1.233,1.91,1.233,3.22
		c0,4.61-2.806,5.625-5.479,5.922c0.431,0.37,0.814,1.103,0.814,2.223c0,1.604-0.015,2.898-0.015,3.291
		c0,0.322,0.217,0.694,0.825,0.577C24.565,25.705,28,21.209,28,15.911C28,9.282,22.627,3.91,16,3.91z"/>
	<path id="XMLID_763_" fill-rule="evenodd" clip-rule="evenodd" fill="#D5EDFA" d="M16,35.91c-6.626,0-12,5.372-12,12.001
		c0,5.301,3.438,9.798,8.207,11.385c0.601,0.11,0.819-0.261,0.819-0.579c0-0.284-0.011-1.039-0.017-2.041
		c-3.338,0.726-4.042-1.608-4.042-1.608c-0.546-1.386-1.332-1.754-1.332-1.754c-1.09-0.745,0.082-0.73,0.082-0.73
		c1.204,0.085,1.838,1.237,1.838,1.237c1.07,1.834,2.809,1.304,3.493,0.997c0.108-0.775,0.419-1.304,0.762-1.603
		c-2.665-0.304-5.467-1.333-5.467-5.932c0-1.31,0.468-2.381,1.235-3.22c-0.123-0.304-0.535-1.523,0.118-3.175
		c0,0,1.007-0.323,3.3,1.23c0.957-0.267,1.983-0.399,3.004-0.404c1.02,0.005,2.046,0.138,3.004,0.404
		c2.291-1.553,3.297-1.23,3.297-1.23c0.655,1.652,0.243,2.872,0.12,3.175c0.769,0.839,1.233,1.91,1.233,3.22
		c0,4.61-2.806,5.625-5.479,5.922c0.431,0.37,0.814,1.103,0.814,2.223c0,1.604-0.015,2.898-0.015,3.291
		c0,0.322,0.217,0.694,0.825,0.577C24.565,57.705,28,53.209,28,47.911C28,41.282,22.627,35.91,16,35.91z"/>
</g>
<g id="Layer_2" display="none">
</g>
<g id="specctr" display="none">
	<g id="Dimensions" display="inline">
	</g>
	<g id="Spacing" display="inline">
	</g>
	<g id="Text_Properties" display="inline">
	</g>
	<g id="Object_Properties" display="inline">
	</g>
</g>
</svg>
