<?xml version="1.0" encoding="utf-8"?>
<!-- Generator: Adobe Illustrator 16.0.0, SVG Export Plug-In . SVG Version: 6.00 Build 0)  -->
<!DOCTYPE svg PUBLIC "-//W3C//DTD SVG 1.1//EN" "http://www.w3.org/Graphics/SVG/1.1/DTD/svg11.dtd">
<svg version="1.1" id="Layer_1" xmlns="http://www.w3.org/2000/svg" xmlns:xlink="http://www.w3.org/1999/xlink" x="0px" y="0px"
	 width="275.398px" height="222.012px" viewBox="0 0 275.398 222.012" enable-background="new 0 0 275.398 222.012"
	 xml:space="preserve">
<path id="XMLID_2355_" fill="#091440" d="M210.18,17.574c0,4.729,1.691,8.787,5.07,12.162c3.379,3.381,7.434,5.07,12.164,5.07
	s8.836-1.689,12.336-5.07c3.488-3.375,5.234-7.434,5.234-12.162c0-4.732-1.746-8.84-5.234-12.336C236.25,1.748,232.145,0,227.414,0
	s-8.785,1.689-12.164,5.068C211.871,8.449,210.18,12.621,210.18,17.574 M177.402,86.848h37.508v115.227h-39.535v19.598h100.023
	v-19.598h-36.156V67.246h-61.84V86.848z M2.363,30.75h39.199v171.66H0v19.602h109.484V202.75H65.891v-172h41.563V11.152H2.363V30.75
	z"/>
<g>
</g>
<g>
</g>
<g>
</g>
<g>
</g>
<g>
</g>
<g>
</g>
<g>
</g>
<g>
</g>
<g>
</g>
<g>
</g>
<g>
</g>
<g>
</g>
<g>
</g>
<g>
</g>
<g>
</g>
</svg>
