<?xml version="1.0" encoding="utf-8"?>
<!-- Generator: Adobe Illustrator 16.0.0, SVG Export Plug-In . SVG Version: 6.00 Build 0)  -->
<!DOCTYPE svg PUBLIC "-//W3C//DTD SVG 1.1//EN" "http://www.w3.org/Graphics/SVG/1.1/DTD/svg11.dtd">
<svg version="1.1" id="Layer_1" xmlns="http://www.w3.org/2000/svg" xmlns:xlink="http://www.w3.org/1999/xlink" x="0px" y="0px"
	 width="912.994px" height="168.363px" viewBox="0 0 912.994 168.363" enable-background="new 0 0 912.994 168.363"
	 xml:space="preserve">
<path id="XMLID_420_" fill="#091440" d="M502.607,115.332v-0.289c0-29.887,22.996-53.326,54.051-53.326
	c20.953,0,34.43,8.791,43.512,21.389L578.779,99.66c-5.859-7.328-12.594-12.018-22.41-12.018c-14.359,0-24.469,12.162-24.469,27.104
	v0.297c0,15.375,10.109,27.391,24.469,27.391c10.691,0,16.992-4.984,23.145-12.449l21.391,15.23
	c-9.672,13.328-22.711,23.148-45.414,23.148C526.189,168.363,502.607,145.949,502.607,115.332z"/>
<path id="XMLID_417_" fill="#091440" d="M611.033,63.014h48.84c15.785,0,26.699,4.133,33.637,11.213
	c6.051,5.902,9.145,13.867,9.145,24.051v0.297c0,15.785-8.406,26.258-21.246,31.723l24.645,36h-33.047l-20.805-31.285h-12.543
	v31.285h-28.625V63.014z M658.545,112.582c9.738,0,15.34-4.719,15.34-12.242v-0.289c0-8.115-5.898-12.248-15.488-12.248h-18.738
	v24.779H658.545z"/>
<path id="XMLID_415_" fill="#091440" d="M716.092,63.033h83.063v24.346h-54.738v15.641h49.574v22.574h-49.574v16.371h55.477v24.352
	h-83.801V63.033z"/>
<path id="XMLID_412_" fill="#091440" d="M814.881,63.033h39.836c36.887,0,58.277,21.246,58.277,51.049v0.297
	c0,29.805-21.688,51.938-58.871,51.938h-39.242V63.033z M855.162,140.934c17.113,0,28.473-9.441,28.473-26.109v-0.297
	c0-16.527-11.359-26.115-28.473-26.115h-11.656v52.521H855.162z"/>
<path id="XMLID_409_" fill="#091440" d="M444.224,168.246c-30.316,0-52.318-22.336-52.318-53.109
	c0-30.393,21.385-53.313,49.746-53.313c15.193,0,27.809,5.658,36.486,16.367c7.914,9.76,12.271,23.516,12.271,38.719
	c0,1.758-0.133,3.387-0.289,5.246h-77.075l0.242,1.492c2.77,17.012,14.775,27.582,31.332,27.582c10.895,0,19.426-3.602,28.32-12
	l12.215,10.844C474.556,162.297,461.153,168.246,444.224,168.246z M441.454,78.836c-14.904,0-26.039,11.23-28.371,28.613
	l-0.195,1.453h56.496l-0.148-1.414C467.423,89.818,456.778,78.836,441.454,78.836z"/>
<path id="XMLID_406_" fill="#091440" d="M319.903,168.246c-23.531,0-47.355-18.313-47.355-53.313s23.824-53.316,47.355-53.316
	c13.988,0,25.344,5.877,34.723,17.967l2.309,2.979V15.752h21.445v150.545h-21.445v-20.469l-2.342,3.301
	C345.47,161.988,334.126,168.246,319.903,168.246z M325.663,79.891c-18.529,0-31.469,14.406-31.469,35.043
	c0,20.305,13.234,35.039,31.469,35.039c18.053,0,31.666-15.063,31.666-35.039C357.329,94.953,343.716,79.891,325.663,79.891z"/>
<linearGradient id="XMLID_2_" gradientUnits="userSpaceOnUse" x1="-99.3545" y1="34.6748" x2="21.2998" y2="34.6748" gradientTransform="matrix(1 0 0 -1 194 117.8223)">
	<stop  offset="0" style="stop-color:#62D0C9"/>
	<stop  offset="1" style="stop-color:#7DE2AC"/>
</linearGradient>
<path id="XMLID_152_" fill="url(#XMLID_2_)" d="M94.646,103.287h53.265c19.787,0,35.886-16.104,35.886-35.893
	c0-19.787-16.099-35.889-35.886-35.889h-16.969L94.646,0h53.265c37.217,0,67.39,30.176,67.39,67.395
	c0,28.234-17.368,52.416-42.002,62.441l41.998,36.459h-48.06L94.646,103.287z"/>
<path id="XMLID_146_" fill="#4971FA" d="M120.653,63.018H67.392c-19.783,0-35.888,16.096-35.888,35.885
	c0,19.787,16.103,35.889,35.888,35.889H84.36l36.295,31.504H67.392C30.173,166.295,0,136.125,0,98.902
	c0-28.234,17.368-52.418,42.002-62.443L0.004,0h48.06L120.653,63.018z"/>
<linearGradient id="XMLID_3_" gradientUnits="userSpaceOnUse" x1="-194" y1="34.6748" x2="-73.3447" y2="34.6748" gradientTransform="matrix(1 0 0 -1 194 117.8223)">
	<stop  offset="0" style="stop-color:#3268FB"/>
	<stop  offset="1" style="stop-color:#4795FA"/>
</linearGradient>
<path id="XMLID_139_" fill="url(#XMLID_3_)" d="M120.653,63.018H67.392c-19.783,0-35.888,16.096-35.888,35.885
	c0,19.787,16.103,35.889,35.888,35.889H84.36l36.295,31.504H67.392C30.173,166.295,0,136.125,0,98.902
	c0-28.234,17.368-52.418,42.002-62.443L0.004,0h48.06L120.653,63.018z"/>
<g>
</g>
<g>
</g>
<g>
</g>
<g>
</g>
<g>
</g>
<g>
</g>
<g>
</g>
<g>
</g>
<g>
</g>
<g>
</g>
<g>
</g>
<g>
</g>
<g>
</g>
<g>
</g>
<g>
</g>
</svg>
