<?xml version="1.0" encoding="utf-8"?>
<!-- Generator: Adobe Illustrator 16.0.0, SVG Export Plug-In . SVG Version: 6.00 Build 0)  -->
<!DOCTYPE svg PUBLIC "-//W3C//DTD SVG 1.1//EN" "http://www.w3.org/Graphics/SVG/1.1/DTD/svg11.dtd">
<svg version="1.1" xmlns="http://www.w3.org/2000/svg" xmlns:xlink="http://www.w3.org/1999/xlink" x="0px" y="0px"
	 width="437.82px" height="84px" viewBox="0 0 437.82 84" enable-background="new 0 0 437.82 84" xml:space="preserve">
<g id="Layer_1">
	<linearGradient id="XMLID_1481_" gradientUnits="userSpaceOnUse" x1="46.9702" y1="41.5093" x2="104.3013" y2="41.5093">
		<stop  offset="0" style="stop-color:#62D0C9"/>
		<stop  offset="1" style="stop-color:#7DE2AC"/>
	</linearGradient>
	<path id="XMLID_152_" fill="url(#XMLID_1481_)" d="M46.97,51.078h25.31c9.402,0,17.051-7.651,17.051-17.054
		S81.682,16.971,72.28,16.971h-8.063L46.97,2h25.31c17.684,0,32.021,14.339,32.021,32.023c0,13.417-8.253,24.906-19.958,29.67
		l19.956,17.324H81.463L46.97,51.078z"/>
	<path id="XMLID_146_" fill="#4971FA" d="M59.328,31.944H34.02c-9.4,0-17.052,7.648-17.052,17.051
		c0,9.402,7.651,17.053,17.052,17.053h8.063l17.246,14.97H34.02c-17.685,0-32.022-14.337-32.022-32.023
		c0-13.416,8.253-24.907,19.958-29.671L2,2h22.836L59.328,31.944z"/>
	<linearGradient id="XMLID_1485_" gradientUnits="userSpaceOnUse" x1="1.9976" y1="41.5093" x2="59.3281" y2="41.5093">
		<stop  offset="0" style="stop-color:#3268FB"/>
		<stop  offset="1" style="stop-color:#4795FA"/>
	</linearGradient>
	<path id="XMLID_139_" fill="url(#XMLID_1485_)" d="M59.328,31.944H34.02c-9.4,0-17.052,7.648-17.052,17.051
		c0,9.402,7.651,17.053,17.052,17.053h8.063l17.246,14.97H34.02c-17.685,0-32.022-14.337-32.022-32.023
		c0-13.416,8.253-24.907,19.958-29.671L2,2h22.836L59.328,31.944z"/>
	<path id="XMLID_133_" fill="#FFFFFF" d="M240.819,56.802v-0.138c0-14.201,10.928-25.338,25.685-25.338
		c9.955,0,16.36,4.177,20.674,10.164l-10.164,7.865c-2.783-3.482-5.984-5.709-10.648-5.709c-6.822,0-11.626,5.778-11.626,12.878
		v0.14c0,7.308,4.804,13.016,11.626,13.016c5.08,0,8.075-2.367,10.998-5.915l10.164,7.238C282.932,77.336,276.737,82,265.948,82
		C252.025,82,240.819,71.352,240.819,56.802z"/>
	<path id="XMLID_119_" fill="#FFFFFF" d="M292.341,31.942h23.207c7.5,0,12.687,1.963,15.983,5.329
		c2.875,2.803,4.346,6.589,4.346,11.427v0.142c0,7.5-3.995,12.478-10.096,15.073l11.709,17.105h-15.703l-9.885-14.862h-5.96v14.862
		h-13.601V31.942z M314.916,55.498c4.627,0,7.29-2.243,7.29-5.819V49.54c0-3.855-2.803-5.818-7.359-5.818h-8.904v11.775H314.916z"/>
	<path id="XMLID_112_" fill="#FFFFFF" d="M342.26,31.953h39.469v11.568H355.72v7.43h23.556v10.727H355.72v7.78h26.361v11.568H342.26
		V31.953z"/>
	<path id="XMLID_86_" fill="#FFFFFF" d="M389.201,31.953h18.93c17.526,0,27.69,10.095,27.69,24.256v0.141
		c0,14.161-10.305,24.677-27.973,24.677h-18.648V31.953z M408.342,68.968c8.132,0,13.53-4.487,13.53-12.408v-0.141
		c0-7.853-5.398-12.409-13.53-12.409h-5.539v24.957H408.342z"/>
	<path id="XMLID_82_" fill="#FFFFFF" d="M213.078,81.944c-14.405,0-24.86-10.613-24.86-25.235c0-14.441,10.162-25.331,23.638-25.331
		c7.219,0,13.214,2.688,17.336,7.774c3.761,4.64,5.832,11.175,5.832,18.402c0,0.833-0.063,1.606-0.138,2.491h-36.624l0.116,0.708
		c1.315,8.084,7.021,13.107,14.888,13.107c5.176,0,9.23-1.711,13.456-5.702l5.805,5.151
		C227.491,79.119,221.123,81.944,213.078,81.944z M211.762,39.462c-7.082,0-12.373,5.335-13.481,13.594l-0.092,0.691h26.845
		l-0.069-0.672C224.102,44.678,219.043,39.462,211.762,39.462z"/>
	<path id="XMLID_78_" fill="#FFFFFF" d="M154.005,81.944c-11.182,0-22.501-8.701-22.501-25.332c0-16.631,11.32-25.333,22.501-25.333
		c6.646,0,12.042,2.793,16.499,8.538l1.097,1.414V9.486h10.19v71.532h-10.19v-9.724l-1.112,1.568
		C166.154,78.973,160.763,81.944,154.005,81.944z M156.742,39.96c-8.804,0-14.953,6.847-14.953,16.652
		c0,9.648,6.289,16.652,14.953,16.652c8.579,0,15.047-7.159,15.047-16.652C171.789,47.119,165.32,39.96,156.742,39.96z"/>
</g>
<g id="Layer_2">
</g>
<g id="specctr" display="none">
	<g id="Dimensions" display="inline">
	</g>
	<g id="Spacing" display="inline">
	</g>
	<g id="Text_Properties" display="inline">
	</g>
	<g id="Object_Properties" display="inline">
	</g>
</g>
</svg>
