<svg xmlns="http://www.w3.org/2000/svg" viewBox="-2380.9 4062 87.5 50"><defs><style>.a{fill:#091440;}.b{fill:#c4cbd2;}</style></defs><g transform="translate(-2546.1 4062)"><rect class="a" width="56.2" height="46.9" transform="translate(180.8 3.1)"/><path class="a" d="M246.5,26.8l6.2-3.1v3.1l-6.2,3.1Z"/><path class="a" d="M246.5,20.6l6.2,3.1v3.1l-6.2-3.1Z"/><path class="a" d="M245.3,12.7l4.5-5.2,1.2,2.8-4.5,5.3Z"/><path class="a" d="M242.9,7l6.9.5,1.2,2.8-6.9-.4Z"/><path class="a" d="M245.3,37.3l4.5,5.2,1.2-2.8-4.5-5.3Z"/><path class="a" d="M242.9,43l6.9-.5,1.2-2.8-6.9.4Z"/><path class="a" d="M171.5,26.8l-6.3-3.1v3.1l6.3,3.1Z"/><path class="a" d="M171.5,20.6l-6.3,3.1v3.1l6.3-3.1Z"/><path class="a" d="M172.7,12.7l-4.6-5.2-1.2,2.8,4.6,5.3Z"/><path class="a" d="M175.1,7l-7,.5-1.2,2.8,7-.4Z"/><path class="a" d="M172.7,37.3l-4.6,5.2-1.2-2.8,4.6-5.3Z"/><path class="a" d="M175.1,43l-7-.5-1.2-2.8,7,.4Z"/></g><g transform="translate(-2546.1 4062)"><path class="b" d="M190.2,9.4,184,12.5V9.4l6.2-3.2Z"/><path class="b" d="M190.2,15.6,184,12.5V9.4l6.2,3.1Z"/><path class="b" d="M190.2,34.4,184,37.5V34.4l6.2-3.2Z"/><path class="b" d="M190.2,40.6,184,37.5V34.4l6.2,3.1Z"/><path class="b" d="M227.7,31.3l6.3-3.2v3.2l-6.3,3.1Z"/><path class="b" d="M227.7,25l6.3,3.1v3.2l-6.3-3.2Z"/><path class="b" d="M227.7,43.8l6.3-3.2v3.2l-6.3,3.1Z"/><path class="b" d="M227.7,37.5l6.3,3.1v3.2l-6.3-3.2Z"/><rect class="b" width="31.2" height="3.1" transform="translate(193.3 9.4)"/><rect class="b" width="15.6" height="3.1" transform="translate(193.3 15.6)"/><rect class="b" width="31.2" height="3.1" transform="translate(193.3 21.9)"/><rect class="b" width="31.2" height="3.1" transform="translate(193.3 40.6)"/><rect class="b" width="13" height="3.1" transform="translate(193.3 34.4)"/><rect class="b" width="15.6" height="3.1" transform="translate(209 34.4)"/><rect class="b" width="15.6" height="3.1" transform="translate(193.3 28.1)"/><rect class="b" width="13" height="3.1" transform="translate(211.6 28.1)"/></g><rect class="b" width="56.2" height="3.1" transform="translate(-2365.3 4062)"/></svg>