<svg xmlns="http://www.w3.org/2000/svg" viewBox="-2245 4187.6 87.4 50"><defs><style>.a{fill:#c4cbd2;}.b{fill:#8997a5;}</style></defs><g transform="translate(-2546.1 4062)"><rect class="a" width="37.6" height="25" transform="translate(325.9 144.3)"/><rect class="b" width="37.6" height="25" transform="translate(325.9 150.6)"/><path class="a" d="M344.7,155a15.736,15.736,0,0,0-13.9,8.1,16.183,16.183,0,0,0,13.9,8.1,15.736,15.736,0,0,0,13.9-8.1A15.936,15.936,0,0,0,344.7,155Z"/><circle class="b" cx="6.2" cy="6.2" r="6.2" transform="translate(338.5 156.9)"/><path class="a" d="M349.8,158l-5.1,5.1h7.2Z"/><ellipse class="b" cx="3.1" cy="1.6" rx="3.1" ry="1.6" transform="translate(329.2 145.8)"/><ellipse class="b" cx="3.1" cy="1.6" rx="3.1" ry="1.6" transform="translate(354.2 145.8)"/><path class="b" d="M329.2,141.2v6.3h6.2v-6.3a9.389,9.389,0,0,1,9.4-9.4h0a9.389,9.389,0,0,1,9.4,9.4v6.3h6.2v-6.3a15.62,15.62,0,0,0-15.6-15.6h0A15.62,15.62,0,0,0,329.2,141.2Z"/><rect class="b" width="15.6" height="3.1" transform="translate(372.9 148.8)"/><rect class="b" width="15.6" height="3.1" transform="translate(301.1 148.8)"/><rect class="b" width="11.8" height="3.1" transform="translate(307.346 164.163) rotate(-22.5)"/><rect class="b" width="15.6" height="3.1" transform="translate(372.9 148.8)"/><rect class="b" width="15.6" height="3.1" transform="translate(301.1 148.8)"/><rect class="b" width="11.9" height="3.1" transform="translate(318.238 141.021) rotate(-157.5)"/><path class="b" d="M381.1,133.6l-10.9,4.6,1.2,2.8,10.9-4.5Z"/><rect class="b" width="11.8" height="3.1" transform="translate(381.128 167.131) rotate(-157.5)"/></g></svg>