<svg xmlns="http://www.w3.org/2000/svg" viewBox="-2534.4 4280.4 75 50"><defs><style>.a{fill:#091440;}.b{fill:#6ed3f3;}</style></defs><g transform="translate(0 -109)"><g transform="translate(-2546.1 4062)"><path class="a" d="M21.6,346.1H49.2v25H11.7V356A9.923,9.923,0,0,1,21.6,346.1Z"/><path class="a" d="M24.2,371.1,18,377.4v-6.3Z"/><path class="b" d="M27.3,346.1l-6.2,6.3v-6.3Z"/><path class="b" d="M74.2,368l6.3,6.2V368Z"/><rect class="a" width="37.5" height="21.9" transform="translate(49.2 346.1)"/><rect class="b" width="36.7" height="3.1" transform="translate(49.2 349.2)"/><rect class="b" width="36.7" height="3.1" transform="translate(49.2 355.5)"/><rect class="b" width="36.7" height="3.1" transform="translate(49.2 361.7)"/><path class="a" d="M64.3,330.5H49.2v18.8h25v-8.8A9.881,9.881,0,0,0,64.3,330.5Z"/><path class="b" d="M31,327.4H49.2v18.8H21.1v-8.8A9.881,9.881,0,0,1,31,327.4Z"/><path class="a" d="M35.1,334.5l.1.3a2.137,2.137,0,0,0,1.7,1.2h.3l-.2.2a2.133,2.133,0,0,0-.6,2l.1.3-.3-.1a2.563,2.563,0,0,0-2.1,0l-.3.1.1-.3a2.417,2.417,0,0,0-.6-2l-.2-.2h.3a2.378,2.378,0,0,0,1.7-1.2Z"/><path class="a" d="M40.1,329.9l.1.3a2.137,2.137,0,0,0,1.7,1.2h.3l-.2.2a2.133,2.133,0,0,0-.6,2l.1.3-.3-.1a2.563,2.563,0,0,0-2.1,0l-.3.1.1-.3a2.417,2.417,0,0,0-.6-2l-.2-.2h.3a2.378,2.378,0,0,0,1.7-1.2Z"/><path class="a" d="M30.1,329.9l.1.3a2.137,2.137,0,0,0,1.7,1.2h.3l-.2.2a2.133,2.133,0,0,0-.6,2l.1.3-.3-.1a2.563,2.563,0,0,0-2.1,0l-.3.1.1-.3a2.417,2.417,0,0,0-.6-2l-.2-.2h.3a2.378,2.378,0,0,0,1.7-1.2Z"/><path class="a" d="M40.1,339.5l.1.3a2.137,2.137,0,0,0,1.7,1.2h.3l-.2.2a2.133,2.133,0,0,0-.6,2l.1.3-.3-.1a2.563,2.563,0,0,0-2.1,0l-.3.1.1-.3a2.417,2.417,0,0,0-.6-2L38,341h.3a2.378,2.378,0,0,0,1.7-1.2Z"/><path class="a" d="M30.1,339.5l.1.3a2.137,2.137,0,0,0,1.7,1.2h.3l-.2.2a2.133,2.133,0,0,0-.6,2l.1.3-.3-.1a2.563,2.563,0,0,0-2.1,0l-.3.1.1-.3a2.417,2.417,0,0,0-.6-2L28,341h.3a2.378,2.378,0,0,0,1.7-1.2Z"/><path class="b" d="M30.9,354.3l3,5.1,2.9,5.2H24.9l3-5.2Z"/><rect class="b" width="3.1" height="21.9" transform="translate(83.6 346.1)"/><path class="a" d="M61.7,346.1l6.3,6.3v-6.3Z"/></g></g></svg>