<?xml version="1.0" encoding="utf-8"?>
<!-- Generator: Adobe Illustrator 16.0.0, SVG Export Plug-In . SVG Version: 6.00 Build 0)  -->
<!DOCTYPE svg PUBLIC "-//W3C//DTD SVG 1.1//EN" "http://www.w3.org/Graphics/SVG/1.1/DTD/svg11.dtd">
<svg version="1.1" id="Layer_1" xmlns="http://www.w3.org/2000/svg" xmlns:xlink="http://www.w3.org/1999/xlink" x="0px" y="0px"
	 width="274.844px" height="213.34px" viewBox="0 0 274.844 213.34" enable-background="new 0 0 274.844 213.34"
	 xml:space="preserve">
<path id="XMLID_2359_" fill="#091440" d="M162.207,192.324c14.434,11.922,35.137,21.016,56.785,21.016
	c36.082,0,55.852-20.703,55.852-45.492c0-28.863-24.477-37.961-46.438-46.117c-17.258-6.59-33.883-12.234-33.883-26.357
	c0-11.604,8.781-21.961,27.922-21.961c13.492,0,24.473,5.648,34.828,13.49l12.234-16.313c-11.609-9.414-28.238-17.258-47.375-17.258
	c-32.945,0-52.398,18.826-52.398,43.297c0,25.727,23.848,36.082,45.492,43.926c16.633,6.277,34.828,13.176,34.828,28.863
	c0,13.18-10.039,23.844-30.117,23.844c-18.199,0-31.691-7.527-44.867-18.195L162.207,192.324z M0,182.91
	c17.883,18.512,42.984,30.43,71.852,30.43c43.297,0,70.277-26.039,70.277-58.668c0-30.434-18.512-44.549-42.355-54.902
	L70.281,87.217c-16-6.904-34.199-14.43-34.199-34.199c0-18.51,15.375-30.121,38.59-30.121c18.828,0,34.199,7.533,46.75,19.457
	l13.805-16.945C120.793,10.35,99.145,0,74.672,0C37.336,0,9.727,23.213,9.727,54.588c0,30.117,22.59,44.865,41.73,53.021
	l29.492,12.863c19.449,8.785,34.512,15.375,34.512,36.395c0,20.082-16,33.574-42.984,33.574c-21.648,0-42.039-10.352-56.789-25.727
	L0,182.91z"/>
<g>
</g>
<g>
</g>
<g>
</g>
<g>
</g>
<g>
</g>
<g>
</g>
<g>
</g>
<g>
</g>
<g>
</g>
<g>
</g>
<g>
</g>
<g>
</g>
<g>
</g>
<g>
</g>
<g>
</g>
</svg>
