<svg xmlns="http://www.w3.org/2000/svg" xmlns:xlink="http://www.w3.org/1999/xlink" viewBox="2013 1947 180 180"><defs><style>.a{clip-path:url(#a);}.b{fill:#c4cbd2;}.c,.f,.g{fill:#091440;}.d{fill:#fff;}.e{clip-path:url(#d);}.f{opacity:0.5;}.g{opacity:0.1;}</style><clipPath id="a"><circle cx="90" cy="90" r="90"/></clipPath><clipPath id="d"><path d="M67.3,88.4l-.8,4.2s3.3,19.6,3.3,28.5c0,5.7-1.2,11.7-4.2,13.6h0c6.8,5.8,22.1,21.7,37.3,18.9,19-3.4,16.6-13.2,16.6-13.2s-5-8.2.1-27.4C124.7,93.7,67.3,88.4,67.3,88.4Z"/></clipPath></defs><g transform="translate(2013 1947)"><g class="a"><circle class="b" cx="90" cy="90" r="90"/></g><g class="a"><path class="c" d="M180,219.4H6.9V161.5l58.7-26.9c3.7-2.2,3.7-4.6,7.9-4.2l42.1,4.1,64.3,34v50.9Z"/></g><g class="a"><path class="d" d="M67.3,88.4l-.8,4.2s3.3,19.6,3.3,28.5c0,5.7-1.2,11.7-4.2,13.6h0c6.8,5.8,22.1,21.7,37.3,18.9,19-3.4,16.6-13.2,16.6-13.2s-5-8.2.1-27.4C124.7,93.7,67.3,88.4,67.3,88.4Z"/><g class="e"><path class="f" d="M81.3,114s6,18.3,24,22.4c19.7,4.5,15-6.3,15-6.3V105Z"/></g><path class="d" d="M128.7,67.2c.5-7.5,1.6-18.6.9-24.2-.7-5.5-4.9-20.8-25.7-22a77.283,77.283,0,0,0-36.6,7L59.8,53s4.4,31.6,6.7,39.6,16.4,26.7,31.3,34h0a20.168,20.168,0,0,0,7.1,1.2c8.6.1,15.5-5.1,16.4-11.8,0-.4.1-.7.1-1,4.6-6.8,6.3-14.6,7.2-23.9C129.8,79.6,128.2,74.6,128.7,67.2Z"/><path class="f" d="M100.4,90a10.52,10.52,0,0,0,4,0c3.8-.6,5.7,2.2,13.6-.7C116.5,94.7,105.8,94.5,100.4,90Z"/><path class="c" d="M101.6,65.1s0,1.2-2.1,1.3-10.1-1.1-14.1-1.3-7.7,1-9.7,2.6c0-3.3,2.9-4.6,6-5.6a13.284,13.284,0,0,1,7.7,0C94.1,63.3,101.6,63.7,101.6,65.1Z"/><path class="c" d="M84.2,71.9A5.072,5.072,0,0,1,85.6,70a5.778,5.778,0,0,1,2-1.3,6.468,6.468,0,0,1,1.3-.4,1.952,1.952,0,0,1,.7-.1h.8a7.546,7.546,0,0,1,4.8,1.9,9.477,9.477,0,0,1,1.1,1.3c.1.2.2.3.2.4a.349.349,0,0,0,.1.2,5.2,5.2,0,0,1-.5-.3c-.3-.2-.8-.4-1.4-.7a11.238,11.238,0,0,0-4.2-.9H90l-.7-.1c-.4.1-.8.1-1.1.2a11.764,11.764,0,0,0-2,.7A15.133,15.133,0,0,0,84.2,71.9Z"/><circle class="c" cx="2.4" cy="2.4" r="2.4" transform="translate(87.1 68.5)"/><circle class="c" cx="2.4" cy="2.4" r="2.4" transform="translate(116.6 69.2)"/><path class="c" d="M113.7,71.6a12.965,12.965,0,0,1,1.6-1.5,15.73,15.73,0,0,1,1.9-1.2l.3-.1h.2l.1-.1.3-.1.4-.1a7.719,7.719,0,0,1,1.5-.2,8.28,8.28,0,0,1,4.7,1.7,6.788,6.788,0,0,1,1.2,1.2.758.758,0,0,1,.2.4l.1.1a10.734,10.734,0,0,0-2-.7,17.537,17.537,0,0,0-4.2-.7,3.083,3.083,0,0,0-1,.1h-.2l-.3.1h-.2l-.3.1a16.553,16.553,0,0,1-2.1.6A21.319,21.319,0,0,1,113.7,71.6Z"/><path class="c" d="M115.2,66.9c1.1.1,6.2-1.4,8.1-2s5.2.1,5.4,2.3c0-3.5-1.3-4.7-3.6-4.7a32.577,32.577,0,0,0-8.3,1.1C114.8,64.4,112.1,66.5,115.2,66.9Z"/><path class="c" d="M126.2,69.6a5.2,5.2,0,0,1-.5-.3,8.1,8.1,0,0,0-1.3-.6l-.9-.3c-.3-.1-.7-.2-1-.3a4.253,4.253,0,0,0-1.1-.2,4.485,4.485,0,0,0-1.1-.1h-1.1c-.4,0-.7.1-1.1.1a4.4,4.4,0,0,1-1,.2l-.9.3c-.3.1-.5.2-.8.3l-.6.3a4.2,4.2,0,0,0-.5.2,1.727,1.727,0,0,0,.4-.3c.1-.1.3-.2.5-.4a1.612,1.612,0,0,1,.7-.4c.3-.1.6-.3.9-.4s.7-.3,1.1-.4a5.019,5.019,0,0,1,1.2-.2,4.819,4.819,0,0,1,1.2,0c.4,0,.8.1,1.2.1a5.274,5.274,0,0,1,1.2.3,17.153,17.153,0,0,1,1.9.9A5.858,5.858,0,0,1,126.2,69.6Z"/><path class="c" d="M97.8,68.9s-.9-.3-2.2-.7a13.157,13.157,0,0,0-2.3-.5c-.4-.1-.9-.1-1.3-.2-.4,0-.9-.1-1.3-.1h-2c-.2,0-.4.1-.6.1-.4.1-.8.1-1.2.2s-.7.2-1.1.3l-.9.3a4.874,4.874,0,0,0-.7.3l-.6.3a2.22,2.22,0,0,0,.5-.4c.2-.1.4-.3.6-.4a5.582,5.582,0,0,1,.8-.5,3.582,3.582,0,0,1,1.1-.4c.2-.1.4-.1.6-.2a1.268,1.268,0,0,1,.6-.1,5.9,5.9,0,0,1,1.4-.2,6.6,6.6,0,0,1,1.4-.1c.5,0,.9.1,1.4.1.5.1.9.2,1.3.3a12.344,12.344,0,0,1,2.3.8A7.031,7.031,0,0,1,97.8,68.9Z"/><path class="f" d="M91.9,99.2s11.2-2,15.1.1c2.8-1,4.7-.9,7.3-1a26.315,26.315,0,0,0,5.3-.5l-1.6,1s-9.6,1.7-11.8,2.1C104,101.4,91.9,99.2,91.9,99.2Z"/><path class="c" d="M91.9,99.2a113.274,113.274,0,0,1,11.9.7c5.7.7,8.9-.9,14.2-1-5.6,6-7.7,5.6-12.2,5.8C101.4,104.9,96.6,103,91.9,99.2Z"/><path class="d" d="M96.6,99.3s2,2.8,9.3,3.3,8.4-3.3,8.4-3.3-4,.2-7.2.7C106.2,100.2,104.4,99.5,96.6,99.3Z"/><path class="c" d="M68.9,80s-2.7-8-.8-15.1a21.735,21.735,0,0,1,6.6-10.8A13.869,13.869,0,0,1,70.9,43c1.9-13.9,17.8-17.1,17.8-17.1l-4.9,4.5,9.6-4.5s4.1-1.5,9.5,1.2c2.6,1.3,6.1,5.8,6.1,5.8l-2.7-6.8s8.8,5.5,10,8.7c0-3-1.8-7.3-1.8-7.3s8.6.5,12.5,14.1c2.8,9.8,1.8,25.6,1.8,25.6s1.9-14.5.9-24.2S124.5,23.1,109,17s-31.4-3-40.3,2.7c-9,5.7-12.3,13.2-13,20.6S57.1,67,57.1,67s3.7,2.3,4.1,4.5C61.5,73.8,65,79.7,68.9,80Z"/><path class="d" d="M57.1,67c-3.4-.6-6.4,8-3.7,13.6S59,93,63.4,93.7s4.4-4.2,3.4-9.9S60.5,67.6,57.1,67Z"/><path class="g" d="M123.4,95.5c-.1-.1-8.4-4.6-11.9-1.9-3.1,2.4-3.9,2.5-8.6.2s-5.5-.6-8.9.7a32.162,32.162,0,0,1-6.9,1.7c-.5,1.3-1.5,18.2,3.3,24.2,2.8,3.5,5.9,7.4,14.6,7.5,8.6.1,15.5-5.1,16.4-11.8C122.3,109.3,124.6,96.3,123.4,95.5Zm-8.2,19.6c-4,.4-3.8-7.1-3.8-7.1a20.831,20.831,0,0,1-9.4.3s.9,5.6-2.5,7.3c-2.8,1.4-8.7-2.4-9.8-16.4a50.574,50.574,0,0,1,11.5-1.3c1.8,0,6.5.4,9,0,4-.6,6.6-.5,10.7-1C120.7,97.5,119.2,114.7,115.2,115.1Z"/></g></g></svg>