<svg xmlns="http://www.w3.org/2000/svg" xmlns:xlink="http://www.w3.org/1999/xlink" viewBox="2960 1947 180 180"><defs><style>.a{clip-path:url(#a);}.b{fill:#2970ff;}.c{fill:#fff;}.d,.e,.g{fill:#091440;}.d{opacity:0.25;}.f{clip-path:url(#c);}.g{opacity:0.5;}</style><clipPath id="a"><circle cx="90" cy="90" r="90"/></clipPath><clipPath id="c"><path d="M68.8,96.5c1.8,11,.1,22.4-1.1,28.7-1,5.5,1.3,7.2,4.9,11.5,4.9,5.9,12,10.6,21.2,10.9,17.3.5,17.3-13,17.1-23.7-.3-10.7.6-15,.6-15Z"/></clipPath></defs><g transform="translate(2960 1947)"><g class="a"><circle class="b" cx="90" cy="90" r="90"/></g><g class="a"><path class="c" d="M31.7,123.5s3.2,3.9,8.3-14.5c4.3-15.5,3.9-25.9,5.4-45.8s7-35.8,24.1-48C86,3.4,102,7.3,109,10.8s15.9,6.9,22.3,23.1c6.3,16.3,3.2,31.2,11.6,55.9s1.6,40.6,1.6,40.6-8.6,13.7-31.1,2c-7.4-3.9-37.6,1.6-37.6,1.6s-2,7-9.1,5.9S36,136.2,31.7,123.5Z"/><path class="d" d="M31.7,123.5s3.2,3.9,8.3-14.5c4.3-15.5,3.9-25.9,5.4-45.8s7-35.8,24.1-48C86,3.4,102,7.3,109,10.8s15.9,6.9,22.3,23.1c6.3,16.3,3.2,31.2,11.6,55.9s1.6,40.6,1.6,40.6-8.6,13.7-31.1,2c-7.4-3.9-37.6,1.6-37.6,1.6s-2,7-9.1,5.9S36,136.2,31.7,123.5Z"/><path class="b" d="M133.4,138.5s4.4-5.3,4.8-11.6a31.45,31.45,0,0,1,0,15.1Z"/><path class="c" d="M67.7,128.1v5.7s8.7,27.5,8.7,47.9V193H117s-1-48.9-7.6-64.9-26,11.9-26,11.9Z"/><path class="e" d="M168.8,162l-57.9-33.9h-1.4c-3.3-8.1-9.8-5-15.5,0H67.8L9.6,152.8V182H76.4v10.9H117s-.1-4.4-.4-10.9h52.1V162Z"/><path class="c" d="M67,88.4c1.8,11,1.8,30.5.7,36.8-1,5.5,3,14.9,7.2,18.7,4.1,3.7,8.6,8.6,17.7,8.3,13.3-.5,18.8-11.5,18.2-28.3-.4-10.7.6-15,.6-15Z"/><g class="f"><path class="g" d="M80.1,101.8c-9.4,2.3-2.3,7.9,2.3,17.4s15.4,12.2,25.9,11c7-.8,4.1-6.3,4.1-6.3l-1.5-5.8Z"/></g><path class="c" d="M124.7,89.8a106.089,106.089,0,0,0,1.5-10.7c.4-13.3-.6-22.7-.7-30.9s-5-13.9-7.3-16.1a77.268,77.268,0,0,1-19.5,7.5C86.5,42.3,74.4,43.7,69.4,55s-2.6,23.6-2.6,23.6l-8.1,6.8S61.2,93,64.5,93h5.2s-1.1,5.9,4.5,12.4c5.9,6.8,9.4,7.8,12.9,11.5,3.4,3.7,6.7,6.4,10,6.6s6.8.4,9.9.4c3.3,0,2.9-2,10-9C123.9,107.8,122.4,100.5,124.7,89.8Z"/><path class="e" d="M124.1,70.3a9.1,9.1,0,0,0-6-2.1c-4-.1-6.3,3.5-6.3,3.5a12.423,12.423,0,0,1,5.7-1.8C120.6,69.9,124.1,70.3,124.1,70.3Z"/><path class="d" d="M109.8,68.1c1.2-2.6,5.1-2.7,7.6-3.5s5.3-1.7,7.3-.5c2.2,1.3,1.1,4.4,1.1,4.4s.4-2.1-3-1.9a45.82,45.82,0,0,0-9.4,1.9C111.5,69,108.1,71.7,109.8,68.1Z"/><path class="e" d="M81.2,70.3s2.3-2,7-2.1a9.272,9.272,0,0,1,7.3,3.5A15.631,15.631,0,0,0,88.8,70,69.762,69.762,0,0,0,81.2,70.3Z"/><circle class="e" cx="2.5" cy="2.5" r="2.5" transform="translate(85.2 68.2)"/><path class="e" d="M119.6,70.7c0-1.4-1.4-2.2-2.8-2.2a2,2,0,0,0-2.2,2.2,2.5,2.5,0,0,0,5,0Z"/><path class="d" d="M97.7,68.2c-1.5-2.8-6.3-2.8-9.4-3.7s-7.3-2.3-10.9-.4-2.9,4.5-2.9,4.5a11.871,11.871,0,0,1,7.2-2,66.109,66.109,0,0,1,11.6,2C95.6,69.2,99.8,72,97.7,68.2Z"/><path class="g" d="M102.8,94.7a32.253,32.253,0,0,1-6-.6,13.628,13.628,0,0,0,7.9,2.7c4.9.1,6-.8,6.4-2.3C111.2,94.4,105.9,94.8,102.8,94.7Z"/><path class="g" d="M114,102.6c2.5.1,3.9-1.9,2.4-1.9s-1.4,1.1-3.3.5-2.3-2.4-4.8-2-2.9,1.8-4.3,1.8c-2.1-.1-2.3-1.2-4-1.5-2.3-.4-5.8,2.3-7.3,2.2s-2.9-1.7-4.4-.6,2.2,1.8,3.6,1.7c1.5-.1,4.2-1.1,6.4-.6s2.6,1.3,5.7,1.3,3.5-2.1,5.9-1.6C113.9,102.8,114,102.6,114,102.6Z"/><path class="g" d="M99.4,107.5c2.1.4,8.7,0,8.7,0a8.686,8.686,0,0,1-4.4,1.5A8.141,8.141,0,0,1,99.4,107.5Z"/><path class="e" d="M122,69.9a6.906,6.906,0,0,1-.6,2.6s2-.7,1.7-2.3C123,69.5,122,69.9,122,69.9Z"/><path class="e" d="M83.7,70a2.529,2.529,0,0,0,0,2.4c-1.5-1.2-1.4-2.3-1.4-2.3S84,69.4,83.7,70Z"/></g></g></svg>