<svg xmlns="http://www.w3.org/2000/svg" xmlns:xlink="http://www.w3.org/1999/xlink" viewBox="1539 1947 180 180"><defs><style>.a{clip-path:url(#a);}.b{fill:#596d81;}.c,.f,.g{fill:#091440;}.d{fill:#fff;}.e{clip-path:url(#c);}.f,.i{opacity:0.5;}.g{opacity:0.25;}.h{clip-path:url(#d);}</style><clipPath id="a"><circle cx="90" cy="90" r="90"/></clipPath><clipPath id="c"><path d="M114.4,131.1c-2.3,11.1-6.4,22-19.7,21.7s-31.6-13.3-30.8-27.9,4.3-40,4.3-40L121.9,89Z"/></clipPath><clipPath id="d"><path d="M93.1,98.7a3.951,3.951,0,0,0,3.1.9c1.8-.3,7.3.3,15.5.9s8.7-.6,12.2-.2l3.8.1s-6.7,7.9-16,7.6C102.4,107.8,97.2,102.8,93.1,98.7Z"/></clipPath></defs><g transform="translate(1539 1947)"><g class="a"><path class="b" d="M90,0A90,90,0,1,1,0,90,90,90,0,0,1,90,0Z"/></g><g class="a"><path class="c" d="M107,120H69.7L3.1,155.2v30.4H173.6V155.2Z"/><path class="d" d="M114.4,131.1c-2.3,11.1-6.4,22-19.7,21.7s-31.6-13.3-30.8-27.9,4.3-40,4.3-40L121.9,89Z"/><path class="d" d="M69.7,92.8s-6.1,4.8-9.3,0-2.3-9.7-4-15.2.3-11.5,8-11.4,8.6,6.8,8.8,12S72.7,89.2,69.7,92.8Z"/><g class="e"><path class="f" d="M71.8,100.3s9.8,21.1,18.2,28.3c5.3,4.5,18.9,12.5,26.4,9.7s9.9-11.6,9.9-11.6l-6.8-15.2Z"/></g><path class="d" d="M66,75.6s3.5,20.8,7.1,27.8c3.7,7,8.5,7.9,13.2,13.1,3.6,4,13.4,12.2,24,12s10.3-5.5,16.5-16.6c9.5-17,5.7-23.8,6.4-34s-.5-25.3-3.8-34.9-12.8-13.6-24.1-15.4S75,29.8,71.7,38.2C68.3,46.6,65.4,64.3,66,75.6Z"/><path class="g" d="M105,61.6c-1.7-2.7-6.8-3.9-13.2-3.5s-7.8,3.2-8.1,6.4a7.465,7.465,0,0,1,7-3.2C95.7,61.6,106.8,64.5,105,61.6Z"/><path class="g" d="M120.6,62.5c-1-1.5,1.7-3.4,5.5-3.7,3.9-.2,7,1.4,7.3,3.7a11.992,11.992,0,0,1,0,3.7s-.2-3.3-3.2-3.7C127,62.1,121.7,64.3,120.6,62.5Z"/><path class="c" d="M88.3,70.2a7.6,7.6,0,0,1,2-2c.4-.2.7-.5,1.2-.8a6.109,6.109,0,0,1,1.4-.7,9.83,9.83,0,0,1,1.6-.5,11.019,11.019,0,0,1,1.8-.2h.9c.3,0,.6.1.9.1a5.257,5.257,0,0,1,1.7.4,3.694,3.694,0,0,1,1.4.7,2.092,2.092,0,0,1,.6.4c.2.2.4.3.5.4.3.3.6.5.9.8a4.349,4.349,0,0,0,.6.7,4.574,4.574,0,0,1,.4.6,14.1,14.1,0,0,1-1.5-.7,3,3,0,0,0-1-.4,4.234,4.234,0,0,0-1.2-.4,4.961,4.961,0,0,0-1.3-.3c-.2,0-.5-.1-.7-.1a1.7,1.7,0,0,1-.7-.1,7.519,7.519,0,0,0-1.5,0c-.5,0-1,.1-1.5.1a5.768,5.768,0,0,0-1.4.3,7.366,7.366,0,0,0-1.4.4c-.4.1-.8.3-1.2.4A20.032,20.032,0,0,0,88.3,70.2Z"/><path class="c" d="M119.5,70.2a4.574,4.574,0,0,1,.4-.6,7.949,7.949,0,0,1,1.3-1.4,8.745,8.745,0,0,1,1-.8c.4-.2.8-.5,1.2-.7a7.838,7.838,0,0,1,1.4-.5c.5-.1,1-.2,1.6-.3h.8l.7.1c.5.1,1.1.2,1.6.3a5.171,5.171,0,0,1,1.3.6,3.915,3.915,0,0,1,1,.8,3.684,3.684,0,0,1,1,1.6c.1.4.2.7.2.7a6.744,6.744,0,0,0-1.9-1.4,10.33,10.33,0,0,0-2.1-.7,4.869,4.869,0,0,0-1.2-.1h-1.3a5.853,5.853,0,0,0-1.3.2,6.106,6.106,0,0,0-1.3.3,5.637,5.637,0,0,0-1.2.4c-.4.1-.7.3-1.1.4C120.4,69.7,119.5,70.2,119.5,70.2Z"/><path class="c" d="M97.8,67.9c0-1.5-1.2-1.5-2.6-1.5s-2.6.1-2.6,1.5a2.647,2.647,0,0,0,2.6,2.6A2.582,2.582,0,0,0,97.8,67.9Z"/><path class="c" d="M127.8,67.9c0-1.5-1.2-1.5-2.6-1.5a4.055,4.055,0,0,0-2.6,1.5,2.6,2.6,0,1,0,5.2,0Z"/><path class="f" d="M105.1,89a14.459,14.459,0,0,0,9,3.7c6,.5,8.4-3.7,8.4-3.7A48.36,48.36,0,0,1,105.1,89Z"/><path class="f" d="M93.1,98.7s1.4.6,5.7,0,6.1-.3,10.8.1,8.4-.7,10.8-.2,7.2,1.8,7.2,1.8l-1.7.5L111.4,102,96.2,99.5C96.2,99.7,95.3,100.5,93.1,98.7Z"/><g class="h"><path class="c" d="M93.1,98.7a3.951,3.951,0,0,0,3.1.9c1.8-.3,7.3.3,15.5.9s8.8-1.4,12.4-1l3.6.9s-6.7,7.9-16,7.6C102.4,107.8,97.2,102.8,93.1,98.7Z"/></g><g class="h"><path class="d" d="M102.9,99.7a17.639,17.639,0,0,0,10,4.3c5.9.4,10.9-4.4,10.9-4.4Z"/></g><path class="d" d="M56.8,70.2s-1.4-18.1,3.9-31.7S76.9,18.9,87.9,16a11.011,11.011,0,0,0,6.9-5.1A106.81,106.81,0,0,0,113,20.8c10.6,4.5,23,15.2,19.4,35L130.7,47s-5.8,2.6-17.3.8-17-5.5-18.2-11.7c-3,3.5,1.8,8.7,1.8,8.7s-13.4-4.1-16.7-.2c-3.4,4-7.6,22-5,33.7l-4,3.5L67.1,69S62.9,65.4,56.8,70.2Z"/><path class="g" d="M56.8,70.2s-1.4-18.1,3.9-31.7S76.9,18.9,87.9,16a11.011,11.011,0,0,0,6.9-5.1A106.81,106.81,0,0,0,113,20.8c10.6,4.5,23,15.2,19.4,35L130.7,47s-5.8,2.6-17.3.8-17-5.5-18.2-11.7c-3,3.5,1.8,8.7,1.8,8.7s-13.4-4.1-16.7-.2c-3.4,4-7.6,22-5,33.7l-4,3.5L67.1,69S62.9,65.4,56.8,70.2Z"/><g class="i"><path class="c" d="M101.7,71.8a12.613,12.613,0,0,1-1.5.6c-.5.1-1,.3-1.6.4a11.019,11.019,0,0,1-1.8.2,12.1,12.1,0,0,1-1.9-.1,7.491,7.491,0,0,1-1.6-.4,5.821,5.821,0,0,1-1.1-.5l-.4-.2a1,1,0,0,1,.4.1,3.75,3.75,0,0,0,1.1.1h3.3a10.869,10.869,0,0,0,1.8-.1,8.083,8.083,0,0,0,1.6-.1A7.394,7.394,0,0,1,101.7,71.8Z"/></g><g class="i"><path class="c" d="M130.9,71.8a5.221,5.221,0,0,1-1.2.6c-.4.1-.8.3-1.3.4a7.719,7.719,0,0,1-1.5.2,8.6,8.6,0,0,1-1.6-.1,3.992,3.992,0,0,1-1.3-.4,2.186,2.186,0,0,1-.5-.3.758.758,0,0,0-.4-.2,1.238,1.238,0,0,1-.3-.2h.4a2.22,2.22,0,0,0,.9.1h2.7a7.569,7.569,0,0,0,1.5-.1c.5,0,.9-.1,1.3-.1A7.308,7.308,0,0,1,130.9,71.8Z"/></g></g></g></svg>