<svg xmlns="http://www.w3.org/2000/svg" xmlns:xlink="http://www.w3.org/1999/xlink" viewBox="2251 1947 180 180"><defs><style>.a{clip-path:url(#a);}.b{fill:#2970ff;}.c,.e,.g{fill:#091440;}.d{fill:#fff;}.e{opacity:0.1;}.f{clip-path:url(#c);}.g{opacity:0.5;}</style><clipPath id="a"><circle cx="90" cy="90" r="90"/></clipPath><clipPath id="c"><path d="M55.4,86s2.2,20.9,0,26.2-8.9,8.5-8.9,8.5-2.9,5.9,6,15.7,41.1,21.9,58.1,0l6-24.2-49-34.7Z"/></clipPath></defs><g transform="translate(1641 893)"><g transform="translate(610 1054)"><g class="a"><path class="b" d="M90,0A90,90,0,1,1,0,90,90,90,0,0,1,90,0Z"/></g><g class="a"><path class="c" d="M178.3,199.6H5.2V141.7l41.3-21,50.1-5.9L163,154.9Z"/><path class="d" d="M55.4,86s2.2,20.9,0,26.2-8.9,8.5-8.9,8.5-2.9,5.9,6,15.7,41.1,21.9,58.1,0l6-24.2-49-34.7Z"/><path class="e" d="M55.4,86s2.2,20.9,0,26.2-8.9,8.5-8.9,8.5-2.9,5.9,6,15.7,41.1,21.9,58.1,0l6-24.2-49-34.7Z"/><g class="f"><path class="g" d="M69.8,110.1s16,32.7,46.9,25.7,2.5-35,2.5-35Z"/></g><path class="d" d="M59.9,86s1.5,16,9.9,24.1,21.9,16,33.8,15.8c12-.2,13.3-.7,16.9-7.5,3.6-6.9,6.6-11.4,7.9-16.4s4.8-9,4.3-12.9-2.9-10.2-2.9-14.2c0-3.9,1.7-6.7,2.7-11.4s-2.5-6.2-3.7-10.2-3.4-10.2-4.8-13.4a27.836,27.836,0,0,1-1.9-4.7s-8-11.5-28.6-11.9-29.8,16-33.6,23.6S59.9,86,59.9,86Z"/><path class="e" d="M59.9,86s1.5,16,9.9,24.1,21.9,16,33.8,15.8c12-.2,13.3-.7,16.9-7.5,3.6-6.9,6.6-11.4,7.9-16.4s4.8-9,4.3-12.9-2.9-10.2-2.9-14.2c0-3.9,1.7-6.7,2.7-11.4s-2.5-6.2-3.7-10.2-3-10.6-4.5-13.7-2.3-4.4-2.3-4.4-8-11.5-28.6-11.9-29.7,16-33.5,23.6S59.9,86,59.9,86Z"/><path class="c" d="M82.8,64.7a2.764,2.764,0,0,1,.6-.6,6.2,6.2,0,0,1,1.9-1.3,17.24,17.24,0,0,1,3-1.1,11.019,11.019,0,0,1,1.8-.2,12.034,12.034,0,0,1,1.9,0,6.8,6.8,0,0,1,1.9.3,6.356,6.356,0,0,1,1.8.6,7.143,7.143,0,0,1,1.5.8,6.232,6.232,0,0,1,1.2.9,10.16,10.16,0,0,1,1.5,1.6,2.767,2.767,0,0,1,.4.7,2.767,2.767,0,0,1-.7-.4c-.5-.2-1.1-.5-1.9-.8-.4-.1-.8-.3-1.3-.4s-.9-.3-1.4-.4c-.2-.1-.5-.1-.8-.2-.3,0-.5-.1-.8-.1-.5-.1-1-.1-1.6-.2-.5,0-1.1-.1-1.6-.1H88.6a12.021,12.021,0,0,0-2.8.3A16.04,16.04,0,0,0,82.8,64.7Z"/><path class="c" d="M116.6,68.7l.3-.6a9.232,9.232,0,0,1,1.1-1.4,6.971,6.971,0,0,1,2.1-1.4,5.988,5.988,0,0,1,3-.6,3.533,3.533,0,0,1,1.7.4l.6.3a2.506,2.506,0,0,1,.7.4,6.606,6.606,0,0,1,1.9,1.8,4.72,4.72,0,0,1,.7,1.7,3.2,3.2,0,0,1,.1.7,3.609,3.609,0,0,0-.5-.4,4.846,4.846,0,0,0-1.3-.9,17.153,17.153,0,0,0-1.9-.9c-.2-.1-.3-.1-.5-.2s-.4-.1-.6-.2c-.3-.1-.6-.1-1-.2a11.623,11.623,0,0,0-4.2.8,7.7,7.7,0,0,0-1.5.6A2.442,2.442,0,0,0,116.6,68.7Z"/><path class="g" d="M91.5,71.5s-7.3-3.9-1.6-3.1a35.3,35.3,0,0,0,10.4-.1A18.291,18.291,0,0,1,91.5,71.5Z"/><path class="g" d="M117.9,71.1a6.531,6.531,0,0,0,4,3.1c2.6.6,6-1.7,2.1-2.3S117.9,71.1,117.9,71.1Z"/><path class="c" d="M124,67.4c0-1.6-1.3-1.9-2.9-1.9s-2.9.3-2.9,1.9a2.9,2.9,0,0,0,5.8,0Z"/><path class="c" d="M92.4,64c0-1.6-1.3-1.9-2.9-1.9s-2.9.3-2.9,1.9a2.9,2.9,0,0,0,2.9,2.9A2.968,2.968,0,0,0,92.4,64Z"/><path class="c" d="M121.1,56.4c-2.5,1.6-4.2,4.9-.9,5.3s5.6-2.2,8.5-2.2,3.7,3.9,3.7,3.9,1.3-5.1-2.8-7C125.5,54.4,122.8,55.3,121.1,56.4Z"/><path class="c" d="M104.4,59.3c3-.9.9-6.1-5.3-7.3s-11.6-1.5-16.3,1.1a16.573,16.573,0,0,0-6.5,6.1s8.2-5.8,15.3-4.1S101.2,60.3,104.4,59.3Z"/><path class="g" d="M98.9,83.5c.4,1.3,2,.7,4.7,0,2.6-.7,9,.6,13.1,0s2.8-.6,4.1-.6c1.4,0,2.1.3,1.2,1.4s-3.5,4.9-8.9,4.8c-5.3-.1-7.6-1.9-10.1-1.9A3.761,3.761,0,0,1,98.9,83.5Z"/><path class="g" d="M92.4,100.9s-.2,1.5,6.5,1,8.1-1.2,11.7-1,5.9-.2,8.5-.1c2.5.1,3.6,0,4.8-2.8-1.9-4.1-4.5-2.8-7.3-2.6s-4.9-1.4-8.5-.4C104.6,96.1,92.4,100.9,92.4,100.9Z"/><path class="g" d="M106.6,108a74.151,74.151,0,0,0,12.5,0s-2.3,4.2-5.9,4.2C109.6,112.3,106.6,108,106.6,108Z"/><path class="c" d="M63.7,72.8s-2.5-15.1,4.9-21.5,4.9-7.8,5.8-12.4,1.5-9.9,16-11.5c19.8-2.2,31.6,7.8,31.6,7.8s-8.1-15.8-29.6-15.8S61.9,29,57.1,36.6s-3.3,33.2-.8,42.7Z"/><path class="d" d="M60.7,92.1s-7.9,2.2-11.2-9.2-4.8-16.9,0-19.5,12.2,1.3,13.8,7.7C65,77.5,64.8,87,60.7,92.1Z"/><path class="e" d="M60.7,92.1s-7.9,2.2-11.2-9.2-4.8-16.9,0-19.5,12.2,1.3,13.8,7.7C65,77.5,64.8,87,60.7,92.1Z"/></g></g></g></svg>