<svg xmlns="http://www.w3.org/2000/svg" xmlns:xlink="http://www.w3.org/1999/xlink" viewBox="2014 2257 180 180"><defs><style>.a{clip-path:url(#a);}.b{fill:#69d5f7;}.c,.f{fill:#091440;}.d{fill:#fff;}.e{clip-path:url(#c);}.f{opacity:0.5;}</style><clipPath id="a"><circle cx="90" cy="90" r="90"/></clipPath><clipPath id="c"><path d="M62.9,80.4s3,27.9,2.9,33.9-3.6,13.3-7.8,16.4c0,0,7.8,20.6,26.7,22.7,18.9,2.2,24.4-3.9,26.5-8.6s5.1-58.9,5.1-58.9Z"/></clipPath></defs><g transform="translate(2014 2257)"><g class="a"><circle class="b" cx="90" cy="90" r="90"/></g><g class="a"><path class="c" d="M167,204.8H13V153.3l45-22.7,51.8-1.3L167,159.5Z"/><path class="d" d="M62.9,80.4s3,27.9,2.9,33.9-3.6,13.3-7.8,16.4c0,0,7.8,20.6,26.7,22.7,18.9,2.2,24.4-3.9,26.5-8.6s5.1-58.9,5.1-58.9Z"/><path class="c" d="M127.5,34.3s5.8,6,5.6,9.3-1,4.7,0,6.4-.3,11.3-.3,11.3L121.7,37.5Z"/><g class="e"><path class="f" d="M74,113s19,34.7,49.4,28c30.4-6.6-2.5-23.9-2.5-23.9Z"/></g><path class="d" d="M65,93.6A30.126,30.126,0,0,0,74,113c8.9,8.8,25.6,16.5,34.4,17.5s12.2-3,14-7.2,2.8-6.8,5.1-12.2,3.5-11.6,4.3-15.7c.9-4.1,1.8-8,.8-14-1.5-9.3,1.6-18.1-.8-29-1.9-8.3-4.9-13.5-9.5-17.1-4.6-3.7-32.2-14.5-46.9-3.3S56.1,54.2,58,69.1A79.047,79.047,0,0,0,65,93.6Z"/><path class="f" d="M102.8,87.2s6.5,3.7,12.4,2.9,8.2-3.4,6.9-4.4C120.8,84.6,110.9,87.9,102.8,87.2Z"/><path class="c" d="M95.1,100.5s8,6.3,17.5,4.9,10.5-6.6,10.5-6.6S107,100.5,95.1,100.5Z"/><path class="f" d="M95.1,100.5s4.8-.6,9.8-1.7a45.694,45.694,0,0,1,9.2-1.2c2.8-.3,5.3-1.1,9.1,1.2A157.545,157.545,0,0,1,95.1,100.5Z"/><path class="d" d="M103.3,100.3s2.8,1.9,10,1.9c5.2,0,7.3-3,7.3-3S107.8,100.3,103.3,100.3Z"/><path class="d" d="M67,95s-2.7,2.6-7.7-4.8-9.5-15.7-4.4-21.1,13.3,3.2,13.3,13.2S67,95,67,95Z"/><path class="c" d="M69.9,81.4H62.3L54.8,69l-1.3,1.9s-1.9-15.8-2.9-19.5c-.9-3.7,8.6-22.6,17.5-28.1S90,12.8,104.6,15.8s22.6,8.2,27.3,20c0,0-3.9,4.1-25.3,5.6S74.4,44.3,74,44.1c-.4-.1-2,11.7,1.8,15.9C75.9,60.2,68.2,64,69.9,81.4Z"/><path class="c" d="M117.1,70.3l.3-.6a4.457,4.457,0,0,1,1.2-1.2,8.794,8.794,0,0,1,1-.6,5.638,5.638,0,0,1,1.2-.4,5.853,5.853,0,0,1,1.3-.2h1.4a7.845,7.845,0,0,1,1.4.2c.4.1.9.3,1.3.4a5.778,5.778,0,0,1,2,1.3,5.032,5.032,0,0,1,1,1.3,2.829,2.829,0,0,1,.3.6s-.8-.4-1.9-.9c-.6-.2-1.2-.4-1.9-.6-.4-.1-.7-.1-1.1-.2-.4,0-.7-.1-1.1-.1h-2.3a3.083,3.083,0,0,0-1,.1,2.92,2.92,0,0,0-.9.2,8.4,8.4,0,0,0-1.4.4A1.546,1.546,0,0,0,117.1,70.3Z"/><path class="c" d="M117.1,67.1a1.2,1.2,0,0,1,.4-.4,10.546,10.546,0,0,1,1.3-.8l.9-.3a3.6,3.6,0,0,1,1.1-.2,19.269,19.269,0,0,1,2.4-.1c.4,0,.8.1,1.2.1a3.6,3.6,0,0,1,1.1.2c.7.2,1.4.4,2,.6a5.349,5.349,0,0,1,1.3.6,1.01,1.01,0,0,0,.5.2,2.8,2.8,0,0,1-.6-.1,11.476,11.476,0,0,1-1.4-.2c-.6-.1-1.3-.2-2-.3a4.1,4.1,0,0,0-1.1-.1c-.4,0-.8-.1-1.1-.1-.4,0-.8-.1-1.1-.1h-1.1a10.074,10.074,0,0,0-1.9.2A11.557,11.557,0,0,0,117.1,67.1Z"/><path class="c" d="M118.1,64.7s1.8-4.6,5.1-4.5,7.8.3,9,2.3a4.113,4.113,0,0,1,0,4,4.39,4.39,0,0,0-3.8-2.6C125.7,63.8,121.9,65.1,118.1,64.7Z"/><path class="c" d="M123.5,69.3c0-1.4-1.1-1.6-2.5-1.6a2.608,2.608,0,0,0-2.5,1.6,2.5,2.5,0,0,0,5,0Z"/><path class="c" d="M87.4,72.2A9.539,9.539,0,0,1,89.1,70a4.44,4.44,0,0,1,1.1-.8,14.8,14.8,0,0,1,1.3-.8l1.5-.6a4.529,4.529,0,0,1,1.6-.3,10.284,10.284,0,0,1,1.7-.1,7.772,7.772,0,0,1,1.6.2,8.33,8.33,0,0,1,1.5.4,6.658,6.658,0,0,1,1.2.6,8.2,8.2,0,0,1,1.6,1.2,6.122,6.122,0,0,0,.5.6,10.917,10.917,0,0,0-2.5-.8c-.4-.1-.8-.1-1.2-.2a5.7,5.7,0,0,0-1.3-.1H96.3c-.5,0-1,.1-1.4.1s-1.1.2-1.5.2c-.5.1-.9.2-1.4.3-.4.1-.9.3-1.3.4a11.73,11.73,0,0,0-1.1.5C88.4,71.6,87.4,72.2,87.4,72.2Z"/><path class="c" d="M87.4,69.1a2.22,2.22,0,0,1,.4-.5,6.342,6.342,0,0,1,1.2-1,9.456,9.456,0,0,1,2-1.1,18.286,18.286,0,0,1,2.5-.8,5.853,5.853,0,0,1,1.3-.2,5.7,5.7,0,0,1,1.3-.1,16.95,16.95,0,0,1,2.3.1c.7,0,1.2.2,1.6.2a2.8,2.8,0,0,0,.6.1,2.8,2.8,0,0,0-.6.1c-.4,0-.9.1-1.6.1-.3,0-.7.1-1,.1a4.485,4.485,0,0,1-1.1.1,5.019,5.019,0,0,0-1.2.2c-.4,0-.8.2-1.2.2l-2.4.6a9.261,9.261,0,0,0-2,.8A20.8,20.8,0,0,0,87.4,69.1Z"/><path class="c" d="M107.4,62.2a15.373,15.373,0,0,0-6.8-2c-4.2-.3-8.9-.1-13.2,2a17.138,17.138,0,0,0-5,4.2,32.051,32.051,0,0,1,8.9-2.2c4.6-.5,12.3,2.1,13.6,1.4C106.2,65,107.4,62.2,107.4,62.2Z"/><path class="c" d="M96.9,70.3a2.917,2.917,0,0,0-5.8,0,2.9,2.9,0,0,0,5.8,0Z"/><path class="d" d="M89.5,72.2a28.706,28.706,0,0,0,8.8,0c4.1-.8-5.5,3-5.5,3Z"/></g></g></svg>