<?xml version="1.0" encoding="utf-8"?>
<!-- Generator: Adobe Illustrator 16.0.0, SVG Export Plug-In . SVG Version: 6.00 Build 0)  -->
<!DOCTYPE svg PUBLIC "-//W3C//DTD SVG 1.1//EN" "http://www.w3.org/Graphics/SVG/1.1/DTD/svg11.dtd">
<svg version="1.1" id="Layer_1" xmlns="http://www.w3.org/2000/svg" xmlns:xlink="http://www.w3.org/1999/xlink" x="0px" y="0px"
	 width="20px" height="20px" viewBox="0 0 20 20" enable-background="new 0 0 20 20" xml:space="preserve">
<path id="XMLID_1593_" fill="#8297A5" d="M1.263,3.817c0.003-0.018,0.006-0.036,0.008-0.054C1.269,3.781,1.266,3.799,1.263,3.817z"
	/>
<path id="XMLID_1590_" fill="#007AFF" d="M2.75,5.012h13.498V4.013c0-0.825-0.675-1.5-1.5-1.5H2.75c-0.739,0-1.358,0.542-1.479,1.25
	C1.392,4.469,2.011,5.012,2.75,5.012z"/>
<path id="XMLID_983_" fill="#8297A5" d="M1.257,3.879c0.002-0.016,0.002-0.032,0.005-0.047C1.259,3.847,1.259,3.863,1.257,3.879z"/>
<path id="XMLID_589_" fill="#8297A5" d="M1.251,3.944C1.253,3.932,1.253,3.92,1.254,3.908C1.253,3.92,1.253,3.932,1.251,3.944z"/>
<path id="XMLID_588_" fill="#69D3F5" d="M17.25,5.012h-1h-0.002H2.75c-0.739,0-1.358-0.542-1.479-1.249l0,0l-0.001,0
	C1.269,3.781,1.266,3.799,1.263,3.817c0,0.005-0.001,0.01-0.001,0.014C1.259,3.847,1.259,3.863,1.257,3.879
	c-0.002,0.01-0.002,0.02-0.003,0.029C1.253,3.92,1.253,3.932,1.251,3.944c0,0.023-0.001,0.046-0.001,0.069v2.499v6.976v2.499
	c0,0.825,0.675,1.5,1.5,1.5h14.5c0.825,0,1.5-0.675,1.5-1.5v-1.611c-1.726,0-3.126-1.399-3.126-3.125s1.4-3.125,3.126-3.125V6.512
	C18.75,5.687,18.075,5.012,17.25,5.012z"/>
<path id="XMLID_587_" fill="#007AFF" d="M15.624,11.25c0,1.726,1.4,3.125,3.126,3.125v-0.08v-1.25v-3.67v-1.25
	C17.024,8.125,15.624,9.524,15.624,11.25z"/>
</svg>
