<svg xmlns="http://www.w3.org/2000/svg" xmlns:xlink="http://www.w3.org/1999/xlink" width="30.524" height="30.524" viewBox="0 0 30.524 30.524"><defs><clipPath id="a"><rect width="30.524" height="30.524" fill="none"/></clipPath></defs><g clip-path="url(#a)"><g transform="matrix(1, -0.017, 0.017, 1, 10.471, 600.432)"><g transform="translate(2.487 -597.824)"><g transform="translate(0 0)"><path d="M40.68-553.56a10.769,10.769,0,0,1-3.376-7.812,10.673,10.673,0,0,1,1.832-6l1.481,1a8.892,8.892,0,0,0-1.526,5,8.856,8.856,0,0,0,2.814,6.511Z" transform="translate(-37.304 567.369)" fill="#70cbff"/></g><g transform="translate(4.392 1.912)"><path d="M104.439-530.546a7.108,7.108,0,0,1-1.263-4.058,7.106,7.106,0,0,1,1.282-4.085l1.466,1.022a5.327,5.327,0,0,0-.96,3.063,5.329,5.329,0,0,0,.946,3.042Z" transform="translate(-103.176 538.689)" fill="#70cbff"/></g><g transform="translate(20.429 0)"><path d="M344.92-553.56l-1.225-1.3a8.856,8.856,0,0,0,2.814-6.511,8.892,8.892,0,0,0-1.526-5l1.481-1a10.673,10.673,0,0,1,1.832,6A10.769,10.769,0,0,1,344.92-553.56Z" transform="translate(-343.695 567.369)" fill="#70cbff"/></g><g transform="translate(17.739 1.912)"><path d="M304.837-530.546l-1.47-1.016a5.328,5.328,0,0,0,.946-3.042,5.327,5.327,0,0,0-.96-3.063l1.466-1.022A7.106,7.106,0,0,1,306.1-534.6,7.109,7.109,0,0,1,304.837-530.546Z" transform="translate(-303.353 538.689)" fill="#70cbff"/></g><path d="M99.208-524.057a3.572,3.572,0,0,0,2.328-3.348,3.571,3.571,0,0,0-3.571-3.571,3.571,3.571,0,0,0-3.571,3.571,3.572,3.572,0,0,0,2.332,3.35L88.9-507.749h1.982l.617-1.287.458-.454h12.017l.461.457.616,1.284h1.982Zm2.924,10.224-2.9-2.872,1.029-1.02Zm-5.951-13.572a1.786,1.786,0,0,1,1.784-1.784,1.786,1.786,0,0,1,1.784,1.784,1.786,1.786,0,0,1-1.784,1.784A1.786,1.786,0,0,1,96.181-527.405Zm1.787,4.893,1.479,3.081-1.48,1.467-1.478-1.465Zm-2.3,4.787,1.028,1.019L93.8-513.837Zm-1.909,6.447,4.206-4.17,4.206,4.17Z" transform="translate(-85.461 533.403)" fill="#2970ff"/><path d="M199.87-504.176a1.786,1.786,0,0,1,1.784,1.784,1.786,1.786,0,0,1-1.784,1.784,1.786,1.786,0,0,1-1.784-1.784,1.786,1.786,0,0,1,1.784-1.784" transform="translate(-187.365 508.39)" fill="#70cbff"/></g><rect width="30.005" height="30.005" transform="translate(0 -600)" fill="none"/></g></g></svg>