<svg xmlns="http://www.w3.org/2000/svg" xmlns:xlink="http://www.w3.org/1999/xlink" width="30" height="30" viewBox="0 0 30 30"><defs><clipPath id="a"><rect width="30" height="30" fill="none"/></clipPath></defs><g clip-path="url(#a)"><path d="M363,118.333V120a1.667,1.667,0,1,0,3.333,0V100H363Z" transform="translate(-338.8 -93.333)" fill="#41be53"/><rect width="6.667" height="1.667" transform="translate(14.2 16.667)" fill="#41be53"/><path d="M92.507,300H88v1.667h15V300H92.507Z" transform="translate(-82.133 -280)" fill="#41be53"/><path d="M92.507,350H88v1.667h15V350H92.507Z" transform="translate(-82.133 -326.667)" fill="#41be53"/><g transform="translate(2.533 1.667)"><path d="M59.667,30h0V25H38V50a1.65,1.65,0,0,0,1.647,1.667H61.313A1.65,1.65,0,0,1,59.667,50V30ZM41.333,33.333H48v8.2H41.333Zm15,15h-15V46.667h15Zm0-3.333h-15V43.333h15Zm0-3.333H49.667V40h6.667Zm0-3.333H49.667V36.667h6.667Zm0-3.333H49.667V33.333h6.667Zm0-3.333h-15V28.333h15Z" transform="translate(-38 -25)" fill="#c4ecca"/></g><path d="M88,76.667v1.667h15V75H88Z" transform="translate(-82.133 -70)" fill="#41be53"/><rect width="6.667" height="8.2" transform="translate(5.867 10)" fill="#41be53"/><rect width="6.667" height="1.667" transform="translate(14.2 10)" fill="#41be53"/><rect width="6.667" height="1.667" transform="translate(14.2 13.333)" fill="#41be53"/><rect width="30" height="30" fill="none"/></g></svg>