<svg xmlns="http://www.w3.org/2000/svg" xmlns:xlink="http://www.w3.org/1999/xlink" width="30" height="30" viewBox="0 0 30 30"><defs><clipPath id="a"><rect width="30" height="30" fill="none"/></clipPath></defs><g clip-path="url(#a)"><g transform="translate(1.677 3.333)"><rect width="26.646" height="18.333" transform="translate(0 1.667)" fill="#41be53"/><rect width="26.646" height="20" transform="translate(0 3.333)" fill="#c4ecca"/><rect width="1.667" height="5" transform="translate(4.157)" fill="#41be53"/><rect width="1.667" height="5" transform="translate(20.823)" fill="#41be53"/><rect width="1.667" height="5" transform="translate(16.657)" fill="#41be53"/><rect width="1.667" height="5" transform="translate(8.323)" fill="#41be53"/><rect width="26.646" height="1.667" transform="translate(0 6.667)" fill="#41be53"/><g transform="translate(4.157 15)"><rect width="1.667" height="1.667" fill="#41be53"/><rect width="1.667" height="1.667" transform="translate(3.333)" fill="#41be53"/><rect width="1.667" height="1.667" transform="translate(6.667)" fill="#41be53"/><rect width="1.667" height="1.667" transform="translate(10)" fill="#41be53"/><rect width="1.667" height="1.667" transform="translate(13.333)" fill="#41be53"/><rect width="1.667" height="1.667" transform="translate(16.666)" fill="#41be53"/></g><g transform="translate(4.157 11.667)"><rect width="1.667" height="1.667" fill="#41be53"/><rect width="1.667" height="1.667" transform="translate(3.333)" fill="#41be53"/><rect width="1.667" height="1.667" transform="translate(6.667)" fill="#41be53"/><rect width="1.667" height="1.667" transform="translate(10)" fill="#41be53"/><rect width="1.667" height="1.667" transform="translate(13.333)" fill="#41be53"/><rect width="1.667" height="1.667" transform="translate(16.666)" fill="#41be53"/></g><g transform="translate(4.157 18.333)"><rect width="1.667" height="1.667" fill="#41be53"/><rect width="1.667" height="1.667" transform="translate(3.333)" fill="#41be53"/><rect width="1.667" height="1.667" transform="translate(6.667)" fill="#41be53"/><rect width="1.667" height="1.667" transform="translate(10)" fill="#41be53"/><rect width="1.667" height="1.667" transform="translate(13.333)" fill="#41be53"/><rect width="1.667" height="1.667" transform="translate(16.666)" fill="#41be53"/></g></g><rect width="30" height="30" fill="none"/></g></svg>