<svg xmlns="http://www.w3.org/2000/svg" xmlns:xlink="http://www.w3.org/1999/xlink" width="30.827" height="30.769" viewBox="0 0 30.827 30.769"><defs><clipPath id="a"><rect width="30.827" height="30.769" fill="none"/></clipPath></defs><g clip-path="url(#a)"><path d="M51.8,38.336a13.71,13.71,0,1,0-13.71,13.69H51.8l-1.7-1.641H38.086a12.107,12.107,0,1,1,9.655-4.863l1.2,1.172A13.606,13.606,0,0,0,51.8,38.336Z" transform="translate(-22.706 -22.966)" fill="#70cbff"/><path d="M92.085,89.907l.378.37a10.321,10.321,0,1,0-8.418,4.362h10.33l-1.814-1.778H84.045a8.57,8.57,0,1,1,7.131-3.842Z" transform="translate(-68.665 -68.93)" fill="#70cbff"/><path d="M131.486,124.918a6.84,6.84,0,1,0,0,13.681h6.841l-2.025-1.991a6.834,6.834,0,0,0-4.816-11.69Z" transform="translate(-116.106 -116.377)" fill="#2970ff"/><rect width="30.827" height="30.769" fill="none"/></g></svg>