<svg xmlns="http://www.w3.org/2000/svg" xmlns:xlink="http://www.w3.org/1999/xlink" width="30" height="30" viewBox="0 0 30 30"><defs><clipPath id="a"><rect width="30" height="30" fill="none"/></clipPath></defs><g clip-path="url(#a)"><g transform="translate(-210 -210)"><rect width="13.333" height="20.038" rx="3.333" transform="translate(218.333 211.581)" fill="#c4ecca"/><rect width="3.333" height="1.667" transform="translate(218.333 217.5)" fill="#41be53"/><rect width="3.333" height="1.667" transform="translate(218.333 221.667)" fill="#41be53"/><rect width="3.333" height="1.667" transform="translate(228.333 217.5)" fill="#41be53"/><rect width="3.333" height="1.667" transform="translate(228.333 221.667)" fill="#41be53"/><rect width="3.333" height="1.667" transform="translate(218.333 225.833)" fill="#41be53"/><rect width="3.333" height="1.667" transform="translate(228.333 225.833)" fill="#41be53"/><path d="M233.333,225v2.5a5.839,5.839,0,0,1-5.833,5.833h-5a5.839,5.839,0,0,1-5.833-5.833V225H215v2.5a7.508,7.508,0,0,0,7.5,7.5h1.667v1.686H220v1.667h10v-1.667h-4.167V235H227.5a7.508,7.508,0,0,0,7.5-7.5V225Z" fill="#41be53"/><rect width="30" height="30" transform="translate(210 210)" fill="none"/></g></g></svg>