<svg xmlns="http://www.w3.org/2000/svg" xmlns:xlink="http://www.w3.org/1999/xlink" width="30.037" height="30.037" viewBox="0 0 30.037 30.037"><defs><clipPath id="a"><rect width="30.037" height="30.037" fill="none"/></clipPath></defs><g clip-path="url(#a)"><path d="M75,245.437l3.337-6.675,2.36-.873a13.274,13.274,0,0,1-2.165-5.291L75,235.425Z" transform="translate(-69.994 -217.072)" fill="#091440"/><path d="M289.638,236.433l2.36.873,3.337,6.675V233.969l-3.516-2.931A13.275,13.275,0,0,1,289.638,236.433Z" transform="translate(-270.305 -215.616)" fill="#091440"/><path d="M228.181,375l-.2,1.669h4.807V375h-4.608Z" transform="translate(-212.764 -349.969)" fill="#2970ff"/><path d="M154.592,375H150v1.669h4.8v0Z" transform="translate(-139.988 -349.969)" fill="#2970ff"/><circle cx="5.11" cy="5.11" r="5.11" transform="translate(9.908 6.567)" fill="#091440"/><path d="M212.834,253.577,212,255v3.16l.242,1.847v0l.211,1.665v0l.207,1.665v0l.2,1.665.2-1.669.191-1.669.191-1.669.221-1.989V255Z" transform="translate(-197.849 -236.651)" fill="#091440"/><path d="M131.674,25.038a13.335,13.335,0,0,0-4.315,19.136,7.208,7.208,0,0,0,.515.686h-.033l-.336,1.869h3.543v0l-.242-1.847v-3.16l.834-1.426.834,1.426v3.017l-.2,1.993h3.572l-.336-1.869h-.033a7.205,7.205,0,0,0,.515-.686,13.254,13.254,0,0,0,2.182-5.39,13.363,13.363,0,0,0-6.5-13.746Zm4.172,10.006a4.172,4.172,0,1,1-4.172-4.172A4.172,4.172,0,0,1,135.846,35.044Z" transform="translate(-116.655 -23.367)" fill="#2970ff"/><rect width="30.037" height="30.037" fill="none"/></g></svg>