<svg xmlns="http://www.w3.org/2000/svg" xmlns:xlink="http://www.w3.org/1999/xlink" width="29.495" height="29.495" viewBox="0 0 29.495 29.495"><defs><clipPath id="a"><rect width="29.495" height="29.495" fill="none"/></clipPath></defs><g clip-path="url(#a)"><g transform="translate(1.639 1.638)"><g transform="translate(4.916)"><path d="M100,45.536v5.675h21.3V24.992H100Z" transform="translate(-100 -24.992)" fill="#c4cbd2"/></g><path d="M28.277,28.283v21.3a1.639,1.639,0,0,1-1.639,1.639h0A1.639,1.639,0,0,1,25,49.585v-21.3l1.639-3.277Z" transform="translate(-25 -25.005)" fill="#091440"/><path d="M25,28.283l1.639-3.277,1.639,3.277Z" transform="translate(-25 -25.005)" fill="#c4cbd2"/><g transform="translate(8.193 4.916)"><g transform="translate(3.277)"><rect width="11.47" height="1.639" transform="translate(0 9.832)" fill="#091440"/><rect width="11.47" height="1.639" transform="translate(0 14.748)" fill="#091440"/><rect width="11.47" height="1.639" transform="translate(0 4.916)" fill="#091440"/><rect width="11.47" height="1.639" fill="#091440"/></g><rect width="1.639" height="1.639" transform="translate(0 9.832)" fill="#091440"/><rect width="1.639" height="1.639" transform="translate(0 14.748)" fill="#091440"/><rect width="1.639" height="1.639" transform="translate(0 4.916)" fill="#091440"/><rect width="1.639" height="1.639" fill="#091440"/></g></g><rect width="29.495" height="29.495" fill="none"/></g></svg>