<svg xmlns="http://www.w3.org/2000/svg" xmlns:xlink="http://www.w3.org/1999/xlink" width="768" height="1024" viewBox="0 0 768 1024"><defs><style>.a,.c{fill:none;stroke:#2970ff;}.b{clip-path:url(#a);}.c{stroke-linecap:round;}</style><clipPath id="a"><rect class="a" width="768" height="1024" transform="translate(512)"/></clipPath></defs><g transform="translate(-512)"><g class="b"><g transform="translate(483.93 -170.118)"><line class="c" x1="5.732" y2="53.525" transform="translate(799.988 283.941)"/><line class="c" x1="35.166" y2="55.695" transform="translate(764.823 337.466)"/><line class="c" x1="87.147" y1="86.613" transform="translate(573.855 93.667)"/><line class="c" x1="90.909" y1="51.28" transform="translate(482.945 42.387)"/><line class="c" x2="73.397" y2="66.885" transform="translate(630.068 63.157)"/><line class="c" x2="48.116" y2="88.388" transform="translate(703.465 130.041)"/><line class="c" y1="84.355" x2="36.252" transform="translate(418.064 91.48)"/><line class="c" y1="49.093" x2="28.63" transform="translate(454.316 42.387)"/><line class="c" x1="120.988" y2="0.141" transform="translate(461.791 380.809)"/><line class="c" x1="112.709" y2="4.606" transform="translate(349.082 380.95)"/><line class="c" x1="11.43" y1="80.877" transform="translate(805.508 467.662)"/><line class="c" x1="40.686" y1="74.501" transform="translate(764.823 393.161)"/><line class="c" x1="8.701" y2="118.659" transform="translate(799.018 447.424)"/><line class="c" x1="28.387" y2="101.67" transform="translate(770.63 566.083)"/><line class="c" y1="111.286" x2="58.558" transform="translate(679.153 497.12)"/><line class="c" y1="103.959" x2="27.112" transform="translate(737.71 393.161)"/><line class="c" x1="66.624" y1="8.516" transform="translate(594.595 789.404)"/><line class="c" x1="80.588" y1="14.357" transform="translate(514.007 775.046)"/><line class="c" x1="46.541" y1="113.209" transform="translate(389.673 490.754)"/><line class="c" x1="40.592" y1="105.198" transform="translate(349.082 385.556)"/><line class="c" y1="16.684" x2="142.748" transform="translate(226.208 39.087)"/><line class="c" x2="113.99" y2="3.3" transform="translate(368.956 39.087)"/><line class="c" x1="71.39" y1="42.852" transform="translate(98.309 229.456)"/><line class="c" x1="41.293" y1="23.729" transform="translate(57.016 205.727)"/><line class="c" y1="32.238" x2="32.927" transform="translate(442.163 834.645)"/><line class="c" y1="59.599" x2="38.917" transform="translate(475.09 775.046)"/><line class="c" y1="79.149" x2="83.136" transform="translate(180.916 457.758)"/><line class="c" y1="72.202" x2="85.029" transform="translate(264.053 385.556)"/><line class="c" x1="95.815" y1="59.464" transform="translate(161.544 731.07)"/><line class="c" x1="85.479" y1="76.019" transform="translate(76.065 655.051)"/><line class="c" y1="119.483" x2="11.192" transform="translate(0 313.169)"/><line class="c" y1="107.442" x2="45.823" transform="translate(11.192 205.727)"/><line class="c" x2="31.569" y2="23.552" transform="translate(751.581 218.429)"/><line class="c" x2="22.571" y2="41.96" transform="translate(783.15 241.981)"/><line class="c" x1="36.044" y1="106.702" transform="translate(728.779 286.459)"/><line class="c" x1="67.777" y1="106.179" transform="translate(661.002 180.28)"/><line class="c" x2="79.989" y2="0.247" transform="translate(482.945 42.387)"/><line class="c" x2="67.133" y2="20.522" transform="translate(562.935 42.635)"/><line class="c" y1="105.464" x2="31.66" transform="translate(349.082 280.092)"/><line class="c" y1="104.256" x2="37.322" transform="translate(380.742 175.835)"/><line class="c" x1="74.533" y1="8.031" transform="translate(690.289 385.13)"/><line class="c" x1="107.51" y1="4.321" transform="translate(582.779 380.809)"/><line class="c" y1="46.861" x2="28.584" transform="translate(770.63 620.892)"/><line class="c" y1="72.352" x2="17.725" transform="translate(799.214 548.539)"/><line class="c" x2="37.317" y2="108.963" transform="translate(751.581 218.429)"/><line class="c" x2="18.821" y2="120.033" transform="translate(788.898 327.392)"/><line class="c" y1="68.036" x2="85.851" transform="translate(514.007 707.01)"/><line class="c" y1="98.604" x2="79.295" transform="translate(599.858 608.406)"/><line class="c" x1="41.244" y2="73.701" transform="translate(729.386 667.753)"/><line class="c" x1="68.167" y2="56.465" transform="translate(661.219 741.454)"/><line class="c" x1="33.688" y1="70.222" transform="translate(480.319 704.824)"/><line class="c" x1="44.104" y1="100.861" transform="translate(436.215 603.963)"/><line class="c" y1="86.07" x2="78.607" transform="translate(57.016 119.657)"/><line class="c" y1="63.886" x2="90.585" transform="translate(135.623 55.771)"/><line class="c" x1="90.549" y1="57.995" transform="translate(258.533 327.561)"/><line class="c" x1="88.834" y1="55.254" transform="translate(169.699 272.307)"/><line class="c" x1="42.824" y1="32.54" transform="translate(440.122 9.847)"/><line class="c" x1="34.712" y1="9.847" transform="translate(405.41)"/><line class="c" y1="46.684" x2="38.308" transform="translate(76.065 608.367)"/><line class="c" y1="71.46" x2="66.544" transform="translate(114.373 536.907)"/><line class="c" x1="113.391" y2="10.81" transform="translate(400.616 775.046)"/><line class="c" x1="143.257" y2="4.678" transform="translate(257.359 785.857)"/><line class="c" x1="54.753" y1="103.191" transform="translate(21.312 551.86)"/><line class="c" x1="21.312" y1="119.208" transform="translate(0 432.652)"/><line class="c" x1="94.904" y2="78.646" transform="translate(74.795 272.307)"/><line class="c" x1="74.795" y2="81.699" transform="translate(0 350.953)"/><line class="c" x1="8.521" y2="130.913" transform="translate(161.178 272.307)"/><line class="c" x2="19.739" y2="133.687" transform="translate(161.178 403.22)"/><line class="c" x2="80.43" y2="51.224" transform="translate(0 432.652)"/><line class="c" x2="100.486" y2="53.031" transform="translate(80.43 483.876)"/><line class="c" x2="89.016" y2="51.824" transform="translate(257.359 790.534)"/><line class="c" x2="95.787" y2="24.526" transform="translate(346.375 842.358)"/><line class="c" x1="94.15" y2="14.091" transform="translate(311.26)"/><line class="c" x1="85.052" y2="41.68" transform="translate(226.208 14.091)"/><line class="c" x2="40.831" y2="125.961" transform="translate(180.916 536.907)"/><line class="c" x2="35.612" y2="127.666" transform="translate(221.747 662.868)"/><line class="c" x2="122.316" y2="43.088" transform="translate(180.916 536.907)"/><line class="c" x2="132.982" y2="23.968" transform="translate(303.232 579.995)"/><line class="c" y1="94.144" x2="92.807" transform="translate(257.359 696.39)"/><line class="c" y1="92.427" x2="86.049" transform="translate(350.166 603.963)"/><line class="c" y1="20.688" x2="114.077" transform="translate(442.163 846.195)"/><line class="c" y1="48.276" x2="104.979" transform="translate(556.24 797.919)"/><line class="c" x2="115.714" y2="17.929" transform="translate(405.41)"/><line class="c" x2="108.943" y2="45.227" transform="translate(521.125 17.929)"/><line class="c" x1="25.901" y2="101.376" transform="translate(200.306 55.771)"/><line class="c" x1="30.608" y2="115.16" transform="translate(169.699 157.148)"/><line class="c" x2="99.05" y2="53.092" transform="translate(226.208 55.771)"/><line class="c" x2="92.807" y2="66.973" transform="translate(325.257 108.863)"/><line class="c" y1="61.54" x2="117.88" transform="translate(169.699 210.767)"/><line class="c" y1="34.932" x2="130.485" transform="translate(287.579 175.835)"/><line class="c" x1="65.352" y2="115.984" transform="translate(517.428 380.809)"/><line class="c" x1="81.213" y2="107.17" transform="translate(436.215 496.793)"/><line class="c" x2="56.871" y2="118.22" transform="translate(582.779 380.809)"/><line class="c" x2="39.503" y2="109.377" transform="translate(639.65 499.029)"/><line class="c" x2="129.699" y2="7.335" transform="translate(436.215 603.963)"/><line class="c" y1="2.892" x2="113.24" transform="translate(565.913 608.406)"/><line class="c" x2="10.577" y2="94.194" transform="translate(679.153 608.406)"/><line class="c" x1="28.511" y2="95.319" transform="translate(661.219 702.6)"/><line class="c" y1="19.976" x2="85.305" transform="translate(679.153 588.43)"/><line class="c" y1="39.891" x2="52.48" transform="translate(764.458 548.539)"/><line class="c" y1="125.223" x2="97.935" transform="translate(661.219 672.696)"/><line class="c" y1="124.157" x2="57.785" transform="translate(759.154 548.539)"/><line class="c" y1="50.986" x2="11.35" transform="translate(816.939 497.554)"/><line class="c" x1="20.57" y1="50.129" transform="translate(807.719 447.424)"/><line class="c" y1="133.051" x2="14.981" transform="translate(816.939 415.489)"/><line class="c" x1="26.199" y1="131.548" transform="translate(805.721 283.941)"/><line class="c" y1="82.793" x2="14.934" transform="translate(807.719 364.631)"/><line class="c" x1="16.933" y1="80.69" transform="translate(805.721 283.941)"/><line class="c" x2="89.689" y2="92.764" transform="translate(418.064 175.835)"/><line class="c" x2="75.026" y2="112.21" transform="translate(507.753 268.599)"/><line class="c" y1="8.123" x2="129.043" transform="translate(418.064 167.713)"/><line class="c" x2="113.895" y2="12.567" transform="translate(547.107 167.713)"/><line class="c" y1="109.974" x2="47.196" transform="translate(582.779 270.835)"/><line class="c" y1="90.556" x2="31.027" transform="translate(629.975 180.28)"/><line class="c" x1="68.007" y1="116.964" transform="translate(737.713 166.977)"/><line class="c" x1="107.646" y1="103.82" transform="translate(630.068 63.157)"/><line class="c" x1="56.916" y1="64.737" transform="translate(748.804 219.204)"/><line class="c" x1="87.802" y1="38.924" transform="translate(661.002 180.28)"/><line class="c" x2="34.753" y2="51.917" transform="translate(630.068 63.157)"/><line class="c" x1="3.819" y2="65.206" transform="translate(661.002 115.074)"/><line class="c" y1="9.808" x2="36.83" transform="translate(728.779 276.651)"/><line class="c" x2="16.804" y2="57.447" transform="translate(748.804 219.204)"/><line class="c" x1="34.38" y1="60.815" transform="translate(765.609 276.651)"/><line class="c" x1="45.988" y2="19.059" transform="translate(527.867 93.667)"/><line class="c" x1="19.24" y1="54.986" transform="translate(527.867 112.726)"/><line class="c" x2="73.551" y2="21.246" transform="translate(454.316 91.48)"/><line class="c" x2="20.582" y2="68.982" transform="translate(799.988 337.466)"/><line class="c" x1="11.349" y1="9.041" transform="translate(820.57 406.448)"/><line class="c" y1="61.214" x2="15.062" transform="translate(805.508 406.448)"/><line class="c" x1="29.548" y2="53.147" transform="translate(775.96 467.662)"/><line class="c" y1="67.621" x2="11.502" transform="translate(764.458 520.809)"/><line class="c" x2="38.25" y2="23.689" transform="translate(737.71 497.12)"/><line class="c" x1="44.282" y1="35.429" transform="translate(693.428 461.691)"/><line class="c" y1="37.338" x2="53.778" transform="translate(639.65 461.691)"/><line class="c" x2="3.139" y2="76.561" transform="translate(690.289 385.13)"/><line class="c" x1="72.672" y1="17.379" transform="translate(381.644 74.102)"/><line class="c" y1="34.761" x2="56.386" transform="translate(325.257 74.102)"/><line class="c" x2="12.688" y2="35.015" transform="translate(368.956 39.087)"/><line class="c" x1="50.351" y2="40.008" transform="translate(544.244 789.404)"/><line class="c" x1="11.996" y1="16.783" transform="translate(544.244 829.412)"/><line class="c" y1="5.234" x2="69.154" transform="translate(475.09 829.412)"/><line class="c" x1="72.637" y2="21.661" transform="translate(317.036 490.754)"/><line class="c" y1="67.58" x2="13.804" transform="translate(303.232 512.415)"/><line class="c" x2="52.984" y2="54.657" transform="translate(264.053 457.758)"/><line class="c" y1="24.04" x2="2.113" transform="translate(368.956 15.047)"/><line class="c" x2="59.809" y2="0.956" transform="translate(311.26 14.091)"/><line class="c" x1="69.053" y2="5.2" transform="translate(371.068 9.847)"/><line class="c" x1="69.603" y1="7.771" transform="translate(405.487 826.875)"/><line class="c" y1="15.483" x2="59.112" transform="translate(346.375 826.875)"/><line class="c" x2="4.871" y2="41.018" transform="translate(400.616 785.857)"/><line class="c" x1="40.953" y1="62.239" transform="translate(223.1 395.519)"/><line class="c" y1="7.701" x2="61.922" transform="translate(161.178 395.519)"/><line class="c" x1="35.433" y2="67.958" transform="translate(223.1 327.561)"/><line class="c" x1="17.651" y1="55.449" transform="translate(57.144 295.504)"/><line class="c" y1="17.665" x2="45.952" transform="translate(11.192 295.504)"/><line class="c" x1="41.165" y2="66.048" transform="translate(57.144 229.456)"/><line class="c" x1="60.156" y2="9.031" transform="translate(101.021 403.22)"/><line class="c" y1="71.624" x2="20.592" transform="translate(80.43 412.252)"/><line class="c" x2="26.227" y2="61.299" transform="translate(74.795 350.953)"/><line class="c" x1="46.446" y1="58.527" transform="translate(67.926 549.841)"/><line class="c" y1="2.019" x2="46.615" transform="translate(21.312 549.841)"/><line class="c" x1="12.503" y2="65.965" transform="translate(67.926 483.876)"/><line class="c" x1="58.727" y2="6.484" transform="translate(163.019 662.868)"/><line class="c" y1="61.719" x2="1.475" transform="translate(161.544 669.352)"/><line class="c" x2="48.647" y2="60.985" transform="translate(114.373 608.367)"/><line class="c" x1="12.848" y2="69.078" transform="translate(290.384 579.995)"/><line class="c" x1="59.782" y1="47.317" transform="translate(290.384 649.073)"/><line class="c" y1="13.795" x2="68.637" transform="translate(221.747 649.073)"/><line class="c" x1="70.738" y2="28.228" transform="translate(409.581 704.824)"/><line class="c" y1="52.804" x2="8.965" transform="translate(400.616 733.052)"/><line class="c" x2="59.414" y2="36.662" transform="translate(350.166 696.39)"/><line class="c" x1="53.109" y1="25.05" transform="translate(509.826 17.585)"/><line class="c" x2="69.704" y2="7.738" transform="translate(440.122 9.847)"/><line class="c" x1="11.299" y1="0.344" transform="translate(509.826 17.585)"/><line class="c" x1="58.636" y2="8.644" transform="translate(141.671 157.148)"/><line class="c" y1="63.664" x2="43.362" transform="translate(98.309 165.791)"/><line class="c" x2="6.048" y2="46.134" transform="translate(135.623 119.657)"/><line class="c" x1="55.827" y2="45.961" transform="translate(269.43 108.863)"/><line class="c" x1="18.149" y1="55.943" transform="translate(269.43 154.824)"/><line class="c" y1="2.323" x2="69.124" transform="translate(200.306 154.824)"/><line class="c" x1="74.057" y1="11.836" transform="translate(306.685 268.256)"/><line class="c" y1="59.305" x2="48.152" transform="translate(258.533 268.256)"/><line class="c" x2="19.106" y2="57.489" transform="translate(287.579 210.767)"/><line class="c" x1="58.75" y1="39.397" transform="translate(458.677 457.396)"/><line class="c" y1="33.357" x2="69.004" transform="translate(389.673 457.396)"/><line class="c" x1="3.114" y2="76.447" transform="translate(458.677 380.95)"/><line class="c" x1="62.594" y2="38.207" transform="translate(577.055 499.029)"/><line class="c" y1="74.062" x2="11.142" transform="translate(565.913 537.236)"/><line class="c" x2="59.628" y2="40.443" transform="translate(517.428 496.793)"/><line class="c" x1="48.055" y1="29.686" transform="translate(551.803 677.325)"/><line class="c" y1="27.5" x2="71.484" transform="translate(480.319 677.325)"/><line class="c" x1="14.11" y2="66.027" transform="translate(551.803 611.298)"/><line class="c" x1="55.766" y2="34.556" transform="translate(633.964 702.6)"/><line class="c" y1="52.248" x2="39.369" transform="translate(594.595 737.156)"/><line class="c" x2="34.106" y2="30.145" transform="translate(599.858 707.01)"/><line class="c" x1="21.075" y2="68.927" transform="translate(743.384 588.43)"/><line class="c" x1="15.77" y1="15.339" transform="translate(743.384 657.357)"/><line class="c" y1="45.242" x2="53.654" transform="translate(689.73 657.357)"/><line class="c" x1="30.873" y2="59.53" transform="translate(768.341 620.892)"/><line class="c" y1="61.033" x2="38.955" transform="translate(729.386 680.422)"/><line class="c" x2="9.187" y2="7.726" transform="translate(759.154 672.696)"/><line class="c" x1="14.029" y2="65.937" transform="translate(814.259 497.554)"/><line class="c" y1="2.593" x2="15.242" transform="translate(799.018 563.49)"/><line class="c" y1="57.401" x2="15.045" transform="translate(799.214 563.49)"/><line class="c" x2="2.151" y2="10.171" transform="translate(831.919 415.489)"/><line class="c" x2="11.417" y2="61.028" transform="translate(822.653 364.631)"/><line class="c" y1="71.895" x2="5.782" transform="translate(828.289 425.659)"/><line class="c" x2="20.327" y2="67.173" transform="translate(783.15 241.981)"/><line class="c" y1="18.238" x2="14.578" transform="translate(788.898 309.154)"/><line class="c" x1="19.177" y1="55.478" transform="translate(803.477 309.154)"/><line class="c" x1="55.473" y2="37.899" transform="translate(452.28 268.599)"/><line class="c" x1="9.511" y1="74.451" transform="translate(452.28 306.498)"/><line class="c" x2="71.538" y2="26.407" transform="translate(380.742 280.092)"/><line class="c" x2="17.027" y2="64.737" transform="translate(547.107 167.713)"/><line class="c" x1="65.842" y1="38.386" transform="translate(564.134 232.45)"/><line class="c" y1="36.15" x2="56.381" transform="translate(507.753 232.45)"/><line class="c" x1="41.748" y2="24.335" transform="translate(687.031 286.459)"/><line class="c" x1="3.259" y1="74.337" transform="translate(687.031 310.793)"/><line class="c" x2="57.055" y2="39.958" transform="translate(629.975 270.835)"/><line class="c" x2="9.279" y2="9.885" transform="translate(737.713 166.977)"/><line class="c" x2="43.527" y2="46.821" transform="translate(703.465 130.041)"/><line class="c" x1="36.158" y1="65.119" transform="translate(746.992 176.862)"/><line class="c" x1="26.375" y1="56.094" transform="translate(722.429 163.11)"/><line class="c" x2="57.608" y2="48.036" transform="translate(664.821 115.074)"/><line class="c" x1="15.284" y1="3.867" transform="translate(722.429 163.11)"/><line class="c" y1="15.461" x2="32.172" transform="translate(573.855 78.206)"/><line class="c" x2="43.092" y2="35.572" transform="translate(562.935 42.635)"/><line class="c" x1="58.794" y1="36.868" transform="translate(606.027 78.206)"/></g></g></g></svg>