<svg xmlns="http://www.w3.org/2000/svg" xmlns:xlink="http://www.w3.org/1999/xlink" width="768" height="1024" viewBox="0 0 768 1024"><defs><style>.a,.c{fill:none;stroke:#2970ff;}.b{clip-path:url(#a);}.c{stroke-linecap:round;}</style><clipPath id="a"><rect class="a" width="768" height="1024"/></clipPath></defs><g transform="translate(100.166 18)"><g class="b" transform="translate(-100.166 -18)"><g transform="translate(-5812.911 -4414.003)"><line class="c" y1="143.426" x2="46.647" transform="translate(6324.74 4658.526)"/><line class="c" x2="122.125" y2="88.642" transform="translate(6371.386 4658.526)"/><line class="c" x1="168.772" y2="54.785" transform="translate(6324.74 4747.168)"/><line class="c" y2="177.283" transform="translate(6493.512 4569.885)"/><line class="c" y1="88.642" x2="122.125" transform="translate(6371.386 4569.885)"/><line class="c" x2="150.956" transform="translate(6220.429 4658.526)"/><line class="c" x1="104.309" y1="143.426" transform="translate(6220.429 4658.526)"/><line class="c" x2="46.647" y2="143.426" transform="translate(6324.74 4515.1)"/><line class="c" y1="143.426" x2="104.309" transform="translate(6220.429 4515.1)"/><line class="c" x2="168.772" y2="54.785" transform="translate(6324.74 4515.1)"/><line class="c" x1="28.831" y2="88.642" transform="translate(6493.512 4658.526)"/><line class="c" x2="28.831" y2="88.642" transform="translate(6493.512 4569.885)"/><line class="c" x1="93.294" transform="translate(6324.74 4801.953)"/><line class="c" x1="75.478" y2="54.785" transform="translate(6418.033 4747.168)"/><line class="c" x1="28.831" y1="88.642" transform="translate(6220.429 4658.526)"/><line class="c" x1="75.478" y1="54.785" transform="translate(6249.261 4747.168)"/><line class="c" y1="54.785" x2="75.478" transform="translate(6249.261 4515.1)"/><line class="c" y1="88.642" x2="28.831" transform="translate(6220.429 4569.885)"/><line class="c" x2="75.478" y2="54.785" transform="translate(6418.033 4515.1)"/><line class="c" x2="93.294" transform="translate(6324.74 4515.1)"/><line class="c" x1="104.309" y2="143.426" transform="translate(6418.033 4658.526)"/><line class="c" x1="168.772" y1="54.785" transform="translate(6249.261 4747.168)"/><line class="c" y1="177.283" transform="translate(6249.261 4569.885)"/><line class="c" y1="54.785" x2="168.772" transform="translate(6249.261 4515.1)"/><line class="c" x2="104.309" y2="143.426" transform="translate(6418.033 4515.1)"/><line class="c" x2="46.647" y2="143.426" transform="translate(6371.386 4658.526)"/><line class="c" x1="150.956" transform="translate(6371.386 4658.526)"/><line class="c" x1="122.125" y2="88.642" transform="translate(6249.261 4658.526)"/><line class="c" x1="122.125" y1="88.642" transform="translate(6249.261 4569.885)"/><line class="c" y1="143.426" x2="46.647" transform="translate(6371.386 4515.1)"/><line class="c" y1="54.785" x2="168.772" transform="translate(6115.009 4102.325)"/><line class="c" x1="122.125" y1="88.642" transform="translate(6115.009 4157.11)"/><line class="c" y1="143.426" x2="46.647" transform="translate(6237.134 4102.325)"/><line class="c" x1="134.252" y1="412.775" transform="translate(6283.781 4102.325)"/><line class="c" x2="134.252" y2="412.775" transform="translate(6237.134 4245.751)"/><line class="c" x2="134.252" y2="412.775" transform="translate(6115.009 4157.11)"/><line class="c" x2="104.309" y2="143.426" transform="translate(6837.506 4210.625)"/><line class="c" x1="150.956" transform="translate(6790.86 4354.051)"/><line class="c" y1="143.426" x2="46.647" transform="translate(6790.86 4210.625)"/><line class="c" y1="304.475" x2="419.474" transform="translate(6371.386 4354.051)"/><line class="c" x1="419.474" y2="304.475" transform="translate(6418.033 4210.625)"/><line class="c" y1="304.475" x2="419.474" transform="translate(6522.343 4354.051)"/><line class="c" x1="104.309" y2="143.426" transform="translate(7340.677 5328.228)"/><line class="c" x2="46.647" y2="143.426" transform="translate(7294.031 5328.228)"/><line class="c" x1="150.956" transform="translate(7294.031 5328.228)"/><line class="c" x2="922.645" y2="669.702" transform="translate(6371.386 4658.526)"/><line class="c" x1="922.644" y1="669.702" transform="translate(6522.343 4658.526)"/><line class="c" x2="922.645" y2="669.701" transform="translate(6418.033 4801.953)"/><line class="c" y1="177.283" transform="translate(5305.559 4569.885)"/><line class="c" x1="122.125" y2="88.642" transform="translate(5305.559 4658.526)"/><line class="c" x1="122.125" y1="88.642" transform="translate(5305.559 4569.885)"/><line class="c" x1="943.702" transform="translate(5305.559 4569.885)"/><line class="c" x2="943.702" transform="translate(5427.684 4658.526)"/><line class="c" x2="943.702" transform="translate(5305.559 4747.168)"/><line class="c" x1="168.772" y1="54.785" transform="translate(5531.008 6955.533)"/><line class="c" x2="46.647" y2="143.426" transform="translate(5653.133 6866.891)"/><line class="c" x1="122.125" y2="88.641" transform="translate(5531.008 6866.891)"/><line class="c" x1="718.253" y2="2208.364" transform="translate(5531.008 4747.168)"/><line class="c" y1="2208.365" x2="718.253" transform="translate(5653.133 4658.526)"/><line class="c" y1="2208.365" x2="718.253" transform="translate(5699.78 4801.953)"/><line class="c" x1="93.294" transform="translate(5735.976 6612.185)"/><line class="c" x1="75.478" y1="54.785" transform="translate(5660.497 6557.4)"/><line class="c" x1="168.772" y1="54.785" transform="translate(5660.497 6557.4)"/><line class="c" x1="588.764" y2="1810.232" transform="translate(5660.497 4747.168)"/><line class="c" y1="1810.232" x2="588.764" transform="translate(5829.269 4801.953)"/><line class="c" x1="588.764" y2="1810.232" transform="translate(5735.976 4801.953)"/><line class="c" x1="104.309" y1="143.426" transform="translate(3948.131 6307.874)"/><line class="c" x1="28.831" y1="88.642" transform="translate(3948.131 6307.874)"/><line class="c" x1="75.479" y1="54.785" transform="translate(3976.962 6396.516)"/><line class="c" x1="2272.299" y2="1649.348" transform="translate(3976.962 4747.168)"/><line class="c" y1="1649.348" x2="2272.298" transform="translate(4052.441 4801.953)"/><line class="c" x1="2272.299" y2="1649.348" transform="translate(3948.131 4658.526)"/><line class="c" x1="28.831" y1="88.642" transform="translate(4027.642 4658.526)"/><line class="c" y1="88.642" x2="28.831" transform="translate(4027.642 4569.885)"/><line class="c" y1="177.283" transform="translate(4056.473 4569.885)"/><line class="c" x1="2192.788" transform="translate(4056.473 4569.885)"/><line class="c" x2="2192.788" transform="translate(4056.473 4747.168)"/><line class="c" x1="2192.788" transform="translate(4027.642 4658.526)"/><line class="c" y1="143.426" x2="104.308"/><line class="c" y1="54.785" x2="75.478" transform="translate(28.83)"/><line class="c" y1="88.641" x2="28.83" transform="translate(0 54.785)"/><line class="c" x1="6220.429" y1="4515.099" transform="translate(28.83 54.785)"/><line class="c" x2="6220.429" y2="4515.1" transform="translate(0 143.427)"/><line class="c" x1="6220.431" y1="4515.1" transform="translate(104.309)"/><line class="c" y1="54.785" x2="75.478" transform="translate(5396.674 1893.706)"/><line class="c" x2="93.294" transform="translate(5472.152 1893.706)"/><line class="c" y1="54.785" x2="168.772" transform="translate(5396.674 1893.706)"/><line class="c" x1="852.588" y1="2621.394" transform="translate(5565.446 1893.706)"/><line class="c" x2="852.588" y2="2621.394" transform="translate(5396.674 1948.491)"/><line class="c" x1="852.588" y1="2621.394" transform="translate(5472.152 1893.706)"/><line class="c" x2="150.956" transform="translate(5264.262 3964.492)"/><line class="c" x2="46.647" y2="143.426" transform="translate(5368.571 3821.066)"/><line class="c" y1="143.426" x2="104.309" transform="translate(5264.262 3821.066)"/><line class="c" x1="956.168" y1="694.034" transform="translate(5368.571 3821.066)"/><line class="c" x2="956.168" y2="694.035" transform="translate(5264.262 3964.492)"/><line class="c" x1="956.168" y1="694.035" transform="translate(5415.218 3964.492)"/><line class="c" y1="88.642" x2="122.125" transform="translate(6677.155 3629.757)"/><line class="c" x2="46.647" y2="143.426" transform="translate(6630.509 3574.972)"/><line class="c" x2="168.772" y2="54.785" transform="translate(6630.509 3574.972)"/><line class="c" y1="940.128" x2="305.769" transform="translate(6493.512 3629.757)"/><line class="c" x1="305.769" y2="940.128" transform="translate(6324.74 3574.972)"/><line class="c" x1="305.769" y2="940.128" transform="translate(6371.386 3718.398)"/><line class="c" x2="168.772" y2="54.785" transform="translate(6846.755 2910.095)"/><line class="c" x2="75.479" y2="54.785" transform="translate(6940.048 2910.095)"/><line class="c" x2="93.293" transform="translate(6846.755 2910.095)"/><line class="c" y1="1605.005" x2="522.015" transform="translate(6418.033 2910.095)"/><line class="c" x1="522.015" y2="1605.005" transform="translate(6324.74 2910.095)"/><line class="c" y1="1605.005" x2="522.015" transform="translate(6493.512 2964.879)"/><line class="c" y1="143.426" x2="46.647" transform="translate(5004.777 5616.621)"/><line class="c" x2="150.956" transform="translate(4900.468 5616.621)"/><line class="c" x1="104.309" y1="143.426" transform="translate(4900.468 5616.621)"/><line class="c" x1="1319.962" y2="958.094" transform="translate(4900.468 4658.526)"/><line class="c" y1="958.094" x2="1319.963" transform="translate(5004.777 4801.953)"/><line class="c" x1="1319.963" y2="958.094" transform="translate(5051.424 4658.526)"/><line class="c" x1="168.772" y2="54.786" transform="translate(8813.309 12398.599)"/><line class="c" x1="93.294" transform="translate(8813.309 12453.385)"/><line class="c" x1="75.479" y2="54.786" transform="translate(8906.602 12398.599)"/><line class="c" x2="2488.568" y2="7651.433" transform="translate(6418.033 4801.953)"/><line class="c" x1="2488.568" y1="7651.431" transform="translate(6493.512 4747.168)"/><line class="c" x2="2488.568" y2="7651.433" transform="translate(6324.74 4801.953)"/><line class="c" y1="143.426" x2="46.647" transform="translate(6777.679 6051.149)"/><line class="c" x2="122.125" y2="88.642" transform="translate(6824.325 6051.149)"/><line class="c" x1="168.772" y2="54.785" transform="translate(6777.679 6139.79)"/><line class="c" x2="452.94" y2="1392.622" transform="translate(6324.74 4801.953)"/><line class="c" x1="452.939" y1="1392.622" transform="translate(6493.512 4747.168)"/><line class="c" x1="452.94" y1="1392.622" transform="translate(6371.386 4658.526)"/><line class="c" x1="28.831" y2="88.642" transform="translate(10811.802 7792.958)"/><line class="c" x1="75.479" y2="54.785" transform="translate(10736.324 7881.6)"/><line class="c" x1="104.31" y2="143.426" transform="translate(10736.324 7792.958)"/><line class="c" x2="4318.292" y2="3134.432" transform="translate(6418.033 4801.953)"/><line class="c" x1="4318.292" y1="3134.432" transform="translate(6522.343 4658.526)"/><line class="c" x2="4318.292" y2="3134.432" transform="translate(6493.512 4747.168)"/><line class="c" x2="28.831" y2="88.642" transform="translate(7965.501 3501.441)"/><line class="c" x2="75.479" y2="54.785" transform="translate(7890.022 3446.656)"/><line class="c" x2="104.309" y2="143.426" transform="translate(7890.022 3446.656)"/><line class="c" y1="1068.444" x2="1471.99" transform="translate(6522.343 3590.083)"/><line class="c" x1="1471.99" y2="1068.444" transform="translate(6418.033 3446.656)"/><line class="c" x1="1471.99" y2="1068.444" transform="translate(6493.512 3501.441)"/><line class="c" y2="177.283" transform="translate(9930.188 4569.885)"/><line class="c" x1="28.831" y2="88.642" transform="translate(9930.188 4658.526)"/><line class="c" x2="28.831" y2="88.642" transform="translate(9930.188 4569.885)"/><line class="c" x2="3436.677" transform="translate(6522.343 4658.526)"/><line class="c" x1="3436.677" transform="translate(6493.512 4569.885)"/><line class="c" x2="3436.677" transform="translate(6493.512 4747.168)"/><line class="c" x2="122.125" y2="88.642" transform="translate(7898.864 4658.526)"/><line class="c" y2="177.283" transform="translate(8020.988 4569.885)"/><line class="c" y1="88.642" x2="122.125" transform="translate(7898.864 4569.885)"/><line class="c" x2="1527.477" transform="translate(6493.512 4569.885)"/><line class="c" x1="1527.477" transform="translate(6371.386 4658.526)"/><line class="c" x2="1527.477" transform="translate(6493.512 4747.168)"/></g></g></g></svg>