<?xml version="1.0" encoding="utf-8"?>
<!-- Generator: Adobe Illustrator 21.0.0, SVG Export Plug-In . SVG Version: 6.00 Build 0)  -->
<svg version="1.1" id="Layer_1" xmlns="http://www.w3.org/2000/svg" xmlns:xlink="http://www.w3.org/1999/xlink" x="0px" y="0px"
	 viewBox="0 0 540 325" style="enable-background:new 0 0 540 325;" xml:space="preserve">
<style type="text/css">
	.st0{fill:#6ED3F3;}
	.st1{fill:#66E2F9;}
	.st2{opacity:0.5;fill:#091440;stroke:#091440;stroke-width:0.7108;stroke-miterlimit:10;enable-background:new    ;}
	.st3{fill:#454D6F;}
	.st4{fill:none;stroke:#6ED3F3;stroke-miterlimit:10;}
	.st5{fill:#E6F7FD;}
	.st6{fill:none;stroke:#454D6F;stroke-width:0.7108;stroke-miterlimit:10;}
	.st7{fill:none;stroke:#0B344F;stroke-width:0.7108;stroke-linecap:round;stroke-linejoin:round;stroke-miterlimit:10;}
	.st8{fill:#C1604F;}
	.st9{fill:#091440;}
	.st10{fill:#3AD7A4;}
	.st11{fill:#A5B3D7;}
	.st12{opacity:0.5;fill:#091440;enable-background:new    ;}
	.st13{fill:none;stroke:#8297A5;stroke-width:0.7108;stroke-linecap:round;stroke-linejoin:round;stroke-miterlimit:10;}
	.st14{fill:#25549F;}
	.st15{fill:none;stroke:#091440;stroke-width:1.4216;stroke-miterlimit:10;}
	.st16{fill:#FAC7B9;}
	.st17{fill:#2F74FB;}
	.st18{fill:#FDC6B9;}
	.st19{opacity:0.5;fill:#2F74FB;enable-background:new    ;}
	.st20{fill:#969DDA;}
	.st21{fill:#FDD9D9;}
	.st22{fill:#8FBEEB;}
	.st23{opacity:0.5;fill:#6ED3F3;enable-background:new    ;}
	.st24{fill:#FB7151;}
	.st25{fill:#FFFFFF;}
	.st26{fill:#DB9583;}
	.st27{clip-path:url(#SVGID_2_);fill:#FFFFFF;}
	.st28{clip-path:url(#SVGID_4_);fill:#FFFFFF;}
	.st29{fill:#217572;}
	.st30{fill:#36E5CE;}
	.st31{fill:#1E9BA6;}
	.st32{opacity:0.5;fill:#7CB0CB;enable-background:new    ;}
	.st33{fill:#FACAC8;}
	.st34{fill:none;stroke:#25549F;stroke-width:1.4216;stroke-miterlimit:10;}
	.st35{fill:none;stroke:#2F74FB;stroke-width:0.7108;stroke-linecap:round;stroke-linejoin:round;stroke-miterlimit:10;}
	.st36{fill:none;stroke:#111C46;stroke-width:0.7108;stroke-linecap:round;stroke-linejoin:round;stroke-miterlimit:10;}
	.st37{fill:none;stroke:#052F4B;stroke-width:0.7108;stroke-linecap:round;stroke-linejoin:round;stroke-miterlimit:10;}
	.st38{fill:none;stroke:#8C99A6;stroke-width:0.7108;stroke-linecap:round;stroke-linejoin:round;stroke-miterlimit:10;}
	.st39{fill:#E4FAFE;}
	.st40{fill:#30395E;}
	.st41{fill:#9CC2FF;}
	.st42{fill:#252F56;}
	.st43{fill:#FB9676;}
	.st44{fill:none;stroke:#8297A5;stroke-linecap:round;stroke-miterlimit:10;}
	.st45{fill:#2B9AFD;}
	.st46{fill:none;}
	.st47{fill:#4066A1;}
	.st48{fill:#081B5D;}
</style>
<path class="st0" d="M186,176.4c-20.7,0-47.9,0-47.9,0c-6.2,0-11.3-3.7-3.6-28.5c3.4-10.9,6.5-17.5,9.4-21.2
	c3.8-4.8,7.2-4.7,10.4-2.3c0.6,0.4,1.1,0.9,1.6,1.3c0.9,0.7,1.7,1.4,2.5,2.2c-0.2,1.1-0.5,2.2-1,3.3c-0.1,0.2-0.2,0.4-0.3,0.6
	c-0.6,1.3-1.5,2.8-2.4,4.4c-4.6,8.6-11.1,21-3.1,26.8c9.8,7.1,31.2,2.9,35.5,2.5c3.6-0.4-6.8-9.9-12.1-21.4c-1.1-2.4-2-4.9-2.5-7.4
	c0-0.1-0.1-0.3-0.1-0.4c0.9,0.4,1.7,1,2.5,1.7c8.4,7,14.3,26.3,20.9,30.3C203.5,172.9,206.7,176.4,186,176.4z"/>
<path class="st1" d="M187.2,165.5c-4.3,0.4-25.7,4.6-35.5-2.5c-7.9-5.7-1.6-18.2,3.1-26.8c0.9-1.6,1.7-3.2,2.4-4.4
	c0.1-0.2,0.2-0.4,0.3-0.6c0.5-1.1,0.8-2.2,1-3.3c1.8,1.6,3.4,3,5.8,4.5c1.9,1.2,4.2,2.3,7.5,3.5c0.3,0.1,0.6,0.2,0.9,0.4
	c0,0.1,0,0.3,0.1,0.4c0.5,2.5,1.4,5,2.5,7.4C180.5,155.5,190.8,165.1,187.2,165.5z"/>
<path id="XMLID_1531_" class="st2" d="M253.5,55.6h276.3c2.2,0,4,1.8,4,4v98.6c0,2.2-1.8,4-4,4H253.5c-2.2,0-4-1.8-4-4V59.7
	C249.4,57.4,251.3,55.6,253.5,55.6z"/>
<path id="XMLID_1530_" class="st3" d="M253.5,52h276.3c2.2,0,4,1.8,4,4v98.6c0,2.2-1.8,4-4,4H253.5c-2.2,0-4-1.8-4-4V56
	C249.4,53.8,251.3,52,253.5,52z"/>
<path class="st4" d="M377.4,170.7l17.7,5.8c0,0,19.3,1.6,40-8.8c6.3-3.2,11-6.9,14.3-11.1h-72V170.7z"/>
<path class="st5" d="M529.7,54H253.5c-1.1,0-2,0.9-2,2v98.6c0,1.1,0.9,2,2,2h123.9h72h80.3c1.1,0,2-0.9,2-2V56
	C531.7,54.9,530.8,54,529.7,54z"/>
<rect id="XMLID_1527_" x="338.3" y="69.8" class="st6" width="35.5" height="17.8"/>
<rect id="XMLID_1526_" x="338.3" y="95.8" class="st6" width="35.5" height="17.8"/>
<line id="XMLID_1524_" class="st6" x1="356.9" y1="87.6" x2="356.9" y2="95.8"/>
<rect id="XMLID_1523_" x="338.3" y="121.8" class="st6" width="35.5" height="17.8"/>
<line id="XMLID_1522_" class="st6" x1="356.9" y1="113.5" x2="356.9" y2="121.8"/>
<line id="XMLID_1521_" class="st6" x1="373.8" y1="105.3" x2="382.1" y2="105.3"/>
<rect id="XMLID_1519_" x="267.4" y="95.8" class="st6" width="35.5" height="17.8"/>
<rect id="XMLID_1518_" x="271.6" y="98.9" class="st3" width="27.3" height="4.4"/>
<rect id="XMLID_1517_" x="271.6" y="106" class="st3" width="14.5" height="4.4"/>
<line id="XMLID_1514_" class="st7" x1="302.8" y1="283" x2="468.6" y2="283"/>
<line id="XMLID_1513_" class="st7" x1="480.5" y1="283" x2="498.2" y2="283"/>
<line id="XMLID_1512_" class="st7" x1="516" y1="283" x2="506.2" y2="283"/>
<polygon id="XMLID_1510_" class="st8" points="324.8,80.2 324.8,93.8 314.3,93.7 313.8,80.1 "/>
<path id="XMLID_1509_" class="st8" d="M312.3,70.9c0,0-3.4-3.4-4.7-1c-1.3,2.4,1.4,8.1,3.8,6.7C313.9,75.1,312.3,70.9,312.3,70.9z"
	/>
<polygon id="XMLID_1508_" class="st9" points="314.3,97.9 309.1,97.9 308.3,71.9 314.3,69.1 "/>
<path id="XMLID_1507_" class="st8" d="M301.4,98.5c0,0-12.7,14.2-16.2,29.3c5.6,10.7,21.7,14,21.7,14l3.8-3.9l-0.9-6l-5.3,3.8
	L294.4,125l10.6-12.1L301.4,98.5z"/>
<path id="XMLID_1506_" class="st10" d="M308.4,140.3c0,0,2.7-7.8,0-16.1s-5.5-17.2-7.1-25.7l11.5-4.7v-4.2c0,0,10.3-1.8,13.6,0
	c0,4.2,0,4.2,0,4.2l11.8,2.8c0,0,1.8,9.9,1.8,12.4c0,8.7-2.4,9.2-2.4,9.2c-0.9,4.2-1,12.5-2.1,17.3
	C333.8,143.9,308.4,140.3,308.4,140.3z"/>
<ellipse id="XMLID_1505_" transform="matrix(0.7071 -0.7071 0.7071 0.7071 36.6851 262.4895)" class="st9" cx="335.2" cy="87" rx="2.3" ry="1.7"/>
<rect id="XMLID_1504_" x="336.5" y="85.5" transform="matrix(0.7071 -0.7071 0.7071 0.7071 35.1576 266.0743)" class="st9" width="4.5" height="10.2"/>
<path id="XMLID_1502_" class="st8" d="M341.3,88.8c0,0-2.1,4-3.5,3.8l-0.7-0.5c-0.4,0.2-0.9,2.1-0.6,2.7c0.6,1.5,3.7,5.7,3.7,5.7
	L344,125l6.3-3.5l-4.9-23l4.2-3.7l-3.8-5.2C344.9,88.1,342.8,87.7,341.3,88.8L341.3,88.8z"/>
<path id="XMLID_1501_" class="st8" d="M338.4,96.6c0,0,10.6,17.8,11.9,24.9c0.9,4.9-3.7,11-9.1,2.6c-3.9-5.9-4.6-11.8-4.6-11.8
	L338.4,96.6z"/>
<path id="XMLID_1500_" class="st11" d="M344.5,157.9L344.5,157.9L344.5,157.9c-1.5-8.8-4.1-14.2-8.8-22.5
	c-16.2-4.6-26.3,0.3-26.3,0.3s-6.1,11.9-7.8,22.9c-5,32.6,11.6,124.4,11.6,124.4h10.9c0,0-0.7-34.1-2-52.1
	c-0.9-12.8,0.5-36.8,1.3-49.5c3.6,18.6,9.6,50.3,12,64.4c3.5,20.6,7.7,36.7,7.7,36.7l9.1,0.1C352.3,252.8,351.6,225.5,344.5,157.9z"
	/>
<path id="XMLID_1499_" class="st12" d="M323.5,181.4c0.2-0.6-2.7-16.6-2.7-16.6l2,26.7L323.5,181.4z"/>
<path id="XMLID_1498_" class="st9" d="M327.6,279.5l-3.7-4.9c0,0-5.2,7.9-11.8,1.8v6.7h6.7h8.9h1C328.7,283,328.9,280.6,327.6,279.5
	z"/>
<path id="XMLID_1497_" class="st9" d="M357.8,279.5l-5.5-4.9c0,0-3.9,8.1-10.5,2.1v6.4h7.2h8.9h1C358.9,283,359.1,280.6,357.8,279.5
	z"/>
<path id="XMLID_1495_" class="st8" d="M320,86.4c4.7,0,9.3-7.9,9.3-14.5c0-8.3-2.7-14.5-9.8-14.5s-9.3,8.5-9.3,14.5
	C310.2,77.8,313.8,86.4,320,86.4z"/>
<path id="XMLID_1494_" class="st8" d="M326.6,70.9c0,0,3.4-3.4,4.7-1c1.3,2.4-1.4,8.1-3.8,6.7C325,75.1,326.6,70.9,326.6,70.9z"/>
<path id="XMLID_1493_" class="st9" d="M330.7,66.8c3.3,13.1-17.8,24.8-17.8,24.8s-5.4-11.5-4.6-22s7.9-12.4,12.6-12.1
	C324.7,57.7,329,60,330.7,66.8z"/>
<g id="XMLID_1491_">
	<path class="st9" d="M330.7,70.3c0,1.1-0.2,2.3-0.3,3.3c-0.1,1.1-0.3,2.2-0.5,3.3c-0.4,2.2-0.8,4.3-1.3,6.4
		c-1,4.3-2.2,8.5-4.1,12.5c-0.5,1-1,2-1.7,2.9c-0.6,0.9-1.4,1.8-2.4,2.5c-0.2,0.2-0.5,0.3-0.8,0.5s-0.5,0.3-0.8,0.4
		s-0.6,0.2-0.9,0.2c-0.2,0-0.3,0.1-0.5,0H317c-1.2,0-2.4-0.3-3.3-1c-1-0.6-1.7-1.6-2.3-2.6c-0.5-1-0.9-2.1-1.2-3.2
		c-0.5-2.2-0.6-4.4-0.5-6.6l0,0l0.3-21.2l0.3,21.2l0,0c-0.1,2.1,0.1,4.3,0.6,6.3c0.3,1,0.6,2,1.2,2.9c0.5,0.9,1.2,1.7,2,2.2
		s1.8,0.8,2.8,0.8s1.9-0.3,2.7-0.9c0.8-0.6,1.4-1.4,2-2.3s1.1-1.8,1.5-2.8c1.7-3.9,2.8-8.1,3.6-12.3c0.4-2.1,0.8-4.2,1-6.4
		c0.1-1.1,0.3-2.1,0.4-3.2s0.2-2.1,0.2-3.1L330.7,70.3z"/>
</g>
<g id="XMLID_1489_">
	<path class="st9" d="M329.1,75.7c-1,2-2,3.9-3.2,5.7c-0.6,0.9-1.2,1.8-1.8,2.7c-0.6,0.9-1.3,1.8-1.9,2.6l-1,1.3l-1.1,1.2
		c-0.4,0.4-0.8,0.8-1.2,1.2c-0.4,0.4-0.9,0.7-1.3,1.1c-0.5,0.3-0.9,0.6-1.4,0.9s-0.9,0.5-1.4,0.8c-0.5,0.2-1,0.5-1.5,0.7
		c-0.3,0.1-0.5,0.2-0.8,0.3c-0.1,0-0.3,0.1-0.5,0.1c-0.1,0-0.2,0-0.4-0.1c-0.1,0-0.2-0.1-0.2-0.3c0-0.1,0-0.2,0-0.4v0.1l0.4-13.7
		l0.4,13.7v0.1c0.1-0.1,0-0.3-0.1-0.3s0,0,0,0c0.1,0,0.2,0,0.3-0.1c0.2-0.1,0.5-0.2,0.7-0.3c0.5-0.2,0.9-0.5,1.4-0.8
		s0.9-0.6,1.4-0.8c0.4-0.3,0.8-0.6,1.2-0.9c0.4-0.4,0.8-0.7,1.1-1.1c0.4-0.4,0.7-0.8,1.1-1.2l1-1.2l0.9-1.3c0.6-0.9,1.2-1.8,1.7-2.7
		c0.6-0.9,1.1-1.8,1.6-2.8c1-1.9,2-3.8,2.8-5.7L329.1,75.7z"/>
</g>
<line id="XMLID_1487_" class="st13" x1="25.4" y1="283" x2="4.7" y2="283"/>
<rect id="XMLID_1486_" x="18.4" y="176.4" class="st9" width="284.3" height="106.6"/>
<polygon id="XMLID_1485_" class="st11" points="170.8,198.8 178.4,198.4 178.4,194.2 151.3,194.2 151.3,229.7 160.5,229.7 
	160.5,211.9 161.8,229.7 178.4,229.7 178.4,199.5 "/>
<polygon id="XMLID_1484_" class="st14" points="154.1,263.1 160.5,262 160.5,262 156.8,261.7 160.5,261.1 160.5,211.9 107.1,211.9 
	107.1,217.4 116,218 107.1,219.4 107.1,265.3 160.5,265.3 160.5,263.5 "/>
<path class="st9" d="M151.5,250.9l-9-1.4c0-0.1,0-0.2,0-0.3v-7.3h8.8c0.8,0,1.4-0.6,1.4-1.4s-0.6-1.4-1.4-1.4h-8.8v-7.3
	c0-0.1,0-0.2,0-0.3l9-1.4c0.8-0.1,1.3-0.8,1.2-1.6s-0.8-1.3-1.6-1.2l-9.2,1.5c-0.7-1.9-2.1-3.6-3.9-4.6v-4.8c0-0.8-0.6-1.4-1.4-1.4
	s-1.4,0.6-1.4,1.4v3.9c-0.5-0.1-0.9-0.1-1.4-0.1s-0.9,0-1.4,0.1v-3.9c0-0.8-0.6-1.4-1.4-1.4s-1.4,0.6-1.4,1.4v4.8
	c-1.8,1-3.2,2.6-3.9,4.6l-9.2-1.5c-0.8-0.1-1.5,0.4-1.6,1.2s0.4,1.5,1.2,1.6l9,1.4c0,0.1,0,0.2,0,0.3v7.3h-8.8
	c-0.8,0-1.4,0.6-1.4,1.4s0.6,1.4,1.4,1.4h8.8v7.3c0,0.1,0,0.2,0,0.3l-9,1.4c-0.8,0.1-1.3,0.8-1.2,1.6c0.1,0.8,0.8,1.3,1.6,1.2
	l9.2-1.5c1.2,3.3,4.4,5.6,8.1,5.6s6.9-2.3,8.1-5.6l9.2,1.5c0.1,0,0.1,0,0.2,0c0.7,0,1.3-0.5,1.4-1.2
	C152.8,251.7,152.2,251,151.5,250.9z"/>
<polyline id="XMLID_1440_" class="st15" points="415.5,230.9 402.7,235.3 393,235.3 "/>
<path id="XMLID_1439_" class="st9" d="M393.4,237.1h8.9c1,0,1.8-0.8,1.8-1.8l0,0c0-1-0.8-1.8-1.8-1.8h-8.9c-1,0-1.8,0.8-1.8,1.8l0,0
	C391.6,236.3,392.4,237.1,393.4,237.1z"/>
<path class="st16" d="M149.1,113.2c-0.8,0.4-2.4,0.1-3.5-2.1c-0.4-0.8-0.8-1.9-1-3.4c-0.4-2.6,0.6-3.4,1.7-3.6
	c1.1-0.2,2.4,0.4,2.4,0.4S150.1,112.7,149.1,113.2z"/>
<path class="st17" d="M175.2,99.4v0.3C175.2,99.7,175.1,99.5,175.2,99.4L175.2,99.4z"/>
<path class="st18" d="M158.5,127.8c-0.8-0.7-1.6-1.4-2.5-2.2c-0.2-1.6-0.4-3.5-0.5-5c0.9,0.8,1.8,1.4,2.8,1.8
	C158.6,124.3,158.7,126.1,158.5,127.8z"/>
<path class="st17" d="M171.8,110.9v-1.5c-0.1,1.1-0.2,2.3-0.2,3.5C171.7,112.2,171.8,111.5,171.8,110.9z"/>
<path class="st19" d="M171.8,110.9v-1.5c-0.1,1.1-0.2,2.3-0.2,3.5C171.7,112.2,171.8,111.5,171.8,110.9z"/>
<path class="st20" d="M157.7,120.4c-1-0.6-1.8-1.4-2.6-2.3c0.1,0.5,0.2,1.5,0.3,2.6c0.8,0.8,1.8,1.4,2.8,1.8
	C158.1,121.8,157.9,121.1,157.7,120.4z"/>
<path class="st18" d="M150.8,102c0,0.1,0,0.2-0.1,0.3C150.8,102.2,150.8,102.1,150.8,102L150.8,102z"/>
<path class="st18" d="M157.7,120.4c-1-0.6-1.8-1.4-2.6-2.3l0,0c-3.3-4.4-4.2-12.2-4.4-15.8c0-0.1,0-0.2,0.1-0.3
	c0.8,0.2,1.7,0.5,2.8,0.6c0,1.4,0.1,2.9,0.2,4.2c0.2,3.3,1.7,6.9,3,10.6C157.1,118.5,157.5,119.4,157.7,120.4z"/>
<path class="st21" d="M165.9,129.8l0.8-8.7c-1.6,1.3-3.4,2.1-5.4,2.1c-1,0-2.1-0.2-3-0.7c0.4,1.8,0.5,3.6,0.2,5.3
	c1.7,1.6,3.4,3,5.8,4.5C165.4,131.2,165.9,129.8,165.9,129.8z"/>
<path class="st22" d="M166.6,121.1l0.2-2.7c-1.4,1.8-3.2,3-5.6,3c-1.3,0-2.5-0.3-3.5-0.9c0.2,0.7,0.4,1.4,0.5,2.1c1,0.4,2,0.7,3,0.7
	C163.2,123.2,165.1,122.4,166.6,121.1z"/>
<path class="st18" d="M171.7,102.1c0-0.1,0-0.3,0-0.4h-0.1C171.7,101.8,171.7,101.9,171.7,102.1z"/>
<path class="st23" d="M171.7,102.1c0-0.1,0-0.3,0-0.4h-0.1C171.7,101.8,171.7,101.9,171.7,102.1z"/>
<path class="st17" d="M175.2,138c-0.8-0.7-1.7-1.3-2.5-1.7c-0.3-0.1-0.6-0.3-0.9-0.4c-3.2-1.2-5.6-2.4-7.5-3.5
	c1.1-1.2,1.6-2.6,1.6-2.6l0.8-8.7l0.2-2.7c3.5-4.5,4.5-12.7,4.8-16.3c0-0.1,0-0.3,0-0.4h-0.1c-2.3,0.7-5.9,1.4-11,1.4l-0.5-3.1
	l-0.4,3.1c-1.4,0-3-0.1-4.7-0.3c-0.5-0.1-1-0.1-1.5-0.2c-1.1-0.2-2-0.4-2.8-0.6h-0.1c0,0.1,0,0.2,0,0.3c0.2,3.7,1.1,11.4,4.4,15.8
	c0.1,0.5,0.2,1.5,0.3,2.6c0.2,1.5,0.4,3.3,0.5,5c-0.5-0.4-1.1-0.8-1.6-1.3c-3.2-2.4-6.7-2.5-10.4,2.3l1.7-15.5
	c1.1,2.2,2.7,2.4,3.5,2.1c1-0.5-0.3-8.7-0.3-8.7s-1.3-0.5-2.4-0.4l0.4-4.1c0-7.8,6.4-14.2,14.2-14.2c7.6,0,13.8,6,14.1,13.5
	c0,0.1,0,0.2,0,0.3v0.3L175.2,138z"/>
<path class="st21" d="M171.7,102.1c-0.3,3.6-1.4,11.8-4.8,16.3c-1.4,1.8-3.2,3-5.6,3c-1.3,0-2.5-0.3-3.5-0.9c-0.3-1-0.6-2-0.9-2.9
	c-1.2-3.7-2.7-7.3-3-10.6c-0.1-1.4-0.2-2.8-0.2-4.2c0.5,0.1,1,0.1,1.5,0.2c1.7,0.2,3.2,0.2,4.7,0.3l0.4-3.1l0.5,3.1
	c5.1,0,8.7-0.7,11-1.4C171.7,101.8,171.7,101.9,171.7,102.1z"/>
<rect id="XMLID_689_" x="236.2" y="173.8" class="st24" width="31" height="2.6"/>
<rect id="XMLID_686_" x="241.9" y="169.4" class="st14" width="25.3" height="4.6"/>
<rect id="XMLID_683_" x="241.9" y="170.5" class="st25" width="25.3" height="2.3"/>
<rect id="XMLID_680_" x="245.7" y="167.1" class="st9" width="18.8" height="2.3"/>
<rect id="XMLID_661_" x="187.3" y="175.1" class="st14" width="53.3" height="1.3"/>
<rect id="XMLID_649_" x="267.2" y="171.3" class="st0" width="35.5" height="5.1"/>
<rect id="XMLID_648_" x="267.2" y="172.6" class="st25" width="35.5" height="2.4"/>
<path class="st26" d="M76.2,102.1c-0.2,0.1-0.5,0.2-0.7,0.3c-0.1,0-0.2,0-0.3,0c-0.8,0-1.6-0.6-2.2-1.4c-1.5-1.9-2.3-5.1-1.3-6.9
	c0.2-0.4,0.5-0.7,0.9-0.9c0.2,2,0.8,4.3,1.6,6.9c0.1,0.4,0.2,0.7,0.4,1.1l0.3-0.6l0.2-0.3l0.8-1.4l0.9-1.6c0,0,0.2-0.5,0.9-0.5
	c0.1,0.4,0.2,0.9,0.2,1.4C77.9,99.6,77.6,101.2,76.2,102.1z"/>
<path class="st26" d="M98.5,101.1c-0.3,0.3-0.6,0.6-0.8,0.8c0-0.2,0.1-0.4,0.1-0.6s0.1-0.4,0.1-0.7c0.4-1.8,0.8-4.6,0.7-7.6
	c0.5,0.1,1,0.4,1.3,1C100.9,95.9,100,99.2,98.5,101.1z"/>
<path id="XMLID_616_" class="st25" d="M102.5,219.3c-1.8-0.8-5.2,0.6-3.8,6.5s2.3,10.5,2.6,15.7c0.3,5.2,4.2,10.8,7.6,10.1
	c5.3-1.2,2.5-11.8,0-19.8C106.4,223.9,104.8,220.3,102.5,219.3z"/>
<path id="XMLID_613_" class="st10" d="M102.7,218.5c-1.8-0.8-5.2,0.6-3.8,6.5c1.4,5.9,2.3,10.4,2.6,15.6c0,0.4,0.1,0.9,0.2,1.3
	c0.8,4.8,4.3,9.4,7.4,8.7c5.3-1.2,2.4-11.7,0-19.7C106.5,223,105,219.4,102.7,218.5z"/>
<g id="XMLID_600_">
	<g>
		<g>
			<defs>
				<path id="SVGID_1_" d="M102.7,218.5c-1.8-0.8-5.2,0.6-3.8,6.5c1.4,5.9,2.3,10.4,2.6,15.6c0,0.4,0.1,0.9,0.2,1.3
					c0.8,4.8,4.3,9.4,7.4,8.7c5.3-1.2,2.4-11.7,0-19.7C106.5,223,105,219.4,102.7,218.5z"/>
			</defs>
			<clipPath id="SVGID_2_">
				<use xlink:href="#SVGID_1_"  style="overflow:visible;"/>
			</clipPath>
			<path id="XMLID_606_" class="st27" d="M102.5,245.6c0,0,2-6,9.3-3.8s5.6,4.4,5.6,4.4l-5.6,8.7l-9.9-3.2L102.5,245.6z"/>
		</g>
	</g>
</g>
<path id="XMLID_588_" class="st25" d="M71.8,219.5c1.9-0.6,5.1,1.2,3.1,6.9s-3.3,10.2-4.1,15.4c-0.8,5.2-5.3,10.4-8.6,9.3
	c-5.1-1.7-1.3-12,2-19.7C67.6,223.6,69.5,220.2,71.8,219.5z"/>
<path id="XMLID_585_" class="st10" d="M71.8,218.6c1.9-0.6,5.1,1.2,3.1,6.9s-3.3,10.1-4.1,15.3c-0.1,0.4-0.2,0.9-0.3,1.3
	c-1.3,4.7-5.3,9-8.3,8c-5.1-1.7-1.3-11.9,2-19.6C67.5,222.8,69.4,219.3,71.8,218.6z"/>
<g id="XMLID_576_">
	<g>
		<g>
			<defs>
				<path id="SVGID_3_" d="M71.8,218.6c1.9-0.6,5.1,1.2,3.1,6.9s-3.3,10.1-4.1,15.3c-0.1,0.4-0.2,0.9-0.3,1.3c-1.3,4.7-5.3,9-8.3,8
					c-5.1-1.7-1.3-11.9,2-19.6C67.5,222.8,69.4,219.3,71.8,218.6z"/>
			</defs>
			<clipPath id="SVGID_4_">
				<use xlink:href="#SVGID_3_"  style="overflow:visible;"/>
			</clipPath>
			<path id="XMLID_582_" class="st28" d="M69.3,245.7c0,0-1.3-6.2-8.9-4.8s-6,3.8-6,3.8l4.7,9.3l10.2-2.2V245.7z"/>
		</g>
	</g>
</g>
<path class="st17" d="M110.2,159c-0.3,0-0.7,0-1,0c0-1.4,0-3-0.1-4.7c-0.5-18.8-43.4-2.8-43.4-2.8s-0.6,3.3-0.9,7.4
	c-0.1,0-0.3,0-0.4,0c-6.8,0-7.4,20.3-3.8,38.2s5.4,27.3,5.4,27.3s1,3.8,4.2,2.9s5.4-2.2,5.9-7.7s1.3-33.8,1.7-43.5l0,0
	c5.1,0,11.5,0,16.9,0l0,0c0.6,9.7,3.3,38.6,3.8,44.1s2.6,6.8,5.9,7.7s4.2-2.9,4.2-2.9s1.9-17.2,5.4-35.2
	C117.6,172.2,117.1,159,110.2,159z"/>
<path class="st10" d="M78.8,164.5c-0.3-0.2-0.6-0.3-0.9-0.5C78.2,164.2,78.5,164.4,78.8,164.5z"/>
<path class="st10" d="M79,152.1c0.1,6.6-1.2,11.8-1.2,11.8c-4.1-2.4-8.6-5.2-14.2-4.8l-0.1-7.1c0,0-8.3,0.9-9.8-9.3
	c-1.8-11.9,5.5-23.7,7.4-29.8c0,0,2.5-5.5,5.1-7.3l6.7-4.7l1.2-0.8c0.1,0.4,0.2,0.7,0.4,1.1l0.3-0.6c0.1,0.6,0.2,1.2,0.3,1.8
	c0.2,0.9,0.4,1.8,0.7,2.7c-1.1,0.2-5,1.1-6.9,4.6c-2.2,4,8.1,19.3,8.1,19.3c0.5,0.8,1.1,1.5,1.5,2.1C78.8,137.1,78.9,144,79,152.1z"
	/>
<path class="st10" d="M109.3,152.1c0,0,0.3,7.1,0.2,7.1c-6.3,0.4-10.3,2.7-13.7,4.8c-0.4-0.4-1.5-2.3-2.1-10.8
	c-0.3-4.3-0.1-13.1,0.3-22.3c0.2-0.1,0.4-0.2,0.7-0.3c7-2.9,9.5-15.6,9.8-18.9c0.3-3.2-1.9-4.4-9-4.8c0-0.1,0-0.1,0-0.2
	c0.5-1.2,1-2.5,1.3-3.8l0.5,0.1c0,0,0.1-0.4,0.3-1.1c0-0.2,0.1-0.4,0.1-0.6s0.1-0.4,0.1-0.7l0.6,0.4l6.5,4.6c0.8,0.5,1.4,1.1,2,1.8
	c4.6,3.6,8,15.9,11.8,31.4C121.4,148.9,116,152.7,109.3,152.1z"/>
<path class="st25" d="M78.8,164.5c3.4,2,5.5,3.2,8.9,3c2.9-0.2,5.4-1.7,8.2-3.5c0,0-0.1,0-0.1-0.1c-2.9,1.7-5.3,3.3-8.4,3.6
	C84.6,167.7,81.8,166.3,78.8,164.5z"/>
<path class="st25" d="M77.8,163.9c0.1,0,0.1,0.1,0.1,0.1S77.9,164,77.8,163.9L77.8,163.9z"/>
<path class="st25" d="M95.5,106.9c0-0.1,0-0.1,0-0.2C95.5,106.8,95.5,106.8,95.5,106.9L95.5,106.9z"/>
<path class="st29" d="M76.3,104.7c-0.1,0.2-0.1,0.3-0.1,0.3s-0.1,0-0.3,0c-0.3-0.9-0.5-1.8-0.7-2.7c-0.1-0.6-0.2-1.2-0.3-1.8
	l0.2-0.3c0.1,0.4,0.2,0.7,0.2,1.1c0.1,0.3,0.2,0.6,0.2,0.9c0.1,0.4,0.2,0.8,0.4,1.2S76.1,104.3,76.3,104.7z"/>
<path class="st29" d="M96.8,102.9c-0.3,1.3-0.8,2.6-1.3,3.8c0,0.1-0.1,0.1-0.1,0.2c-0.2,0-0.4,0-0.7,0l0,0c0.3-0.7,0.7-1.3,1-2
	c0.3-0.6,0.5-1.3,0.7-2H96.8z"/>
<path class="st26" d="M96.4,102.9c-0.2,0.7-0.5,1.3-0.7,2c-0.3,0.7-0.6,1.4-1,2c-5.6-0.2-9.4-2.3-11.8-4.3c-0.9-0.7-1.6-1.4-2.2-1.9
	c-1.2-1.2-2.5,0.4-3.4,1.9c-0.3,0.4-0.5,0.9-0.7,1.3c-0.2,0.3-0.3,0.7-0.4,0.8c-0.2-0.4-0.3-0.8-0.4-1.2c-0.1-0.4-0.2-0.8-0.4-1.2
	c-0.1-0.3-0.2-0.6-0.2-0.9c-0.1-0.4-0.2-0.8-0.2-1.1l0.8-1.4l0.9-1.6c0,0,0.2-0.5,0.9-0.5c0.6,0,1.5,0.3,2.9,1.4
	c0.8,0.6,1.7,1.4,2.8,2.5c0.7,0.7,1.4,1.3,2.1,1.9c4.9,3.5,9,2.1,9,2.1l-1.8-2.1l-0.2-0.3l2,0.3l1.6,0.2L96.4,102.9z"/>
<path class="st9" d="M97.9,100.7c-0.1,0.2-0.1,0.4-0.1,0.7c-0.1,0.2-0.1,0.4-0.1,0.6c-0.2,0.7-0.3,1.1-0.3,1.1l-0.5-0.1l-0.4-0.1
	l-0.5-0.1l-1.6-0.2l-2-0.3l0.2,0.3l1.8,2.1c0,0-4.1,1.5-9-2.1c-0.7-0.5-1.4-1.1-2.1-1.9c-1.1-1.1-2-1.9-2.8-2.5
	c-1.4-1.1-2.3-1.4-2.9-1.4c-0.7,0-0.9,0.5-0.9,0.5l-0.9,1.6l-0.8,1.4l-0.2,0.3l-0.3,0.6c-0.2-0.4-0.3-0.8-0.4-1.1
	c-0.9-2.6-1.4-4.8-1.6-6.9C70.7,78.4,83.6,76.7,86,76.5c2.8-0.2,8.6,0.5,11.5,8.9c0.9,2.6,1.2,5.2,1.3,7.7
	C98.7,96.1,98.3,98.8,97.9,100.7z"/>
<path class="st30" d="M75.9,105c-1.1,0.2-5,1.1-6.9,4.6c-2.3,4.1,8,19.4,8,19.4c0.5,0.8,1,1.5,1.5,2.1c-0.4-10.8-0.8-18.2-1.3-22.8
	C76.7,107.3,76.2,106.2,75.9,105z"/>
<path class="st30" d="M94,130.9c0.2-0.1,0.4-0.2,0.7-0.3c7-2.9,9.5-15.6,9.8-18.9c0.3-3.2-1.9-4.4-9-4.8c-0.2,2.4-0.5,5.6-0.7,9
	C94.5,120.5,94.2,125.7,94,130.9z"/>
<path class="st25" d="M93.7,153.2c-0.3-4.3-0.1-13.1,0.3-22.3c0.2-5.1,0.5-10.3,0.8-14.9c0.2-3.4,0.5-6.6,0.7-9c0,0,0,0-0.1,0
	c-2.1,4.7-5.6,8.3-9.1,8.3c-4,0-7.1-3-9.1-6.9c0.5,4.5,0.9,11.9,1.3,22.8c0.2,5.9,0.4,12.9,0.4,21c0.1,6.6-1.2,11.8-1.2,11.8
	l0.1,0.1c0.3,0.2,0.6,0.4,0.9,0.5c3,1.8,5.8,3.2,8.6,3c3-0.2,5.5-1.8,8.4-3.6C95.4,163.6,94.3,161.7,93.7,153.2z"/>
<path class="st31" d="M77.3,108.4c-0.6-1.1-1-2.2-1.4-3.3c0.2,0,0.3,0,0.3,0s0-0.1,0.1-0.3c0.2,0.6,0.5,1.2,0.8,1.8
	C77.1,107.1,77.2,107.7,77.3,108.4z"/>
<path class="st32" d="M95.4,106.9c-2.1,4.7-5.6,8.3-9.1,8.3c-4,0-7.1-3-9.1-6.9c-0.1-0.7-0.1-1.3-0.2-1.8c2,4.1,5.2,7.3,9.3,7.3
	c3.2,0,6.3-3,8.4-6.9l0,0C95,106.9,95.2,106.9,95.4,106.9z"/>
<path class="st33" d="M94.7,106.9c-2.1,4-5.2,6.9-8.4,6.9c-4.1,0-7.3-3.2-9.3-7.3c-0.3-0.6-0.6-1.2-0.8-1.8c0.1-0.2,0.2-0.5,0.4-0.8
	c0.2-0.4,0.4-0.8,0.7-1.3c0.9-1.6,2.3-3.1,3.4-1.9c0.6,0.6,1.3,1.2,2.2,1.9C85.4,104.5,89.2,106.6,94.7,106.9z"/>
<rect id="XMLID_565_" x="77" y="118.6" class="st17" width="17.7" height="26.8"/>
<rect id="XMLID_556_" x="77" y="119.4" class="st14" width="17.7" height="26.8"/>
<polygon id="XMLID_550_" class="st26" points="94.8,126.3 89.4,126.1 82.5,130.9 83.8,134.9 98.3,134.9 99.8,128.1 94.8,123.1 "/>
<polygon id="XMLID_549_" class="st26" points="73.4,133.5 77,138.8 77,129 "/>
<path id="XMLID_503_" class="st12" d="M98.1,137.6c0,0,5.3,10,11.8,12.1c4.2,1.4,6.4,0.9,6.4,0.9s-3.3,1.9-6.4,1.4
	C100.7,150.6,98.1,137.6,98.1,137.6L98.1,137.6z"/>
<path id="XMLID_471_" class="st12" d="M77,140.1c0,0-5.4,7.5-11.9,9.7c-4.2,1.4-6.4,0.9-6.4,0.9s3.3,1.9,6.4,1.4
	C74.2,150.6,77,140.1,77,140.1L77,140.1z"/>
<rect id="XMLID_457_" x="271.6" y="69.8" class="st3" width="35.5" height="4.4"/>
<rect id="XMLID_450_" x="271.6" y="77.5" class="st3" width="26.7" height="4.4"/>
<rect id="XMLID_417_" x="342.4" y="72.9" class="st3" width="27.3" height="4.4"/>
<rect id="XMLID_414_" x="342.4" y="80" class="st3" width="14.5" height="4.4"/>
<polygon id="XMLID_335_" class="st14" points="47.6,176.4 38.7,176.4 36.5,158.6 49,158.6 "/>
<polygon id="XMLID_332_" class="st23" points="46.8,158.6 45.4,176.4 47.6,176.4 49,158.6 "/>
<path id="XMLID_307_" class="st34" d="M39.3,159.4H37c-2.3,0-4.1,1.9-4.1,4.1l0,0c0,0.8,0.2,1.6,0.7,2.2l6.2,9.6"/>
<line id="XMLID_306_" class="st13" x1="42.7" y1="156.4" x2="42.7" y2="146.5"/>
<line id="XMLID_301_" class="st13" x1="40.1" y1="156.4" x2="40.1" y2="151.5"/>
<line id="XMLID_292_" class="st13" x1="45.3" y1="155" x2="45.3" y2="148.7"/>
<line id="XMLID_138_" class="st35" x1="75.9" y1="120" x2="75.9" y2="126.4"/>
<line id="XMLID_114_" class="st35" x1="96" y1="120" x2="96" y2="126.4"/>
<line id="XMLID_113_" class="st36" x1="477.3" y1="163.8" x2="477.3" y2="190.8"/>
<line id="XMLID_111_" class="st36" x1="480.5" y1="179.3" x2="480.5" y2="190.8"/>
<path id="XMLID_110_" class="st37" d="M332.3,85.4c0,0,0.7-1.1,2-1.5"/>
<circle id="XMLID_109_" class="st38" cx="183.1" cy="85.9" r="4.2"/>
<path class="st39" d="M453.8,119.9c-5.4-21.2-15-25.1-15-25.1l-61.4,37.6v24.2h72C457,147,457.5,134.6,453.8,119.9z"/>
<path id="XMLID_1429_" class="st40" d="M457.2,135.4h-2.4c-9.4,0-17,7.6-17,17v30.1c0,9.4,7.6,17,17,17h2.4c9.4,0,17-7.6,17-17
	v-30.1C474.2,143.1,466.6,135.4,457.2,135.4z"/>
<path id="XMLID_1403_" class="st9" d="M452.8,135.4h-2.4c-9.4,0-17,7.6-17,17v30.1c0,9.4,7.6,17,17,17h2.4c9.4,0,17-7.6,17-17v-30.1
	C469.8,143.1,462.2,135.4,452.8,135.4z"/>
<path id="XMLID_1400_" class="st9" d="M453.2,225.9h-6v-28.6h8.9V223C456,224.6,454.8,225.9,453.2,225.9z"/>
<rect id="XMLID_1395_" x="446.2" y="208.1" class="st40" width="10.8" height="1.4"/>
<rect id="XMLID_1392_" x="446.2" y="210.9" class="st40" width="10.8" height="1.4"/>
<rect id="XMLID_1381_" x="446.2" y="213.8" class="st40" width="10.8" height="1.4"/>
<rect id="XMLID_1378_" x="446.2" y="216.6" class="st40" width="10.8" height="1.4"/>
<rect id="XMLID_1377_" x="446.2" y="219.5" class="st40" width="10.8" height="1.4"/>
<rect id="XMLID_1376_" x="446.2" y="222.3" class="st40" width="10.8" height="1.4"/>
<rect id="XMLID_1373_" x="446.2" y="225.2" class="st40" width="10.8" height="1.4"/>
<rect id="XMLID_1370_" x="446.2" y="228.1" class="st40" width="10.8" height="1.4"/>
<rect id="XMLID_1369_" x="446.2" y="205.3" class="st40" width="10.8" height="1.4"/>
<rect id="XMLID_1366_" x="446.2" y="202.4" class="st40" width="10.8" height="1.4"/>
<rect id="XMLID_1363_" x="446.2" y="199.6" class="st40" width="10.8" height="1.4"/>
<rect id="XMLID_1309_" x="354.2" y="132.5" class="st41" width="23.2" height="44.4"/>
<rect id="XMLID_1296_" x="352.5" y="132.5" class="st17" width="23.2" height="44.4"/>
<polygon id="XMLID_1293_" class="st42" points="418.3,211.9 415.5,211.8 421.2,208.9 421.2,210.7 "/>
<path id="XMLID_1292_" class="st14" d="M424.1,205.8c0,0-5.1,9.3-18.2,7.5c-14.3-2-91.6-20-105.4-42c0-8.9,3.4-13.4,3.4-13.4
	l88,17.8c10.8,1.9,20.6-3.3,25.4,2.9C423.4,186.7,424.1,205.8,424.1,205.8z"/>
<path id="XMLID_1291_" class="st12" d="M422.7,206.6c0,0-5.7,9-18.7,6.5c-14.2-2.8-91.5-23-103.9-45.7c0.5-8.9,4.9-8,4.9-8
	l87.7,16.9c10.7,2.5,20.3-3.7,24.6,2.8C423.2,187.6,422.7,206.6,422.7,206.6z"/>
<path id="XMLID_1288_" class="st14" d="M423.8,205.8c0,0-5.1,9.3-18.2,7.5c-14.3-2-88-33.4-101.7-55.4c-3.7-14.1-3.7-14.1-3.7-14.1
	l91.5,31.9c10.8,1.9,20.6-3.3,25.4,2.9C423.2,186.7,423.8,205.8,423.8,205.8z"/>
<path id="XMLID_1271_" class="st42" d="M305.3,145.9c-5.1-16.4-3.9-23.3-3.8-26.5s-2.8-4.4-2.8-4.4c-5.2,12-5.6,19.7-5.6,19.7
	l1.7,10.4l-2.6-0.4l-1.4,11.9l13.4,2.1L305.3,145.9z"/>
<path id="XMLID_1260_" class="st9" d="M305.1,159.4c-0.3-17.2,2.9-23.4,3.9-26.5s-1.4-5-1.4-5c-8.4,10-11,17.3-11,17.3l-1.3,10.5
	l-2.4-1.1l-4.7,11l12.3,5.8L305.1,159.4z"/>
<path id="XMLID_1247_" class="st12" d="M401.6,178.9c2.7,3.3,14.5,14.2,15.9,32.6c0.7,0.5,0.7,0.5,0.7,0.5l1.8-0.8
	c0,0,0.2-4.7-2.6-14.3C414.7,187.3,401.6,178.9,401.6,178.9z"/>
<rect id="XMLID_1180_" x="415.5" y="228.4" class="st9" width="7.8" height="36.6"/>
<rect id="XMLID_1174_" x="413.8" y="238.6" class="st9" width="11.3" height="26.4"/>
<path id="XMLID_1065_" class="st9" d="M397.7,211.9H441c8.3,0,15,6.7,15,15v2.8h-70.6c-1.5,0-2.8-1.2-2.8-2.8l0,0
	C382.7,218.7,389.4,211.9,397.7,211.9z"/>
<path id="XMLID_1060_" class="st40" d="M456.1,225.9h-73.3v2.2c0,1.6,1.3,2.8,2.8,2.8h67.7c1.6,0,2.8-1.3,2.8-2.8L456.1,225.9
	L456.1,225.9z"/>
<rect id="XMLID_1000_" x="382.7" y="268.7" class="st9" width="6.2" height="7.9"/>
<circle id="XMLID_998_" class="st9" cx="382.6" cy="276.6" r="6.3"/>
<rect id="XMLID_983_" x="416.8" y="268.7" class="st9" width="6.2" height="7.9"/>
<circle id="XMLID_965_" class="st9" cx="416.7" cy="276.6" r="6.3"/>
<rect id="XMLID_945_" x="449.8" y="268.7" class="st9" width="6.2" height="7.9"/>
<circle id="XMLID_943_" class="st9" cx="456.1" cy="276.6" r="6.3"/>
<path id="XMLID_903_" class="st9" d="M447.5,259.7h-56.3c-4.7,0-8.5,3.8-8.5,8.5v2H456v-2C456.1,263.5,452.2,259.7,447.5,259.7z"/>
<path class="st21" d="M448.7,106c-0.8,0.3-1.8,0.4-2.8,0.2c-5.4-0.9-3.2-5.8-3.2-5.8s-2.5,1.2-4.2,0.6c-0.3,0.8-0.6,1.5-0.8,2.4
	c-0.2,1.1-0.4,3-0.3,5.2c-0.7,1.5-2.1,4.2-4.2,5.7c2,0.6,3.8,0.8,5,0.8c1,4.5,2.8,8.6,5.9,9.6c1.6,0.5,3.3,0.2,4.9-0.6l1.3,7.9
	c0,0,2.9,0.5,5.6,0.3c-0.3-3.9-1-8-2.1-12.4C452.3,114.1,450.5,109.5,448.7,106z"/>
<path class="st43" d="M441.2,96.4c-1.4-1.1-2.4-1.5-2.4-1.5l0,0c-1.5,1.2-2.3,2.6-2,4c0.2,1.2,0.8,1.9,1.6,2.1
	c1.7,0.6,4.2-0.6,4.2-0.6s-2.2,4.9,3.2,5.8c1.1,0.2,2,0.1,2.8-0.2C445.9,100.8,443.1,97.9,441.2,96.4z"/>
<line id="XMLID_265_" class="st44" x1="391.6" y1="152.2" x2="391.6" y2="144.4"/>
<line id="XMLID_263_" class="st44" x1="395.1" y1="158.1" x2="399.6" y2="145.9"/>
<line id="XMLID_169_" class="st44" x1="401.6" y1="156.1" x2="406.8" y2="150.1"/>
<path class="st18" d="M183.1,173.1l-0.6,3.3h-15.3c0,0-2.2,0-5.3,0h-18.6c-2.8,0-5.2-2.6-5.1-6.3c0.2-3.8,5.5-6.3,5.5-6.3l18.8,4.9
	c0-0.1,0.1-0.1,0.2-0.2l11-2.4l7.5,4.7L183.1,173.1z"/>
<path class="st45" d="M172.7,99.1c0,0.1,0,0.3,0,0.4c0,0.5-0.1,1.2-0.2,1.9c-0.2,2-0.5,4.8-0.7,7.9c-0.1,1.1-0.2,2.3-0.2,3.5
	c-0.4,7.1-0.4,15.7,1.1,23.4c-0.3-0.1-0.6-0.3-0.9-0.4c-3.2-1.2-5.6-2.4-7.5-3.5c1.1-1.2,1.6-2.6,1.6-2.6l0.8-8.7l0.2-2.7
	c3.5-4.5,4.5-12.7,4.8-16.3c0-0.1,0-0.3,0-0.4h-0.1c-2.3,0.7-5.9,1.4-11,1.4l-0.5-3.1l-0.4,3.1c-1.4,0-3-0.1-4.7-0.3
	c-0.5-0.1-1-0.1-1.5-0.2c0-0.9,0-1.8,0-2.7c0.1-1.1,0.2-2.2,0.4-3.2c0.4-2,1.1-3.8,2.3-4.9c1.1-1.1,2.7-1.8,5-1.7
	C169.5,90.5,173,94,172.7,99.1z"/>
<path id="XMLID_728_" class="st16" d="M173.8,104.6c0,0,4.8-2.1,4.1,3.2s-3.4,5.9-4.5,5.4C172.4,112.7,173.8,104.6,173.8,104.6z"/>
<rect id="XMLID_677_" x="160.6" y="105.3" class="st14" width="106.6" height="53.3"/>
<polygon id="XMLID_676_" class="st12" points="267.2,158.6 160.6,158.6 187.3,141.6 240.6,141.6 "/>
<polygon id="XMLID_671_" class="st17" points="267.2,105.3 160.6,105.3 187.3,122.4 240.6,122.4 "/>
<path id="XMLID_668_" class="st14" d="M222.8,176.4H205v-35.5c0-4.9,4-8.9,8.9-8.9l0,0c4.9,0,8.9,4,8.9,8.9L222.8,176.4L222.8,176.4
	z"/>
<path id="XMLID_664_" class="st17" d="M214.4,124.3h-1c-4.6,0-8.4,3.8-8.4,8.4l0,0c0,4.6,3.8,8.4,8.4,8.4h1c4.6,0,8.4-3.8,8.4-8.4
	l0,0C222.8,128,219,124.3,214.4,124.3z"/>
<path id="XMLID_658_" class="st17" d="M240.6,175.1h-53.3l8.2-2.5c5-1.6,11.6-2.4,18.5-2.4l0,0c6.9,0,13.5,0.9,18.5,2.4L240.6,175.1
	z"/>
<path class="st18" d="M459.3,115.4C459.3,115.5,459.3,115.5,459.3,115.4l-3.1-3.5c0,0,2.4-2.6,1.4-5.3c-1-2.7-4.8-1.3-4.8-1.3l1-4.9
	c0,0-1.7,4.4-5.1,5.6c1.8,3.5,3.7,8,5.1,13.9c1.1,4.3,1.8,8.5,2.1,12.4c2.4-0.1,4.6-0.7,4.1-2.5C459,126.2,459.3,119.7,459.3,115.4z
	"/>
<path class="st24" d="M463.8,101.1c-0.7-3.6-3.5-3.8-3.5-3.8s1.1-4.6-4.4-5.9c-5.4-1.3-13.3,0.4-17.1,3.4l0,0c0,0,0.9,0.4,2.4,1.5
	c1.9,1.5,4.7,4.4,7.5,9.7c3.5-1.2,5.1-5.6,5.1-5.6l-1,4.9c0,0,3.8-1.5,4.8,1.3c1,2.7-1.4,5.3-1.4,5.3l3.1,3.6c0,0,0,0,0-0.1
	C459.8,114.4,464.5,104.5,463.8,101.1z"/>
<polygon class="st46" points="382.2,96.1 382.2,113.2 408.9,113.2 417,108.2 417,96.1 "/>
<polygon class="st3" points="382.2,113.2 382.2,96.1 417,96.1 417,108.2 417.7,107.8 417.7,95.4 381.5,95.4 381.5,113.9 
	407.7,113.9 408.9,113.2 "/>
<polygon class="st47" points="417.7,107.8 417,108.2 417,113.2 408.9,113.2 407.7,113.9 417.7,113.9 "/>
<path class="st17" d="M468.4,139c-0.9-8.9-6.2-8.8-6.2-8.8l-2.8-5.2l-3.9,3l-5.1,4l-0.4-2.5l-4.3,4.4l-3,1.1c-3.2,1.2-6,3.3-8.1,6
	c-2.2,2.9-5.7,7.3-11.4,13.6c-11.2,12.5-27,17-27,17l3.5,5l1,1.4c0,0,20.4,16.6,17.8,34C469.6,190.2,469.2,147.9,468.4,139z"/>
<polygon id="XMLID_1189_" class="st41" points="403.7,174.9 403.7,176.5 395.1,176.5 388.9,174.9 "/>
<path class="st9" d="M456,137.5l4.1-5.2l-4,4.1C456,136.8,456,137.1,456,137.5z"/>
<path class="st45" d="M455.4,128l-5.1,4l-0.4-2.5l-4.3,4.4l-3,1.1c-3.2,1.2-6,3.3-8.1,6c-2.2,2.9-5.7,7.3-11.4,13.6
	c-11.2,12.5-27,17-27,17l3.5,5c6.9-0.1,20.9-1.5,35.5-8.8C453,158.7,458,145.3,455.4,128z"/>
<polygon id="XMLID_1214_" class="st21" points="403.7,176.2 403.7,169.8 394.9,169.8 392.8,173.2 392.8,175.4 "/>
<path id="XMLID_1197_" class="st9" d="M403.7,176.5c0,0,46.3,12,64.7-24.5c-11.2,27.3-40.8,35.3-58.8,29.8l-14.5-5.3H403.7
	L403.7,176.5z"/>
<path id="XMLID_1193_" class="st48" d="M412,170c0,0,18.7-12.1,24.4-26.5c-17.3,23.7-29.6,26.5-29.6,26.5H412z"/>
<path class="st48" d="M450.9,133.4l-0.5,4.1l3,3.4l2.7-3.4c0-0.4,0-0.7,0-1.1l-2.2,2.3L450.9,133.4z"/>
</svg>
