<?xml version="1.0" encoding="utf-8"?>
<!-- Generator: Adobe Illustrator 16.0.0, SVG Export Plug-In . SVG Version: 6.00 Build 0)  -->
<!DOCTYPE svg PUBLIC "-//W3C//DTD SVG 1.1//EN" "http://www.w3.org/Graphics/SVG/1.1/DTD/svg11.dtd">
<svg version="1.1" id="Layer_1" xmlns="http://www.w3.org/2000/svg" xmlns:xlink="http://www.w3.org/1999/xlink" x="0px" y="0px"
	 width="1000px" height="1000px" viewBox="270.5 44 1000 1000" enable-background="new 270.5 44 1000 1000" xml:space="preserve">
<path fill="#FFFFFF" d="M1168.669,531.938v10.688h-0.562v-10.688H1168.669z"/>
<path fill="#FFFFFF" d="M1167.549,542.626h0.563c-16.876,1.125-39.378,1.125-56.254,0H1167.549z"/>
<path fill="#FFFFFF" d="M1167.549,531.938v10.688h-54.566v-10.688c7.313-0.562,16.876,1.126,22.502-0.562v-15.188
	c-2.25-1.125-11.251-2.25-11.819,0.562c-0.562,3.938-2.245,6.188-2.245,10.688c-4.501,0.562-6.194-1.688-10.689-1.688
	c2.25-10.125,5.063-20.813,5.625-33.189h11.251c0,3.375-1.125,5.625-0.562,9.562c-3.381,3.375,5.057,2.251,7.87,2.251
	c1.693-3.938,0-11.251,0.568-16.877h11.813c0.568,5.626-1.125,12.938,0.568,16.877h16.308v10.688
	c-5.625,0.563-12.938-1.125-16.875,0.563c0.568,5.062-1.125,12.375,0.568,16.312H1167.549z"/>
<path fill="#FFFFFF" d="M1165.299,576.946c1.125,2.245,1.125,10.12,0,11.813V576.946z"/>
<path fill="#FFFFFF" d="M1164.736,549.377c3.376,5.062,1.688,18.563,0.563,24.757
	C1164.736,566.253,1166.424,556.689,1164.736,549.377z"/>
<path fill="#FFFFFF" d="M1165.299,576.946v11.813c-0.563,5.062-3.938,7.876-9,9.001h-31.508c-5.625-0.562-8.438-3.375-9-9.001
	v-39.377h48.378c1.688,6.75,0.568,16.876,0.568,24.757C1165.299,575.253,1165.299,576.379,1165.299,576.946z M1152.36,565.128
	c5.058-8.438-19.126-3.938-24.189-3.938v17.438c0,2.25-0.568,5.062,0.562,6.193c0,0.568,0.563,0.568,0.563,0.568v0.562h1.693
	c4.501,1.688,13.496,1.688,17.996,0h1.694v-1.125l0.557-0.574v-0.562C1153.486,579.191,1151.792,571.321,1152.36,565.128
	L1152.36,565.128z"/>
<path fill="#FFFFFF" d="M1128.171,560.628c5.058,0,29.247-4.501,24.189,3.938c1.688-8.438-18.001-2.251-23.069-3.938H1128.171z"/>
<path fill="#FFFFFF" d="M1152.36,565.128c-0.568,6.193,1.125,14.632-0.568,19.121C1152.36,578.066,1150.673,569.628,1152.36,565.128
	z M1150.673,585.941c0-0.562,0-0.562,0.562-0.562L1150.673,585.941z"/>
<path fill="#FFFFFF" d="M1150.673,585.941v1.119h-1.694C1150.111,586.504,1150.673,585.941,1150.673,585.941z"/>
<path fill="#FFFFFF" d="M1131.546,586.504h18.001C1145.048,588.197,1136.047,588.197,1131.546,586.504z"/>
<path fill="#FFFFFF" d="M1131.546,586.504h-1.687v-0.562C1130.422,585.941,1130.984,586.504,1131.546,586.504z"/>
<path fill="#FFFFFF" d="M1129.291,584.816c0.568,0,0.568,0.568,0.568,0.568C1129.291,585.385,1129.291,585.385,1129.291,584.816z"/>
<path fill="#FFFFFF" d="M1128.171,560.628h0.562c-0.562,5.625,1.125,13.506-0.562,17.438V560.628z"/>
<path fill="#FFFFFF" d="M1116.358,549.377v39.377C1114.671,578.066,1114.671,560.628,1116.358,549.377z"/>
<path fill="#FFFFFF" d="M1112.983,531.938v10.688h-0.568v-10.688H1112.983z"/>
<path fill="#FFFFFF" d="M1109.045,514.499c-1.125,24.752,2.25,54.01-1.688,76.512c1.688-23.633,0.562-51.197,0.562-76.512
	c-5.057-0.562-12.376,1.126-16.308-0.562C1097.794,513.937,1104.545,512.249,1109.045,514.499z"/>
<path fill="#FFFFFF" d="M1051.667,490.31h56.253c-0.562,3.376,1.125,9.001-0.562,11.251c-4.5,1.125-17.444-2.25-15.188,2.251v9.562
	c3.938,1.688,11.251,0,16.313,0.562c-0.568,25.314,1.12,52.316-0.568,76.505c-1.125,3.938-3.938,6.194-7.869,7.313h-37.134
	c-2.812-0.562-6.188-0.562-7.869-2.25c-1.125-1.683-1.125-4.494-2.25-5.625v-58.505c0.562-5.625-1.125-12.938,0.562-16.876h16.313
	c1.688-2.812,0.563-9.001,0.563-12.938h-17.439C1051.666,497.623,1051.666,493.686,1051.667,490.31L1051.667,490.31z
	 M1096.669,555.002h-5.625c-10.683-1.688-9.563-18.563-7.87-29.814h-3.938c-1.688,1.125-0.568,5.626-0.568,7.876
	c-1.12,9.562-3.376,17.438-7.313,24.188c-1.688-1.125-3.375-2.812-6.188-3.375c-2.812-2.812-1.125,5.625-1.688,7.875
	c9.558,1.688,22.501,0,33.185,0.562C1097.794,562.314,1096.669,557.814,1096.669,555.002z M1096.106,547.126
	c1.125-5.625,1.125-16.312,0-21.938c-1.687,0.562-5.062-1.125-3.938,1.688c0.562,5.625-1.125,14.063,0.562,18.564
	C1093.294,547.126,1094.419,547.689,1096.106,547.126L1096.106,547.126z M1096.106,583.691c1.125-1.119,1.125-8.438,0-9.558
	c-10.688,0.562-23.626-1.131-33.189,0.562c0,3.933-0.562,9.001,0.568,11.813h2.245c7.313,1.125,20.814,1.125,28.127,0
	C1096.669,587.63,1096.106,584.816,1096.106,583.691L1096.106,583.691z M1079.231,514.499h3.938
	c-0.568-2.812-1.125-6.188-0.568-10.688c2.813-2.251-1.688-2.813-3.938-2.251C1078.663,505.498,1077.543,511.687,1079.231,514.499z
	 M1068.542,535.876c1.688-3.938,2.25-13.501-5.625-10.688c1.125,7.876-2.245,19.688,1.688,24.752c0.568,0,1.125-0.562,0.568-1.688
	C1067.98,546.002,1068.542,540.938,1068.542,535.876z"/>
<path fill="#FFFFFF" d="M1091.044,555.002h5.625c-0.563,2.25,1.125,6.75-0.563,7.876v-0.563
	C1097.232,557.252,1094.982,555.564,1091.044,555.002z M1096.106,525.75c1.125,5.625,1.125,16.313,0,21.939V525.75z
	 M1096.106,573.565c1.125,1.126,1.125,8.438,0,9.563v-9V573.565z"/>
<path fill="#FFFFFF" d="M1096.106,573.565v0.568h-33.189C1072.48,572.441,1085.419,574.134,1096.106,573.565z M1096.106,562.314
	v0.563c-10.688-0.563-23.626,1.125-33.189-0.563H1096.106z"/>
<path fill="#FFFFFF" d="M1066.292,586.504h28.127C1087.101,588.197,1073.605,588.197,1066.292,586.504z M1092.169,526.875
	c1.688,4.5,0,12.376,0.562,18.564C1091.044,540.938,1092.726,533.063,1092.169,526.875z M1062.917,525.75
	c7.875-3.375,7.313,6.75,5.625,10.688c-0.562-3.938,2.25-11.813-3.938-9.563c-1.12,5.062-2.245,21.377,0.568,22.502
	c0,1.125,0,1.688-0.568,1.688C1061.229,545.439,1064.042,533.626,1062.917,525.75z M1064.599,554.439
	c-1.688,1.125-0.562,5.625-0.562,7.875h-0.562C1063.479,560.064,1061.786,551.627,1064.599,554.439z"/>
<path fill="#FFFFFF" d="M1051.667,531.938v57.937C1050.536,572.441,1050.536,549.377,1051.667,531.938z"/>
<path fill="#FFFFFF" d="M1043.229,567.94c-1.125,14.063-1.125,28.127-14.626,29.814h-14.632c-2.813-1.119-5.625-1.688-9-2.25
	c-1.125-3.933-4.501-5.625-3.938-11.251v-28.127c0-8.438,1.688-26.439-1.688-27.564c-2.25-0.562-2.813,0-2.25,3.375
	c-2.245,21.377-9.557,41.065-21.933,56.26c-5.063,6.745-10.126,12.933-16.314,5.058c-0.562-1.125-1.125-2.813-3.375-2.244
	c-1.688,1.119-0.568,5.625-0.568,7.869h-11.813v-54.004h-1.688c-2.25,3.376-4.5,6.188-6.193,9.563
	c-1.688-0.562-2.245-2.812-3.933-3.375c-1.125-2.812-4.506-3.938-5.625-6.188v-0.562c12.939-15.188,21.377-34.877,28.127-56.254
	l11.813,5.063c-2.25,9.562-5.625,18.001-9,26.439c-1.693,2.812,0,9-0.568,12.938v45.004c-1.688,2.25,0,8.438-0.562,11.813
	c4.5-0.563,6.188-3.933,7.869-7.313c11.251-12.938,20.257-28.689,20.814-52.316c-1.125-1.688-5.625-0.562-7.869-0.562h-15.188
	c0-1.688,1.687-3.375,0-5.062c1.687-0.562,0.562-4.5,0.562-6.188h23.069v-30.378h11.813c1.688,8.438,0.562,20.252,0.562,29.814
	v0.563c14.063,0.562,29.82-1.126,42.759,0.562v1.688c-1.688,1.125-0.568,6.188-0.568,9h-25.877c-1.125,16.314-1.125,38.247,0,54.566
	c0.562,5.626,8.438,3.938,12.938,3.375c3.381-5.057,2.25-14.625,3.938-21.934C1035.915,565.128,1038.728,567.378,1043.229,567.94
	L1043.229,567.94z"/>
<path fill="#FFFFFF" d="M1013.971,529.688v54.004c-1.12-16.313-1.12-38.252,0-54.566V529.688L1013.971,529.688z"/>
<path fill="#FFFFFF" d="M999.35,528.562c3.375,0.562,1.688,18.563,1.688,27.564v28.127c-2.25-16.313,0.562-38.252-1.688-54.566
	c-2.812-1.125-0.562,2.812-2.25,2.25C996.538,528.562,997.662,528,999.35,528.562z"/>
<path fill="#FFFFFF" d="M963.342,582.004c-2.245,3.381-3.375,6.75-7.87,7.313c0.562-3.933-1.125-9.558,0.562-11.813v10.688
	C958.285,588.197,960.529,582.572,963.342,582.004L963.342,582.004z M959.41,593.255c-3.381-3.938-3.381,1.688-3.381,5.625h-0.563
	c0.563-2.244-1.125-6.75,0.563-7.869C958.285,590.441,958.847,592.13,959.41,593.255z"/>
<path fill="#FFFFFF" d="M956.035,531.938h0.568c-0.568,7.313,1.119,16.877-0.568,23.064V531.938z"/>
<path fill="#FFFFFF" d="M943.096,544.876v54.004h-0.562c-0.568-17.444,1.119-37.689-0.568-54.004H943.096z"/>
<path fill="#FFFFFF" d="M925.658,544.876c1.12,2.813,4.5,3.938,5.625,6.188C929.59,549.377,923.964,547.126,925.658,544.876z"/>
<path fill="#FFFFFF" d="M905.406,501.561c1.125,17.439,1.125,40.503,0,57.942V501.561z"/>
<path fill="#FFFFFF" d="M873.904,500.436c-0.568-19.126,32.627-19.126,31.501,0.562v57.941c-1.687,27.564-19.12,39.94-45.565,42.753
	H846.34c-27.564-2.812-44.44-15.751-45.566-44.44v-41.627v-5.626v-7.876c0-0.562,0.563-0.562,0.563-0.562
	c-2.25-19.126,31.502-20.813,30.377-1.688c0.562,19.689-1.125,41.065,0.562,59.63c-0.562,23.626,41.065,24.188,41.065,0.562
	C875.029,542.063,873.336,520.125,873.904,500.436L873.904,500.436z"/>
<path fill="#FFFFFF" d="M873.904,500.436c-0.568,19.689,1.125,41.065-0.568,59.629C873.904,540.376,872.216,519,873.904,500.436
	L873.904,500.436z"/>
<path fill="#FFFFFF" d="M831.714,499.873c1.688,18.002,0,39.94,0.562,59.63C830.588,540.938,832.276,519.562,831.714,499.873z"/>
<path fill="#FFFFFF" d="M800.206,515.625v41.627C798.524,545.439,798.524,528,800.206,515.625L800.206,515.625z"/>
<path fill="#FFFFFF" d="M798.524,576.946c6.193,11.813-1.125,28.689-18.564,24.746c-8.438-1.688-16.313-13.495-24.189-20.813
	c-8.438-7.876-17.444-14.626-24.189-20.814c-4.506-6.75-3.381,4.501-3.381,11.251v19.121c-1.125,6.75-4.5,10.683-11.251,11.818
	h-9.563c-6.745-0.567-10.125-5.625-11.251-11.818v-89.443c0-16.877,32.065-16.877,32.065,0v31.502
	c5.063-2.812,8.438-7.313,11.819-11.251c3.375-2.812,6.188-5.625,9-9c5.625-4.501,10.688-10.127,15.188-15.189
	c6.188-12.938,30.939-12.376,33.184,3.938c2.813,22.501-28.126,30.377-33.752,43.315
	C772.079,556.127,791.768,564.003,798.524,576.946L798.524,576.946z"/>
<path fill="#FFFFFF" d="M731.582,560.064c-5.625-5.062,0,24.185-3.381,30.377v-19.12
	C728.769,564.565,727.076,553.314,731.582,560.064L731.582,560.064z M696.137,501.561v89.45
	C695.017,561.204,695.017,531.366,696.137,501.561z M692.204,500.436c1.12,18.001,1.12,41.628,0,59.629V500.436z"/>
<path fill="#FFFFFF" d="M661.265,500.436c-2.25-20.251,33.184-18.563,31.501,0v59.629c-2.812,26.996-19.688,39.378-47.253,41.061
	l-10.688,0.005c-28.127-1.682-45.571-14.626-46.691-43.315c-0.568-2.812,1.12-7.875-0.568-9.562h-0.562
	c-3.938,33.184-20.813,52.315-52.316,54.566c-47.81,3.938-76.5-45.566-53.998-90.007c8.438-16.313,25.882-28.127,46.69-28.689
	c34.878-1.688,55.129,23.064,60.192,57.941c1.688-11.25,0-26.438,0.568-39.378c-2.25-21.376,33.752-21.376,31.502,0
	c0.562,19.689-1.125,41.628,0.562,60.192c2.25,19.688,40.502,19.126,39.946-2.25C661.827,542.063,660.703,520.125,661.265,500.436
	L661.265,500.436z M553.82,548.814c1.125-1.688,1.125-9.001,0-10.688c-0.562-23.627-25.876-33.752-41.065-20.251
	c-18.001,16.876-9.563,59.066,17.438,57.936C544.819,575.253,552.132,564.003,553.82,548.814z"/>
<path fill="#FFFFFF" d="M661.265,500.436c-0.562,19.689,1.119,41.065-0.562,59.629C660.703,540.376,659.015,519,661.265,500.436
	L661.265,500.436z"/>
<path fill="#FFFFFF" d="M619.075,502.123c1.687,18.563,0,40.503,0.562,60.191C617.949,543.751,619.637,521.812,619.075,502.123z"/>
<path fill="#FFFFFF" d="M587.572,502.123c-0.562,12.938,1.125,28.127-0.562,39.378C587.572,528.562,585.884,513.937,587.572,502.123
	L587.572,502.123z M587.01,548.252c1.687,1.688,0,6.75,0.562,9.562C585.884,556.127,587.572,551.064,587.01,548.252z"/>
<path fill="#FFFFFF" d="M553.82,538.126c1.125,1.688,1.125,9,0,10.688V538.126z"/>
<path fill="#FFFFFF" d="M482.372,490.31c2.812,13.502-10.126,30.94-15.183,42.754c-12.944,28.688-23.07,52.321-35.445,79.88
	c-6.188,13.495-10.683,28.127-21.934,35.44c-45.571,2.812-11.819-47.254-5.063-65.255c-10.125-19.688-24.189-42.19-36.002-63.566
	c-5.625-9.563-19.688-28.127-5.625-38.815c5.625-3.938,16.876-4.5,21.934,0c16.313,12.376,25.314,46.128,38.815,61.316
	c5.058-8.438,9.563-19.688,14.626-31.502c4.5-10.126,8.438-24.752,15.188-29.814C463.813,473.434,480.127,479.622,482.372,490.31z"
	/>
</svg>
