<?xml version="1.0" encoding="utf-8"?>
<!-- Generator: Adobe Illustrator 16.0.0, SVG Export Plug-In . SVG Version: 6.00 Build 0)  -->
<!DOCTYPE svg PUBLIC "-//W3C//DTD SVG 1.1//EN" "http://www.w3.org/Graphics/SVG/1.1/DTD/svg11.dtd">
<svg version="1.1" id="Layer_1" xmlns="http://www.w3.org/2000/svg" xmlns:xlink="http://www.w3.org/1999/xlink" x="0px" y="0px"
	 width="30px" height="30px" viewBox="0 0 30 30" enable-background="new 0 0 30 30" xml:space="preserve">
<path id="XMLID_2112_" fill="#091440" d="M14.999,6.027c-5.078,0-9.199,4.119-9.199,9.201c0,4.064,2.637,7.512,6.293,8.729
	c0.461,0.084,0.629-0.199,0.629-0.443c0-0.219-0.01-0.797-0.014-1.563c-2.559,0.557-3.1-1.232-3.1-1.232
	C9.19,19.654,8.587,19.37,8.587,19.37c-0.834-0.57,0.064-0.56,0.064-0.56c0.924,0.064,1.408,0.949,1.408,0.949
	c0.82,1.404,2.154,1,2.678,0.764c0.084-0.594,0.322-1,0.584-1.229c-2.043-0.231-4.189-1.021-4.189-4.547
	c0-1.003,0.357-1.825,0.945-2.468c-0.094-0.232-0.41-1.168,0.09-2.435c0,0,0.773-0.247,2.531,0.943
	c0.734-0.204,1.521-0.307,2.303-0.31c0.781,0.003,1.567,0.105,2.304,0.31c1.758-1.19,2.526-0.943,2.526-0.943
	c0.502,1.267,0.188,2.202,0.092,2.435c0.591,0.644,0.945,1.465,0.945,2.468c0,3.535-2.15,4.313-4.199,4.541
	c0.33,0.282,0.625,0.846,0.625,1.703c0,1.229-0.012,2.223-0.012,2.522c0,0.246,0.166,0.533,0.633,0.443
	c3.651-1.221,6.285-4.666,6.285-8.729C24.2,10.146,20.081,6.027,14.999,6.027z"/>
</svg>
