<?xml version="1.0" encoding="utf-8"?>
<!-- Generator: Adobe Illustrator 16.0.0, SVG Export Plug-In . SVG Version: 6.00 Build 0)  -->
<!DOCTYPE svg PUBLIC "-//W3C//DTD SVG 1.1//EN" "http://www.w3.org/Graphics/SVG/1.1/DTD/svg11.dtd">
<svg version="1.1" id="Layer_1" xmlns="http://www.w3.org/2000/svg" xmlns:xlink="http://www.w3.org/1999/xlink" x="0px" y="0px"
	 width="30px" height="30px" viewBox="0 0 30 30" enable-background="new 0 0 30 30" xml:space="preserve">
<g id="XMLID_2141_">
	<g id="XMLID_2142_">
		<path id="XMLID_2143_" fill="#091440" d="M14.813,20.195c0.217,0.771,0.592,1.715,0.666,2.201
			c0.244,1.604-2.027,2.371-2.919,1.076c-0.426-0.619-0.445-1.191-0.769-2.201c-1.138,0.313-1.753,0.774-2.611,0.664
			c-1.293-0.166-1.629-1.951-0.717-2.765c0.574-0.512,1.509-0.5,2.305-0.872c0,0-0.749-2.357-1.178-3.482
			c-0.855,0.256-2.107,0.791-2.662,0.666c-0.676-0.262-1.139-0.807-1.127-1.536c0.024-1.486,1.713-1.595,2.816-2.048
			c-0.273-0.865-0.725-1.463-0.666-2.406c0.076-1.213,1.515-1.915,2.561-1.178c0.494,0.348,0.814,1.617,1.126,2.56l3.431-1.126
			c-0.393-1.256-1.144-2.491-0.205-3.431c0.703-0.703,1.945-0.525,2.459,0.204c0.472,0.672,0.521,1.49,0.768,2.202
			c0.929-0.317,2.099-0.908,2.972-0.612c0.719,0.244,1.063,1.192,0.869,1.79c-0.361,1.143-1.658,1.294-2.816,1.689l1.127,3.481
			c0.962-0.314,1.449-0.721,2.355-0.715c0.922,0.004,1.502,0.67,1.586,1.331c0.221,1.713-1.715,1.867-2.918,2.305
			c0.371,1.197,0.686,1.453,0.666,2.406c-0.033,1.629-2.091,2.006-2.971,0.769c-0.318-0.447-0.398-1.168-0.717-2.101
			C18.243,19.068,14.866,20.244,14.813,20.195z M17.219,16.1l-1.229-3.482l-3.328,1.177l1.126,3.431L17.219,16.1z"/>
	</g>
</g>
</svg>
