<?xml version="1.0" encoding="utf-8"?>
<!-- Generator: Adobe Illustrator 16.0.0, SVG Export Plug-In . SVG Version: 6.00 Build 0)  -->
<!DOCTYPE svg PUBLIC "-//W3C//DTD SVG 1.1//EN" "http://www.w3.org/Graphics/SVG/1.1/DTD/svg11.dtd">
<svg version="1.1" id="Layer_1" xmlns="http://www.w3.org/2000/svg" xmlns:xlink="http://www.w3.org/1999/xlink" x="0px" y="0px"
	 width="2500px" height="2500px" viewBox="0 0 2500 2500" enable-background="new 0 0 2500 2500" xml:space="preserve">
<g>
	<path fill="#FFFFFF" d="M1673.358,932.333c-201.775,10.542-377.233,71.709-519.684,209.9
		c-143.925,139.616-209.625,310.7-191.667,522.783c-78.866-9.767-150.699-20.517-222.941-26.6
		c-24.95-2.101-54.559,0.883-75.691,12.808c-70.15,39.584-137.4,84.275-217.108,134.101c14.625-66.15,24.092-124.075,40.85-179.792
		c12.325-40.95,6.617-63.741-31.108-90.408C213.792,1344.117,111.691,1088.191,188.1,824.708
		c70.691-243.75,244.292-391.574,480.175-468.633c321.958-105.167,683.783,2.108,879.558,257.725
		C1618.541,706.134,1661.9,809.767,1673.358,932.333L1673.358,932.333z M744.717,850.233c1.858-48.191-39.9-91.608-89.5-93.059
		c-50.783-1.491-92.55,37.316-94.033,87.358c-1.5,50.717,37.291,91.358,88.441,92.658
		C700.333,938.475,742.842,899.616,744.717,850.233L744.717,850.233z M1229.225,757.142c-49.783,0.917-91.85,43.316-90.967,91.7
		c0.908,50.149,42.176,89.383,93.367,88.767c51.325-0.617,90.25-40.267,89.767-91.476
		C1320.967,795.867,1279.883,756.217,1229.225,757.142z"/>
	<path fill="#FFFFFF" d="M2126.675,2190.25c-63.892-28.45-122.5-71.134-184.899-77.65c-62.159-6.491-127.5,29.367-192.534,36.017
		c-198.091,20.267-375.558-34.941-521.892-170.267c-278.308-257.416-238.541-652.116,83.45-863.066
		c286.175-187.483,705.866-124.983,907.634,135.158c176.074,227,155.383,528.333-59.567,719.033
		c-62.2,55.191-84.583,100.608-44.675,173.367C2121.559,2156.275,2122.399,2173.283,2126.675,2190.25L2126.675,2190.25z
		 M1399.392,1486.092c40.675,0.041,74.167-31.792,75.708-71.967c1.625-42.533-32.583-78.208-75.175-78.384
		c-42.166-0.191-77.491,35.983-76.024,77.884C1325.283,1453.658,1359.008,1486.041,1399.392,1486.092L1399.392,1486.092z
		 M1868.233,1335.908c-39.467-0.275-73,32.033-74.608,71.908c-1.708,42.642,31.434,77.658,73.633,77.767
		c40.817,0.134,73.067-30.733,74.551-71.35C1943.392,1371.491,1910.233,1336.2,1868.233,1335.908z"/>
</g>
</svg>
