<?xml version="1.0" encoding="utf-8"?>
<!-- Generator: Adobe Illustrator 16.0.0, SVG Export Plug-In . SVG Version: 6.00 Build 0)  -->
<!DOCTYPE svg PUBLIC "-//W3C//DTD SVG 1.1//EN" "http://www.w3.org/Graphics/SVG/1.1/DTD/svg11.dtd">
<svg version="1.1" id="Layer_1" xmlns="http://www.w3.org/2000/svg" xmlns:xlink="http://www.w3.org/1999/xlink" x="0px" y="0px"
	 width="32px" height="64px" viewBox="804.25 809.565 32 64" enable-background="new 804.25 809.565 32 64" xml:space="preserve">
<g>
	<path fill="#FFFFFF" d="M831.868,828.457c0.505,1.042,0.876,2.226,0.784,3.627c-0.037,0.575-0.184,1.203-0.466,1.59
		c-0.143,0.195-0.352,0.378-0.573,0.382c-0.371,0.006-0.636-0.436-0.827-0.721c-0.226-0.338-0.397-0.666-0.573-0.997
		c-0.229,0.235-0.308,0.578-0.424,0.87c-0.362,0.913-0.866,1.708-1.505,2.354c0.598,0.347,1.156,0.588,1.675,0.997
		c0.319,0.252,0.742,0.614,0.636,1.209c-0.07,0.397-0.413,0.732-0.658,0.891c-1.709,1.103-5.278,0.941-7.38,0.255
		c-0.409-0.134-0.819-0.349-1.188-0.403c-0.141-0.021-0.382-0.011-0.53-0.021c-0.214-0.015-0.453-0.056-0.551-0.042
		c-0.126,0.017-0.235,0.147-0.382,0.233c-0.927,0.547-1.832,0.858-3.224,0.954c-1.545,0.108-3.105-0.021-4.305-0.403
		c-0.636-0.203-1.488-0.618-1.569-1.357c-0.04-0.358,0.058-0.896,0.191-1.145c0.329-0.624,1.072-0.825,1.993-0.912
		c-0.034-0.159-0.255-0.261-0.403-0.382c-0.874-0.713-1.559-1.675-1.993-2.863c-0.07-0.191-0.096-0.406-0.212-0.594
		c-0.205,0.15-0.229,0.426-0.36,0.636c-0.268,0.425-0.695,0.872-1.125,1.082c-0.158,0.077-0.393,0.17-0.572,0.127
		c-0.349-0.082-0.428-0.723-0.467-1.166c-0.145-1.646,0.334-2.976,0.87-4.008c0.685-1.32,1.664-2.177,2.651-2.991
		c-0.276-0.762,0.052-1.615,0.403-2.079c0.013-0.348,0.047-0.669,0.169-0.975c0.07-0.169,0.223-0.278,0.254-0.424
		c0.034-0.153-0.014-0.323,0-0.509c0.157-2.064,1.428-3.93,2.567-5.068c0.676-0.676,1.276-1.156,2.226-1.591
		c0.861-0.393,1.956-0.621,3.14-0.743h1.547c3.793,0.359,6.205,2.043,7.339,5.069c0.174,0.465,0.301,0.938,0.424,1.442
		c0.122,0.499,0.106,1.109,0.275,1.633c0.103,0.317,0.366,0.6,0.509,0.934c0.29,0.675,0.386,1.628,0,2.29
		C830.807,826.439,831.373,827.438,831.868,828.457z M830.277,837.704c0.18-0.975-0.984-0.782-1.739-0.827
		c0.091-0.319,0.537-0.283,0.87-0.361c-0.355-0.421-0.87-0.675-1.421-0.7c-1.45,1.264-3.14,2.288-5.535,2.609
		c0.689,0.575,2.195,0.81,3.669,0.869c1.45,0.058,3.006-0.295,3.733-0.912C830.046,838.218,830.232,837.952,830.277,837.704z
		 M829.004,832.847c0.528-1.989-0.272-3.716-1.082-4.899c-2.396,1.627-6.266,2.892-9.947,1.929c0.021,0.394,0.061,0.827,0.064,1.294
		c0.002,0.464,0.093,0.985,0.021,1.378c-0.056,0.309-0.325,0.621-0.573,0.721c-0.367,0.149-0.936,0.143-1.4,0.107
		c-0.84-0.065-1.559-0.471-1.781-1.125c-0.084-0.248-0.067-0.564-0.085-0.87c-0.057-0.972,0.037-1.875,0.17-2.736
		c-0.411-0.288-0.843-0.543-1.293-0.764c-0.691,0.694-1.016,2.409-0.976,3.606c0.01,0.304,0.076,0.739,0.148,1.082
		c0.197,0.939,0.72,1.812,1.294,2.481c0.594,0.693,1.246,1.238,2.057,1.717c1.623,0.962,3.867,1.442,6.023,1.464
		c0.781,0.008,1.539-0.148,2.248-0.403c0.721-0.259,1.411-0.658,2.037-1.061c0.616-0.396,1.262-0.952,1.675-1.42
		C828.157,834.723,828.748,833.815,829.004,832.847L829.004,832.847z M825.823,824.639c0.173-0.08,0.844-0.369,0.827-0.594
		c-0.009-0.113-0.357-0.32-0.53-0.424c-1.801-1.076-4.492-1.448-7.147-1.061c-1.017,0.149-1.938,0.389-2.779,0.786
		c-0.266,0.125-1.022,0.505-0.997,0.784c0.01,0.109,0.181,0.241,0.275,0.297c0.413,0.242,1.082,0.385,1.549,0.487
		c-0.095-0.259-0.28-0.426-0.383-0.678c0.956,0.661,2.069,1.375,3.542,1.506c2.206,0.194,3.879-0.674,5.133-1.506
		c-0.119,0.301-0.54,0.439-0.615,0.7C825.186,824.93,825.467,824.803,825.823,824.639z M823.426,822.454
		c1.474-0.528,1.521-3.971,0.021-4.538c-0.134-0.051-0.401-0.054-0.487-0.042c-0.485,0.058-0.819,0.403-1.019,0.743
		c-0.667,1.135-0.439,3.479,0.827,3.859C823.006,822.547,823.271,822.51,823.426,822.454L823.426,822.454z M818.698,822.433
		c1.073,0.107,1.59-1.231,1.569-2.291c-0.022-1.092-0.541-2.24-1.421-2.248c-0.541-0.005-0.924,0.367-1.145,0.764
		C817.044,819.832,817.326,822.296,818.698,822.433z M815.897,839.421c1.444-0.072,2.938-0.282,3.479-1.082
		c-2.216-0.263-4.208-0.927-5.706-1.952c-0.189-0.129-0.502-0.41-0.657-0.445c-0.034-0.008-0.106,0.02-0.169,0.021
		c-0.51,0.008-0.858,0.207-1.252,0.446c-0.264,0.161-0.588,0.408-0.381,0.701c0.235-0.012,0.378-0.116,0.657-0.085
		c-0.271,0.238-0.743,0.423-0.848,0.827c-0.09,0.349,0.245,0.643,0.445,0.785C812.465,839.343,814.19,839.508,815.897,839.421
		L815.897,839.421z"/>
	<path fill="#FFFFFF" d="M827.69,831.744c0.018,0.242-0.312,0.3-0.446,0.149c-0.408,0.11-0.946,0.004-0.849-0.53
		c0.086-0.466,0.741-0.905,1.062-0.467c0.138,0.19,0.09,0.526,0.189,0.786c-0.1-0.07-0.171-0.168-0.296-0.212
		C826.902,831.602,827.543,832.182,827.69,831.744L827.69,831.744z M827.074,831.404c0.096-0.029,0.107,0.083,0.17,0.021
		c-0.086-0.753-0.741,0.239-0.254,0.275C826.981,831.566,826.993,831.451,827.074,831.404L827.074,831.404z M827.139,831.49
		c-0.109-0.017-0.081,0.103-0.085,0.191C827.126,831.66,827.097,831.541,827.139,831.49z"/>
	<path fill="#FFFFFF" d="M827.266,831.681c-0.09-0.03,0.001-0.142,0.084-0.128C827.342,831.615,827.281,831.625,827.266,831.681z
		 M826.333,831.744c0.012,0.228-0.315,0.309-0.446,0.149c-0.376,0.076-0.845,0.044-0.869-0.36c-0.031-0.501,0.641-1.05,1.018-0.7
		c0.141,0.131,0.2,0.375,0.169,0.679c0.028,0.05,0.054,0.101,0.085,0.149c-0.148,0-0.17-0.205-0.318-0.191
		c-0.285,0.024-0.089,0.45,0.127,0.445C826.249,831.91,826.214,831.811,826.333,831.744L826.333,831.744z M825.717,831.404
		c0.083-0.016,0.11,0.078,0.169,0.021c-0.034-0.144-0.083-0.27-0.212-0.318c-0.179,0.061-0.378,0.618-0.042,0.573
		C825.604,831.577,825.63,831.45,825.717,831.404z M825.717,831.681c0.008-0.066,0.107-0.184,0.021-0.213
		C825.7,831.534,825.632,831.64,825.717,831.681z"/>
	<path fill="#FFFFFF" d="M825.973,831.532c0.059,0.047-0.067,0.086-0.064,0.149C825.805,831.637,825.937,831.566,825.973,831.532z
		 M823.087,819.506c0.284,0.138,0.46,0.665,0.296,1.082c-0.459,0.064-0.264-0.591-0.53-0.636c-0.292-0.049-0.248,0.505-0.424,0.658
		c-0.329-0.043-0.248-0.443-0.169-0.678C822.358,819.636,822.715,819.324,823.087,819.506L823.087,819.506z M819.481,819.273
		c0.847-0.112,0.768,1.883,0.043,1.845C818.789,821.081,818.75,819.371,819.481,819.273z"/>
</g>
<g>
	<path fill="#D5EDFA" d="M831.868,859.29c0.505,1.042,0.876,2.226,0.784,3.627c-0.037,0.575-0.184,1.203-0.466,1.59
		c-0.143,0.195-0.352,0.378-0.573,0.382c-0.371,0.006-0.636-0.436-0.827-0.721c-0.226-0.338-0.397-0.666-0.573-0.997
		c-0.229,0.235-0.308,0.578-0.424,0.87c-0.362,0.913-0.866,1.708-1.505,2.354c0.598,0.347,1.156,0.588,1.675,0.997
		c0.319,0.252,0.742,0.614,0.636,1.209c-0.07,0.397-0.413,0.732-0.658,0.891c-1.709,1.103-5.278,0.941-7.38,0.255
		c-0.409-0.134-0.819-0.349-1.188-0.403c-0.141-0.021-0.382-0.011-0.53-0.021c-0.214-0.015-0.453-0.056-0.551-0.042
		c-0.126,0.017-0.235,0.147-0.382,0.233c-0.927,0.547-1.832,0.858-3.224,0.954c-1.545,0.108-3.105-0.021-4.305-0.403
		c-0.636-0.203-1.488-0.618-1.569-1.357c-0.04-0.358,0.058-0.896,0.191-1.145c0.329-0.624,1.072-0.825,1.993-0.912
		c-0.034-0.159-0.255-0.261-0.403-0.382c-0.874-0.713-1.559-1.675-1.993-2.863c-0.07-0.191-0.096-0.406-0.212-0.594
		c-0.205,0.15-0.229,0.426-0.36,0.636c-0.268,0.425-0.695,0.872-1.125,1.082c-0.158,0.077-0.393,0.17-0.572,0.127
		c-0.349-0.082-0.428-0.723-0.467-1.166c-0.145-1.646,0.334-2.976,0.87-4.008c0.685-1.32,1.664-2.177,2.651-2.991
		c-0.276-0.762,0.052-1.615,0.403-2.079c0.013-0.348,0.047-0.669,0.169-0.975c0.07-0.169,0.223-0.278,0.254-0.424
		c0.034-0.153-0.014-0.323,0-0.509c0.157-2.064,1.428-3.93,2.567-5.068c0.676-0.676,1.276-1.156,2.226-1.591
		c0.861-0.393,1.956-0.621,3.14-0.743h1.547c3.793,0.359,6.205,2.043,7.339,5.069c0.174,0.465,0.301,0.938,0.424,1.442
		c0.122,0.499,0.106,1.109,0.275,1.633c0.103,0.317,0.366,0.6,0.509,0.934c0.29,0.675,0.386,1.628,0,2.29
		C830.807,857.272,831.373,858.271,831.868,859.29z M830.277,868.538c0.18-0.975-0.984-0.782-1.739-0.827
		c0.091-0.319,0.537-0.283,0.87-0.361c-0.355-0.421-0.87-0.675-1.421-0.7c-1.45,1.264-3.14,2.288-5.535,2.609
		c0.689,0.575,2.195,0.81,3.669,0.869c1.45,0.058,3.006-0.295,3.733-0.912C830.046,869.052,830.232,868.785,830.277,868.538z
		 M829.004,863.68c0.528-1.989-0.272-3.716-1.082-4.899c-2.396,1.627-6.266,2.892-9.947,1.929c0.021,0.394,0.061,0.827,0.064,1.294
		c0.002,0.464,0.093,0.985,0.021,1.378c-0.056,0.309-0.325,0.621-0.573,0.721c-0.367,0.149-0.936,0.143-1.4,0.107
		c-0.84-0.065-1.559-0.471-1.781-1.125c-0.084-0.248-0.067-0.564-0.085-0.87c-0.057-0.972,0.037-1.875,0.17-2.736
		c-0.411-0.288-0.843-0.543-1.293-0.764c-0.691,0.694-1.016,2.409-0.976,3.606c0.01,0.304,0.076,0.739,0.148,1.082
		c0.197,0.939,0.72,1.812,1.294,2.481c0.594,0.693,1.246,1.238,2.057,1.717c1.623,0.962,3.867,1.442,6.023,1.464
		c0.781,0.008,1.539-0.148,2.248-0.403c0.721-0.259,1.411-0.658,2.037-1.061c0.616-0.396,1.262-0.952,1.675-1.42
		C828.157,865.556,828.748,864.649,829.004,863.68L829.004,863.68z M825.823,855.472c0.173-0.08,0.844-0.369,0.827-0.594
		c-0.009-0.113-0.357-0.32-0.53-0.424c-1.801-1.076-4.492-1.448-7.147-1.061c-1.017,0.149-1.938,0.389-2.779,0.786
		c-0.266,0.125-1.022,0.505-0.997,0.784c0.01,0.109,0.181,0.241,0.275,0.297c0.413,0.242,1.082,0.385,1.549,0.487
		c-0.095-0.259-0.28-0.426-0.383-0.678c0.956,0.661,2.069,1.375,3.542,1.506c2.206,0.194,3.879-0.674,5.133-1.506
		c-0.119,0.301-0.54,0.439-0.615,0.7C825.186,855.764,825.467,855.637,825.823,855.472z M823.426,853.288
		c1.474-0.528,1.521-3.971,0.021-4.538c-0.134-0.051-0.401-0.054-0.487-0.042c-0.485,0.058-0.819,0.403-1.019,0.743
		c-0.667,1.135-0.439,3.479,0.827,3.859C823.006,853.38,823.271,853.343,823.426,853.288L823.426,853.288z M818.698,853.267
		c1.073,0.107,1.59-1.231,1.569-2.291c-0.022-1.092-0.541-2.24-1.421-2.248c-0.541-0.005-0.924,0.367-1.145,0.764
		C817.044,850.666,817.326,853.13,818.698,853.267z M815.897,870.254c1.444-0.072,2.938-0.282,3.479-1.082
		c-2.216-0.263-4.208-0.927-5.706-1.952c-0.189-0.129-0.502-0.41-0.657-0.445c-0.034-0.008-0.106,0.02-0.169,0.021
		c-0.51,0.008-0.858,0.207-1.252,0.446c-0.264,0.161-0.588,0.408-0.381,0.701c0.235-0.012,0.378-0.116,0.657-0.085
		c-0.271,0.238-0.743,0.423-0.848,0.827c-0.09,0.349,0.245,0.643,0.445,0.785C812.465,870.177,814.19,870.341,815.897,870.254
		L815.897,870.254z"/>
	<path fill="#D5EDFA" d="M827.69,862.577c0.018,0.242-0.312,0.3-0.446,0.149c-0.408,0.11-0.946,0.004-0.849-0.53
		c0.086-0.466,0.741-0.905,1.062-0.467c0.138,0.19,0.09,0.526,0.189,0.786c-0.1-0.07-0.171-0.168-0.296-0.212
		C826.902,862.435,827.543,863.015,827.69,862.577L827.69,862.577z M827.074,862.238c0.096-0.029,0.107,0.083,0.17,0.021
		c-0.086-0.753-0.741,0.239-0.254,0.275C826.981,862.399,826.993,862.284,827.074,862.238L827.074,862.238z M827.139,862.323
		c-0.109-0.017-0.081,0.103-0.085,0.191C827.126,862.494,827.097,862.374,827.139,862.323z"/>
	<path fill="#D5EDFA" d="M827.266,862.514c-0.09-0.03,0.001-0.142,0.084-0.128C827.342,862.449,827.281,862.458,827.266,862.514z
		 M826.333,862.577c0.012,0.228-0.315,0.309-0.446,0.149c-0.376,0.076-0.845,0.044-0.869-0.36c-0.031-0.501,0.641-1.05,1.018-0.7
		c0.141,0.131,0.2,0.375,0.169,0.679c0.028,0.05,0.054,0.101,0.085,0.149c-0.148,0-0.17-0.205-0.318-0.191
		c-0.285,0.024-0.089,0.45,0.127,0.445C826.249,862.743,826.214,862.644,826.333,862.577L826.333,862.577z M825.717,862.238
		c0.083-0.016,0.11,0.078,0.169,0.021c-0.034-0.144-0.083-0.27-0.212-0.318c-0.179,0.061-0.378,0.618-0.042,0.573
		C825.604,862.41,825.63,862.283,825.717,862.238z M825.717,862.514c0.008-0.066,0.107-0.184,0.021-0.213
		C825.7,862.367,825.632,862.473,825.717,862.514z"/>
	<path fill="#D5EDFA" d="M825.973,862.365c0.059,0.047-0.067,0.086-0.064,0.149C825.805,862.47,825.937,862.4,825.973,862.365z
		 M823.087,850.34c0.284,0.138,0.46,0.665,0.296,1.082c-0.459,0.064-0.264-0.591-0.53-0.636c-0.292-0.049-0.248,0.505-0.424,0.658
		c-0.329-0.043-0.248-0.443-0.169-0.678C822.358,850.47,822.715,850.158,823.087,850.34L823.087,850.34z M819.481,850.106
		c0.847-0.112,0.768,1.883,0.043,1.845C818.789,851.915,818.75,850.204,819.481,850.106z"/>
</g>
</svg>
