<?xml version="1.0" encoding="utf-8"?>
<!-- Generator: Adobe Illustrator 16.0.0, SVG Export Plug-In . SVG Version: 6.00 Build 0)  -->
<!DOCTYPE svg PUBLIC "-//W3C//DTD SVG 1.1//EN" "http://www.w3.org/Graphics/SVG/1.1/DTD/svg11.dtd">
<svg version="1.1" id="Layer_1" xmlns="http://www.w3.org/2000/svg" xmlns:xlink="http://www.w3.org/1999/xlink" x="0px" y="0px"
	 width="30px" height="29.998px" viewBox="805.25 826.566 30 29.998" enable-background="new 805.25 826.566 30 29.998"
	 xml:space="preserve">
<path fill="#091440" d="M832.001,843.063c0.508,1.049,0.882,2.241,0.79,3.651c-0.037,0.579-0.186,1.211-0.469,1.601
	c-0.144,0.197-0.354,0.381-0.577,0.384c-0.373,0.007-0.641-0.438-0.832-0.726c-0.228-0.341-0.399-0.67-0.577-1.004
	c-0.23,0.237-0.311,0.582-0.427,0.875c-0.364,0.919-0.872,1.72-1.516,2.37c0.603,0.349,1.164,0.592,1.687,1.003
	c0.322,0.253,0.747,0.618,0.641,1.217c-0.071,0.4-0.416,0.737-0.663,0.896c-1.72,1.11-5.313,0.948-7.43,0.256
	c-0.411-0.135-0.824-0.351-1.196-0.406c-0.141-0.021-0.384-0.011-0.534-0.021c-0.216-0.015-0.456-0.056-0.555-0.043
	c-0.127,0.018-0.237,0.147-0.384,0.235c-0.933,0.551-1.844,0.864-3.246,0.961c-1.556,0.109-3.126-0.021-4.333-0.406
	c-0.641-0.204-1.498-0.622-1.58-1.366c-0.04-0.361,0.059-0.902,0.192-1.153c0.331-0.628,1.079-0.83,2.006-0.918
	c-0.034-0.16-0.256-0.264-0.405-0.385c-0.88-0.718-1.57-1.686-2.007-2.882c-0.07-0.192-0.097-0.409-0.213-0.598
	c-0.206,0.151-0.23,0.429-0.363,0.641c-0.27,0.427-0.7,0.878-1.132,1.089c-0.159,0.078-0.395,0.171-0.576,0.128
	c-0.351-0.083-0.431-0.728-0.47-1.173c-0.146-1.658,0.336-2.996,0.875-4.036c0.689-1.328,1.674-2.191,2.669-3.01
	c-0.278-0.767,0.052-1.626,0.405-2.093c0.014-0.35,0.047-0.673,0.17-0.981c0.07-0.171,0.225-0.28,0.257-0.427
	c0.034-0.154-0.014-0.325,0-0.513c0.157-2.079,1.438-3.957,2.584-5.102c0.68-0.681,1.284-1.164,2.241-1.602
	c0.867-0.396,1.968-0.626,3.161-0.748h1.558c3.819,0.361,6.246,2.057,7.388,5.104c0.176,0.468,0.304,0.943,0.428,1.452
	c0.122,0.502,0.107,1.117,0.277,1.644c0.103,0.319,0.369,0.604,0.513,0.94c0.292,0.68,0.388,1.639,0,2.305
	C830.933,841.033,831.503,842.038,832.001,843.063z M830.399,852.374c0.181-0.982-0.991-0.788-1.75-0.833
	c0.092-0.322,0.54-0.285,0.875-0.363c-0.357-0.425-0.876-0.68-1.431-0.705c-1.459,1.272-3.162,2.303-5.573,2.626
	c0.694,0.579,2.21,0.815,3.694,0.875c1.46,0.058,3.026-0.297,3.758-0.918C830.167,852.891,830.354,852.622,830.399,852.374z
	 M829.118,847.483c0.531-2.003-0.274-3.741-1.089-4.932c-2.413,1.638-6.309,2.912-10.014,1.942c0.021,0.396,0.062,0.832,0.064,1.302
	c0.002,0.468,0.094,0.992,0.021,1.388c-0.056,0.311-0.327,0.625-0.576,0.726c-0.37,0.15-0.942,0.143-1.41,0.107
	c-0.846-0.066-1.57-0.474-1.793-1.132c-0.084-0.25-0.067-0.569-0.086-0.876c-0.057-0.979,0.038-1.887,0.171-2.754
	c-0.414-0.289-0.849-0.546-1.303-0.769c-0.695,0.699-1.023,2.425-0.982,3.63c0.01,0.306,0.077,0.744,0.149,1.089
	c0.198,0.946,0.726,1.825,1.303,2.499c0.598,0.697,1.254,1.246,2.071,1.729c1.634,0.969,3.893,1.452,6.064,1.474
	c0.786,0.008,1.548-0.15,2.263-0.406c0.726-0.261,1.42-0.662,2.05-1.068c0.621-0.399,1.271-0.958,1.687-1.43
	C828.265,849.372,828.859,848.458,829.118,847.483L829.118,847.483z M825.916,839.22c0.174-0.08,0.85-0.371,0.833-0.598
	c-0.01-0.114-0.36-0.322-0.534-0.427c-1.813-1.083-4.522-1.458-7.195-1.068c-1.024,0.15-1.951,0.391-2.797,0.791
	c-0.268,0.126-1.029,0.509-1.003,0.79c0.01,0.11,0.182,0.243,0.278,0.299c0.416,0.244,1.089,0.388,1.559,0.491
	c-0.095-0.261-0.282-0.43-0.385-0.683c0.962,0.666,2.083,1.385,3.566,1.516c2.22,0.195,3.905-0.679,5.167-1.516
	c-0.12,0.303-0.543,0.442-0.619,0.705C825.274,839.514,825.557,839.386,825.916,839.22z M823.502,837.021
	c1.483-0.532,1.53-3.998,0.022-4.569c-0.136-0.051-0.404-0.054-0.491-0.042c-0.488,0.059-0.824,0.405-1.025,0.748
	c-0.672,1.143-0.442,3.502,0.833,3.885C823.08,837.114,823.346,837.077,823.502,837.021L823.502,837.021z M818.742,837
	c1.08,0.107,1.601-1.24,1.58-2.306c-0.022-1.1-0.544-2.255-1.431-2.263c-0.545-0.006-0.93,0.369-1.153,0.769
	C817.077,834.381,817.361,836.862,818.742,837z M815.922,854.102c1.455-0.073,2.958-0.284,3.502-1.089
	c-2.23-0.265-4.236-0.933-5.744-1.964c-0.19-0.13-0.506-0.413-0.662-0.448c-0.034-0.008-0.106,0.02-0.17,0.021
	c-0.514,0.008-0.864,0.208-1.26,0.449c-0.266,0.162-0.592,0.411-0.384,0.706c0.236-0.013,0.381-0.117,0.662-0.086
	c-0.273,0.24-0.749,0.426-0.854,0.833c-0.09,0.351,0.247,0.647,0.449,0.79C812.467,854.023,814.205,854.189,815.922,854.102
	L815.922,854.102z"/>
<path fill="#091440" d="M827.794,846.373c0.018,0.243-0.314,0.302-0.448,0.15c-0.411,0.11-0.953,0.004-0.854-0.533
	c0.087-0.47,0.746-0.911,1.068-0.47c0.139,0.19,0.091,0.529,0.191,0.79c-0.1-0.07-0.172-0.169-0.298-0.213
	C827.002,846.23,827.647,846.813,827.794,846.373L827.794,846.373z M827.175,846.031c0.097-0.029,0.107,0.083,0.171,0.021
	c-0.087-0.758-0.746,0.241-0.256,0.277C827.082,846.194,827.093,846.078,827.175,846.031L827.175,846.031z M827.239,846.117
	c-0.109-0.018-0.081,0.104-0.085,0.192C827.227,846.289,827.198,846.168,827.239,846.117z"/>
<path fill="#091440" d="M827.368,846.31c-0.091-0.031,0.001-0.143,0.085-0.129C827.444,846.243,827.383,846.253,827.368,846.31z
	 M826.428,846.373c0.012,0.229-0.317,0.311-0.449,0.15c-0.378,0.076-0.85,0.044-0.875-0.363c-0.031-0.504,0.646-1.057,1.024-0.705
	c0.142,0.132,0.202,0.378,0.17,0.684c0.028,0.05,0.054,0.102,0.086,0.149c-0.149,0-0.171-0.206-0.32-0.192
	c-0.287,0.024-0.09,0.453,0.128,0.448C826.344,846.54,826.31,846.44,826.428,846.373L826.428,846.373z M825.809,846.031
	c0.083-0.017,0.11,0.079,0.17,0.021c-0.034-0.144-0.084-0.271-0.213-0.32c-0.179,0.062-0.38,0.622-0.042,0.577
	C825.694,846.205,825.721,846.077,825.809,846.031z M825.809,846.31c0.008-0.066,0.108-0.185,0.022-0.214
	C825.791,846.162,825.723,846.269,825.809,846.31z"/>
<path fill="#091440" d="M826.066,846.16c0.059,0.047-0.068,0.087-0.065,0.15C825.897,846.265,826.03,846.195,826.066,846.16z
	 M823.161,834.053c0.286,0.139,0.463,0.668,0.299,1.089c-0.463,0.064-0.267-0.595-0.534-0.641c-0.294-0.049-0.25,0.509-0.427,0.663
	c-0.331-0.044-0.25-0.447-0.17-0.683C822.428,834.185,822.787,833.87,823.161,834.053L823.161,834.053z M819.531,833.818
	c0.853-0.113,0.772,1.896,0.043,1.857C818.833,835.639,818.794,833.917,819.531,833.818z"/>
</svg>
