<?xml version="1.0" encoding="utf-8"?>
<!-- Generator: Adobe Illustrator 16.0.0, SVG Export Plug-In . SVG Version: 6.00 Build 0)  -->
<!DOCTYPE svg PUBLIC "-//W3C//DTD SVG 1.1//EN" "http://www.w3.org/Graphics/SVG/1.1/DTD/svg11.dtd">
<svg version="1.1" id="Layer_1" xmlns="http://www.w3.org/2000/svg" xmlns:xlink="http://www.w3.org/1999/xlink" x="0px" y="0px"
	 width="20px" height="20px" viewBox="0 0 20 20" enable-background="new 0 0 20 20" xml:space="preserve">
<path id="XMLID_2393_" fill="#8297A5" d="M1.264,3.817C1.266,3.799,1.27,3.781,1.271,3.764C1.27,3.781,1.266,3.799,1.264,3.817z"/>
<path id="XMLID_2392_" fill="#081241" d="M2.75,5.012h13.498V4.014c0-0.825-0.675-1.5-1.5-1.5H2.75
	c-0.739,0-1.357,0.542-1.479,1.249C1.393,4.47,2.011,5.012,2.75,5.012z"/>
<path id="XMLID_2391_" fill="#8297A5" d="M1.257,3.879C1.258,3.863,1.26,3.848,1.262,3.832C1.26,3.848,1.258,3.863,1.257,3.879z"/>
<path id="XMLID_2390_" fill="#8297A5" d="M1.252,3.944C1.253,3.933,1.254,3.92,1.254,3.908C1.254,3.92,1.253,3.933,1.252,3.944z"/>
<path id="XMLID_2389_" fill="#2ED8A3" d="M17.25,5.012h-1h-0.002H2.75c-0.739,0-1.357-0.542-1.479-1.249l0,0v0.001
	C1.27,3.781,1.266,3.799,1.264,3.817c0,0.005-0.001,0.01-0.002,0.015C1.26,3.848,1.258,3.863,1.257,3.879
	c-0.001,0.01-0.001,0.02-0.003,0.029c0,0.012-0.001,0.024-0.002,0.036c0,0.022-0.002,0.046-0.002,0.069v2.498v6.977v2.498
	c0,0.825,0.676,1.5,1.5,1.5h14.5c0.826,0,1.5-0.675,1.5-1.5v-1.61c-1.726,0-3.125-1.399-3.125-3.125
	c0-1.727,1.399-3.125,3.125-3.125V6.512C18.75,5.688,18.076,5.012,17.25,5.012z"/>
<path id="XMLID_2388_" fill="#081241" d="M15.625,11.251c0,1.726,1.399,3.125,3.125,3.125v-0.08v-1.25v-3.67v-1.25
	C17.024,8.126,15.625,9.524,15.625,11.251z"/>
</svg>
