<?xml version="1.0" encoding="UTF-8" standalone="no"?>
<svg
   xmlns:dc="http://purl.org/dc/elements/1.1/"
   xmlns:cc="http://creativecommons.org/ns#"
   xmlns:rdf="http://www.w3.org/1999/02/22-rdf-syntax-ns#"
   xmlns:svg="http://www.w3.org/2000/svg"
   xmlns="http://www.w3.org/2000/svg"
   id="svg15"
   version="1.1"
   viewBox="0 0 20 20"
   height="20"
   width="20">
  <metadata
     id="metadata19">
    <rdf:RDF>
      <cc:Work
         rdf:about="">
        <dc:format>image/svg+xml</dc:format>
        <dc:type
           rdf:resource="http://purl.org/dc/dcmitype/StillImage" />
        <dc:title></dc:title>
      </cc:Work>
    </rdf:RDF>
  </metadata>
  <defs
     id="defs4">
    <style
       id="style2">
      .cls-1 {
        fill: none;
      }

      .cls-2 {
        fill: #2DD8A3;
      }
    </style>
  </defs>
  <g
     transform="translate(-1709.51,-1500.03)"
     id="Group_61"
     data-name="Group 61">
    <g
       id="Group_60"
       data-name="Group 60">
      <rect
         id="Rectangle_58"
         data-name="Rectangle 58"
         class="cls-1"
         width="34"
         height="34"
         transform="translate(1702.513,1493.031)"
         x="0"
         y="0"
         style="fill:none" />
    </g>
  </g>
  <g
     transform="translate(-1709.51,-1500.03)"
     id="Group_62"
     data-name="Group 62">
    <path
       id="Path_52"
       data-name="Path 52"
       class="cls-2"
       d="m 1724.01,1509.03 v 2 h 2.5 v 2.5 h 3 v 1 h -3 v 2.5 h -2.5 v 3 h -1 v -3 h -2.5 v -2.5 h -1 v -1 h 1 v -2.5 h 2.5 v -2 h -2.5 v -2.5 h -2 v 2.5 h -2.5 v 1 h -1 v -1 h -2.5 v -2.5 h -3 v -1 h 3 v -2.5 h 2.5 v -3 h 1 v 3 h 2.5 v 2.5 h 2 v -2.5 h 2.5 v -3 h 1 v 3 h 2.5 v 2.5 h 3 v 1 h -3 v 2.5 z"
       style="fill:#2dd8a3" />
    <rect
       id="Rectangle_59"
       data-name="Rectangle 59"
       class="cls-2"
       width="2"
       height="1"
       transform="translate(1709.51,1513.53)"
       x="0"
       y="0"
       style="fill:#2dd8a3" />
    <rect
       id="Rectangle_60"
       data-name="Rectangle 60"
       class="cls-2"
       width="1"
       height="2"
       transform="translate(1715.01,1518.03)"
       x="0"
       y="0"
       style="fill:#2dd8a3" />
    <rect
       id="Rectangle_61"
       data-name="Rectangle 61"
       class="cls-2"
       width="6"
       height="6"
       transform="translate(1712.51,1511.03)"
       x="0"
       y="0"
       style="fill:#2dd8a3" />
  </g>
</svg>
