<svg xmlns="http://www.w3.org/2000/svg" width="400" height="120" viewBox="0 0 400 120">
	<style>
		.st0 {
			fill: #FFFFFF;
			width: 16px;
			height: 16px
		}

		.st1 {
			fill: none;
			stroke: #FFFFFF;
			stroke-width: 1.5;
			stroke-linecap: round;
		}

		.st2 {
			fill: none;
			stroke: #FFFFFF;
			stroke-width: 2;
			stroke-linecap: round;
		}

		.st3 {
			fill: none;
			stroke: #FFFFFF;
		}

		.st4 {
			fill: #231F20;
		}

		.st5 {
			opacity: 0.75;
			fill: none;
			stroke: #FFFFFF;
			stroke-width: 5;
			enable-background: new;
		}

		.st6 {
			fill: none;
			stroke: #FFFFFF;
			stroke-width: 5;
		}

		.st7 {
			opacity: 0.4;
			fill: #FFFFFF;
			enable-background: new;
		}

		.st8 {
			opacity: 0.6;
			fill: #FFFFFF;
			enable-background: new;
		}

		.st9 {
			opacity: 0.8;
			fill: #FFFFFF;
			enable-background: new;
		}

		.st10 {
			opacity: 0.9;
			fill: #FFFFFF;
			enable-background: new;
		}

		.st11 {
			opacity: 0.3;
			fill: #FFFFFF;
			enable-background: new;
		}

		.st12 {
			opacity: 0.5;
			fill: #FFFFFF;
			enable-background: new;
		}

		.st13 {
			opacity: 0.7;
			fill: #FFFFFF;
			enable-background: new;
		}
	</style>
<polygon class="st8" points="16,9 5.1,2.7 5.1,15.3 "/>
<rect x="25.9" y="3.1" class="st8" width="2.5" height="11.8"/>
<rect x="31.5" y="3.1" class="st8" width="2.5" height="11.8"/>
	<path class="st0" d="M81 1.4c0-.6.4-1 1-1h5.4c.6 0 .7.3.3.7l-6 6c-.4.4-.7.3-.7-.3V1.4zm0 15.8c0 .6.4 1 1 1h5.4c.6 0 .7-.3.3-.7l-6-6c-.4-.4-.7-.3-.7.3v5.4zM98.8 1.4c0-.6-.4-1-1-1h-5.4c-.6 0-.7.3-.3.7l6 6c.4.4.7.3.7-.3V1.4zm0 15.8c0 .6-.4 1-1 1h-5.4c-.6 0-.7-.3-.3-.7l6-6c.4-.4.7-.3.7.3v5.4z"
	/>
	<path class="st0" d="M112.7 5c0 .6.4 1 1 1h4.1c.6 0 .7-.3.3-.7L113.4.6c-.4-.4-.7-.3-.7.3V5zm-7.1 1c.6 0 1-.4 1-1V.9c0-.6-.3-.7-.7-.3l-4.7 4.7c-.4.4-.3.7.3.7h4.1zm1 7.1c0-.6-.4-1-1-1h-4.1c-.6 0-.7.3-.3.7l4.7 4.7c.4.4.7.3.7-.3v-4.1zm7.1-1c-.6 0-1 .4-1 1v4.1c0 .5.3.7.7.3l4.7-4.7c.4-.4.3-.7-.3-.7h-4.1z"
	/>
	<path class="st0" d="M67 5.8c-.5.4-1.2.6-1.8.6H62c-.6 0-1 .4-1 1v5.7c0 .6.4 1 1 1h4.2c.3.2.5.4.8.6l3.5 2.6c.4.3.8.1.8-.4V3.5c0-.5-.4-.7-.8-.4L67 5.8z"
	/>
	<path class="st1" d="M73.9 2.5s3.9-.8 3.9 7.7-3.9 7.8-3.9 7.8" />
	<path class="st1" d="M72.6 6.4s2.6-.4 2.6 3.8-2.6 3.9-2.6 3.9" />
	<path class="st0" d="M47 5.8c-.5.4-1.2.6-1.8.6H42c-.6 0-1 .4-1 1v5.7c0 .6.4 1 1 1h4.2c.3.2.5.4.8.6l3.5 2.6c.4.3.8.1.8-.4V3.5c0-.5-.4-.7-.8-.4L47 5.8z"
	/>
	<path class="st2" d="M52.8 7l5.4 5.4m-5.4 0L58.2 7" />
	<path class="st3" d="M128.7 8.6c-6.2-4.2-6.5 7.8 0 3.9m6.5-3.9c-6.2-4.2-6.5 7.8 0 3.9" />
	<path class="st0" d="M122.2 3.4h15.7v13.1h-15.7V3.4zM120.8 2v15.7h18.3V2h-18.3z" />
	<path class="st0" d="M143.2 3h14c1.1 0 2 .9 2 2v10c0 1.1-.9 2-2 2h-14c-1.1 0-2-.9-2-2V5c0-1.1.9-2 2-2z" />
	<path class="st4" d="M146.4 13.8c-.8 0-1.6-.4-2.1-1-1.1-1.4-1-3.4.1-4.8.5-.6 2-1.7 4.6.2l-.6.8c-1.4-1-2.6-1.1-3.3-.3-.8 1-.8 2.4-.1 3.5.7.9 1.9.8 3.4-.1l.5.9c-.7.5-1.6.7-2.5.8zm7.5 0c-.8 0-1.6-.4-2.1-1-1.1-1.4-1-3.4.1-4.8.5-.6 2-1.7 4.6.2l-.5.8c-1.4-1-2.6-1.1-3.3-.3-.8 1-.8 2.4-.1 3.5.7.9 1.9.8 3.4-.1l.5.9c-.8.5-1.7.7-2.6.8z"
	/>
	<path class="st0" d="M60.3 77c.6.2.8.8.6 1.4-.1.3-.3.5-.6.6L30 96.5c-1 .6-1.7.1-1.7-1v-35c0-1.1.8-1.5 1.7-1L60.3 77z" />
	<path class="st5" d="M2.5 79c0-20.7 16.8-37.5 37.5-37.5S77.5 58.3 77.5 79 60.7 116.5 40 116.5 2.5 99.7 2.5 79z" />
	<path class="st0" d="M140.3 77c.6.2.8.8.6 1.4-.1.3-.3.5-.6.6L110 96.5c-1 .6-1.7.1-1.7-1v-35c0-1.1.8-1.5 1.7-1L140.3 77z"
	/>

	<path class="st6" d="M82.5 79c0-20.7 16.8-37.5 37.5-37.5s37.5 16.8 37.5 37.5-16.8 37.5-37.5 37.5S82.5 99.7 82.5 79z" />

	<path class="st0" d="M178 9.4c0 .4-.4.7-.9.7-.1 0-.2 0-.2-.1L172 8.2c-.5-.2-.6-.6-.1-.8l6.2-3.6c.5-.3.8-.1.7.5l-.8 5.1z"
	/>
	<path class="st0" d="M169.4 15.9c-1 0-2-.2-2.9-.7-2-1-3.2-3-3.2-5.2.1-3.4 2.9-6 6.3-6 2.5.1 4.8 1.7 5.6 4.1l.1-.1 2.1 1.1c-.6-4.4-4.7-7.5-9.1-6.9-3.9.6-6.9 3.9-7 7.9 0 2.9 1.7 5.6 4.3 7 1.2.6 2.5.9 3.8 1 2.6 0 5-1.2 6.6-3.3l-1.8-.9c-1.2 1.2-3 2-4.8 2z"
	/>
	<path class="st0" d="M183.4 3.2c.8 0 1.5.7 1.5 1.5s-.7 1.5-1.5 1.5-1.5-.7-1.5-1.5c0-.9.7-1.5 1.5-1.5zm5.1 0h8.5c.9 0 1.5.7 1.5 1.5s-.7 1.5-1.5 1.5h-8.5c-.9 0-1.5-.7-1.5-1.5-.1-.9.6-1.5 1.5-1.5zm-5.1 5c.8 0 1.5.7 1.5 1.5s-.7 1.5-1.5 1.5-1.5-.7-1.5-1.5c0-.9.7-1.5 1.5-1.5zm5.1 0h8.5c.9 0 1.5.7 1.5 1.5s-.7 1.5-1.5 1.5h-8.5c-.9 0-1.5-.7-1.5-1.5-.1-.9.6-1.5 1.5-1.5zm-5.1 5c.8 0 1.5.7 1.5 1.5s-.7 1.5-1.5 1.5-1.5-.7-1.5-1.5c0-.9.7-1.5 1.5-1.5zm5.1 0h8.5c.9 0 1.5.7 1.5 1.5s-.7 1.5-1.5 1.5h-8.5c-.9 0-1.5-.7-1.5-1.5-.1-.9.6-1.5 1.5-1.5z"
	/>
<path id="XMLID_707_" class="st7" d="M197.5,84H210c4.6,0,8.4-3.8,8.4-8.4c0-4.6-3.8-8.4-8.4-8.4h-4l-8.5-7.4H210
	c8.7,0,15.8,7.1,15.8,15.8c0,6.6-4.1,12.3-9.9,14.7l9.9,8.6h-11.3L197.5,84z"/>
<path id="XMLID_705_" class="st7" d="M203.6,74.6h-12.5c-4.6,0-8.4,3.8-8.4,8.4s3.8,8.4,8.4,8.4h4l8.5,7.4h-12.5
	c-8.7,0-15.8-7.1-15.8-15.8c0-6.6,4.1-12.3,9.9-14.7l-9.9-8.6h11.3L203.6,74.6z"/>

	
</svg>