<svg xmlns="http://www.w3.org/2000/svg" xmlns:xlink="http://www.w3.org/1999/xlink" width="375" height="812" viewBox="0 0 375 812"><defs><style>.a{fill:#fff;stroke:#707070;}.b,.g{fill:none;stroke:#2970ff;}.c{fill:url(#a);}.d{clip-path:url(#b);}.e{clip-path:url(#c);}.f{opacity:0.55;}.g{stroke-miterlimit:10;}.h{fill:url(#d);}</style><linearGradient id="a" x1="0.906" y1="-0.15" x2="0.094" y2="1.15" gradientUnits="objectBoundingBox"><stop offset="0" stop-color="#122e76"/><stop offset="0" stop-color="#0f2666"/><stop offset="0.626" stop-color="#091440"/><stop offset="1" stop-color="#091440"/></linearGradient><clipPath id="b"><rect class="a" width="375" height="812"/></clipPath><clipPath id="c"><rect class="b" width="815.386" height="508.943"/></clipPath><linearGradient id="d" x1="0.906" y1="-0.15" x2="0.094" y2="1.15" gradientUnits="objectBoundingBox"><stop offset="0" stop-color="#122e76" stop-opacity="0"/><stop offset="0.037" stop-color="#112b70" stop-opacity="0"/><stop offset="0.208" stop-color="#0d215b" stop-opacity="0.153"/><stop offset="0.386" stop-color="#0b194c" stop-opacity="0.698"/><stop offset="0.574" stop-color="#091542" stop-opacity="0.945"/><stop offset="0.787" stop-color="#091440"/><stop offset="1" stop-color="#091440"/></linearGradient></defs><rect class="c" width="375" height="812"/><g class="d"><g transform="translate(-441.62)"><g class="e" transform="translate(1.153)"><g class="f" transform="translate(-709.444 -394.512)"><path class="g" d="M175.4,631.619a56.787,56.787,0,0,1-1.984,5.4,56.081,56.081,0,0,1-2.47,5.078q-1.351,2.455-2.923,4.735t-3.339,4.372q-1.768,2.093-3.72,3.991t-4.065,3.592q-2.114,1.693-4.376,3.173t-4.651,2.736q-2.389,1.257-4.89,2.281t-5.094,1.807q-2.592.782-5.264,1.314t-5.4.8q-2.726.27-5.495.272t-5.557-.276a56.057,56.057,0,0,1-5.585-.843,57.019,57.019,0,0,1-10.98-3.412,55.913,55.913,0,0,1-5.078-2.471q-2.455-1.351-4.735-2.922t-4.372-3.339q-2.093-1.768-3.992-3.719t-3.591-4.066q-1.693-2.113-3.173-4.376T71.932,641.1q-1.256-2.388-2.281-4.89t-1.806-5.095q-.782-2.592-1.314-5.263t-.8-5.4q-.27-2.725-.273-5.494t.276-5.557a56.064,56.064,0,0,1,.843-5.584,57.027,57.027,0,0,1,3.413-10.98,56.1,56.1,0,0,1,2.47-5.079q1.351-2.455,2.923-4.734t3.339-4.372q1.768-2.093,3.72-3.991t4.065-3.591q2.114-1.692,4.376-3.173t4.65-2.736q2.389-1.256,4.89-2.281t5.095-1.807q2.592-.781,5.263-1.313t5.4-.8q2.726-.269,5.495-.272t5.557.276a56.259,56.259,0,0,1,5.584.843,56.672,56.672,0,0,1,16.059,5.884q2.455,1.351,4.734,2.923t4.373,3.339q2.092,1.768,3.991,3.72t3.592,4.065q1.692,2.114,3.173,4.376t2.736,4.651q1.256,2.388,2.281,4.89t1.807,5.094q.782,2.592,1.314,5.263t.8,5.4q.27,2.725.273,5.494a55.611,55.611,0,0,1-.276,5.557,56.282,56.282,0,0,1-.843,5.585A56.931,56.931,0,0,1,175.4,631.619Z" transform="translate(684.95 191.721)"/><path class="g" d="M184.151,625.409A79.908,79.908,0,0,1,181.365,633a78.825,78.825,0,0,1-3.47,7.132q-1.9,3.447-4.1,6.649t-4.689,6.14q-2.482,2.938-5.224,5.6t-5.71,5.043q-2.968,2.377-6.145,4.456t-6.531,3.843q-3.354,1.763-6.867,3.2t-7.154,2.537q-3.641,1.1-7.391,1.845t-7.578,1.127q-3.828.379-7.716.382t-7.8-.388a78.778,78.778,0,0,1-7.842-1.184,80.1,80.1,0,0,1-15.42-4.792,78.685,78.685,0,0,1-7.132-3.469q-3.448-1.9-6.649-4.1t-6.14-4.688q-2.938-2.482-5.6-5.224T47.152,651.4q-2.377-2.968-4.456-6.145t-3.843-6.531q-1.763-3.354-3.2-6.868T33.115,624.7q-1.1-3.641-1.845-7.391t-1.127-7.579q-.379-3.827-.383-7.716t.388-7.8a78.943,78.943,0,0,1,1.184-7.842,80.226,80.226,0,0,1,4.792-15.42,78.9,78.9,0,0,1,3.47-7.131q1.9-3.448,4.1-6.649t4.689-6.14q2.482-2.938,5.224-5.605t5.709-5.043q2.968-2.376,6.145-4.456T72,532.082q3.354-1.764,6.868-3.2t7.154-2.537q3.641-1.1,7.391-1.845t7.578-1.127q3.828-.379,7.716-.382t7.8.388a78.762,78.762,0,0,1,7.842,1.184,80.107,80.107,0,0,1,15.419,4.792,78.964,78.964,0,0,1,7.132,3.469q3.448,1.9,6.649,4.1t6.14,4.689q2.938,2.482,5.6,5.224t5.043,5.71q2.377,2.967,4.456,6.145t3.842,6.531q1.763,3.353,3.2,6.867t2.537,7.154q1.1,3.641,1.845,7.391t1.126,7.579q.379,3.828.383,7.716t-.388,7.8a78.763,78.763,0,0,1-1.184,7.842A80.115,80.115,0,0,1,184.151,625.409Z" transform="translate(697.907 204.678)"/><path class="g" d="M192.9,619.2a102.814,102.814,0,0,1-3.588,9.774,101.546,101.546,0,0,1-4.468,9.185q-2.444,4.44-5.286,8.563t-6.038,7.907q-3.2,3.785-6.728,7.218t-7.353,6.5q-3.822,3.062-7.914,5.738t-8.412,4.949q-4.319,2.27-8.844,4.124t-9.214,3.267q-4.688,1.413-9.519,2.376t-9.76,1.451q-4.93.488-9.938.492t-10.051-.5a101.656,101.656,0,0,1-10.1-1.525,103.27,103.27,0,0,1-19.858-6.172,101.293,101.293,0,0,1-9.185-4.469q-4.44-2.443-8.563-5.285t-7.907-6.039q-3.785-3.2-7.219-6.727t-6.5-7.353q-3.062-3.822-5.739-7.914t-4.948-8.411Q3.5,632.025,1.65,627.5t-3.267-9.214q-1.414-4.689-2.376-9.519t-1.451-9.76q-.488-4.93-.492-9.938t.5-10.05a101.593,101.593,0,0,1,1.525-10.1A103.178,103.178,0,0,1,2.261,549.06a101.475,101.475,0,0,1,4.469-9.185q2.443-4.439,5.285-8.563t6.039-7.907q3.2-3.784,6.728-7.218t7.353-6.5q3.822-3.061,7.914-5.738T48.46,499q4.319-2.271,8.844-4.125t9.214-3.267q4.689-1.413,9.519-2.376t9.76-1.451q4.931-.489,9.938-.493t10.051.5a101.453,101.453,0,0,1,10.1,1.526,103.242,103.242,0,0,1,19.859,6.171,101.653,101.653,0,0,1,9.185,4.469q4.439,2.444,8.563,5.285t7.908,6.039q3.784,3.2,7.218,6.728t6.5,7.352q3.062,3.822,5.739,7.914t4.948,8.411q2.271,4.32,4.125,8.845t3.267,9.213q1.413,4.689,2.375,9.519t1.451,9.76q.489,4.93.493,9.938t-.5,10.051a101.29,101.29,0,0,1-1.525,10.1A102.941,102.941,0,0,1,192.9,619.2Z" transform="translate(710.864 217.635)"/><path class="g" d="M201.655,612.989a125.83,125.83,0,0,1-4.389,11.959,124.364,124.364,0,0,1-5.468,11.238q-2.99,5.432-6.467,10.477t-7.389,9.676q-3.911,4.63-8.232,8.832t-9,7.947q-4.676,3.746-9.683,7.021t-10.292,6.055q-5.285,2.779-10.822,5.046t-11.273,4q-5.737,1.73-11.647,2.907T95.055,699.92q-6.032.6-12.159.6t-12.3-.611a124.3,124.3,0,0,1-12.358-1.867,126.262,126.262,0,0,1-24.3-7.552A124.2,124.2,0,0,1,22.7,685.027q-5.432-2.991-10.478-6.468t-9.675-7.388q-4.631-3.912-8.832-8.232t-7.947-9q-3.746-4.676-7.021-9.683T-27.3,633.967q-2.779-5.284-5.046-10.822t-4-11.273q-1.73-5.736-2.907-11.647t-1.775-11.942q-.6-6.031-.6-12.159t.611-12.3a124.326,124.326,0,0,1,1.866-12.358,126.29,126.29,0,0,1,7.551-24.3,124.281,124.281,0,0,1,5.468-11.238q2.99-5.433,6.467-10.478t7.389-9.675q3.912-4.63,8.232-8.832t9-7.947q4.676-3.746,9.683-7.022t10.292-6.054q5.285-2.78,10.822-5.047t11.273-4q5.737-1.73,11.647-2.907T70.606,452.2q6.032-.6,12.159-.6t12.3.612a124.114,124.114,0,0,1,12.358,1.866,126.351,126.351,0,0,1,24.3,7.552,124.108,124.108,0,0,1,11.238,5.468q5.433,2.99,10.478,6.467t9.675,7.389q4.631,3.911,8.832,8.232t7.947,9q3.746,4.676,7.022,9.683t6.054,10.292q2.779,5.285,5.046,10.822t4,11.273q1.729,5.737,2.907,11.647t1.775,11.942q.6,6.031.6,12.159t-.611,12.3a124.306,124.306,0,0,1-1.866,12.358A126.094,126.094,0,0,1,201.655,612.989Z" transform="translate(723.821 230.592)"/><path class="g" d="M210.407,606.779a148.953,148.953,0,0,1-5.192,14.143,146.763,146.763,0,0,1-6.466,13.291q-3.536,6.425-7.648,12.392t-8.739,11.443q-4.627,5.476-9.736,10.445t-10.64,9.4q-5.531,4.431-11.452,8.3t-12.172,7.161q-6.25,3.286-12.8,5.968t-13.333,4.728q-6.784,2.046-13.775,3.438t-14.123,2.1q-7.134.707-14.381.713t-14.544-.723a146.8,146.8,0,0,1-14.616-2.207,149.367,149.367,0,0,1-28.737-8.931,146.905,146.905,0,0,1-13.292-6.466q-6.425-3.536-12.391-7.649t-11.443-8.739q-5.476-4.626-10.446-9.736t-9.4-10.64q-4.43-5.532-8.3-11.453t-7.161-12.171q-3.286-6.251-5.969-12.8t-4.727-13.333q-2.046-6.785-3.439-13.775t-2.1-14.124q-.707-7.133-.713-14.38t.723-14.544A147,147,0,0,1-74.4,534.02a149.451,149.451,0,0,1,8.932-28.738A146.93,146.93,0,0,1-59,491.99q3.536-6.425,7.649-12.392t8.739-11.443q4.626-5.476,9.736-10.445t10.64-9.4q5.532-4.43,11.452-8.3t12.172-7.161q6.25-3.286,12.8-5.968t13.333-4.728q6.784-2.046,13.775-3.438t14.123-2.1q7.134-.707,14.381-.713t14.544.722a146.8,146.8,0,0,1,14.616,2.207,149.363,149.363,0,0,1,28.737,8.931,147.092,147.092,0,0,1,13.292,6.466q6.425,3.536,12.391,7.649t11.443,8.739q5.476,4.627,10.445,9.736t9.4,10.641q4.43,5.531,8.3,11.452t7.161,12.172q3.287,6.25,5.969,12.8t4.728,13.333q2.045,6.784,3.438,13.774t2.1,14.124q.707,7.134.713,14.38t-.722,14.545a147.027,147.027,0,0,1-2.207,14.616A149.059,149.059,0,0,1,210.407,606.779Z" transform="translate(736.778 243.549)"/><path class="g" d="M219.159,600.568a171.9,171.9,0,0,1-5.993,16.328,169.657,169.657,0,0,1-7.465,15.345q-4.083,7.418-8.83,14.306t-10.088,13.211q-5.34,6.322-11.24,12.059t-12.284,10.851q-6.385,5.115-13.221,9.587t-14.052,8.267q-7.216,3.794-14.776,6.891t-15.392,5.458q-7.833,2.361-15.9,3.969t-16.305,2.424q-8.236.816-16.6.823t-16.791-.835a169.642,169.642,0,0,1-16.873-2.548A172.452,172.452,0,0,1-9.835,706.394a169.41,169.41,0,0,1-15.345-7.465q-7.418-4.082-14.306-8.83T-52.7,680.01q-6.322-5.341-12.059-11.24t-10.851-12.284q-5.115-6.386-9.588-13.222t-8.267-14.052q-3.794-7.216-6.891-14.776t-5.458-15.393q-2.362-7.832-3.969-15.9t-2.424-16.306q-.816-8.236-.823-16.6t.834-16.791a169.684,169.684,0,0,1,2.548-16.873,172.439,172.439,0,0,1,10.311-33.177,169.838,169.838,0,0,1,7.465-15.345q4.083-7.417,8.83-14.306t10.088-13.211q5.341-6.323,11.24-12.059t12.284-10.851q6.386-5.114,13.221-9.587t14.053-8.267q7.215-3.793,14.776-6.891t15.393-5.458q7.832-2.361,15.9-3.969t16.306-2.424q8.236-.817,16.6-.823t16.791.834a169.53,169.53,0,0,1,16.873,2.548A172.445,172.445,0,0,1,123.668,393.9a169.493,169.493,0,0,1,15.345,7.465q7.418,4.083,14.306,8.83t13.211,10.088q6.322,5.34,12.059,11.24T189.44,443.8q5.114,6.385,9.587,13.221t8.267,14.052q3.794,7.216,6.891,14.776t5.459,15.392q2.361,7.834,3.969,15.9t2.424,16.306q.817,8.236.823,16.6t-.834,16.791a169.509,169.509,0,0,1-2.548,16.873A171.845,171.845,0,0,1,219.159,600.568Z" transform="translate(749.736 256.507)"/><path class="g" d="M227.91,594.358a194.869,194.869,0,0,1-6.8,18.512,192.255,192.255,0,0,1-8.464,17.4q-4.629,8.41-10.011,16.22T191.2,661.468q-6.056,7.168-12.744,13.672t-13.928,12.3q-7.239,5.8-14.99,10.87t-15.932,9.373q-8.181,4.3-16.753,7.813T99.4,721.688q-8.881,2.677-18.031,4.5t-18.487,2.749q-9.338.925-18.823.933t-19.038-.946a192.375,192.375,0,0,1-19.131-2.889,195.517,195.517,0,0,1-37.616-11.691,192.5,192.5,0,0,1-17.4-8.464q-8.41-4.63-16.22-10.012T-80.321,684.43q-7.168-6.055-13.673-12.744t-12.3-13.928q-5.8-7.24-10.87-14.991t-9.373-15.933q-4.3-8.181-7.813-16.753t-6.188-17.452q-2.677-8.881-4.5-18.03t-2.749-18.488q-.926-9.337-.933-18.823t.947-19.037a192.184,192.184,0,0,1,2.889-19.131A195.478,195.478,0,0,1-133.2,461.5a192.244,192.244,0,0,1,8.464-17.4q4.629-8.411,10.012-16.22t11.438-14.978q6.055-7.167,12.744-13.672t13.928-12.3q7.239-5.8,14.99-10.87t15.933-9.373q8.182-4.3,16.753-7.812t17.452-6.189q8.881-2.677,18.031-4.5t18.488-2.749q9.337-.926,18.823-.933t19.038.946a192.384,192.384,0,0,1,19.131,2.889,195.576,195.576,0,0,1,37.616,11.691,192.219,192.219,0,0,1,17.4,8.464q8.41,4.63,16.22,10.012t14.978,11.438q7.167,6.056,13.672,12.744t12.3,13.928q5.8,7.24,10.87,14.991t9.374,15.932q4.3,8.181,7.812,16.753t6.189,17.452q2.677,8.881,4.5,18.03t2.749,18.488q.926,9.337.933,18.823t-.946,19.037a192.2,192.2,0,0,1-2.89,19.132A194.847,194.847,0,0,1,227.91,594.358Z" transform="translate(762.693 269.464)"/><path class="g" d="M230.357,442.733q3.92,9.572,6.919,19.513t5.031,20.158q2.032,10.219,3.073,20.669t1.043,21.045q0,10.594-1.058,21.285a214.9,214.9,0,0,1-3.23,21.389,218.593,218.593,0,0,1-13.07,42.055A215.2,215.2,0,0,1,219.6,628.3q-5.176,9.4-11.194,18.135t-12.788,16.746q-6.77,8.013-14.248,15.286T165.8,692.219q-8.094,6.482-16.76,12.153t-17.813,10.479q-9.147,4.81-18.73,8.735T92.987,730.5q-9.929,2.994-20.158,5.032T52.16,738.609q-10.44,1.036-21.045,1.043T9.83,738.595a215.02,215.02,0,0,1-21.389-3.23,218.544,218.544,0,0,1-42.055-13.07,214.927,214.927,0,0,1-19.451-9.463q-9.4-5.175-18.135-11.193t-16.746-12.788q-8.014-6.771-15.286-14.248t-13.755-15.572q-6.483-8.094-12.153-16.76t-10.479-17.812q-4.81-9.147-8.735-18.73t-6.919-19.512q-2.994-9.929-5.032-20.159t-3.073-20.669q-1.035-10.439-1.043-21.045t1.057-21.284a215.251,215.251,0,0,1,3.23-21.389,218.627,218.627,0,0,1,13.071-42.055,214.791,214.791,0,0,1,9.463-19.452q5.175-9.4,11.193-18.134t12.788-16.746q6.77-8.014,14.248-15.287t15.571-13.755q8.094-6.482,16.76-12.152t17.813-10.48q9.147-4.809,18.73-8.735t19.512-6.919q9.929-2.994,20.159-5.031t20.669-3.073q10.439-1.035,21.045-1.043t21.284,1.058a214.846,214.846,0,0,1,21.389,3.23,218.555,218.555,0,0,1,42.055,13.07,214.969,214.969,0,0,1,19.452,9.463q9.4,5.175,18.134,11.194t16.746,12.788q8.014,6.77,15.286,14.248T198.99,389.43q6.483,8.094,12.153,16.76T221.623,424" transform="translate(775.65 282.421)"/><path class="g" d="M245.415,581.938a240.839,240.839,0,0,1-8.4,22.882,237.794,237.794,0,0,1-10.462,21.505q-5.722,10.394-12.375,20.048t-14.138,18.514q-7.486,8.86-15.752,16.9t-17.215,15.208q-8.949,7.166-18.529,13.435t-19.693,11.586q-10.113,5.318-20.708,9.657t-21.571,7.649q-10.977,3.31-22.287,5.563t-22.851,3.4q-11.542,1.145-23.267,1.154t-23.531-1.17a237.763,237.763,0,0,1-23.647-3.57A241.768,241.768,0,0,1-75.5,730.244a237.7,237.7,0,0,1-21.505-10.462q-10.4-5.722-20.048-12.375t-18.514-14.138q-8.86-7.485-16.9-15.752T-167.677,660.3q-7.167-8.949-13.435-18.53T-192.7,622.08q-5.317-10.112-9.657-20.707T-210,579.8q-3.31-10.977-5.562-22.286t-3.4-22.851q-1.144-11.542-1.153-23.266t1.169-23.532a237.724,237.724,0,0,1,3.571-23.646,241.629,241.629,0,0,1,14.45-46.495,237.683,237.683,0,0,1,10.462-21.5q5.722-10.4,12.375-20.049t14.139-18.514q7.485-8.86,15.752-16.9t17.215-15.207q8.949-7.167,18.529-13.436t19.693-11.585q10.112-5.318,20.707-9.657t21.572-7.649q10.976-3.309,22.286-5.562t22.851-3.4Q6.2,273.12,17.92,273.111t23.531,1.17A237.561,237.561,0,0,1,65.1,277.852a241.632,241.632,0,0,1,46.495,14.45,237.6,237.6,0,0,1,21.5,10.462q10.4,5.722,20.049,12.375t18.513,14.138q8.861,7.485,16.9,15.752t15.207,17.215q7.167,8.949,13.436,18.529t11.585,19.693q5.317,10.112,9.657,20.708t7.649,21.571q3.309,10.977,5.562,22.286t3.4,22.851q1.144,11.542,1.153,23.266t-1.169,23.531a237.754,237.754,0,0,1-3.571,23.647A240.777,240.777,0,0,1,245.415,581.938Z" transform="translate(788.607 295.379)"/><path class="g" d="M473.135,390.694q7.852,9.8,14.718,20.3t12.692,21.573q5.825,11.078,10.579,22.684" transform="translate(536.971 252.698)"/><path class="g" d="M314.624,270.416a260.5,260.5,0,0,1,23.558,11.461q11.387,6.268,21.963,13.556t20.281,15.489" transform="translate(594.507 296.357)"/><path class="g" d="M261,447.658q2.461,12.376,3.722,25.033t1.263,25.488q0,12.83-1.281,25.778a260.259,260.259,0,0,1-3.912,25.9,263.8,263.8,0,0,1-6.629,25.867,263.8,263.8,0,0,1-9.2,25.067A260.259,260.259,0,0,1,233.5,624.353q-6.267,11.388-13.556,21.963T204.46,666.6q-8.2,9.706-17.256,18.514t-18.859,16.659q-9.8,7.852-20.3,14.719T126.475,729.18Q115.4,735,103.79,739.759t-23.632,8.379q-12.025,3.625-24.414,6.094t-25.032,3.721q-12.645,1.254-25.488,1.264t-25.778-1.281a260.425,260.425,0,0,1-25.9-3.912,264.7,264.7,0,0,1-50.934-15.83,260.459,260.459,0,0,1-23.558-11.461q-11.387-6.268-21.963-13.556t-20.281-15.488q-9.705-8.2-18.513-17.256t-16.659-18.859q-7.852-9.8-14.718-20.3T-225.777,619.7q-5.825-11.078-10.578-22.684t-8.379-23.631q-3.625-12.025-6.094-24.414t-3.722-25.033q-1.253-12.644-1.263-25.487t1.281-25.778a260.269,260.269,0,0,1,3.912-25.9,264.718,264.718,0,0,1,15.83-50.934,260.254,260.254,0,0,1,11.461-23.558q6.267-11.387,13.556-21.963t15.488-20.281q8.2-9.706,17.256-18.514t18.859-16.659q9.8-7.852,20.3-14.718t21.573-12.692q11.078-5.825,22.685-10.579t23.631-8.379q12.025-3.625,24.414-6.094t25.033-3.721q12.644-1.254,25.487-1.264T30.728,238.7a260.6,260.6,0,0,1,25.9,3.912" transform="translate(801.564 308.336)"/><path class="g" d="M498.1,311.254q10.335,10.619,19.563,22.147,9.221,11.511,17.284,23.837,8.056,12.308,14.9,25.334,6.841,13.01,12.423,26.639" transform="translate(527.91 281.533)"/><path class="g" d="M296.456,187.814a309.908,309.908,0,0,1,29.437,10.8,305.725,305.725,0,0,1,27.664,13.459" transform="translate(601.102 326.34)"/><path class="g" d="M279.7,412.913q2.889,14.533,4.371,29.4,1.472,14.848,1.484,29.93,0,15.067-1.5,30.272a305.632,305.632,0,0,1-4.594,30.42,309.959,309.959,0,0,1-7.784,30.376,310.069,310.069,0,0,1-10.8,29.437,305.833,305.833,0,0,1-13.459,27.665q-7.36,13.372-15.919,25.791-8.543,12.41-18.188,23.816-9.629,11.4-20.264,21.741-10.618,10.334-22.146,19.563-11.512,9.22-23.837,17.284-12.308,8.055-25.334,14.9-13.01,6.84-26.639,12.423-13.613,5.574-27.75,9.84-14.122,4.258-28.67,7.156-14.533,2.89-29.4,4.371-14.847,1.472-29.93,1.484-15.067,0-30.272-1.5a305.99,305.99,0,0,1-30.42-4.594,310.059,310.059,0,0,1-30.376-7.784,309.884,309.884,0,0,1-29.437-10.805,305.8,305.8,0,0,1-27.665-13.458q-13.373-7.36-25.791-15.92-12.41-8.543-23.817-18.188-11.4-9.629-21.74-20.264-10.334-10.619-19.563-22.147-9.221-11.511-17.284-23.836-8.056-12.309-14.9-25.334-6.84-13.01-12.423-26.638-5.575-13.613-9.84-27.751-4.258-14.121-7.156-28.67-2.89-14.533-4.371-29.4-1.471-14.848-1.484-29.93,0-15.067,1.5-30.271a305.624,305.624,0,0,1,4.594-30.42,309.95,309.95,0,0,1,7.784-30.376,309.959,309.959,0,0,1,10.805-29.437,305.9,305.9,0,0,1,13.458-27.664q7.36-13.373,15.92-25.792,8.542-12.41,18.188-23.816,9.629-11.4,20.264-21.74,10.619-10.335,22.146-19.564t23.837-17.284q12.309-8.055,25.334-14.9,13.009-6.841,26.638-12.423,13.613-5.574,27.751-9.84,14.121-4.257,28.67-7.156,14.533-2.891,29.4-4.371,14.848-1.472,29.93-1.484,15.066,0,30.271,1.5" transform="translate(827.479 334.25)"/><path class="g" d="M307.048,153.734a332.847,332.847,0,0,1,31.622,11.607A328.455,328.455,0,0,1,368.388,179.8q14.364,7.907,27.705,17.1,13.332,9.177,25.584,19.537,12.244,10.344,23.354,21.768,11.1,11.406,21.015,23.79,9.9,12.365,18.567,25.606" transform="translate(597.257 338.71)"/><path class="g" d="M268.816,588.719a328.273,328.273,0,0,1-14.457,29.718q-7.907,14.365-17.1,27.706-9.177,13.332-19.537,25.584-10.344,12.243-21.768,23.354-11.407,11.1-23.79,21.015Q159.8,726,146.556,734.663q-13.222,8.653-27.214,16.01-13.975,7.348-28.616,13.345-14.624,5.987-29.811,10.57-15.169,4.573-30.8,7.687-15.611,3.1-31.578,4.695-15.95,1.581-32.152,1.594-16.185,0-32.518-1.615a328.71,328.71,0,0,1-32.678-4.935,332.924,332.924,0,0,1-32.63-8.362,333.038,333.038,0,0,1-31.622-11.606,328.516,328.516,0,0,1-29.718-14.458q-14.365-7.907-27.706-17.1-13.332-9.177-25.584-19.538-12.244-10.344-23.354-21.768-11.1-11.406-21.015-23.79-9.9-12.366-18.567-25.606-8.653-13.223-16.01-27.215-7.348-13.975-13.345-28.616-5.987-14.623-10.57-29.81-4.573-15.17-7.687-30.8-3.1-15.611-4.695-31.578-1.581-15.95-1.594-32.152,0-16.185,1.616-32.519a328.51,328.51,0,0,1,4.935-32.677,332.732,332.732,0,0,1,8.362-32.63,332.855,332.855,0,0,1,11.607-31.622,328.631,328.631,0,0,1,14.458-29.718q7.906-14.364,17.1-27.705,9.177-13.332,19.538-25.585,10.344-12.243,21.767-23.354,11.407-11.1,23.79-21.015,12.366-9.9,25.606-18.567,13.223-8.654,27.214-16.011,13.975-7.347,28.616-13.344,14.623-5.988,29.81-10.571,15.169-4.573,30.8-7.687,15.611-3.1,31.578-4.695,15.95-1.581,32.152-1.594" transform="translate(840.436 347.207)"/><path class="g" d="M660.535,546.664q3.1,15.611,4.695,31.578,1.581,15.95,1.594,32.152,0,16.185-1.616,32.519" transform="translate(468.948 196.084)"/><path class="g" d="M664.909,438.017q6.4,15.633,11.3,31.869,4.889,16.217,8.218,32.926,3.32,16.69,5.02,33.76,1.69,17.052,1.7,34.374" transform="translate(467.361 235.521)"/><path class="g" d="M467.082,192.1q14.253,9.811,27.352,20.888,13.09,11.058,24.967,23.271,11.869,12.2,22.467,25.434" transform="translate(539.168 324.785)"/><path class="g" d="M153.461,94.627q17.3,0,34.765,1.728a351.162,351.162,0,0,1,34.935,5.276,357.046,357.046,0,0,1,68.691,21.348" transform="translate(653.006 360.165)"/><path class="g" d="M289.175,554.718a355.878,355.878,0,0,1-12.409,33.807A351.1,351.1,0,0,1,261.31,620.3q-8.454,15.357-18.283,29.62-9.811,14.253-20.888,27.352-11.058,13.09-23.272,24.968Q186.673,714.1,173.434,724.7q-13.221,10.588-27.375,19.849-14.136,9.251-29.095,17.117-14.94,7.855-30.593,14.267-15.634,6.4-31.87,11.3-16.217,4.89-32.926,8.218-16.689,3.319-33.76,5.019-17.051,1.69-34.373,1.7-17.3,0-34.765-1.728a351.137,351.137,0,0,1-34.935-5.276,355.843,355.843,0,0,1-34.885-8.94,355.843,355.843,0,0,1-33.807-12.409,351.241,351.241,0,0,1-31.771-15.456q-15.357-8.454-29.62-18.283-14.253-9.81-27.352-20.887-13.089-11.058-24.967-23.272-11.869-12.194-22.467-25.434-10.589-13.221-19.85-27.375-9.25-14.136-17.116-29.095-7.855-14.941-14.267-30.593-6.4-15.634-11.3-31.87-4.889-16.217-8.218-32.926-3.32-16.69-5.019-33.76-1.691-17.051-1.7-34.373,0-17.3,1.728-34.765A351.2,351.2,0,0,1-391.6,380.8a356.091,356.091,0,0,1,8.941-34.885,355.8,355.8,0,0,1,12.409-33.806,351.105,351.105,0,0,1,15.456-31.771q8.454-15.358,18.282-29.62,9.811-14.253,20.888-27.352,11.058-13.09,23.272-24.967,12.194-11.869,25.434-22.467,13.221-10.589,27.375-19.85,14.136-9.251,29.095-17.117,14.941-7.855,30.593-14.267,15.634-6.4,31.87-11.3,16.217-4.889,32.926-8.218" transform="translate(853.393 356.334)"/><path class="g" d="M507.581,133.3q16.1,11.079,30.887,23.588,14.781,12.487,28.195,26.279,13.4,13.771,25.371,28.721,11.958,14.929,22.415,30.913,10.447,15.962,19.329,32.855,8.87,16.871,16.111,34.547,7.229,17.655,12.761,35.99,5.522,18.313,9.281,37.181,3.748,18.848,5.668,38.124,1.908,19.256,1.924,38.816,0,19.54-1.951,39.259a396.528,396.528,0,0,1-5.958,39.451,401.661,401.661,0,0,1-10.1,39.393" transform="translate(524.467 346.126)"/><path class="g" d="M275.212,612.521q-9.546,17.342-20.646,33.448-11.079,16.095-23.588,30.887-12.488,14.782-26.279,28.2-13.771,13.4-28.721,25.371-14.929,11.958-30.913,22.416Q129.1,763.285,112.21,772.167q-16.872,8.871-34.547,16.111-17.655,7.229-35.99,12.761-18.314,5.521-37.182,9.28-18.847,3.748-38.124,5.668-19.256,1.909-38.816,1.924-19.539,0-39.258-1.951A396.54,396.54,0,0,1-151.157,810a402.024,402.024,0,0,1-39.393-10.1,401.791,401.791,0,0,1-38.177-14.013A396.6,396.6,0,0,1-264.6,768.441q-17.343-9.546-33.449-20.645-16.094-11.079-30.887-23.588-14.781-12.488-28.195-26.28-13.4-13.771-25.371-28.721-11.958-14.929-22.416-30.913-10.447-15.963-19.328-32.855-8.871-16.872-16.111-34.547-7.229-17.655-12.761-35.989-5.522-18.314-9.281-37.182-3.748-18.847-5.668-38.124-1.909-19.256-1.924-38.816,0-19.54,1.951-39.258a396.366,396.366,0,0,1,5.957-39.451,401.86,401.86,0,0,1,10.1-39.393A401.716,401.716,0,0,1-437.978,264.5a396.483,396.483,0,0,1,17.454-35.878q9.546-17.342,20.646-33.448,11.079-16.095,23.588-30.887,12.488-14.781,26.28-28.195,13.77-13.4,28.721-25.371,14.93-11.957,30.913-22.415,15.963-10.447,32.855-19.329,16.872-8.871,34.548-16.111,17.654-7.229,35.989-12.761,18.314-5.521,37.182-9.28,18.847-3.749,38.124-5.668,19.256-1.909,38.816-1.924,19.54,0,39.258,1.951A396.726,396.726,0,0,1,5.844,31.142a402.006,402.006,0,0,1,39.394,10.1" transform="translate(879.308 386.079)"/><path class="g" d="M334.465,407.4q0,20.658-2.063,41.505a419.286,419.286,0,0,1-6.3,41.709,424.988,424.988,0,0,1-10.673,41.648,424.907,424.907,0,0,1-14.815,40.361,419.215,419.215,0,0,1-18.453,37.931q-10.092,18.336-21.827,35.363-11.714,17.016-24.937,32.655-13.2,15.627-27.784,29.808-14.558,14.17-30.365,26.823-15.783,12.642-32.682,23.7-16.877,11.045-34.735,20.435Q92,788.709,73.308,796.364q-18.665,7.642-38.049,13.492Q15.9,815.693-4.05,819.667q-19.926,3.963-40.306,5.992-20.358,2.018-41.037,2.035-20.658,0-41.505-2.063a419.261,419.261,0,0,1-41.709-6.3,424.817,424.817,0,0,1-41.648-10.673,424.952,424.952,0,0,1-40.361-14.815,419.313,419.313,0,0,1-37.931-18.453q-18.335-10.092-35.362-21.828-17.016-11.713-32.655-24.937-15.628-13.2-29.808-27.783-14.17-14.559-26.823-30.365-12.643-15.784-23.7-32.682-11.045-16.877-20.436-34.735-9.379-17.837-17.033-36.524-7.642-18.665-13.491-38.049-5.837-19.362-9.811-39.309-3.963-19.926-5.992-40.306-2.018-20.358-2.035-41.037,0-20.658,2.063-41.506a419.428,419.428,0,0,1,6.3-41.708,425.054,425.054,0,0,1,10.674-41.648,424.727,424.727,0,0,1,14.814-40.36,419.212,419.212,0,0,1,18.453-37.931q10.092-18.335,21.828-35.363,11.713-17.015,24.937-32.654,13.2-15.628,27.783-29.809,14.559-14.17,30.365-26.823,15.783-12.642,32.682-23.7Q-298.918,45.29-281.06,35.9q17.837-9.379,36.524-17.033,18.665-7.643,38.049-13.492,19.361-5.837,39.309-9.811,19.926-3.963,40.306-5.992,20.358-2.018,41.037-2.034,20.658,0,41.505,2.063A419.234,419.234,0,0,1-2.62-4.1,424.815,424.815,0,0,1,39.028,6.571,424.922,424.922,0,0,1,79.389,21.386,419.218,419.218,0,0,1,117.32,39.839q18.335,10.091,35.362,21.827Q169.7,73.38,185.337,86.6" transform="translate(892.265 399.036)"/><path class="g" d="M785.191,457.232q5.837,19.362,9.812,39.309" transform="translate(423.701 228.546)"/><path class="g" d="M667.992,234.334q12.643,15.783,23.7,32.682,11.045,16.876,20.435,34.735" transform="translate(466.242 309.454)"/><path class="g" d="M324.183,526.046a447.634,447.634,0,0,1-15.617,42.546,441.925,441.925,0,0,1-19.451,39.984q-10.639,19.328-23.009,37.276-12.347,17.937-26.287,34.423Q225.9,696.749,210.531,711.7q-15.348,14.936-32.009,28.275-16.638,13.326-34.451,24.982-17.79,11.642-36.615,21.541-18.8,9.887-38.5,17.955-19.676,8.057-40.109,14.222-20.41,6.154-41.438,10.343-21,4.177-42.487,6.317-21.459,2.127-43.259,2.144-21.776,0-43.752-2.174a441.946,441.946,0,0,1-43.966-6.639,448.022,448.022,0,0,1-43.9-11.251A448.032,448.032,0,0,1-272.5,801.795a441.771,441.771,0,0,1-39.984-19.452q-19.328-10.638-37.277-23.008-17.936-12.347-34.423-26.287-16.472-13.917-31.422-29.288-14.936-15.347-28.275-32.008-13.327-16.639-24.981-34.451-11.643-17.79-21.541-36.616-9.886-18.8-17.954-38.5-8.057-19.675-14.222-40.109-6.154-20.409-10.343-41.437-4.178-21-6.317-42.487-2.128-21.46-2.145-43.259,0-21.776,2.175-43.752a441.921,441.921,0,0,1,6.639-43.966,447.948,447.948,0,0,1,11.251-43.9,448.035,448.035,0,0,1,15.617-42.546,441.862,441.862,0,0,1,19.452-39.984q10.638-19.327,23.009-37.276,12.347-17.937,26.287-34.423,13.917-16.473,29.287-31.422,15.348-14.937,32.009-28.275,16.638-13.326,34.451-24.981,17.79-11.643,36.616-21.541,18.8-9.887,38.5-17.955,19.676-8.056,40.109-14.222,20.41-6.153,41.438-10.343,21-4.177,42.487-6.317Q-120.6-48.143-98.8-48.16q21.777,0,43.752,2.174a441.907,441.907,0,0,1,43.966,6.64A447.826,447.826,0,0,1,32.818-28.1,447.944,447.944,0,0,1,75.364-12.479,442.1,442.1,0,0,1,115.348,6.973q19.328,10.639,37.277,23.009,17.937,12.347,34.423,26.287,16.473,13.916,31.422,29.287,14.937,15.347,28.275,32.008,13.327,16.639,24.981,34.451,11.643,17.79,21.542,36.616,9.886,18.8,17.955,38.5,8.056,19.675,14.221,40.109,6.154,20.409,10.343,41.437,4.178,21,6.317,42.488,2.128,21.459,2.145,43.259,0,21.776-2.174,43.752a442.092,442.092,0,0,1-6.64,43.967A447.944,447.944,0,0,1,324.183,526.046Z" transform="translate(905.222 411.993)"/><path class="g" d="M870.623,505.078q4.392,22.083,6.641,44.67,2.237,22.561,2.255,45.48,0,22.895-2.286,46" transform="translate(392.691 211.179)"/><path class="g" d="M800.448,306.95q10.394,19.768,18.877,40.478" transform="translate(418.163 283.096)"/><path class="g" d="M568.329,45.11q18.858,12.982,36.19,27.637,17.319,14.632,33.036,30.791,15.7,16.136,29.727,33.652" transform="translate(502.417 378.138)"/><path class="g" d="M332.935,519.836a470.819,470.819,0,0,1-16.418,44.73A464.8,464.8,0,0,1,296.066,606.6q-11.184,20.319-24.19,39.191-12.982,18.858-27.637,36.19-14.632,17.319-30.792,33.035-16.135,15.7-33.652,29.727-17.493,14.01-36.221,26.264-18.7,12.241-38.5,22.648Q85.31,804.053,64.6,812.537q-20.685,8.47-42.168,14.952Q.974,833.958-21.134,838.363-43.216,842.753-65.8,845q-22.562,2.237-45.48,2.254-22.895,0-46-2.286a464.627,464.627,0,0,1-46.224-6.981,471.011,471.011,0,0,1-46.157-11.829,470.851,470.851,0,0,1-44.731-16.419,464.575,464.575,0,0,1-42.038-20.45q-20.32-11.185-39.191-24.191-18.858-12.981-36.19-27.637-17.319-14.631-33.035-30.791-15.7-16.135-29.727-33.653-14.01-17.492-26.264-36.22-12.24-18.7-22.647-38.5-10.393-19.768-18.877-40.479-8.47-20.686-14.952-42.168-6.47-21.458-10.874-43.565-4.392-22.083-6.641-44.669-2.237-22.562-2.254-45.481-.006-22.893,2.286-46a464.565,464.565,0,0,1,6.98-46.224,470.926,470.926,0,0,1,11.829-46.157,471.06,471.06,0,0,1,16.418-44.73A464.682,464.682,0,0,1-519.121,156.8q11.184-20.32,24.191-39.191,12.981-18.857,27.637-36.19Q-452.662,64.1-436.5,48.38q16.135-15.7,33.652-29.727,17.492-14.011,36.22-26.264,18.7-12.24,38.5-22.647,19.768-10.394,40.479-18.877,20.686-8.471,42.168-14.953,21.457-6.469,43.565-10.873,22.083-4.392,44.669-6.642,22.562-2.236,45.481-2.254,22.894,0,46,2.286a464.627,464.627,0,0,1,46.224,6.98A470.9,470.9,0,0,1,26.608-62.762,470.84,470.84,0,0,1,71.338-46.344" transform="translate(918.179 424.951)"/><path class="g" d="M824.6,207.4q13.437,20.531,24.86,42.257,11.41,21.7,20.721,44.433,9.3,22.707,16.413,46.288,7.1,23.554,11.936,47.82,4.821,24.241,7.29,49.033" transform="translate(409.397 319.231)"/><path class="g" d="M371.085,406.01a510.018,510.018,0,0,1-7.662,50.74,516.9,516.9,0,0,1-12.984,50.665,516.932,516.932,0,0,1-18.022,49.1,510.2,510.2,0,0,1-22.449,46.144q-12.278,22.3-26.553,43.019-14.25,20.7-30.337,39.726-16.062,19.011-33.8,36.263-17.711,17.238-36.94,32.631-19.2,15.379-39.759,28.83-20.531,13.436-42.256,24.86-21.7,11.409-44.433,20.721-22.707,9.3-46.288,16.413-23.554,7.1-47.821,11.936-24.24,4.821-49.033,7.29-24.765,2.455-49.923,2.475-25.13.006-50.492-2.509a510.248,510.248,0,0,1-50.74-7.662,517.094,517.094,0,0,1-50.665-12.984,516.924,516.924,0,0,1-49.1-18.023A509.913,509.913,0,0,1-384.316,803.2q-22.3-12.277-43.019-26.554-20.7-14.249-39.726-30.337-19.011-16.06-36.262-33.8-17.238-17.712-32.631-36.94-15.379-19.2-28.83-39.759-13.437-20.531-24.86-42.257-11.409-21.7-20.721-44.433-9.3-22.706-16.413-46.287-7.1-23.555-11.936-47.821-4.821-24.241-7.29-49.033-2.456-24.766-2.475-49.923-.006-25.131,2.509-50.492a510.009,510.009,0,0,1,7.662-50.74,517,517,0,0,1,12.984-50.666,516.979,516.979,0,0,1,18.022-49.1,510.222,510.222,0,0,1,22.449-46.144q12.277-22.306,26.554-43.02,14.25-20.7,30.337-39.725Q-511.9,7.156-494.163-10.1q17.712-17.238,36.94-32.631,19.2-15.379,39.759-28.83,20.531-13.437,42.257-24.86,21.7-11.409,44.433-20.72,22.706-9.3,46.287-16.413,23.554-7.1,47.821-11.936,24.24-4.821,49.033-7.289,24.765-2.456,49.923-2.475,25.13,0,50.492,2.509a510.163,510.163,0,0,1,50.74,7.663,516.781,516.781,0,0,1,50.666,12.984,516.812,516.812,0,0,1,49.1,18.022,510.058,510.058,0,0,1,46.144,22.449q22.3,12.278,43.02,26.554,20.7,14.249,39.725,30.337,19.011,16.061,36.263,33.8" transform="translate(944.094 450.865)"/><path class="g" d="M929.185,329.979q9.711,23.717,17.143,48.347,7.418,24.6,12.467,49.949,5.036,25.32,7.614,51.215,2.565,25.867,2.585,52.145" transform="translate(371.434 274.737)"/><path class="g" d="M372.753,448.286a539.921,539.921,0,0,1-13.562,52.92,539.665,539.665,0,0,1-18.824,51.285,532.543,532.543,0,0,1-23.447,48.2q-12.823,23.3-27.735,44.934Q274.3,667.243,257.5,687.115q-16.775,19.857-35.3,37.877-18.5,18-38.584,34.083-20.056,16.063-41.528,30.112-21.444,14.035-44.137,25.966Q75.282,827.07,51.536,836.8q-23.717,9.711-48.347,17.143-24.6,7.417-49.949,12.467-25.319,5.035-51.215,7.614-25.868,2.565-52.145,2.585-26.249.006-52.739-2.621a532.674,532.674,0,0,1-53-8,539.882,539.882,0,0,1-52.92-13.562A539.92,539.92,0,0,1-360.061,833.6a532.86,532.86,0,0,1-48.2-23.448q-23.3-12.824-44.934-27.735-21.622-14.883-41.493-31.687-19.858-16.776-37.877-35.3-18-18.5-34.083-38.584-16.063-20.056-30.113-41.528-14.035-21.444-25.966-44.137-11.917-22.665-21.643-46.41-9.712-23.717-17.143-48.347-7.418-24.6-12.467-49.949-5.035-25.319-7.614-51.215-2.565-25.868-2.585-52.145-.006-26.248,2.621-52.739a532.882,532.882,0,0,1,8-53,539.873,539.873,0,0,1,13.562-52.92,539.873,539.873,0,0,1,18.824-51.285,532.779,532.779,0,0,1,23.447-48.2q12.823-23.3,27.735-44.933Q-575.1,18.415-558.3-1.457q16.775-19.857,35.3-37.876,18.5-18.005,38.584-34.083,20.056-16.063,41.528-30.113,21.444-14.034,44.137-25.966,22.665-11.916,46.41-21.643,23.717-9.711,48.347-17.143,24.6-7.417,49.949-12.466,25.319-5.036,51.215-7.614,25.868-2.565,52.145-2.585,26.249-.006,52.739,2.621a532.846,532.846,0,0,1,53,8,540.049,540.049,0,0,1,52.92,13.562,539.945,539.945,0,0,1,51.285,18.825,532.71,532.71,0,0,1,48.2,23.447q23.3,12.823,44.933,27.735,21.622,14.883,41.494,31.687,19.857,16.775,37.876,35.3,18,18.5,34.083,38.583,16.064,20.057,30.113,41.528,14.034,21.445,25.966,44.137" transform="translate(957.051 463.822)"/><path class="g" d="M391.412,431.356a585.887,585.887,0,0,1-14.718,57.429,585.783,585.783,0,0,1-20.428,55.655,578.173,578.173,0,0,1-25.445,52.3q-13.916,25.282-30.1,48.762-16.152,23.463-34.387,45.028-18.2,21.549-38.311,41.1-20.076,19.538-41.871,36.987Q164.39,786.057,141.089,801.3q-23.272,15.23-47.9,28.179-24.6,12.932-50.364,23.487-25.738,10.539-52.467,18.6-26.7,8.049-54.2,13.529-27.476,5.465-55.578,8.263-28.072,2.782-56.588,2.8-28.485.007-57.232-2.844a578.2,578.2,0,0,1-57.513-8.685,585.984,585.984,0,0,1-57.429-14.718A585.972,585.972,0,0,1-403.839,849.5a578.285,578.285,0,0,1-52.3-25.445q-25.282-13.916-48.762-30.1-23.464-16.151-45.028-34.386-21.549-18.2-41.1-38.311-19.539-20.076-36.987-41.871-17.432-21.765-32.678-45.067-15.23-23.271-28.178-47.9-12.933-24.6-23.488-50.364-10.538-25.738-18.6-52.466-8.049-26.7-13.529-54.2-5.465-27.476-8.263-55.578-2.782-28.073-2.805-56.588-.006-28.485,2.844-57.232a578.288,578.288,0,0,1,8.685-57.513,586.127,586.127,0,0,1,14.718-57.429,585.921,585.921,0,0,1,20.428-55.655,578.149,578.149,0,0,1,25.445-52.3q13.916-25.282,30.1-48.763Q-637.2-35.14-618.965-56.706q18.2-21.549,38.311-41.1,20.076-19.539,41.871-36.987,21.765-17.433,45.067-32.679,23.271-15.23,47.9-28.179,24.6-12.932,50.365-23.487,25.737-10.539,52.466-18.6,26.7-8.048,54.2-13.529,27.476-5.464,55.578-8.263,28.072-2.783,56.588-2.805,28.485-.007,57.232,2.844a578.213,578.213,0,0,1,57.513,8.685A585.824,585.824,0,0,1-4.444-236.094a585.8,585.8,0,0,1,55.655,20.428,577.927,577.927,0,0,1,52.3,25.445q25.282,13.916,48.762,30.1,23.464,16.151,45.029,34.387,21.548,18.2,41.1,38.311Q257.948-67.349,275.4-45.554" transform="translate(982.966 489.737)"/><path class="g" d="M995.254,302.97q10.538,25.738,18.6,52.467,8.049,26.7,13.53,54.2,5.464,27.475,8.263,55.578,2.783,28.072,2.805,56.587" transform="translate(347.452 284.54)"/><path class="g" d="M270.757,692.245q-18.919,22.395-39.815,42.717-20.864,20.306-43.515,38.438-22.618,18.117-46.835,33.961-24.185,15.828-49.778,29.285-25.561,13.44-52.341,24.409-26.748,10.952-54.526,19.334-27.746,8.365-56.332,14.06-28.554,5.679-57.76,8.588-29.174,2.891-58.809,2.915-29.6.007-59.479-2.956a600.727,600.727,0,0,1-59.771-9.026,608.874,608.874,0,0,1-59.684-15.3,609,609,0,0,1-57.84-21.23A600.633,600.633,0,0,1-480.085,831q-26.275-14.463-50.677-31.28-24.384-16.786-46.8-35.737-22.395-18.919-42.717-39.815-20.306-20.864-38.439-43.514-18.116-22.619-33.961-46.836-15.828-24.184-29.285-49.777-13.44-25.561-24.409-52.341-10.952-26.749-19.334-54.526-8.366-27.746-14.06-56.332-5.679-28.555-8.588-57.76-2.892-29.174-2.915-58.809-.007-29.6,2.956-59.479a600.715,600.715,0,0,1,9.026-59.771,608.83,608.83,0,0,1,15.3-59.684,608.661,608.661,0,0,1,21.23-57.84,600.722,600.722,0,0,1,26.444-54.358q14.462-26.275,31.28-50.676,16.786-24.385,35.737-46.8,18.919-22.395,39.815-42.717,20.863-20.305,43.514-38.438,22.619-18.117,46.836-33.961,24.184-15.827,49.777-29.284,25.561-13.44,52.341-24.409,26.748-10.953,54.526-19.335,27.746-8.365,56.332-14.06,28.555-5.678,57.76-8.587,29.174-2.892,58.809-2.916,29.6-.007,59.479,2.956a600.923,600.923,0,0,1,59.771,9.026,609.057,609.057,0,0,1,59.684,15.3,608.989,608.989,0,0,1,57.839,21.23,600.9,600.9,0,0,1,54.358,26.444q26.274,14.463,50.676,31.28,24.384,16.785,46.8,35.736,22.395,18.919,42.717,39.815,20.305,20.864,38.438,43.515,18.117,22.618,33.961,46.835Q329.961-1.72,343.418,23.872" transform="translate(995.923 502.694)"/><path class="g" d="M1007.554,1018.172a600.91,600.91,0,0,1-26.445,54.358" transform="translate(352.586 24.936)"/><path class="g" d="M1097.085,646.484q.006,29.6-2.956,59.479" transform="translate(311.562 159.852)"/><path class="g" d="M1058.639,375.061q8.366,27.747,14.06,56.333" transform="translate(324.445 258.373)"/><path class="g" d="M1061.323,275.961q11.366,27.759,20.064,56.586,8.682,28.794,14.592,58.461,5.893,29.633,8.912,59.942" transform="translate(323.47 294.344)"/><path class="g" d="M786.313-102.454q23.24,19.634,44.33,41.318,21.072,21.652,39.891,45.158,18.8,23.474,35.244,48.6" transform="translate(423.293 431.701)"/><path class="g" d="M410.072,414.427A632.036,632.036,0,0,1,394.2,476.365a631.979,631.979,0,0,1-22.032,60.024A623.721,623.721,0,0,1,344.724,592.8q-15.009,27.267-32.461,52.59-17.42,25.306-37.087,48.564-19.634,23.241-41.319,44.331-21.651,21.072-45.158,39.89-23.474,18.8-48.6,35.245Q115,829.845,88.436,843.81,61.91,857.758,34.118,869.141,6.359,880.507-22.468,889.206q-28.795,8.681-58.461,14.592-29.633,5.893-59.942,8.912-30.276,3-61.03,3.025-30.722.007-61.726-3.067a623.586,623.586,0,0,1-62.029-9.367,631.765,631.765,0,0,1-61.938-15.873A631.968,631.968,0,0,1-447.617,865.4a623.6,623.6,0,0,1-56.411-27.444q-27.268-15.009-52.591-32.461-25.306-17.419-48.564-37.086-23.241-19.634-44.331-41.319-21.072-21.652-39.89-45.158-18.8-23.473-35.244-48.6-16.426-25.1-30.391-51.658-13.947-26.526-25.331-54.319-11.366-27.758-20.064-56.586-8.681-28.794-14.592-58.46-5.893-29.634-8.912-59.942-3-30.275-3.025-61.03-.007-30.721,3.067-61.726a623.428,623.428,0,0,1,9.367-62.029,631.826,631.826,0,0,1,15.873-61.938,632.116,632.116,0,0,1,22.032-60.024A623.556,623.556,0,0,1-749.181-10.8q15.009-27.268,32.461-52.591,17.42-25.305,37.087-48.564,19.634-23.24,41.319-44.33,21.652-21.073,45.158-39.891,23.474-18.8,48.6-35.244,25.1-16.427,51.658-30.391,26.526-13.948,54.318-25.331,27.759-11.366,56.586-20.065,28.795-8.681,58.461-14.591,29.633-5.894,59.942-8.912,30.276-3,61.03-3.026,30.722-.007,61.726,3.068A623.412,623.412,0,0,1-78.8-321.3a632.019,632.019,0,0,1,61.939,15.873A631.776,631.776,0,0,1,43.161-283.4a623.386,623.386,0,0,1,56.411,27.443" transform="translate(1008.88 515.651)"/><path class="g" d="M419.4,405.963a654.857,654.857,0,0,1-16.451,64.193,654.984,654.984,0,0,1-22.833,62.209,646.248,646.248,0,0,1-28.442,58.464q-15.555,28.261-33.643,54.505Q299.978,671.56,279.6,695.665q-20.348,24.086-42.822,45.944-22.441,21.84-46.8,41.343-24.328,19.485-50.374,36.527-26.012,17.024-53.538,31.5-27.493,14.455-56.3,26.253-28.77,11.78-58.646,20.795-29.842,9-60.588,15.122-30.712,6.108-62.123,9.236-31.378,3.111-63.252,3.136-31.84.007-63.973-3.179a646.337,646.337,0,0,1-64.287-9.708A655.21,655.21,0,0,1-407.3,896.18a654.915,654.915,0,0,1-62.209-22.834A646.351,646.351,0,0,1-527.971,844.9q-28.26-15.555-54.5-33.643-26.226-18.054-50.332-38.436Q-656.894,752.475-678.751,730q-21.84-22.44-41.343-46.8-19.485-24.328-36.527-50.374-17.024-26.011-31.5-53.538-14.455-27.493-26.253-56.3-11.78-28.769-20.795-58.645-9-29.842-15.123-60.588-6.107-30.712-9.236-62.124-3.11-31.378-3.135-63.252-.007-31.84,3.179-63.973a646.278,646.278,0,0,1,9.708-64.286,654.958,654.958,0,0,1,16.451-64.193,654.9,654.9,0,0,1,22.834-62.209,646.2,646.2,0,0,1,28.442-58.464Q-766.491-63-748.4-89.247q18.054-26.227,38.437-50.332,20.348-24.087,42.822-45.944,22.441-21.84,46.8-41.343,24.329-19.485,50.374-36.527,26.012-17.024,53.538-31.5,27.493-14.455,56.3-26.254,28.769-11.78,58.645-20.795,29.842-9,60.588-15.122,30.712-6.108,62.123-9.236,31.378-3.111,63.252-3.135,31.84-.008,63.973,3.179a646.116,646.116,0,0,1,64.286,9.708,654.767,654.767,0,0,1,64.192,16.451A654.828,654.828,0,0,1,39.135-317.26,646.209,646.209,0,0,1,97.6-288.817" transform="translate(1021.837 528.608)"/><path class="g" d="M1094.357,262.456q11.78,28.769,20.795,58.646,9,29.842,15.123,60.588,6.108,30.712,9.236,62.123" transform="translate(311.48 299.246)"/><path class="g" d="M809.337-129.733q24.087,20.349,45.944,42.823,21.839,22.44,41.343,46.8" transform="translate(414.936 441.603)"/><path class="g" d="M1084.732,157.475q14.963,28.458,27.175,58.273,12.193,29.779,21.525,60.7,9.313,30.89,15.654,62.717,6.322,31.79,9.56,64.305,3.22,32.479,3.246,65.473.008,32.959-3.291,66.22" transform="translate(314.973 337.352)"/><path class="g" d="M411.7,463.945a677.894,677.894,0,0,1-23.635,64.394,668.919,668.919,0,0,1-29.441,60.518q-16.1,29.252-34.825,56.419-18.688,27.148-39.786,52.1-21.064,24.933-44.327,47.558-23.228,22.606-48.445,42.794Q166.061,807.9,139.1,825.536q-26.926,17.622-55.419,32.6Q55.224,873.1,25.409,885.314-4.37,897.508-35.3,906.84q-30.891,9.313-62.717,15.654-31.791,6.322-64.305,9.56-32.48,3.22-65.474,3.246-32.958.007-66.22-3.291a668.918,668.918,0,0,1-66.544-10.049A677.989,677.989,0,0,1-427,904.931,677.952,677.952,0,0,1-491.4,881.3a669.005,669.005,0,0,1-60.517-29.441q-29.253-16.1-56.419-34.824-27.148-18.688-52.1-39.786-24.933-21.064-47.558-44.327-22.606-23.228-42.794-48.445-20.169-25.183-37.81-52.143-17.622-26.925-32.6-55.418-14.963-28.459-27.175-58.273-12.194-29.78-21.525-60.706-9.314-30.89-15.654-62.716-6.323-31.79-9.561-64.306-3.22-32.48-3.246-65.473-.007-32.958,3.291-66.219a669,669,0,0,1,10.049-66.544,677.77,677.77,0,0,1,17.029-66.447A677.852,677.852,0,0,1-844.353,1.833a669,669,0,0,1,29.441-60.518q16.1-29.253,34.824-56.419,18.688-27.148,39.786-52.1,21.064-24.933,44.327-47.557,23.228-22.607,48.445-42.8,25.182-20.169,52.143-37.81,26.925-17.621,55.418-32.6,28.458-14.964,58.273-27.175,29.78-12.193,60.705-21.525,30.89-9.314,62.716-15.654,31.79-6.322,64.305-9.56,32.48-3.22,65.474-3.246,32.958-.008,66.22,3.291a668.752,668.752,0,0,1,66.544,10.048A678.136,678.136,0,0,1-29.284-374.76,677.926,677.926,0,0,1,35.11-351.124a668.835,668.835,0,0,1,60.517,29.441q29.253,16.1,56.42,34.825,27.148,18.687,52.1,39.786" transform="translate(1034.795 541.566)"/><path class="g" d="M138.6,831.595Q110.764,849.814,81.3,865.3q-29.423,15.471-60.249,28.1-30.79,12.607-62.765,22.255-31.939,9.629-64.844,16.185-32.869,6.537-66.487,9.885-33.582,3.33-67.695,3.356-34.076.008-68.466-3.4A691.493,691.493,0,0,1-378,931.29a700.963,700.963,0,0,1-68.7-17.607,700.9,700.9,0,0,1-66.579-24.437,691.745,691.745,0,0,1-62.571-30.439Q-606.1,842.158-634.189,822.8q-28.069-19.322-53.867-41.136-25.778-21.778-49.171-45.831-23.374-24.017-44.247-50.089-20.854-26.037-39.093-53.912-18.219-27.838-33.709-57.3-15.471-29.424-28.1-60.25-12.607-30.79-22.256-62.764-9.629-31.939-16.185-64.844-6.537-32.869-9.885-66.488-3.329-33.581-3.356-67.694-.007-34.077,3.4-68.466a691.507,691.507,0,0,1,10.39-68.8,700.773,700.773,0,0,1,17.606-68.7,700.88,700.88,0,0,1,24.438-66.578,691.671,691.671,0,0,1,30.439-62.571q16.648-30.245,36.006-58.333,19.322-28.07,41.136-53.867Q-748.858-220.606-724.8-244q24.016-23.373,50.089-44.246,26.036-20.854,53.912-39.093,27.838-18.22,57.3-33.71,29.424-15.47,60.249-28.1,30.79-12.607,62.765-22.255,31.939-9.63,64.844-16.185,32.869-6.536,66.487-9.885,33.582-3.329,67.695-3.356,34.077-.008,68.466,3.4a691.672,691.672,0,0,1,68.8,10.39,700.915,700.915,0,0,1,68.7,17.607,700.821,700.821,0,0,1,66.579,24.437,691.572,691.572,0,0,1,62.571,30.44Q123.9-337.9,151.988-318.543q28.07,19.322,53.867,41.136,25.778,21.778,49.172,45.831,23.373,24.016,44.246,50.089,20.854,26.037,39.093,53.912" transform="translate(1047.752 554.523)"/><path class="g" d="M958.905,1348.614q-21.777,25.779-45.83,49.172" transform="translate(377.281 -95.007)"/><path class="g" d="M1180.314,333.976q9.63,31.939,16.185,64.844,6.537,32.868,9.885,66.487,3.329,33.582,3.356,67.695.007,34.076-3.4,68.466a691.777,691.777,0,0,1-10.39,68.8A703.148,703.148,0,0,1,1153.9,805.551" transform="translate(289.866 273.286)"/><path class="g" d="M901.435-238.847q27.471,23.208,52.4,48.839" transform="translate(381.506 481.209)"/><path class="g" d="M195.06,802.052q-27.746,22.223-57.45,41.659-29.666,19.415-61.06,35.922-31.355,16.486-64.2,29.941-32.811,13.435-66.884,23.716-34.035,10.26-69.1,17.247-35.026,6.966-70.851,10.534-35.787,3.548-72.137,3.576-36.314.008-72.96-3.626A737.023,737.023,0,0,1-412.9,949.949a746.916,746.916,0,0,1-73.21-18.762,746.775,746.775,0,0,1-70.949-26.041,737.118,737.118,0,0,1-66.677-32.438q-32.23-17.74-62.162-38.369-29.912-20.59-57.4-43.836-27.471-23.207-52.4-48.839-24.908-25.593-47.15-53.377-22.223-27.745-41.659-57.45-19.415-29.665-35.922-61.059-16.487-31.355-29.941-64.2-13.435-32.811-23.716-66.884-10.261-34.034-17.247-69.1-6.965-35.027-10.533-70.851-3.548-35.786-3.576-72.137-.009-36.313,3.625-72.96A737,737,0,0,1-990.75,80.324,746.865,746.865,0,0,1-971.987,7.114a746.809,746.809,0,0,1,26.041-70.948,736.858,736.858,0,0,1,32.437-66.677q17.74-32.23,38.369-62.162,20.591-29.911,43.837-57.4,23.207-27.471,48.838-52.4,25.593-24.907,53.377-47.15,27.746-22.223,57.45-41.658,29.666-19.415,61.06-35.922,31.355-16.486,64.2-29.941,32.811-13.434,66.885-23.716,34.034-10.261,69.1-17.247,35.027-6.966,70.851-10.534,35.786-3.548,72.138-3.576,36.313-.008,72.96,3.626a736.852,736.852,0,0,1,73.317,11.072,746.923,746.923,0,0,1,73.211,18.762,747.146,747.146,0,0,1,70.948,26.041A737.031,737.031,0,0,1,89.711-420.28" transform="translate(1073.666 580.438)"/><path class="g" d="M1245.865,876a749.283,749.283,0,0,1-44.8,144.159,736.875,736.875,0,0,1-32.437,66.677" transform="translate(284.522 76.543)"/><path class="g" d="M1307.336,533.129q3.548,35.786,3.575,72.137" transform="translate(234.172 200.997)"/><path class="g" d="M1123.1,11.8q19.415,29.666,35.922,61.06,16.486,31.354,29.941,64.2,13.435,32.81,23.716,66.884" transform="translate(301.045 390.23)"/><path class="g" d="M196.331,806.828q-28.6,22.907-59.219,42.941-30.58,20.014-62.94,37.028Q41.852,903.791,7.991,917.66q-33.821,13.848-68.944,24.447-35.082,10.577-71.228,17.778-36.1,7.18-73.032,10.858-36.888,3.657-74.359,3.686-37.431.008-75.207-3.737a759.755,759.755,0,0,1-75.575-11.413,769.938,769.938,0,0,1-75.465-19.34A769.732,769.732,0,0,1-578.952,913.1a759.835,759.835,0,0,1-68.731-33.436q-33.222-18.287-64.076-39.551-30.832-21.224-59.17-45.186Q-799.245,771-824.941,744.58q-25.674-26.38-48.6-55.02-22.907-28.6-42.942-59.22Q-936.5,599.761-953.512,567.4q-16.994-32.32-30.864-66.181-13.848-33.821-24.446-68.943-10.577-35.083-17.778-71.228-7.181-36.106-10.858-73.033-3.658-36.887-3.686-74.359-.009-37.432,3.737-75.207a759.739,759.739,0,0,1,11.413-75.575,770.042,770.042,0,0,1,19.339-75.465,769.854,769.854,0,0,1,26.843-73.133,759.61,759.61,0,0,1,33.436-68.731q18.287-33.223,39.551-64.076,21.224-30.833,45.186-59.17,23.923-28.316,50.343-54.012,26.38-25.675,55.02-48.6,28.6-22.907,59.219-42.941,30.58-20.014,62.94-37.028,32.32-16.994,66.181-30.863,33.821-13.848,68.943-24.446,35.083-10.578,71.228-17.779,36.1-7.18,73.033-10.858,36.887-3.657,74.359-3.686,37.431-.008,75.207,3.737a759.718,759.718,0,0,1,75.575,11.413,769.837,769.837,0,0,1,75.465,19.34,769.937,769.937,0,0,1,73.133,26.843,759.706,759.706,0,0,1,68.731,33.437q33.222,18.286,64.076,39.55" transform="translate(1086.623 593.395)"/><path class="g" d="M1185.029,1116.322a759.578,759.578,0,0,1-33.437,68.73q-18.287,33.223-39.551,64.076-21.223,30.833-45.186,59.17" transform="translate(321.462 -10.69)"/><path class="g" d="M1325.47,414.976q7.18,36.1,10.858,73.032,3.657,36.888,3.686,74.359.009,37.431-3.737,75.206a759.561,759.561,0,0,1-11.412,75.576" transform="translate(227.81 243.884)"/><path class="g" d="M1009.248-187.1q25.674,26.38,48.6,55.021,22.906,28.6,42.941,59.219,20.013,30.58,37.028,62.94" transform="translate(342.372 462.425)"/><path class="g" d="M197.6,811.6q-29.454,23.591-60.988,44.224-31.493,20.611-64.82,38.134-33.286,17.5-68.159,31.785-34.831,14.262-71,25.177-36.131,10.893-73.355,18.309-37.183,7.394-75.214,11.182-37.99,3.766-76.581,3.8-38.55.008-77.453-3.849A782.222,782.222,0,0,1-447.8,968.609a792.85,792.85,0,0,1-77.72-19.917,793.1,793.1,0,0,1-75.317-27.645,782.347,782.347,0,0,1-70.784-34.435q-34.216-18.833-65.99-40.732-31.754-21.858-60.938-46.536-29.162-24.636-55.625-51.846-26.441-27.169-50.055-56.664-23.591-29.454-44.224-60.989-20.612-31.493-38.135-64.82-17.5-33.285-31.785-68.158-14.262-34.832-25.177-71-10.893-36.131-18.309-73.355-7.395-37.184-11.182-75.215-3.767-37.99-3.8-76.58-.009-38.55,3.849-77.453a782.55,782.55,0,0,1,11.754-77.833,793.058,793.058,0,0,1,19.918-77.72,792.872,792.872,0,0,1,27.645-75.318A782.262,782.262,0,0,1-979.24-178.4q18.833-34.215,40.732-65.99,21.859-31.753,46.536-60.937,24.636-29.163,51.846-55.626,27.169-26.441,56.664-50.055,29.454-23.591,60.988-44.224,31.493-20.611,64.82-38.134,33.286-17.5,68.159-31.785,34.831-14.261,71-25.176,36.131-10.894,73.355-18.31,37.184-7.394,75.215-11.182,37.989-3.766,76.58-3.8,38.55-.009,77.453,3.849a782.221,782.221,0,0,1,77.833,11.754,792.872,792.872,0,0,1,77.72,19.918,792.864,792.864,0,0,1,75.317,27.645,782.511,782.511,0,0,1,70.784,34.435q34.216,18.833,65.99,40.732" transform="translate(1099.581 606.352)"/><path class="g" d="M1243.483,1012.108a792.768,792.768,0,0,1-27.645,75.318,782.406,782.406,0,0,1-34.435,70.784q-18.833,34.215-40.732,65.99-21.858,31.753-46.536,60.938" transform="translate(311.561 27.138)"/><path class="g" d="M1378.354,526.117q3.766,37.99,3.8,76.581.009,38.549-3.849,77.453" transform="translate(208.414 203.543)"/><path class="g" d="M1034.8-212.014q26.442,27.169,50.054,56.664,23.591,29.454,44.224,60.989,20.612,31.493,38.135,64.82,17.5,33.286,31.785,68.158" transform="translate(333.096 471.469)"/><path class="g" d="M1060.363-236.932q27.209,27.957,51.506,58.308,24.275,30.308,45.507,62.758,21.209,32.407,39.24,66.7" transform="translate(323.819 480.514)"/><path class="g" d="M651.136-517.275a805.154,805.154,0,0,1,72.837,35.434q35.207,19.379,67.9,41.913" transform="translate(472.36 582.273)"/><path class="g" d="M198.876,816.379q-30.309,24.275-62.758,45.507-32.407,21.209-66.7,39.24Q35.166,919.135-.718,933.833-36.56,948.509-73.781,959.74q-37.179,11.209-75.484,18.84-38.262,7.609-77.4,11.506-39.093,3.876-78.8,3.906-39.668.01-79.7-3.96a805.072,805.072,0,0,1-80.091-12.094,815.991,815.991,0,0,1-79.974-20.5A815.94,815.94,0,0,1-622.731,929a805.148,805.148,0,0,1-72.837-35.434q-35.208-19.38-67.9-41.914-32.674-22.492-62.705-47.886-30.008-25.351-57.239-53.35-27.209-27.957-51.506-58.308Q-959.2,661.8-980.43,629.346q-21.209-32.407-39.24-66.7-18.009-34.252-32.707-70.135-14.675-35.842-25.907-73.064-11.209-37.179-18.841-75.483-7.609-38.262-11.506-77.4-3.876-39.092-3.907-78.8-.009-39.668,3.961-79.7a805.068,805.068,0,0,1,12.094-80.091A815.869,815.869,0,0,1-1075.987-52a816,816,0,0,1,28.447-77.5,805.159,805.159,0,0,1,35.434-72.837q19.379-35.207,41.914-67.9,22.492-32.675,47.885-62.706,25.351-30.008,53.35-57.239Q-841-417.4-810.648-441.694q30.308-24.276,62.757-45.507,32.407-21.209,66.7-39.24,34.251-18.009,70.135-32.707,35.842-14.676,73.063-25.907,37.18-11.209,75.484-18.841,38.262-7.609,77.4-11.507,39.092-3.876,78.8-3.906,39.668-.009,79.7,3.96a805.045,805.045,0,0,1,80.091,12.1" transform="translate(1112.538 619.309)"/><path class="g" d="M1169.3,1365.3q-22.491,32.674-47.885,62.705" transform="translate(301.659 -101.065)"/><path class="g" d="M1346.453,1022.7a815.835,815.835,0,0,1-28.447,77.5" transform="translate(230.3 23.293)"/><path class="g" d="M1395.844,401.114q7.609,38.262,11.507,77.4,3.875,39.092,3.906,78.8.008,39.668-3.961,79.7" transform="translate(202.046 248.916)"/></g></g></g></g><rect class="h" width="375" height="812"/></svg>