<svg xmlns="http://www.w3.org/2000/svg" xmlns:xlink="http://www.w3.org/1999/xlink" width="1280" height="800" viewBox="0 0 1280 800"><defs><style>.a,.e{fill:none;stroke:#2970ff;}.b{fill:url(#a);}.c{clip-path:url(#b);}.d{opacity:0.55;}.e{stroke-miterlimit:10;}.f{fill:url(#c);}.g{fill:#091440;}</style><linearGradient id="a" x1="0.906" y1="-0.15" x2="0.094" y2="1.15" gradientUnits="objectBoundingBox"><stop offset="0" stop-color="#122e76"/><stop offset="0" stop-color="#0f2666"/><stop offset="0.626" stop-color="#091440"/><stop offset="1" stop-color="#091440"/></linearGradient><clipPath id="b"><rect class="a" width="1280" height="798.943" transform="translate(1.153)"/></clipPath><linearGradient id="c" x1="0.906" y1="-0.15" x2="0.094" y2="1.15" gradientUnits="objectBoundingBox"><stop offset="0" stop-color="#122e76" stop-opacity="0"/><stop offset="0.037" stop-color="#112b70" stop-opacity="0"/><stop offset="0.208" stop-color="#0d215b" stop-opacity="0.153"/><stop offset="0.386" stop-color="#0b194c" stop-opacity="0.698"/><stop offset="0.574" stop-color="#091542" stop-opacity="0.945"/><stop offset="0.787" stop-color="#091440"/><stop offset="1" stop-color="#091440"/></linearGradient></defs><g transform="translate(0)"><rect class="b" width="1280" height="800"/><g transform="translate(-1.153)"><g class="c"><g class="d"><path class="e" d="M238.044,673.177a89.137,89.137,0,0,1-3.114,8.484,88.026,88.026,0,0,1-3.878,7.972q-2.121,3.854-4.588,7.433t-5.241,6.863q-2.775,3.285-5.84,6.265T209,715.832q-3.318,2.658-6.869,4.981t-7.3,4.295q-3.75,1.973-7.677,3.58t-8,2.836q-4.069,1.227-8.263,2.062t-8.471,1.26q-4.279.425-8.626.427t-8.723-.433a88.027,88.027,0,0,1-8.767-1.324,89.519,89.519,0,0,1-17.237-5.357,87.773,87.773,0,0,1-7.972-3.879q-3.854-2.121-7.433-4.587T96.8,714.451q-3.285-2.775-6.266-5.839T84.9,702.229q-2.658-3.316-4.981-6.869t-4.3-7.3q-1.971-3.749-3.58-7.676t-2.835-8q-1.227-4.07-2.063-8.262t-1.259-8.472q-.425-4.278-.428-8.625t.434-8.724a88.007,88.007,0,0,1,1.324-8.766A89.521,89.521,0,0,1,72.572,612.3a88.055,88.055,0,0,1,3.878-7.973q2.121-3.853,4.588-7.432t5.241-6.864q2.775-3.285,5.84-6.265t6.382-5.638q3.318-2.656,6.87-4.981t7.3-4.295q3.75-1.971,7.677-3.58t8-2.836q4.07-1.227,8.262-2.062t8.471-1.26q4.28-.423,8.626-.427t8.724.433a88.632,88.632,0,0,1,17.52,3.568,89.392,89.392,0,0,1,8.483,3.113,88.457,88.457,0,0,1,7.973,3.879q3.854,2.121,7.432,4.588t6.864,5.241q3.283,2.775,6.265,5.84t5.638,6.382q2.656,3.318,4.981,6.869t4.295,7.3q1.971,3.748,3.58,7.677t2.836,8q1.227,4.07,2.062,8.262t1.259,8.472q.424,4.278.428,8.625a87.3,87.3,0,0,1-.434,8.724,88.353,88.353,0,0,1-1.323,8.767A89.368,89.368,0,0,1,238.044,673.177Z"/><path class="e" d="M272.124,683.769a125.435,125.435,0,0,1-4.373,11.913,123.735,123.735,0,0,1-5.447,11.2q-2.979,5.41-6.442,10.437t-7.361,9.639q-3.9,4.613-8.2,8.8t-8.963,7.917q-4.659,3.732-9.646,6.995T211.439,756.7q-5.265,2.768-10.78,5.027t-11.231,3.982q-5.715,1.723-11.6,2.9t-11.9,1.769q-6.009.6-12.113.6t-12.251-.609a123.655,123.655,0,0,1-12.31-1.859,125.751,125.751,0,0,1-24.206-7.523,123.481,123.481,0,0,1-11.2-5.446q-5.412-2.979-10.437-6.443t-9.639-7.36q-4.612-3.9-8.8-8.2t-7.917-8.962q-3.732-4.659-6.995-9.647t-6.032-10.252q-2.768-5.265-5.027-10.781t-3.982-11.23q-1.724-5.715-2.9-11.6t-1.769-11.9q-.6-6.008-.6-12.112t.609-12.251a123.928,123.928,0,0,1,1.859-12.311,125.936,125.936,0,0,1,7.523-24.206,123.859,123.859,0,0,1,5.447-11.2q2.979-5.412,6.442-10.438T59,567.006q3.9-4.612,8.2-8.8t8.962-7.917q4.659-3.73,9.647-6.995t10.252-6.031q5.265-2.769,10.781-5.028t11.23-3.982q5.715-1.722,11.6-2.9t11.9-1.769q6.009-.6,12.113-.6t12.251.609a123.648,123.648,0,0,1,12.311,1.859,125.771,125.771,0,0,1,24.205,7.523,123.984,123.984,0,0,1,11.2,5.446q5.412,2.979,10.438,6.443t9.638,7.361q4.612,3.9,8.8,8.2t7.917,8.963q3.732,4.657,6.995,9.646t6.032,10.253q2.768,5.264,5.027,10.78t3.983,11.231q1.722,5.715,2.9,11.6t1.768,11.9q.6,6.009.6,12.113t-.609,12.25a123.632,123.632,0,0,1-1.859,12.311A125.761,125.761,0,0,1,272.124,683.769Z"/><path class="e" d="M306.2,694.36a161.389,161.389,0,0,1-5.632,15.343,159.412,159.412,0,0,1-7.014,14.419q-3.837,6.97-8.3,13.443t-9.479,12.413q-5.019,5.941-10.562,11.331t-11.543,10.2q-6,4.806-12.423,9.008t-13.205,7.769q-6.78,3.564-13.884,6.474T199.7,799.886q-7.359,2.219-14.943,3.73t-15.321,2.278q-7.738.767-15.6.773t-15.778-.784a159.582,159.582,0,0,1-15.855-2.394A162.115,162.115,0,0,1,91.028,793.8a159.008,159.008,0,0,1-14.419-7.015q-6.971-3.835-13.443-8.3t-12.413-9.48q-5.941-5.019-11.332-10.561T29.225,746.9q-4.806-6-9.009-12.424t-7.768-13.2q-3.565-6.78-6.475-13.884T.845,692.928q-2.22-7.36-3.73-14.943t-2.278-15.322q-.766-7.738-.773-15.6t.784-15.777a159.486,159.486,0,0,1,2.394-15.855,161.972,161.972,0,0,1,9.689-31.175,159.295,159.295,0,0,1,7.015-14.419q3.836-6.969,8.3-13.443t9.48-12.413q5.018-5.94,10.561-11.331t11.543-10.2q6-4.8,12.424-9.008t13.2-7.768q6.78-3.566,13.884-6.475t14.464-5.129q7.36-2.219,14.943-3.73t15.321-2.277q7.74-.768,15.6-.774t15.778.784a159.248,159.248,0,0,1,15.855,2.4,162.065,162.065,0,0,1,31.175,9.688,159.551,159.551,0,0,1,14.419,7.015q6.969,3.837,13.442,8.3t12.414,9.48q5.94,5.019,11.331,10.562t10.2,11.542q4.806,6,9.009,12.424t7.768,13.2q3.566,6.781,6.475,13.885t5.129,14.463q2.219,7.36,3.729,14.943t2.278,15.322q.768,7.738.774,15.6t-.785,15.778a158.994,158.994,0,0,1-2.394,15.855A161.573,161.573,0,0,1,306.2,694.36Z"/><path class="e" d="M340.282,704.952a197.523,197.523,0,0,1-6.89,18.773,195.229,195.229,0,0,1-8.583,17.642q-4.693,8.527-10.152,16.447T303.058,773q-6.14,7.268-12.922,13.864t-14.123,12.476q-7.341,5.88-15.2,11.022t-16.156,9.505q-8.3,4.362-16.988,7.922t-17.7,6.275q-9.006,2.715-18.284,4.564t-18.746,2.787q-9.469.939-19.087.946t-19.305-.959a195.146,195.146,0,0,1-19.4-2.93A198.2,198.2,0,0,1,77.006,826.62a194.973,194.973,0,0,1-17.642-8.582q-8.527-4.7-16.448-10.153t-15.188-11.6q-7.269-6.141-13.864-12.923T1.388,769.241q-5.88-7.341-11.022-15.2t-9.505-16.156q-4.362-8.295-7.922-16.988t-6.275-17.7q-2.715-9-4.564-18.283t-2.787-18.747q-.939-9.468-.946-19.087t.959-19.3a195.164,195.164,0,0,1,2.93-19.4A198.251,198.251,0,0,1-25.89,570.235a195.1,195.1,0,0,1,8.583-17.642q4.693-8.529,10.152-16.448t11.6-15.188q6.141-7.269,12.922-13.865T31.49,494.617q7.341-5.88,15.2-11.023t16.156-9.5q8.3-4.363,16.988-7.923t17.7-6.275q9.006-2.715,18.284-4.563t18.746-2.787q9.469-.939,19.088-.947t19.3.96a194.867,194.867,0,0,1,19.4,2.929A198.347,198.347,0,0,1,230.5,467.339a194.834,194.834,0,0,1,17.642,8.583q8.529,4.693,16.448,10.152t15.188,11.6q7.269,6.139,13.864,12.922t12.476,14.123q5.88,7.341,11.023,15.2t9.5,16.156q4.362,8.3,7.922,16.988t6.276,17.7q2.715,9.006,4.563,18.283t2.787,18.747q.939,9.468.946,19.087t-.959,19.3a195.144,195.144,0,0,1-2.929,19.4A197.931,197.931,0,0,1,340.282,704.952Z"/><path class="e" d="M374.362,715.544a233.824,233.824,0,0,1-8.15,22.2,230.385,230.385,0,0,1-10.151,20.865q-5.552,10.086-12.006,19.453t-13.718,17.963q-7.263,8.6-15.284,16.4t-16.7,14.755q-8.682,6.955-17.978,13.037t-19.108,11.241q-9.812,5.159-20.091,9.369t-20.931,7.422q-10.65,3.211-21.624,5.4t-22.171,3.3q-11.2,1.11-22.575,1.119t-22.831-1.135a230.484,230.484,0,0,1-22.944-3.465,234.467,234.467,0,0,1-45.112-14.02A230.647,230.647,0,0,1,42.119,849.29q-10.086-5.551-19.452-12.007T4.7,823.565q-8.6-7.262-16.4-15.283t-14.755-16.7Q-33.4,782.9-39.485,773.6t-11.241-19.107q-5.158-9.813-9.37-20.092t-7.421-20.93q-3.211-10.652-5.4-21.624t-3.3-22.172q-1.11-11.2-1.119-22.574t1.135-22.832a230.75,230.75,0,0,1,3.464-22.943A234.61,234.61,0,0,1-58.71,556.213a230.645,230.645,0,0,1,10.151-20.865q5.551-10.086,12.007-19.453t13.718-17.963q7.261-8.6,15.283-16.4t16.7-14.755q8.683-6.954,17.978-13.036T46.238,442.5q9.812-5.159,20.092-9.369t20.93-7.422q10.65-3.211,21.624-5.4t22.171-3.3q11.2-1.11,22.575-1.119t22.831,1.134A230.449,230.449,0,0,1,199.4,420.5a234.473,234.473,0,0,1,45.112,14.02,230.922,230.922,0,0,1,20.866,10.151q10.086,5.551,19.452,12.007T302.8,470.394q8.6,7.263,16.4,15.283t14.755,16.7q6.954,8.682,13.036,17.978t11.241,19.108q5.16,9.812,9.37,20.091t7.422,20.931q3.21,10.65,5.4,21.623t3.3,22.172q1.11,11.2,1.119,22.574T383.7,669.69a230.812,230.812,0,0,1-3.465,22.944A234.015,234.015,0,0,1,374.362,715.544Z"/><path class="e" d="M408.441,726.135a269.868,269.868,0,0,1-9.408,25.632,266.337,266.337,0,0,1-11.719,24.089q-6.41,11.645-13.862,22.458t-15.837,20.738q-8.383,9.924-17.644,18.93t-19.284,17.034q-10.023,8.03-20.755,15.05t-22.059,12.978q-11.328,5.957-23.2,10.817-11.853,4.854-24.163,8.568t-24.965,6.231q-12.654,2.517-25.6,3.806t-26.062,1.292q-13.119,0-26.358-1.31a266.329,266.329,0,0,1-26.488-4,270.735,270.735,0,0,1-52.081-16.187,265.94,265.94,0,0,1-24.089-11.719Q13.23,874.134,2.417,866.681t-20.738-15.837q-9.924-8.385-18.93-17.644t-17.034-19.284q-8.03-10.025-15.051-20.756T-82.313,771.1q-5.956-11.328-10.817-23.2t-8.568-24.164q-3.708-12.3-6.231-24.964t-3.806-25.6q-1.281-12.929-1.292-26.061t1.31-26.359a266.375,266.375,0,0,1,4-26.488,270.7,270.7,0,0,1,16.186-52.081A266.612,266.612,0,0,1-79.812,518.1Q-73.4,506.46-65.95,495.646t15.837-20.738q8.385-9.926,17.644-18.931t19.284-17.034q10.025-8.028,20.755-15.05t22.06-12.978q11.327-5.955,23.2-10.817t24.164-8.568q12.3-3.707,24.964-6.231t25.6-3.805q12.929-1.282,26.061-1.292t26.359,1.31a266.131,266.131,0,0,1,26.488,4A270.7,270.7,0,0,1,258.539,401.7a266.072,266.072,0,0,1,24.088,11.719q11.645,6.41,22.458,13.862t20.738,15.837q9.924,8.383,18.93,17.644t17.035,19.284q8.028,10.023,15.05,20.755t12.977,22.059q5.957,11.328,10.817,23.2,4.854,11.853,8.569,24.163t6.23,24.964q2.517,12.654,3.806,25.6t1.292,26.062q0,13.119-1.31,26.358a266.085,266.085,0,0,1-4,26.488A269.763,269.763,0,0,1,408.441,726.135Z"/><path class="e" d="M442.52,736.727a305.887,305.887,0,0,1-10.667,29.061A301.779,301.779,0,0,1,418.566,793.1q-7.266,13.2-15.716,25.462-8.435,12.252-17.956,23.513t-20.005,21.463q-10.484,10.2-21.865,19.314-11.364,9.1-23.532,17.064-12.152,7.953-25.011,14.714-12.843,6.753-26.3,12.265-13.44,5.5-27.4,9.714-13.941,4.2-28.305,7.065-14.348,2.853-29.021,4.315t-29.549,1.464q-14.874,0-29.886-1.485a301.977,301.977,0,0,1-30.032-4.535,306.919,306.919,0,0,1-59.05-18.352A302.155,302.155,0,0,1,7.63,911.795q-13.2-7.267-25.462-15.717-12.252-8.433-23.513-17.956-11.253-9.506-21.464-20.005-10.2-10.484-19.313-21.864-9.1-11.365-17.064-23.533-7.953-12.151-14.714-25.011-6.753-12.843-12.265-26.3-5.5-13.44-9.714-27.4-4.2-13.941-7.065-28.3-2.853-14.348-4.315-29.022-1.453-14.658-1.465-29.549,0-14.874,1.486-29.885a301.694,301.694,0,0,1,4.535-30.032,306.864,306.864,0,0,1,18.352-59.05,301.761,301.761,0,0,1,13.287-27.312q7.266-13.2,15.717-25.463,8.433-12.252,17.956-23.513,9.505-11.252,20-21.463,10.482-10.2,21.864-19.314,11.364-9.1,23.532-17.064t25.011-14.714q12.844-6.753,26.3-12.264t27.4-9.715q13.941-4.2,28.305-7.064,14.347-2.855,29.022-4.315,14.658-1.453,29.548-1.465t29.886,1.485a301.985,301.985,0,0,1,30.032,4.535,307.022,307.022,0,0,1,59.05,18.353,301.758,301.758,0,0,1,27.312,13.286q13.2,7.268,25.463,15.717,12.252,8.434,23.513,17.956t21.463,20.005q10.2,10.483,19.313,21.864,9.1,11.365,17.064,23.533,7.953,12.151,14.715,25.011,6.753,12.843,12.264,26.3,5.5,13.44,9.715,27.4,4.2,13.941,7.064,28.3,2.853,14.348,4.315,29.022,1.454,14.658,1.465,29.549,0,14.874-1.485,29.885a301.708,301.708,0,0,1-4.536,30.033A305.861,305.861,0,0,1,442.52,736.727Z"/><path class="e" d="M466.7,519.044q6.153,15.027,10.862,30.631,4.7,15.586,7.9,31.644,3.191,16.041,4.824,32.447,1.625,16.389,1.638,33.036,0,16.63-1.661,33.413a337.334,337.334,0,0,1-5.07,33.576,343.149,343.149,0,0,1-20.518,66.019,337.839,337.839,0,0,1-14.855,30.535q-8.125,14.76-17.572,28.468-9.429,13.7-20.075,26.288-10.627,12.579-22.366,24Q378.087,900.5,365.362,910.69q-12.707,10.176-26.31,19.078-13.586,8.891-27.963,16.45-14.359,7.551-29.4,13.712-15.025,6.153-30.63,10.861-15.587,4.7-31.645,7.9-16.039,3.189-32.446,4.823-16.389,1.626-33.036,1.638-16.631,0-33.413-1.66A337.559,337.559,0,0,1,86.94,978.42,343.087,343.087,0,0,1,20.921,957.9,337.431,337.431,0,0,1-9.614,943.047q-14.76-8.124-28.468-17.571-13.7-9.429-26.288-20.075-12.581-10.629-24-22.366-11.408-11.721-21.593-24.445-10.178-12.707-19.078-26.31-8.891-13.586-16.45-27.962-7.551-14.359-13.712-29.4-6.153-15.025-10.861-30.63-4.7-15.586-7.9-31.645-3.189-16.041-4.824-32.447-1.624-16.387-1.637-33.036,0-16.629,1.66-33.412a337.9,337.9,0,0,1,5.07-33.577,343.206,343.206,0,0,1,20.519-66.018,337.192,337.192,0,0,1,14.855-30.536q8.124-14.76,17.571-28.467,9.429-13.7,20.075-26.288,10.627-12.581,22.366-24,11.721-11.406,24.444-21.593,12.707-10.176,26.31-19.077,13.587-8.892,27.963-16.451,14.359-7.549,29.4-13.712,15.026-6.151,30.63-10.861,15.586-4.7,31.645-7.9,16.041-3.19,32.447-4.824,16.387-1.625,33.036-1.638,16.629,0,33.412,1.661a337.26,337.26,0,0,1,33.576,5.07,343.093,343.093,0,0,1,66.019,20.518,337.463,337.463,0,0,1,30.536,14.855q14.76,8.124,28.467,17.572,13.7,9.429,26.288,20.075,12.58,10.628,24,22.366,11.407,11.72,21.593,24.444,10.178,12.707,19.078,26.31,8.892,13.586,16.451,27.963"/><path class="e" d="M510.679,757.91a378.072,378.072,0,0,1-13.185,35.921,373.281,373.281,0,0,1-16.423,33.759q-8.982,16.317-19.426,31.472-10.425,15.144-22.194,29.063-11.751,13.908-24.727,26.529-12.959,12.61-27.025,23.873-14.047,11.25-29.087,21.091-15.02,9.831-30.914,18.187-15.876,8.348-32.507,15.16-16.613,6.8-33.863,12.007-17.232,5.2-34.986,8.732-17.733,3.527-35.871,5.333-18.118,1.8-36.524,1.811-18.386,0-36.939-1.836a373.222,373.222,0,0,1-37.121-5.605A379.527,379.527,0,0,1,6.9,990.723,373.131,373.131,0,0,1-26.859,974.3q-16.318-8.982-31.472-19.427-15.146-10.423-29.063-22.194-13.908-11.75-26.53-24.727Q-126.535,895-137.8,880.928q-11.251-14.047-21.091-29.088-9.831-15.02-18.188-30.914-8.346-15.875-15.159-32.506-6.8-16.613-12.007-33.864-5.2-17.232-8.732-34.985-3.528-17.734-5.334-35.872-1.8-18.118-1.81-36.523,0-18.386,1.835-36.94a373.2,373.2,0,0,1,5.606-37.12,379.317,379.317,0,0,1,22.684-72.988,373.12,373.12,0,0,1,16.423-33.758q8.982-16.318,19.426-31.473,10.425-15.144,22.2-29.063,11.75-13.908,24.727-26.529,12.957-12.61,27.024-23.872,14.047-11.252,29.087-21.092,15.021-9.83,30.915-18.187,15.874-8.348,32.506-15.159,16.612-6.8,33.864-12.008,17.23-5.195,34.985-8.732,17.733-3.527,35.872-5.333,18.118-1.8,36.523-1.811,18.386,0,36.939,1.836a372.924,372.924,0,0,1,37.121,5.606A379.316,379.316,0,0,1,300.6,303.237a372.982,372.982,0,0,1,33.758,16.423q16.318,8.982,31.473,19.426,15.144,10.425,29.062,22.194,13.91,11.75,26.53,24.727,12.611,12.957,23.872,27.025,11.252,14.047,21.092,29.087,9.829,15.02,18.187,30.914,8.346,15.875,15.159,32.507,6.8,16.611,12.008,33.863,5.194,17.232,8.732,34.985,3.527,17.734,5.333,35.872,1.8,18.118,1.81,36.523,0,18.385-1.835,36.94a373.254,373.254,0,0,1-5.606,37.121A377.989,377.989,0,0,1,510.679,757.91Z"/><path class="e" d="M473.135,390.694q12.325,15.39,23.1,31.865,10.769,16.454,19.924,33.866,9.144,17.391,16.607,35.61"/><path class="e" d="M314.624,270.416a408.948,408.948,0,0,1,36.982,17.991q17.876,9.84,34.477,21.281,16.59,11.421,31.838,24.314"/><path class="e" d="M555.49,567.457q3.864,19.428,5.843,39.3,1.968,19.848,1.983,40.011,0,20.141-2.011,40.466a408.545,408.545,0,0,1-6.141,40.665,415.594,415.594,0,0,1-24.849,79.956,408.561,408.561,0,0,1-17.992,36.982q-9.838,17.877-21.281,34.478-11.42,16.59-24.313,31.837-12.871,15.237-27.088,29.063-14.194,13.815-29.6,26.151-15.389,12.326-31.864,23.106-16.453,10.769-33.866,19.924-17.391,9.142-35.61,16.606-18.2,7.452-37.1,13.154-18.877,5.691-38.326,9.566-19.426,3.864-39.3,5.842-19.85,1.968-40.011,1.984-20.141,0-40.466-2.011a408.8,408.8,0,0,1-40.665-6.141,415.528,415.528,0,0,1-79.957-24.85A408.828,408.828,0,0,1-44.1,1005.552q-17.875-9.84-34.477-21.281-16.59-11.419-31.838-24.313-15.235-12.871-29.062-27.088-13.815-14.195-26.152-29.6-12.326-15.389-23.105-31.864-10.769-16.455-19.924-33.867-9.144-17.39-16.606-35.61-7.452-18.2-13.154-37.1-5.691-18.878-9.566-38.326-3.864-19.426-5.843-39.3-1.967-19.848-1.983-40.01,0-20.142,2.011-40.467a408.58,408.58,0,0,1,6.141-40.665,415.563,415.563,0,0,1,24.85-79.956,408.558,408.558,0,0,1,17.991-36.982q9.839-17.875,21.281-34.478,11.419-16.59,24.313-31.837,12.872-15.237,27.088-29.063,14.195-13.814,29.605-26.151,15.388-12.326,31.864-23.105,16.455-10.77,33.866-19.924,17.391-9.144,35.611-16.607,18.2-7.45,37.1-13.154,18.877-5.691,38.326-9.566,19.427-3.863,39.3-5.842,19.848-1.968,40.01-1.984,20.141,0,40.467,2.011a409.1,409.1,0,0,1,40.664,6.141"/><path class="e" d="M498.1,311.254q16.224,16.67,30.71,34.766,14.475,18.07,27.133,37.419,12.647,19.322,23.4,39.769,10.738,20.422,19.5,41.818"/><path class="e" d="M296.456,187.814a486.486,486.486,0,0,1,46.211,16.961A479.921,479.921,0,0,1,386.1,225.9"/><path class="e" d="M625.52,553.595q4.536,22.814,6.861,46.147,2.31,23.309,2.329,46.985,0,23.652-2.362,47.521A479.794,479.794,0,0,1,625.137,742,488.048,488.048,0,0,1,595.956,835.9a480.072,480.072,0,0,1-21.128,43.429q-11.555,20.991-24.99,40.487-13.412,19.482-28.552,37.387-15.115,17.894-31.81,34.129-16.668,16.223-34.765,30.71-18.072,14.474-37.419,27.133-19.321,12.645-39.769,23.4-20.423,10.737-41.818,19.5-21.37,8.751-43.563,15.447-22.168,6.684-45.007,11.233-22.813,4.537-46.147,6.861-23.307,2.312-46.984,2.329-23.652.006-47.521-2.361a480.342,480.342,0,0,1-47.753-7.211,487.947,487.947,0,0,1-93.894-29.182,480.063,480.063,0,0,1-43.429-21.127q-20.992-11.555-40.487-24.991-19.482-13.41-37.388-28.551Q-174.36,999.4-190.6,982.705q-16.223-16.67-30.71-34.766-14.475-18.07-27.133-37.418-12.646-19.323-23.4-39.77-10.737-20.422-19.5-41.817-8.751-21.371-15.447-43.564-6.684-22.167-11.234-45.006-4.536-22.813-6.861-46.147-2.31-23.309-2.329-46.985,0-23.652,2.362-47.52a479.77,479.77,0,0,1,7.211-47.754,487.952,487.952,0,0,1,29.182-93.894,480.177,480.177,0,0,1,21.127-43.428q11.555-20.992,24.991-40.488,13.41-19.482,28.551-37.387,15.115-17.892,31.81-34.128,16.67-16.224,34.765-30.711,18.072-14.473,37.419-27.133,19.323-12.645,39.77-23.4,20.421-10.739,41.817-19.5,21.37-8.75,43.564-15.447,22.167-6.683,45.006-11.233,22.813-4.537,46.147-6.861,23.309-2.31,46.985-2.329,23.651-.006,47.52,2.361"/><path class="e" d="M307.048,153.734a522.512,522.512,0,0,1,49.64,18.221A515.611,515.611,0,0,1,403.34,194.65q22.549,12.413,43.492,26.846,20.928,14.406,40.162,30.67,19.221,16.237,36.662,34.171,17.427,17.905,32.989,37.346,15.549,19.411,29.147,40.2"/><path class="e" d="M628.776,849.916a515.346,515.346,0,0,1-22.7,46.652q-12.412,22.551-26.846,43.493-14.406,20.928-30.67,40.162-16.238,19.219-34.171,36.661-17.907,17.427-37.346,32.99-19.413,15.547-40.2,29.147-20.755,13.584-42.721,25.133-21.937,11.535-44.921,20.949-22.957,9.4-46.8,16.593-23.812,7.179-48.347,12.067-24.505,4.874-49.572,7.37-25.038,2.482-50.472,2.5-25.407.006-51.047-2.536a515.951,515.951,0,0,1-51.3-7.747,524.279,524.279,0,0,1-100.863-31.347,515.732,515.732,0,0,1-46.651-22.7q-22.551-12.412-43.493-26.845-20.928-14.406-40.162-30.671-19.221-16.237-36.662-34.171-17.427-17.906-32.989-37.345-15.549-19.413-29.147-40.2-13.584-20.757-25.133-42.722-11.535-21.937-20.949-44.921-9.4-22.956-16.593-46.8-7.179-23.814-12.067-48.347-4.873-24.507-7.37-49.572-2.482-25.038-2.5-50.472,0-25.407,2.537-51.048a515.7,515.7,0,0,1,7.747-51.3,524.271,524.271,0,0,1,31.347-100.863,515.878,515.878,0,0,1,22.7-46.652q12.411-22.549,26.845-43.492,14.406-20.928,30.671-40.163,16.237-19.219,34.17-36.661,17.907-17.427,37.346-32.99,19.413-15.548,40.2-29.146,20.757-13.585,42.721-25.134,21.938-11.533,44.922-20.948,22.956-9.4,46.8-16.594Q28.9,145.084,53.436,140.2q24.507-4.873,49.572-7.37,25.038-2.482,50.472-2.5"/><path class="e" d="M660.535,546.664q4.874,24.507,7.37,49.572,2.482,25.038,2.5,50.472,0,25.407-2.537,51.048"/><path class="e" d="M664.909,438.017q10.048,24.541,17.739,50.029,7.676,25.458,12.9,51.687,5.211,26.2,7.88,53,2.653,26.769,2.675,53.96"/><path class="e" d="M467.082,192.1q22.374,15.4,42.937,32.79,20.549,17.359,39.194,36.531,18.631,19.145,35.269,39.926"/><path class="e" d="M153.461,94.627q27.162-.006,54.575,2.712a551.259,551.259,0,0,1,54.841,8.282,560.494,560.494,0,0,1,107.832,33.513"/><path class="e" d="M681.076,810.868a558.646,558.646,0,0,1-19.48,53.07,551.165,551.165,0,0,1-24.263,49.875q-13.27,24.108-28.7,46.5-15.4,22.374-32.79,42.937-17.359,20.548-36.532,39.2-19.143,18.63-39.926,35.269-20.754,16.621-42.973,31.16-22.191,14.523-45.673,26.87-23.453,12.332-48.025,22.4-24.543,10.05-50.03,17.74-25.458,7.676-51.687,12.9-26.2,5.21-53,7.879-26.768,2.654-53.959,2.675-27.162.006-54.574-2.712a551.243,551.243,0,0,1-54.842-8.282,560.5,560.5,0,0,1-107.832-33.513,551.425,551.425,0,0,1-49.875-24.263q-24.108-13.271-46.5-28.7-22.374-15.4-42.938-32.789-20.547-17.359-39.194-36.532-18.632-19.143-35.269-39.926-16.623-20.754-31.161-42.973-14.521-22.191-26.869-45.673-12.331-23.454-22.4-48.025-10.05-24.543-17.74-50.03-7.676-25.458-12.9-51.687-5.211-26.2-7.879-53-2.655-26.768-2.675-53.959-.006-27.164,2.712-54.575a551.325,551.325,0,0,1,8.281-54.842,560.551,560.551,0,0,1,33.514-107.831,551.156,551.156,0,0,1,24.263-49.875q13.27-24.109,28.7-46.5,15.4-22.374,32.79-42.937,17.359-20.549,36.532-39.194,19.143-18.632,39.926-35.269,20.754-16.623,42.973-31.161,22.191-14.523,45.673-26.87,23.454-12.332,48.025-22.4,24.543-10.049,50.03-17.74,25.458-7.676,51.687-12.9"/><path class="e" d="M507.581,133.3q25.266,17.393,48.487,37.028,23.2,19.6,44.26,41.253,21.039,21.618,39.828,45.087,18.771,23.436,35.188,48.528,16.4,25.057,30.343,51.576,13.924,26.484,25.291,54.232,11.348,27.716,20.032,56.5,8.668,28.748,14.569,58.367,5.883,29.588,8.9,59.847,3,30.228,3.02,60.934.008,30.674-3.062,61.629a622.483,622.483,0,0,1-9.353,61.93,630.563,630.563,0,0,1-15.848,61.84"/><path class="e" d="M699.838,948.3q-14.985,27.223-32.41,52.507-17.392,25.266-37.028,48.487-19.6,23.2-41.253,44.261-21.618,21.039-45.087,39.827-23.436,18.771-48.528,35.189-25.059,16.4-51.576,30.342-26.485,13.926-54.232,25.291-27.715,11.349-56.5,20.033-28.749,8.667-58.368,14.568-29.586,5.884-59.847,8.9-30.228,3-60.934,3.021-30.672.006-61.628-3.063a622.494,622.494,0,0,1-61.93-9.352,632.94,632.94,0,0,1-121.77-37.845,622.631,622.631,0,0,1-56.321-27.4q-27.225-14.985-52.508-32.409-25.265-17.392-48.487-37.028-23.2-19.6-44.26-41.254-21.039-21.618-39.827-45.087-18.772-23.436-35.189-48.527-16.4-25.059-30.342-51.576-13.926-26.485-25.291-54.233-11.349-27.716-20.033-56.5-8.668-28.749-14.569-58.368-5.883-29.586-8.9-59.847-3-30.228-3.021-60.934-.006-30.674,3.063-61.628a622.256,622.256,0,0,1,9.352-61.931,632.9,632.9,0,0,1,37.845-121.769,622.408,622.408,0,0,1,27.4-56.322q14.985-27.224,32.41-52.507,17.393-25.266,37.028-48.487,19.6-23.2,41.254-44.26,21.617-21.04,45.086-39.828,23.438-18.771,48.528-35.188,25.059-16.4,51.576-30.343,26.485-13.926,54.233-25.291,27.714-11.347,56.5-20.033Q3.024,41.053,32.643,35.152q29.586-5.885,59.847-8.9,30.228-3,60.934-3.02,30.674-.007,61.628,3.062a622.781,622.781,0,0,1,61.93,9.352A631.071,631.071,0,0,1,338.823,51.5"/><path class="e" d="M813.194,646.634q.008,32.429-3.238,65.155a658.142,658.142,0,0,1-9.887,65.475A669.121,669.121,0,0,1,760.058,906a658.1,658.1,0,0,1-28.968,59.544q-15.843,28.783-34.264,55.513-18.388,26.712-39.147,51.262-20.726,24.531-43.615,46.793-22.854,22.243-47.667,42.107-24.777,19.845-51.3,37.2-26.493,17.339-54.528,32.079-28,14.723-57.336,26.739-29.3,12-59.729,21.179-30.395,9.164-61.709,15.4-31.279,6.22-63.272,9.407-31.958,3.168-64.421,3.194-32.429.006-65.155-3.238a658.141,658.141,0,0,1-65.475-9.888,669.133,669.133,0,0,1-128.738-40.011,658.227,658.227,0,0,1-59.545-28.967q-28.782-15.843-55.512-34.265-26.712-18.387-51.262-39.147-24.533-20.724-46.793-43.614-22.244-22.855-42.107-47.667-19.847-24.778-37.2-51.3-17.339-26.493-32.08-54.528-14.723-28-26.738-57.336-12-29.3-21.179-59.73-9.164-30.395-15.4-61.708-6.221-31.279-9.407-63.272-3.168-31.957-3.194-64.421-.008-32.429,3.238-65.156a658.429,658.429,0,0,1,9.887-65.474,669.258,669.258,0,0,1,40.011-128.738,658.1,658.1,0,0,1,28.968-59.545q15.843-28.782,34.265-55.513,18.387-26.71,39.147-51.261,20.724-24.533,43.614-46.794,22.855-22.243,47.667-42.107,24.777-19.845,51.3-37.2Q-181.1,78.2-153.062,63.457q28-14.723,57.336-26.738,29.3-12,59.73-21.18Q-5.6,6.376,25.712.137,56.991-6.084,88.984-9.27q31.958-3.168,64.421-3.193,32.429-.008,65.155,3.238A658.115,658.115,0,0,1,284.035.662,669.131,669.131,0,0,1,412.773,40.673a658.092,658.092,0,0,1,59.545,28.968Q501.1,85.483,527.83,103.9q26.712,18.389,51.262,39.147"/><path class="e" d="M785.191,457.232q9.164,30.395,15.4,61.708"/><path class="e" d="M667.992,234.334q19.847,24.777,37.2,51.305,17.339,26.491,32.079,54.527"/><path class="e" d="M817.393,853.234a702.708,702.708,0,0,1-24.515,66.789,693.758,693.758,0,0,1-30.535,62.768q-16.7,30.34-36.12,58.517-19.383,28.158-41.266,54.037-21.846,25.86-45.975,49.327-24.093,23.446-50.248,44.386-26.118,20.919-54.082,39.216-27.927,18.276-57.479,33.815-29.517,15.521-60.44,28.186-30.888,12.648-62.963,22.326-32.04,9.66-65.049,16.236-32.973,6.556-66.7,9.916-33.687,3.339-67.908,3.366-34.184.008-68.682-3.413a693.757,693.757,0,0,1-69.019-10.422,705.318,705.318,0,0,1-135.707-42.177,693.56,693.56,0,0,1-62.768-30.536q-30.341-16.7-58.518-36.119-28.156-19.383-54.037-41.266-25.859-21.848-49.326-45.976-23.446-24.091-44.386-50.247-20.92-26.119-39.216-54.082-18.277-27.927-33.816-57.48-15.519-29.516-28.185-60.44Q-502.192,879.074-511.87,847q-9.66-32.039-16.236-65.048-6.558-32.973-9.916-66.7-3.341-33.688-3.367-67.908-.008-34.185,3.414-68.683a693.746,693.746,0,0,1,10.422-69.019,705.356,705.356,0,0,1,42.177-135.707,693.637,693.637,0,0,1,30.536-62.768q16.7-30.34,36.119-58.517,19.383-28.158,41.266-54.037,21.847-25.86,45.975-49.326,24.093-23.448,50.248-44.387,26.118-20.919,54.082-39.215,27.927-18.277,57.48-33.816,29.516-15.521,60.439-28.186Q-78.343-8.963-46.268-18.642q32.04-9.658,65.049-16.236,32.973-6.557,66.7-9.916,33.687-3.339,67.908-3.366,34.185-.008,68.683,3.413a693.708,693.708,0,0,1,69.018,10.423A705.427,705.427,0,0,1,426.8,7.852a694.026,694.026,0,0,1,62.767,30.536q30.34,16.7,58.518,36.12,28.158,19.383,54.037,41.266,25.86,21.846,49.326,45.975Q674.891,185.84,695.829,212q20.921,26.119,39.216,54.082,18.277,27.927,33.816,57.48Q784.38,353.075,797.047,384q12.647,30.887,22.325,62.963,9.66,32.039,16.236,65.048,6.558,32.973,9.916,66.7,3.34,33.687,3.367,67.908.008,34.184-3.413,68.682a694.012,694.012,0,0,1-10.423,69.019A703.173,703.173,0,0,1,817.393,853.234Z"/><path class="e" d="M870.623,505.078q6.894,34.667,10.425,70.123,3.512,35.417,3.54,71.4Q884.6,682.536,881,718.8"/><path class="e" d="M800.448,306.95q16.317,31.032,29.633,63.543"/><path class="e" d="M568.329,45.11q29.6,20.379,56.812,43.385,27.188,22.969,51.86,48.336,24.651,25.331,46.665,52.828"/><path class="e" d="M851.472,863.826A739.107,739.107,0,0,1,825.7,934.044a729.6,729.6,0,0,1-32.1,65.992q-17.557,31.9-37.974,61.522-20.379,29.6-43.385,56.812-22.97,27.188-48.337,51.859-25.329,24.651-52.827,46.666-27.461,21.993-56.86,41.229-29.361,19.217-60.431,35.553-31.032,16.315-63.544,29.633-32.472,13.3-66.2,23.472-33.684,10.155-68.389,17.07-34.665,6.892-70.122,10.425-35.418,3.512-71.4,3.539-35.94.008-72.21-3.588A729.392,729.392,0,0,1,9.362,1363.27a741.573,741.573,0,0,1-142.676-44.343,729.294,729.294,0,0,1-65.991-32.1q-31.9-17.559-61.522-37.975-29.6-20.377-56.812-43.385-27.187-22.968-51.859-48.336-24.653-25.329-46.666-52.828-21.993-27.459-41.23-56.859-19.215-29.361-35.552-60.431-16.315-31.032-29.633-63.544-13.3-32.473-23.472-66.2-10.156-33.686-17.07-68.389-6.894-34.666-10.425-70.122-3.512-35.418-3.539-71.4-.009-35.938,3.588-72.209a729.33,729.33,0,0,1,10.958-72.563A741.62,741.62,0,0,1-518.2,359.915a729.457,729.457,0,0,1,32.1-65.991q17.557-31.9,37.975-61.523,20.378-29.6,43.385-56.811,22.968-27.189,48.336-51.86,25.329-24.651,52.828-46.665,27.459-21.995,56.859-41.23Q-217.349,16.62-186.279.283q31.032-16.317,63.544-29.633,32.474-13.3,66.2-23.473Q-22.855-62.978,11.85-69.892q34.666-6.894,70.122-10.426,35.418-3.51,71.4-3.539,35.938-.007,72.209,3.589A729.37,729.37,0,0,1,298.14-69.311,741.582,741.582,0,0,1,440.816-24.968"/><path class="e" d="M824.6,207.4q21.093,32.229,39.025,66.335,17.911,34.063,32.528,69.751,14.595,35.646,25.765,72.663,11.148,36.975,18.737,75.069,7.568,38.054,11.444,76.973"/><path class="e" d="M952.042,725.822a800.6,800.6,0,0,1-12.028,79.652A814.087,814.087,0,0,1,891.34,962.087a800.962,800.962,0,0,1-35.24,72.438q-19.273,35.015-41.684,67.532-22.37,32.5-47.623,62.362-25.214,29.844-53.059,56.925-27.8,27.06-57.988,51.224-30.142,24.142-62.414,45.258Q561.1,1338.917,527,1356.851q-34.063,17.91-69.751,32.528-35.646,14.595-72.663,25.765-36.975,11.148-75.07,18.737-38.052,7.568-76.972,11.444-38.877,3.854-78.37,3.885-39.45.009-79.263-3.939a800.9,800.9,0,0,1-79.652-12.028,814,814,0,0,1-156.613-48.675,800.427,800.427,0,0,1-72.438-35.24q-35.014-19.272-67.532-41.684-32.5-22.368-62.362-47.623-29.844-25.212-56.925-53.058-27.06-27.8-51.224-57.988-24.143-30.142-45.258-62.414-21.093-32.229-39.025-66.335-17.91-34.063-32.528-69.751-14.595-35.645-25.765-72.662-11.148-36.977-18.737-75.07-7.567-38.053-11.444-76.972-3.855-38.879-3.885-78.37-.009-39.452,3.939-79.263a800.575,800.575,0,0,1,12.028-79.652,814.062,814.062,0,0,1,48.674-156.614,800.958,800.958,0,0,1,35.24-72.437q19.273-35.016,41.684-67.533,22.369-32.5,47.624-62.361,25.212-29.844,53.058-56.926,27.8-27.06,57.988-51.224Q-318.1-2.752-285.83-23.866q32.229-21.093,66.335-39.026,34.063-17.91,69.751-32.527,35.645-14.6,72.662-25.766,36.975-11.146,75.07-18.737,38.052-7.567,76.972-11.443,38.877-3.855,78.37-3.886,39.45-.007,79.263,3.939a800.865,800.865,0,0,1,79.652,12.029A814.064,814.064,0,0,1,468.859-90.609,800.685,800.685,0,0,1,541.3-55.369Q576.31-36.1,608.829-13.685,641.324,8.683,671.19,33.938,701.034,59.15,728.116,87"/><path class="e" d="M929.185,329.979q15.245,37.231,26.911,75.9,11.645,38.621,19.571,78.41,7.905,39.747,11.953,80.4,4.026,40.607,4.058,81.857"/><path class="e" d="M975,812.526a850.242,850.242,0,0,1-50.84,163.582,835.991,835.991,0,0,1-36.808,75.661q-20.13,36.573-43.539,70.538-23.364,33.94-49.742,65.136-26.334,31.172-55.419,59.459-29.041,28.263-60.569,53.5-31.484,25.216-65.191,47.271-33.663,22.032-69.286,40.762-35.578,18.708-72.855,33.975-37.232,15.245-75.9,26.912-38.621,11.643-78.41,19.571-39.746,7.9-80.4,11.953-40.608,4.026-81.857,4.058-41.206.009-82.79-4.115a836.2,836.2,0,0,1-83.2-12.563,850.3,850.3,0,0,1-163.583-50.84,836.529,836.529,0,0,1-75.661-36.808q-36.572-20.132-70.537-43.539-33.942-23.364-65.136-49.742-31.173-26.336-59.459-55.419-28.263-29.041-53.5-60.569-25.216-31.484-47.271-65.191-22.032-33.663-40.762-69.286-18.708-35.58-33.975-72.855-15.246-37.231-26.912-75.9-11.645-38.621-19.571-78.41-7.9-39.746-11.953-80.4-4.026-40.608-4.058-81.858-.009-41.205,4.114-82.79a836.511,836.511,0,0,1,12.564-83.2,850.307,850.307,0,0,1,50.84-163.582A836.381,836.381,0,0,1-579.85,242.19q20.13-36.573,43.539-70.537,23.364-33.942,49.742-65.137,26.334-31.171,55.419-59.458,29.041-28.264,60.569-53.5Q-339.1-31.662-305.39-53.717q33.663-22.031,69.286-40.762,35.58-18.707,72.855-33.975,37.231-15.245,75.9-26.912,38.62-11.643,78.41-19.57,39.746-7.9,80.4-11.953,40.608-4.026,81.857-4.058,41.206-.009,82.79,4.114a836.463,836.463,0,0,1,83.2,12.563A850.2,850.2,0,0,1,482.88-123.429a836.249,836.249,0,0,1,75.661,36.808q36.573,20.13,70.537,43.538Q663.02-19.719,694.215,6.66q31.171,26.334,59.458,55.419,28.263,29.04,53.5,60.568,25.218,31.485,47.272,65.191,22.031,33.665,40.761,69.287"/><path class="e" d="M1044.973,826.631a922.7,922.7,0,0,1-55.172,177.52,907.636,907.636,0,0,1-39.944,82.108q-21.846,39.688-47.248,76.547-25.356,36.832-53.981,70.686-28.578,33.828-60.141,64.525-31.515,30.671-65.729,58.062-34.167,27.365-70.745,51.3-36.532,23.909-75.19,44.235-38.612,20.3-79.062,36.87-40.4,16.543-82.363,29.2-41.912,12.636-85.091,21.238-43.133,8.578-87.247,12.972-44.067,4.368-88.832,4.4-44.716.01-89.844-4.464A907.694,907.694,0,0,1-25.9,1538.2a922.7,922.7,0,0,1-177.52-55.172,907.782,907.782,0,0,1-82.108-39.944q-39.688-21.846-76.547-47.249-36.834-25.355-70.686-53.98-33.828-28.578-64.525-60.141-30.672-31.515-58.062-65.729-27.364-34.167-51.3-70.746-23.909-36.531-44.234-75.19-20.3-38.61-36.871-79.062-16.543-40.4-29.2-82.362-12.636-41.912-21.238-85.091-8.579-43.133-12.972-87.247-4.368-44.069-4.4-88.832-.009-44.716,4.465-89.844a907.74,907.74,0,0,1,13.634-90.285A922.7,922.7,0,0,1-682.3,289.808,907.6,907.6,0,0,1-642.355,207.7q21.846-39.688,47.249-76.548,25.355-36.833,53.98-70.686,28.578-33.828,60.141-64.524,31.515-30.672,65.729-58.062,34.167-27.366,70.746-51.3,36.531-23.908,75.189-44.235,38.612-20.3,79.063-36.87,40.4-16.544,82.362-29.205,41.912-12.635,85.091-21.238,43.133-8.577,87.247-12.971,44.067-4.369,88.832-4.4,44.717-.01,89.844,4.465A907.681,907.681,0,0,1,333.4-244.242a922.7,922.7,0,0,1,177.52,55.172,907.238,907.238,0,0,1,82.108,39.944q39.688,21.846,76.547,47.248Q706.411-76.523,740.264-47.9q33.827,28.578,64.524,60.141Q835.46,43.759,862.85,77.973"/><path class="e" d="M995.254,302.97q16.543,40.4,29.2,82.363,12.636,41.91,21.239,85.091,8.577,43.131,12.971,87.247,4.37,44.067,4.4,88.831"/><path class="e" d="M875.907,1256.517q-29.7,35.156-62.5,67.057-32.753,31.876-68.31,60.341-35.506,28.44-73.522,53.313-37.966,24.847-78.142,45.971-40.127,21.1-82.166,38.318-41.99,17.193-85.6,30.351Q382.113,1565,337.238,1573.94q-44.824,8.915-90.672,13.481-45.8,4.539-92.319,4.576-46.471.011-93.371-4.64a943.058,943.058,0,0,1-93.829-14.169,958.922,958.922,0,0,1-184.489-57.338,942.892,942.892,0,0,1-85.33-41.512q-41.247-22.7-79.553-49.1-38.278-26.351-73.461-56.1-35.155-29.7-67.057-62.5-31.876-32.753-60.342-68.309-28.438-35.508-53.312-73.523-24.848-37.965-45.972-78.141-21.1-40.126-38.317-82.166-17.193-41.991-30.351-85.6-13.133-43.555-22.072-88.431-8.914-44.826-13.481-90.672-4.54-45.8-4.576-92.319-.011-46.473,4.64-93.371a943.015,943.015,0,0,1,14.169-93.829,958.928,958.928,0,0,1,57.338-184.489,943.056,943.056,0,0,1,41.512-85.331q22.7-41.247,49.1-79.552,26.351-38.28,56.1-73.461,29.7-35.156,62.5-67.058,32.751-31.875,68.309-60.341,35.508-28.44,73.523-53.313,37.965-24.846,78.141-45.971,40.126-21.1,82.166-38.317,41.989-17.194,85.6-30.352,43.556-13.131,88.431-22.072,44.826-8.913,90.672-13.48,45.8-4.541,92.319-4.577,46.471-.011,93.371,4.64a943.351,943.351,0,0,1,93.829,14.169,958.924,958.924,0,0,1,184.489,57.338,943.312,943.312,0,0,1,85.331,41.512q41.245,22.7,79.552,49.1,38.278,26.349,73.461,56.1,35.155,29.7,67.058,62.5,31.875,32.753,60.341,68.31Q919.127,91.142,944,129.158q24.848,37.966,45.972,78.142"/><path class="e" d="M1022.622,1018.172a943.335,943.335,0,0,1-41.513,85.331"/><path class="e" d="M1098.769,646.484q.009,46.472-4.64,93.371"/><path class="e" d="M1058.639,375.061q13.133,43.557,22.072,88.432"/><path class="e" d="M1061.323,275.961q17.843,43.576,31.5,88.829,13.629,45.2,22.906,91.772,9.25,46.518,13.99,94.1"/><path class="e" d="M786.313-102.454Q822.8-71.632,855.9-37.592,888.982-3.6,918.524,33.3q29.514,36.849,55.326,76.3"/><path class="e" d="M1114.946,840.736a995.165,995.165,0,0,1-59.5,191.458,979.115,979.115,0,0,1-43.08,88.554q-23.562,42.8-50.958,82.557-27.347,39.726-58.219,76.236-30.822,36.484-64.863,69.591-33.988,33.08-70.889,62.62-36.849,29.514-76.3,55.327-39.4,25.785-81.094,47.707-41.641,21.9-85.269,39.765-43.577,17.843-88.829,31.5-45.2,13.628-91.772,22.906-46.518,9.25-94.1,13.99-47.528,4.712-95.806,4.749-48.228.011-96.9-4.815a978.926,978.926,0,0,1-97.373-14.705,995.242,995.242,0,0,1-191.458-59.5,978.855,978.855,0,0,1-88.554-43.081q-42.805-23.56-82.557-50.958-39.726-27.345-76.236-58.218-36.484-30.822-69.591-64.863-33.079-33.99-62.62-70.89-29.514-36.849-55.327-76.3-25.785-39.4-47.708-81.093-21.894-41.641-39.765-85.27-17.843-43.575-31.5-88.829-13.628-45.2-22.906-91.771-9.25-46.52-13.99-94.1-4.711-47.526-4.749-95.806-.01-48.227,4.815-96.9a978.711,978.711,0,0,1,14.705-97.373,995.016,995.016,0,0,1,59.5-191.457,978.85,978.85,0,0,1,43.08-88.554Q-681.3,130.407-653.9,90.654q27.346-39.725,58.219-76.236,30.822-36.483,64.863-69.59,33.99-33.081,70.89-62.621,36.849-29.514,76.3-55.326,39.4-25.786,81.093-47.708,41.641-21.9,85.269-39.765,43.577-17.842,88.829-31.5,45.2-13.627,91.772-22.9,46.518-9.252,94.1-13.99,47.527-4.712,95.806-4.75,48.228-.011,96.9,4.816a978.626,978.626,0,0,1,97.373,14.7,995.092,995.092,0,0,1,191.458,59.5,978.591,978.591,0,0,1,88.554,43.08"/><path class="e" d="M1149.932,847.789a1031.41,1031.41,0,0,1-61.669,198.426,1014.392,1014.392,0,0,1-44.649,91.777q-24.419,44.364-52.813,85.563-28.341,41.17-60.338,79.011-31.942,37.81-67.223,72.123-35.227,34.284-73.47,64.9-38.19,30.588-79.077,57.34-40.835,26.724-84.045,49.445-43.158,22.692-88.373,41.212-45.164,18.492-92.063,32.644-46.847,14.124-95.112,23.739-48.211,9.588-97.522,14.5-49.257,4.884-99.293,4.923-49.983.01-100.425-4.991a1014.562,1014.562,0,0,1-100.918-15.239,1031.323,1031.323,0,0,1-198.426-61.67,1014.545,1014.545,0,0,1-91.778-44.648q-44.363-24.419-85.562-52.813-41.17-28.341-79.011-60.338-37.812-31.944-72.123-67.224-34.284-35.226-64.9-73.47-30.588-38.19-57.341-79.077-26.724-40.833-49.444-84.045-22.692-43.158-41.212-88.373-18.492-45.162-32.644-92.062-14.124-46.846-23.74-95.112-9.586-48.211-14.5-97.523-4.883-49.257-4.922-99.293-.011-49.983,4.991-100.425A1014.568,1014.568,0,0,1-842.43,446.171a1031.379,1031.379,0,0,1,61.67-198.427,1014.4,1014.4,0,0,1,44.648-91.777Q-711.694,111.6-683.3,70.4q28.341-41.172,60.338-79.011,31.942-37.812,67.223-72.124,35.227-34.284,73.47-64.9,38.191-30.588,79.078-57.34,40.833-26.724,84.044-49.444,43.158-22.692,88.374-41.213,45.162-18.492,92.062-32.644Q-91.863-340.394-43.6-350.01q48.211-9.588,97.522-14.5,49.257-4.884,99.294-4.922,49.983-.012,100.425,4.99A1014.27,1014.27,0,0,1,354.56-349.2a1031.428,1031.428,0,0,1,198.426,61.669,1014.427,1014.427,0,0,1,91.778,44.649"/><path class="e" d="M1094.357,262.456q18.492,45.162,32.644,92.063,14.124,46.846,23.74,95.112,9.588,48.211,14.5,97.522"/><path class="e" d="M809.337-129.733q37.812,31.944,72.124,67.224,34.282,35.226,64.9,73.47"/><path class="e" d="M1084.732,157.475q23.49,44.673,42.66,91.477,19.141,46.748,33.79,95.3,14.62,48.492,24.574,98.453,9.924,49.9,15.008,100.947,5.055,50.987,5.095,102.78.012,51.739-5.166,103.952"/><path class="e" d="M1158.186,959.15a1064.124,1064.124,0,0,1-37.1,101.086,1050.066,1050.066,0,0,1-46.216,95q-25.276,45.921-54.668,88.567-29.337,42.618-62.457,81.786-33.066,39.14-69.585,74.657-36.463,35.487-76.05,67.179-39.531,31.662-81.854,59.354-42.269,27.663-87,51.181-44.673,23.488-91.477,42.659-46.747,19.141-95.295,33.791-48.494,14.619-98.453,24.573-49.905,9.924-100.947,15.008-50.988,5.055-102.781,5.1-51.738.01-103.952-5.166A1050.141,1050.141,0,0,1-54.11,1678.147a1067.625,1067.625,0,0,1-205.4-63.835,1050.223,1050.223,0,0,1-95-46.217q-45.921-25.276-88.567-54.667-42.618-29.337-81.786-62.457-39.14-33.066-74.657-69.585-35.487-36.463-67.179-76.05-31.662-39.533-59.354-81.855-27.663-42.267-51.181-87-23.488-44.674-42.66-91.477-19.141-46.749-33.79-95.3Q-868.3,901.22-878.253,851.26q-9.926-49.905-15.009-100.948-5.055-50.987-5.095-102.78-.011-51.738,5.166-103.952a1050.2,1050.2,0,0,1,15.775-104.462,1067.648,1067.648,0,0,1,63.835-205.4,1050.235,1050.235,0,0,1,46.217-95Q-742.089,92.8-712.7,50.155-683.36,7.538-650.24-31.631q33.066-39.139,69.585-74.656,36.464-35.488,76.05-67.18,39.531-31.662,81.855-59.354,42.267-27.661,87-51.18,44.673-23.49,91.477-42.66,46.749-19.141,95.3-33.79,48.492-14.621,98.452-24.574,49.9-9.924,100.947-15.008,50.988-5.055,102.781-5.1,51.738-.012,103.952,5.166a1049.833,1049.833,0,0,1,104.461,15.774,1067.542,1067.542,0,0,1,205.4,63.836,1049.944,1049.944,0,0,1,95,46.216q45.921,25.276,88.568,54.668,42.617,29.336,81.785,62.457"/><path class="e" d="M749.813,1556.631q-43.7,28.6-89.949,52.917-46.188,24.287-94.58,44.107-48.335,19.791-98.529,34.937Q416.617,1703.707,364.962,1714q-51.6,10.261-104.372,15.517-52.717,5.227-106.268,5.268-53.493.012-107.479-5.341a1085.532,1085.532,0,0,1-108.006-16.31,1103.876,1103.876,0,0,1-212.364-66,1085.913,1085.913,0,0,1-98.224-47.784q-47.478-26.134-91.572-56.523-44.062-30.331-84.561-64.576-40.467-34.188-77.189-71.945-36.693-37.7-69.459-78.631-32.736-40.874-61.368-84.632-28.6-43.7-52.917-89.948-24.286-46.189-44.107-94.581-19.791-48.335-34.937-98.528-15.115-50.137-25.407-101.793-10.262-51.6-15.518-104.373-5.226-52.716-5.268-106.267-.01-53.495,5.342-107.479A1085.495,1085.495,0,0,1-912.4,432.066a1103.636,1103.636,0,0,1,66-212.364,1085.783,1085.783,0,0,1,47.784-98.224Q-772.482,74-742.094,29.906q30.332-44.064,64.576-84.561,34.187-40.469,71.945-77.19,37.7-36.691,78.631-69.458,40.872-32.738,84.632-61.368,43.7-28.6,89.948-52.918,46.189-24.285,94.58-44.107,48.335-19.791,98.529-34.936,50.138-15.117,101.793-25.408,51.6-10.26,104.372-15.517,52.718-5.226,106.268-5.268,53.495-.012,107.479,5.341a1085.81,1085.81,0,0,1,108.006,16.31,1103.878,1103.878,0,0,1,212.364,66,1085.653,1085.653,0,0,1,98.224,47.785q47.48,26.133,91.572,56.522,44.064,30.331,84.561,64.576,40.467,34.188,77.19,71.946,36.691,37.7,69.458,78.63Q1034.772,7.16,1063.4,50.918"/><path class="e" d="M985.02,1348.614q-34.187,40.469-71.945,77.19"/><path class="e" d="M1195.363,333.976q15.117,50.137,25.407,101.793,10.261,51.6,15.518,104.372,5.226,52.718,5.268,106.268.012,53.493-5.341,107.479a1086.039,1086.039,0,0,1-16.31,108.005,1103.77,1103.77,0,0,1-66,212.365"/><path class="e" d="M901.435-238.847q43.124,36.432,82.255,76.668"/><path class="e" d="M879.119,1550.936q-43.556,34.885-90.186,65.4-46.57,30.478-95.852,56.39-49.221,25.879-100.788,47-51.507,21.09-105,37.23-53.429,16.107-108.474,27.074-54.984,10.935-111.222,16.536-56.178,5.57-113.242,5.614-57.006.012-114.533-5.692a1157.009,1157.009,0,0,1-115.095-17.38,1176.328,1176.328,0,0,1-226.3-70.333,1157.149,1157.149,0,0,1-104.67-50.921q-50.6-27.849-97.582-60.232-46.956-32.322-90.111-68.814-43.124-36.43-82.255-76.667-39.1-40.176-74.017-83.792-34.885-43.554-65.4-90.186-30.478-46.569-56.39-95.851-25.881-49.221-47-100.788-21.09-51.507-37.23-105Q-972.331,927.1-983.3,872.053q-10.934-54.985-16.535-111.223-5.57-56.176-5.614-113.242-.013-57,5.691-114.533a1156.969,1156.969,0,0,1,17.381-115.094,1176.269,1176.269,0,0,1,70.333-226.3,1156.739,1156.739,0,0,1,50.92-104.67q27.849-50.595,60.232-97.583,32.324-46.954,68.815-90.11,36.43-43.124,76.667-82.256,40.176-39.1,83.791-74.017,43.555-34.886,90.186-65.4,46.57-30.479,95.852-56.391,49.221-25.879,100.788-47,51.507-21.088,105-37.229,53.427-16.109,108.473-27.075Q-16.337-501,39.9-506.605q56.178-5.569,113.243-5.614,57-.012,114.533,5.692A1156.726,1156.726,0,0,1,382.77-489.146a1176.174,1176.174,0,0,1,226.3,70.332,1157.011,1157.011,0,0,1,104.67,50.921"/><path class="e" d="M1289.877,876a1176.272,1176.272,0,0,1-70.333,226.3,1156.777,1156.777,0,0,1-50.92,104.671"/><path class="e" d="M1307.336,533.129q5.569,56.176,5.613,113.242"/><path class="e" d="M1123.1,11.8q30.478,46.571,56.391,95.852,25.879,49.219,47,100.788,21.09,51.505,37.23,105"/><path class="e" d="M901.456,1578.773q-44.9,35.96-92.963,67.409-48,31.417-98.8,58.127-50.736,26.678-103.891,48.449-53.092,21.739-108.229,38.377-55.072,16.6-111.814,27.908-56.678,11.271-114.647,17.045-57.907,5.741-116.73,5.787-58.76.012-118.06-5.867A1192.652,1192.652,0,0,1-82.32,1818.092a1212.49,1212.49,0,0,1-233.271-72.5A1192.841,1192.841,0,0,1-423.485,1693.1q-52.152-28.707-100.587-62.087-48.4-33.318-92.885-70.933-44.451-37.554-84.789-79.029-40.3-41.412-76.3-86.371-35.96-44.9-67.41-92.964-31.416-48-58.126-98.8-26.677-50.736-48.45-103.892Q-973.767,1045.933-990.4,990.8q-16.6-55.074-27.908-111.814-11.273-56.679-17.045-114.648-5.742-57.906-5.787-116.729-.013-58.761,5.867-118.06a1192.61,1192.61,0,0,1,17.916-118.639,1212.415,1212.415,0,0,1,72.5-233.27A1192.443,1192.443,0,0,1-892.374,69.744q28.707-52.154,62.087-100.587,33.318-48.4,70.933-92.886,37.554-44.451,79.029-84.788,41.412-40.3,86.371-76.3,44.9-35.959,92.963-67.409,48-31.418,98.8-58.127Q-351.451-437.028-298.3-458.8q53.093-21.739,108.228-38.376,55.074-16.605,111.814-27.909Q-21.575-536.355,36.4-542.129q57.906-5.74,116.729-5.787,58.76-.012,118.06,5.867a1192.634,1192.634,0,0,1,118.638,17.916,1212.493,1212.493,0,0,1,233.271,72.5,1192.572,1192.572,0,0,1,107.894,52.489q52.152,28.705,100.587,62.086"/><path class="e" d="M1252.365,1116.322a1192.41,1192.41,0,0,1-52.489,107.893q-28.707,52.154-62.087,100.587-33.316,48.4-70.933,92.886"/><path class="e" d="M1325.815,414.976q11.271,56.677,17.045,114.647,5.741,57.908,5.786,116.73.014,58.759-5.867,118.059a1192.338,1192.338,0,0,1-17.915,118.639"/><path class="e" d="M1009.248-187.1q40.3,41.412,76.3,86.372,35.958,44.9,67.409,92.963,31.416,48,58.127,98.8"/><path class="e" d="M923.793,1606.61q-46.238,37.033-95.74,69.423Q778.615,1708.388,726.3,1735.9q-52.252,27.474-107,49.9-54.678,22.389-111.462,39.523-56.718,17.1-115.154,28.742-58.371,11.607-118.072,17.554-59.637,5.913-120.217,5.96-60.516.012-121.587-6.043a1227.972,1227.972,0,0,1-122.183-18.451,1248.577,1248.577,0,0,1-240.239-74.664,1228.112,1228.112,0,0,1-111.117-54.057q-53.712-29.564-103.592-63.942-49.848-34.312-95.661-73.052-45.778-38.675-87.321-81.389-41.508-42.649-78.576-88.952-37.033-46.237-69.423-95.741-32.356-49.438-59.864-101.755-27.473-52.251-49.9-106.995-22.389-54.68-39.523-111.462-17.1-56.718-28.742-115.154-11.609-58.371-17.554-118.073-5.913-59.637-5.96-120.216-.014-60.516,6.042-121.587a1228.5,1228.5,0,0,1,18.451-122.183,1248.723,1248.723,0,0,1,74.665-240.24A1227.979,1227.979,0,0,1-923.626,52.5q29.563-53.711,63.941-103.592,34.314-49.846,73.053-95.66,38.675-45.78,81.389-87.322,42.649-41.508,88.952-78.576,46.238-37.033,95.74-69.423,49.439-32.355,101.755-59.863,52.252-27.474,107-49.9,54.678-22.387,111.462-39.522,56.718-17.1,115.154-28.743,58.371-11.607,118.073-17.554,59.636-5.911,120.216-5.959,60.516-.013,121.587,6.042a1227.97,1227.97,0,0,1,122.183,18.451,1248.775,1248.775,0,0,1,240.239,74.664A1228.4,1228.4,0,0,1,748.231-430.4q53.712,29.565,103.592,63.942"/><path class="e" d="M1328.583,1012.108a1244.456,1244.456,0,0,1-43.4,118.235,1228.271,1228.271,0,0,1-54.056,111.117q-29.565,53.711-63.942,103.592-34.312,49.846-73.053,95.66"/><path class="e" d="M1378.384,526.117q5.911,59.637,5.959,120.217.014,60.515-6.042,121.587"/><path class="e" d="M1034.805-212.014q41.509,42.65,78.576,88.951,37.033,46.238,69.423,95.741,32.357,49.439,59.864,101.755,27.474,52.252,49.9,106.995"/><path class="e" d="M1060.363-236.932q42.712,43.887,80.855,91.532,38.108,47.578,71.437,98.518,33.294,50.872,61.6,104.707"/><path class="e" d="M651.136-517.275a1263.947,1263.947,0,0,1,114.34,55.625q55.269,30.422,106.6,65.8"/><path class="e" d="M946.131,1634.447q-47.58,38.108-98.518,71.437-50.872,33.294-104.707,61.6-53.768,28.272-110.1,51.344-56.265,23.039-114.7,40.67-58.363,17.6-118.495,29.576-60.064,11.945-121.5,18.063-61.368,6.084-123.7,6.132-62.271.015-125.114-6.217a1263.843,1263.843,0,0,1-125.727-18.986,1284.942,1284.942,0,0,1-247.209-76.831,1263.948,1263.948,0,0,1-114.34-55.624q-55.269-30.423-106.6-65.8-51.293-35.308-98.435-75.172-47.108-39.8-89.855-83.75-42.712-43.887-80.855-91.532-38.107-47.578-71.437-98.518-33.294-50.872-61.6-104.706-28.27-53.769-51.344-110.1-23.037-56.265-40.669-114.7-17.6-58.363-29.576-118.494-11.945-60.065-18.063-121.5-6.084-61.367-6.133-123.7-.014-62.271,6.218-125.114A1263.841,1263.841,0,0,1-1087.334,396.8,1284.991,1284.991,0,0,1-1010.5,149.6a1263.969,1263.969,0,0,1,55.625-114.34q30.422-55.269,65.8-106.6,35.308-51.294,75.171-98.436,39.8-47.106,83.75-89.854,43.887-42.713,91.533-80.855,47.578-38.109,98.517-71.437,50.873-33.294,104.707-61.6,53.768-28.271,110.1-51.344,56.265-23.039,114.695-40.669,58.365-17.6,118.5-29.576,60.064-11.945,121.5-18.064,61.366-6.084,123.7-6.132,62.271-.013,125.114,6.217A1263.8,1263.8,0,0,1,403.927-594.1"/><path class="e" d="M1196.584,1365.3q-35.307,51.292-75.171,98.435"/><path class="e" d="M1362.662,1022.7a1280.706,1280.706,0,0,1-44.656,121.664"/><path class="e" d="M1395.844,401.114q11.945,60.064,18.064,121.5,6.083,61.366,6.132,123.7.013,62.271-6.218,125.114"/></g></g></g><rect class="f" width="1280" height="800"/><g transform="translate(167)"><path class="g" d="M752.4,606l194,194H755.6l-320-320h198a160,160,0,0,0,0-320H569.2L409.2,0H626.4c176.73,0,320,143.27,320,320C946.4,449.78,889.2,551.6,752.4,606Z"/><path class="g" d="M194,194,0,0H190.8l320,320h-198a160,160,0,0,0,0,320h64.4l160,160H320C143.27,800,0,656.73,0,480,0,350.22,57.2,248.4,194,194Z"/></g></g></svg>