<svg xmlns="http://www.w3.org/2000/svg" xmlns:xlink="http://www.w3.org/1999/xlink" width="3440" height="352" viewBox="0 0 3440 352"><defs><style>.a,.c{fill:none;}.b{clip-path:url(#a);}.c{stroke:#2970ff;stroke-linecap:round;}.d{fill:#2970ff;}</style><clipPath id="a"><rect class="a" width="3440" height="352"/></clipPath></defs><g class="b"><path class="c" d="M-653.3,1912.54l96.64-70.22h-147.66Z"/><path class="c" d="M1769.168,296.85l37.95-12.33,23.45-32.28-99.35-72.19h-.01Z"/><path class="c" d="M1722.088,173.42l9.12,6.63h0Z"/><path class="c" d="M1731.208,180.05h0l13.41-9.74-13.41,9.74h0l37.96-116.81-37.96-12.33-37.95,12.33,6.32,19.45,31.63,97.36-31.63-97.36,31.63,97.36Z"/><path class="c" d="M1731.208,180.05l37.96,116.8h0Z"/><path class="c" d="M1807.118,75.58l46.91,15.24h0l-75.9-55.15h0Z"/><path class="c" d="M1830.578,107.86l23.45-17.04-46.91-15.24Z"/><path class="c" d="M1731.208,180.05h122.82"/><path class="c" d="M1830.578,107.86h0l-85.96,62.45Z"/><path class="c" d="M1769.168,63.24l-37.96,116.81,13.41-9.74,85.96-62.45-23.46-32.28Z"/><path class="c" d="M1778.128,35.67"/><path class="c" d="M1731.208,180.05h0l37.96-116.81h0Z"/><path class="c" d="M1769.168,63.24l8.96-27.57h0Z"/><path class="c" d="M1778.128,35.67h-.01l-46.91,15.24,37.96,12.33Z"/><path class="c" d="M1731.208,50.91,1684.3,35.67h0l8.96,27.57Z"/><path class="c" d="M1693.258,63.24l-8.96-27.57h0Z"/><path class="c" d="M1608.4,90.82h0l23.45,17.04h0Z"/><path class="c" d="M1631.848,107.86l90.24,65.56Z"/><path class="c" d="M1699.578,82.69l-6.32-19.45h0Z"/><path class="c" d="M1655.308,75.58,1608.4,90.82l23.45,17.04Z"/><path class="c" d="M1699.578,82.69l-6.32-19.45-37.95,12.34-23.46,32.28,90.24,65.56,9.12,6.63Z"/><path class="c" d="M1684.3,35.67l-28.99,39.91,37.95-12.34Z"/><path class="c" d="M1731.208,180.05h0l-9.12-6.63-90.24-65.56-23.45,32.28v39.91Z"/><path class="c" d="M1608.4,90.82h0v49.32l23.45-32.28Z"/><path class="c" d="M1608.4,269.28h0l75.9,55.15-28.99-39.91Z"/><path class="c" d="M1691.738,301.55l1.52-4.7-37.95-12.33,28.99,39.91h0Z"/><path class="c" d="M1631.858,252.24h-.01l-23.45,17.04h0Z"/><path class="c" d="M1731.208,180.05h0l-99.36,72.19h.01Z"/><path class="c" d="M1731.208,180.05H1608.4v39.91l23.45,32.28,99.36-72.19Z"/><path class="c" d="M1684.3,35.67h0l46.91,15.24,46.91-15.24Z"/><path class="c" d="M1655.308,75.58l28.99-39.91h0l-75.9,55.15h0Z"/><path class="c" d="M1193.688,680.89l367.79-267.22h0Z"/><path class="c" d="M356.868,1288.88l46.91-144.37h0l-99.36,72.18Z"/><path class="c" d="M617.828-518.59l304.52,221.25Z"/><path class="c" d="M1456.588,269.28H1608.4l-28.99-89.23Z"/><path class="c" d="M2304.868-126.45l-52.45-72.19-99.35,72.19Z"/><path class="c" d="M722.728-662.97h0l753.41,547.4Z"/><path class="c" d="M2199.968-270.83h0L1900.948-53.57h0Z"/><path class="c" d="M1991.8-910.7l46.91,144.38,37.95-116.81Z"/><path class="c" d="M1693.258,296.85h0l37.95-116.8h0Z"/><path class="c" d="M1807.118,75.58l-28.99-39.91-8.96,27.57Z"/><path class="c" d="M1579.408,180.05h0l28.99,89.23V180.05Z"/><path class="c" d="M1854.028,90.82h0l-23.45,17.04,23.45,32.29Z"/><path class="c" d="M1691.738,301.55l1.52-4.7h0Z"/><path class="c" d="M1684.3,324.43l7.44-22.88Z"/><path class="c" d="M1778.128,324.43l28.99-39.91-37.95,12.33Z"/><path class="c" d="M1608.4,269.28l46.91,15.24-23.45-32.28Z"/><path class="c" d="M1631.858,252.24l23.45,32.28,37.95,12.33,37.95-116.8Z"/><path class="c" d="M1854.028,269.28l-23.46-17.04-23.45,32.28Z"/><path class="c" d="M670.278-590.78l-1016.26-738.37h-151.8L617.828-518.59Z"/><path class="c" d="M1456.588,269.28,314.818,1098.85l-62.85,45.66h151.81L1608.4,269.28Z"/><path class="c" d="M251.968,1144.51l52.45,72.18,99.36-72.18Z"/><path class="c" d="M1608.4,269.28h0v.01h0Z"/><path class="c" d="M314.818,1098.85l-62.85,45.66h0Z"/><path class="c" d="M1579.408,180.05-15.962,180v89.28h1472.55Z"/><path class="c" d="M1579.408,180.05h0l-122.82,89.23h0Z"/><path class="c" d="M1456.588,269.28,314.818,1098.85l1141.77-829.57Z"/><path class="c" d="M1684.3,324.43,1191.1,1842.32h0Z"/><path class="c" d="M1684.3,324.43h0l46.91,144.37h0Z"/><path class="c" d="M1731.208,468.8v.01l46.92-144.38h-.01Z"/><path class="c" d="M1561.478,413.67h0l122.82-89.24h0Z"/><path class="c" d="M-15.962,180.05h1595.37l-122.82-89.23H-15.962v89.23"/><path class="c" d="M1608.4,269.29h0l-46.92,144.38h0Z"/><path class="c" d="M1731.208-108.71l-88.09-271.13h-.01l88.1,271.14Z"/><path class="c" d="M1684.3,35.67l46.91-144.37-88.1-271.14h0l-46.9,144.37Z"/><path class="c" d="M1643.108-379.84l-84.86,27.57,37.96,116.8Z"/><path class="c" d="M1900.948-53.57l260.58-801.98h0Z"/><path class="c" d="M1778.118,35.67h.01l-46.92-144.38v.01Z"/><path class="c" d="M1579.408,180.05l-122.82-89.23h0Z"/><path class="c" d="M1596.2-235.47h.01l-37.96-116.8-84.86,27.57Z"/><path class="c" d="M1778.128,35.67l260.58-801.99L1778.128,35.67l122.82-89.24,260.58-801.98-122.82,89.23,122.82-89.23h0l-84.87-27.58-37.95,116.81h0L1778.128,35.67Z"/><path class="c" d="M670.278-590.78l-52.45,72.19h151.8Z"/><path class="c" d="M1596.2-235.47h0l-122.81-89.23h0l88.09,271.14L1684.3,35.67Z"/><path class="c" d="M1608.4,90.82,769.628-518.59h-151.8l304.52,221.25,534.24,388.16Z"/><path class="c" d="M922.348-297.34l534.24,388.16h0Z"/><path class="c" d="M769.638-518.59h0L1608.4,90.82l-46.92-144.38-85.34-62.01-753.41-547.4h-.01l46.92,144.38-46.92-144.38-52.44,72.19,99.35,72.19Z"/><path class="c" d="M1684.3,35.67h0l-122.82-89.23h.01Z"/><path class="c" d="M1561.478-53.56l-85.34-62.01Z"/><path class="c" d="M1558.248-352.27l84.86-27.57h.01l-308.46-949.31h-93.82Z"/><path class="c" d="M1684.3,324.43l-122.82,89.24-464.2,1428.65h93.82Z"/><path class="c" d="M356.868,1288.89l836.82-608,367.79-267.22,46.92-144.38L403.778,1144.51,1608.4,269.29v-.01L403.778,1144.51h0l-46.91,144.37h0l-52.45-72.19-861.08,625.63h151.81L1193.688,680.89Z"/><path class="c" d="M1561.478,413.67l-464.2,1428.65h0Z"/><path class="c" d="M251.968,1144.51h0l-957.72,695.84,1.43,1.97h147.66l861.08-625.63Z"/><path class="c" d="M-705.752,1840.35l.64,1.97h.79Z"/><path class="c" d="M670.278-590.78l52.44-72.19h.01l-916.9-666.18h-151.81Z"/><path class="c" d="M1778.128,324.43l408.59,1257.49L1778.128,324.43h0l408.59,1257.5h0l38,116.8,84.87-27.58-84.87,27.58,46.66,143.6h93.83L1900.948,413.67Zm531.41,1346.72-122.82-89.23Z"/><path class="c" d="M2810.888,854.2l-52.45,72.19,1260.65,915.93H4170.9Z"/><path class="c" d="M2139.808,1726.3l84.86-27.57-37.95-116.81-46.91,144.38,46.91-144.38L1778.128,324.43l-46.92,144.38,408.6,1257.49-408.6-1257.49h0L2177.5,1842.32h93.83l-46.66-143.59Z"/><path class="c" d="M1684.3,324.43,1191.1,1842.32h93.82L1731.208,468.8Z"/><path class="c" d="M1731.208,468.8l-446.29,1373.52h.01l446.28-1373.51Z"/><path class="c" d="M1561.478-53.56l-88.09-271.14h0l84.86-27.57-317.41-976.88h-93.83L1561.478-53.56Z"/><path class="c" d="M2705.988,998.58l52.45-72.19-99.35-72.19h-.01l46.91,144.38-46.91-144.38h.01l-805.06-584.92h0l805.05,584.92-805.05-584.92,46.92,144.39,805.04,584.91-805.04-584.91h0l1966.33,1428.65h151.81L2758.438,926.39Z"/><path class="c" d="M1854.028,269.28"/><path class="c" d="M1778.128,324.43h0l122.82,89.24h0Z"/><path class="c" d="M1900.948,413.67h0l-46.92-144.39h0Z"/><path class="c" d="M2005.838,269.28h-151.81l805.06,584.92h151.8Z"/><path class="c" d="M1778.128,35.67l260.58-801.99L1991.8-910.7l84.86,27.57,144.93-446.02h-93.82L1731.208-108.71Z"/><path class="c" d="M2315.418-1329.15l-153.89,473.6h0l-260.58,802,299-217.26h0l1058.47-769L2199.978-270.82l-46.94,144.37,46.91-144.37-299,217.26-46.91,144.38,299-217.26h0l99.36-72.19-52.45-72.19,52.45,72.19,1058.47-769-52.45-72.19,75.91,55.15-75.91-55.15,52.45,72.19,23.45-17-23.45,17,52.45,72.19-52.45-72.19-1058.44,769,52.45,72.18,1058.47-769-1058.47,769h0l-299,217.26h0l299-217.26-299,217.26h1455.16m-97.69-986.31-29-89.23Z"/><path class="c" d="M2161.528-855.55h0l153.88-473.6h-93.82l-144.93,446.02Z"/><rect class="c" height="89.23" transform="translate(3461.038 90.82)"/><path class="c" d="M2659.088,854.2l99.35,72.19,52.45-72.19Z"/><path class="c" d="M3461.038,269.28V180.05h0v89.23h0V180.05h0Z"/><path class="c" d="M1684.3,35.67h93.82l-46.91-144.37L1684.3,35.67Z"/><path class="c" d="M1854.028,90.82h0l-23.45,17.04h0Z"/><path class="c" d="M1731.208-108.7h0L1684.3,35.67h0Z"/><path class="c" d="M1900.948-53.57h0l-122.82,89.24h0Z"/><path class="c" d="M1778.128,35.67l75.9,55.15h0l46.92-144.39-122.82,89.24Z"/><path class="c" d="M1608.4,90.82l75.9-55.15h0l-122.81-89.23L1608.4,90.82Z"/><path class="c" d="M1608.4,90.82h0L769.638-518.59h-.01Z"/><path class="c" d="M1561.488-53.56h-.01L1608.4,90.82h0Z"/><path class="c" d="M1608.4,90.82h-151.81l122.82,89.23Z"/><path class="c" d="M1684.3,35.67l-88.09-271.14h-.01Z"/><path class="c" d="M1807.118,284.52l-28.99,39.91h0l75.9-55.15h0Z"/><path class="c" d="M1769.168,296.85h0l8.96,27.58h0Z"/><path class="c" d="M1854.028,90.82h0l46.92-144.39h0Z"/><path class="c" d="M1691.738,301.55l-7.44,22.88h0l46.91-15.24-37.95-12.34Z"/><path class="c" d="M1769.168,296.85l-37.96,12.34,46.91,15.24h.01Z"/><path class="c" d="M1731.208,180.05h0l-37.95,116.8,37.95,12.34,37.96-12.34Z"/><path class="c" d="M1854.028,269.28h0l-23.45-17.04h-.01Z"/><path class="c" d="M1854.028,269.28l28.99-89.23h-28.99Z"/><path class="c" d="M1854.028,140.15l28.99,39.9-28.99-39.9v39.9h29l-29-89.23h0Z"/><path class="c" d="M1731.218,180.05l99.35,72.19h.01Z"/><path class="c" d="M1778.128,324.43h0l122.82,89.24-46.92-144.39h0Z"/><path class="c" d="M1854.028,269.28h151.81l-122.81-89.23Z"/><path class="c" d="M1778.128,324.43"/><path class="c" d="M1883.018,180.05h0l-28.99,39.91h0l-23.45,32.28,23.45,17.04h0l29-89.23Z"/><path class="c" d="M1778.128,324.43h-.01l-46.91-15.24-46.91,15.24Z"/><path class="c" d="M1854.028,269.28"/><path class="c" d="M1854.028,90.82h0l299.04-217.27h-.01Z"/><path class="c" d="M1608.4,90.82l-28.99,89.23h0l28.99-39.91Z"/><path class="c" d="M2005.838,90.82l299.03-217.27h-151.8L1854.028,90.82Z"/><path class="c" d="M1883.028,180.05h1578.01V90.82h-1455.2Z"/><path class="c" d="M1883.028,180.05h0l122.81,89.23h1455.2V180.05Z"/><path class="c" d="M1883.028,180.05l122.81-89.23h0Z"/><path class="c" d="M1883.028,180.05l122.81,89.23h0Z"/><path class="c" d="M1854.028,90.82l29,89.23,122.81-89.23Z"/><path class="c" d="M1608.4,269.28h0l23.45-17.04-23.45-32.28h0l-28.99-39.91h0l28.99,89.23Z"/><path class="c" d="M1608.4,180.05V140.14l-28.99,39.91Z"/><path class="c" d="M1778.118,324.43H1684.3l46.91,144.37,46.91-144.37Z"/><path class="c" d="M1608.4,269.28Z"/><path class="c" d="M1684.3,324.43h0l-75.9-55.15v.01l-46.92,144.38,122.82-89.24Z"/><rect class="d" width="103.754" height="352" transform="translate(-147.713)"/></g></svg>