<svg xmlns="http://www.w3.org/2000/svg" xmlns:xlink="http://www.w3.org/1999/xlink" width="237" height="259" viewBox="0 0 237 259"><defs><style>.a,.c,.e,.f{fill:none;}.b{clip-path:url(#a);}.c{stroke:#2dd8a3;}.c,.f{stroke-linecap:round;stroke-linejoin:round;}.c,.e,.f{stroke-width:2px;}.d{fill:#091440;}.e,.f{stroke:#fff;}.e{stroke-miterlimit:10;}</style><clipPath id="a"><rect class="a" width="237" height="259" rx="7" transform="translate(771.794 279)"/></clipPath></defs><g transform="translate(-771.794 -279)"><g class="b"><line class="c" y1="66.399" x2="48.241" transform="translate(943.337 449.182)"/><line class="c" x2="102.284" y2="21.172" transform="translate(889.294 428.01)"/><line class="c" x1="48.241" y1="66.399" transform="translate(787.01 449.182)"/><line class="c" y1="90.736" x2="51.744" transform="translate(735.266 449.181)"/><line class="c" x2="33.6" y2="70.606" transform="translate(957.978 378.575)"/><line class="c" y1="20.43" x2="68.684" transform="translate(820.61 358.145)"/><line class="c" y1="10.138" x2="77.535" transform="translate(709.476 449.181)"/><line class="c" y1="74.384" x2="54.043" transform="translate(889.294 515.581)"/><line class="c" x2="51.744" y2="90.736" transform="translate(991.578 449.182)"/><line class="c" y1="21.172" x2="102.284" transform="translate(787.01 428.01)"/><line class="c" x1="54.043" y1="74.384" transform="translate(835.251 515.581)"/><line class="c" x2="68.684" y2="20.43" transform="translate(889.294 358.146)"/><line class="c" y1="70.606" x2="33.6" transform="translate(787.01 378.576)"/><line class="c" x2="77.535" y2="10.138" transform="translate(991.578 449.182)"/><line class="c" y2="71.547" transform="translate(889.294 358.146)"/><line class="c" x1="64.799" y2="27.666" transform="translate(755.811 378.575)"/><line class="c" x1="64.799" y1="27.666" transform="translate(957.978 378.575)"/><line class="c" x1="68.684" y2="49.434" transform="translate(889.294 378.575)"/><line class="c" x2="68.684" y2="49.434" transform="translate(820.61 378.575)"/><line class="c" x1="99.985" y2="24.336" transform="translate(735.266 515.581)"/><line class="c" x1="33.401" y2="102.796" transform="translate(801.85 515.581)"/><line class="c" x1="54.043" y2="87.571" transform="translate(835.251 428.01)"/><line class="c" x2="54.043" y2="87.571" transform="translate(889.294 428.01)"/><line class="c" x2="108.085" transform="translate(835.251 515.581)"/><line class="c" x1="33.401" y1="102.796" transform="translate(943.337 515.581)"/><line class="c" x1="99.985" y1="24.336" transform="translate(943.337 515.581)"/><path class="d" d="M907.594,449.287h-36a2,2,0,0,1-2-2v-36a2,2,0,0,1,2-2h36a2,2,0,0,1,2,2v36a2,2,0,0,1-2,2"/><rect class="e" width="40" height="40" rx="2" transform="translate(869.594 409.287)"/><path class="f" d="M886.183,420.787l-6.588,6.549h20"/><path class="f" d="M893.006,437.787l6.588-6.549h-20"/><path class="d" d="M960.978,382.575h-6a1,1,0,0,1-1-1v-6a1,1,0,0,1,1-1h6a1,1,0,0,1,1,1v6a1,1,0,0,1-1,1"/><rect class="e" width="8" height="8" rx="1" transform="translate(953.978 374.575)"/><path class="d" d="M823.306,382.575h-6a1,1,0,0,1-1-1v-6a1,1,0,0,1,1-1h6a1,1,0,0,1,1,1v6a1,1,0,0,1-1,1"/><rect class="e" width="8" height="8" rx="1" transform="translate(816.306 374.575)"/><path class="d" d="M892.366,361.809h-6a1,1,0,0,1-1-1v-6a1,1,0,0,1,1-1h6a1,1,0,0,1,1,1v6a1,1,0,0,1-1,1"/><rect class="e" width="8" height="8" rx="1" transform="translate(885.366 353.809)"/><path class="d" d="M995.226,453.149h-6a1,1,0,0,1-1-1v-6a1,1,0,0,1,1-1h6a1,1,0,0,1,1,1v6a1,1,0,0,1-1,1"/><rect class="e" width="8" height="8" rx="1" transform="translate(988.229 445.149)"/><path class="d" d="M946.126,519.766h-6a1,1,0,0,1-1-1v-6a1,1,0,0,1,1-1h6a1,1,0,0,1,1,1v6a1,1,0,0,1-1,1"/><rect class="e" width="8" height="8" rx="1" transform="translate(939.128 511.766)"/><path class="d" d="M838.816,519.766h-6a1,1,0,0,1-1-1v-6a1,1,0,0,1,1-1h6a1,1,0,0,1,1,1v6a1,1,0,0,1-1,1"/><rect class="e" width="8" height="8" rx="1" transform="translate(831.816 511.766)"/><path class="d" d="M790.052,453.149h-6a1,1,0,0,1-1-1v-6a1,1,0,0,1,1-1h6a1,1,0,0,1,1,1v6a1,1,0,0,1-1,1"/><rect class="e" width="8" height="8" rx="1" transform="translate(783.052 445.149)"/></g></g></svg>