<svg xmlns="http://www.w3.org/2000/svg" xmlns:xlink="http://www.w3.org/1999/xlink" width="237" height="259" viewBox="0 0 237 259"><defs><style>.a,.d,.e,.f{fill:none;}.b{clip-path:url(#a);}.c{fill:#091440;}.d,.e{stroke:#2970ff;}.d,.f{stroke-miterlimit:10;}.d,.e,.f{stroke-width:2px;}.e{stroke-linecap:round;stroke-linejoin:round;}.f{stroke:#fff;}.g{fill:#fff;}</style><clipPath id="a"><rect class="a" width="237" height="259" rx="7" transform="translate(515.794 279)"/></clipPath></defs><g transform="translate(-515.794 -279)"><g class="b"><path class="c" d="M673.994,374.809h-10a2,2,0,0,1-2-2v-10a2,2,0,0,1,2-2h10a2,2,0,0,1,2,2v10a2,2,0,0,1-2,2"/><rect class="d" width="14" height="14" rx="2" transform="translate(661.991 360.809)"/><line class="e" x1="16" transform="translate(645.991 367.809)"/><line class="e" x1="25.309" transform="translate(668.991 367.809)"/><path class="c" d="M707.994,374.809h-10a2,2,0,0,1-2-2v-10a2,2,0,0,1,2-2h10a2,2,0,0,1,2,2v10a2,2,0,0,1-2,2"/><rect class="d" width="14" height="14" rx="2" transform="translate(695.991 360.809)"/><path class="c" d="M570.594,438.809h-10a2,2,0,0,1-2-2v-10a2,2,0,0,1,2-2h10a2,2,0,0,1,2,2v10a2,2,0,0,1-2,2"/><rect class="d" width="14" height="14" rx="2" transform="translate(558.597 424.809)"/><line class="e" x1="20" transform="translate(675.991 431.809)"/><path class="c" d="M707.994,438.809h-10a2,2,0,0,1-2-2v-10a2,2,0,0,1,2-2h10a2,2,0,0,1,2,2v10a2,2,0,0,1-2,2"/><rect class="d" width="14" height="14" rx="2" transform="translate(695.991 424.809)"/><path class="c" d="M595.245,406.809h10a2,2,0,0,0,2-2v-10a2,2,0,0,0-2-2h-10a2,2,0,0,0-2,2v10a2,2,0,0,0,2,2"/><rect class="d" width="14" height="14" rx="2" transform="translate(593.245 392.809)"/><path class="c" d="M663.994,406.809h10a2,2,0,0,0,2-2v-10a2,2,0,0,0-2-2h-10a2,2,0,0,0-2,2v10a2,2,0,0,0,2,2"/><rect class="d" width="14" height="14" rx="2" transform="translate(661.991 392.809)"/><path class="c" d="M629.994,406.809h10a2,2,0,0,0,2-2v-10a2,2,0,0,0-2-2h-10a2,2,0,0,0-2,2v10a2,2,0,0,0,2,2"/><rect class="d" width="14" height="14" rx="2" transform="translate(627.991 392.809)"/><path class="c" d="M560.594,406.809h10a2,2,0,0,0,2-2v-10a2,2,0,0,0-2-2h-10a2,2,0,0,0-2,2v10a2,2,0,0,0,2,2"/><rect class="d" width="14" height="14" rx="2" transform="translate(558.597 392.809)"/><line class="e" x2="27.076" transform="translate(572.597 399.809)"/><line class="e" x2="27.746" transform="translate(607.245 399.809)"/><line class="e" x2="27" transform="translate(641.991 399.809)"/><path class="c" d="M697.994,406.809h10a2,2,0,0,0,2-2v-10a2,2,0,0,0-2-2h-10a2,2,0,0,0-2,2v10a2,2,0,0,0,2,2"/><rect class="d" width="14" height="14" rx="2" transform="translate(695.991 392.809)"/><line class="e" y2="25" transform="translate(702.991 367.809)"/><line class="e" x2="27" transform="translate(675.991 399.809)"/><line class="e" x1="27.648" transform="translate(565.597 431.809)"/><path class="c" d="M570.594,502.809h-10a2,2,0,0,1-2-2v-10a2,2,0,0,1,2-2h10a2,2,0,0,1,2,2v10a2,2,0,0,1-2,2"/><rect class="d" width="14" height="14" rx="2" transform="translate(558.597 488.809)"/><path class="c" d="M605.245,502.809h-10a2,2,0,0,1-2-2v-10a2,2,0,0,1,2-2h10a2,2,0,0,1,2,2v10a2,2,0,0,1-2,2"/><rect class="d" width="14" height="14" rx="2" transform="translate(593.245 488.809)"/><line class="e" x1="23.746" transform="translate(600.245 495.809)"/><path class="c" d="M595.245,470.809h10a2,2,0,0,0,2-2v-10a2,2,0,0,0-2-2h-10a2,2,0,0,0-2,2v10a2,2,0,0,0,2,2"/><rect class="d" width="14" height="14" rx="2" transform="translate(593.245 456.809)"/><path class="c" d="M663.994,470.809h10a2,2,0,0,0,2-2v-10a2,2,0,0,0-2-2h-10a2,2,0,0,0-2,2v10a2,2,0,0,0,2,2"/><rect class="d" width="14" height="14" rx="2" transform="translate(661.991 456.809)"/><path class="c" d="M629.994,470.809h10a2,2,0,0,0,2-2v-10a2,2,0,0,0-2-2h-10a2,2,0,0,0-2,2v10a2,2,0,0,0,2,2"/><rect class="d" width="14" height="14" rx="2" transform="translate(627.991 456.809)"/><path class="c" d="M560.594,470.809h10a2,2,0,0,0,2-2v-10a2,2,0,0,0-2-2h-10a2,2,0,0,0-2,2v10a2,2,0,0,0,2,2"/><rect class="d" width="14" height="14" rx="2" transform="translate(558.597 456.809)"/><line class="e" x2="27.076" transform="translate(572.597 463.809)"/><line class="e" x2="27.746" transform="translate(607.245 463.809)"/><line class="e" x2="27" transform="translate(641.991 463.809)"/><path class="c" d="M697.994,470.809h10a2,2,0,0,0,2-2v-10a2,2,0,0,0-2-2h-10a2,2,0,0,0-2,2v10a2,2,0,0,0,2,2"/><rect class="d" width="14" height="14" rx="2" transform="translate(695.991 456.809)"/><line class="e" y2="25" transform="translate(702.991 431.809)"/><line class="e" y2="25" transform="translate(565.597 463.809)"/><line class="e" y2="25" transform="translate(565.597 399.809)"/><line class="e" x2="27" transform="translate(675.991 463.809)"/><line class="e" x1="27.648" transform="translate(565.597 495.809)"/><path class="c" d="M643.994,378.809h-18a2,2,0,0,1-2-2v-18a2,2,0,0,1,2-2h18a2,2,0,0,1,2,2v18a2,2,0,0,1-2,2"/><rect class="f" width="22" height="22" rx="2" transform="translate(623.991 356.809)"/><path class="c" d="M639.994,438.809h-10a2,2,0,0,1-2-2v-10a2,2,0,0,1,2-2h10a2,2,0,0,1,2,2v10a2,2,0,0,1-2,2"/><rect class="d" width="14" height="14" rx="2" transform="translate(627.991 424.809)"/><path class="c" d="M605.245,438.809h-10a2,2,0,0,1-2-2v-10a2,2,0,0,1,2-2h10a2,2,0,0,1,2,2v10a2,2,0,0,1-2,2"/><rect class="d" width="14" height="14" rx="2" transform="translate(593.245 424.809)"/><path class="c" d="M673.994,438.809h-10a2,2,0,0,1-2-2v-10a2,2,0,0,1,2-2h10a2,2,0,0,1,2,2v10a2,2,0,0,1-2,2"/><rect class="d" width="14" height="14" rx="2" transform="translate(661.991 424.809)"/><path class="c" d="M643.994,506.809h-18a2,2,0,0,1-2-2v-18a2,2,0,0,1,2-2h18a2,2,0,0,1,2,2v18a2,2,0,0,1-2,2"/><rect class="f" width="22" height="22" rx="2" transform="translate(623.991 484.809)"/><path class="g" d="M603.245,431.809a3,3,0,1,1-3-3,3,3,0,0,1,3,3"/><path class="f" d="M634.994,367.809l-34.746,64h68.746l-34,64"/><path class="g" d="M638.994,367.809a4,4,0,1,1-4-4,4,4,0,0,1,4,4"/><path class="g" d="M638.994,495.809a4,4,0,1,1-4-4,4,4,0,0,1,4,4"/><path class="g" d="M637.994,431.809a3,3,0,1,1-3-3,3,3,0,0,1,3,3"/><path class="g" d="M671.994,431.809a3,3,0,1,1-3-3,3,3,0,0,1,3,3"/></g></g></svg>