<svg xmlns="http://www.w3.org/2000/svg" xmlns:xlink="http://www.w3.org/1999/xlink" width="237" height="259" viewBox="0 0 237 259"><defs><style>.a,.c,.e,.f{fill:none;}.b{clip-path:url(#a);}.c{stroke:#2970ff;}.c,.f{stroke-linecap:round;stroke-linejoin:round;}.c,.e,.f{stroke-width:2px;}.d{fill:#091440;}.e,.f{stroke:#fff;}.e{stroke-miterlimit:10;}</style><clipPath id="a"><path class="a" d="M7,0H230a7,7,0,0,1,7,7V252a7,7,0,0,1-7,7H7a7,7,0,0,1-7-7V7A7,7,0,0,1,7,0Z" transform="translate(771.795)"/></clipPath></defs><g transform="translate(-771.795)"><g class="b"><line class="c" x1="38.082" y2="52.415" transform="translate(808.33 319.644)"/><line class="c" x1="9.056" y1="81.956" transform="translate(758.428 218.477)"/><line class="c" x1="80.743" y1="16.713" transform="translate(808.33 372.059)"/><line class="c" x2="38.082" y2="52.415" transform="translate(931.734 319.644)"/><line class="c" y2="72.581" transform="translate(889.073 188.345)"/><line class="c" y1="33.939" x2="75.146" transform="translate(813.927 123.556)"/><line class="c" x2="55.499" y2="60.982" transform="translate(964.22 157.495)"/><line class="c" x1="40.847" y2="71.626" transform="translate(969.815 300.433)"/><line class="c" x1="26.524" y1="55.736" transform="translate(808.331 372.06)"/><line class="c" x1="54.219" y2="16.127" transform="translate(889.073 427.796)"/><line class="c" y1="42.449" x2="44.812" transform="translate(713.616 218.476)"/><line class="c" x1="32.093" y1="46.583" transform="translate(715.032 317.474)"/><line class="c" y1="44.917" x2="34.386" transform="translate(747.125 112.877)"/><line class="c" x2="53.344" y2="18.822" transform="translate(943.292 94.055)"/><line class="c" x1="61.205" y2="8.003" transform="translate(969.816 364.057)"/><line class="c" x1="68.67" y1="88.482" transform="translate(715.033 317.474)"/><line class="c" y1="92.651" x2="62.931" transform="translate(718.58 112.877)"/><line class="c" x1="53.716" y2="17.453" transform="translate(715.032 300.021)"/><line class="c" y1="126.518" transform="translate(889.073 260.925)"/><line class="c" x1="33.198" y1="45.693" transform="translate(781.511 112.877)"/><line class="c" y1="45.693" x2="33.198" transform="translate(963.438 112.877)"/><line class="c" x2="53.716" y2="17.453" transform="translate(1009.398 300.021)"/><line class="c" x1="42.661" y2="58.719" transform="translate(846.412 260.925)"/><line class="c" x1="40.847" y1="71.626" transform="translate(767.484 300.433)"/><line class="c" x1="80.743" y2="16.713" transform="translate(889.073 372.059)"/><line class="c" x2="42.661" y2="58.719" transform="translate(889.073 260.925)"/><line class="c" y2="64.788" transform="translate(889.073 123.556)"/><line class="c" y1="60.982" x2="55.499" transform="translate(758.428 157.495)"/><line class="c" x2="75.146" y2="33.939" transform="translate(889.073 123.556)"/><line class="c" x1="54.219" y1="16.127" transform="translate(834.854 427.796)"/><line class="c" x1="26.524" y2="55.736" transform="translate(943.292 372.059)"/><line class="c" x1="1.417" y1="56.548" transform="translate(713.615 260.926)"/><line class="c" x1="61.205" y1="8.003" transform="translate(747.126 364.056)"/><line class="c" y1="18.822" x2="53.344" transform="translate(781.511 94.055)"/><line class="c" x1="11.303" y1="60.683" transform="translate(747.125 157.794)"/><line class="c" x2="34.386" y2="44.917" transform="translate(996.635 112.877)"/><line class="c" y1="111.946" x2="3.548" transform="translate(715.032 205.528)"/><line class="c" x2="62.931" y2="92.651" transform="translate(996.635 112.877)"/><line class="c" x1="68.67" y2="88.482" transform="translate(994.444 317.474)"/><line class="c" x1="120.325" y2="39.095" transform="translate(768.748 260.925)"/><line class="c" y1="56.479" transform="translate(889.073 387.444)"/><line class="c" x1="74.364" y1="102.355" transform="translate(814.709 158.57)"/><line class="c" y1="102.355" x2="74.364" transform="translate(889.073 158.57)"/><line class="c" x2="120.325" y2="39.095" transform="translate(889.073 260.925)"/><line class="c" y1="87.423" x2="120.325" transform="translate(889.073 300.02)"/><line class="c" x2="105.371" y2="18.513" transform="translate(889.073 387.443)"/><line class="c" x1="14.954" y2="105.936" transform="translate(994.444 300.021)"/><line class="c" x1="45.961" y1="141.45" transform="translate(963.437 158.571)"/><line class="c" y1="94.493" x2="50.168" transform="translate(1009.398 205.528)"/><line class="c" y1="13.45" x2="73.865" transform="translate(889.258 157.495)"/><line class="c" x1="74.549" y1="12.375" transform="translate(814.709 158.57)"/><line class="c" x1="74.365" y1="76.913" transform="translate(889.073 81.657)"/><line class="c" y1="76.913" x2="74.364" transform="translate(814.709 81.657)"/><line class="c" x1="45.961" y2="141.45" transform="translate(768.748 158.57)"/><line class="c" x1="50.168" y1="94.493" transform="translate(718.58 205.528)"/><line class="c" x2="120.325" y2="87.423" transform="translate(768.748 300.021)"/><line class="c" x2="14.954" y2="105.935" transform="translate(768.748 300.021)"/><line class="c" x1="105.371" y2="18.513" transform="translate(783.702 387.443)"/><line class="c" y1="21.839" x2="51.152" transform="translate(943.292 405.957)"/><line class="c" y1="63.739" x2="87.729" transform="translate(943.292 364.057)"/><line class="c" y1="41.899" x2="36.577" transform="translate(994.444 364.057)"/><line class="c" x1="54.219" y1="12.397" transform="translate(889.073 81.658)"/><line class="c" x1="54.219" y2="12.397" transform="translate(834.854 81.658)"/><line class="c" x1="28.545" y2="47.734" transform="translate(718.58 157.794)"/><line class="c" x1="33.51" y2="103.131" transform="translate(713.615 157.794)"/><line class="c" x1="4.964" y2="55.398" transform="translate(713.616 205.528)"/><line class="c" x2="36.577" y2="41.899" transform="translate(747.125 364.057)"/><line class="c" x2="87.73" y2="63.739" transform="translate(747.125 364.057)"/><line class="c" x2="51.152" y2="21.839" transform="translate(783.703 405.956)"/><line class="c" x1="66.802" y1="0.299" transform="translate(964.219 157.495)"/><line class="c" x2="20.928" y2="63.44" transform="translate(943.292 94.055)"/><line class="c" x1="20.928" y2="63.44" transform="translate(813.927 94.055)"/><line class="c" y1="0.299" x2="66.802" transform="translate(747.125 157.495)"/><line class="c" x2="33.51" y2="103.131" transform="translate(713.616 260.925)"/><line class="c" x2="53.868" y2="39.508" transform="translate(713.616 260.925)"/><line class="c" y1="63.624" x2="20.359" transform="translate(747.125 300.433)"/><line class="c" x2="108.437" transform="translate(834.855 427.796)"/><line class="c" y1="39.023" x2="54.219" transform="translate(834.855 388.773)"/><line class="c" x1="54.219" y1="39.023" transform="translate(889.073 388.773)"/><line class="c" y1="19.211" x2="78.928" transform="translate(931.734 300.433)"/><line class="c" y1="81.147" x2="26.367" transform="translate(931.734 238.497)"/><line class="c" x1="52.562" y1="61.936" transform="translate(958.101 238.497)"/><line class="c" y1="81.002" x2="6.119" transform="translate(958.101 157.495)"/><line class="c" x2="6.119" y2="81.002" transform="translate(813.927 157.495)"/><line class="c" y1="69.128" x2="42.661" transform="translate(889.073 319.644)"/><line class="c" x1="42.661" y1="69.128" transform="translate(846.412 319.644)"/><line class="c" x1="85.322" transform="translate(846.412 319.644)"/><line class="c" x1="52.561" y2="61.936" transform="translate(767.484 238.497)"/><line class="c" x2="26.367" y2="81.147" transform="translate(820.045 238.497)"/><line class="c" x2="78.928" y2="19.211" transform="translate(767.484 300.433)"/><path class="d" d="M814.295,156.919h-.167a3.25,3.25,0,0,1,0-6.5h.167a3.25,3.25,0,0,1,0,6.5"/><path class="e" d="M814.295,156.919h-.167a3.25,3.25,0,0,1,0-6.5h.167a3.25,3.25,0,0,1,0,6.5Z"/><path class="d" d="M818.211,163.419h-8a1,1,0,0,1-1-1v-.5a5,5,0,0,1,10,0v.5a1,1,0,0,1-1,1"/><path class="e" d="M818.211,163.419h-8a1,1,0,0,1-1-1v-.5a5,5,0,0,1,10,0v.5A1,1,0,0,1,818.211,163.419Z"/><path class="d" d="M819.294,238.5h-.167a3.25,3.25,0,0,1,0-6.5h.167a3.25,3.25,0,0,1,0,6.5"/><path class="e" d="M819.294,238.5h-.167a3.25,3.25,0,0,1,0-6.5h.167a3.25,3.25,0,0,1,0,6.5Z"/><path class="d" d="M823.211,245h-8a1,1,0,0,1-1-1v-.5a5,5,0,0,1,10,0v.5a1,1,0,0,1-1,1"/><path class="e" d="M823.211,245h-8a1,1,0,0,1-1-1v-.5a5,5,0,0,1,10,0v.5A1,1,0,0,1,823.211,245Z"/><path class="d" d="M834.564,92.987H834.4a3.25,3.25,0,0,1,0-6.5h.168a3.25,3.25,0,0,1,0,6.5"/><path class="e" d="M834.564,92.987H834.4a3.25,3.25,0,0,1,0-6.5h.168a3.25,3.25,0,0,1,0,6.5Z"/><path class="d" d="M838.48,99.487h-8a1,1,0,0,1-1-1v-.5a5,5,0,0,1,10,0v.5a1,1,0,0,1-1,1"/><path class="e" d="M838.48,99.487h-8a1,1,0,0,1-1-1v-.5a5,5,0,0,1,10,0v.5A1,1,0,0,1,838.48,99.487Z"/><path class="d" d="M780.909,109.062h-.167a3.25,3.25,0,0,1,0-6.5h.167a3.25,3.25,0,0,1,0,6.5"/><path class="e" d="M780.909,109.062h-.167a3.25,3.25,0,0,1,0-6.5h.167a3.25,3.25,0,0,1,0,6.5Z"/><path class="d" d="M784.825,115.562h-8a1,1,0,0,1-1-1v-.5a5,5,0,0,1,10,0v.5a1,1,0,0,1-1,1"/><path class="e" d="M784.825,115.562h-8a1,1,0,0,1-1-1v-.5a5,5,0,0,1,10,0v.5A1,1,0,0,1,784.825,115.562Z"/><path class="d" d="M964.041,156.919h.167a3.25,3.25,0,0,0,0-6.5h-.167a3.25,3.25,0,0,0,0,6.5"/><path class="e" d="M964.041,156.919h.167a3.25,3.25,0,0,0,0-6.5h-.167a3.25,3.25,0,0,0,0,6.5Z"/><path class="d" d="M960.123,163.419h8a1,1,0,0,0,1-1v-.5a5,5,0,0,0-10,0v.5a1,1,0,0,0,1,1"/><path class="e" d="M960.123,163.419h8a1,1,0,0,0,1-1v-.5a5,5,0,0,0-10,0v.5A1,1,0,0,0,960.123,163.419Z"/><path class="d" d="M943.208,91.917h.167a3.25,3.25,0,0,0,0-6.5h-.167a3.25,3.25,0,0,0,0,6.5"/><path class="e" d="M943.208,91.917h.167a3.25,3.25,0,0,0,0-6.5h-.167a3.25,3.25,0,0,0,0,6.5Z"/><path class="d" d="M939.292,98.417h8a1,1,0,0,0,1-1v-.5a5,5,0,0,0-10,0v.5a1,1,0,0,0,1,1"/><path class="e" d="M939.292,98.417h8a1,1,0,0,0,1-1v-.5a5,5,0,0,0-10,0v.5A1,1,0,0,0,939.292,98.417Z"/><path class="d" d="M996.553,112.062h.167a3.25,3.25,0,0,0,0-6.5h-.167a3.25,3.25,0,0,0,0,6.5"/><path class="e" d="M996.553,112.062h.167a3.25,3.25,0,0,0,0-6.5h-.167a3.25,3.25,0,0,0,0,6.5Z"/><path class="d" d="M992.636,118.562h8a1,1,0,0,0,1-1v-.5a5,5,0,0,0-10,0v.5a1,1,0,0,0,1,1"/><path class="e" d="M992.636,118.562h8a1,1,0,0,0,1-1v-.5a5,5,0,0,0-10,0v.5A1,1,0,0,0,992.636,118.562Z"/><path class="d" d="M958.041,238.126h.167a3.25,3.25,0,0,0,0-6.5h-.167a3.25,3.25,0,0,0,0,6.5"/><path class="e" d="M958.041,238.126h.167a3.25,3.25,0,0,0,0-6.5h-.167a3.25,3.25,0,0,0,0,6.5Z"/><path class="d" d="M954.123,244.626h8a1,1,0,0,0,1-1v-.5a5,5,0,0,0-10,0v.5a1,1,0,0,0,1,1"/><path class="e" d="M954.123,244.626h8a1,1,0,0,0,1-1v-.5a5,5,0,0,0-10,0v.5A1,1,0,0,0,954.123,244.626Z"/><line class="f" y2="183.848" transform="translate(889.258 81.658)"/><path class="d" d="M908.295,192.834h-36v-50H897.03l11.265,11.219Z"/><path class="f" d="M908.295,192.834h-36v-50H897.03l11.265,11.219Z"/><path class="f" d="M897.03,142.834v11.219h11.265"/><path class="d" d="M896.295,170.909a6.155,6.155,0,0,1-2.136,4.692,3.616,3.616,0,0,0-1.293,2.736v1.809a1.739,1.739,0,0,1-1.714,1.753h-1.711a1.739,1.739,0,0,1-1.714-1.753v-1.809a3.616,3.616,0,0,0-1.293-2.736,6.155,6.155,0,0,1-2.136-4.692,6,6,0,0,1,12,0"/><path class="f" d="M896.295,170.909a6.155,6.155,0,0,1-2.136,4.692,3.616,3.616,0,0,0-1.293,2.736v1.809a1.739,1.739,0,0,1-1.714,1.753h-1.711a1.739,1.739,0,0,1-1.714-1.753v-1.809a3.616,3.616,0,0,0-1.293-2.736,6.155,6.155,0,0,1-2.136-4.692,6,6,0,0,1,12,0Z"/><line class="f" x2="5.143" transform="translate(887.724 177.899)"/><line class="f" y2="2.041" transform="translate(890.295 158.899)"/><line class="f" x1="2.043" transform="translate(878.295 170.945)"/><line class="f" x1="2.042" transform="translate(900.253 170.945)"/><line class="f" x1="1.021" y2="1.026" transform="translate(882.233 178.019)"/><line class="f" x1="1.021" y2="1.026" transform="translate(898.358 162.844)"/><line class="f" x1="1.021" y1="1.026" transform="translate(882.233 162.844)"/><line class="f" x1="1.021" y1="1.026" transform="translate(897.336 178.019)"/></g></g></svg>