<svg xmlns="http://www.w3.org/2000/svg" xmlns:xlink="http://www.w3.org/1999/xlink" width="237" height="259" viewBox="0 0 237 259"><defs><style>.a,.e,.f,.g{fill:none;}.b{clip-path:url(#a);}.c{fill:#2970ff;}.d{fill:#091440;}.e,.g{stroke:#fff;}.e,.f{stroke-miterlimit:10;}.e,.f,.g{stroke-width:2px;}.f{stroke:#2970ff;}.g{stroke-linecap:round;stroke-linejoin:round;}</style><clipPath id="a"><rect class="a" width="237" height="259" rx="7" transform="translate(6.794 278)"/></clipPath></defs><g transform="translate(-6.794 -278)"><g class="b"><path class="c" d="M72.568,402.583c0-2.078.868-3.181,2.255-3.181s2.256,1.1,2.256,3.181c0,2.062-.868,3.223-2.256,3.223s-2.255-1.161-2.255-3.223m3.631,0c0-1.727-.579-2.414-1.376-2.414s-1.373.687-1.373,2.414.577,2.457,1.373,2.457,1.376-.73,1.376-2.457m-2.008-.055a.623.623,0,1,1,0,.051c0-.017,0-.034,0-.051"/><path class="c" d="M78.546,402.575c.011-2.078.883-3.177,2.271-3.17s2.251,1.115,2.241,3.192-.884,3.219-2.272,3.212-2.251-1.172-2.24-3.234m3.631.018c.008-1.727-.567-2.417-1.363-2.421s-1.378.68-1.386,2.407.564,2.46,1.361,2.464,1.378-.723,1.388-2.45m-2.008-.065a.634.634,0,1,1,.629.675.628.628,0,0,1-.631-.625c0-.017,0-.033,0-.05"/><path class="c" d="M84.815,402.718c.47-2.025,1.566-2.9,2.918-2.589s1.949,1.585,1.478,3.61c-.467,2.01-1.576,2.946-2.928,2.631s-1.936-1.643-1.468-3.652m3.538.822c.391-1.683-.016-2.483-.794-2.664s-1.495.359-1.886,2.042.006,2.525.784,2.7,1.5-.4,1.9-2.083m-1.945-.508a.632.632,0,1,1-.013.05.405.405,0,0,1,.013-.05"/><path class="c" d="M90.943,404.387c.962-1.84,2.241-2.414,3.471-1.772s1.486,2.022.524,3.861-2.262,2.453-3.49,1.81-1.459-2.073-.5-3.9m3.214,1.682c.8-1.53.607-2.406-.1-2.775s-1.536-.028-2.335,1.5-.626,2.443.079,2.812,1.555-.009,2.354-1.538m-1.752-.979a.629.629,0,1,1-.023.041c.007-.014.015-.028.023-.041"/><path class="c" d="M96.437,407.523c1.391-1.544,2.774-1.783,3.806-.854s.937,2.33-.453,3.874-2.8,1.813-3.834.884-.9-2.372.481-3.9m2.7,2.43c1.154-1.284,1.186-2.181.594-2.715s-1.482-.409-2.637.875-1.216,2.212-.623,2.745,1.51.378,2.666-.9m-1.458-1.4a.635.635,0,1,1,.021.923.627.627,0,0,1-.057-.885.431.431,0,0,1,.036-.038"/><path class="c" d="M101,411.933c1.729-1.153,3.128-1.043,3.9.113s.335,2.488-1.4,3.64-3.162,1.066-3.932-.089-.286-2.52,1.43-3.664m2.013,3.02c1.438-.958,1.689-1.82,1.247-2.482s-1.334-.763-2.771.195-1.724,1.844-1.282,2.506,1.369.739,2.806-.219m-1.068-1.7a.635.635,0,1,1-.208.9.628.628,0,0,1,.164-.873c.015-.009.029-.019.044-.027"/><path class="c" d="M104.328,417.319c1.962-.687,3.29-.233,3.749,1.078s-.3,2.494-2.257,3.181c-1.946.682-3.33.247-3.789-1.063s.351-2.514,2.3-3.2m1.2,3.427c1.631-.571,2.088-1.344,1.825-2.1s-1.1-1.07-2.733-.5-2.13,1.358-1.865,2.11,1.144,1.057,2.773.485m-.612-1.913a.634.634,0,1,1-.424.82.627.627,0,0,1,.374-.8l.05-.016"/><path class="c" d="M106.2,423.375c2.073-.174,3.244.6,3.361,1.982s-.91,2.343-2.982,2.517-3.289-.594-3.4-1.979.968-2.347,3.026-2.52m.3,3.621c1.722-.145,2.359-.779,2.293-1.574s-.8-1.313-2.525-1.168-2.4.782-2.334,1.577.843,1.31,2.566,1.165m-.114-2.007a.634.634,0,1,1-.618.688.626.626,0,0,1,.563-.685.5.5,0,0,1,.055,0"/><path class="c" d="M106.5,429.691c2.052.349,3,1.391,2.762,2.761s-1.469,2.042-3.52,1.693-3.036-1.4-2.8-2.768,1.525-2.032,3.561-1.686m-.61,3.584c1.705.29,2.481-.165,2.615-.952s-.448-1.472-2.153-1.762-2.523.157-2.656.944.489,1.48,2.194,1.77m.391-1.973a.623.623,0,1,1-.053-.011l.053.011"/><path class="c" d="M105.219,435.875c1.9.851,2.55,2.1,1.981,3.364s-1.932,1.608-3.829.757-2.588-2.113-2.021-3.381,1.984-1.585,3.869-.74m-1.487,3.316c1.577.708,2.441.462,2.768-.266s-.065-1.537-1.642-2.244-2.481-.48-2.807.248.1,1.555,1.681,2.262m.872-1.811a.629.629,0,1,1-.045-.022l.045.022"/><path class="c" d="M92.309,447.8l-1.6.7,1.72,3.92,1.263-.554.248.565a4.381,4.381,0,0,0-1.3,1.1l-.657.288-2.162-4.927-1.422.625-.319-.726,3.91-1.716Z"/><path class="c" d="M85.35,454.8l3.372-.647.156.813-4.432.85-.112-.583a7.569,7.569,0,0,0,.989-5.869l.98-.188a8.111,8.111,0,0,1-.953,5.624"/><path class="c" d="M82.171,450.287c-2.008,1.754-3.161,2.828-3.161,3.818,0,.678.412,1.129,1.254,1.129a2.066,2.066,0,0,0,1.418-.707l.543.536a2.775,2.775,0,0,1-2.084.949,1.843,1.843,0,0,1-2.044-1.617,1.929,1.929,0,0,1-.012-.24c0-1.13,1.137-2.27,2.687-3.665-.377.03-.787.053-1.143.053H77.752v-.819h4.419Z"/><path class="c" d="M76.227,450.974c0,1.061-.964,1.583-3.353,1.762a1.045,1.045,0,0,0,1.191,1.055,3.3,3.3,0,0,0,1.6-.533l.367.645a4.244,4.244,0,0,1-2.138.67,1.8,1.8,0,0,1-1.985-1.594,1.837,1.837,0,0,1,0-.406v-2.85h.8l.076.613h.031a3.11,3.11,0,0,1,1.812-.729,1.436,1.436,0,0,1,1.592,1.259c0,.035.007.071.008.106m-3.353.037v1.108c1.859-.133,2.41-.507,2.41-1.073,0-.474-.426-.671-.932-.671a2.369,2.369,0,0,0-1.478.636"/><path class="c" d="M70.221,452.1a2.388,2.388,0,0,1-2.3,2.474c-.043,0-.085,0-.128,0a2.052,2.052,0,0,1-2.182-1.913,2.025,2.025,0,0,1,0-.321,3.278,3.278,0,0,1,.044-.524h3.892v.706H66.261l.208-.235c0,1.026.5,1.54,1.3,1.54a1.539,1.539,0,0,0,1.52-1.556,1.639,1.639,0,0,0-.012-.172,1.6,1.6,0,0,0-1.746-1.735,2.576,2.576,0,0,0-1.383.417l-.338-.61a3.344,3.344,0,0,1,1.844-.561,2.4,2.4,0,0,1,2.565,2.223,2.362,2.362,0,0,1,0,.266"/><path class="c" d="M64.165,450.974c0,1.061-.964,1.583-3.353,1.762A1.045,1.045,0,0,0,62,453.791a3.3,3.3,0,0,0,1.6-.533l.367.645a4.244,4.244,0,0,1-2.138.67,1.8,1.8,0,0,1-1.985-1.594,1.837,1.837,0,0,1,0-.406v-2.85h.8l.076.613h.031a3.11,3.11,0,0,1,1.812-.729,1.436,1.436,0,0,1,1.592,1.259c0,.035.007.071.008.106m-3.353.037v1.108c1.859-.133,2.41-.507,2.41-1.073,0-.474-.426-.671-.932-.671a2.369,2.369,0,0,0-1.478.636"/><path class="c" d="M58.157,452.082a2.265,2.265,0,0,1-2.024,2.483l-.086.007a1.9,1.9,0,0,1-1.361-.579h-.024l.047.832v1.766h-.966v-6.867h.79l.076.588h.032a2.194,2.194,0,0,1,1.486-.7c1.222,0,2.03.906,2.03,2.474m-3.448-1.037v2.239a1.585,1.585,0,0,0,1.119.484c.738,0,1.342-.641,1.342-1.674,0-1.077-.478-1.681-1.268-1.681a1.567,1.567,0,0,0-1.193.632"/><path class="c" d="M52.146,450.287c-2.008,1.754-3.161,2.828-3.161,3.818,0,.678.412,1.129,1.254,1.129a2.066,2.066,0,0,0,1.418-.707l.543.536a2.775,2.775,0,0,1-2.084.949,1.843,1.843,0,0,1-2.044-1.617,1.929,1.929,0,0,1-.012-.24c0-1.13,1.137-2.27,2.687-3.665-.377.03-.787.053-1.143.053H47.727v-.819h4.419Z"/><path class="c" d="M46.279,452.679c-.315,2.414-1.684,3.223-3.025,3.048a2.563,2.563,0,0,1-1.683-.907l.6-.521a1.8,1.8,0,0,0,1.121.632c.943.123,1.847-.43,2.1-2.368.2-1.511-.283-2.307-1.188-2.426a1.185,1.185,0,0,0-1.349.995c-.005.035-.009.07-.011.105a1.084,1.084,0,0,0,1.04,1.347,2,2,0,0,0,1.6-.615l-.055.707a2.544,2.544,0,0,1-1.82.584,1.757,1.757,0,0,1-1.7-1.81,1.851,1.851,0,0,1,.042-.331,2.016,2.016,0,0,1,2.268-1.728l.077.012c1.316.171,2.252,1.265,1.989,3.28"/><path class="c" d="M40.047,451.867c-.777,1.93-2,2.63-3.285,2.11s-1.683-1.868-.9-3.8,2.011-2.668,3.3-2.149,1.66,1.922.889,3.837m-3.372-1.358c-.646,1.6-.367,2.459.374,2.757s1.533-.125,2.18-1.729.381-2.5-.358-2.8-1.551.163-2.2,1.767m1.844.8a.635.635,0,1,1-.336-.861.628.628,0,0,1,.357.813.5.5,0,0,1-.021.048"/><path class="c" d="M26.062,440.861c-2.173,1.1-3.615.427-4.225-.779a2.552,2.552,0,0,1-.2-1.9l.768.2a1.808,1.808,0,0,0,.11,1.283c.431.849,1.4,1.283,3.142.4,1.36-.69,1.748-1.537,1.334-2.352a1.185,1.185,0,0,0-1.584-.548c-.03.015-.06.031-.089.048a1.083,1.083,0,0,0-.643,1.391,1.028,1.028,0,0,0,.116.229,2,2,0,0,0,1.412.972l-.615.355a2.552,2.552,0,0,1-1.509-1.183,1.755,1.755,0,0,1,.533-2.425,1.7,1.7,0,0,1,.3-.154,2.016,2.016,0,0,1,2.707.895c.012.024.024.048.035.073.6,1.183.226,2.576-1.588,3.495"/><path class="c" d="M23.242,435.311c-2.029.45-3.3-.16-3.6-1.515s.59-2.443,2.62-2.893,3.337.151,3.638,1.507-.646,2.456-2.662,2.9m-.785-3.547c-1.688.374-2.233,1.087-2.061,1.865s.968,1.2,2.655.821,2.276-1.1,2.1-1.874-1.011-1.186-2.7-.812m.38,1.974a.635.635,0,1,1,.52-.764.627.627,0,0,1-.469.754l-.051.01"/><path class="c" d="M22.107,429.079c-2.077-.074-3.151-.981-3.1-2.368s1.183-2.217,3.261-2.143c2.062.073,3.193.983,3.142,2.371s-1.241,2.214-3.3,2.14m.131-3.63c-1.728-.062-2.436.492-2.465,1.288s.639,1.4,2.367,1.461,2.475-.49,2.5-1.287-.679-1.4-2.4-1.462m-.128,2.006a.627.627,0,1,1,.054,0l-.054,0"/><path class="c" d="M23.314,422.844a2.474,2.474,0,0,1-1.7-3.059c.02-.07.043-.138.069-.206a2.448,2.448,0,0,1,1.145-1.473l.452.619a1.9,1.9,0,0,0-.826,1.04,1.621,1.621,0,0,0,.967,2.079,1.7,1.7,0,0,0,.172.052,1.6,1.6,0,0,0,2.1-1.143,2.229,2.229,0,0,0-.134-1.506l.713-.22a2.888,2.888,0,0,1,.159,2.026A2.4,2.4,0,0,1,23.6,422.92a2.466,2.466,0,0,1-.28-.076"/><path class="c" d="M27.389,417.111l-.016.026.4.347-.4.651-5.87-3.564.5-.825,1.558.946.723.488.015-.026a2.2,2.2,0,0,1,.209-1.641c.648-1.069,1.82-1.178,3.066-.421a2.283,2.283,0,0,1,1.151,3.017q-.027.059-.057.117a2.186,2.186,0,0,1-1.284.885m-.305-3.167c-.847-.515-1.564-.529-2.006.2a1.787,1.787,0,0,0-.109,1.4l1.915,1.162a1.785,1.785,0,0,0,1.014-.736c.381-.63.143-1.442-.814-2.022"/><path class="c" d="M28.684,411.814a2.387,2.387,0,0,1-.074-3.376c.03-.031.06-.061.091-.09a2.053,2.053,0,0,1,3.12.083,3.425,3.425,0,0,1,.334.407l-2.793,2.714-.493-.507,2.362-2.3.014.314c-.714-.736-1.429-.758-2-.2a1.538,1.538,0,0,0-.006,2.175,1.564,1.564,0,0,0,.129.116,1.6,1.6,0,0,0,2.251.233,1.648,1.648,0,0,0,.211-.207,2.566,2.566,0,0,0,.7-1.261l.668.2a3.336,3.336,0,0,1-.931,1.687,2.4,2.4,0,0,1-3.389.191,2.461,2.461,0,0,1-.191-.191"/><path class="c" d="M34.2,409.212c.865-2.523,1.332-4.03.836-4.889a1.085,1.085,0,0,0-1.458-.477,1.036,1.036,0,0,0-.191.123,2.068,2.068,0,0,0-.879,1.321l-.738-.2a2.785,2.785,0,0,1,1.334-1.862,1.846,1.846,0,0,1,2.583.386,2,2,0,0,1,.129.2c.563.98.145,2.536-.505,4.52.312-.215.658-.439.965-.617l1.629-.936.409.711-3.834,2.2Z"/><path class="c" d="M40.879,401.078l-3.3.952-.23-.8,4.34-1.251.164.571a7.579,7.579,0,0,0-.449,5.941l-.959.276a8.122,8.122,0,0,1,.435-5.693"/><path class="c" d="M44.017,402.931c-.106-2.432,1.1-3.465,2.454-3.523a2.548,2.548,0,0,1,1.815.6l-.5.617a1.781,1.781,0,0,0-1.212-.43c-.952.041-1.746.742-1.661,2.694.066,1.522.676,2.225,1.59,2.185a1.183,1.183,0,0,0,1.155-1.21c0-.035,0-.069-.007-.1a1.081,1.081,0,0,0-1-1.16,1.066,1.066,0,0,0-.259.011,2,2,0,0,0-1.468.882l-.069-.706a2.546,2.546,0,0,1,1.693-.889,1.757,1.757,0,0,1,1.985,1.5,1.787,1.787,0,0,1,.015.327,2.014,2.014,0,0,1-1.928,2.1l-.086,0c-1.325.058-2.438-.858-2.525-2.889"/><path class="c" d="M50.079,403.333a2.473,2.473,0,0,1,2.448-2.5c.072,0,.144,0,.216.007a2.448,2.448,0,0,1,1.736.678l-.465.609a1.891,1.891,0,0,0-1.23-.495,1.62,1.62,0,0,0-1.717,1.517,1.784,1.784,0,0,0,1.513,1.865,1.53,1.53,0,0,0,.179,0,2.224,2.224,0,0,0,1.4-.557l.413.621a2.876,2.876,0,0,1-1.9.729,2.4,2.4,0,0,1-2.593-2.19,2.449,2.449,0,0,1-.007-.284"/><path class="c" d="M58.779,400.346H55.346v-.826h4.512v.593a7.574,7.574,0,0,0-2.076,5.577h-1a8.115,8.115,0,0,1,1.993-5.344"/><path class="c" d="M60.832,404.441c0-1.061.964-1.583,3.353-1.762a1.044,1.044,0,0,0-1.022-1.065,1.058,1.058,0,0,0-.169.01,3.3,3.3,0,0,0-1.6.532l-.367-.644a4.244,4.244,0,0,1,2.138-.67,1.8,1.8,0,0,1,1.985,1.594,1.837,1.837,0,0,1,0,.406v2.85h-.8l-.076-.613h-.031a3.11,3.11,0,0,1-1.812.729,1.433,1.433,0,0,1-1.591-1.257.983.983,0,0,1-.009-.108m3.353-.037V403.3c-1.859.133-2.41.507-2.41,1.073,0,.474.426.671.932.671a2.369,2.369,0,0,0,1.478-.636"/><path class="c" d="M66.7,405.127c2.008-1.753,3.161-2.828,3.161-3.817,0-.678-.412-1.129-1.254-1.129a2.065,2.065,0,0,0-1.418.708l-.543-.537a2.775,2.775,0,0,1,2.084-.949,1.843,1.843,0,0,1,2.044,1.617,1.914,1.914,0,0,1,.012.239c0,1.13-1.137,2.27-2.687,3.665.377-.029.787-.052,1.143-.052h1.877v.819H66.7Z"/><path class="c" d="M18.537,411.213c0-2.078.868-3.181,2.255-3.181s2.256,1.1,2.256,3.181c0,2.062-.868,3.223-2.256,3.223s-2.255-1.161-2.255-3.223m3.631,0c0-1.727-.579-2.414-1.376-2.414s-1.373.687-1.373,2.414.577,2.457,1.373,2.457,1.376-.73,1.376-2.457m-2.008-.055a.623.623,0,1,1,0,.051c0-.017,0-.034,0-.051"/><path class="c" d="M37.2,412.335c1.056-1.793,2.366-2.3,3.563-1.6s1.385,2.1.326,3.891-2.387,2.339-3.583,1.632-1.358-2.149-.306-3.927m3.129,1.846c.88-1.489.732-2.375.044-2.782s-1.535-.106-2.414,1.384-.752,2.413-.064,2.819,1.556.07,2.434-1.421m-1.7-1.068a.635.635,0,1,1,.2.9.628.628,0,0,1-.226-.859c.008-.014.017-.028.026-.041"/><path class="c" d="M42.659,416.044c1.666-1.242,3.069-1.206,3.9-.094s.465,2.468-1.2,3.71-3.1,1.232-3.932.119-.419-2.5,1.233-3.735m2.172,2.91c1.383-1.032,1.59-1.907,1.113-2.546s-1.373-.69-2.758.343-1.623,1.932-1.146,2.57,1.406.666,2.791-.367m-1.156-1.642a.634.634,0,1,1-.161.909.627.627,0,0,1,.116-.878l.045-.031"/><path class="c" d="M46.215,421.62c2.021-.5,3.3.082,3.633,1.432s-.534,2.456-2.552,2.953-3.342-.073-3.673-1.422.588-2.47,2.592-2.963m.869,3.528c1.678-.413,2.208-1.138,2.019-1.913s-1-1.172-2.676-.758-2.251,1.149-2.06,1.923,1.039,1.162,2.717.748m-.427-1.964a.635.635,0,1,1-.5.776.628.628,0,0,1,.451-.765.39.39,0,0,1,.049-.011"/><path class="c" d="M47.379,428.075c2.052.328,3,1.359,2.783,2.728s-1.444,2.054-3.494,1.726-3.046-1.365-2.827-2.736,1.5-2.044,3.538-1.718m-.573,3.584c1.705.272,2.475-.189,2.6-.976s-.462-1.465-2.167-1.738-2.517.183-2.643.97.5,1.471,2.209,1.744m.371-1.973a.634.634,0,1,1-.763.519.627.627,0,0,1,.714-.528.418.418,0,0,1,.049.009"/><path class="c" d="M45.993,434.514c1.762,1.1,2.234,2.427,1.495,3.6s-2.133,1.324-3.893.22-2.27-2.45-1.532-3.626,2.183-1.294,3.93-.2m-1.93,3.076c1.464.918,2.353.795,2.777.119s.149-1.53-1.315-2.449-2.389-.817-2.812-.142-.114,1.553,1.35,2.472m1.115-1.672a.634.634,0,1,1-.907.179.627.627,0,0,1,.863-.208l.044.029"/><path class="c" d="M42.142,439.872c1.2,1.7,1.129,3.1,0,3.9s-2.479.4-3.679-1.294-1.153-3.136-.019-3.936,2.513-.356,3.7,1.328m-2.965,2.1c1,1.412,1.868,1.639,2.517,1.179s.727-1.356-.271-2.766-1.891-1.673-2.542-1.212-.7,1.389.3,2.8m1.672-1.114a.627.627,0,1,1-.023-.035c.008.012.016.023.023.035"/><path class="c" d="M36.524,443.338c.443,2.031-.169,3.293-1.525,3.591s-2.44-.6-2.883-2.626.158-3.335,1.514-3.632,2.452.653,2.894,2.667m-3.547.776c.369,1.688,1.08,2.236,1.858,2.066s1.2-.966.828-2.653-1.09-2.277-1.869-2.107-1.188,1.007-.817,2.694m1.973-.375a.635.635,0,1,1-.763-.522.629.629,0,0,1,.754.472c0,.017.007.033.009.05"/><path class="c" d="M30.3,444.2c0,2.078-.868,3.181-2.255,3.181s-2.256-1.1-2.256-3.181c0-2.062.868-3.223,2.256-3.223S30.3,442.14,30.3,444.2m-3.631,0c0,1.727.579,2.414,1.376,2.414s1.373-.687,1.373-2.414-.577-2.457-1.373-2.457-1.376.73-1.376,2.457m2.008.055a.623.623,0,1,1,0-.051c0,.017,0,.034,0,.051"/><path class="c" d="M24.3,444.2c0,2.078-.868,3.181-2.255,3.181s-2.256-1.1-2.256-3.181c0-2.062.868-3.223,2.256-3.223S24.3,442.14,24.3,444.2m-3.631,0c0,1.727.579,2.414,1.376,2.414s1.373-.687,1.373-2.414-.577-2.457-1.373-2.457-1.376.73-1.376,2.457m2.008.055a.623.623,0,1,1,0-.051c0,.017,0,.034,0,.051"/><path class="c" d="M18.441,441.889H16.692v4.278H18.07v.617a4.406,4.406,0,0,0-1.627.482h-.716v-5.378H14.173V441.1h4.268Z"/><path class="c" d="M12.939,443.967c0,2.433-1.252,3.411-2.6,3.411a2.555,2.555,0,0,1-1.786-.68l.526-.594a1.784,1.784,0,0,0,1.19.481c.951,0,1.775-.666,1.775-2.618,0-1.522-.579-2.25-1.492-2.25a1.183,1.183,0,0,0-1.2,1.165c0,.033,0,.065,0,.1a1.082,1.082,0,0,0,.946,1.2,1.067,1.067,0,0,0,.259,0,2,2,0,0,0,1.5-.817l.038.707a2.545,2.545,0,0,1-1.728.816,1.753,1.753,0,0,1-1.921-1.906,2.013,2.013,0,0,1,2.018-2.008l.082,0c1.324,0,2.4.962,2.4,2.993"/><path class="c" d="M7.026,441.889H5.279v4.278H6.657v.617a4.406,4.406,0,0,0-1.627.482H4.314v-5.378H2.758V441.1H7.026Z"/><path class="c" d="M5.056,413.589l.461-.628a2.394,2.394,0,0,0,1.667.683,1.322,1.322,0,0,0,1.456-1.173c0-.039.006-.079.007-.118A1.238,1.238,0,0,0,7.425,411.1a1.179,1.179,0,0,0-.188.012,2.175,2.175,0,0,0-1.2.353l-.479-.307.194-3.007H9.319v.827H6.592l-.148,1.647A2.549,2.549,0,0,1,7.5,410.4a1.879,1.879,0,0,1,2.1,1.623,1.845,1.845,0,0,1,.014.306,2.15,2.15,0,0,1-2.188,2.113l-.129-.006a3.125,3.125,0,0,1-2.246-.848"/><path class="c" d="M11.079,411.213c0-2.078.868-3.181,2.255-3.181s2.256,1.1,2.256,3.181c0,2.062-.868,3.223-2.256,3.223s-2.255-1.161-2.255-3.223m3.631,0c0-1.727-.579-2.414-1.376-2.414s-1.373.687-1.373,2.414.577,2.457,1.373,2.457,1.376-.73,1.376-2.457m-2.008-.055a.623.623,0,1,1,0,.051c0-.017,0-.034,0-.051"/><path class="c" d="M152.128,412.519c1.1-1.761,2.428-2.234,3.6-1.5s1.324,2.134.22,3.9-2.451,2.269-3.625,1.531-1.295-2.184-.2-3.93m3.076,1.93c.918-1.463.795-2.353.12-2.776s-1.53-.149-2.45,1.314-.817,2.389-.142,2.813,1.554.113,2.472-1.351m-1.672-1.114a.634.634,0,1,1,.178.906.627.627,0,0,1-.207-.862c.009-.015.019-.03.029-.044"/><path class="c" d="M157.592,416.475c1.708-1.184,3.109-1.1,3.9.041s.379,2.483-1.329,3.667-3.143,1.125-3.935-.016-.331-2.516,1.364-3.692m2.069,2.984c1.42-.984,1.655-1.851,1.2-2.506s-1.348-.737-2.767.247-1.69,1.875-1.235,2.53,1.383.713,2.8-.271m-1.1-1.681a.629.629,0,1,1-.037.024l.037-.024"/><path class="c" d="M160.992,422.3c2.041-.407,3.293.229,3.566,1.592s-.642,2.432-2.683,2.838c-2.025.4-3.336-.22-3.607-1.583s.7-2.443,2.724-2.847m.711,3.565c1.7-.338,2.257-1.04,2.1-1.823s-.943-1.215-2.64-.877-2.3,1.049-2.144,1.831.986,1.208,2.683.869m-.339-1.982a.635.635,0,1,1-.051.009.451.451,0,0,1,.051-.009"/><path class="c" d="M161.849,428.967c2.029.44,2.924,1.52,2.63,2.876s-1.553,1.972-3.583,1.532-2.967-1.528-2.673-2.884,1.61-1.959,3.626-1.524m-.77,3.543c1.688.365,2.481-.054,2.65-.832s-.382-1.488-2.069-1.854-2.524.046-2.691.825.423,1.5,2.11,1.861m.478-1.949a.634.634,0,1,1-.792.476.627.627,0,0,1,.74-.489l.052.013"/><path class="c" d="M160.044,435.467c1.686,1.216,2.074,2.566,1.262,3.692s-2.216,1.186-3.9-.031-2.108-2.59-1.3-3.717,2.263-1.152,3.936.056m-2.124,2.946c1.4,1.011,2.3.945,2.765.3s.246-1.518-1.156-2.528-2.333-.969-2.8-.323-.211,1.543,1.191,2.554m1.219-1.6a.634.634,0,1,1-.916.12.627.627,0,0,1,.873-.153l.043.033"/><path class="c" d="M155.759,440.658c1.079,1.776.91,3.17-.276,3.89s-2.5.228-3.58-1.548-.932-3.207.255-3.927,2.532-.179,3.6,1.585m-3.1,1.884c.9,1.476,1.746,1.764,2.427,1.351s.818-1.3-.077-2.778-1.77-1.8-2.451-1.387-.8,1.337.1,2.814m1.744-.995a.627.627,0,1,1-.026-.046c.009.015.018.03.026.046"/><path class="c" d="M149.75,443.758c.274,2.062-.44,3.271-1.818,3.455s-2.385-.8-2.66-2.858.436-3.313,1.813-3.5,2.392.854,2.665,2.9m-3.6.481c.228,1.713.892,2.319,1.683,2.214s1.272-.864,1.044-2.578-.9-2.362-1.689-2.256-1.267.906-1.038,2.62m2-.211a.626.626,0,1,1,0-.051c0,.017,0,.034,0,.051"/><path class="c" d="M143.447,444.2c0,2.078-.868,3.181-2.255,3.181s-2.256-1.1-2.256-3.181c0-2.062.868-3.223,2.256-3.223s2.255,1.161,2.255,3.223m-3.631,0c0,1.727.579,2.414,1.376,2.414s1.373-.687,1.373-2.414-.577-2.457-1.373-2.457-1.376.73-1.376,2.457m2.008.055a.623.623,0,1,1,0-.051c0,.017,0,.034,0,.051"/><path class="c" d="M137.332,444.2c0,2.078-.868,3.181-2.255,3.181s-2.256-1.1-2.256-3.181c0-2.062.868-3.223,2.256-3.223s2.255,1.161,2.255,3.223m-3.631,0c0,1.727.579,2.414,1.376,2.414s1.373-.687,1.373-2.414-.577-2.457-1.373-2.457-1.376.73-1.376,2.457m2.008.055a.623.623,0,1,1,0-.051c0,.017,0,.034,0,.051"/><path class="c" d="M131.358,441.889h-1.749v4.278h1.378v.617a4.406,4.406,0,0,0-1.627.482h-.716v-5.378H127.09V441.1h4.268Z"/><path class="c" d="M125.571,441.851l-.472.621a2.451,2.451,0,0,0-1.7-.7c-.8,0-1.39.391-1.39,1.022,0,.686.568,1.138,2.139,1.138v.714c-1.4,0-1.929.459-1.929,1.067,0,.549.472.892,1.169.892a2.261,2.261,0,0,0,1.465-.6l.5.6a3.065,3.065,0,0,1-2,.779c-1.21,0-2.1-.581-2.1-1.6,0-.717.524-1.186,1.282-1.445V444.3a1.678,1.678,0,0,1-1.49-1.551c0-1.107,1.041-1.769,2.288-1.769a3.025,3.025,0,0,1,2.246.871"/><path class="c" d="M119.351,442.673a1.846,1.846,0,0,1-1.284,1.61v.038a1.741,1.741,0,0,1,.929,1.445c0,.974-.822,1.617-1.957,1.617-1.214,0-1.943-.682-1.943-1.657a1.873,1.873,0,0,1,.926-1.438v-.038a1.727,1.727,0,0,1-1.2-1.61c0-.933.813-1.66,2.249-1.66,1.4,0,2.277.708,2.277,1.693m-3.615,0c0,.777.795.991,1.82,1.34a1.486,1.486,0,0,0,.937-1.243c0-.642-.576-1.09-1.441-1.09-.825,0-1.316.387-1.316.993m.18,3a1.015,1.015,0,0,0,1.015,1.017.837.837,0,0,0,.132-.008.942.942,0,0,0,1.055-.813.892.892,0,0,0,.008-.1c0-.675-.652-.967-1.522-1.246a1.477,1.477,0,0,0-.688,1.153"/><path class="c" d="M113.136,443.453a2.473,2.473,0,0,1-2.448,2.5c-.072,0-.144,0-.216-.007a2.448,2.448,0,0,1-1.736-.678l.465-.609a1.891,1.891,0,0,0,1.23.495,1.62,1.62,0,0,0,1.717-1.517,1.784,1.784,0,0,0-1.513-1.865,1.523,1.523,0,0,0-.179,0,2.224,2.224,0,0,0-1.4.557l-.413-.621a2.88,2.88,0,0,1,1.9-.729,2.4,2.4,0,0,1,2.593,2.19,2.448,2.448,0,0,1,.007.284"/><path class="c" d="M107.053,444.2c0,2.078-.868,3.181-2.255,3.181s-2.256-1.1-2.256-3.181c0-2.062.868-3.223,2.256-3.223s2.255,1.161,2.255,3.223m-3.631,0c0,1.727.579,2.414,1.376,2.414s1.373-.687,1.373-2.414-.577-2.457-1.373-2.457-1.376.73-1.376,2.457m2.008.055a.623.623,0,1,1,0-.051c0,.017,0,.034,0,.051"/><path class="c" d="M100.888,441.651l-.525.6a1.785,1.785,0,0,0-1.191-.474c-.945,0-1.774.665-1.774,2.618,0,1.522.587,2.242,1.492,2.242a1.178,1.178,0,0,0,1.213-1.142c0-.037,0-.075,0-.112a1.088,1.088,0,0,0-1.213-1.2,2,2,0,0,0-1.5.817l-.038-.707a2.5,2.5,0,0,1,1.729-.815,1.747,1.747,0,0,1,1.912,1.566,1.679,1.679,0,0,1,0,.34,2.012,2.012,0,0,1-2.017,2.007l-.076,0c-1.323,0-2.4-.963-2.4-2.993,0-2.432,1.261-3.411,2.6-3.411a2.58,2.58,0,0,1,1.785.672"/><path class="c" d="M95.493,441.861l-.65.431a2.447,2.447,0,0,0-1.377-1.219c-.752-.261-1.438-.087-1.646.51-.224.646.162,1.26,1.645,1.775l-.234.674c-1.318-.458-1.971-.2-2.171.374-.18.519.153,1,.81,1.227a2.256,2.256,0,0,0,1.579-.085l.278.73a3.074,3.074,0,0,1-2.148.076c-1.141-.4-1.8-1.238-1.461-2.2a1.589,1.589,0,0,1,1.685-.944l.012-.036a1.676,1.676,0,0,1-.9-1.953c.363-1.045,1.563-1.329,2.741-.92a3.023,3.023,0,0,1,1.834,1.56"/><path class="c" d="M88.626,441.267c-1.628,1.807-3.214,1.7-4.217.793a2.554,2.554,0,0,1-.871-1.7l.787-.091a1.8,1.8,0,0,0,.565,1.156c.706.637,1.763.693,3.069-.758,1.019-1.131,1.075-2.059.4-2.669a1.182,1.182,0,0,0-1.671.052c-.024.025-.046.052-.068.079a1.082,1.082,0,0,0-.1,1.527,1.1,1.1,0,0,0,.193.173,2,2,0,0,0,1.664.4l-.445.551a2.54,2.54,0,0,1-1.829-.551,1.755,1.755,0,0,1-.373-2.454,1.775,1.775,0,0,1,.22-.246,2.014,2.014,0,0,1,2.845-.136l.055.052c.984.886,1.136,2.318-.222,3.827"/><path class="c" d="M84.5,436.2a2.472,2.472,0,0,1-3.29-1.183c-.03-.065-.058-.131-.083-.2a2.442,2.442,0,0,1-.108-1.859l.746.167a1.9,1.9,0,0,0,.065,1.324,1.619,1.619,0,0,0,2.093.927,1.357,1.357,0,0,0,.165-.074,1.6,1.6,0,0,0,.9-2.078,1.652,1.652,0,0,0-.074-.16,2.228,2.228,0,0,0-1.091-1.044l.391-.635a2.882,2.882,0,0,1,1.452,1.418,2.393,2.393,0,0,1-.888,3.266,2.482,2.482,0,0,1-.274.134"/><path class="c" d="M82.212,430.322a2.268,2.268,0,0,1-2.52-1.983c0-.028-.006-.056-.008-.084a1.9,1.9,0,0,1,.553-1.371v-.024l-.829.062-1.767.031-.017-.965,6.867-.122.014.788-.587.088v.031a2.2,2.2,0,0,1,.73,1.473c.02,1.222-.871,2.048-2.438,2.076m.976-3.468-2.24.04a1.582,1.582,0,0,0-.463,1.129c.012.737.664,1.33,1.7,1.311,1.077-.019,1.673-.507,1.659-1.3a1.572,1.572,0,0,0-.653-1.183"/><path class="c" d="M84.141,424.541c-.858-2.528-1.413-4.007-2.329-4.385a1.086,1.086,0,0,0-1.448.515,1.1,1.1,0,0,0-.076.215,2.071,2.071,0,0,0,.114,1.584l-.705.3a2.782,2.782,0,0,1-.084-2.292,1.846,1.846,0,0,1,2.275-1.281,1.9,1.9,0,0,1,.23.081c1.047.431,1.668,1.919,2.368,3.888.117-.363.253-.751.388-1.08l.716-1.739.759.313-1.686,4.092Z"/><path class="c" d="M84.731,417.856c-1.733-1.708-1.55-3.288-.6-4.25a2.554,2.554,0,0,1,1.738-.794l.055.791a1.8,1.8,0,0,0-1.182.512c-.667.677-.771,1.731.621,3.1,1.084,1.07,2.009,1.167,2.651.517a1.186,1.186,0,0,0,.019-1.676c-.024-.024-.048-.046-.073-.068a1.084,1.084,0,0,0-1.523-.166,1.123,1.123,0,0,0-.177.181,2,2,0,0,0-.473,1.645l-.532-.469a2.544,2.544,0,0,1,.634-1.8,1.755,1.755,0,0,1,2.469-.263,1.684,1.684,0,0,1,.238.232,2.013,2.013,0,0,1,.009,2.847c-.018.018-.036.036-.055.053-.93.944-2.368,1.031-3.814-.4"/><path class="c" d="M90.443,415.456l1.607-.69-1.687-3.931-1.267.544-.243-.566a4.43,4.43,0,0,0,1.3-1.086l.657-.282,2.121,4.941,1.428-.613.312.728-3.919,1.684Z"/><path class="c" d="M187.085,402.583c0-2.078.868-3.181,2.255-3.181s2.256,1.1,2.256,3.181c0,2.062-.868,3.223-2.256,3.223s-2.255-1.161-2.255-3.223m3.631,0c0-1.727-.579-2.414-1.376-2.414s-1.373.687-1.373,2.414.577,2.457,1.373,2.457,1.376-.73,1.376-2.457m-2.008-.055a.634.634,0,1,1,.632.673.628.628,0,0,1-.634-.622c0-.017,0-.034,0-.051"/><path class="c" d="M193.064,402.575c.011-2.078.883-3.177,2.271-3.17s2.251,1.115,2.241,3.192-.884,3.219-2.272,3.212-2.251-1.172-2.24-3.234m3.631.018c.008-1.727-.567-2.417-1.363-2.421s-1.378.68-1.386,2.407.564,2.46,1.361,2.464,1.378-.723,1.388-2.45m-2.008-.065a.634.634,0,1,1,.629.675.628.628,0,0,1-.631-.625c0-.017,0-.033,0-.05"/><path class="c" d="M199.333,402.718c.47-2.025,1.566-2.9,2.918-2.589s1.949,1.585,1.478,3.61c-.467,2.01-1.576,2.946-2.928,2.631s-1.936-1.643-1.468-3.652m3.538.822c.391-1.683-.016-2.483-.794-2.664s-1.495.359-1.886,2.042.006,2.525.784,2.7,1.5-.4,1.9-2.083m-1.945-.508a.632.632,0,1,1-.013.05c0-.017.008-.034.013-.05"/><path class="c" d="M205.46,404.387c.962-1.84,2.241-2.414,3.471-1.772s1.486,2.022.524,3.861-2.262,2.453-3.49,1.81-1.459-2.073-.5-3.9m3.214,1.681c.8-1.53.607-2.406-.1-2.775s-1.536-.028-2.335,1.5-.626,2.443.079,2.812,1.555-.009,2.354-1.538m-1.752-.979a.629.629,0,1,1-.023.041c.007-.014.015-.028.023-.041"/><path class="c" d="M210.955,407.523c1.391-1.544,2.774-1.783,3.806-.854s.937,2.33-.453,3.874-2.8,1.813-3.834.884-.9-2.372.481-3.9m2.7,2.43c1.154-1.284,1.186-2.181.594-2.715s-1.482-.409-2.637.875-1.216,2.212-.623,2.745,1.51.378,2.666-.9m-1.456-1.385a.635.635,0,1,1,.021.923.627.627,0,0,1-.057-.885.426.426,0,0,1,.036-.038"/><path class="c" d="M215.519,411.933c1.729-1.153,3.128-1.043,3.9.113s.335,2.488-1.4,3.64-3.162,1.066-3.932-.089-.286-2.52,1.43-3.664m2.013,3.02c1.438-.958,1.689-1.82,1.247-2.482s-1.334-.763-2.771.195-1.724,1.844-1.282,2.506,1.369.739,2.806-.219m-1.068-1.7a.635.635,0,1,1-.208.9.628.628,0,0,1,.164-.873c.015-.009.029-.019.044-.027"/><path class="c" d="M218.845,417.319c1.962-.687,3.29-.233,3.749,1.078s-.3,2.494-2.257,3.181-3.33.247-3.789-1.063.351-2.514,2.3-3.2m1.2,3.427c1.631-.571,2.088-1.344,1.825-2.1s-1.1-1.07-2.734-.5-2.129,1.358-1.864,2.11,1.144,1.057,2.773.485m-.612-1.913a.634.634,0,1,1-.424.82.627.627,0,0,1,.374-.8l.05-.016"/><path class="c" d="M220.722,423.375c2.073-.174,3.244.6,3.361,1.982s-.91,2.343-2.982,2.517-3.289-.594-3.4-1.979.968-2.347,3.026-2.52m.3,3.621c1.722-.145,2.359-.779,2.293-1.574s-.8-1.313-2.525-1.168-2.4.782-2.334,1.577.843,1.31,2.566,1.165m-.114-2.007a.634.634,0,1,1-.618.688.626.626,0,0,1,.563-.685.5.5,0,0,1,.055,0"/><path class="c" d="M221.02,429.691c2.052.349,2.995,1.391,2.762,2.761s-1.469,2.042-3.52,1.693-3.036-1.4-2.8-2.768,1.525-2.032,3.561-1.686m-.61,3.584c1.705.29,2.481-.165,2.615-.952s-.448-1.472-2.153-1.762-2.523.157-2.656.944.489,1.48,2.194,1.77m.391-1.973a.623.623,0,1,1-.053-.011l.053.011"/><path class="c" d="M219.736,435.875c1.9.851,2.55,2.1,1.981,3.364s-1.932,1.608-3.829.757-2.588-2.114-2.021-3.381,1.984-1.585,3.869-.74m-1.487,3.316c1.577.708,2.441.462,2.768-.267s-.065-1.536-1.642-2.243-2.481-.48-2.807.248.1,1.554,1.681,2.262m.872-1.812a.63.63,0,1,1-.043-.021.345.345,0,0,1,.043.021"/><path class="c" d="M206.828,447.8l-1.6.7,1.72,3.92,1.264-.554.247.565a4.408,4.408,0,0,0-1.3,1.1l-.656.288-2.162-4.927-1.423.625-.318-.726,3.909-1.716Z"/><path class="c" d="M202.379,452.075c.355,2.045-.312,3.28-1.678,3.517s-2.41-.7-2.765-2.748.306-3.323,1.672-3.559,2.419.759,2.771,2.79m-3.574.618c.294,1.7.98,2.28,1.765,2.144s1.237-.911.942-2.613-.988-2.319-1.773-2.184-1.228.953-.934,2.653m1.986-.288a.625.625,0,1,1-.006-.045l.006.045"/><path class="c" d="M195.07,450.247h.031l.089-.523h.761v6.867h-.965v-1.824l.043-.87H195a2.216,2.216,0,0,1-1.511.673c-1.251,0-1.951-.945-1.951-2.4a2.284,2.284,0,0,1,1.982-2.549c.043-.005.085-.009.128-.012a2.186,2.186,0,0,1,1.423.639m-2.544,1.909c0,.991.36,1.612,1.213,1.612a1.786,1.786,0,0,0,1.247-.633V450.9a1.775,1.775,0,0,0-1.154-.484c-.737,0-1.306.624-1.306,1.743"/><path class="c" d="M190.065,450.974c0,1.061-.965,1.583-3.353,1.762a1.042,1.042,0,0,0,1.02,1.065.978.978,0,0,0,.171-.01,3.3,3.3,0,0,0,1.6-.533l.367.645a4.241,4.241,0,0,1-2.137.67,1.8,1.8,0,0,1-1.985-1.594,1.836,1.836,0,0,1,0-.406v-2.85h.8l.077.613h.03a3.113,3.113,0,0,1,1.813-.729,1.436,1.436,0,0,1,1.592,1.259c0,.035.007.071.008.106m-3.353.037v1.108c1.859-.133,2.409-.507,2.409-1.073,0-.474-.425-.671-.931-.671a2.367,2.367,0,0,0-1.478.636"/><path class="c" d="M184.051,452.1a2.388,2.388,0,0,1-2.3,2.474c-.043,0-.085,0-.128,0a2.052,2.052,0,0,1-2.182-1.913,2.024,2.024,0,0,1,0-.321,3.279,3.279,0,0,1,.044-.524h3.889v.706h-3.291l.208-.235c0,1.026.5,1.54,1.3,1.54a1.539,1.539,0,0,0,1.52-1.556,1.639,1.639,0,0,0-.012-.172,1.6,1.6,0,0,0-1.746-1.735,2.576,2.576,0,0,0-1.383.417l-.338-.61a3.344,3.344,0,0,1,1.844-.561,2.4,2.4,0,0,1,2.565,2.223,2.362,2.362,0,0,1,0,.266"/><path class="c" d="M177.971,450.518h-1.749V454.8H177.6v.617a4.406,4.406,0,0,0-1.627.482h-.716v-5.378H173.7v-.793h4.268Z"/><path class="c" d="M169.685,453.8c-.008.353-.032.807-.05,1.161h.047c.2-.313.432-.626.64-.939l1.473-1.9H167.87v-.759h4.942v.65l-2.947,3.878h-1.086v-6.171h.9Z"/><path class="c" d="M163.509,453.8c-.008.353-.032.807-.05,1.161h.047c.2-.313.432-.626.64-.939l1.473-1.9h-3.925v-.759h4.942v.65l-2.947,3.878H162.6v-6.171h.9Z"/><path class="c" d="M160.916,450.381c-2.227,1.46-3.517,2.365-3.653,3.345-.093.671.253,1.173,1.085,1.289a2.065,2.065,0,0,0,1.5-.5l.464.6a2.77,2.77,0,0,1-2.193.652,1.841,1.841,0,0,1-1.8-1.88,1.911,1.911,0,0,1,.021-.24c.154-1.118,1.437-2.09,3.163-3.258-.378-.022-.787-.056-1.138-.1l-1.86-.258.114-.812,4.373.607Z"/><path class="c" d="M150.613,452.69l3.189,1.275-.308.769-4.19-1.677.219-.551a7.576,7.576,0,0,0,4-4.409l.926.37a8.116,8.116,0,0,1-3.837,4.223"/><path class="c" d="M138.214,438.847c-.32.152-.737.337-1.06.479l.021.041c.37.041.754.1,1.126.149l2.358.463-1.768-3.507.681-.343,2.227,4.415-.581.293-4.791-.886-.489-.968,5.512-2.78.407.807Z"/><path class="c" d="M139.5,434.66c-1.04.221-1.753-.612-2.428-2.916a1.045,1.045,0,0,0-.829,1.222,1.022,1.022,0,0,0,.046.164,3.3,3.3,0,0,0,.854,1.456l-.553.495a4.267,4.267,0,0,1-1.1-1.957,1.8,1.8,0,0,1,1.143-2.274,1.835,1.835,0,0,1,.4-.084l2.793-.6.165.781-.585.2.007.03a3.115,3.115,0,0,1,1.093,1.622,1.437,1.437,0,0,1-.9,1.823c-.033.011-.067.021-.1.03m-.737-3.276-1.085.231c.519,1.794,1,2.255,1.553,2.137.466-.1.57-.558.464-1.053a2.379,2.379,0,0,0-.932-1.315"/><path class="c" d="M137.337,428.78a2.39,2.39,0,0,1-2.361-2.419c0-.042,0-.085.005-.128a2.056,2.056,0,0,1,2.337-2.071,3.4,3.4,0,0,1,.522.07l-.188,3.893-.706-.034.159-3.292.226.22c-1.025-.05-1.563.421-1.6,1.223a1.54,1.54,0,0,0,1.485,1.6,1.617,1.617,0,0,0,.17,0,1.6,1.6,0,0,0,1.82-1.663,2.584,2.584,0,0,0-.35-1.4l.626-.308a3.36,3.36,0,0,1,.473,1.869,2.407,2.407,0,0,1-2.352,2.459,2.3,2.3,0,0,1-.263-.009"/><path class="c" d="M139.4,423l.511-1.674-4.093-1.252-.4,1.32-.592-.181a4.381,4.381,0,0,0,.016-1.7l.21-.686L140.2,420.4l.456-1.486.759.232-1.249,4.083Z"/><path class="c" d="M140.453,417.467a1.844,1.844,0,0,1-.709-1.933l-.033-.02a1.628,1.628,0,0,1-2.085-2.469,1.7,1.7,0,0,1,2.23-.9,1.614,1.614,0,0,1,.195.1,1.867,1.867,0,0,1,.749,1.536l.033.021a1.726,1.726,0,0,1,2-.188c.8.484,1,1.558.252,2.785-.727,1.2-1.788,1.578-2.629,1.068m-.782-4.494a1.015,1.015,0,0,0-1.4.34.989.989,0,0,0-.061.116.941.941,0,0,0,.143,1.323,1.059,1.059,0,0,0,.087.062c.577.35,1.166-.056,1.855-.655a1.47,1.47,0,0,0-.628-1.186m2.656,1.4c-.664-.4-1.259.166-2.09.86a1.49,1.49,0,0,0,.578,1.446c.548.333,1.23.073,1.679-.667.428-.7.352-1.324-.167-1.639"/><path class="c" d="M143.679,412.483a1.846,1.846,0,0,1-.21-2.049l-.026-.028a1.627,1.627,0,0,1-1.407-2.909,1.7,1.7,0,0,1,2.383-.319,1.756,1.756,0,0,1,.166.145,1.874,1.874,0,0,1,.343,1.675l.027.028a1.729,1.729,0,0,1,1.983.314c.652.667.58,1.756-.447,2.76-1,.981-2.124,1.087-2.812.383m.355-4.548a1.014,1.014,0,0,0-1.435-.019,1.07,1.07,0,0,0-.09.1.941.941,0,0,0-.19,1.317.926.926,0,0,0,.07.083c.473.483,1.144.235,1.961-.174a1.474,1.474,0,0,0-.316-1.3m2.227,2.018c-.543-.555-1.26-.151-2.238.315a1.489,1.489,0,0,0,.2,1.544c.45.459,1.175.377,1.794-.229.589-.576.668-1.2.244-1.63"/><path class="c" d="M147.761,407.7a2.474,2.474,0,0,1,.854-3.394,2.186,2.186,0,0,1,.2-.106,2.443,2.443,0,0,1,1.844-.288l-.1.761a1.887,1.887,0,0,0-1.313.191,1.619,1.619,0,0,0-.631,2.334,1.6,1.6,0,0,0,2.31.6,2.221,2.221,0,0,0,.934-1.188l.672.328a2.893,2.893,0,0,1-1.275,1.586,2.4,2.4,0,0,1-3.345-.578,2.5,2.5,0,0,1-.155-.252"/><path class="c" d="M154.662,406.3l-.03.009.056.527-.735.205-1.836-6.623.93-.257.488,1.756.191.85.03-.007a2.215,2.215,0,0,1,1.275-1.053c1.208-.334,2.135.389,2.525,1.8a2.285,2.285,0,0,1-1.231,2.988c-.039.016-.08.032-.12.046a2.191,2.191,0,0,1-1.543-.237m1.946-2.52c-.266-.956-.78-1.458-1.6-1.231a1.787,1.787,0,0,0-1.034.944l.6,2.159a1.793,1.793,0,0,0,1.243.159c.711-.2,1.093-.952.8-2.031"/><path class="c" d="M159.259,405.19l.511-.606a1.794,1.794,0,0,0,1.2.446c.943-.022,1.759-.706,1.713-2.658-.035-1.523-.637-2.229-1.542-2.208a1.177,1.177,0,0,0-1.188,1.166c0,.039,0,.077,0,.115a1.086,1.086,0,0,0,1.239,1.174,2,2,0,0,0,1.477-.852l.055.706a2.491,2.491,0,0,1-1.71.855,1.751,1.751,0,0,1-1.95-1.526,1.714,1.714,0,0,1-.009-.336,2.014,2.014,0,0,1,1.974-2.053h.074c1.324-.031,2.425.908,2.472,2.937.056,2.433-1.182,3.441-2.525,3.472a2.579,2.579,0,0,1-1.8-.632"/><path class="c" d="M164.8,404.959l.461-.628a2.394,2.394,0,0,0,1.667.683,1.324,1.324,0,0,0,1.456-1.175c0-.039.006-.077.007-.116a1.238,1.238,0,0,0-1.222-1.254,1.179,1.179,0,0,0-.188.012,2.176,2.176,0,0,0-1.2.353l-.479-.307.194-3.007h3.567v.827h-2.725l-.148,1.647a2.549,2.549,0,0,1,1.057-.223,1.879,1.879,0,0,1,2.1,1.623,1.845,1.845,0,0,1,.014.306,2.15,2.15,0,0,1-2.188,2.113q-.064,0-.129-.006a3.125,3.125,0,0,1-2.246-.848"/><path class="c" d="M170.592,401.009l1.353-.051h2.815v.771h-4.168Zm1.326-.377a1.763,1.763,0,0,1,1.964-1.924,3.753,3.753,0,0,1,1.381.267l-.208.717a2.612,2.612,0,0,0-1.071-.214.99.99,0,0,0-1.112.851,1,1,0,0,0,0,.279v5.083h-.957Z"/><path class="c" d="M176.4,405.135l.525-.6a1.785,1.785,0,0,0,1.191.474c.945,0,1.774-.665,1.774-2.618,0-1.522-.587-2.242-1.492-2.242a1.178,1.178,0,0,0-1.213,1.142c0,.037,0,.075,0,.112a1.088,1.088,0,0,0,1.213,1.2,2,2,0,0,0,1.5-.817l.038.707a2.5,2.5,0,0,1-1.729.815,1.747,1.747,0,0,1-1.912-1.566,1.679,1.679,0,0,1,0-.34,2.012,2.012,0,0,1,2.017-2.007l.076,0c1.323,0,2.4.963,2.4,2.993,0,2.432-1.261,3.411-2.6,3.411a2.579,2.579,0,0,1-1.785-.672"/><path class="c" d="M185.188,401.61c.008-.353.032-.807.05-1.16h-.047c-.2.312-.432.626-.64.939l-1.473,1.9H187v.762h-4.942v-.65l2.947-3.877h1.084v6.17h-.9Z"/><path class="c" d="M247.479,441.889H245.73v4.278h1.378v.617a4.406,4.406,0,0,0-1.627.482h-.716v-5.378h-1.554V441.1h4.268Z"/><path class="c" d="M241.865,442.673a1.846,1.846,0,0,1-1.284,1.61v.038a1.741,1.741,0,0,1,.929,1.445c0,.974-.822,1.617-1.957,1.617-1.214,0-1.943-.682-1.943-1.657a1.873,1.873,0,0,1,.926-1.438v-.038a1.727,1.727,0,0,1-1.2-1.61c0-.933.813-1.66,2.249-1.66,1.4,0,2.277.708,2.277,1.693m-3.615,0c0,.777.8.991,1.82,1.34A1.486,1.486,0,0,0,241,442.77c0-.642-.576-1.09-1.441-1.09-.825,0-1.316.387-1.316.993m.18,3a1.015,1.015,0,0,0,1.015,1.017.837.837,0,0,0,.132-.008.942.942,0,0,0,1.055-.813.89.89,0,0,0,.008-.1c0-.675-.652-.967-1.522-1.246a1.477,1.477,0,0,0-.688,1.153"/><path class="c" d="M235.925,444.2c0,2.078-.868,3.181-2.255,3.181s-2.255-1.1-2.255-3.181c0-2.062.867-3.223,2.255-3.223s2.255,1.161,2.255,3.223m-3.631,0c0,1.727.579,2.414,1.376,2.414s1.374-.687,1.374-2.414-.578-2.457-1.374-2.457-1.376.73-1.376,2.457m2.009.055a.635.635,0,1,1-.633-.673.628.628,0,0,1,.635.621c0,.018,0,.035,0,.052"/><path class="c" d="M230.079,441.889H228.33v4.278h1.378v.617a4.406,4.406,0,0,0-1.627.482h-.716v-5.378h-1.554V441.1h4.268Z"/><path class="c" d="M224.319,441.658c-2.008,1.754-3.161,2.828-3.161,3.818,0,.678.412,1.129,1.254,1.129a2.065,2.065,0,0,0,1.418-.708l.543.537a2.775,2.775,0,0,1-2.084.949,1.843,1.843,0,0,1-2.044-1.617,1.927,1.927,0,0,1-.012-.24c0-1.13,1.137-2.27,2.687-3.665-.377.03-.787.053-1.143.053H219.9V441.1h4.419Z"/><path class="c" d="M218.561,443.453a2.265,2.265,0,0,1-2.024,2.483l-.086.007a1.9,1.9,0,0,1-1.361-.579h-.024l.046.832v1.766h-.965V441.1h.79l.076.588h.031a2.194,2.194,0,0,1,1.486-.7c1.222,0,2.031.906,2.031,2.474m-3.449-1.037v2.239a1.589,1.589,0,0,0,1.12.484c.738,0,1.342-.641,1.342-1.674,0-1.077-.478-1.681-1.268-1.681a1.569,1.569,0,0,0-1.194.632"/><path class="c" d="M212.161,443.6a2.477,2.477,0,0,1-2.8,2.111q-.105-.015-.21-.039a2.447,2.447,0,0,1-1.618-.929l.55-.533a1.9,1.9,0,0,0,1.144.671,1.624,1.624,0,0,0,1.925-1.251,1.74,1.74,0,0,0,.027-.176,1.6,1.6,0,0,0-1.427-1.914,2.222,2.222,0,0,0-1.472.344l-.318-.676a2.9,2.9,0,0,1,1.984-.441,2.4,2.4,0,0,1,2.247,2.544,2.33,2.33,0,0,1-.036.289"/><path class="c" d="M202.207,443.478l2.995,1.677-.4.723-3.938-2.2.29-.518a7.58,7.58,0,0,0,4.538-3.854l.869.487a8.115,8.115,0,0,1-4.35,3.69"/><path class="c" d="M201.226,439.739c-1.875,1.547-3.427,1.2-4.285.164a2.548,2.548,0,0,1-.612-1.809l.792.027a1.791,1.791,0,0,0,.388,1.225c.6.733,1.641.944,3.146-.3,1.173-.968,1.366-1.877.785-2.582a1.181,1.181,0,0,0-1.659-.192.985.985,0,0,0-.078.067,1.082,1.082,0,0,0-.326,1.494,1.12,1.12,0,0,0,.165.2,2,2,0,0,0,1.586.639l-.52.479a2.546,2.546,0,0,1-1.729-.813,1.755,1.755,0,0,1-.007-2.483,1.718,1.718,0,0,1,.255-.212,2.013,2.013,0,0,1,2.834.283c.017.02.033.041.049.062.842,1.021.78,2.458-.784,3.75"/><path class="c" d="M197.953,434.312a2.391,2.391,0,0,1-3.024-1.511c-.013-.039-.025-.079-.036-.119a2.053,2.053,0,0,1,1.222-2.634,2.022,2.022,0,0,1,.307-.086,3.324,3.324,0,0,1,.514-.106l1.1,3.734-.677.2-.93-3.158.285.134c-.984.289-1.337.911-1.11,1.68a1.538,1.538,0,0,0,1.921,1.018,1.571,1.571,0,0,0,.162-.06,1.6,1.6,0,0,0,1.255-1.883,1.547,1.547,0,0,0-.084-.282,2.579,2.579,0,0,0-.79-1.209l.49-.5a3.341,3.341,0,0,1,1.058,1.61,2.4,2.4,0,0,1-1.407,3.089,2.586,2.586,0,0,1-.255.079"/><path class="c" d="M194.018,426.414a1.762,1.762,0,0,1-1.709-2.153,3.731,3.731,0,0,1,.41-1.347l.691.281a2.583,2.583,0,0,0-.324,1.044.991.991,0,0,0,.73,1.195.979.979,0,0,0,.28.026l5.056.53-.1.952Zm.237,1.359.091-1.351.294-2.8.766.081-.435,4.146Z"/><path class="c" d="M197.463,422.235a2.391,2.391,0,0,1-1.078-3.206c.019-.039.04-.077.061-.115a2.056,2.056,0,0,1,2.728-1.006,2.118,2.118,0,0,1,.279.156,3.384,3.384,0,0,1,.44.291l-1.862,3.427-.622-.338,1.576-2.9.107.3c-.9-.491-1.593-.3-1.976.407a1.538,1.538,0,0,0,.641,2.08,1.431,1.431,0,0,0,.159.073,1.6,1.6,0,0,0,2.219-.442,1.575,1.575,0,0,0,.143-.265,2.589,2.589,0,0,0,.295-1.416l.7-.006a3.355,3.355,0,0,1-.394,1.892,2.406,2.406,0,0,1-3.186,1.2,2.627,2.627,0,0,1-.235-.123"/><path class="c" d="M201.86,417.992l1.358-1.109-2.711-3.32-1.071.873-.39-.478a4.422,4.422,0,0,0,.958-1.406l.555-.454,3.408,4.174,1.2-.984.5.616-3.312,2.7Z"/><path class="c" d="M207.73,410.856c-.1-.339-.213-.78-.3-1.123l-.044.014c-.1.36-.226.727-.33,1.088l-.836,2.253,3.746-1.179.228.728-4.717,1.484-.2-.621,1.648-4.585,1.034-.326,1.854,5.889-.862.271Z"/><path class="c" d="M222.96,413.567l.472-.621a2.451,2.451,0,0,0,1.7.7c.8,0,1.39-.391,1.39-1.022,0-.686-.568-1.138-2.139-1.138v-.719c1.4,0,1.929-.459,1.929-1.067,0-.549-.472-.892-1.169-.892a2.261,2.261,0,0,0-1.465.6l-.5-.6a3.065,3.065,0,0,1,2-.779c1.21,0,2.1.581,2.1,1.6,0,.717-.524,1.186-1.282,1.445v.039a1.679,1.679,0,0,1,1.49,1.551c0,1.107-1.041,1.769-2.288,1.769a3.025,3.025,0,0,1-2.246-.871"/><path class="c" d="M228.9,413.589l.461-.628a2.394,2.394,0,0,0,1.667.683,1.322,1.322,0,0,0,1.456-1.173c0-.039.006-.079.007-.118a1.238,1.238,0,0,0-1.222-1.254,1.179,1.179,0,0,0-.188.012,2.175,2.175,0,0,0-1.2.353l-.479-.307.194-3.007h3.567v.827h-2.725l-.148,1.647a2.549,2.549,0,0,1,1.057-.223,1.879,1.879,0,0,1,2.1,1.623,1.845,1.845,0,0,1,.014.306,2.15,2.15,0,0,1-2.188,2.113l-.129-.006a3.125,3.125,0,0,1-2.246-.848"/><path class="c" d="M234.832,413.767l.525-.6a1.785,1.785,0,0,0,1.191.474c.945,0,1.774-.665,1.774-2.618,0-1.522-.587-2.242-1.492-2.242a1.178,1.178,0,0,0-1.213,1.142c0,.037,0,.075,0,.112a1.088,1.088,0,0,0,1.213,1.2,2,2,0,0,0,1.495-.817l.038.707a2.5,2.5,0,0,1-1.729.815,1.747,1.747,0,0,1-1.912-1.566,1.68,1.68,0,0,1,0-.34,2.012,2.012,0,0,1,2.017-2.007l.076,0c1.323,0,2.4.963,2.4,2.993,0,2.432-1.261,3.411-2.6,3.411a2.58,2.58,0,0,1-1.785-.672"/><path class="c" d="M243.647,410.241c.008-.353.032-.807.05-1.161h-.047c-.2.313-.432.626-.64.939l-1.473,1.9h3.925v.763H240.52v-.65l2.947-3.878h1.084v6.171h-.9Z"/><path class="d" d="M154.295,390.858a29,29,0,1,1-29-29,29,29,0,0,1,29,29"/><circle class="e" cx="29" cy="29" r="29" transform="translate(96.295 361.858)"/><path class="d" d="M140.795,390.858a15.5,15.5,0,1,1-15.5-15.5,15.5,15.5,0,0,1,15.5,15.5"/><circle class="e" cx="15.5" cy="15.5" r="15.5" transform="translate(109.795 375.358)"/><path class="d" d="M166.432,390.858a1.83,1.83,0,0,1,1.862,1.8v59.766c0,18.724-33.75,34.71-41.449,38.113a3.837,3.837,0,0,1-3.1,0c-7.7-3.406-41.45-19.409-41.45-38.112V392.655a1.83,1.83,0,0,1,1.859-1.8h0Z"/><path class="e" d="M166.432,390.858a1.83,1.83,0,0,1,1.862,1.8v59.766c0,18.724-33.75,34.71-41.449,38.113a3.837,3.837,0,0,1-3.1,0c-7.7-3.406-41.45-19.409-41.45-38.112V392.655a1.83,1.83,0,0,1,1.859-1.8h0Z"/><line class="f" x2="86" y2="66.92" transform="translate(82.295 390.858)"/><line class="f" x1="86" y2="66.92" transform="translate(82.295 390.858)"/><line class="f" y2="72.095" transform="translate(125.295 418.77)"/><path class="d" d="M131.419,449.449h3.54a.935.935,0,0,1,.936.931v3.3a.935.935,0,0,1-.936.931h-3.54a.935.935,0,0,0-.936.931v3.307a.935.935,0,0,0,.936.931h3.54a.935.935,0,0,1,.936.931v3.3a.935.935,0,0,1-.936.931h-3.54a.935.935,0,0,0-.936.931v3.306a.934.934,0,0,1-.937.931h-8.5a.935.935,0,0,1-.936-.931v-31.01a1.833,1.833,0,0,0-1.015-1.65,14,14,0,1,1,12.4,0,1.832,1.832,0,0,0-1.014,1.65v10.355a.935.935,0,0,0,.936.931"/><path class="e" d="M131.419,449.449h3.54a.935.935,0,0,1,.936.931v3.3a.935.935,0,0,1-.936.931h-3.54a.935.935,0,0,0-.936.931v3.307a.935.935,0,0,0,.936.931h3.54a.935.935,0,0,1,.936.931v3.3a.935.935,0,0,1-.936.931h-3.54a.935.935,0,0,0-.936.931v3.306a.934.934,0,0,1-.937.931h-8.5a.935.935,0,0,1-.936-.931v-31.01a1.833,1.833,0,0,0-1.015-1.65,14,14,0,1,1,12.4,0,1.832,1.832,0,0,0-1.014,1.65v10.355A.933.933,0,0,0,131.419,449.449Z"/><path class="d" d="M135.295,437.583h-20a4,4,0,0,1-4-4v-20a4,4,0,0,1,4-4h20a4,4,0,0,1,4,4v20a4,4,0,0,1-4,4"/><rect class="e" width="28" height="28" rx="4" transform="translate(111.295 409.583)"/><path class="d" d="M85.295,461.778h-6a1,1,0,0,1-1-1v-6a1,1,0,0,1,1-1h6a1,1,0,0,1,1,1v6a1,1,0,0,1-1,1"/><rect class="e" width="8" height="8" rx="1" transform="translate(78.295 453.778)"/><path class="d" d="M85.295,394.858h-6a1,1,0,0,1-1-1v-6a1,1,0,0,1,1-1h6a1,1,0,0,1,1,1v6a1,1,0,0,1-1,1"/><rect class="e" width="8" height="8" rx="1" transform="translate(78.295 386.858)"/><path class="d" d="M171.295,394.858h-6a1,1,0,0,1-1-1v-6a1,1,0,0,1,1-1h6a1,1,0,0,1,1,1v6a1,1,0,0,1-1,1"/><rect class="e" width="8" height="8" rx="1" transform="translate(164.295 386.858)"/><path class="d" d="M128.295,494.866h-6a1,1,0,0,1-1-1v-6a1,1,0,0,1,1-1h6a1,1,0,0,1,1,1v6a1,1,0,0,1-1,1"/><rect class="e" width="8" height="8" rx="1" transform="translate(121.295 486.866)"/><path class="d" d="M171.295,461.778h-6a1,1,0,0,1-1-1v-6a1,1,0,0,1,1-1h6a1,1,0,0,1,1,1v6a1,1,0,0,1-1,1"/><rect class="e" width="8" height="8" rx="1" transform="translate(164.295 453.778)"/><line class="g" x1="7.94" transform="translate(160.355 390.858)"/><line class="g" y2="7.837" transform="translate(82.295 390.858)"/><line class="g" x2="4" y2="6.099" transform="translate(82.295 457.778)"/><line class="g" y1="2.202" x2="5.583" transform="translate(125.295 488.663)"/><line class="g" y1="7.067" transform="translate(168.295 450.711)"/></g></g></svg>