<svg xmlns="http://www.w3.org/2000/svg" xmlns:xlink="http://www.w3.org/1999/xlink" width="237" height="259" viewBox="0 0 237 259"><defs><style>.a,.d,.e,.f,.g,.h,.i,.j,.k,.l{fill:none;}.b{clip-path:url(#a);}.c{fill:#091440;}.d,.e,.f,.g,.h,.i{stroke:#2dd8a3;}.d,.f,.g,.h,.i,.j,.l{stroke-linejoin:round;}.d,.e,.f,.g,.h,.i,.j,.k,.l{stroke-width:2px;}.e,.k{stroke-miterlimit:10;}.f,.g,.h,.i,.l{stroke-linecap:round;}.g{stroke-dasharray:2.132 5.329;}.h{stroke-dasharray:1.957 4.894;}.i{stroke-dasharray:2.118 5.294;}.j,.k,.l{stroke:#fff;}</style><clipPath id="a"><path class="a" d="M7,0H230a7,7,0,0,1,7,7V252a7,7,0,0,1-7,7H7a7,7,0,0,1-7-7V7A7,7,0,0,1,7,0Z" transform="translate(6.795 2)"/></clipPath></defs><g transform="translate(-6.795 -2)"><g class="b"><path class="c" d="M58.384,147.425c0,2.906-3.582,5.262-8,5.262s-8-2.356-8-5.262v-3.476h16Z"/><path class="d" d="M58.384,147.425c0,2.906-3.582,5.262-8,5.262s-8-2.356-8-5.262v-3.476h16Z"/><path class="c" d="M58.384,143.949c0,2.906-3.582,5.262-8,5.262s-8-2.356-8-5.262,3.582-5.262,8-5.262,8,2.356,8,5.262"/><ellipse class="e" cx="8" cy="5.262" rx="8" ry="5.262" transform="translate(42.384 138.687)"/><line class="f" x1="22.791" transform="translate(103.039 196.566)"/><path class="c" d="M172.576,203.57h-10a2,2,0,0,1-2-2v-10a2,2,0,0,1,2-2h10a2,2,0,0,1,2,2v10a2,2,0,0,1-2,2"/><rect class="e" width="14" height="14" rx="2" transform="translate(160.576 189.566)"/><line class="f" y1="0.881" x2="0.474" transform="translate(43.171 190.685)"/><line class="g" y1="37.077" x2="19.946" transform="translate(46.17 148.915)"/><path class="f" d="M67.378,146.57l.474-.881h1"/><line class="h" x2="38.66" transform="translate(73.746 145.687)"/><path class="f" d="M114.852,145.687h1l.463.886"/><line class="i" x2="19.373" y2="37.068" transform="translate(118.768 151.266)"/><line class="f" x2="0.463" y2="0.886" transform="translate(139.367 190.68)"/><path class="c" d="M55.171,203.57h-10a2,2,0,0,1-2-2v-10a2,2,0,0,1,2-2h10a2,2,0,0,1,2,2v10a2,2,0,0,1-2,2"/><rect class="e" width="14" height="14" rx="2" transform="translate(43.171 189.566)"/><path class="c" d="M137.83,203.57h-10a2,2,0,0,1-2-2v-10a2,2,0,0,1,2-2h10a2,2,0,0,1,2,2v10a2,2,0,0,1-2,2"/><rect class="e" width="14" height="14" rx="2" transform="translate(125.83 189.566)"/><line class="f" x1="29.681" transform="translate(50.171 196.566)"/><line class="f" x1="42.171" transform="translate(1 196.566)"/><line class="f" x1="25.309" transform="translate(167.576 196.566)"/><line class="f" x1="27.746" transform="translate(132.83 196.566)"/><path class="c" d="M115.366,144.4a1.94,1.94,0,0,1,0,2.57c-3.11,3.461-12.461,12.715-23.514,12.715s-20.4-9.254-23.513-12.715a1.94,1.94,0,0,1,0-2.57c3.11-3.46,12.461-12.715,23.513-12.715s20.4,9.255,23.514,12.715"/><path class="d" d="M115.366,144.4a1.94,1.94,0,0,1,0,2.57c-3.11,3.461-12.461,12.715-23.514,12.715s-20.4-9.254-23.513-12.715a1.94,1.94,0,0,1,0-2.57c3.11-3.46,12.461-12.715,23.513-12.715S112.256,140.942,115.366,144.4Z"/><path class="c" d="M99.852,147.425c0,2.906-3.582,5.262-8,5.262s-8-2.356-8-5.262v-3.476h16Z"/><path class="j" d="M99.852,147.425c0,2.906-3.582,5.262-8,5.262s-8-2.356-8-5.262v-3.476h16Z"/><path class="c" d="M99.852,143.949c0,2.906-3.582,5.262-8,5.262s-8-2.356-8-5.262,3.582-5.262,8-5.262,8,2.356,8,5.262"/><ellipse class="k" cx="8" cy="5.262" rx="8" ry="5.262" transform="translate(83.852 138.687)"/><path class="c" d="M140.83,147.425c0,2.906-3.582,5.262-8,5.262s-8-2.356-8-5.262v-3.476h16Z"/><path class="d" d="M140.83,147.425c0,2.906-3.582,5.262-8,5.262s-8-2.356-8-5.262v-3.476h16Z"/><path class="c" d="M140.83,143.949c0,2.906-3.582,5.262-8,5.262s-8-2.356-8-5.262,3.582-5.262,8-5.262,8,2.356,8,5.262"/><ellipse class="e" cx="8" cy="5.262" rx="8" ry="5.262" transform="translate(124.83 138.687)"/><path class="c" d="M175.576,147.425c0,2.906-3.582,5.262-8,5.262s-8-2.356-8-5.262v-3.476h16Z"/><path class="d" d="M175.576,147.425c0,2.906-3.582,5.262-8,5.262s-8-2.356-8-5.262v-3.476h16Z"/><path class="c" d="M175.576,143.949c0,2.906-3.582,5.262-8,5.262s-8-2.356-8-5.262,3.582-5.262,8-5.262,8,2.356,8,5.262"/><ellipse class="e" cx="8" cy="5.262" rx="8" ry="5.262" transform="translate(159.576 138.687)"/><path class="c" d="M175.576,147.425c0,2.906-3.582,5.262-8,5.262s-8-2.356-8-5.262v-3.476h16Z"/><path class="d" d="M175.576,147.425c0,2.906-3.582,5.262-8,5.262s-8-2.356-8-5.262v-3.476h16Z"/><path class="c" d="M175.576,143.949c0,2.906-3.582,5.262-8,5.262s-8-2.356-8-5.262,3.582-5.262,8-5.262,8,2.356,8,5.262"/><ellipse class="e" cx="8" cy="5.262" rx="8" ry="5.262" transform="translate(159.576 138.687)"/><path class="c" d="M175.576,135.925c0,2.906-3.582,5.262-8,5.262s-8-2.356-8-5.262v-3.476h16Z"/><path class="d" d="M175.576,135.925c0,2.906-3.582,5.262-8,5.262s-8-2.356-8-5.262v-3.476h16Z"/><path class="c" d="M175.576,132.449c0,2.906-3.582,5.262-8,5.262s-8-2.356-8-5.262,3.582-5.262,8-5.262,8,2.356,8,5.262"/><ellipse class="e" cx="8" cy="5.262" rx="8" ry="5.262" transform="translate(159.576 127.187)"/><path class="c" d="M175.576,124.425c0,2.906-3.582,5.262-8,5.262s-8-2.356-8-5.262v-3.476h16Z"/><path class="j" d="M175.576,124.425c0,2.906-3.582,5.262-8,5.262s-8-2.356-8-5.262v-3.476h16Z"/><path class="c" d="M175.576,120.949c0,2.906-3.582,5.262-8,5.262s-8-2.356-8-5.262,3.582-5.262,8-5.262,8,2.356,8,5.262"/><ellipse class="k" cx="8" cy="5.262" rx="8" ry="5.262" transform="translate(159.576 115.687)"/><path class="c" d="M209.576,147.425c0,2.906-3.582,5.262-8,5.262s-8-2.356-8-5.262v-3.476h16Z"/><path class="d" d="M209.576,147.425c0,2.906-3.582,5.262-8,5.262s-8-2.356-8-5.262v-3.476h16Z"/><path class="c" d="M209.576,143.949c0,2.906-3.582,5.262-8,5.262s-8-2.356-8-5.262,3.582-5.262,8-5.262,8,2.356,8,5.262"/><ellipse class="e" cx="8" cy="5.262" rx="8" ry="5.262" transform="translate(193.576 138.687)"/><path class="c" d="M209.576,135.925c0,2.906-3.582,5.262-8,5.262s-8-2.356-8-5.262v-3.476h16Z"/><path class="d" d="M209.576,135.925c0,2.906-3.582,5.262-8,5.262s-8-2.356-8-5.262v-3.476h16Z"/><path class="c" d="M209.576,132.449c0,2.906-3.582,5.262-8,5.262s-8-2.356-8-5.262,3.582-5.262,8-5.262,8,2.356,8,5.262"/><ellipse class="e" cx="8" cy="5.262" rx="8" ry="5.262" transform="translate(193.576 127.187)"/><path class="c" d="M209.576,124.425c0,2.906-3.582,5.262-8,5.262s-8-2.356-8-5.262v-3.476h16Z"/><path class="d" d="M209.576,124.425c0,2.906-3.582,5.262-8,5.262s-8-2.356-8-5.262v-3.476h16Z"/><path class="c" d="M209.576,120.949c0,2.906-3.582,5.262-8,5.262s-8-2.356-8-5.262,3.582-5.262,8-5.262,8,2.356,8,5.262"/><ellipse class="e" cx="8" cy="5.262" rx="8" ry="5.262" transform="translate(193.576 115.687)"/><path class="c" d="M209.576,112.929c0,2.906-3.582,5.262-8,5.262s-8-2.356-8-5.262v-3.476h16Z"/><path class="j" d="M209.576,112.929c0,2.906-3.582,5.262-8,5.262s-8-2.356-8-5.262v-3.476h16Z"/><path class="c" d="M209.576,109.453c0,2.906-3.582,5.262-8,5.262s-8-2.356-8-5.262,3.582-5.262,8-5.262,8,2.356,8,5.262"/><ellipse class="j" cx="8" cy="5.262" rx="8" ry="5.262" transform="translate(193.576 104.191)"/><path class="c" d="M206.576,203.57h-10a2,2,0,0,1-2-2v-10a2,2,0,0,1,2-2h10a2,2,0,0,1,2,2v10a2,2,0,0,1-2,2"/><rect class="e" width="14" height="14" rx="2" transform="translate(194.576 189.566)"/><line class="f" x1="42.218" transform="translate(201.576 196.566)"/><path class="c" d="M140.83,135.925c0,2.906-3.582,5.262-8,5.262s-8-2.356-8-5.262v-3.476h16Z"/><path class="j" d="M140.83,135.925c0,2.906-3.582,5.262-8,5.262s-8-2.356-8-5.262v-3.476h16Z"/><path class="c" d="M140.83,132.449c0,2.906-3.582,5.262-8,5.262s-8-2.356-8-5.262,3.582-5.262,8-5.262,8,2.356,8,5.262"/><ellipse class="k" cx="8" cy="5.262" rx="8" ry="5.262" transform="translate(124.83 127.187)"/><line class="l" x2="6" transform="translate(88.774 120.687)"/><line class="l" y2="6" transform="translate(91.774 117.687)"/><path class="c" d="M100.852,207.57h-18a2,2,0,0,1-2-2v-18a2,2,0,0,1,2-2h18a2,2,0,0,1,2,2v18a2,2,0,0,1-2,2"/><rect class="k" width="22" height="22" rx="2" transform="translate(80.852 185.566)"/><path class="l" d="M96.352,193.57l-6.066,6-2.934-2.9"/></g></g></svg>