<svg xmlns="http://www.w3.org/2000/svg" xmlns:xlink="http://www.w3.org/1999/xlink" width="237" height="259" viewBox="0 0 237 259"><defs><style>.a,.d,.e,.f,.g{fill:none;}.b{clip-path:url(#a);}.c{fill:#091440;}.d{stroke:#fff;}.d,.f,.g{stroke-linecap:round;stroke-width:2px;}.d,.e,.f{stroke-linejoin:round;}.e,.f,.g{stroke:#2dd8a3;}.e{stroke-linecap:square;stroke-width:4px;}</style><clipPath id="a"><rect class="a" width="237" height="259" rx="7" transform="translate(516.795 1)"/></clipPath></defs><g transform="translate(-516.795 -1)"><g class="b"><circle class="c" cx="39.056" cy="39.056" r="39.056" transform="translate(596.239 113.105)"/><path class="d" d="M620.349,116.078a39.056,39.056,0,1,1-21.137,51.029A39.056,39.056,0,0,1,620.349,116.078Z"/><path class="c" d="M666.547,152.161a31.252,31.252,0,1,1-31.252-31.252,31.252,31.252,0,0,1,31.252,31.252"/><line class="e" y2="47.835" transform="translate(635.295 128.27)"/><line class="e" x1="47.835" transform="translate(611.377 152.188)"/><line class="e" x1="33.824" y2="33.824" transform="translate(618.383 135.276)"/><line class="e" x1="33.824" y1="33.824" transform="translate(618.383 135.276)"/><line class="e" x2="18.306" y2="44.193" transform="translate(626.142 130.091)"/><line class="e" x1="44.193" y2="18.305" transform="translate(613.199 143.035)"/><line class="e" x1="18.306" y2="44.193" transform="translate(626.142 130.091)"/><line class="e" x1="44.193" y1="18.305" transform="translate(613.199 143.035)"/><path class="c" d="M635.295,152.16l11.8-16.246a20.081,20.081,0,1,1-28.049,4.443,19.473,19.473,0,0,1,16.246-8.278Z"/><path class="f" d="M635.295,152.16l11.8-16.246a20.081,20.081,0,1,1-28.049,4.443,19.473,19.473,0,0,1,16.246-8.278Z"/><path class="c" d="M635.295,152.16V132.079a19.241,19.241,0,0,1,11.8,3.835Z"/><path class="d" d="M635.295,152.16V132.079a19.241,19.241,0,0,1,11.8,3.835Z"/><line class="g" x2="12.258" transform="translate(715.495 153.07)"/><line class="g" y1="12.253" transform="translate(635.295 60.612)"/><line class="g" x1="10.849" transform="translate(542.837 153.069)"/><rect class="g" width="103.776" height="103.776" rx="2.114" transform="translate(583.408 101.182)"/><path class="g" d="M635.295,245.528h0a92.458,92.458,0,1,1,92.458-92.458v0A92.457,92.457,0,0,1,635.295,245.528Z"/><path class="g" d="M635.295,233.265h0a80.2,80.2,0,1,1,.01,0Z"/><rect class="c" width="176.294" height="11.056" transform="translate(547.148 230.394)"/><rect class="g" width="176.294" height="11.056" transform="translate(547.148 230.394)"/><rect class="c" width="195.433" height="11.056" transform="translate(537.579 241.45)"/><rect class="g" width="195.433" height="11.056" transform="translate(537.579 241.45)"/><path class="g" d="M676.254,118.643v-3.681a1,1,0,0,0-.51-.871l-3.311-1.863a1,1,0,0,0-.981,0l-3.311,1.863a1,1,0,0,0-.51.871v3.681a1,1,0,0,0,.51.872l3.311,1.862a1,1,0,0,0,.981,0l3.311-1.862A1,1,0,0,0,676.254,118.643Z"/><path class="g" d="M676.254,191.174v-3.681a1,1,0,0,0-.51-.871l-3.311-1.863a1,1,0,0,0-.981,0l-3.311,1.863a1,1,0,0,0-.51.871v3.681a1,1,0,0,0,.51.872l3.311,1.862a1,1,0,0,0,.981,0l3.311-1.862A1,1,0,0,0,676.254,191.174Z"/><path class="g" d="M602.959,191.174v-3.681a1,1,0,0,0-.51-.871l-3.311-1.863a1,1,0,0,0-.981,0l-3.311,1.863a1,1,0,0,0-.51.871v3.681a1,1,0,0,0,.51.872l3.311,1.862a1,1,0,0,0,.981,0l3.311-1.862A1,1,0,0,0,602.959,191.174Z"/><path class="g" d="M602.959,118.643v-3.681a1,1,0,0,0-.51-.871l-3.311-1.863a1,1,0,0,0-.981,0l-3.311,1.863a1,1,0,0,0-.51.871v3.681a1,1,0,0,0,.51.872l3.311,1.862a1,1,0,0,0,.981,0l3.311-1.862A1,1,0,0,0,602.959,118.643Z"/></g></g></svg>