<svg xmlns="http://www.w3.org/2000/svg" xmlns:xlink="http://www.w3.org/1999/xlink" width="239" height="261" viewBox="0 0 239 261"><defs><style>.a,.c,.e,.f{fill:none;}.b{clip-path:url(#a);}.c{stroke:#2dd8a3;}.c,.e,.f{stroke-linecap:round;stroke-linejoin:round;}.c,.e{stroke-width:2px;}.d{fill:#091440;}.e{stroke:#fff;stroke-dasharray:2 5;}.f{stroke:#091440;stroke-width:9px;}</style><clipPath id="a"><rect class="a" width="239" height="261" rx="8" transform="translate(260.795 277)"/></clipPath></defs><g transform="translate(-260.795 -277)"><g class="b"><line class="c" x1="41.609" y1="22.875" transform="translate(427.468 375.531)"/><line class="c" x1="34.22" y2="24.488" transform="translate(434.857 398.406)"/><line class="c" x1="35.769" y2="43.403" transform="translate(433.308 398.406)"/><line class="c" x1="39.904" y2="15.391" transform="translate(429.173 462.406)"/><line class="c" x1="35.746" y1="10.236" transform="translate(433.331 452.17)"/><line class="c" x1="36.749" y1="34.383" transform="translate(432.328 396.148)"/><line class="c" x1="35.746" y2="10.533" transform="translate(433.331 430.531)"/><line class="c" x1="39.11" y2="43.278" transform="translate(429.967 430.531)"/><path class="d" d="M476.077,467.406v-10a2,2,0,0,0-2-2h-10a2,2,0,0,0-2,2v10a2,2,0,0,0,2,2h10a2,2,0,0,0,2-2"/><rect class="c" width="14" height="14" rx="2" transform="translate(462.077 455.406)"/><path class="d" d="M476.077,403.3v-10a2,2,0,0,0-2-2h-10a2,2,0,0,0-2,2v10a2,2,0,0,0,2,2h10a2,2,0,0,0,2-2"/><rect class="c" width="14" height="14" rx="2" transform="translate(462.077 391.304)"/><path class="d" d="M476.077,435.406v-10a2,2,0,0,0-2-2h-10a2,2,0,0,0-2,2v10a2,2,0,0,0,2,2h10a2,2,0,0,0,2-2"/><rect class="c" width="14" height="14" rx="2" transform="translate(462.077 423.406)"/><line class="c" x2="44.081" transform="translate(469.077 398.304)"/><line class="c" x2="41.723" transform="translate(469.077 462.406)"/><line class="c" x2="41.723" transform="translate(469.077 430.406)"/><ellipse class="e" cx="20.107" cy="74.628" rx="20.107" ry="74.628" transform="translate(393.281 356.958)"/><ellipse class="e" cx="20.107" cy="74.628" rx="20.107" ry="74.628" transform="translate(321.872 356.958)"/><line class="c" x1="43.081" transform="translate(247.795 398.406)"/><line class="c" x1="40.723" transform="translate(250.154 462.406)"/><path class="d" d="M283.877,467.406v-10a2,2,0,0,1,2-2h10a2,2,0,0,1,2,2v10a2,2,0,0,1-2,2h-10a2,2,0,0,1-2-2"/><rect class="c" width="14" height="14" rx="2" transform="translate(283.877 455.406)"/><path class="d" d="M283.877,403.406v-10a2,2,0,0,1,2-2h10a2,2,0,0,1,2,2v10a2,2,0,0,1-2,2h-10a2,2,0,0,1-2-2"/><rect class="c" width="14" height="14" rx="2" transform="translate(283.877 391.406)"/><line class="c" x1="40.723" transform="translate(250.154 430.406)"/><line class="c" x2="70.084" y2="23.18" transform="translate(290.877 398.406)"/><line class="c" y1="7.744" x2="67.919" transform="translate(290.877 390.662)"/><line class="c" y1="27.188" x2="62.924" transform="translate(290.877 371.218)"/><line class="c" y1="58.123" x2="69.82" transform="translate(290.877 404.283)"/><line class="c" x2="64.883" y2="23.53" transform="translate(290.876 462.406)"/><path class="d" d="M283.877,435.406v-10a2,2,0,0,1,2-2h10a2,2,0,0,1,2,2v10a2,2,0,0,1-2,2h-10a2,2,0,0,1-2-2"/><rect class="c" width="14" height="14" rx="2" transform="translate(283.877 423.406)"/><line class="c" x2="67.978" y2="39.92" transform="translate(290.877 430.406)"/><line class="c" x2="71.303" y2="6.223" transform="translate(290.877 430.406)"/><line class="c" y1="32.102" x2="69.1" transform="translate(290.877 398.304)"/><path class="f" d="M341.979,356.957c11.105,0,20.107,33.412,20.107,74.629s-9,74.628-20.107,74.628"/><path class="e" d="M341.979,356.957c11.105,0,20.107,33.412,20.107,74.629s-9,74.628-20.107,74.628"/><path class="f" d="M413.388,356.957c11.1,0,20.107,33.412,20.107,74.629s-9,74.628-20.107,74.628"/><line class="e" x2="71.409" transform="translate(341.979 506.214)"/><line class="e" x2="71.409" transform="translate(341.979 356.957)"/><path class="e" d="M413.388,356.957c11.1,0,20.107,33.412,20.107,74.629s-9,74.628-20.107,74.628"/><line class="c" y1="12.04" x2="70.085" transform="translate(290.876 450.366)"/></g></g></svg>