<svg xmlns="http://www.w3.org/2000/svg" xmlns:xlink="http://www.w3.org/1999/xlink" width="237" height="259" viewBox="0 0 237 259"><defs><style>.a,.c,.d,.e,.f,.g,.h,.j{fill:none;}.b{clip-path:url(#a);}.c,.d,.f,.g,.h{stroke:#2970ff;}.c,.d,.e,.f,.g,.h,.j{stroke-linecap:round;stroke-linejoin:round;stroke-width:2px;}.d{stroke-dasharray:2.005 5.011;}.e,.j{stroke:#fff;}.f{stroke-dasharray:1.971 4.928;}.g{stroke-dasharray:2.022 5.056;}.h{stroke-dasharray:1.962 4.905;}.i{fill:#091440;}.j{stroke-dasharray:1.607 4.018;}</style><clipPath id="a"><rect class="a" width="237" height="259" rx="7" transform="translate(262.795 2)"/></clipPath></defs><g transform="translate(-262.795 -2)"><g class="b"><line class="c" x2="1" transform="translate(401.295 99.183)"/><path class="d" d="M407.286,99.183a13.876,13.876,0,0,0,10.871-13.545V73.322a15,15,0,0,1,15-15h62.132"/><line class="c" x2="1" transform="translate(497.795 54.322)"/><path class="e" d="M400.3,108.371h54.85a15,15,0,0,0,15-15V56a15,15,0,0,1,15-15H499.8"/><line class="c" x2="1" transform="translate(250.532 128.275)"/><path class="f" d="M256.46,130.274h59.045a15,15,0,0,1,15,15v19.038a15,15,0,0,0,15,15h10.326"/><line class="c" x2="1" transform="translate(358.295 179.313)"/><line class="c" x1="1" transform="translate(358.295 197.619)"/><path class="g" d="M353.241,197.619H316.6a15,15,0,0,0-15,15v3.09a15,15,0,0,1-15,15H248.57"/><line class="c" x1="1" transform="translate(245.041 230.709)"/><line class="c" x1="1" transform="translate(497.795 151.021)"/><path class="h" d="M492.89,157.021H459.1a15,15,0,0,1-15-15V132.98a15,15,0,0,0-15-15H404.748"/><line class="c" x1="1" transform="translate(401.295 117.98)"/><line class="e" x1="98.5" transform="translate(261.795 108.275)"/><path class="e" d="M360.3,188.667H301.8a15,15,0,0,1-15-15v-4.418a15,15,0,0,0-15-15H260.8"/><line class="e" x2="98.5" transform="translate(400.295 188.275)"/><path class="i" d="M397.3,129.274h-34a4,4,0,0,1-4-4v-34a4,4,0,0,1,4-4h34a4,4,0,0,1,4,4v34a4,4,0,0,1-4,4"/><rect class="c" width="42" height="42" rx="4" transform="translate(359.295 87.275)"/><path class="i" d="M393.3,99.717l-10.1,23.85-3.975-1.683a4.317,4.317,0,0,0-7.95-3.367l-3.975-1.683,10.1-23.85,3.975,1.683a4.317,4.317,0,0,0,7.95,3.367Z"/><path class="e" d="M393.3,99.717l-10.1,23.85-3.975-1.683a4.317,4.317,0,0,0-7.95-3.367l-3.975-1.683,10.1-23.85,3.975,1.683a4.317,4.317,0,0,0,7.95,3.367Z"/><line class="e" x2="0.921" y2="0.39" transform="translate(372.344 104.908)"/><line class="j" x2="8.509" y2="3.604" transform="translate(376.965 106.865)"/><line class="e" x2="0.921" y2="0.39" transform="translate(387.324 111.252)"/><path class="i" d="M397.3,209.274h-34a4,4,0,0,1-4-4v-34a4,4,0,0,1,4-4h34a4,4,0,0,1,4,4v34a4,4,0,0,1-4,4"/><rect class="c" width="42" height="42" rx="4" transform="translate(359.295 167.275)"/><path class="i" d="M393.3,179.717l-10.1,23.85-3.975-1.683a4.317,4.317,0,0,0-7.95-3.367l-3.975-1.683,10.1-23.85,3.975,1.683a4.317,4.317,0,0,0,7.95,3.367Z"/><path class="e" d="M393.3,179.717l-10.1,23.85-3.975-1.683a4.317,4.317,0,0,0-7.95-3.367l-3.975-1.683,10.1-23.85,3.975,1.683a4.317,4.317,0,0,0,7.95,3.367Z"/><line class="e" x2="0.921" y2="0.39" transform="translate(372.344 184.908)"/><line class="j" x2="8.509" y2="3.604" transform="translate(376.965 186.865)"/><line class="e" x2="0.921" y2="0.39" transform="translate(387.324 191.252)"/></g></g></svg>