<?xml version="1.0" encoding="UTF-8" standalone="no"?>
<svg
   xmlns:dc="http://purl.org/dc/elements/1.1/"
   xmlns:cc="http://creativecommons.org/ns#"
   xmlns:rdf="http://www.w3.org/1999/02/22-rdf-syntax-ns#"
   xmlns:svg="http://www.w3.org/2000/svg"
   xmlns="http://www.w3.org/2000/svg"
   xmlns:sodipodi="http://sodipodi.sourceforge.net/DTD/sodipodi-0.dtd"
   xmlns:inkscape="http://www.inkscape.org/namespaces/inkscape"
   id="Layer_1"
   version="1.1"
   viewBox="0 0 78 78"
   xml:space="preserve"
   sodipodi:docname="icon-nav-youtube.svg"
   width="30"
   height="30"
   inkscape:version="0.92.1 r15371"><metadata
     id="metadata4643"><rdf:RDF><cc:Work
         rdf:about=""><dc:format>image/svg+xml</dc:format><dc:type
           rdf:resource="http://purl.org/dc/dcmitype/StillImage" /><dc:title></dc:title></cc:Work></rdf:RDF></metadata><defs
     id="defs4641" /><sodipodi:namedview
     pagecolor="#ffffff"
     bordercolor="#666666"
     borderopacity="1"
     objecttolerance="10"
     gridtolerance="10"
     guidetolerance="10"
     inkscape:pageopacity="0"
     inkscape:pageshadow="2"
     inkscape:window-width="958"
     inkscape:window-height="1008"
     id="namedview4639"
     showgrid="false"
     viewbox-width="76"
     scale-x="2.6"
     units="px"
     width="209mm"
     inkscape:pagecheckerboard="true"
     inkscape:zoom="17.566021"
     inkscape:cx="12.214569"
     inkscape:cy="17.07123"
     inkscape:window-x="407"
     inkscape:window-y="0"
     inkscape:window-maximized="0"
     inkscape:current-layer="Layer_1" /><style
     type="text/css"
     id="style4630">
	.st0{fill:#2A445D;}
	.st1{fill:#37546B;}
	.st2{fill:#213B51;}
</style><path
     style="fill:#091440;fill-opacity:1;stroke-width:0.1124583"
     d="m 21.705406,58.14016 c -1.416109,-0.327955 -2.897211,-0.996728 -3.998185,-1.805335 -1.857696,-1.364381 -3.407489,-3.629766 -4.109755,-6.007376 -0.48857,-1.654121 -0.520624,-2.465116 -0.476303,-12.050733 0.04457,-9.638005 0.02777,-9.341876 0.627999,-11.065861 1.297634,-3.727 4.276527,-6.468437 7.945656,-7.312282 0.871421,-0.200415 1.846922,-0.212388 17.304755,-0.212388 13.127512,0 16.510993,0.03034 17.034341,0.15269 4.673696,1.092721 7.954087,4.670433 8.702397,9.491149 0.159614,1.028291 0.176013,2.21079 0.142575,10.282887 -0.03733,9.014297 -0.04068,9.132471 -0.281751,10.103542 -0.297373,1.19764 -1.046668,2.917392 -1.690589,3.880199 -1.138263,1.701962 -3.13102,3.322784 -4.955023,4.030207 -1.87183,0.725972 -0.971313,0.693647 -19.043172,0.683537 -13.636626,-0.0075 -16.628664,-0.03724 -17.20295,-0.17024 z M 39.687134,43.488945 c 3.902201,-1.958099 7.182995,-3.641647 7.290665,-3.741219 0.123763,-0.114458 0.183813,-0.304185 0.163268,-0.515916 -0.03102,-0.319616 -0.367764,-0.515732 -7.387855,-4.302558 l -7.355356,-3.967679 -0.291052,0.20357 -0.291053,0.203572 v 7.657614 c 0,6.806548 0.01893,7.67791 0.171048,7.840202 0.09407,0.100419 0.268782,0.18259 0.388241,0.18259 0.119462,0 3.409904,-1.602082 7.312094,-3.560179 z"
     id="path4647"
     inkscape:connector-curvature="0" /></svg>