<?xml version="1.0" encoding="UTF-8" standalone="no"?>
<!-- Generator: Adobe Illustrator 16.0.0, SVG Export Plug-In . SVG Version: 6.00 Build 0)  -->

<svg
   xmlns:dc="http://purl.org/dc/elements/1.1/"
   xmlns:cc="http://creativecommons.org/ns#"
   xmlns:rdf="http://www.w3.org/1999/02/22-rdf-syntax-ns#"
   xmlns:svg="http://www.w3.org/2000/svg"
   xmlns="http://www.w3.org/2000/svg"
   xmlns:sodipodi="http://sodipodi.sourceforge.net/DTD/sodipodi-0.dtd"
   xmlns:inkscape="http://www.inkscape.org/namespaces/inkscape"
   sodipodi:docname="iconYoutube.svg"
   id="svg3722"
   xml:space="preserve"
   enable-background="new 0 0 32 64"
   viewBox="0 0 32 64"
   height="64px"
   width="32px"
   y="0px"
   x="0px"
   version="1.1"
   inkscape:version="0.92.1 r15371"><metadata
     id="metadata3728"><rdf:RDF><cc:Work
         rdf:about=""><dc:format>image/svg+xml</dc:format><dc:type
           rdf:resource="http://purl.org/dc/dcmitype/StillImage" /><dc:title /></cc:Work></rdf:RDF></metadata><defs
     id="defs3726" /><sodipodi:namedview
     inkscape:current-layer="Layer_1"
     inkscape:window-maximized="0"
     inkscape:window-y="0"
     inkscape:window-x="-7"
     inkscape:cy="35.018868"
     inkscape:cx="16.402291"
     inkscape:zoom="13.25"
     showgrid="false"
     id="namedview3724"
     inkscape:window-height="1008"
     inkscape:window-width="958"
     inkscape:pageshadow="2"
     inkscape:pageopacity="0"
     guidetolerance="10"
     gridtolerance="10"
     objecttolerance="10"
     borderopacity="1"
     bordercolor="#666666"
     pagecolor="#ffffff" /><g
     id="Layer_1"
     transform="translate(0.02714485,-0.8940748)"><path
       id="XMLID_765_"
       d="M 22.312241,41.611321 H 9.700931 c -2.481392,0 -4.495699,2.014307 -4.495699,4.495699 v 6.305656 c 0,2.481392 2.014307,4.495699 4.495699,4.495699 h 12.640503 c 2.481392,0 4.495699,-2.014307 4.495699,-4.495699 V 46.10702 c -0.02919,-2.481392 -2.043499,-4.495699 -4.524892,-4.495699 z m -3.036056,7.969648 -5.896956,2.802514 c -0.145964,0.08757 -0.350314,-0.0292 -0.350314,-0.20435 v -5.809377 c 0,-0.175158 0.175157,-0.291928 0.350314,-0.204351 l 5.896956,3.006865 c 0.204351,0.05839 0.175157,0.321121 0,0.408699 z"
       class="st0"
       inkscape:connector-curvature="0"
       style="fill:#d5edfa"
       inkscape:label="XMLID_765_" /><path
       id="XMLID_766_"
       d="M 22.263914,9.5590199 H 9.6526038 c -2.4813925,0 -4.4956995,2.0143071 -4.4956995,4.4956991 v 6.305656 c 0,2.481392 2.014307,4.495699 4.4956995,4.495699 H 22.293107 c 2.481392,0 4.495699,-2.014307 4.495699,-4.495699 V 14.054719 C 26.759616,11.573327 24.745307,9.5590199 22.263914,9.5590199 Z m -3.036056,7.9696481 -5.896956,2.802514 c -0.145964,0.08757 -0.350314,-0.0292 -0.350314,-0.20435 v -5.809377 c 0,-0.175158 0.175157,-0.291928 0.350314,-0.204351 l 5.896956,3.006865 c 0.204351,0.05839 0.175157,0.321121 0,0.408699 z"
       class="st0"
       inkscape:connector-curvature="0"
       style="fill:#ffffff"
       inkscape:label="XMLID_766_" /></g><g
     id="Layer_2"
     display="none"
     inkscape:label="Layer_2" /><g
     id="specctr"
     display="none"
     style="display:none"><g
       id="Dimensions"
       display="inline"
       style="display:inline"
       inkscape:label="Dimensions" /><g
       id="Spacing"
       display="inline"
       style="display:inline"
       inkscape:label="Spacing" /><g
       id="Text_Properties"
       display="inline"
       style="display:inline"
       inkscape:label="Text_Properties" /><g
       id="Object_Properties"
       display="inline"
       style="display:inline"
       inkscape:label="Object_Properties" /></g><style
     id=""
     type=""></style></svg>