<svg xmlns="http://www.w3.org/2000/svg" xmlns:xlink="http://www.w3.org/1999/xlink" width="1280" height="800" viewBox="0 0 1280 800"><defs><style>.a,.c{fill:none;stroke:#2970ff;}.b{clip-path:url(#a);}.c{stroke-linecap:round;}</style><clipPath id="a"><rect class="a" width="1280" height="800"/></clipPath></defs><g class="b"><g transform="translate(25.191 -455.756)"><line class="c" x1="8.885" y2="82.963" transform="translate(1239.982 440.109)"/><line class="c" x1="54.507" y2="86.328" transform="translate(1185.475 523.072)"/><line class="c" x1="135.078" y1="134.25" transform="translate(889.475 145.184)"/><line class="c" x1="140.909" y1="79.484" transform="translate(748.565 65.7)"/><line class="c" x2="113.765" y2="103.671" transform="translate(976.605 97.893)"/><line class="c" x2="74.58" y2="137.001" transform="translate(1090.37 201.564)"/><line class="c" y1="130.75" x2="56.191" transform="translate(647.999 141.795)"/><line class="c" y1="76.095" x2="44.376" transform="translate(704.189 65.7)"/><line class="c" x1="187.532" y2="0.218" transform="translate(715.776 590.254)"/><line class="c" x1="174.7" y2="7.14" transform="translate(541.076 590.472)"/><line class="c" x1="17.717" y1="125.36" transform="translate(1248.537 724.876)"/><line class="c" x1="63.063" y1="115.476" transform="translate(1185.475 609.4)"/><line class="c" x1="13.487" y2="183.921" transform="translate(1238.477 693.508)"/><line class="c" x1="44" y2="157.588" transform="translate(1194.477 877.429)"/><line class="c" y1="172.494" x2="90.764" transform="translate(1052.687 770.536)"/><line class="c" y1="161.136" x2="42.024" transform="translate(1143.451 609.4)"/><line class="c" x1="103.267" y1="13.199" transform="translate(921.622 1223.575)"/><line class="c" x1="124.911" y1="22.254" transform="translate(796.711 1201.322)"/><line class="c" x1="72.139" y1="175.474" transform="translate(603.993 760.668)"/><line class="c" x1="62.917" y1="163.056" transform="translate(541.076 597.612)"/><line class="c" y1="25.861" x2="221.26" transform="translate(350.622 60.585)"/><line class="c" x2="176.684" y2="5.115" transform="translate(571.881 60.585)"/><line class="c" x1="110.654" y1="66.42" transform="translate(152.378 355.656)"/><line class="c" x1="64.004" y1="36.779" transform="translate(88.374 318.877)"/><line class="c" y1="49.969" x2="51.037" transform="translate(685.352 1293.7)"/><line class="c" y1="92.379" x2="60.322" transform="translate(736.389 1201.322)"/><line class="c" y1="122.681" x2="128.861" transform="translate(280.42 709.525)"/><line class="c" y1="111.914" x2="131.795" transform="translate(409.281 597.612)"/><line class="c" x1="148.513" y1="92.169" transform="translate(250.393 1133.159)"/><line class="c" x1="132.493" y1="117.83" transform="translate(117.901 1015.329)"/><line class="c" y1="185.199" x2="17.348" transform="translate(0 485.411)"/><line class="c" y1="166.535" x2="71.026" transform="translate(17.348 318.877)"/><line class="c" x2="48.932" y2="36.506" transform="translate(1164.95 338.565)"/><line class="c" x2="34.985" y2="65.038" transform="translate(1213.882 375.07)"/><line class="c" x1="55.868" y1="165.389" transform="translate(1129.607 444.011)"/><line class="c" x1="105.055" y1="164.577" transform="translate(1024.553 279.434)"/><line class="c" x2="123.983" y2="0.383" transform="translate(748.565 65.7)"/><line class="c" x2="104.056" y2="31.809" transform="translate(872.549 66.084)"/><line class="c" y1="163.47" x2="49.074" transform="translate(541.076 434.142)"/><line class="c" y1="161.597" x2="57.849" transform="translate(590.15 272.545)"/><line class="c" x1="115.527" y1="12.449" transform="translate(1069.948 596.951)"/><line class="c" x1="166.641" y1="6.697" transform="translate(903.308 590.254)"/><line class="c" y1="72.635" x2="44.305" transform="translate(1194.477 962.382)"/><line class="c" y1="112.146" x2="27.473" transform="translate(1238.781 850.236)"/><line class="c" x2="57.842" y2="168.893" transform="translate(1164.95 338.565)"/><line class="c" x2="29.172" y2="186.05" transform="translate(1222.792 507.457)"/><line class="c" y1="105.456" x2="133.069" transform="translate(796.711 1095.866)"/><line class="c" y1="152.837" x2="122.907" transform="translate(929.78 943.029)"/><line class="c" x1="63.928" y2="114.237" transform="translate(1130.548 1035.017)"/><line class="c" x1="105.659" y2="87.52" transform="translate(1024.889 1149.254)"/><line class="c" x1="52.217" y1="108.844" transform="translate(744.494 1092.477)"/><line class="c" x1="68.362" y1="156.335" transform="translate(676.133 936.142)"/><line class="c" y1="133.408" x2="121.841" transform="translate(88.374 185.468)"/><line class="c" y1="99.023" x2="140.406" transform="translate(210.215 86.445)"/><line class="c" x1="140.351" y1="89.892" transform="translate(400.726 507.72)"/><line class="c" x1="137.693" y1="85.643" transform="translate(263.033 422.076)"/><line class="c" x1="66.377" y1="50.437" transform="translate(682.189 15.263)"/><line class="c" x1="53.803" y1="15.263" transform="translate(628.386)"/><line class="c" y1="72.36" x2="59.377" transform="translate(117.901 942.969)"/><line class="c" y1="110.764" x2="103.143" transform="translate(177.277 832.206)"/><line class="c" x1="175.756" y2="16.756" transform="translate(620.955 1201.322)"/><line class="c" x1="222.048" y2="7.25" transform="translate(398.906 1218.077)"/><line class="c" x1="84.868" y1="159.946" transform="translate(33.033 855.383)"/><line class="c" x1="33.033" y1="184.772" transform="translate(0 670.61)"/><line class="c" x1="147.101" y2="121.901" transform="translate(115.932 422.076)"/><line class="c" x1="115.932" y2="126.633" transform="translate(0 543.977)"/><line class="c" x1="13.208" y2="202.915" transform="translate(249.825 422.076)"/><line class="c" x2="30.595" y2="207.215" transform="translate(249.825 624.991)"/><line class="c" x2="124.666" y2="79.397" transform="translate(0 670.61)"/><line class="c" x2="155.754" y2="82.198" transform="translate(124.666 750.007)"/><line class="c" x2="137.975" y2="80.326" transform="translate(398.906 1225.328)"/><line class="c" x2="148.471" y2="38.015" transform="translate(536.881 1305.654)"/><line class="c" x1="145.933" y2="21.842" transform="translate(482.453)"/><line class="c" x1="131.831" y2="64.604" transform="translate(350.622 21.842)"/><line class="c" x2="63.287" y2="195.24" transform="translate(280.42 832.206)"/><line class="c" x2="55.199" y2="197.882" transform="translate(343.708 1027.446)"/><line class="c" x2="189.59" y2="66.786" transform="translate(280.42 832.206)"/><line class="c" x2="206.123" y2="37.151" transform="translate(470.01 898.992)"/><line class="c" y1="145.924" x2="143.851" transform="translate(398.906 1079.404)"/><line class="c" y1="143.262" x2="133.375" transform="translate(542.758 936.142)"/><line class="c" y1="32.067" x2="176.82" transform="translate(685.352 1311.602)"/><line class="c" y1="74.828" x2="162.718" transform="translate(862.172 1236.774)"/><line class="c" x2="179.357" y2="27.79" transform="translate(628.386)"/><line class="c" x2="168.862" y2="70.103" transform="translate(807.743 27.79)"/><line class="c" x1="40.147" y2="157.133" transform="translate(310.475 86.445)"/><line class="c" x1="47.442" y2="178.498" transform="translate(263.033 243.579)"/><line class="c" x2="153.527" y2="82.292" transform="translate(350.622 86.445)"/><line class="c" x2="143.85" y2="103.807" transform="translate(504.149 168.737)"/><line class="c" y1="95.388" x2="182.714" transform="translate(263.033 326.689)"/><line class="c" y1="54.144" x2="202.252" transform="translate(445.747 272.545)"/><line class="c" x1="101.295" y2="179.775" transform="translate(802.013 590.254)"/><line class="c" x1="125.88" y2="166.113" transform="translate(676.133 770.029)"/><line class="c" x2="88.15" y2="183.241" transform="translate(903.308 590.254)"/><line class="c" x2="61.23" y2="169.535" transform="translate(991.457 773.495)"/><line class="c" x2="201.033" y2="11.369" transform="translate(676.133 936.142)"/><line class="c" y1="4.482" x2="175.521" transform="translate(877.165 943.029)"/><line class="c" x2="16.395" y2="146" transform="translate(1052.687 943.029)"/><line class="c" x1="44.192" y2="147.745" transform="translate(1024.889 1089.029)"/><line class="c" y1="30.963" x2="132.223" transform="translate(1052.687 912.067)"/><line class="c" y1="61.831" x2="81.345" transform="translate(1184.91 850.236)"/><line class="c" y1="194.096" x2="151.799" transform="translate(1024.889 1042.679)"/><line class="c" y1="192.443" x2="89.566" transform="translate(1176.688 850.236)"/><line class="c" y1="79.028" x2="17.593" transform="translate(1266.254 771.208)"/><line class="c" x1="31.883" y1="77.7" transform="translate(1251.964 693.508)"/><line class="c" y1="206.229" x2="23.22" transform="translate(1266.254 644.007)"/><line class="c" x1="40.608" y1="203.899" transform="translate(1248.867 440.109)"/><line class="c" y1="128.329" x2="23.148" transform="translate(1251.964 565.179)"/><line class="c" x1="26.246" y1="125.07" transform="translate(1248.867 440.109)"/><line class="c" x2="139.018" y2="143.784" transform="translate(647.999 272.545)"/><line class="c" x2="116.29" y2="173.925" transform="translate(787.017 416.329)"/><line class="c" y1="12.59" x2="200.017" transform="translate(647.999 259.955)"/><line class="c" x2="176.537" y2="19.479" transform="translate(848.016 259.955)"/><line class="c" y1="170.459" x2="73.154" transform="translate(903.308 419.795)"/><line class="c" y1="140.361" x2="48.091" transform="translate(976.462 279.434)"/><line class="c" x1="105.411" y1="181.294" transform="translate(1143.455 258.814)"/><line class="c" x1="166.851" y1="160.921" transform="translate(976.605 97.893)"/><line class="c" x1="88.22" y1="100.342" transform="translate(1160.646 339.766)"/><line class="c" x1="136.094" y1="60.332" transform="translate(1024.553 279.434)"/><line class="c" x2="53.868" y2="80.472" transform="translate(976.605 97.893)"/><line class="c" x1="5.919" y2="101.069" transform="translate(1024.553 178.365)"/><line class="c" y1="15.202" x2="57.086" transform="translate(1129.607 428.809)"/><line class="c" x2="26.047" y2="89.043" transform="translate(1160.646 339.766)"/><line class="c" x1="53.288" y1="94.263" transform="translate(1186.693 428.809)"/><line class="c" x1="71.281" y2="29.542" transform="translate(818.193 145.184)"/><line class="c" x1="29.823" y1="85.229" transform="translate(818.193 174.726)"/><line class="c" x2="114.004" y2="32.931" transform="translate(704.189 141.795)"/><line class="c" x2="31.902" y2="106.922" transform="translate(1239.982 523.072)"/><line class="c" x1="17.592" y1="14.013" transform="translate(1271.883 629.994)"/><line class="c" y1="94.882" x2="23.346" transform="translate(1248.537 629.994)"/><line class="c" x1="45.8" y2="82.378" transform="translate(1202.738 724.876)"/><line class="c" y1="104.813" x2="17.828" transform="translate(1184.91 807.254)"/><line class="c" x2="59.287" y2="36.718" transform="translate(1143.451 770.536)"/><line class="c" x1="68.637" y1="54.915" transform="translate(1074.813 715.62)"/><line class="c" y1="57.874" x2="83.356" transform="translate(991.457 715.62)"/><line class="c" x2="4.865" y2="118.669" transform="translate(1069.948 596.951)"/><line class="c" x1="112.642" y1="26.937" transform="translate(591.548 114.858)"/><line class="c" y1="53.879" x2="87.399" transform="translate(504.149 114.858)"/><line class="c" x2="19.666" y2="54.273" transform="translate(571.881 60.585)"/><line class="c" x1="78.044" y2="62.013" transform="translate(843.578 1223.575)"/><line class="c" x1="18.594" y1="26.014" transform="translate(843.578 1285.588)"/><line class="c" y1="8.112" x2="107.188" transform="translate(736.389 1285.588)"/><line class="c" x1="112.587" y2="33.575" transform="translate(491.406 760.668)"/><line class="c" y1="104.749" x2="21.396" transform="translate(470.01 794.243)"/><line class="c" x2="82.125" y2="84.718" transform="translate(409.281 709.525)"/><line class="c" y1="37.261" x2="3.275" transform="translate(571.881 23.323)"/><line class="c" x2="92.703" y2="1.482" transform="translate(482.453 21.842)"/><line class="c" x1="107.033" y2="8.06" transform="translate(575.156 15.263)"/><line class="c" x1="107.885" y1="12.045" transform="translate(628.504 1281.655)"/><line class="c" y1="23.999" x2="91.623" transform="translate(536.881 1281.655)"/><line class="c" x2="7.55" y2="63.578" transform="translate(620.955 1218.077)"/><line class="c" x1="63.477" y1="96.471" transform="translate(345.804 613.055)"/><line class="c" y1="11.937" x2="95.979" transform="translate(249.825 613.055)"/><line class="c" x1="54.921" y2="105.335" transform="translate(345.804 507.72)"/><line class="c" x1="27.358" y1="85.946" transform="translate(88.573 458.031)"/><line class="c" y1="27.381" x2="71.225" transform="translate(17.348 458.031)"/><line class="c" x1="63.805" y2="102.375" transform="translate(88.573 355.656)"/><line class="c" x1="93.242" y2="13.999" transform="translate(156.583 624.991)"/><line class="c" y1="111.018" x2="31.917" transform="translate(124.666 638.99)"/><line class="c" x2="40.652" y2="95.013" transform="translate(115.932 543.977)"/><line class="c" x1="71.992" y1="90.716" transform="translate(105.286 852.253)"/><line class="c" y1="3.129" x2="72.253" transform="translate(33.033 852.253)"/><line class="c" x1="19.38" y2="102.246" transform="translate(105.286 750.007)"/><line class="c" x1="91.027" y2="10.05" transform="translate(252.68 1027.446)"/><line class="c" y1="95.664" x2="2.287" transform="translate(250.393 1037.495)"/><line class="c" x2="75.403" y2="94.526" transform="translate(177.277 942.969)"/><line class="c" x1="19.914" y2="107.071" transform="translate(450.095 898.992)"/><line class="c" x1="92.662" y1="73.341" transform="translate(450.095 1006.063)"/><line class="c" y1="21.383" x2="106.388" transform="translate(343.708 1006.063)"/><line class="c" x1="109.645" y2="43.754" transform="translate(634.85 1092.477)"/><line class="c" y1="81.846" x2="13.895" transform="translate(620.955 1136.231)"/><line class="c" x2="92.092" y2="56.827" transform="translate(542.758 1079.404)"/><line class="c" x1="82.319" y1="38.827" transform="translate(790.229 27.257)"/><line class="c" x2="108.041" y2="11.993" transform="translate(682.189 15.263)"/><line class="c" x1="17.514" y1="0.534" transform="translate(790.229 27.257)"/><line class="c" x1="90.885" y2="13.398" transform="translate(219.59 243.579)"/><line class="c" y1="98.679" x2="67.211" transform="translate(152.378 256.977)"/><line class="c" x2="9.374" y2="71.508" transform="translate(210.215 185.468)"/><line class="c" x1="86.532" y2="71.24" transform="translate(417.617 168.737)"/><line class="c" x1="28.13" y1="86.711" transform="translate(417.617 239.977)"/><line class="c" y1="3.601" x2="107.142" transform="translate(310.475 239.977)"/><line class="c" x1="114.789" y1="18.346" transform="translate(475.362 415.796)"/><line class="c" y1="91.923" x2="74.636" transform="translate(400.726 415.796)"/><line class="c" x2="29.615" y2="89.107" transform="translate(445.747 326.689)"/><line class="c" x1="91.063" y1="61.065" transform="translate(710.95 708.964)"/><line class="c" y1="51.704" x2="106.956" transform="translate(603.993 708.964)"/><line class="c" x1="4.826" y2="118.492" transform="translate(710.95 590.472)"/><line class="c" x1="97.021" y2="59.221" transform="translate(894.436 773.495)"/><line class="c" y1="114.796" x2="17.27" transform="translate(877.165 832.716)"/><line class="c" x2="92.423" y2="62.686" transform="translate(802.013 770.029)"/><line class="c" x1="74.485" y1="46.013" transform="translate(855.295 1049.853)"/><line class="c" y1="42.625" x2="110.8" transform="translate(744.494 1049.853)"/><line class="c" x1="21.871" y2="102.341" transform="translate(855.295 947.511)"/><line class="c" x1="86.438" y2="53.562" transform="translate(982.643 1089.029)"/><line class="c" y1="80.984" x2="61.022" transform="translate(921.622 1142.591)"/><line class="c" x2="52.864" y2="46.725" transform="translate(929.78 1095.866)"/><line class="c" x1="32.665" y2="106.837" transform="translate(1152.244 912.067)"/><line class="c" x1="24.444" y1="23.775" transform="translate(1152.244 1018.904)"/><line class="c" y1="70.126" x2="83.163" transform="translate(1069.081 1018.904)"/><line class="c" x1="47.853" y2="92.271" transform="translate(1190.928 962.382)"/><line class="c" y1="94.601" x2="60.38" transform="translate(1130.548 1054.653)"/><line class="c" x2="14.24" y2="11.975" transform="translate(1176.688 1042.679)"/><line class="c" x1="21.746" y2="102.202" transform="translate(1262.102 771.208)"/><line class="c" y1="4.019" x2="23.625" transform="translate(1238.477 873.41)"/><line class="c" y1="88.972" x2="23.32" transform="translate(1238.781 873.41)"/><line class="c" x2="3.334" y2="15.764" transform="translate(1289.475 644.007)"/><line class="c" x2="17.697" y2="94.593" transform="translate(1275.112 565.179)"/><line class="c" y1="111.437" x2="8.962" transform="translate(1283.847 659.772)"/><line class="c" x2="31.506" y2="104.118" transform="translate(1213.882 375.07)"/><line class="c" y1="28.269" x2="22.596" transform="translate(1222.792 479.188)"/><line class="c" x1="29.724" y1="85.99" transform="translate(1245.388 479.188)"/><line class="c" x1="85.984" y2="58.744" transform="translate(701.033 416.329)"/><line class="c" x1="14.743" y1="115.4" transform="translate(701.033 475.072)"/><line class="c" x2="110.883" y2="40.931" transform="translate(590.15 434.142)"/><line class="c" x2="26.391" y2="100.342" transform="translate(848.016 259.955)"/><line class="c" x1="102.054" y1="59.498" transform="translate(874.407 360.297)"/><line class="c" y1="56.032" x2="87.39" transform="translate(787.017 360.297)"/><line class="c" x1="64.71" y2="37.719" transform="translate(1064.897 444.011)"/><line class="c" x1="5.051" y1="115.222" transform="translate(1064.897 481.73)"/><line class="c" x2="88.436" y2="61.935" transform="translate(976.462 419.795)"/><line class="c" x2="14.382" y2="15.322" transform="translate(1143.455 258.814)"/><line class="c" x2="67.467" y2="72.572" transform="translate(1090.37 201.564)"/><line class="c" x1="56.045" y1="100.934" transform="translate(1157.837 274.137)"/><line class="c" x1="40.881" y1="86.945" transform="translate(1119.765 252.821)"/><line class="c" x2="89.293" y2="74.456" transform="translate(1030.472 178.365)"/><line class="c" x1="23.69" y1="5.993" transform="translate(1119.765 252.821)"/><line class="c" y1="23.965" x2="49.867" transform="translate(889.475 121.219)"/><line class="c" x2="66.793" y2="55.136" transform="translate(872.549 66.084)"/><line class="c" x1="91.131" y1="57.145" transform="translate(939.341 121.219)"/></g></g></svg>