<svg xmlns="http://www.w3.org/2000/svg" xmlns:xlink="http://www.w3.org/1999/xlink" width="1280" height="800" viewBox="0 0 1280 800"><defs><style>.a,.c{fill:none;stroke:#2970ff;}.b{clip-path:url(#a);}.c{stroke-linecap:round;}</style><clipPath id="a"><rect class="a" width="1280" height="800" transform="translate(-503.975 -31.182)"/></clipPath></defs><g transform="translate(-3336.431 -1533.022)"><g class="b" transform="translate(3840.406 1564.204)"><g transform="translate(-6384.634 -4790.319)"><g transform="translate(0)"><line class="c" y1="155.01" x2="50.365" transform="translate(6828.878 5034.765)"/><line class="c" x2="131.86" y2="95.801" transform="translate(6879.244 5034.765)"/><line class="c" x1="182.225" y2="59.209" transform="translate(6828.878 5130.565)"/><line class="c" y2="191.601" transform="translate(7011.104 4938.964)"/><line class="c" y1="95.801" x2="131.86" transform="translate(6879.244 4938.964)"/><line class="c" x2="162.989" transform="translate(6716.255 5034.765)"/><line class="c" x1="112.624" y1="155.01" transform="translate(6716.255 5034.765)"/><line class="c" x2="50.365" y2="155.01" transform="translate(6828.878 4879.755)"/><line class="c" y1="155.01" x2="112.624" transform="translate(6716.255 4879.755)"/><line class="c" x2="182.225" y2="59.209" transform="translate(6828.878 4879.755)"/><line class="c" x1="31.129" y2="95.801" transform="translate(7011.104 5034.765)"/><line class="c" x2="31.129" y2="95.801" transform="translate(7011.104 4938.964)"/><line class="c" x1="100.73" transform="translate(6828.878 5189.775)"/><line class="c" x1="81.495" y2="59.209" transform="translate(6929.608 5130.565)"/><line class="c" x1="31.129" y1="95.801" transform="translate(6716.255 5034.765)"/><line class="c" x1="81.495" y1="59.209" transform="translate(6747.384 5130.565)"/><line class="c" y1="59.209" x2="81.495" transform="translate(6747.384 4879.755)"/><line class="c" y1="95.801" x2="31.129" transform="translate(6716.255 4938.964)"/><line class="c" x2="81.495" y2="59.209" transform="translate(6929.608 4879.755)"/><line class="c" x2="100.73" transform="translate(6828.878 4879.755)"/><line class="c" x1="112.624" y2="155.01" transform="translate(6929.608 5034.765)"/><line class="c" x1="182.225" y1="59.209" transform="translate(6747.384 5130.565)"/><line class="c" y1="191.601" transform="translate(6747.384 4938.964)"/><line class="c" y1="59.209" x2="182.225" transform="translate(6747.384 4879.755)"/><line class="c" x2="112.624" y2="155.01" transform="translate(6929.608 4879.755)"/><line class="c" x2="50.365" y2="155.01" transform="translate(6879.244 5034.765)"/><line class="c" x1="162.989" transform="translate(6879.244 5034.765)"/><line class="c" x1="131.86" y2="95.801" transform="translate(6747.384 5034.765)"/><line class="c" x1="131.86" y1="95.801" transform="translate(6747.384 4938.964)"/><line class="c" y1="155.01" x2="50.365" transform="translate(6879.244 4879.755)"/><line class="c" y1="59.209" x2="182.225" transform="translate(6602.432 4433.644)"/><line class="c" x1="131.86" y1="95.801" transform="translate(6602.432 4492.853)"/><line class="c" y1="155.01" x2="50.365" transform="translate(6734.291 4433.644)"/><line class="c" x1="144.953" y1="446.112" transform="translate(6784.656 4433.644)"/><line class="c" x2="144.953" y2="446.112" transform="translate(6734.291 4588.653)"/><line class="c" x2="144.953" y2="446.112" transform="translate(6602.432 4492.853)"/><line class="c" x2="112.624" y2="155.01" transform="translate(7382.519 4550.689)"/><line class="c" x1="162.989" transform="translate(7332.153 4705.7)"/><line class="c" y1="155.01" x2="50.365" transform="translate(7332.153 4550.689)"/><line class="c" y1="329.065" x2="452.91" transform="translate(6879.244 4705.7)"/><line class="c" x1="452.91" y2="329.065" transform="translate(6929.608 4550.689)"/><line class="c" y1="329.065" x2="452.91" transform="translate(7042.232 4705.7)"/><line class="c" x1="112.624" y2="155.01" transform="translate(7925.797 5758.554)"/><line class="c" x2="50.365" y2="155.01" transform="translate(7875.431 5758.554)"/><line class="c" x1="162.989" transform="translate(7875.431 5758.554)"/><line class="c" x2="996.188" y2="723.789" transform="translate(6879.244 5034.765)"/><line class="c" x1="996.188" y1="723.789" transform="translate(7042.232 5034.765)"/><line class="c" x2="996.188" y2="723.789" transform="translate(6929.608 5189.775)"/><line class="c" y1="191.601" transform="translate(5728.46 4938.964)"/><line class="c" x1="131.86" y2="95.801" transform="translate(5728.46 5034.765)"/><line class="c" x1="131.86" y1="95.801" transform="translate(5728.46 4938.964)"/><line class="c" x1="1018.924" transform="translate(5728.46 4938.964)"/><line class="c" x2="1018.924" transform="translate(5860.32 5034.765)"/><line class="c" x2="1018.924" transform="translate(5728.46 5130.565)"/><line class="c" x1="182.225" y1="59.21" transform="translate(5971.88 7517.285)"/><line class="c" x2="50.365" y2="155.01" transform="translate(6103.74 7421.485)"/><line class="c" x1="131.86" y2="95.8" transform="translate(5971.88 7421.485)"/><line class="c" x1="775.504" y2="2386.719" transform="translate(5971.88 5130.565)"/><line class="c" y1="2386.719" x2="775.504" transform="translate(6103.74 5034.765)"/><line class="c" y1="2386.72" x2="775.504" transform="translate(6154.104 5189.775)"/><line class="c" x1="100.73" transform="translate(6193.185 7146.208)"/><line class="c" x1="81.495" y1="59.21" transform="translate(6111.69 7086.999)"/><line class="c" x1="182.225" y1="59.21" transform="translate(6111.69 7086.999)"/><line class="c" x1="635.693" y2="1956.432" transform="translate(6111.69 5130.565)"/><line class="c" y1="1956.433" x2="635.694" transform="translate(6293.916 5189.775)"/><line class="c" x1="635.694" y2="1956.433" transform="translate(6193.185 5189.775)"/><line class="c" x1="112.624" y1="155.01" transform="translate(4262.834 6817.319)"/><line class="c" x1="31.129" y1="95.801" transform="translate(4262.834 6817.319)"/><line class="c" x1="81.495" y1="59.209" transform="translate(4293.963 6913.121)"/><line class="c" x1="2453.422" y2="1782.555" transform="translate(4293.963 5130.565)"/><line class="c" y1="1782.555" x2="2453.421" transform="translate(4375.458 5189.775)"/><line class="c" x1="2453.422" y2="1782.555" transform="translate(4262.834 5034.765)"/><line class="c" x1="31.129" y1="95.801" transform="translate(4348.682 5034.765)"/><line class="c" y1="95.801" x2="31.129" transform="translate(4348.682 4938.964)"/><line class="c" y1="191.601" transform="translate(4379.812 4938.964)"/><line class="c" x1="2367.573" transform="translate(4379.812 4938.964)"/><line class="c" x2="2367.573" transform="translate(4379.812 5130.565)"/><line class="c" x1="2367.573" transform="translate(4348.682 5034.765)"/><line class="c" y1="155.01" x2="112.623"/><line class="c" y1="59.21" x2="81.494" transform="translate(31.129)"/><line class="c" y1="95.8" x2="31.129" transform="translate(0 59.21)"/><line class="c" x1="6716.255" y1="4879.754" transform="translate(31.129 59.21)"/><line class="c" x2="6716.255" y2="4879.755" transform="translate(0 155.01)"/><line class="c" x1="6716.256" y1="4879.755" transform="translate(112.623)"/><line class="c" y1="59.21" x2="81.495" transform="translate(5826.837 2046.648)"/><line class="c" x2="100.73" transform="translate(5908.332 2046.648)"/><line class="c" y1="59.21" x2="182.225" transform="translate(5826.837 2046.648)"/><line class="c" x1="920.547" y1="2833.107" transform="translate(6009.062 2046.648)"/><line class="c" x2="920.547" y2="2833.106" transform="translate(5826.837 2105.858)"/><line class="c" x1="920.547" y1="2833.107" transform="translate(5908.332 2046.648)"/><line class="c" x2="162.989" transform="translate(5683.872 4284.678)"/><line class="c" x2="50.365" y2="155.01" transform="translate(5796.495 4129.668)"/><line class="c" y1="155.01" x2="112.624" transform="translate(5683.872 4129.668)"/><line class="c" x1="1032.384" y1="750.087" transform="translate(5796.495 4129.668)"/><line class="c" x2="1032.384" y2="750.087" transform="translate(5683.872 4284.678)"/><line class="c" x1="1032.384" y1="750.087" transform="translate(5846.86 4284.678)"/><line class="c" y1="95.801" x2="131.86" transform="translate(7209.386 3922.908)"/><line class="c" x2="50.365" y2="155.01" transform="translate(7159.021 3863.699)"/><line class="c" x2="182.225" y2="59.209" transform="translate(7159.021 3863.699)"/><line class="c" y1="1016.056" x2="330.142" transform="translate(7011.104 3922.908)"/><line class="c" x1="330.142" y2="1016.056" transform="translate(6828.878 3863.699)"/><line class="c" x1="330.142" y2="1016.056" transform="translate(6879.244 4018.709)"/><line class="c" x2="182.225" y2="59.209" transform="translate(7392.504 3145.124)"/><line class="c" x2="81.495" y2="59.209" transform="translate(7493.233 3145.124)"/><line class="c" x2="100.73" transform="translate(7392.504 3145.124)"/><line class="c" y1="1734.631" x2="563.625" transform="translate(6929.608 3145.124)"/><line class="c" x1="563.625" y2="1734.631" transform="translate(6828.878 3145.124)"/><line class="c" y1="1734.631" x2="563.625" transform="translate(7011.104 3204.333)"/><line class="c" y1="155.01" x2="50.365" transform="translate(5403.703 6070.238)"/><line class="c" x2="162.989" transform="translate(5291.08 6070.238)"/><line class="c" x1="112.624" y1="155.01" transform="translate(5291.08 6070.238)"/><line class="c" x1="1425.175" y2="1035.474" transform="translate(5291.08 5034.765)"/><line class="c" y1="1035.474" x2="1425.176" transform="translate(5403.703 5189.775)"/><line class="c" x1="1425.176" y2="1035.474" transform="translate(5454.069 5034.765)"/><line class="c" x1="182.225" y2="59.211" transform="translate(9515.809 13399.952)"/><line class="c" x1="100.73" transform="translate(9515.809 13459.162)"/><line class="c" x1="81.495" y2="59.211" transform="translate(9616.539 13399.952)"/><line class="c" x2="2686.93" y2="8269.389" transform="translate(6929.608 5189.775)"/><line class="c" x1="2686.93" y1="8269.386" transform="translate(7011.104 5130.565)"/><line class="c" x2="2686.93" y2="8269.389" transform="translate(6828.878 5189.775)"/><line class="c" y1="155.01" x2="50.365" transform="translate(7317.922 6539.86)"/><line class="c" x2="131.86" y2="95.801" transform="translate(7368.287 6539.86)"/><line class="c" x1="182.225" y2="59.209" transform="translate(7317.922 6635.661)"/><line class="c" x2="489.043" y2="1505.095" transform="translate(6828.878 5189.775)"/><line class="c" x1="489.043" y1="1505.095" transform="translate(7011.104 5130.565)"/><line class="c" x1="489.043" y1="1505.095" transform="translate(6879.244 5034.765)"/><line class="c" x1="31.129" y2="95.801" transform="translate(11673.601 8422.346)"/><line class="c" x1="81.495" y2="59.209" transform="translate(11592.107 8518.146)"/><line class="c" x1="112.624" y2="155.01" transform="translate(11592.107 8422.346)"/><line class="c" x2="4662.498" y2="3387.58" transform="translate(6929.608 5189.775)"/><line class="c" x1="4662.498" y1="3387.58" transform="translate(7042.232 5034.765)"/><line class="c" x2="4662.498" y2="3387.58" transform="translate(7011.104 5130.565)"/><line class="c" x2="31.129" y2="95.801" transform="translate(8600.426 3784.229)"/><line class="c" x2="81.495" y2="59.209" transform="translate(8518.931 3725.02)"/><line class="c" x2="112.624" y2="155.01" transform="translate(8518.931 3725.02)"/><line class="c" y1="1154.735" x2="1589.321" transform="translate(7042.232 3880.03)"/><line class="c" x1="1589.321" y2="1154.735" transform="translate(6929.608 3725.02)"/><line class="c" x1="1589.321" y2="1154.735" transform="translate(7011.104 3784.229)"/><line class="c" y2="191.601" transform="translate(10721.716 4938.964)"/><line class="c" x1="31.129" y2="95.801" transform="translate(10721.716 5034.765)"/><line class="c" x2="31.129" y2="95.801" transform="translate(10721.716 4938.964)"/><line class="c" x2="3710.612" transform="translate(7042.232 5034.765)"/><line class="c" x1="3710.612" transform="translate(7011.104 4938.964)"/><line class="c" x2="3710.612" transform="translate(7011.104 5130.565)"/><line class="c" x2="131.86" y2="95.801" transform="translate(8528.475 5034.765)"/><line class="c" y2="191.601" transform="translate(8660.335 4938.964)"/><line class="c" y1="95.801" x2="131.86" transform="translate(8528.475 4938.964)"/><line class="c" x2="1649.231" transform="translate(7011.104 4938.964)"/><line class="c" x1="1649.231" transform="translate(6879.244 5034.765)"/><line class="c" x2="1649.231" transform="translate(7011.104 5130.565)"/></g></g></g></g></svg>