<svg xmlns="http://www.w3.org/2000/svg" xmlns:xlink="http://www.w3.org/1999/xlink" width="1280" height="800" viewBox="0 0 1280 800"><defs><style>.a,.c{fill:none;stroke:#2970ff;}.b{clip-path:url(#a);}.c{stroke-linecap:round;}</style><clipPath id="a"><rect class="a" width="1280" height="800" transform="translate(-502)"/></clipPath></defs><g transform="translate(502)"><g class="b"><g transform="translate(-462 -804.953)"><line class="c" y2="195.544" transform="translate(0 1330.574)"/><line class="c" x2="379.579" y2="285.727" transform="translate(0 1526.118)"/><line class="c" y1="195.544" transform="translate(379.579 1616.301)"/><line class="c" x1="379.579" y1="285.727" transform="translate(0 1330.574)"/><line class="c" x1="379.579" y2="285.727" transform="translate(0 1044.847)"/><line class="c" y1="285.727" x2="379.579" transform="translate(379.579 1330.574)"/><line class="c" x1="379.579" y1="285.727" transform="translate(379.579 1044.847)"/><line class="c" y1="195.544" transform="translate(379.579 1044.847)"/><line class="c" y2="195.544" transform="translate(759.158 1330.574)"/><line class="c" x1="379.579" y1="285.727" transform="translate(379.579 1240.391)"/><line class="c" y1="285.727" x2="379.579" transform="translate(0 1240.391)"/><line class="c" x1="379.579" y2="285.727" transform="translate(379.579 1526.118)"/><line class="c" x2="0.089" y2="104.579" transform="translate(643.202 1189.651)"/><line class="c" x2="203.357" y2="153.139" transform="translate(643.29 1294.23)"/><line class="c" x1="0.089" y1="104.579" transform="translate(846.559 1342.79)"/><line class="c" x1="203.357" y1="153.139" transform="translate(643.202 1189.651)"/><line class="c" x1="203.357" y2="153.241" transform="translate(643.202 1036.41)"/><line class="c" y1="153.241" x2="203.358" transform="translate(846.559 1189.549)"/><line class="c" x1="203.358" y1="153.139" transform="translate(846.559 1036.41)"/><line class="c" x1="0.089" y1="104.579" transform="translate(846.559 1036.41)"/><line class="c" x2="0.089" y2="104.579" transform="translate(1049.917 1189.549)"/><line class="c" x1="203.357" y1="153.139" transform="translate(846.648 1140.989)"/><line class="c" y1="153.241" x2="203.358" transform="translate(643.29 1140.989)"/><line class="c" x1="203.358" y2="153.241" transform="translate(846.648 1294.128)"/><line class="c" x2="0.095" y2="55.93" transform="translate(987.828 1113.91)"/><line class="c" x2="108.948" y2="82.076" transform="translate(987.923 1169.839)"/><line class="c" x1="0.095" y1="55.93" transform="translate(1096.776 1195.986)"/><line class="c" x1="108.948" y1="82.076" transform="translate(987.828 1113.91)"/><line class="c" x1="108.948" y2="82.186" transform="translate(987.828 1031.724)"/><line class="c" y1="82.186" x2="108.948" transform="translate(1096.776 1113.8)"/><line class="c" x1="108.948" y1="82.076" transform="translate(1096.776 1031.724)"/><line class="c" x1="0.095" y1="55.93" transform="translate(1096.776 1031.724)"/><line class="c" x2="0.095" y2="55.929" transform="translate(1205.724 1113.8)"/><line class="c" x1="108.948" y1="82.076" transform="translate(1096.871 1087.653)"/><line class="c" y1="82.186" x2="108.948" transform="translate(987.923 1087.653)"/><line class="c" x1="108.948" y2="82.186" transform="translate(1096.871 1169.73)"/><line class="c" x2="0.076" y2="29.912" transform="translate(1172.478 1073.202)"/><line class="c" x2="58.368" y2="43.99" transform="translate(1172.554 1103.113)"/><line class="c" x1="0.076" y1="29.912" transform="translate(1230.846 1117.191)"/><line class="c" x1="58.368" y1="43.99" transform="translate(1172.478 1073.202)"/><line class="c" x1="58.368" y2="44.078" transform="translate(1172.478 1029.124)"/><line class="c" y1="44.078" x2="58.368" transform="translate(1230.846 1073.114)"/><line class="c" x1="58.368" y1="43.99" transform="translate(1230.846 1029.124)"/><line class="c" x1="0.076" y1="29.912" transform="translate(1230.846 1029.124)"/><line class="c" x2="0.076" y2="29.912" transform="translate(1289.215 1073.114)"/><line class="c" x1="58.368" y1="43.99" transform="translate(1230.922 1059.036)"/><line class="c" y1="44.078" x2="58.368" transform="translate(1172.554 1059.036)"/><line class="c" x1="58.368" y2="44.078" transform="translate(1230.923 1103.025)"/><line class="c" x2="0.055" y2="15.997" transform="translate(1271.413 1051.323)"/><line class="c" x2="31.271" y2="23.577" transform="translate(1271.468 1067.32)"/><line class="c" x1="0.054" y1="15.997" transform="translate(1302.684 1074.9)"/><line class="c" x1="31.271" y1="23.577" transform="translate(1271.413 1051.323)"/><line class="c" x1="31.27" y2="23.64" transform="translate(1271.413 1027.683)"/><line class="c" y1="23.639" x2="31.27" transform="translate(1302.684 1051.26)"/><line class="c" x1="31.271" y1="23.577" transform="translate(1302.684 1027.683)"/><line class="c" x1="0.055" y1="15.997" transform="translate(1302.684 1027.683)"/><line class="c" x2="0.055" y2="15.997" transform="translate(1333.954 1051.26)"/><line class="c" x1="31.271" y1="23.577" transform="translate(1302.738 1043.68)"/><line class="c" y1="23.639" x2="31.27" transform="translate(1271.468 1043.68)"/><line class="c" x1="31.27" y2="23.639" transform="translate(1302.738 1067.257)"/><line class="c" x2="0.036" y2="8.555" transform="translate(1324.423 1039.564)"/><line class="c" x2="16.753" y2="12.636" transform="translate(1324.459 1048.12)"/><line class="c" x1="0.037" y1="8.555" transform="translate(1341.175 1052.2)"/><line class="c" x1="16.753" y1="12.636" transform="translate(1324.423 1039.564)"/><line class="c" x1="16.753" y2="12.678" transform="translate(1324.423 1026.886)"/><line class="c" y1="12.678" x2="16.753" transform="translate(1341.175 1039.522)"/><line class="c" x1="16.753" y1="12.636" transform="translate(1341.175 1026.886)"/><line class="c" x1="0.036" y1="8.555" transform="translate(1341.175 1026.886)"/><line class="c" x2="0.036" y2="8.555" transform="translate(1357.928 1039.522)"/><line class="c" x1="16.753" y1="12.636" transform="translate(1341.212 1035.441)"/><line class="c" y1="12.678" x2="16.753" transform="translate(1324.459 1035.441)"/><line class="c" x1="16.753" y2="12.678" transform="translate(1341.212 1048.078)"/><line class="c" x2="0.024" y2="4.575" transform="translate(1352.825 1033.245)"/><line class="c" x2="8.975" y2="6.772" transform="translate(1352.848 1037.82)"/><line class="c" x1="0.023" y1="4.575" transform="translate(1361.8 1040.017)"/><line class="c" x1="8.975" y1="6.773" transform="translate(1352.825 1033.245)"/><line class="c" x1="8.975" y2="6.799" transform="translate(1352.825 1026.445)"/><line class="c" y1="6.799" x2="8.975" transform="translate(1361.8 1033.218)"/><line class="c" x1="8.975" y1="6.773" transform="translate(1361.8 1026.445)"/><line class="c" x1="0.023" y1="4.575" transform="translate(1361.8 1026.445)"/><line class="c" x2="0.024" y2="4.575" transform="translate(1370.775 1033.218)"/><line class="c" x1="8.976" y1="6.772" transform="translate(1361.823 1031.021)"/><line class="c" y1="6.8" x2="8.975" transform="translate(1352.848 1031.021)"/><line class="c" x1="8.975" y2="6.799" transform="translate(1361.823 1037.793)"/><line class="c" x2="0.015" y2="2.447" transform="translate(1368.042 1029.849)"/><line class="c" x2="4.808" y2="3.63" transform="translate(1368.057 1032.296)"/><line class="c" x1="0.014" y1="2.447" transform="translate(1372.851 1033.478)"/><line class="c" x1="4.809" y1="3.63" transform="translate(1368.042 1029.849)"/><line class="c" x1="4.809" y2="3.647" transform="translate(1368.042 1026.202)"/><line class="c" y1="3.647" x2="4.808" transform="translate(1372.851 1029.832)"/><line class="c" x1="4.808" y1="3.63" transform="translate(1372.851 1026.202)"/><line class="c" x1="0.014" y1="2.447" transform="translate(1372.851 1026.202)"/><line class="c" x2="0.014" y2="2.447" transform="translate(1377.66 1029.832)"/><line class="c" x1="4.808" y1="3.63" transform="translate(1372.865 1028.649)"/><line class="c" y1="3.647" x2="4.808" transform="translate(1368.057 1028.649)"/><line class="c" x1="4.808" y2="3.647" transform="translate(1372.865 1032.279)"/><line class="c" x2="0.009" y2="1.308" transform="translate(1376.196 1028.023)"/><line class="c" x2="2.576" y2="1.945" transform="translate(1376.205 1029.332)"/><line class="c" x1="0.009" y1="1.308" transform="translate(1378.772 1029.969)"/><line class="c" x1="2.576" y1="1.945" transform="translate(1376.196 1028.023)"/><line class="c" x1="2.576" y2="1.956" transform="translate(1376.196 1026.068)"/><line class="c" y1="1.956" x2="2.576" transform="translate(1378.772 1028.013)"/><line class="c" x1="2.576" y1="1.945" transform="translate(1378.772 1026.068)"/><line class="c" x1="0.009" y1="1.309" transform="translate(1378.772 1026.068)"/><line class="c" x2="0.009" y2="1.309" transform="translate(1381.348 1028.013)"/><line class="c" x1="2.576" y1="1.945" transform="translate(1378.781 1027.376)"/><line class="c" y1="1.956" x2="2.576" transform="translate(1376.205 1027.376)"/><line class="c" x1="2.576" y2="1.956" transform="translate(1378.781 1029.321)"/><line class="c" x2="0.005" y2="0.7" transform="translate(1380.565 1027.042)"/><line class="c" x2="1.38" y2="1.043" transform="translate(1380.57 1027.742)"/><line class="c" x1="0.005" y1="0.7" transform="translate(1381.945 1028.085)"/><line class="c" x1="1.38" y1="1.043" transform="translate(1380.565 1027.042)"/><line class="c" x1="1.38" y2="1.049" transform="translate(1380.565 1025.994)"/><line class="c" y1="1.049" x2="1.38" transform="translate(1381.945 1027.036)"/><line class="c" x1="1.38" y1="1.043" transform="translate(1381.945 1025.994)"/><line class="c" x1="0.005" y1="0.7" transform="translate(1381.945 1025.994)"/><line class="c" x2="0.006" y2="0.7" transform="translate(1383.325 1027.036)"/><line class="c" x1="1.38" y1="1.043" transform="translate(1381.95 1026.693)"/><line class="c" y1="1.049" x2="1.38" transform="translate(1380.57 1026.693)"/><line class="c" x1="1.38" y2="1.049" transform="translate(1381.95 1027.736)"/><line class="c" x2="0.003" y2="0.374" transform="translate(1382.906 1026.515)"/><line class="c" x2="0.739" y2="0.559" transform="translate(1382.909 1026.889)"/><line class="c" x1="0.003" y1="0.374" transform="translate(1383.645 1027.074)"/><line class="c" x1="0.739" y1="0.559" transform="translate(1382.906 1026.515)"/><line class="c" x1="0.739" y2="0.563" transform="translate(1382.906 1025.953)"/><line class="c" y1="0.562" x2="0.739" transform="translate(1383.645 1026.511)"/><line class="c" x1="0.739" y1="0.559" transform="translate(1383.645 1025.953)"/><line class="c" x1="0.003" y1="0.374" transform="translate(1383.645 1025.953)"/><line class="c" x2="0.003" y2="0.374" transform="translate(1384.384 1026.511)"/><line class="c" x1="0.74" y1="0.559" transform="translate(1383.648 1026.327)"/><line class="c" y1="0.562" x2="0.739" transform="translate(1382.909 1026.327)"/><line class="c" x1="0.74" y2="0.563" transform="translate(1383.648 1026.886)"/><line class="c" x2="0.002" y2="0.2" transform="translate(1384.16 1026.232)"/><line class="c" x2="0.396" y2="0.3" transform="translate(1384.161 1026.432)"/><line class="c" x1="0.002" y1="0.2" transform="translate(1384.556 1026.531)"/><line class="c" x1="0.396" y1="0.299" transform="translate(1384.16 1026.232)"/><line class="c" x1="0.396" y2="0.302" transform="translate(1384.16 1025.93)"/><line class="c" y1="0.302" x2="0.396" transform="translate(1384.556 1026.23)"/><line class="c" x1="0.396" y1="0.3" transform="translate(1384.556 1025.93)"/><line class="c" x1="0.002" y1="0.2" transform="translate(1384.556 1025.93)"/><line class="c" x2="0.002" y2="0.2" transform="translate(1384.952 1026.23)"/><line class="c" x1="0.396" y1="0.299" transform="translate(1384.557 1026.13)"/><line class="c" y1="0.302" x2="0.396" transform="translate(1384.161 1026.13)"/><line class="c" x1="0.396" y2="0.302" transform="translate(1384.557 1026.43)"/><line class="c" y2="195.544" transform="translate(0 1125.388)"/><line class="c" x2="379.579" y2="285.727" transform="translate(0 1320.932)"/><line class="c" y1="195.544" transform="translate(379.579 1411.115)"/><line class="c" x1="379.579" y1="285.727" transform="translate(0 1125.388)"/><line class="c" x1="379.579" y2="285.727" transform="translate(0 839.661)"/><line class="c" y1="285.727" x2="379.579" transform="translate(379.579 1125.388)"/><line class="c" x1="379.579" y1="285.727" transform="translate(379.579 839.661)"/><line class="c" y1="195.544" transform="translate(379.579 839.661)"/><line class="c" y2="195.544" transform="translate(759.158 1125.388)"/><line class="c" x1="379.579" y1="285.727" transform="translate(379.579 1035.205)"/><line class="c" y1="285.727" x2="379.579" transform="translate(0 1035.205)"/><line class="c" x1="379.579" y2="285.727" transform="translate(379.579 1320.932)"/><line class="c" x2="0.089" y2="104.579" transform="translate(643.202 984.465)"/><line class="c" x2="203.357" y2="153.139" transform="translate(643.29 1089.044)"/><line class="c" x1="0.089" y1="104.579" transform="translate(846.559 1137.604)"/><line class="c" x1="203.357" y1="153.139" transform="translate(643.202 984.465)"/><line class="c" x1="203.357" y2="153.241" transform="translate(643.202 831.224)"/><line class="c" y1="153.241" x2="203.358" transform="translate(846.559 984.363)"/><line class="c" x1="203.358" y1="153.139" transform="translate(846.559 831.224)"/><line class="c" x1="0.089" y1="104.579" transform="translate(846.559 831.224)"/><line class="c" x2="0.089" y2="104.579" transform="translate(1049.917 984.363)"/><line class="c" x1="203.357" y1="153.139" transform="translate(846.648 935.803)"/><line class="c" y1="153.241" x2="203.358" transform="translate(643.29 935.803)"/><line class="c" x1="203.358" y2="153.241" transform="translate(846.648 1088.942)"/><line class="c" x2="0.095" y2="55.93" transform="translate(987.828 908.723)"/><line class="c" x2="108.948" y2="82.076" transform="translate(987.923 964.653)"/><line class="c" x1="0.095" y1="55.93" transform="translate(1096.776 990.8)"/><line class="c" x1="108.948" y1="82.076" transform="translate(987.828 908.723)"/><line class="c" x1="108.948" y2="82.186" transform="translate(987.828 826.538)"/><line class="c" y1="82.186" x2="108.948" transform="translate(1096.776 908.614)"/><line class="c" x1="108.948" y1="82.077" transform="translate(1096.776 826.538)"/><line class="c" x1="0.095" y1="55.93" transform="translate(1096.776 826.538)"/><line class="c" x2="0.095" y2="55.93" transform="translate(1205.724 908.614)"/><line class="c" x1="108.948" y1="82.077" transform="translate(1096.871 882.467)"/><line class="c" y1="82.186" x2="108.948" transform="translate(987.923 882.467)"/><line class="c" x1="108.948" y2="82.186" transform="translate(1096.871 964.544)"/><line class="c" x2="0.076" y2="29.912" transform="translate(1172.478 868.016)"/><line class="c" x2="58.368" y2="43.99" transform="translate(1172.554 897.927)"/><line class="c" x1="0.076" y1="29.912" transform="translate(1230.846 912.005)"/><line class="c" x1="58.368" y1="43.99" transform="translate(1172.478 868.016)"/><line class="c" x1="58.368" y2="44.077" transform="translate(1172.478 823.938)"/><line class="c" y1="44.078" x2="58.368" transform="translate(1230.846 867.928)"/><line class="c" x1="58.368" y1="43.99" transform="translate(1230.846 823.938)"/><line class="c" x1="0.076" y1="29.911" transform="translate(1230.846 823.938)"/><line class="c" x2="0.076" y2="29.911" transform="translate(1289.215 867.928)"/><line class="c" x1="58.368" y1="43.99" transform="translate(1230.922 853.849)"/><line class="c" y1="44.078" x2="58.368" transform="translate(1172.554 853.849)"/><line class="c" x1="58.368" y2="44.078" transform="translate(1230.923 897.839)"/><line class="c" x2="0.055" y2="15.997" transform="translate(1271.413 846.137)"/><line class="c" x2="31.271" y2="23.577" transform="translate(1271.468 862.134)"/><line class="c" x1="0.054" y1="15.997" transform="translate(1302.684 869.714)"/><line class="c" x1="31.271" y1="23.577" transform="translate(1271.413 846.137)"/><line class="c" x1="31.27" y2="23.639" transform="translate(1271.413 822.498)"/><line class="c" y1="23.639" x2="31.27" transform="translate(1302.684 846.074)"/><line class="c" x1="31.271" y1="23.577" transform="translate(1302.684 822.498)"/><line class="c" x1="0.055" y1="15.997" transform="translate(1302.684 822.498)"/><line class="c" x2="0.055" y2="15.997" transform="translate(1333.954 846.074)"/><line class="c" x1="31.271" y1="23.577" transform="translate(1302.738 838.494)"/><line class="c" y1="23.639" x2="31.27" transform="translate(1271.468 838.494)"/><line class="c" x1="31.27" y2="23.64" transform="translate(1302.738 862.071)"/><line class="c" x2="0.036" y2="8.555" transform="translate(1324.423 834.378)"/><line class="c" x2="16.753" y2="12.636" transform="translate(1324.459 842.934)"/><line class="c" x1="0.037" y1="8.555" transform="translate(1341.175 847.015)"/><line class="c" x1="16.753" y1="12.636" transform="translate(1324.423 834.378)"/><line class="c" x1="16.753" y2="12.678" transform="translate(1324.423 821.7)"/><line class="c" y1="12.678" x2="16.753" transform="translate(1341.175 834.336)"/><line class="c" x1="16.753" y1="12.636" transform="translate(1341.175 821.7)"/><line class="c" x1="0.036" y1="8.555" transform="translate(1341.175 821.7)"/><line class="c" x2="0.036" y2="8.555" transform="translate(1357.928 834.336)"/><line class="c" x1="16.753" y1="12.636" transform="translate(1341.212 830.255)"/><line class="c" y1="12.678" x2="16.753" transform="translate(1324.459 830.255)"/><line class="c" x1="16.753" y2="12.678" transform="translate(1341.212 842.891)"/><line class="c" x2="0.024" y2="4.575" transform="translate(1352.825 828.059)"/><line class="c" x2="8.975" y2="6.772" transform="translate(1352.848 832.634)"/><line class="c" x1="0.023" y1="4.575" transform="translate(1361.8 834.831)"/><line class="c" x1="8.975" y1="6.773" transform="translate(1352.825 828.059)"/><line class="c" x1="8.975" y2="6.799" transform="translate(1352.825 821.259)"/><line class="c" y1="6.799" x2="8.975" transform="translate(1361.8 828.032)"/><line class="c" x1="8.975" y1="6.773" transform="translate(1361.8 821.259)"/><line class="c" x1="0.023" y1="4.575" transform="translate(1361.8 821.259)"/><line class="c" x2="0.024" y2="4.575" transform="translate(1370.775 828.032)"/><line class="c" x1="8.976" y1="6.772" transform="translate(1361.823 825.835)"/><line class="c" y1="6.8" x2="8.975" transform="translate(1352.848 825.835)"/><line class="c" x1="8.975" y2="6.8" transform="translate(1361.823 832.607)"/><line class="c" x2="0.015" y2="2.447" transform="translate(1368.042 824.663)"/><line class="c" x2="4.808" y2="3.63" transform="translate(1368.057 827.109)"/><line class="c" x1="0.014" y1="2.447" transform="translate(1372.851 828.292)"/><line class="c" x1="4.809" y1="3.63" transform="translate(1368.042 824.663)"/><line class="c" x1="4.809" y2="3.647" transform="translate(1368.042 821.016)"/><line class="c" y1="3.647" x2="4.808" transform="translate(1372.851 824.645)"/><line class="c" x1="4.808" y1="3.63" transform="translate(1372.851 821.016)"/><line class="c" x1="0.014" y1="2.447" transform="translate(1372.851 821.016)"/><line class="c" x2="0.014" y2="2.447" transform="translate(1377.66 824.645)"/><line class="c" x1="4.808" y1="3.63" transform="translate(1372.865 823.463)"/><line class="c" y1="3.647" x2="4.808" transform="translate(1368.057 823.463)"/><line class="c" x1="4.808" y2="3.647" transform="translate(1372.865 827.093)"/><line class="c" x2="0.009" y2="1.308" transform="translate(1376.196 822.837)"/><line class="c" x2="2.576" y2="1.945" transform="translate(1376.205 824.146)"/><line class="c" x1="0.009" y1="1.309" transform="translate(1378.772 824.783)"/><line class="c" x1="2.576" y1="1.945" transform="translate(1376.196 822.837)"/><line class="c" x1="2.576" y2="1.956" transform="translate(1376.196 820.881)"/><line class="c" y1="1.956" x2="2.576" transform="translate(1378.772 822.827)"/><line class="c" x1="2.576" y1="1.946" transform="translate(1378.772 820.881)"/><line class="c" x1="0.009" y1="1.309" transform="translate(1378.772 820.881)"/><line class="c" x2="0.009" y2="1.308" transform="translate(1381.348 822.827)"/><line class="c" x1="2.576" y1="1.945" transform="translate(1378.781 822.19)"/><line class="c" y1="1.956" x2="2.576" transform="translate(1376.205 822.19)"/><line class="c" x1="2.576" y2="1.956" transform="translate(1378.781 824.135)"/><line class="c" x2="0.005" y2="0.7" transform="translate(1380.565 821.856)"/><line class="c" x2="1.38" y2="1.043" transform="translate(1380.57 822.556)"/><line class="c" x1="0.005" y1="0.7" transform="translate(1381.945 822.899)"/><line class="c" x1="1.38" y1="1.043" transform="translate(1380.565 821.856)"/><line class="c" x1="1.38" y2="1.049" transform="translate(1380.565 820.807)"/><line class="c" y1="1.049" x2="1.38" transform="translate(1381.945 821.85)"/><line class="c" x1="1.38" y1="1.043" transform="translate(1381.945 820.807)"/><line class="c" x1="0.005" y1="0.7" transform="translate(1381.945 820.807)"/><line class="c" x2="0.006" y2="0.7" transform="translate(1383.325 821.85)"/><line class="c" x1="1.38" y1="1.043" transform="translate(1381.95 821.507)"/><line class="c" y1="1.049" x2="1.38" transform="translate(1380.57 821.507)"/><line class="c" x1="1.38" y2="1.049" transform="translate(1381.95 822.55)"/><line class="c" x2="0.003" y2="0.374" transform="translate(1382.906 821.329)"/><line class="c" x2="0.739" y2="0.559" transform="translate(1382.909 821.704)"/><line class="c" x1="0.003" y1="0.374" transform="translate(1383.645 821.888)"/><line class="c" x1="0.739" y1="0.559" transform="translate(1382.906 821.329)"/><line class="c" x1="0.739" y2="0.563" transform="translate(1382.906 820.766)"/><line class="c" y1="0.563" x2="0.739" transform="translate(1383.645 821.325)"/><line class="c" x1="0.739" y1="0.559" transform="translate(1383.645 820.766)"/><line class="c" x1="0.003" y1="0.374" transform="translate(1383.645 820.766)"/><line class="c" x2="0.003" y2="0.374" transform="translate(1384.384 821.325)"/><line class="c" x1="0.74" y1="0.559" transform="translate(1383.648 821.141)"/><line class="c" y1="0.563" x2="0.739" transform="translate(1382.909 821.141)"/><line class="c" x1="0.74" y2="0.563" transform="translate(1383.648 821.7)"/><line class="c" x2="0.002" y2="0.2" transform="translate(1384.16 821.046)"/><line class="c" x2="0.396" y2="0.3" transform="translate(1384.161 821.246)"/><line class="c" x1="0.002" y1="0.2" transform="translate(1384.556 821.345)"/><line class="c" x1="0.396" y1="0.3" transform="translate(1384.16 821.046)"/><line class="c" x1="0.396" y2="0.302" transform="translate(1384.16 820.744)"/><line class="c" y1="0.302" x2="0.396" transform="translate(1384.556 821.044)"/><line class="c" x1="0.396" y1="0.3" transform="translate(1384.556 820.744)"/><line class="c" x1="0.002" y1="0.2" transform="translate(1384.556 820.744)"/><line class="c" x2="0.002" y2="0.2" transform="translate(1384.952 821.044)"/><line class="c" x1="0.396" y1="0.299" transform="translate(1384.557 820.944)"/><line class="c" y1="0.302" x2="0.396" transform="translate(1384.161 820.944)"/><line class="c" x1="0.396" y2="0.302" transform="translate(1384.557 821.244)"/><line class="c" y2="195.544" transform="translate(0 920.202)"/><line class="c" x2="379.579" y2="285.727" transform="translate(0 1115.746)"/><line class="c" y1="195.544" transform="translate(379.579 1205.929)"/><line class="c" x1="379.579" y1="285.727" transform="translate(0 920.202)"/><line class="c" x1="379.579" y2="285.727" transform="translate(0 634.475)"/><line class="c" y1="285.727" x2="379.579" transform="translate(379.579 920.202)"/><line class="c" x1="379.579" y1="285.727" transform="translate(379.579 634.475)"/><line class="c" y1="195.544" transform="translate(379.579 634.475)"/><line class="c" y2="195.544" transform="translate(759.158 920.202)"/><line class="c" x1="379.579" y1="285.727" transform="translate(379.579 830.019)"/><line class="c" y1="285.727" x2="379.579" transform="translate(0 830.019)"/><line class="c" x1="379.579" y2="285.727" transform="translate(379.579 1115.746)"/><line class="c" x2="0.089" y2="104.579" transform="translate(643.202 779.279)"/><line class="c" x2="203.357" y2="153.139" transform="translate(643.29 883.858)"/><line class="c" x1="0.089" y1="104.579" transform="translate(846.559 932.417)"/><line class="c" x1="203.357" y1="153.138" transform="translate(643.202 779.279)"/><line class="c" x1="203.357" y2="153.241" transform="translate(643.202 626.038)"/><line class="c" y1="153.241" x2="203.357" transform="translate(846.559 779.176)"/><line class="c" x1="203.357" y1="153.138" transform="translate(846.559 626.038)"/><line class="c" x1="0.089" y1="104.579" transform="translate(846.559 626.038)"/><line class="c" x2="0.089" y2="104.579" transform="translate(1049.917 779.176)"/><line class="c" x1="203.357" y1="153.139" transform="translate(846.648 730.617)"/><line class="c" y1="153.241" x2="203.358" transform="translate(643.29 730.617)"/><line class="c" x1="203.358" y2="153.241" transform="translate(846.648 883.755)"/><line class="c" x2="0.095" y2="55.93" transform="translate(987.828 703.537)"/><line class="c" x2="108.948" y2="82.076" transform="translate(987.923 759.467)"/><line class="c" x1="0.095" y1="55.93" transform="translate(1096.776 785.614)"/><line class="c" x1="108.948" y1="82.076" transform="translate(987.828 703.537)"/><line class="c" x1="108.948" y2="82.186" transform="translate(987.828 621.352)"/><line class="c" y1="82.186" x2="108.948" transform="translate(1096.776 703.428)"/><line class="c" x1="108.948" y1="82.076" transform="translate(1096.776 621.352)"/><line class="c" x1="0.095" y1="55.93" transform="translate(1096.776 621.352)"/><line class="c" x2="0.095" y2="55.93" transform="translate(1205.724 703.428)"/><line class="c" x1="108.948" y1="82.076" transform="translate(1096.871 677.281)"/><line class="c" y1="82.186" x2="108.948" transform="translate(987.923 677.281)"/><line class="c" x1="108.948" y2="82.186" transform="translate(1096.871 759.358)"/><line class="c" x2="0.076" y2="29.911" transform="translate(1172.478 662.83)"/><line class="c" x2="58.368" y2="43.99" transform="translate(1172.554 692.741)"/><line class="c" x1="0.076" y1="29.911" transform="translate(1230.846 706.819)"/><line class="c" x1="58.368" y1="43.99" transform="translate(1172.478 662.83)"/><line class="c" x1="58.368" y2="44.078" transform="translate(1172.478 618.752)"/><line class="c" y1="44.078" x2="58.368" transform="translate(1230.846 662.742)"/><line class="c" x1="58.368" y1="43.99" transform="translate(1230.846 618.752)"/><line class="c" x1="0.076" y1="29.912" transform="translate(1230.846 618.752)"/><line class="c" x2="0.076" y2="29.911" transform="translate(1289.215 662.742)"/><line class="c" x1="58.368" y1="43.99" transform="translate(1230.922 648.664)"/><line class="c" y1="44.077" x2="58.368" transform="translate(1172.554 648.664)"/><line class="c" x1="58.368" y2="44.078" transform="translate(1230.923 692.653)"/><line class="c" x2="0.055" y2="15.997" transform="translate(1271.413 640.951)"/><line class="c" x2="31.271" y2="23.577" transform="translate(1271.468 656.948)"/><line class="c" x1="0.054" y1="15.997" transform="translate(1302.684 664.528)"/><line class="c" x1="31.271" y1="23.577" transform="translate(1271.413 640.951)"/><line class="c" x1="31.27" y2="23.64" transform="translate(1271.413 617.311)"/><line class="c" y1="23.64" x2="31.27" transform="translate(1302.684 640.888)"/><line class="c" x1="31.271" y1="23.577" transform="translate(1302.684 617.311)"/><line class="c" x1="0.055" y1="15.997" transform="translate(1302.684 617.311)"/><line class="c" x2="0.055" y2="15.997" transform="translate(1333.954 640.888)"/><line class="c" x1="31.271" y1="23.577" transform="translate(1302.738 633.308)"/><line class="c" y1="23.639" x2="31.27" transform="translate(1271.468 633.308)"/><line class="c" x1="31.27" y2="23.639" transform="translate(1302.738 656.885)"/><line class="c" x2="0.036" y2="8.555" transform="translate(1324.423 629.192)"/><line class="c" x2="16.753" y2="12.636" transform="translate(1324.459 637.747)"/><line class="c" x1="0.037" y1="8.555" transform="translate(1341.175 641.828)"/><line class="c" x1="16.753" y1="12.636" transform="translate(1324.423 629.192)"/><line class="c" x1="16.753" y2="12.678" transform="translate(1324.423 616.514)"/><line class="c" y1="12.678" x2="16.753" transform="translate(1341.175 629.15)"/><line class="c" x1="16.753" y1="12.636" transform="translate(1341.175 616.514)"/><line class="c" x1="0.036" y1="8.555" transform="translate(1341.175 616.514)"/><line class="c" x2="0.036" y2="8.555" transform="translate(1357.928 629.15)"/><line class="c" x1="16.753" y1="12.636" transform="translate(1341.212 625.069)"/><line class="c" y1="12.678" x2="16.753" transform="translate(1324.459 625.069)"/><line class="c" x1="16.753" y2="12.678" transform="translate(1341.212 637.705)"/><line class="c" x2="0.024" y2="4.575" transform="translate(1352.825 622.873)"/><line class="c" x2="8.975" y2="6.772" transform="translate(1352.848 627.448)"/><line class="c" x1="0.023" y1="4.575" transform="translate(1361.8 629.645)"/><line class="c" x1="8.975" y1="6.773" transform="translate(1352.825 622.873)"/><line class="c" x1="8.975" y2="6.8" transform="translate(1352.825 616.073)"/><line class="c" y1="6.8" x2="8.975" transform="translate(1361.8 622.846)"/><line class="c" x1="8.975" y1="6.773" transform="translate(1361.8 616.073)"/><line class="c" x1="0.023" y1="4.575" transform="translate(1361.8 616.073)"/><line class="c" x2="0.024" y2="4.575" transform="translate(1370.775 622.846)"/><line class="c" x1="8.976" y1="6.773" transform="translate(1361.823 620.648)"/><line class="c" y1="6.8" x2="8.975" transform="translate(1352.848 620.648)"/><line class="c" x1="8.975" y2="6.799" transform="translate(1361.823 627.421)"/><line class="c" x2="0.015" y2="2.447" transform="translate(1368.042 619.477)"/><line class="c" x2="4.808" y2="3.63" transform="translate(1368.057 621.923)"/><line class="c" x1="0.014" y1="2.447" transform="translate(1372.851 623.106)"/><line class="c" x1="4.809" y1="3.63" transform="translate(1368.042 619.477)"/><line class="c" x1="4.809" y2="3.647" transform="translate(1368.042 615.83)"/><line class="c" y1="3.647" x2="4.808" transform="translate(1372.851 619.459)"/><line class="c" x1="4.808" y1="3.63" transform="translate(1372.851 615.83)"/><line class="c" x1="0.014" y1="2.447" transform="translate(1372.851 615.83)"/><line class="c" x2="0.014" y2="2.447" transform="translate(1377.66 619.459)"/><line class="c" x1="4.808" y1="3.63" transform="translate(1372.865 618.277)"/><line class="c" y1="3.647" x2="4.808" transform="translate(1368.057 618.277)"/><line class="c" x1="4.808" y2="3.647" transform="translate(1372.865 621.906)"/><line class="c" x2="0.009" y2="1.308" transform="translate(1376.196 617.651)"/><line class="c" x2="2.576" y2="1.945" transform="translate(1376.205 618.96)"/><line class="c" x1="0.009" y1="1.308" transform="translate(1378.772 619.597)"/><line class="c" x1="2.576" y1="1.945" transform="translate(1376.196 617.651)"/><line class="c" x1="2.576" y2="1.956" transform="translate(1376.196 615.695)"/><line class="c" y1="1.956" x2="2.576" transform="translate(1378.772 617.641)"/><line class="c" x1="2.576" y1="1.945" transform="translate(1378.772 615.695)"/><line class="c" x1="0.009" y1="1.308" transform="translate(1378.772 615.695)"/><line class="c" x2="0.009" y2="1.308" transform="translate(1381.348 617.641)"/><line class="c" x1="2.576" y1="1.945" transform="translate(1378.781 617.004)"/><line class="c" y1="1.956" x2="2.576" transform="translate(1376.205 617.004)"/><line class="c" x1="2.576" y2="1.956" transform="translate(1378.781 618.949)"/><line class="c" x2="0.005" y2="0.7" transform="translate(1380.565 616.67)"/><line class="c" x2="1.38" y2="1.043" transform="translate(1380.57 617.37)"/><line class="c" x1="0.005" y1="0.7" transform="translate(1381.945 617.713)"/><line class="c" x1="1.38" y1="1.043" transform="translate(1380.565 616.67)"/><line class="c" x1="1.38" y2="1.049" transform="translate(1380.565 615.621)"/><line class="c" y1="1.049" x2="1.38" transform="translate(1381.945 616.664)"/><line class="c" x1="1.38" y1="1.043" transform="translate(1381.945 615.621)"/><line class="c" x1="0.005" y1="0.7" transform="translate(1381.945 615.621)"/><line class="c" x2="0.006" y2="0.7" transform="translate(1383.325 616.664)"/><line class="c" x1="1.38" y1="1.043" transform="translate(1381.95 616.321)"/><line class="c" y1="1.049" x2="1.38" transform="translate(1380.57 616.321)"/><line class="c" x1="1.38" y2="1.049" transform="translate(1381.95 617.364)"/><line class="c" x2="0.003" y2="0.374" transform="translate(1382.906 616.143)"/><line class="c" x2="0.739" y2="0.559" transform="translate(1382.909 616.517)"/><line class="c" x1="0.003" y1="0.374" transform="translate(1383.645 616.702)"/><line class="c" x1="0.739" y1="0.559" transform="translate(1382.906 616.143)"/><line class="c" x1="0.739" y2="0.562" transform="translate(1382.906 615.581)"/><line class="c" y1="0.563" x2="0.739" transform="translate(1383.645 616.139)"/><line class="c" x1="0.739" y1="0.559" transform="translate(1383.645 615.581)"/><line class="c" x1="0.003" y1="0.374" transform="translate(1383.645 615.581)"/><line class="c" x2="0.003" y2="0.374" transform="translate(1384.384 616.139)"/><line class="c" x1="0.74" y1="0.559" transform="translate(1383.648 615.955)"/><line class="c" y1="0.562" x2="0.739" transform="translate(1382.909 615.955)"/><line class="c" x1="0.74" y2="0.562" transform="translate(1383.648 616.514)"/><line class="c" x2="0.002" y2="0.2" transform="translate(1384.16 615.86)"/><line class="c" x2="0.396" y2="0.299" transform="translate(1384.161 616.06)"/><line class="c" x1="0.002" y1="0.2" transform="translate(1384.556 616.159)"/><line class="c" x1="0.396" y1="0.299" transform="translate(1384.16 615.86)"/><line class="c" x1="0.396" y2="0.302" transform="translate(1384.16 615.558)"/><line class="c" y1="0.302" x2="0.396" transform="translate(1384.556 615.858)"/><line class="c" x1="0.396" y1="0.3" transform="translate(1384.556 615.558)"/><line class="c" x1="0.002" y1="0.2" transform="translate(1384.556 615.558)"/><line class="c" x2="0.002" y2="0.2" transform="translate(1384.952 615.858)"/><line class="c" x1="0.396" y1="0.299" transform="translate(1384.557 615.758)"/><line class="c" y1="0.302" x2="0.396" transform="translate(1384.161 615.758)"/><line class="c" x1="0.396" y2="0.302" transform="translate(1384.557 616.058)"/><line class="c" y2="195.544" transform="translate(0 715.016)"/><line class="c" x2="379.579" y2="285.727" transform="translate(0 910.56)"/><line class="c" y1="195.544" transform="translate(379.579 1000.743)"/><line class="c" x1="379.579" y1="285.727" transform="translate(0 715.016)"/><line class="c" x1="379.579" y2="285.727" transform="translate(0 429.289)"/><line class="c" y1="285.727" x2="379.579" transform="translate(379.579 715.016)"/><line class="c" x1="379.579" y1="285.727" transform="translate(379.579 429.289)"/><line class="c" y1="195.544" transform="translate(379.579 429.289)"/><line class="c" y2="195.544" transform="translate(759.158 715.016)"/><line class="c" x1="379.579" y1="285.727" transform="translate(379.579 624.833)"/><line class="c" y1="285.727" x2="379.579" transform="translate(0 624.833)"/><line class="c" x1="379.579" y2="285.727" transform="translate(379.579 910.56)"/><line class="c" x2="0.089" y2="104.579" transform="translate(643.202 574.093)"/><line class="c" x2="203.357" y2="153.139" transform="translate(643.29 678.672)"/><line class="c" x1="0.089" y1="104.579" transform="translate(846.559 727.231)"/><line class="c" x1="203.357" y1="153.139" transform="translate(643.202 574.093)"/><line class="c" x1="203.357" y2="153.241" transform="translate(643.202 420.852)"/><line class="c" y1="153.241" x2="203.357" transform="translate(846.559 573.991)"/><line class="c" x1="203.357" y1="153.139" transform="translate(846.559 420.852)"/><line class="c" x1="0.089" y1="104.579" transform="translate(846.559 420.852)"/><line class="c" x2="0.089" y2="104.579" transform="translate(1049.917 573.991)"/><line class="c" x1="203.357" y1="153.139" transform="translate(846.648 525.431)"/><line class="c" y1="153.241" x2="203.358" transform="translate(643.29 525.431)"/><line class="c" x1="203.357" y2="153.241" transform="translate(846.648 678.569)"/><line class="c" x2="0.095" y2="55.93" transform="translate(987.828 498.351)"/><line class="c" x2="108.948" y2="82.076" transform="translate(987.923 554.281)"/><line class="c" x1="0.095" y1="55.93" transform="translate(1096.776 580.428)"/><line class="c" x1="108.948" y1="82.076" transform="translate(987.828 498.351)"/><line class="c" x1="108.948" y2="82.186" transform="translate(987.828 416.165)"/><line class="c" y1="82.186" x2="108.948" transform="translate(1096.776 498.242)"/><line class="c" x1="108.948" y1="82.077" transform="translate(1096.776 416.165)"/><line class="c" x1="0.095" y1="55.93" transform="translate(1096.776 416.165)"/><line class="c" x2="0.095" y2="55.929" transform="translate(1205.724 498.242)"/><line class="c" x1="108.948" y1="82.076" transform="translate(1096.871 472.095)"/><line class="c" y1="82.186" x2="108.948" transform="translate(987.923 472.095)"/><line class="c" x1="108.948" y2="82.186" transform="translate(1096.871 554.172)"/><line class="c" x2="0.076" y2="29.912" transform="translate(1172.478 457.643)"/><line class="c" x2="58.368" y2="43.99" transform="translate(1172.554 487.555)"/><line class="c" x1="0.076" y1="29.912" transform="translate(1230.846 501.633)"/><line class="c" x1="58.368" y1="43.99" transform="translate(1172.478 457.643)"/><line class="c" x1="58.368" y2="44.078" transform="translate(1172.478 413.566)"/><line class="c" y1="44.078" x2="58.368" transform="translate(1230.846 457.555)"/><line class="c" x1="58.368" y1="43.99" transform="translate(1230.846 413.566)"/><line class="c" x1="0.076" y1="29.911" transform="translate(1230.846 413.566)"/><line class="c" x2="0.076" y2="29.912" transform="translate(1289.215 457.555)"/><line class="c" x1="58.368" y1="43.99" transform="translate(1230.922 443.477)"/><line class="c" y1="44.078" x2="58.368" transform="translate(1172.554 443.477)"/><line class="c" x1="58.368" y2="44.078" transform="translate(1230.923 487.467)"/><line class="c" x2="0.055" y2="15.997" transform="translate(1271.413 435.765)"/><line class="c" x2="31.271" y2="23.577" transform="translate(1271.468 451.762)"/><line class="c" x1="0.054" y1="15.997" transform="translate(1302.684 459.342)"/><line class="c" x1="31.271" y1="23.577" transform="translate(1271.413 435.765)"/><line class="c" x1="31.27" y2="23.64" transform="translate(1271.413 412.125)"/><line class="c" y1="23.64" x2="31.27" transform="translate(1302.684 435.702)"/><line class="c" x1="31.271" y1="23.577" transform="translate(1302.684 412.125)"/><line class="c" x1="0.055" y1="15.997" transform="translate(1302.684 412.125)"/><line class="c" x2="0.055" y2="15.997" transform="translate(1333.954 435.702)"/><line class="c" x1="31.271" y1="23.577" transform="translate(1302.738 428.122)"/><line class="c" y1="23.64" x2="31.27" transform="translate(1271.468 428.122)"/><line class="c" x1="31.27" y2="23.64" transform="translate(1302.738 451.699)"/><line class="c" x2="0.036" y2="8.555" transform="translate(1324.423 424.006)"/><line class="c" x2="16.753" y2="12.636" transform="translate(1324.459 432.561)"/><line class="c" x1="0.037" y1="8.555" transform="translate(1341.175 436.642)"/><line class="c" x1="16.753" y1="12.636" transform="translate(1324.423 424.006)"/><line class="c" x1="16.753" y2="12.678" transform="translate(1324.423 411.328)"/><line class="c" y1="12.678" x2="16.753" transform="translate(1341.175 423.964)"/><line class="c" x1="16.753" y1="12.636" transform="translate(1341.175 411.328)"/><line class="c" x1="0.036" y1="8.555" transform="translate(1341.175 411.328)"/><line class="c" x2="0.036" y2="8.555" transform="translate(1357.928 423.964)"/><line class="c" x1="16.753" y1="12.636" transform="translate(1341.212 419.883)"/><line class="c" y1="12.678" x2="16.753" transform="translate(1324.459 419.883)"/><line class="c" x1="16.753" y2="12.678" transform="translate(1341.212 432.519)"/><line class="c" x2="0.024" y2="4.575" transform="translate(1352.825 417.687)"/><line class="c" x2="8.975" y2="6.773" transform="translate(1352.848 422.262)"/><line class="c" x1="0.023" y1="4.575" transform="translate(1361.8 424.459)"/><line class="c" x1="8.975" y1="6.772" transform="translate(1352.825 417.687)"/><line class="c" x1="8.975" y2="6.8" transform="translate(1352.825 410.887)"/><line class="c" y1="6.799" x2="8.975" transform="translate(1361.8 417.66)"/><line class="c" x1="8.975" y1="6.773" transform="translate(1361.8 410.887)"/><line class="c" x1="0.023" y1="4.575" transform="translate(1361.8 410.887)"/><line class="c" x2="0.024" y2="4.575" transform="translate(1370.775 417.66)"/><line class="c" x1="8.976" y1="6.772" transform="translate(1361.823 415.463)"/><line class="c" y1="6.799" x2="8.975" transform="translate(1352.848 415.463)"/><line class="c" x1="8.975" y2="6.8" transform="translate(1361.823 422.235)"/><line class="c" x2="0.015" y2="2.447" transform="translate(1368.042 414.29)"/><line class="c" x2="4.808" y2="3.63" transform="translate(1368.057 416.737)"/><line class="c" x1="0.014" y1="2.447" transform="translate(1372.851 417.92)"/><line class="c" x1="4.809" y1="3.63" transform="translate(1368.042 414.29)"/><line class="c" x1="4.809" y2="3.647" transform="translate(1368.042 410.644)"/><line class="c" y1="3.647" x2="4.808" transform="translate(1372.851 414.274)"/><line class="c" x1="4.808" y1="3.63" transform="translate(1372.851 410.644)"/><line class="c" x1="0.014" y1="2.447" transform="translate(1372.851 410.644)"/><line class="c" x2="0.014" y2="2.447" transform="translate(1377.66 414.274)"/><line class="c" x1="4.808" y1="3.63" transform="translate(1372.865 413.091)"/><line class="c" y1="3.647" x2="4.808" transform="translate(1368.057 413.091)"/><line class="c" x1="4.808" y2="3.647" transform="translate(1372.865 416.72)"/><line class="c" x2="0.009" y2="1.309" transform="translate(1376.196 412.465)"/><line class="c" x2="2.576" y2="1.945" transform="translate(1376.205 413.774)"/><line class="c" x1="0.009" y1="1.309" transform="translate(1378.772 414.41)"/><line class="c" x1="2.576" y1="1.945" transform="translate(1376.196 412.465)"/><line class="c" x1="2.576" y2="1.956" transform="translate(1376.196 410.509)"/><line class="c" y1="1.956" x2="2.576" transform="translate(1378.772 412.455)"/><line class="c" x1="2.576" y1="1.945" transform="translate(1378.772 410.509)"/><line class="c" x1="0.009" y1="1.309" transform="translate(1378.772 410.509)"/><line class="c" x2="0.009" y2="1.309" transform="translate(1381.348 412.455)"/><line class="c" x1="2.576" y1="1.945" transform="translate(1378.781 411.818)"/><line class="c" y1="1.956" x2="2.576" transform="translate(1376.205 411.818)"/><line class="c" x1="2.576" y2="1.956" transform="translate(1378.781 413.763)"/><line class="c" x2="0.005" y2="0.7" transform="translate(1380.565 411.484)"/><line class="c" x2="1.38" y2="1.042" transform="translate(1380.57 412.184)"/><line class="c" x1="0.005" y1="0.7" transform="translate(1381.945 412.527)"/><line class="c" x1="1.38" y1="1.043" transform="translate(1380.565 411.484)"/><line class="c" x1="1.38" y2="1.049" transform="translate(1380.565 410.435)"/><line class="c" y1="1.049" x2="1.38" transform="translate(1381.945 411.478)"/><line class="c" x1="1.38" y1="1.043" transform="translate(1381.945 410.435)"/><line class="c" x1="0.005" y1="0.7" transform="translate(1381.945 410.435)"/><line class="c" x2="0.006" y2="0.7" transform="translate(1383.325 411.478)"/><line class="c" x1="1.38" y1="1.043" transform="translate(1381.95 411.135)"/><line class="c" y1="1.049" x2="1.38" transform="translate(1380.57 411.135)"/><line class="c" x1="1.38" y2="1.049" transform="translate(1381.95 412.178)"/><line class="c" x2="0.003" y2="0.374" transform="translate(1382.906 410.957)"/><line class="c" x2="0.739" y2="0.559" transform="translate(1382.909 411.331)"/><line class="c" x1="0.003" y1="0.374" transform="translate(1383.645 411.516)"/><line class="c" x1="0.739" y1="0.559" transform="translate(1382.906 410.957)"/><line class="c" x1="0.739" y2="0.563" transform="translate(1382.906 410.394)"/><line class="c" y1="0.563" x2="0.739" transform="translate(1383.645 410.953)"/><line class="c" x1="0.739" y1="0.559" transform="translate(1383.645 410.394)"/><line class="c" x1="0.003" y1="0.374" transform="translate(1383.645 410.394)"/><line class="c" x2="0.003" y2="0.374" transform="translate(1384.384 410.953)"/><line class="c" x1="0.74" y1="0.559" transform="translate(1383.648 410.769)"/><line class="c" y1="0.563" x2="0.739" transform="translate(1382.909 410.769)"/><line class="c" x1="0.74" y2="0.563" transform="translate(1383.648 411.327)"/><line class="c" x2="0.002" y2="0.2" transform="translate(1384.16 410.674)"/><line class="c" x2="0.396" y2="0.3" transform="translate(1384.161 410.874)"/><line class="c" x1="0.002" y1="0.2" transform="translate(1384.556 410.973)"/><line class="c" x1="0.396" y1="0.3" transform="translate(1384.16 410.674)"/><line class="c" x1="0.396" y2="0.302" transform="translate(1384.16 410.372)"/><line class="c" y1="0.302" x2="0.396" transform="translate(1384.556 410.672)"/><line class="c" x1="0.396" y1="0.299" transform="translate(1384.556 410.372)"/><line class="c" x1="0.002" y1="0.2" transform="translate(1384.556 410.372)"/><line class="c" x2="0.002" y2="0.2" transform="translate(1384.952 410.672)"/><line class="c" x1="0.396" y1="0.299" transform="translate(1384.557 410.572)"/><line class="c" y1="0.302" x2="0.396" transform="translate(1384.161 410.572)"/><line class="c" x1="0.396" y2="0.302" transform="translate(1384.557 410.872)"/><line class="c" y2="195.543" transform="translate(0 509.83)"/><line class="c" x2="379.579" y2="285.727" transform="translate(0 705.374)"/><line class="c" y1="195.544" transform="translate(379.579 795.557)"/><line class="c" x1="379.579" y1="285.727" transform="translate(0 509.83)"/><line class="c" x1="379.579" y2="285.727" transform="translate(0 224.103)"/><line class="c" y1="285.727" x2="379.579" transform="translate(379.579 509.83)"/><line class="c" x1="379.579" y1="285.727" transform="translate(379.579 224.103)"/><line class="c" y1="195.544" transform="translate(379.579 224.103)"/><line class="c" y2="195.543" transform="translate(759.158 509.83)"/><line class="c" x1="379.579" y1="285.727" transform="translate(379.579 419.647)"/><line class="c" y1="285.727" x2="379.579" transform="translate(0 419.647)"/><line class="c" x1="379.579" y2="285.727" transform="translate(379.579 705.374)"/><line class="c" x2="0.089" y2="104.579" transform="translate(643.202 368.907)"/><line class="c" x2="203.357" y2="153.139" transform="translate(643.29 473.485)"/><line class="c" x1="0.089" y1="104.579" transform="translate(846.559 522.045)"/><line class="c" x1="203.357" y1="153.139" transform="translate(643.202 368.907)"/><line class="c" x1="203.357" y2="153.241" transform="translate(643.202 215.666)"/><line class="c" y1="153.241" x2="203.357" transform="translate(846.559 368.805)"/><line class="c" x1="203.357" y1="153.139" transform="translate(846.559 215.666)"/><line class="c" x1="0.089" y1="104.579" transform="translate(846.559 215.666)"/><line class="c" x2="0.089" y2="104.579" transform="translate(1049.917 368.805)"/><line class="c" x1="203.357" y1="153.139" transform="translate(846.648 320.245)"/><line class="c" y1="153.241" x2="203.358" transform="translate(643.29 320.245)"/><line class="c" x1="203.357" y2="153.241" transform="translate(846.648 473.383)"/><line class="c" x2="0.095" y2="55.93" transform="translate(987.828 293.165)"/><line class="c" x2="108.948" y2="82.076" transform="translate(987.923 349.095)"/><line class="c" x1="0.095" y1="55.93" transform="translate(1096.776 375.242)"/><line class="c" x1="108.948" y1="82.076" transform="translate(987.828 293.165)"/><line class="c" x1="108.948" y2="82.186" transform="translate(987.828 210.98)"/><line class="c" y1="82.186" x2="108.948" transform="translate(1096.776 293.056)"/><line class="c" x1="108.948" y1="82.076" transform="translate(1096.776 210.98)"/><line class="c" x1="0.095" y1="55.93" transform="translate(1096.776 210.98)"/><line class="c" x2="0.095" y2="55.93" transform="translate(1205.724 293.056)"/><line class="c" x1="108.948" y1="82.076" transform="translate(1096.871 266.909)"/><line class="c" y1="82.186" x2="108.948" transform="translate(987.923 266.909)"/><line class="c" x1="108.948" y2="82.186" transform="translate(1096.871 348.986)"/><line class="c" x2="0.076" y2="29.912" transform="translate(1172.478 252.457)"/><line class="c" x2="58.368" y2="43.99" transform="translate(1172.554 282.369)"/><line class="c" x1="0.076" y1="29.912" transform="translate(1230.846 296.447)"/><line class="c" x1="58.368" y1="43.99" transform="translate(1172.478 252.457)"/><line class="c" x1="58.368" y2="44.078" transform="translate(1172.478 208.38)"/><line class="c" y1="44.078" x2="58.368" transform="translate(1230.846 252.369)"/><line class="c" x1="58.368" y1="43.99" transform="translate(1230.846 208.38)"/><line class="c" x1="0.076" y1="29.912" transform="translate(1230.846 208.38)"/><line class="c" x2="0.076" y2="29.912" transform="translate(1289.215 252.369)"/><line class="c" x1="58.368" y1="43.99" transform="translate(1230.922 238.291)"/><line class="c" y1="44.078" x2="58.368" transform="translate(1172.554 238.291)"/><line class="c" x1="58.368" y2="44.078" transform="translate(1230.922 282.281)"/><line class="c" x2="0.055" y2="15.997" transform="translate(1271.413 230.579)"/><line class="c" x2="31.27" y2="23.577" transform="translate(1271.468 246.576)"/><line class="c" x1="0.055" y1="15.997" transform="translate(1302.684 254.155)"/><line class="c" x1="31.27" y1="23.577" transform="translate(1271.413 230.579)"/><line class="c" x1="31.27" y2="23.639" transform="translate(1271.413 206.939)"/><line class="c" y1="23.639" x2="31.271" transform="translate(1302.684 230.516)"/><line class="c" x1="31.271" y1="23.577" transform="translate(1302.683 206.939)"/><line class="c" x1="0.055" y1="15.997" transform="translate(1302.683 206.939)"/><line class="c" x2="0.054" y2="15.997" transform="translate(1333.954 230.516)"/><line class="c" x1="31.27" y1="23.577" transform="translate(1302.738 222.936)"/><line class="c" y1="23.64" x2="31.27" transform="translate(1271.468 222.936)"/><line class="c" x1="31.27" y2="23.64" transform="translate(1302.738 246.513)"/><line class="c" x2="0.036" y2="8.555" transform="translate(1324.422 218.82)"/><line class="c" x2="16.753" y2="12.636" transform="translate(1324.459 227.375)"/><line class="c" x1="0.037" y1="8.555" transform="translate(1341.175 231.456)"/><line class="c" x1="16.753" y1="12.636" transform="translate(1324.422 218.82)"/><line class="c" x1="16.753" y2="12.678" transform="translate(1324.422 206.142)"/><line class="c" y1="12.678" x2="16.753" transform="translate(1341.175 218.778)"/><line class="c" x1="16.753" y1="12.636" transform="translate(1341.175 206.142)"/><line class="c" x1="0.036" y1="8.555" transform="translate(1341.175 206.142)"/><line class="c" x2="0.036" y2="8.555" transform="translate(1357.928 218.778)"/><line class="c" x1="16.753" y1="12.636" transform="translate(1341.212 214.697)"/><line class="c" y1="12.678" x2="16.753" transform="translate(1324.459 214.697)"/><line class="c" x1="16.753" y2="12.678" transform="translate(1341.212 227.333)"/><line class="c" x2="0.023" y2="4.575" transform="translate(1352.825 212.501)"/><line class="c" x2="8.975" y2="6.772" transform="translate(1352.848 217.076)"/><line class="c" x1="0.023" y1="4.575" transform="translate(1361.8 219.273)"/><line class="c" x1="8.975" y1="6.773" transform="translate(1352.825 212.501)"/><line class="c" x1="8.975" y2="6.8" transform="translate(1352.825 205.701)"/><line class="c" y1="6.8" x2="8.975" transform="translate(1361.8 212.474)"/><line class="c" x1="8.975" y1="6.773" transform="translate(1361.8 205.701)"/><line class="c" x1="0.023" y1="4.575" transform="translate(1361.8 205.701)"/><line class="c" x2="0.024" y2="4.575" transform="translate(1370.775 212.474)"/><line class="c" x1="8.976" y1="6.772" transform="translate(1361.823 210.276)"/><line class="c" y1="6.8" x2="8.975" transform="translate(1352.848 210.276)"/><line class="c" x1="8.976" y2="6.8" transform="translate(1361.823 217.049)"/><line class="c" x2="0.015" y2="2.447" transform="translate(1368.042 209.104)"/><line class="c" x2="4.808" y2="3.63" transform="translate(1368.057 211.551)"/><line class="c" x1="0.014" y1="2.447" transform="translate(1372.851 212.734)"/><line class="c" x1="4.809" y1="3.63" transform="translate(1368.042 209.104)"/><line class="c" x1="4.809" y2="3.647" transform="translate(1368.042 205.457)"/><line class="c" y1="3.647" x2="4.808" transform="translate(1372.851 209.087)"/><line class="c" x1="4.808" y1="3.63" transform="translate(1372.851 205.457)"/><line class="c" x1="0.014" y1="2.447" transform="translate(1372.851 205.457)"/><line class="c" x2="0.015" y2="2.447" transform="translate(1377.659 209.087)"/><line class="c" x1="4.808" y1="3.63" transform="translate(1372.865 207.905)"/><line class="c" y1="3.647" x2="4.808" transform="translate(1368.057 207.905)"/><line class="c" x1="4.808" y2="3.647" transform="translate(1372.865 211.534)"/><line class="c" x2="0.009" y2="1.308" transform="translate(1376.196 207.279)"/><line class="c" x2="2.576" y2="1.945" transform="translate(1376.205 208.588)"/><line class="c" x1="0.009" y1="1.309" transform="translate(1378.772 209.224)"/><line class="c" x1="2.576" y1="1.945" transform="translate(1376.196 207.279)"/><line class="c" x1="2.576" y2="1.956" transform="translate(1376.196 205.323)"/><line class="c" y1="1.956" x2="2.576" transform="translate(1378.772 207.269)"/><line class="c" x1="2.576" y1="1.945" transform="translate(1378.772 205.323)"/><line class="c" x1="0.009" y1="1.308" transform="translate(1378.772 205.323)"/><line class="c" x2="0.009" y2="1.309" transform="translate(1381.348 207.269)"/><line class="c" x1="2.576" y1="1.945" transform="translate(1378.781 206.632)"/><line class="c" y1="1.956" x2="2.576" transform="translate(1376.205 206.632)"/><line class="c" x1="2.576" y2="1.956" transform="translate(1378.781 208.577)"/><line class="c" x2="0.005" y2="0.7" transform="translate(1380.565 206.298)"/><line class="c" x2="1.38" y2="1.043" transform="translate(1380.57 206.998)"/><line class="c" x1="0.005" y1="0.7" transform="translate(1381.945 207.341)"/><line class="c" x1="1.38" y1="1.043" transform="translate(1380.565 206.298)"/><line class="c" x1="1.38" y2="1.049" transform="translate(1380.565 205.249)"/><line class="c" y1="1.049" x2="1.38" transform="translate(1381.945 206.292)"/><line class="c" x1="1.38" y1="1.043" transform="translate(1381.945 205.249)"/><line class="c" x1="0.005" y1="0.7" transform="translate(1381.945 205.249)"/><line class="c" x2="0.006" y2="0.7" transform="translate(1383.325 206.292)"/><line class="c" x1="1.38" y1="1.043" transform="translate(1381.95 205.949)"/><line class="c" y1="1.049" x2="1.38" transform="translate(1380.57 205.949)"/><line class="c" x1="1.38" y2="1.049" transform="translate(1381.95 206.992)"/><line class="c" x2="0.003" y2="0.374" transform="translate(1382.905 205.771)"/><line class="c" x2="0.739" y2="0.559" transform="translate(1382.909 206.145)"/><line class="c" x1="0.003" y1="0.374" transform="translate(1383.645 206.33)"/><line class="c" x1="0.739" y1="0.559" transform="translate(1382.905 205.771)"/><line class="c" x1="0.739" y2="0.563" transform="translate(1382.905 205.208)"/><line class="c" y1="0.562" x2="0.739" transform="translate(1383.645 205.767)"/><line class="c" x1="0.74" y1="0.559" transform="translate(1383.645 205.208)"/><line class="c" x1="0.003" y1="0.374" transform="translate(1383.645 205.208)"/><line class="c" x2="0.003" y2="0.374" transform="translate(1384.384 205.767)"/><line class="c" x1="0.739" y1="0.559" transform="translate(1383.648 205.583)"/><line class="c" y1="0.563" x2="0.739" transform="translate(1382.909 205.583)"/><line class="c" x1="0.739" y2="0.562" transform="translate(1383.648 206.142)"/><line class="c" x2="0.002" y2="0.2" transform="translate(1384.16 205.488)"/><line class="c" x2="0.396" y2="0.3" transform="translate(1384.161 205.688)"/><line class="c" x1="0.002" y1="0.2" transform="translate(1384.556 205.787)"/><line class="c" x1="0.396" y1="0.3" transform="translate(1384.16 205.488)"/><line class="c" x1="0.396" y2="0.302" transform="translate(1384.16 205.186)"/><line class="c" y1="0.302" x2="0.396" transform="translate(1384.556 205.485)"/><line class="c" x1="0.396" y1="0.3" transform="translate(1384.556 205.186)"/><line class="c" x1="0.002" y1="0.2" transform="translate(1384.556 205.186)"/><line class="c" x2="0.002" y2="0.2" transform="translate(1384.952 205.485)"/><line class="c" x1="0.396" y1="0.3" transform="translate(1384.557 205.386)"/><line class="c" y1="0.302" x2="0.396" transform="translate(1384.161 205.386)"/><line class="c" x1="0.396" y2="0.302" transform="translate(1384.557 205.686)"/><line class="c" y2="195.544" transform="translate(0 304.644)"/><line class="c" x2="379.579" y2="285.727" transform="translate(0 500.188)"/><line class="c" y1="195.543" transform="translate(379.579 590.371)"/><line class="c" x1="379.579" y1="285.727" transform="translate(0 304.644)"/><line class="c" x1="379.579" y2="285.727" transform="translate(0 18.917)"/><line class="c" y1="285.727" x2="379.579" transform="translate(379.579 304.644)"/><line class="c" x1="379.579" y1="285.727" transform="translate(379.579 18.917)"/><line class="c" y1="195.543" transform="translate(379.579 18.917)"/><line class="c" y2="195.544" transform="translate(759.158 304.644)"/><line class="c" x1="379.579" y1="285.727" transform="translate(379.579 214.46)"/><line class="c" y1="285.727" x2="379.579" transform="translate(0 214.46)"/><line class="c" x1="379.579" y2="285.727" transform="translate(379.579 500.188)"/><line class="c" x2="0.089" y2="104.579" transform="translate(643.202 163.721)"/><line class="c" x2="203.357" y2="153.139" transform="translate(643.29 268.3)"/><line class="c" x1="0.089" y1="104.579" transform="translate(846.559 316.86)"/><line class="c" x1="203.357" y1="153.139" transform="translate(643.202 163.721)"/><line class="c" x1="203.357" y2="153.241" transform="translate(643.202 10.48)"/><line class="c" y1="153.241" x2="203.357" transform="translate(846.559 163.619)"/><line class="c" x1="203.358" y1="153.139" transform="translate(846.559 10.48)"/><line class="c" x1="0.089" y1="104.579" transform="translate(846.559 10.48)"/><line class="c" x2="0.089" y2="104.579" transform="translate(1049.917 163.619)"/><line class="c" x1="203.357" y1="153.139" transform="translate(846.648 115.059)"/><line class="c" y1="153.241" x2="203.358" transform="translate(643.29 115.059)"/><line class="c" x1="203.357" y2="153.241" transform="translate(846.648 268.197)"/><line class="c" x2="0.095" y2="55.93" transform="translate(987.828 87.979)"/><line class="c" x2="108.948" y2="82.076" transform="translate(987.923 143.909)"/><line class="c" x1="0.095" y1="55.93" transform="translate(1096.776 170.055)"/><line class="c" x1="108.948" y1="82.076" transform="translate(987.828 87.979)"/><line class="c" x1="108.948" y2="82.186" transform="translate(987.828 5.793)"/><line class="c" y1="82.185" x2="108.948" transform="translate(1096.776 87.87)"/><line class="c" x1="108.948" y1="82.077" transform="translate(1096.776 5.793)"/><line class="c" x1="0.095" y1="55.93" transform="translate(1096.776 5.793)"/><line class="c" x2="0.095" y2="55.929" transform="translate(1205.724 87.87)"/><line class="c" x1="108.948" y1="82.076" transform="translate(1096.871 61.723)"/><line class="c" y1="82.186" x2="108.948" transform="translate(987.923 61.723)"/><line class="c" x1="108.948" y2="82.186" transform="translate(1096.871 143.799)"/><line class="c" x2="0.076" y2="29.911" transform="translate(1172.478 47.271)"/><line class="c" x2="58.368" y2="43.99" transform="translate(1172.554 77.183)"/><line class="c" x1="0.076" y1="29.911" transform="translate(1230.846 91.261)"/><line class="c" x1="58.368" y1="43.99" transform="translate(1172.478 47.271)"/><line class="c" x1="58.368" y2="44.078" transform="translate(1172.478 3.194)"/><line class="c" y1="44.078" x2="58.368" transform="translate(1230.846 47.183)"/><line class="c" x1="58.368" y1="43.99" transform="translate(1230.846 3.194)"/><line class="c" x1="0.076" y1="29.912" transform="translate(1230.846 3.194)"/><line class="c" x2="0.076" y2="29.911" transform="translate(1289.215 47.183)"/><line class="c" x1="58.368" y1="43.99" transform="translate(1230.922 33.105)"/><line class="c" y1="44.077" x2="58.368" transform="translate(1172.554 33.105)"/><line class="c" x1="58.368" y2="44.078" transform="translate(1230.922 77.095)"/><line class="c" x2="0.055" y2="15.997" transform="translate(1271.413 25.393)"/><line class="c" x2="31.27" y2="23.577" transform="translate(1271.468 41.39)"/><line class="c" x1="0.055" y1="15.997" transform="translate(1302.684 48.969)"/><line class="c" x1="31.27" y1="23.577" transform="translate(1271.413 25.393)"/><line class="c" x1="31.27" y2="23.64" transform="translate(1271.413 1.753)"/><line class="c" y1="23.639" x2="31.271" transform="translate(1302.684 25.33)"/><line class="c" x1="31.271" y1="23.577" transform="translate(1302.683 1.753)"/><line class="c" x1="0.055" y1="15.997" transform="translate(1302.683 1.753)"/><line class="c" x2="0.054" y2="15.997" transform="translate(1333.954 25.33)"/><line class="c" x1="31.27" y1="23.577" transform="translate(1302.738 17.75)"/><line class="c" y1="23.64" x2="31.27" transform="translate(1271.468 17.75)"/><line class="c" x1="31.27" y2="23.64" transform="translate(1302.738 41.327)"/><line class="c" x2="0.036" y2="8.555" transform="translate(1324.422 13.634)"/><line class="c" x2="16.753" y2="12.636" transform="translate(1324.459 22.189)"/><line class="c" x1="0.037" y1="8.555" transform="translate(1341.175 26.27)"/><line class="c" x1="16.753" y1="12.636" transform="translate(1324.422 13.634)"/><line class="c" x1="16.753" y2="12.678" transform="translate(1324.422 0.956)"/><line class="c" y1="12.678" x2="16.753" transform="translate(1341.175 13.592)"/><line class="c" x1="16.753" y1="12.636" transform="translate(1341.175 0.956)"/><line class="c" x1="0.036" y1="8.555" transform="translate(1341.175 0.956)"/><line class="c" x2="0.036" y2="8.555" transform="translate(1357.928 13.592)"/><line class="c" x1="16.753" y1="12.636" transform="translate(1341.212 9.511)"/><line class="c" y1="12.678" x2="16.753" transform="translate(1324.459 9.511)"/><line class="c" x1="16.753" y2="12.678" transform="translate(1341.212 22.147)"/><line class="c" x2="0.023" y2="4.575" transform="translate(1352.825 7.315)"/><line class="c" x2="8.975" y2="6.772" transform="translate(1352.848 11.89)"/><line class="c" x1="0.023" y1="4.575" transform="translate(1361.8 14.087)"/><line class="c" x1="8.975" y1="6.772" transform="translate(1352.825 7.315)"/><line class="c" x1="8.975" y2="6.799" transform="translate(1352.825 0.515)"/><line class="c" y1="6.799" x2="8.975" transform="translate(1361.8 7.288)"/><line class="c" x1="8.975" y1="6.772" transform="translate(1361.8 0.515)"/><line class="c" x1="0.023" y1="4.575" transform="translate(1361.8 0.515)"/><line class="c" x2="0.024" y2="4.575" transform="translate(1370.775 7.288)"/><line class="c" x1="8.976" y1="6.772" transform="translate(1361.823 5.09)"/><line class="c" y1="6.799" x2="8.975" transform="translate(1352.848 5.09)"/><line class="c" x1="8.976" y2="6.799" transform="translate(1361.823 11.863)"/><line class="c" x2="0.015" y2="2.447" transform="translate(1368.042 3.918)"/><line class="c" x2="4.808" y2="3.63" transform="translate(1368.057 6.365)"/><line class="c" x1="0.014" y1="2.447" transform="translate(1372.851 7.548)"/><line class="c" x1="4.809" y1="3.63" transform="translate(1368.042 3.918)"/><line class="c" x1="4.809" y2="3.646" transform="translate(1368.042 0.272)"/><line class="c" y1="3.647" x2="4.808" transform="translate(1372.851 3.901)"/><line class="c" x1="4.808" y1="3.63" transform="translate(1372.851 0.272)"/><line class="c" x1="0.014" y1="2.447" transform="translate(1372.851 0.272)"/><line class="c" x2="0.015" y2="2.447" transform="translate(1377.659 3.901)"/><line class="c" x1="4.808" y1="3.63" transform="translate(1372.865 2.719)"/><line class="c" y1="3.646" x2="4.808" transform="translate(1368.057 2.719)"/><line class="c" x1="4.808" y2="3.646" transform="translate(1372.865 6.348)"/><line class="c" x2="0.009" y2="1.308" transform="translate(1376.196 2.093)"/><line class="c" x2="2.576" y2="1.945" transform="translate(1376.205 3.401)"/><line class="c" x1="0.009" y1="1.308" transform="translate(1378.772 4.038)"/><line class="c" x1="2.576" y1="1.945" transform="translate(1376.196 2.093)"/><line class="c" x1="2.576" y2="1.956" transform="translate(1376.196 0.137)"/><line class="c" y1="1.956" x2="2.576" transform="translate(1378.772 2.083)"/><line class="c" x1="2.576" y1="1.945" transform="translate(1378.772 0.137)"/><line class="c" x1="0.009" y1="1.309" transform="translate(1378.772 0.137)"/><line class="c" x2="0.009" y2="1.309" transform="translate(1381.348 2.083)"/><line class="c" x1="2.576" y1="1.945" transform="translate(1378.781 1.446)"/><line class="c" y1="1.955" x2="2.576" transform="translate(1376.205 1.446)"/><line class="c" x1="2.576" y2="1.956" transform="translate(1378.781 3.391)"/><line class="c" x2="0.005" y2="0.7" transform="translate(1380.565 1.112)"/><line class="c" x2="1.38" y2="1.043" transform="translate(1380.57 1.812)"/><line class="c" x1="0.005" y1="0.7" transform="translate(1381.945 2.155)"/><line class="c" x1="1.38" y1="1.042" transform="translate(1380.565 1.112)"/><line class="c" x1="1.38" y2="1.049" transform="translate(1380.565 0.063)"/><line class="c" y1="1.049" x2="1.38" transform="translate(1381.945 1.106)"/><line class="c" x1="1.38" y1="1.043" transform="translate(1381.945 0.063)"/><line class="c" x1="0.005" y1="0.7" transform="translate(1381.945 0.063)"/><line class="c" x2="0.006" y2="0.7" transform="translate(1383.325 1.106)"/><line class="c" x1="1.38" y1="1.042" transform="translate(1381.95 0.763)"/><line class="c" y1="1.049" x2="1.38" transform="translate(1380.57 0.763)"/><line class="c" x1="1.38" y2="1.049" transform="translate(1381.95 1.806)"/><line class="c" x2="0.003" y2="0.374" transform="translate(1382.905 0.585)"/><line class="c" x2="0.739" y2="0.559" transform="translate(1382.909 0.959)"/><line class="c" x1="0.003" y1="0.374" transform="translate(1383.645 1.144)"/><line class="c" x1="0.739" y1="0.559" transform="translate(1382.905 0.585)"/><line class="c" x1="0.739" y2="0.562" transform="translate(1382.905 0.023)"/><line class="c" y1="0.562" x2="0.739" transform="translate(1383.645 0.581)"/><line class="c" x1="0.74" y1="0.559" transform="translate(1383.645 0.023)"/><line class="c" x1="0.003" y1="0.374" transform="translate(1383.645 0.023)"/><line class="c" x2="0.003" y2="0.374" transform="translate(1384.384 0.581)"/><line class="c" x1="0.739" y1="0.559" transform="translate(1383.648 0.397)"/><line class="c" y1="0.562" x2="0.739" transform="translate(1382.909 0.397)"/><line class="c" x1="0.739" y2="0.563" transform="translate(1383.648 0.955)"/><line class="c" x2="0.002" y2="0.2" transform="translate(1384.16 0.302)"/><line class="c" x2="0.396" y2="0.299" transform="translate(1384.161 0.502)"/><line class="c" x1="0.002" y1="0.2" transform="translate(1384.556 0.601)"/><line class="c" x1="0.396" y1="0.299" transform="translate(1384.16 0.302)"/><line class="c" x1="0.396" y2="0.302" transform="translate(1384.16)"/><line class="c" y1="0.302" x2="0.396" transform="translate(1384.556 0.299)"/><line class="c" x1="0.396" y1="0.299" transform="translate(1384.556)"/><line class="c" x1="0.002" y1="0.2" transform="translate(1384.556)"/><line class="c" x2="0.002" y2="0.2" transform="translate(1384.952 0.299)"/><line class="c" x1="0.396" y1="0.299" transform="translate(1384.557 0.2)"/><line class="c" y1="0.302" x2="0.396" transform="translate(1384.161 0.2)"/><line class="c" x1="0.396" y2="0.302" transform="translate(1384.557 0.5)"/></g></g></g></svg>