<svg xmlns="http://www.w3.org/2000/svg" viewBox="0 0 80 80"><defs><style>.a{fill:#fff;}.b{fill:#e6eaed;}.c{fill:#8996a5;}.d{fill:none;}</style></defs><g transform="translate(-389 -2982)"><path class="a" d="M0,0H80V80H0Z" transform="translate(389 2982)"/><g transform="translate(162 -1585.999)"><g transform="translate(235 4576)"><g transform="translate(49.707 23.083)"><path class="b" d="M349.5,171.189a8.938,8.938,0,0,0,8.889,8.889V162.3A8.938,8.938,0,0,0,349.5,171.189Z" transform="translate(-349.5 -162.3)"/></g><g transform="translate(5.291 24.861)"><path class="b" d="M53.2,174.8a15.993,15.993,0,1,0,16,16A15.969,15.969,0,0,0,53.2,174.8Z" transform="translate(-37.2 -174.8)"/></g><g transform="translate(8.903 7.111)"><path class="b" d="M66.81,57.111h38.372V54.267A4.255,4.255,0,0,0,100.943,50H66.81a4.291,4.291,0,0,0-4.21,3.556A4.3,4.3,0,0,0,66.81,57.111Z" transform="translate(-62.6 -50)"/></g><path class="c" d="M62.028,75a.6.6,0,0,0-.028.156c0,.014-.014.028-.014.043,0,.043-.014.085-.014.128a.18.18,0,0,1-.014.085c0,.028-.028.071-.028.1,0,.071-.028.128-.028.2V95.139a16.032,16.032,0,0,1,25.8,18.973H107.44a4.317,4.317,0,0,0,4.238-4.338v-4.58a8.889,8.889,0,1,1,0-17.778V82.822a4.255,4.255,0,0,0-4.238-4.267H66.2A4.171,4.171,0,0,1,62.056,75h-.028Z" transform="translate(-53.096 -64.333)"/><rect class="d" width="64" height="64"/></g><g transform="translate(246.816 4605.492)"><g transform="translate(0 0)"><path class="c" d="M1.382,107.1a1.328,1.328,0,0,0-.978.4,1.309,1.309,0,0,0-.4.964v5.764a1.328,1.328,0,0,0,.4.978,1.328,1.328,0,0,0,.978.4,1.3,1.3,0,0,0,.971-.4,1.349,1.349,0,0,0,.4-.978v-5.764a1.309,1.309,0,0,0-.4-.964A1.32,1.32,0,0,0,1.382,107.1Z" transform="translate(0 -99.88)"/><path class="c" d="M57.143,2.049,58.093.3a.18.18,0,0,0-.067-.27.188.188,0,0,0-.27.081l-.964,1.766a6.672,6.672,0,0,0-5.38,0L50.448.108a.187.187,0,0,0-.27-.081.179.179,0,0,0-.067.27l.951,1.753a5.918,5.918,0,0,0-2.306,2.056A5.183,5.183,0,0,0,47.9,6.991H60.291a5.167,5.167,0,0,0-.856-2.885A5.926,5.926,0,0,0,57.143,2.049ZM51.642,4.6a.513.513,0,0,1-.735,0,.5.5,0,0,1-.148-.371.519.519,0,0,1,.148-.371.489.489,0,0,1,.364-.155.515.515,0,0,1,.371.155.521.521,0,0,1,0,.742Zm5.65,0a.489.489,0,0,1-.364.155.526.526,0,0,1-.371-.155.5.5,0,0,1-.155-.371.526.526,0,0,1,.155-.371.513.513,0,0,1,.735,0,.5.5,0,0,1,.148.371A.519.519,0,0,1,57.291,4.6Z" transform="translate(-44.671 0)"/><path class="c" d="M48.7,119.819a1.4,1.4,0,0,0,.431,1.045,1.43,1.43,0,0,0,1.045.431h.991l.013,3.04a1.328,1.328,0,0,0,.4.978,1.309,1.309,0,0,0,.964.4,1.381,1.381,0,0,0,1.382-1.382V121.3h1.847v3.04a1.382,1.382,0,1,0,2.764,0V121.3h1a1.385,1.385,0,0,0,1.031-.431,1.43,1.43,0,0,0,.431-1.045V110.9H48.7Z" transform="translate(-45.417 -103.423)"/><path class="c" d="M240.369,107.1a1.329,1.329,0,0,0-.964.4,1.3,1.3,0,0,0-.4.971v5.764a1.328,1.328,0,0,0,.4.978,1.309,1.309,0,0,0,.964.4,1.381,1.381,0,0,0,1.382-1.382v-5.764a1.3,1.3,0,0,0-.4-.971A1.338,1.338,0,0,0,240.369,107.1Z" transform="translate(-222.887 -99.88)"/></g></g></g></g></svg>