<svg xmlns="http://www.w3.org/2000/svg" viewBox="0 0 80 80"><defs><style>.a{fill:none;}.b{fill:#70cbff;}.c{fill:#2970ff;}</style></defs><g transform="translate(-227 -1300)"><rect class="a" width="80" height="80" transform="translate(227 1300)"/><g transform="translate(238 1307)"><g transform="translate(24.816)"><circle class="b" cx="4.125" cy="4.125" r="4.125"/><g transform="translate(0 3.086)"><path class="c" d="M154.525,21.8a4.139,4.139,0,0,1-3.993-3.1,4.241,4.241,0,0,0-.132,1.023,4.125,4.125,0,0,0,8.25,0,4.036,4.036,0,0,0-.132-1.023A4.139,4.139,0,0,1,154.525,21.8Z" transform="translate(-150.4 -18.7)"/></g></g><g transform="translate(24.816 57.75)"><circle class="b" cx="4.125" cy="4.125" r="4.125"/><g transform="translate(0 3.086)"><path class="c" d="M154.525,371.8a4.139,4.139,0,0,1-3.993-3.1,4.24,4.24,0,0,0-.132,1.023,4.125,4.125,0,0,0,8.25,0,4.036,4.036,0,0,0-.132-1.023A4.139,4.139,0,0,1,154.525,371.8Z" transform="translate(-150.4 -368.7)"/></g></g><g transform="translate(8.811 9.893)"><g transform="translate(0.016 0.007)"><path class="c" d="M73.547,106.2a.392.392,0,0,1-.2-.049L53.7,94.8a.4.4,0,0,1-.2-.363V71.764a.453.453,0,0,1,.2-.363L73.349,60.049a.454.454,0,0,1,.413,0L93.413,71.4a.4.4,0,0,1,.2.363V94.452a.453.453,0,0,1-.2.363L73.762,106.167A.966.966,0,0,1,73.547,106.2Zm-19.239-12,19.239,11.1L92.786,94.2V72l-19.239-11.1L54.308,72Zm38.891.247Z" transform="translate(-53.5 -60)"/></g><g transform="translate(0 0.01)"><path class="c" d="M73.464,106.211a.209.209,0,0,1-.1-.016.421.421,0,0,1-.313-.4V83.821L54.027,94.81a.411.411,0,0,1-.561-.561L66.2,72.188H53.813a.412.412,0,1,1,0-.825H66.666L73.1,60.226a.41.41,0,0,1,.462-.2.421.421,0,0,1,.313.4v10.94H93.1a.333.333,0,0,1,.181.049h0c.016,0,.016.016.033.016h0a.385.385,0,0,1,.165.2h0c0,.017.016.033.016.05a.061.061,0,0,0,.017.049h0a.34.34,0,0,1-.049.248v.016L73.827,106.013A.453.453,0,0,1,73.464,106.211Zm.413-22.869v20.905l18.1-31.367ZM67.144,72.188,54.935,93.341l18.1-10.461V72.188Zm6.732,0V82.4L91.564,72.188Zm-6.254-.825h5.428V61.958Z" transform="translate(-53.4 -60.014)"/></g><g transform="translate(0.009 11.352)"><path class="c" d="M93.162,152.275a.392.392,0,0,1-.2-.05l-39.3-22.7a.41.41,0,0,1,.413-.71l39.3,22.688a.407.407,0,0,1,.149.561A.452.452,0,0,1,93.162,152.275Z" transform="translate(-53.456 -128.756)"/></g><g transform="translate(0 34.047)"><path class="c" d="M93.116,267.125h-39.3a.412.412,0,1,1,0-.825h39.3a.412.412,0,1,1,0,.825Z" transform="translate(-53.4 -266.3)"/></g><g transform="translate(0.009 11.352)"><path class="c" d="M73.51,163.611a.414.414,0,0,1-.363-.2l-19.635-34.04a.41.41,0,1,1,.709-.412L73.873,163a.407.407,0,0,1-.148.561A.508.508,0,0,1,73.51,163.611Z" transform="translate(-53.456 -128.756)"/></g><g transform="translate(19.644)"><path class="c" d="M192.527,94.827a.414.414,0,0,1-.363-.2L172.512,60.573a.41.41,0,1,1,.709-.412L192.873,94.2a.407.407,0,0,1-.149.561A.469.469,0,0,1,192.527,94.827Z" transform="translate(-172.456 -59.956)"/></g></g><g transform="translate(0.132 12.375)"><path class="b" d="M8.786,81.913l-3.993,2.31L.8,81.913v-4.6L4.793,75l3.993,2.31Z" transform="translate(-0.8 -75)"/><g transform="translate(0 2.31)"><path class="c" d="M4.793,95.913v-4.6L.8,89v4.6Z" transform="translate(-0.8 -89)"/></g></g><g transform="translate(49.632 44.798)"><path class="b" d="M308.786,278.413l-3.993,2.31-3.993-2.31v-4.6l3.993-2.31,3.993,2.31Z" transform="translate(-300.8 -271.5)"/><g transform="translate(0 2.31)"><path class="c" d="M304.793,292.413v-4.6L300.8,285.5v4.6Z" transform="translate(-300.8 -285.5)"/></g></g><g transform="translate(49.088 11.863)"><path class="b" d="M302.037,71.9,297.5,78.7l4.538,4.537,4.538-4.537Z" transform="translate(-297.5 -71.9)"/></g><g transform="translate(49.088 11.863)"><path class="c" d="M302.037,83.235V71.9L297.5,78.7Z" transform="translate(-297.5 -71.9)"/></g><g transform="translate(0 43.313)"><path class="b" d="M4.125,262.5,0,268.688l4.125,4.125,4.125-4.125Z" transform="translate(0 -262.5)"/></g><g transform="translate(0 43.313)"><path class="c" d="M4.125,272.813V262.5L0,268.688Z" transform="translate(0 -262.5)"/></g></g></g></svg>