<svg xmlns="http://www.w3.org/2000/svg" viewBox="0 0 80 80"><defs><style>.a{fill:#fff;}.b{fill:#2970ff;}.c{fill:#70cbff;}</style></defs><g transform="translate(-227 -1709)"><rect class="a" width="80" height="80" transform="translate(227 1709)"/><g transform="translate(237 1719)"><g transform="translate(0 0.541)"><rect class="b" width="27.027" height="27.027"/></g><g transform="translate(0 0.541)"><rect class="c" width="27.027" height="21.622"/></g><g transform="translate(0 32.973)"><rect class="b" width="27.027" height="27.027"/></g><g transform="translate(32.432 32.973)"><rect class="b" width="27.027" height="27.027"/></g><g transform="translate(31.892)"><g transform="translate(0 0.008)"><path class="b" d="M148.041,1.111a.674.674,0,0,1-.389-.151.3.3,0,0,1-.065-.086.164.164,0,0,1-.043-.086.162.162,0,0,1-.022-.108c0-.043-.022-.065-.022-.108a.2.2,0,0,1,.022-.108c0-.043.022-.065.022-.108.022-.043.022-.065.043-.086s.043-.065.065-.086a.3.3,0,0,1,.086-.065.164.164,0,0,1,.086-.043.162.162,0,0,1,.108-.022.539.539,0,0,1,.5.151.521.521,0,0,1,.151.389.622.622,0,0,1-.151.389A.759.759,0,0,1,148.041,1.111Z" transform="translate(-147.5 -0.038)"/></g><g transform="translate(2.465)"><path class="b" d="M181,.541A.535.535,0,0,1,181.538,0h0a.535.535,0,0,1,.541.541h0a.535.535,0,0,1-.541.541h0A.549.549,0,0,1,181,.541Zm-2.443,0A.535.535,0,0,1,179.095,0h0a.535.535,0,0,1,.541.541h0a.535.535,0,0,1-.541.541h0A.535.535,0,0,1,178.554.541Zm-2.465,0A.535.535,0,0,1,176.63,0h0a.535.535,0,0,1,.541.541h0a.535.535,0,0,1-.541.541h0A.535.535,0,0,1,176.089.541Zm-2.465,0A.535.535,0,0,1,174.165,0h0a.535.535,0,0,1,.541.541h0a.535.535,0,0,1-.541.541h0A.549.549,0,0,1,173.624.541Zm-2.443,0A.535.535,0,0,1,171.722,0h0a.535.535,0,0,1,.541.541h0a.535.535,0,0,1-.541.541h0A.535.535,0,0,1,171.181.541Zm-2.465,0A.535.535,0,0,1,169.257,0h0a.535.535,0,0,1,.541.541h0a.535.535,0,0,1-.541.541h0A.535.535,0,0,1,168.716.541Zm-2.443,0A.535.535,0,0,1,166.813,0h0a.535.535,0,0,1,.541.541h0a.535.535,0,0,1-.541.541h0A.535.535,0,0,1,166.273.541Zm-2.465,0A.535.535,0,0,1,164.349,0h0a.535.535,0,0,1,.541.541h0a.535.535,0,0,1-.541.541h0A.535.535,0,0,1,163.808.541Zm-2.465,0A.535.535,0,0,1,161.884,0h0a.535.535,0,0,1,.541.541h0a.535.535,0,0,1-.541.541h0A.535.535,0,0,1,161.343.541Zm-2.443,0A.535.535,0,0,1,159.441,0h0a.535.535,0,0,1,.541.541h0a.535.535,0,0,1-.541.541h0A.535.535,0,0,1,158.9.541Z" transform="translate(-158.9)"/></g><g transform="translate(27.027 0.008)"><path class="b" d="M273.041,1.111a.673.673,0,0,1-.389-.151.3.3,0,0,1-.065-.086.164.164,0,0,1-.043-.086.162.162,0,0,1-.022-.108c0-.043-.022-.065-.022-.108a.621.621,0,0,1,.151-.389.3.3,0,0,1,.086-.065.164.164,0,0,1,.086-.043.162.162,0,0,1,.108-.022.539.539,0,0,1,.5.151.3.3,0,0,1,.065.086.164.164,0,0,1,.043.086.162.162,0,0,1,.022.108V.592a.622.622,0,0,1-.151.389A.624.624,0,0,1,273.041,1.111Z" transform="translate(-272.5 -0.038)"/></g><g transform="translate(27.027 2.465)"><path class="b" d="M272.5,34.038a.535.535,0,0,1,.541-.541h0a.535.535,0,0,1,.541.541h0a.535.535,0,0,1-.541.541h0A.535.535,0,0,1,272.5,34.038Zm0-2.443a.535.535,0,0,1,.541-.541h0a.535.535,0,0,1,.541.541h0a.535.535,0,0,1-.541.541h0A.535.535,0,0,1,272.5,31.595Zm0-2.465a.535.535,0,0,1,.541-.541h0a.535.535,0,0,1,.541.541h0a.535.535,0,0,1-.541.541h0A.535.535,0,0,1,272.5,29.13Zm0-2.443a.535.535,0,0,1,.541-.541h0a.535.535,0,0,1,.541.541h0a.535.535,0,0,1-.541.541h0A.549.549,0,0,1,272.5,26.686Zm0-2.465a.535.535,0,0,1,.541-.541h0a.535.535,0,0,1,.541.541h0a.535.535,0,0,1-.541.541h0A.535.535,0,0,1,272.5,24.222Zm0-2.465a.535.535,0,0,1,.541-.541h0a.535.535,0,0,1,.541.541h0a.535.535,0,0,1-.541.541h0A.535.535,0,0,1,272.5,21.757Zm0-2.443a.535.535,0,0,1,.541-.541h0a.535.535,0,0,1,.541.541h0a.535.535,0,0,1-.541.541h0A.549.549,0,0,1,272.5,19.314Zm0-2.465a.535.535,0,0,1,.541-.541h0a.535.535,0,0,1,.541.541h0a.535.535,0,0,1-.541.541h0A.535.535,0,0,1,272.5,16.849Zm0-2.465a.535.535,0,0,1,.541-.541h0a.535.535,0,0,1,.541.541h0a.535.535,0,0,1-.541.541h0A.535.535,0,0,1,272.5,14.384Zm0-2.443a.535.535,0,0,1,.541-.541h0a.535.535,0,0,1,.541.541h0a.535.535,0,0,1-.541.541h0A.549.549,0,0,1,272.5,11.941Z" transform="translate(-272.5 -11.4)"/></g><g transform="translate(27.027 27.057)"><path class="b" d="M273.041,126.189h-.108c-.043,0-.065-.022-.108-.022-.043-.022-.065-.022-.086-.043s-.065-.043-.086-.065a.3.3,0,0,1-.065-.086.164.164,0,0,1-.043-.086.162.162,0,0,1-.022-.108c0-.043-.022-.065-.022-.108a.2.2,0,0,1,.022-.108c0-.043.022-.065.022-.108.022-.043.022-.065.043-.086s.043-.065.065-.086a.3.3,0,0,1,.086-.065.164.164,0,0,1,.086-.043.162.162,0,0,1,.108-.022.485.485,0,0,1,.476.151.3.3,0,0,1,.065.086.164.164,0,0,1,.043.086.162.162,0,0,1,.022.108v.216c0,.043-.022.065-.022.108-.022.043-.022.065-.043.086s-.043.065-.065.086a.3.3,0,0,1-.086.065.164.164,0,0,1-.087.043.162.162,0,0,1-.108.022C273.105,126.189,273.084,126.189,273.041,126.189Z" transform="translate(-272.5 -125.138)"/></g><g transform="translate(2.465 27.027)"><path class="b" d="M181,125.541a.535.535,0,0,1,.541-.541h0a.535.535,0,0,1,.541.541h0a.535.535,0,0,1-.541.541h0A.549.549,0,0,1,181,125.541Zm-2.443,0a.535.535,0,0,1,.541-.541h0a.535.535,0,0,1,.541.541h0a.535.535,0,0,1-.541.541h0A.535.535,0,0,1,178.554,125.541Zm-2.465,0a.535.535,0,0,1,.541-.541h0a.535.535,0,0,1,.541.541h0a.535.535,0,0,1-.541.541h0A.535.535,0,0,1,176.089,125.541Zm-2.465,0a.535.535,0,0,1,.541-.541h0a.535.535,0,0,1,.541.541h0a.535.535,0,0,1-.541.541h0A.549.549,0,0,1,173.624,125.541Zm-2.443,0a.535.535,0,0,1,.541-.541h0a.535.535,0,0,1,.541.541h0a.535.535,0,0,1-.541.541h0A.535.535,0,0,1,171.181,125.541Zm-2.465,0a.535.535,0,0,1,.541-.541h0a.535.535,0,0,1,.541.541h0a.535.535,0,0,1-.541.541h0A.535.535,0,0,1,168.716,125.541Zm-2.443,0a.535.535,0,0,1,.541-.541h0a.535.535,0,0,1,.541.541h0a.535.535,0,0,1-.541.541h0A.535.535,0,0,1,166.273,125.541Zm-2.465,0a.535.535,0,0,1,.541-.541h0a.535.535,0,0,1,.541.541h0a.535.535,0,0,1-.541.541h0A.535.535,0,0,1,163.808,125.541Zm-2.465,0a.535.535,0,0,1,.541-.541h0a.535.535,0,0,1,.541.541h0a.535.535,0,0,1-.541.541h0A.535.535,0,0,1,161.343,125.541Zm-2.443,0a.535.535,0,0,1,.541-.541h0a.535.535,0,0,1,.541.541h0a.535.535,0,0,1-.541.541h0A.535.535,0,0,1,158.9,125.541Z" transform="translate(-158.9 -125)"/></g><g transform="translate(0 27.057)"><path class="b" d="M148.041,126.189h-.108c-.043,0-.065-.022-.108-.022-.043-.022-.065-.022-.087-.043s-.065-.043-.086-.065a.3.3,0,0,1-.065-.086.164.164,0,0,1-.043-.086.162.162,0,0,1-.022-.108c0-.043-.022-.065-.022-.108a.2.2,0,0,1,.022-.108c0-.043.022-.065.022-.108.022-.043.022-.065.043-.086s.043-.065.065-.086a.3.3,0,0,1,.086-.065.164.164,0,0,1,.087-.043.162.162,0,0,1,.108-.022.539.539,0,0,1,.5.151.3.3,0,0,1,.065.086.164.164,0,0,1,.043.086.162.162,0,0,1,.022.108v.216c0,.043-.022.065-.022.108-.022.043-.022.065-.043.086s-.043.065-.065.086a.3.3,0,0,1-.086.065.164.164,0,0,1-.087.043.162.162,0,0,1-.108.022A.2.2,0,0,0,148.041,126.189Z" transform="translate(-147.5 -125.138)"/></g><g transform="translate(0 2.465)"><path class="b" d="M147.5,34.038a.535.535,0,0,1,.541-.541h0a.535.535,0,0,1,.541.541h0a.535.535,0,0,1-.541.541h0A.535.535,0,0,1,147.5,34.038Zm0-2.443a.535.535,0,0,1,.541-.541h0a.535.535,0,0,1,.541.541h0a.535.535,0,0,1-.541.541h0A.535.535,0,0,1,147.5,31.595Zm0-2.465a.535.535,0,0,1,.541-.541h0a.535.535,0,0,1,.541.541h0a.535.535,0,0,1-.541.541h0A.535.535,0,0,1,147.5,29.13Zm0-2.443a.535.535,0,0,1,.541-.541h0a.535.535,0,0,1,.541.541h0a.535.535,0,0,1-.541.541h0A.549.549,0,0,1,147.5,26.686Zm0-2.465a.535.535,0,0,1,.541-.541h0a.535.535,0,0,1,.541.541h0a.535.535,0,0,1-.541.541h0A.535.535,0,0,1,147.5,24.222Zm0-2.465a.535.535,0,0,1,.541-.541h0a.535.535,0,0,1,.541.541h0a.535.535,0,0,1-.541.541h0A.535.535,0,0,1,147.5,21.757Zm0-2.443a.535.535,0,0,1,.541-.541h0a.535.535,0,0,1,.541.541h0a.535.535,0,0,1-.541.541h0A.549.549,0,0,1,147.5,19.314Zm0-2.465a.535.535,0,0,1,.541-.541h0a.535.535,0,0,1,.541.541h0a.535.535,0,0,1-.541.541h0A.535.535,0,0,1,147.5,16.849Zm0-2.465a.535.535,0,0,1,.541-.541h0a.535.535,0,0,1,.541.541h0a.535.535,0,0,1-.541.541h0A.535.535,0,0,1,147.5,14.384Zm0-2.443a.535.535,0,0,1,.541-.541h0a.535.535,0,0,1,.541.541h0a.535.535,0,0,1-.541.541h0A.549.549,0,0,1,147.5,11.941Z" transform="translate(-147.5 -11.4)"/></g></g><g transform="translate(40 13.514)"><path class="b" d="M196.351,63.581H185.541a.541.541,0,0,1,0-1.081h10.811a.541.541,0,1,1,0,1.081Z" transform="translate(-185 -62.5)"/></g><g transform="translate(45.405 8.108)"><path class="b" d="M210.541,49.392a.535.535,0,0,1-.541-.541V38.041a.541.541,0,1,1,1.081,0V48.851A.535.535,0,0,1,210.541,49.392Z" transform="translate(-210 -37.5)"/></g><g transform="translate(0 32.973)"><rect class="c" width="27.027" height="21.622"/></g><g transform="translate(32.432 32.973)"><rect class="c" width="27.027" height="21.622"/></g></g></g></svg>