<svg xmlns="http://www.w3.org/2000/svg" xmlns:xlink="http://www.w3.org/1999/xlink" viewBox="0 0 64 64"><defs><style>.a{fill:#fff;}.b{fill:#70cbff;}.c{fill:#2f74fb;}.d{clip-path:url(#a);}</style><clipPath id="a"><path d="M49.625,227.137A24.956,24.956,0,0,1,24.7,202.212V185.6h8.306v16.612a16.619,16.619,0,0,0,33.238,0V185.6H74.55v16.612A24.952,24.952,0,0,1,49.625,227.137Z" transform="translate(-24.7 -185.6)"/></clipPath></defs><g transform="translate(-289 -3274)"><path class="a" d="M0,0H64V64H0Z" transform="translate(289 3274)"/><g transform="translate(-87.263 97.003)"><g transform="translate(381.263 3181.997)"><rect class="b" width="18.083" height="11.905" transform="translate(17.327 31.291)"/><path class="a" d="M123.707,240.7,104.1,267.472l21.172,7.655,17.237-8.42Zm-.013,25.375a8.3,8.3,0,0,1-7.192-4.156,8.3,8.3,0,0,1,14.383,0A8.288,8.288,0,0,1,123.694,266.075Z" transform="translate(-97.114 -224.538)"/><g transform="translate(0)"><path class="c" d="M.065,53.772a24.511,24.511,0,0,1,2.1-3.908L34.216,0h6.231C37.829,4,22.029,25.9,21.908,26.04a3.345,3.345,0,0,1-.913.705c-.363.195-.752.369-1.1.571a3.14,3.14,0,0,0-.88.732S1.005,52.644.132,53.825a.042.042,0,0,1-.047.013.042.042,0,0,1-.02-.054Z" transform="translate(-0.062)"/></g><g transform="translate(1.654 12.463)"><g transform="translate(0)"><path class="b" d="M49.625,227.137A24.956,24.956,0,0,1,24.7,202.212V185.6h8.306v16.612a16.619,16.619,0,0,0,33.238,0V185.6H74.55v16.612A24.952,24.952,0,0,1,49.625,227.137Z" transform="translate(-24.7 -185.6)"/></g></g><g transform="translate(1.654 12.463)"><g class="d" transform="translate(0)"><path class="c" d="M48.506,239.164c-.168,0-.329,0-.5-.007l.034-1.659q.4.01.806,0l.02,1.659C48.747,239.164,48.627,239.164,48.506,239.164ZM51.44,239l-.195-1.652c.269-.034.537-.067.792-.107l.248,1.645C52.011,238.923,51.722,238.963,51.44,239Zm-6-.013c-.289-.034-.571-.074-.853-.121l.262-1.638c.262.04.53.081.792.114Zm9.367-.618-.416-1.612c.255-.067.517-.141.772-.215l.47,1.591C55.368,238.218,55.086,238.291,54.811,238.365Zm-12.738-.034c-.275-.074-.551-.154-.826-.235l.483-1.591c.255.081.517.154.772.222Zm15.995-1.061-.638-1.538c.248-.1.49-.208.732-.316l.692,1.511Q58.47,237.11,58.068,237.271Zm-19.251-.047c-.262-.114-.53-.228-.786-.349l.7-1.511c.242.114.49.222.739.322Zm22.327-1.477-.839-1.43c.228-.134.457-.275.685-.416l.886,1.4C61.633,235.451,61.385,235.6,61.143,235.747Zm-25.4-.074c-.242-.148-.49-.3-.732-.45l.9-1.4q.342.222.685.423Zm28.229-1.86L62.949,232.5c.208-.161.416-.336.618-.5l1.074,1.269C64.42,233.45,64.2,233.638,63.977,233.813Zm-31.049-.094c-.222-.181-.45-.363-.665-.544l1.081-1.262c.2.175.41.342.618.51ZM66.521,231.5l-1.2-1.155q.282-.292.544-.584l1.236,1.108C66.918,231.087,66.723,231.3,66.521,231.5ZM30.4,231.4c-.195-.208-.389-.416-.584-.631l1.242-1.1c.175.2.356.4.544.591Zm38.335-2.525-1.343-.98c.154-.215.316-.436.463-.658l1.377.933C69.066,228.407,68.9,228.642,68.731,228.877Zm-40.53-.121c-.168-.228-.329-.47-.49-.705l1.383-.927c.148.222.3.443.457.658Zm42.357-2.787-1.464-.786c.128-.235.248-.477.369-.712l1.491.732C70.826,225.46,70.691,225.715,70.557,225.97Zm-44.163-.128c-.134-.248-.262-.51-.389-.765l1.491-.725c.114.235.235.477.363.712Zm45.573-3.008-1.558-.577c.094-.248.181-.5.269-.759l1.578.524C72.162,222.29,72.068,222.566,71.967,222.834ZM25,222.707c-.094-.269-.188-.537-.282-.812l1.578-.517c.081.255.168.51.262.759Zm47.937-3.169-1.625-.356.161-.786,1.632.3C73.055,218.973,72.994,219.255,72.934,219.537ZM24.051,219.4c-.06-.282-.114-.564-.168-.846l1.638-.289c.047.262.1.524.154.786Zm49.387-3.263-1.659-.128c.02-.269.04-.537.047-.8l1.659.074C73.478,215.569,73.458,215.851,73.438,216.14Zm-49.87-.134c-.02-.282-.034-.571-.047-.859l1.659-.067c.013.269.027.537.047.8Zm49.944-3.25H71.853v-.833h1.659Zm-48.346-.134H23.5v-.833h1.659v.833Zm48.346-3.19H71.853V208.6h1.659ZM25.165,209.3H23.5v-.826h1.659v.826Zm48.346-3.189H71.853v-.833h1.659Zm-48.346-.134H23.5v-.833h1.659v.833Zm48.346-3.19H71.853v-.833h1.659Zm-48.346-.128H23.5v-.833h1.659v.833Zm48.346-3.2H71.853v-.833h1.659Zm-48.346-.128H23.5V198.5h1.659v.833Z" transform="translate(-23.581 -197.634)"/></g><g class="d" transform="translate(0)"><path class="c" d="M30.035,240.494c-.175,0-.349,0-.524-.007l.081-4.318c.255.007.5.007.759,0l.06,4.318C30.29,240.494,30.163,240.494,30.035,240.494Zm13.315-3.606-2.189-3.727c.215-.128.436-.262.645-.4l2.31,3.646C43.868,236.579,43.606,236.74,43.351,236.888Zm-26.745-.067c-.255-.154-.517-.316-.772-.477l2.33-3.633c.215.134.43.269.645.4Zm36.649-10.227-3.807-2.041c.121-.222.235-.45.349-.671l3.874,1.907C53.537,226.057,53.4,226.333,53.255,226.594Zm-46.506-.128c-.141-.262-.275-.537-.41-.806l3.888-1.887c.107.228.222.45.342.671Zm49.622-13.712H52.053v-.833h4.318Zm-48.353-.128H3.7V211.8H8.018ZM56.371,199.46H52.053v-.833h4.318Zm-48.353-.128H3.7V198.5H8.018Z" transform="translate(-5.11 -197.634)"/></g></g><g transform="translate(12.774)"><path class="c" d="M230.689,53.772a24.512,24.512,0,0,0-2.1-3.908L196.531,0H190.3c2.619,4,18.419,25.9,18.539,26.04a3.345,3.345,0,0,0,.913.705c.363.195.752.369,1.1.571a3.14,3.14,0,0,1,.88.732s18.009,24.6,18.882,25.778a.042.042,0,0,0,.047.013.042.042,0,0,0,.02-.054Z" transform="translate(-190.3)"/></g><g transform="translate(20.348 10.388)"><ellipse class="b" cx="6.231" cy="6.231" rx="6.231" ry="6.231"/></g><g transform="translate(17.857 7.897)"><path class="c" d="M274.722,135.045a8.722,8.722,0,1,1,8.722-8.722A8.735,8.735,0,0,1,274.722,135.045Zm0-16.619a7.893,7.893,0,1,0,7.89,7.9A7.9,7.9,0,0,0,274.722,118.426Z" transform="translate(-266 -117.6)"/></g><g transform="translate(24.505 14.544)"><ellipse class="c" cx="2.075" cy="2.075" rx="2.075" ry="2.075"/></g><g transform="translate(26.163 26.033)"><path class="c" d="M389.7,393.6a.418.418,0,0,1,.416-.416h0a.418.418,0,0,1,.416.416h0a.418.418,0,0,1-.416.416h0A.418.418,0,0,1,389.7,393.6Zm0-1.826a.418.418,0,0,1,.416-.416h0a.418.418,0,0,1,.416.416h0a.418.418,0,0,1-.416.416h0A.418.418,0,0,1,389.7,391.776Zm0-1.826a.418.418,0,0,1,.416-.416h0a.418.418,0,0,1,.416.416h0a.418.418,0,0,1-.416.416h0A.423.423,0,0,1,389.7,389.949Zm0-1.833a.418.418,0,0,1,.416-.416h0a.418.418,0,0,1,.416.416h0a.418.418,0,0,1-.416.416h0A.414.414,0,0,1,389.7,388.116Z" transform="translate(-389.7 -387.7)"/></g><g transform="translate(23.645 34.453)"><ellipse class="c" cx="2.934" cy="2.934" rx="2.934" ry="2.934"/></g><path class="a" d="M395.9,513v2.934h2.934A2.929,2.929,0,0,0,395.9,513Z" transform="translate(-369.32 -478.553)"/></g></g></g></svg>