<svg xmlns="http://www.w3.org/2000/svg" viewBox="0 0 64 64"><defs><style>.a{fill:none;}.b{fill:#8996a5;}</style></defs><g transform="translate(-453 -3131)"><g transform="translate(388 3136)"><g transform="translate(65 -5)"><rect class="a" width="64" height="64"/></g></g><g transform="translate(-104 9)"><g transform="translate(586.553 3136)"><path class="b" d="M16.9,22.378H28.454a7.784,7.784,0,1,0,0-15.568H24.805L16.9,0H28.454a14.577,14.577,0,0,1,5.473,28.095L43.049,36H32.589Z" transform="translate(-16.9)"/></g><g transform="translate(566 3136)"><path class="b" d="M26.149,13.622H14.595a7.784,7.784,0,1,0,0,15.568h3.649L26.149,36H14.595A14.577,14.577,0,0,1,9.122,7.905L0,0H10.46Z"/></g></g></g></svg>