<svg xmlns="http://www.w3.org/2000/svg" viewBox="0 0 80 80"><defs><style>.a{fill:none;}.b{fill:#e6eaed;}.c{fill:#8997a5;}</style></defs><g transform="translate(-392 -1026)"><rect class="a" width="80" height="80" transform="translate(392 1026)"/><path class="b" d="M0,0H33.5V22.273H0Z" transform="translate(415.184 1055.705)"/><rect class="c" width="33.499" height="22.273" transform="translate(415.184 1061.273)"/><g transform="translate(419.505 1065.238)"><ellipse class="b" cx="12.428" cy="7.172" rx="12.428" ry="7.172"/></g><circle class="c" cx="5.568" cy="5.568" r="5.568" transform="translate(426.365 1066.841)"/><path class="b" d="M91.9,64.9l-4.5,4.5h6.415Z" transform="translate(344.533 1003.01)"/><ellipse class="c" cx="2.806" cy="1.381" rx="2.806" ry="1.381" transform="translate(418.035 1057.13)"/><ellipse class="c" cx="2.806" cy="1.381" rx="2.806" ry="1.381" transform="translate(440.308 1057.13)"/><path class="c" d="M56.3,13.943v5.568h5.568V13.943a8.365,8.365,0,0,1,8.375-8.375h0a8.365,8.365,0,0,1,8.375,8.375v5.568h5.568V13.943A14,14,0,0,0,70.2,0h0A13.9,13.9,0,0,0,56.3,13.943Z" transform="translate(361.779 1039)"/><g transform="translate(393 1059.714)"><rect class="c" width="13.943" height="2.806" transform="translate(64.057)"/><rect class="c" width="13.943" height="2.806"/></g><g transform="translate(393 1046.158)"><g transform="translate(5.568 23.235)"><rect class="c" width="10.513" height="2.806" transform="translate(0 4.023) rotate(-22.5)"/></g><g transform="translate(0 0)"><g transform="translate(0 13.556)"><rect class="c" width="13.943" height="2.806" transform="translate(64.057 0)"/><rect class="c" width="13.943" height="2.806" transform="translate(0 0)"/></g><g transform="translate(5.546)"><rect class="c" width="10.557" height="2.806" transform="translate(9.754 6.633) rotate(-157.5)"/></g><g transform="translate(61.593 0.014)"><g transform="translate(0.014)"><path class="c" d="M148.011,16.1,138.3,20.154l1.069,2.584,9.711-4.054Z" transform="translate(-138.3 -16.1)"/></g><g transform="translate(0 23.208)"><rect class="c" width="10.513" height="2.806" transform="translate(9.713 6.616) rotate(-157.5)"/></g></g></g></g></g></svg>