<svg xmlns="http://www.w3.org/2000/svg" viewBox="0 0 80 80"><defs><style>.a{fill:none;}.b{fill:#e6eaed;}.c{fill:#8997a5;}.d{fill:#2f74fb;}</style></defs><g transform="translate(-422 -1021)"><rect class="a" width="80" height="80" transform="translate(422 1021)"/><g transform="translate(148.28 1.011)"><g transform="translate(274.72 1037.989)"><g transform="translate(0 0)"><rect class="b" width="33.54" height="25.915" transform="translate(22.191 16.711)"/><path class="c" d="M113.8,114.3v22.288h33.54V114.3Zm16.751,18.31a14.333,14.333,0,0,1-12.422-7.176,14.339,14.339,0,0,1,24.843,0A14.309,14.309,0,0,1,130.551,132.61Z" transform="translate(-91.609 -92.012)"/><path class="c" d="M180.616,144.438a5.571,5.571,0,1,0,1.638,3.939h-5.577Z" transform="translate(-137.736 -114.954)"/><ellipse class="c" cx="2.788" cy="1.384" rx="2.788" ry="1.384" transform="translate(25.077 18.115)"/><ellipse class="c" cx="2.788" cy="1.384" rx="2.788" ry="1.384" transform="translate(47.346 18.115)"/><path class="c" d="M128.6,13.923V19.5h5.577V13.923a8.364,8.364,0,0,1,8.365-8.365h0a8.364,8.364,0,0,1,8.366,8.365V19.5h5.577V13.923A13.99,13.99,0,0,0,142.523,0h0A13.931,13.931,0,0,0,128.6,13.923Z" transform="translate(-103.523 0)"/><g transform="translate(0 20.709)"><rect class="d" width="13.923" height="2.788" transform="translate(64.077)"/><rect class="d" width="13.923" height="2.788"/></g><g transform="translate(0 7.176)"><g transform="translate(5.567 23.25)"><rect class="c" width="10.53" height="2.789" transform="translate(0 4.03) rotate(-22.5)"/></g><g transform="translate(0 13.533)"><rect class="c" width="13.923" height="2.788" transform="translate(64.077)"/><rect class="c" width="13.923" height="2.788"/></g><g transform="translate(5.529 0.002)"><rect class="c" width="10.569" height="2.788" transform="translate(9.765 6.621) rotate(-157.5)"/></g><g transform="translate(61.639)"><path class="c" d="M325.83,36.8l-9.73,4.056,1.053,2.574,9.73-4.056Z" transform="translate(-316.1 -36.8)"/><g transform="translate(0.002 23.226)"><rect class="c" width="10.53" height="2.788" transform="translate(9.729 6.606) rotate(-157.5)"/></g></g></g></g></g></g></g></svg>