<svg xmlns="http://www.w3.org/2000/svg" viewBox="0 0 80 80"><defs><style>.a{fill:#fff;}.b{fill:#8997a5;}</style></defs><g transform="translate(-392 -2195)"><path class="a" d="M0,0H80V80H0Z" transform="translate(392 2195)"/><path class="b" d="M35.526,20.43V14.852a14.869,14.869,0,1,0-29.739.035v5.578C2.894,20.953,0,21.65,0,22.592V51.737a1.372,1.372,0,0,0,.906,1.185c3.277,1.325,16.177,5.892,19.14,6.938a1.5,1.5,0,0,0,.593.139,1.4,1.4,0,0,0,.593-.139c2.963-1.046,15.9-5.613,19.175-6.938a1.387,1.387,0,0,0,.872-1.15V22.592C41.278,21.65,38.42,20.953,35.526,20.43ZM12.9,14.887c0-4.846,2.929-7.775,7.775-7.775s7.775,2.929,7.775,7.775v4.846a105.218,105.218,0,0,0-15.549,0ZM33.085,46.508c0,.279-.035.314-.279.418s-11.54,4.184-11.54,4.184a3.767,3.767,0,0,1-.593.139,3.156,3.156,0,0,1-.593-.174S8.786,47,8.542,46.891s-.279-.139-.279-.418V28.309c0-.976,5.683-1.5,12.446-1.464,6.764,0,12.446.523,12.446,1.464C33.085,28.344,33.085,46.229,33.085,46.508Z" transform="translate(411 2205)"/></g></svg>