<svg xmlns="http://www.w3.org/2000/svg" xmlns:xlink="http://www.w3.org/1999/xlink" width="1024" height="768" viewBox="0 0 1024 768"><defs><style>.a,.c{fill:none;stroke:#2970ff;}.b{clip-path:url(#a);}.c{stroke-linecap:round;}</style><clipPath id="a"><rect class="a" width="1024" height="768" transform="translate(256)"/></clipPath></defs><g transform="translate(-256)"><g class="b"><g transform="translate(256 -259.015)"><line class="c" x1="7.299" y2="68.152" transform="translate(1018.604 361.535)"/><line class="c" x1="44.776" y2="70.916" transform="translate(973.829 429.687)"/><line class="c" x1="110.962" y1="110.282" transform="translate(730.674 119.264)"/><line class="c" x1="115.752" y1="65.294" transform="translate(614.922 53.97)"/><line class="c" x2="93.454" y2="85.162" transform="translate(802.249 80.416)"/><line class="c" x2="61.265" y2="112.542" transform="translate(895.703 165.578)"/><line class="c" y1="107.407" x2="46.159" transform="translate(532.31 116.48)"/><line class="c" y1="62.509" x2="36.453" transform="translate(578.469 53.97)"/><line class="c" x1="154.051" y2="0.179" transform="translate(587.986 484.874)"/><line class="c" x1="143.51" y2="5.865" transform="translate(444.477 485.053)"/><line class="c" x1="14.554" y1="102.979" transform="translate(1025.633 595.462)"/><line class="c" x1="51.804" y1="94.86" transform="translate(973.829 500.602)"/><line class="c" x1="11.079" y2="151.085" transform="translate(1017.368 569.694)"/><line class="c" x1="36.145" y2="129.453" transform="translate(981.224 720.779)"/><line class="c" y1="141.698" x2="74.56" transform="translate(864.748 632.97)"/><line class="c" y1="132.368" x2="34.521" transform="translate(939.307 500.602)"/><line class="c" x1="84.831" y1="10.843" transform="translate(757.082 1005.127)"/><line class="c" x1="102.61" y1="18.281" transform="translate(654.472 986.846)"/><line class="c" x1="59.26" y1="144.147" transform="translate(496.161 624.864)"/><line class="c" x1="51.684" y1="133.945" transform="translate(444.477 490.918)"/><line class="c" y1="21.244" x2="181.758" transform="translate(288.024 49.768)"/><line class="c" x2="145.14" y2="4.202" transform="translate(469.782 49.768)"/><line class="c" x1="90.899" y1="54.562" transform="translate(125.174 292.16)"/><line class="c" x1="52.577" y1="30.213" transform="translate(72.597 261.947)"/><line class="c" y1="41.048" x2="41.925" transform="translate(562.994 1062.732)"/><line class="c" y1="75.886" x2="49.552" transform="translate(604.92 986.846)"/><line class="c" y1="100.778" x2="105.855" transform="translate(230.356 582.852)"/><line class="c" y1="91.933" x2="108.265" transform="translate(336.211 490.918)"/><line class="c" x1="121.998" y1="75.714" transform="translate(205.69 930.853)"/><line class="c" x1="108.839" y1="96.793" transform="translate(96.851 834.06)"/><line class="c" y1="152.135" x2="14.251" transform="translate(0 398.75)"/><line class="c" y1="136.803" x2="58.346" transform="translate(14.251 261.947)"/><line class="c" x2="40.196" y2="29.988" transform="translate(956.969 278.12)"/><line class="c" x2="28.739" y2="53.427" transform="translate(997.164 308.108)"/><line class="c" x1="45.893" y1="135.861" transform="translate(927.935 364.741)"/><line class="c" x1="86.299" y1="135.195" transform="translate(841.637 229.546)"/><line class="c" x2="101.848" y2="0.315" transform="translate(614.922 53.97)"/><line class="c" x2="85.479" y2="26.13" transform="translate(716.77 54.285)"/><line class="c" y1="134.285" x2="40.312" transform="translate(444.477 356.633)"/><line class="c" y1="132.747" x2="47.521" transform="translate(484.789 223.887)"/><line class="c" x1="94.901" y1="10.226" transform="translate(878.928 490.376)"/><line class="c" x1="136.89" y1="5.502" transform="translate(742.038 484.874)"/><line class="c" y1="59.667" x2="36.395" transform="translate(981.224 790.565)"/><line class="c" y1="92.124" x2="22.568" transform="translate(1017.618 698.441)"/><line class="c" x2="47.515" y2="138.74" transform="translate(956.969 278.12)"/><line class="c" x2="23.964" y2="152.834" transform="translate(1004.484 416.86)"/><line class="c" y1="86.628" x2="109.312" transform="translate(654.472 900.218)"/><line class="c" y1="125.55" x2="100.964" transform="translate(763.784 774.668)"/><line class="c" x1="52.515" y2="93.842" transform="translate(928.708 850.232)"/><line class="c" x1="86.795" y2="71.895" transform="translate(841.913 944.074)"/><line class="c" x1="42.894" y1="89.412" transform="translate(611.578 897.434)"/><line class="c" x1="56.157" y1="128.424" transform="translate(555.421 769.01)"/><line class="c" y1="109.591" x2="100.088" transform="translate(72.597 152.356)"/><line class="c" y1="81.344" x2="115.339" transform="translate(172.685 71.012)"/><line class="c" x1="115.293" y1="73.843" transform="translate(329.183 417.075)"/><line class="c" x1="113.11" y1="70.353" transform="translate(216.073 346.722)"/><line class="c" x1="54.526" y1="41.432" transform="translate(560.396 12.538)"/><line class="c" x1="44.197" y1="12.538" transform="translate(516.198)"/><line class="c" y1="59.441" x2="48.776" transform="translate(96.851 774.618)"/><line class="c" y1="90.989" x2="84.728" transform="translate(145.628 683.63)"/><line class="c" x1="144.378" y2="13.764" transform="translate(510.094 986.846)"/><line class="c" x1="182.406" y2="5.956" transform="translate(327.688 1000.611)"/><line class="c" x1="69.716" y1="131.391" transform="translate(27.135 702.669)"/><line class="c" x1="27.135" y1="151.784" transform="translate(0 550.884)"/><line class="c" x1="120.839" y2="100.137" transform="translate(95.234 346.722)"/><line class="c" x1="95.234" y2="104.025" transform="translate(0 446.859)"/><line class="c" x1="10.85" y2="166.688" transform="translate(205.223 346.722)"/><line class="c" x2="25.133" y2="170.22" transform="translate(205.223 513.41)"/><line class="c" x2="102.409" y2="65.222" transform="translate(0 550.884)"/><line class="c" x2="127.947" y2="67.523" transform="translate(102.409 616.106)"/><line class="c" x2="113.342" y2="65.986" transform="translate(327.688 1006.567)"/><line class="c" x2="121.964" y2="31.228" transform="translate(441.03 1072.552)"/><line class="c" x1="119.879" y2="17.942" transform="translate(396.319)"/><line class="c" x1="108.295" y2="53.07" transform="translate(288.024 17.942)"/><line class="c" x2="51.989" y2="160.383" transform="translate(230.356 683.63)"/><line class="c" x2="45.344" y2="162.554" transform="translate(282.344 844.013)"/><line class="c" x2="155.742" y2="54.862" transform="translate(230.356 683.63)"/><line class="c" x2="169.323" y2="30.518" transform="translate(386.098 738.492)"/><line class="c" y1="119.871" x2="118.169" transform="translate(327.688 886.695)"/><line class="c" y1="117.685" x2="109.563" transform="translate(445.858 769.01)"/><line class="c" y1="26.342" x2="145.252" transform="translate(562.994 1077.438)"/><line class="c" y1="61.469" x2="133.667" transform="translate(708.246 1015.97)"/><line class="c" x2="147.336" y2="22.829" transform="translate(516.198)"/><line class="c" x2="138.715" y2="57.587" transform="translate(663.534 22.829)"/><line class="c" x1="32.979" y2="129.08" transform="translate(255.045 71.012)"/><line class="c" x1="38.972" y2="146.63" transform="translate(216.073 200.092)"/><line class="c" x2="126.117" y2="67.6" transform="translate(288.024 71.012)"/><line class="c" x2="118.168" y2="85.274" transform="translate(414.142 138.612)"/><line class="c" y1="78.358" x2="150.094" transform="translate(216.073 268.364)"/><line class="c" y1="44.477" x2="166.143" transform="translate(366.167 223.887)"/><line class="c" x1="83.21" y2="147.68" transform="translate(658.827 484.874)"/><line class="c" x1="103.406" y2="136.456" transform="translate(555.421 632.554)"/><line class="c" x2="72.412" y2="150.526" transform="translate(742.038 484.874)"/><line class="c" x2="50.298" y2="139.267" transform="translate(814.45 635.4)"/><line class="c" x2="165.142" y2="9.339" transform="translate(555.421 769.01)"/><line class="c" y1="3.682" x2="144.185" transform="translate(720.563 774.668)"/><line class="c" x2="13.468" y2="119.934" transform="translate(864.748 774.668)"/><line class="c" x1="36.302" y2="121.368" transform="translate(841.913 894.602)"/><line class="c" y1="25.435" x2="108.617" transform="translate(864.748 749.233)"/><line class="c" y1="50.792" x2="66.822" transform="translate(973.365 698.441)"/><line class="c" y1="159.443" x2="124.698" transform="translate(841.913 856.526)"/><line class="c" y1="158.085" x2="73.576" transform="translate(966.611 698.441)"/><line class="c" y1="64.919" x2="14.452" transform="translate(1040.187 633.522)"/><line class="c" x1="26.191" y1="63.828" transform="translate(1028.448 569.694)"/><line class="c" y1="169.41" x2="19.075" transform="translate(1040.187 529.031)"/><line class="c" x1="33.358" y1="167.496" transform="translate(1025.903 361.535)"/><line class="c" y1="105.418" x2="19.015" transform="translate(1028.448 464.276)"/><line class="c" x1="21.56" y1="102.741" transform="translate(1025.903 361.535)"/><line class="c" x2="114.199" y2="118.114" transform="translate(532.31 223.887)"/><line class="c" x2="95.529" y2="142.874" transform="translate(646.509 342)"/><line class="c" y1="10.342" x2="164.307" transform="translate(532.31 213.544)"/><line class="c" x2="145.019" y2="16.001" transform="translate(696.617 213.544)"/><line class="c" y1="140.027" x2="60.094" transform="translate(742.038 344.848)"/><line class="c" y1="115.302" x2="39.505" transform="translate(802.131 229.546)"/><line class="c" x1="86.592" y1="148.927" transform="translate(939.311 212.607)"/><line class="c" x1="137.062" y1="132.191" transform="translate(802.249 80.416)"/><line class="c" x1="72.47" y1="82.428" transform="translate(953.433 279.107)"/><line class="c" x1="111.796" y1="49.561" transform="translate(841.637 229.546)"/><line class="c" x2="44.25" y2="66.105" transform="translate(802.249 80.416)"/><line class="c" x1="4.863" y2="83.025" transform="translate(841.637 146.521)"/><line class="c" y1="12.488" x2="46.894" transform="translate(927.935 352.253)"/><line class="c" x2="21.397" y2="73.146" transform="translate(953.433 279.107)"/><line class="c" x1="43.775" y1="77.434" transform="translate(974.83 352.253)"/><line class="c" x1="58.555" y2="24.268" transform="translate(672.119 119.264)"/><line class="c" x1="24.498" y1="70.013" transform="translate(672.119 143.532)"/><line class="c" x2="93.65" y2="27.052" transform="translate(578.469 116.48)"/><line class="c" x2="26.206" y2="87.833" transform="translate(1018.604 429.687)"/><line class="c" x1="14.451" y1="11.511" transform="translate(1044.81 517.52)"/><line class="c" y1="77.942" x2="19.178" transform="translate(1025.633 517.52)"/><line class="c" x1="37.623" y2="67.67" transform="translate(988.01 595.462)"/><line class="c" y1="86.1" x2="14.645" transform="translate(973.365 663.133)"/><line class="c" x2="48.702" y2="30.163" transform="translate(939.307 632.97)"/><line class="c" x1="56.383" y1="45.111" transform="translate(882.924 587.859)"/><line class="c" y1="47.542" x2="68.475" transform="translate(814.45 587.859)"/><line class="c" x2="3.997" y2="97.483" transform="translate(878.928 490.376)"/><line class="c" x1="92.532" y1="22.128" transform="translate(485.937 94.352)"/><line class="c" y1="44.26" x2="71.795" transform="translate(414.142 94.352)"/><line class="c" x2="16.155" y2="44.584" transform="translate(469.782 49.768)"/><line class="c" x1="64.111" y2="50.942" transform="translate(692.971 1005.127)"/><line class="c" x1="15.274" y1="21.37" transform="translate(692.971 1056.069)"/><line class="c" y1="6.664" x2="88.052" transform="translate(604.92 1056.069)"/><line class="c" x1="92.487" y2="27.581" transform="translate(403.674 624.864)"/><line class="c" y1="86.048" x2="17.576" transform="translate(386.098 652.445)"/><line class="c" x2="67.463" y2="69.593" transform="translate(336.211 582.852)"/><line class="c" y1="30.609" x2="2.69" transform="translate(469.782 19.159)"/><line class="c" x2="76.153" y2="1.217" transform="translate(396.319 17.942)"/><line class="c" x1="87.924" y2="6.621" transform="translate(472.472 12.538)"/><line class="c" x1="88.624" y1="9.894" transform="translate(516.296 1052.838)"/><line class="c" y1="19.714" x2="75.265" transform="translate(441.03 1052.838)"/><line class="c" x2="6.202" y2="52.227" transform="translate(510.094 1000.611)"/><line class="c" x1="52.144" y1="79.247" transform="translate(284.067 503.604)"/><line class="c" y1="9.806" x2="78.844" transform="translate(205.223 503.604)"/><line class="c" x1="45.116" y2="86.529" transform="translate(284.067 417.075)"/><line class="c" x1="22.474" y1="70.602" transform="translate(72.76 376.257)"/><line class="c" y1="22.492" x2="58.509" transform="translate(14.251 376.257)"/><line class="c" x1="52.414" y2="84.097" transform="translate(72.76 292.16)"/><line class="c" x1="76.595" y2="11.499" transform="translate(128.628 513.41)"/><line class="c" y1="91.197" x2="26.219" transform="translate(102.409 524.909)"/><line class="c" x2="33.394" y2="78.05" transform="translate(95.234 446.859)"/><line class="c" x1="59.139" y1="74.52" transform="translate(86.489 700.098)"/><line class="c" y1="2.571" x2="59.353" transform="translate(27.135 700.098)"/><line class="c" x1="15.92" y2="83.992" transform="translate(86.489 616.106)"/><line class="c" x1="74.776" y2="8.256" transform="translate(207.568 844.013)"/><line class="c" y1="78.585" x2="1.878" transform="translate(205.69 852.268)"/><line class="c" x2="61.941" y2="77.65" transform="translate(145.628 774.618)"/><line class="c" x1="16.359" y2="87.956" transform="translate(369.739 738.492)"/><line class="c" x1="76.119" y1="60.247" transform="translate(369.739 826.448)"/><line class="c" y1="17.565" x2="87.394" transform="translate(282.344 826.448)"/><line class="c" x1="90.069" y2="35.942" transform="translate(521.508 897.434)"/><line class="c" y1="67.234" x2="11.414" transform="translate(510.094 933.377)"/><line class="c" x2="75.651" y2="46.681" transform="translate(445.858 886.695)"/><line class="c" x1="67.623" y1="31.895" transform="translate(649.148 22.39)"/><line class="c" x2="88.752" y2="9.852" transform="translate(560.396 12.538)"/><line class="c" x1="14.387" y1="0.439" transform="translate(649.148 22.39)"/><line class="c" x1="74.659" y2="11.006" transform="translate(180.386 200.092)"/><line class="c" y1="81.062" x2="55.212" transform="translate(125.174 211.098)"/><line class="c" x2="7.701" y2="58.742" transform="translate(172.685 152.356)"/><line class="c" x1="71.083" y2="58.521" transform="translate(343.058 138.612)"/><line class="c" x1="23.108" y1="71.23" transform="translate(343.058 197.134)"/><line class="c" y1="2.958" x2="88.013" transform="translate(255.045 197.134)"/><line class="c" x1="94.295" y1="15.07" transform="translate(390.494 341.563)"/><line class="c" y1="75.512" x2="61.311" transform="translate(329.183 341.563)"/><line class="c" x2="24.327" y2="73.199" transform="translate(366.167 268.364)"/><line class="c" x1="74.805" y1="50.163" transform="translate(584.022 582.391)"/><line class="c" y1="42.473" x2="87.861" transform="translate(496.161 582.391)"/><line class="c" x1="3.965" y2="97.337" transform="translate(584.022 485.053)"/><line class="c" x1="79.7" y2="48.648" transform="translate(734.75 635.4)"/><line class="c" y1="94.301" x2="14.187" transform="translate(720.563 684.049)"/><line class="c" x2="75.923" y2="51.495" transform="translate(658.827 632.554)"/><line class="c" x1="61.187" y1="37.798" transform="translate(702.597 862.42)"/><line class="c" y1="35.015" x2="91.019" transform="translate(611.578 862.42)"/><line class="c" x1="17.966" y2="84.07" transform="translate(702.597 778.35)"/><line class="c" x1="71.006" y2="43.999" transform="translate(807.209 894.602)"/><line class="c" y1="66.526" x2="50.127" transform="translate(757.082 938.601)"/><line class="c" x2="43.426" y2="38.383" transform="translate(763.784 900.218)"/><line class="c" x1="26.834" y2="87.763" transform="translate(946.531 749.233)"/><line class="c" x1="20.08" y1="19.53" transform="translate(946.531 836.996)"/><line class="c" y1="57.606" x2="68.316" transform="translate(878.215 836.996)"/><line class="c" x1="39.31" y2="75.798" transform="translate(978.308 790.565)"/><line class="c" y1="77.711" x2="49.6" transform="translate(928.708 866.363)"/><line class="c" x2="11.697" y2="9.837" transform="translate(966.611 856.526)"/><line class="c" x1="17.863" y2="83.955" transform="translate(1036.775 633.522)"/><line class="c" y1="3.301" x2="19.407" transform="translate(1017.368 717.478)"/><line class="c" y1="73.088" x2="19.157" transform="translate(1017.618 717.478)"/><line class="c" x2="2.739" y2="12.95" transform="translate(1059.261 529.031)"/><line class="c" x2="14.537" y2="77.705" transform="translate(1047.463 464.276)"/><line class="c" y1="91.542" x2="7.362" transform="translate(1054.638 541.981)"/><line class="c" x2="25.881" y2="85.53" transform="translate(997.164 308.108)"/><line class="c" y1="23.222" x2="18.562" transform="translate(1004.484 393.638)"/><line class="c" x1="24.417" y1="70.638" transform="translate(1023.046 393.638)"/><line class="c" x1="70.633" y2="48.256" transform="translate(575.876 342)"/><line class="c" x1="12.111" y1="94.797" transform="translate(575.876 390.256)"/><line class="c" x2="91.087" y2="33.623" transform="translate(484.789 356.633)"/><line class="c" x2="21.68" y2="82.428" transform="translate(696.617 213.544)"/><line class="c" x1="83.834" y1="48.876" transform="translate(718.297 295.972)"/><line class="c" y1="46.028" x2="71.788" transform="translate(646.509 295.972)"/><line class="c" x1="53.157" y2="30.985" transform="translate(874.778 364.741)"/><line class="c" x1="4.149" y1="94.651" transform="translate(874.778 395.725)"/><line class="c" x2="72.647" y2="50.877" transform="translate(802.131 344.848)"/><line class="c" x2="11.814" y2="12.587" transform="translate(939.311 212.607)"/><line class="c" x2="55.422" y2="59.616" transform="translate(895.703 165.578)"/><line class="c" x1="46.039" y1="82.914" transform="translate(951.125 225.194)"/><line class="c" x1="33.583" y1="71.423" transform="translate(919.85 207.684)"/><line class="c" x2="73.351" y2="61.164" transform="translate(846.499 146.521)"/><line class="c" x1="19.461" y1="4.923" transform="translate(919.85 207.684)"/><line class="c" y1="19.686" x2="40.964" transform="translate(730.674 99.578)"/><line class="c" x2="54.868" y2="45.292" transform="translate(716.77 54.285)"/><line class="c" x1="74.861" y1="46.943" transform="translate(771.638 99.578)"/></g></g></g></svg>