<svg xmlns="http://www.w3.org/2000/svg" xmlns:xlink="http://www.w3.org/1999/xlink" width="1024" height="768" viewBox="0 0 1024 768"><defs><style>.a,.c{fill:none;stroke:#2970ff;}.b{clip-path:url(#a);}.c{stroke-linecap:round;}</style><clipPath id="a"><rect class="a" width="1024" height="768" transform="translate(-246 -31)"/></clipPath></defs><g transform="translate(-3594 -1532.849)"><g class="b" transform="translate(3840 1563.849)"><g transform="translate(-6389.055 -4793.518)"><line class="c" y1="155.126" x2="50.403" transform="translate(6833.997 5038.538)"/><line class="c" x2="131.959" y2="95.872" transform="translate(6884.399 5038.538)"/><line class="c" x1="182.361" y2="59.254" transform="translate(6833.997 5134.411)"/><line class="c" y2="191.745" transform="translate(7016.358 4942.666)"/><line class="c" y1="95.872" x2="131.959" transform="translate(6884.399 4942.666)"/><line class="c" x2="163.111" transform="translate(6721.288 5038.538)"/><line class="c" x1="112.708" y1="155.126" transform="translate(6721.288 5038.538)"/><line class="c" x2="50.403" y2="155.126" transform="translate(6833.997 4883.412)"/><line class="c" y1="155.126" x2="112.708" transform="translate(6721.288 4883.412)"/><line class="c" x2="182.361" y2="59.254" transform="translate(6833.997 4883.412)"/><line class="c" x1="31.152" y2="95.872" transform="translate(7016.358 5038.538)"/><line class="c" x2="31.152" y2="95.872" transform="translate(7016.358 4942.666)"/><line class="c" x1="100.805" transform="translate(6833.997 5193.665)"/><line class="c" x1="81.556" y2="59.254" transform="translate(6934.802 5134.411)"/><line class="c" x1="31.152" y1="95.872" transform="translate(6721.288 5038.538)"/><line class="c" x1="81.556" y1="59.254" transform="translate(6752.44 5134.411)"/><line class="c" y1="59.254" x2="81.556" transform="translate(6752.44 4883.412)"/><line class="c" y1="95.872" x2="31.152" transform="translate(6721.288 4942.666)"/><line class="c" x2="81.556" y2="59.254" transform="translate(6934.802 4883.412)"/><line class="c" x2="100.805" transform="translate(6833.997 4883.412)"/><line class="c" x1="112.708" y2="155.126" transform="translate(6934.802 5038.538)"/><line class="c" x1="182.361" y1="59.254" transform="translate(6752.44 5134.411)"/><line class="c" y1="191.745" transform="translate(6752.44 4942.666)"/><line class="c" y1="59.254" x2="182.361" transform="translate(6752.44 4883.412)"/><line class="c" x2="112.708" y2="155.126" transform="translate(6934.802 4883.412)"/><line class="c" x2="50.403" y2="155.126" transform="translate(6884.399 5038.538)"/><line class="c" x1="163.111" transform="translate(6884.399 5038.538)"/><line class="c" x1="131.959" y2="95.872" transform="translate(6752.44 5038.538)"/><line class="c" x1="131.959" y1="95.872" transform="translate(6752.44 4942.666)"/><line class="c" y1="155.126" x2="50.403" transform="translate(6884.399 4883.412)"/><line class="c" y1="59.254" x2="182.361" transform="translate(6607.379 4436.966)"/><line class="c" x1="131.959" y1="95.872" transform="translate(6607.379 4496.22)"/><line class="c" y1="155.126" x2="50.403" transform="translate(6739.337 4436.966)"/><line class="c" x1="145.061" y1="446.446" transform="translate(6789.74 4436.966)"/><line class="c" x2="145.062" y2="446.446" transform="translate(6739.337 4592.092)"/><line class="c" x2="145.061" y2="446.446" transform="translate(6607.379 4496.22)"/><line class="c" x2="112.708" y2="155.126" transform="translate(7388.05 4554.1)"/><line class="c" x1="163.111" transform="translate(7337.648 4709.226)"/><line class="c" y1="155.126" x2="50.403" transform="translate(7337.648 4554.1)"/><line class="c" y1="329.312" x2="453.249" transform="translate(6884.399 4709.226)"/><line class="c" x1="453.249" y2="329.312" transform="translate(6934.802 4554.1)"/><line class="c" y1="329.312" x2="453.249" transform="translate(7047.51 4709.226)"/><line class="c" x1="112.708" y2="155.126" transform="translate(7931.736 5762.869)"/><line class="c" x2="50.403" y2="155.126" transform="translate(7881.333 5762.869)"/><line class="c" x1="163.111" transform="translate(7881.333 5762.869)"/><line class="c" x2="996.934" y2="724.331" transform="translate(6884.399 5038.538)"/><line class="c" x1="996.934" y1="724.331" transform="translate(7047.51 5038.538)"/><line class="c" x2="996.934" y2="724.331" transform="translate(6934.802 5193.665)"/><line class="c" y1="191.745" transform="translate(5732.753 4942.666)"/><line class="c" x1="131.959" y2="95.872" transform="translate(5732.753 5038.538)"/><line class="c" x1="131.959" y1="95.872" transform="translate(5732.753 4942.666)"/><line class="c" x1="1019.687" transform="translate(5732.753 4942.666)"/><line class="c" x2="1019.687" transform="translate(5864.711 5038.538)"/><line class="c" x2="1019.687" transform="translate(5732.753 5134.411)"/><line class="c" x1="182.361" y1="59.254" transform="translate(5976.354 7522.919)"/><line class="c" x2="50.403" y2="155.126" transform="translate(6108.313 7427.046)"/><line class="c" x1="131.959" y2="95.872" transform="translate(5976.354 7427.046)"/><line class="c" x1="776.086" y2="2388.508" transform="translate(5976.354 5134.411)"/><line class="c" y1="2388.508" x2="776.086" transform="translate(6108.313 5038.538)"/><line class="c" y1="2388.508" x2="776.086" transform="translate(6158.716 5193.665)"/><line class="c" x1="100.805" transform="translate(6197.826 7151.563)"/><line class="c" x1="81.556" y1="59.254" transform="translate(6116.271 7092.309)"/><line class="c" x1="182.361" y1="59.254" transform="translate(6116.271 7092.309)"/><line class="c" x1="636.17" y2="1957.899" transform="translate(6116.271 5134.411)"/><line class="c" y1="1957.899" x2="636.17" transform="translate(6298.632 5193.665)"/><line class="c" x1="636.17" y2="1957.899" transform="translate(6197.826 5193.665)"/><line class="c" x1="112.708" y1="155.126" transform="translate(4266.028 6822.429)"/><line class="c" x1="31.152" y1="95.872" transform="translate(4266.028 6822.429)"/><line class="c" x1="81.556" y1="59.254" transform="translate(4297.181 6918.301)"/><line class="c" x1="2455.26" y2="1783.891" transform="translate(4297.181 5134.411)"/><line class="c" y1="1783.891" x2="2455.26" transform="translate(4378.736 5193.665)"/><line class="c" x1="2455.26" y2="1783.891" transform="translate(4266.028 5038.538)"/><line class="c" x1="31.152" y1="95.872" transform="translate(4351.941 5038.538)"/><line class="c" y1="95.872" x2="31.152" transform="translate(4351.941 4942.666)"/><line class="c" y1="191.745" transform="translate(4383.093 4942.666)"/><line class="c" x1="2369.347" transform="translate(4383.093 4942.666)"/><line class="c" x2="2369.347" transform="translate(4383.093 5134.411)"/><line class="c" x1="2369.347" transform="translate(4351.941 5038.538)"/><line class="c" y1="155.126" x2="112.707"/><line class="c" y1="59.254" x2="81.555" transform="translate(31.152)"/><line class="c" y1="95.872" x2="31.152" transform="translate(0 59.254)"/><line class="c" x1="6721.288" y1="4883.412" transform="translate(31.152 59.254)"/><line class="c" x2="6721.288" y2="4883.412" transform="translate(0 155.126)"/><line class="c" x1="6721.289" y1="4883.412" transform="translate(112.707)"/><line class="c" y1="59.254" x2="81.556" transform="translate(5831.204 2048.182)"/><line class="c" x2="100.805" transform="translate(5912.76 2048.182)"/><line class="c" y1="59.254" x2="182.361" transform="translate(5831.204 2048.182)"/><line class="c" x1="921.237" y1="2835.23" transform="translate(6013.565 2048.182)"/><line class="c" x2="921.237" y2="2835.23" transform="translate(5831.204 2107.436)"/><line class="c" x1="921.237" y1="2835.23" transform="translate(5912.76 2048.182)"/><line class="c" x2="163.111" transform="translate(5688.131 4287.889)"/><line class="c" x2="50.403" y2="155.126" transform="translate(5800.839 4132.763)"/><line class="c" y1="155.126" x2="112.708" transform="translate(5688.131 4132.763)"/><line class="c" x1="1033.157" y1="750.649" transform="translate(5800.839 4132.763)"/><line class="c" x2="1033.157" y2="750.649" transform="translate(5688.131 4287.889)"/><line class="c" x1="1033.157" y1="750.649" transform="translate(5851.242 4287.889)"/><line class="c" y1="95.872" x2="131.959" transform="translate(7214.788 3925.848)"/><line class="c" x2="50.403" y2="155.126" transform="translate(7164.386 3866.595)"/><line class="c" x2="182.361" y2="59.254" transform="translate(7164.386 3866.595)"/><line class="c" y1="1016.817" x2="330.389" transform="translate(7016.358 3925.848)"/><line class="c" x1="330.389" y2="1016.817" transform="translate(6833.997 3866.595)"/><line class="c" x1="330.389" y2="1016.817" transform="translate(6884.399 4021.721)"/><line class="c" x2="182.361" y2="59.254" transform="translate(7398.044 3147.481)"/><line class="c" x2="81.556" y2="59.254" transform="translate(7498.849 3147.481)"/><line class="c" x2="100.805" transform="translate(7398.044 3147.481)"/><line class="c" y1="1735.931" x2="564.047" transform="translate(6934.802 3147.481)"/><line class="c" x1="564.047" y2="1735.931" transform="translate(6833.997 3147.481)"/><line class="c" y1="1735.931" x2="564.047" transform="translate(7016.358 3206.735)"/><line class="c" y1="155.126" x2="50.403" transform="translate(5407.753 6074.788)"/><line class="c" x2="163.111" transform="translate(5295.044 6074.788)"/><line class="c" x1="112.708" y1="155.126" transform="translate(5295.044 6074.788)"/><line class="c" x1="1426.243" y2="1036.25" transform="translate(5295.044 5038.538)"/><line class="c" y1="1036.25" x2="1426.244" transform="translate(5407.753 5193.665)"/><line class="c" x1="1426.244" y2="1036.25" transform="translate(5458.156 5038.538)"/><line class="c" x1="182.361" y2="59.255" transform="translate(9522.939 13409.994)"/><line class="c" x1="100.805" transform="translate(9522.939 13469.25)"/><line class="c" x1="81.556" y2="59.255" transform="translate(9623.745 13409.994)"/><line class="c" x2="2688.943" y2="8275.586" transform="translate(6934.802 5193.665)"/><line class="c" x1="2688.943" y1="8275.584" transform="translate(7016.358 5134.411)"/><line class="c" x2="2688.943" y2="8275.586" transform="translate(6833.997 5193.665)"/><line class="c" y1="155.126" x2="50.403" transform="translate(7323.406 6544.762)"/><line class="c" x2="131.958" y2="95.872" transform="translate(7373.809 6544.762)"/><line class="c" x1="182.361" y2="59.254" transform="translate(7323.406 6640.634)"/><line class="c" x2="489.409" y2="1506.223" transform="translate(6833.997 5193.665)"/><line class="c" x1="489.409" y1="1506.223" transform="translate(7016.358 5134.411)"/><line class="c" x1="489.409" y1="1506.223" transform="translate(6884.399 5038.538)"/><line class="c" x1="31.152" y2="95.872" transform="translate(11682.349 8428.656)"/><line class="c" x1="81.556" y2="59.254" transform="translate(11600.794 8524.528)"/><line class="c" x1="112.708" y2="155.126" transform="translate(11600.794 8428.656)"/><line class="c" x2="4665.992" y2="3390.118" transform="translate(6934.802 5193.665)"/><line class="c" x1="4665.992" y1="3390.118" transform="translate(7047.51 5038.538)"/><line class="c" x2="4665.992" y2="3390.118" transform="translate(7016.358 5134.411)"/><line class="c" x2="31.152" y2="95.872" transform="translate(8606.87 3787.065)"/><line class="c" x2="81.556" y2="59.254" transform="translate(8525.313 3727.812)"/><line class="c" x2="112.708" y2="155.126" transform="translate(8525.313 3727.812)"/><line class="c" y1="1155.601" x2="1590.512" transform="translate(7047.51 3882.938)"/><line class="c" x1="1590.512" y2="1155.6" transform="translate(6934.802 3727.812)"/><line class="c" x1="1590.512" y2="1155.6" transform="translate(7016.358 3787.065)"/><line class="c" y2="191.745" transform="translate(10729.75 4942.666)"/><line class="c" x1="31.152" y2="95.872" transform="translate(10729.75 5038.538)"/><line class="c" x2="31.152" y2="95.872" transform="translate(10729.75 4942.666)"/><line class="c" x2="3713.392" transform="translate(7047.51 5038.538)"/><line class="c" x1="3713.392" transform="translate(7016.358 4942.666)"/><line class="c" x2="3713.392" transform="translate(7016.358 5134.411)"/><line class="c" x2="131.958" y2="95.872" transform="translate(8534.866 5038.538)"/><line class="c" y2="191.745" transform="translate(8666.824 4942.666)"/><line class="c" y1="95.872" x2="131.958" transform="translate(8534.866 4942.666)"/><line class="c" x2="1650.467" transform="translate(7016.358 4942.666)"/><line class="c" x1="1650.467" transform="translate(6884.399 5038.538)"/><line class="c" x2="1650.467" transform="translate(7016.358 5134.411)"/></g></g></g></svg>