<svg xmlns="http://www.w3.org/2000/svg" xmlns:xlink="http://www.w3.org/1999/xlink" width="1024" height="768" viewBox="0 0 1024 768"><defs><style>.a,.c{fill:none;stroke:#2970ff;}.b{clip-path:url(#a);}.c{stroke-linecap:round;}</style><clipPath id="a"><rect class="a" width="1024" height="768" transform="translate(204)"/></clipPath></defs><g transform="translate(298)"><g class="b" transform="translate(-502)"><g transform="translate(38.375 -772.755)"><line class="c" y2="187.6" transform="translate(0 1276.52)"/><line class="c" x2="364.159" y2="274.119" transform="translate(0 1464.12)"/><line class="c" y1="187.6" transform="translate(364.159 1550.639)"/><line class="c" x1="364.159" y1="274.119" transform="translate(0 1276.52)"/><line class="c" x1="364.159" y2="274.119" transform="translate(0 1002.4)"/><line class="c" y1="274.119" x2="364.159" transform="translate(364.159 1276.52)"/><line class="c" x1="364.159" y1="274.119" transform="translate(364.159 1002.4)"/><line class="c" y1="187.6" transform="translate(364.159 1002.4)"/><line class="c" y2="187.6" transform="translate(728.317 1276.52)"/><line class="c" x1="364.159" y1="274.119" transform="translate(364.159 1190)"/><line class="c" y1="274.119" x2="364.159" transform="translate(0 1190)"/><line class="c" x1="364.159" y2="274.119" transform="translate(364.159 1464.12)"/><line class="c" x2="0.085" y2="100.33" transform="translate(617.072 1141.321)"/><line class="c" x2="195.096" y2="146.917" transform="translate(617.157 1241.652)"/><line class="c" x1="0.085" y1="100.33" transform="translate(812.168 1288.239)"/><line class="c" x1="195.096" y1="146.917" transform="translate(617.072 1141.321)"/><line class="c" x1="195.096" y2="147.015" transform="translate(617.072 994.306)"/><line class="c" y1="147.016" x2="195.096" transform="translate(812.168 1141.223)"/><line class="c" x1="195.096" y1="146.917" transform="translate(812.168 994.306)"/><line class="c" x1="0.085" y1="100.33" transform="translate(812.168 994.306)"/><line class="c" x2="0.085" y2="100.33" transform="translate(1007.264 1141.223)"/><line class="c" x1="195.096" y1="146.917" transform="translate(812.253 1094.636)"/><line class="c" y1="147.015" x2="195.096" transform="translate(617.157 1094.636)"/><line class="c" x1="195.096" y2="147.015" transform="translate(812.253 1241.554)"/><line class="c" x2="0.091" y2="53.657" transform="translate(947.698 1068.657)"/><line class="c" x2="104.522" y2="78.742" transform="translate(947.789 1122.314)"/><line class="c" x1="0.091" y1="53.657" transform="translate(1052.219 1147.399)"/><line class="c" x1="104.522" y1="78.742" transform="translate(947.698 1068.657)"/><line class="c" x1="104.522" y2="78.847" transform="translate(947.698 989.81)"/><line class="c" y1="78.847" x2="104.522" transform="translate(1052.219 1068.552)"/><line class="c" x1="104.522" y1="78.742" transform="translate(1052.219 989.81)"/><line class="c" x1="0.091" y1="53.657" transform="translate(1052.219 989.81)"/><line class="c" x2="0.091" y2="53.657" transform="translate(1156.741 1068.552)"/><line class="c" x1="104.522" y1="78.742" transform="translate(1052.31 1043.468)"/><line class="c" y1="78.847" x2="104.522" transform="translate(947.789 1043.468)"/><line class="c" x1="104.522" y2="78.847" transform="translate(1052.31 1122.209)"/><line class="c" x2="0.073" y2="28.696" transform="translate(1124.846 1029.603)"/><line class="c" x2="55.997" y2="42.203" transform="translate(1124.919 1058.299)"/><line class="c" x1="0.073" y1="28.696" transform="translate(1180.843 1071.805)"/><line class="c" x1="55.997" y1="42.203" transform="translate(1124.846 1029.603)"/><line class="c" x1="55.997" y2="42.287" transform="translate(1124.846 987.316)"/><line class="c" y1="42.287" x2="55.997" transform="translate(1180.843 1029.518)"/><line class="c" x1="55.997" y1="42.203" transform="translate(1180.843 987.316)"/><line class="c" x1="0.073" y1="28.696" transform="translate(1180.843 987.316)"/><line class="c" x2="0.073" y2="28.696" transform="translate(1236.84 1029.518)"/><line class="c" x1="55.997" y1="42.203" transform="translate(1180.916 1016.012)"/><line class="c" y1="42.287" x2="55.997" transform="translate(1124.919 1016.012)"/><line class="c" x1="55.997" y2="42.287" transform="translate(1180.916 1058.215)"/><line class="c" x2="0.052" y2="15.347" transform="translate(1219.762 1008.613)"/><line class="c" x2="30" y2="22.619" transform="translate(1219.814 1023.96)"/><line class="c" x1="0.052" y1="15.347" transform="translate(1249.762 1031.232)"/><line class="c" x1="30" y1="22.619" transform="translate(1219.762 1008.613)"/><line class="c" x1="30" y2="22.679" transform="translate(1219.762 985.934)"/><line class="c" y1="22.679" x2="30" transform="translate(1249.762 1008.553)"/><line class="c" x1="30" y1="22.619" transform="translate(1249.762 985.934)"/><line class="c" x1="0.052" y1="15.347" transform="translate(1249.762 985.934)"/><line class="c" x2="0.052" y2="15.347" transform="translate(1279.762 1008.553)"/><line class="c" x1="30" y1="22.619" transform="translate(1249.814 1001.281)"/><line class="c" y1="22.679" x2="30" transform="translate(1219.814 1001.281)"/><line class="c" x1="30" y2="22.679" transform="translate(1249.815 1023.9)"/><line class="c" x2="0.035" y2="8.208" transform="translate(1270.618 997.332)"/><line class="c" x2="16.072" y2="12.123" transform="translate(1270.653 1005.54)"/><line class="c" x1="0.035" y1="8.208" transform="translate(1286.69 1009.455)"/><line class="c" x1="16.072" y1="12.123" transform="translate(1270.618 997.332)"/><line class="c" x1="16.072" y2="12.163" transform="translate(1270.618 985.169)"/><line class="c" y1="12.163" x2="16.072" transform="translate(1286.69 997.292)"/><line class="c" x1="16.072" y1="12.123" transform="translate(1286.69 985.169)"/><line class="c" x1="0.035" y1="8.208" transform="translate(1286.69 985.169)"/><line class="c" x2="0.035" y2="8.208" transform="translate(1302.763 997.292)"/><line class="c" x1="16.072" y1="12.123" transform="translate(1286.725 993.377)"/><line class="c" y1="12.163" x2="16.072" transform="translate(1270.653 993.377)"/><line class="c" x1="16.072" y2="12.163" transform="translate(1286.725 1005.499)"/><line class="c" x2="0.023" y2="4.39" transform="translate(1297.866 991.269)"/><line class="c" x2="8.611" y2="6.497" transform="translate(1297.889 995.659)"/><line class="c" x1="0.022" y1="4.389" transform="translate(1306.477 997.767)"/><line class="c" x1="8.611" y1="6.497" transform="translate(1297.866 991.269)"/><line class="c" x1="8.611" y2="6.523" transform="translate(1297.866 984.746)"/><line class="c" y1="6.523" x2="8.611" transform="translate(1306.477 991.243)"/><line class="c" x1="8.611" y1="6.497" transform="translate(1306.477 984.746)"/><line class="c" x1="0.022" y1="4.39" transform="translate(1306.477 984.746)"/><line class="c" x2="0.023" y2="4.389" transform="translate(1315.087 991.243)"/><line class="c" x1="8.611" y1="6.497" transform="translate(1306.499 989.135)"/><line class="c" y1="6.523" x2="8.611" transform="translate(1297.889 989.135)"/><line class="c" x1="8.611" y2="6.523" transform="translate(1306.499 995.633)"/><line class="c" x2="0.014" y2="2.347" transform="translate(1312.465 988.011)"/><line class="c" x2="4.613" y2="3.482" transform="translate(1312.48 990.359)"/><line class="c" x1="0.014" y1="2.347" transform="translate(1317.079 991.493)"/><line class="c" x1="4.613" y1="3.482" transform="translate(1312.465 988.011)"/><line class="c" x1="4.613" y2="3.499" transform="translate(1312.465 984.512)"/><line class="c" y1="3.499" x2="4.613" transform="translate(1317.079 987.995)"/><line class="c" x1="4.613" y1="3.482" transform="translate(1317.079 984.512)"/><line class="c" x1="0.014" y1="2.348" transform="translate(1317.079 984.512)"/><line class="c" x2="0.014" y2="2.348" transform="translate(1321.692 987.995)"/><line class="c" x1="4.613" y1="3.482" transform="translate(1317.093 986.86)"/><line class="c" y1="3.498" x2="4.613" transform="translate(1312.48 986.86)"/><line class="c" x1="4.613" y2="3.498" transform="translate(1317.093 990.342)"/><line class="c" x2="0.009" y2="1.255" transform="translate(1320.288 986.26)"/><line class="c" x2="2.471" y2="1.866" transform="translate(1320.297 987.515)"/><line class="c" x1="0.009" y1="1.255" transform="translate(1322.76 988.126)"/><line class="c" x1="2.472" y1="1.866" transform="translate(1320.288 986.26)"/><line class="c" x1="2.472" y2="1.876" transform="translate(1320.288 984.383)"/><line class="c" y1="1.876" x2="2.471" transform="translate(1322.76 986.25)"/><line class="c" x1="2.471" y1="1.866" transform="translate(1322.76 984.383)"/><line class="c" x1="0.008" y1="1.255" transform="translate(1322.76 984.383)"/><line class="c" x2="0.009" y2="1.255" transform="translate(1325.231 986.25)"/><line class="c" x1="2.472" y1="1.866" transform="translate(1322.768 985.639)"/><line class="c" y1="1.876" x2="2.471" transform="translate(1320.297 985.639)"/><line class="c" x1="2.471" y2="1.876" transform="translate(1322.768 987.505)"/><line class="c" x2="0.005" y2="0.671" transform="translate(1324.479 985.319)"/><line class="c" x2="1.324" y2="1" transform="translate(1324.484 985.99)"/><line class="c" x1="0.005" y1="0.671" transform="translate(1325.803 986.319)"/><line class="c" x1="1.324" y1="1" transform="translate(1324.479 985.319)"/><line class="c" x1="1.324" y2="1.006" transform="translate(1324.479 984.313)"/><line class="c" y1="1.006" x2="1.324" transform="translate(1325.803 985.313)"/><line class="c" x1="1.324" y1="1" transform="translate(1325.803 984.313)"/><line class="c" x1="0.005" y1="0.671" transform="translate(1325.803 984.313)"/><line class="c" x2="0.005" y2="0.671" transform="translate(1327.127 985.313)"/><line class="c" x1="1.324" y1="1" transform="translate(1325.808 984.984)"/><line class="c" y1="1.006" x2="1.324" transform="translate(1324.484 984.984)"/><line class="c" x1="1.324" y2="1.006" transform="translate(1325.808 985.984)"/><line class="c" x2="0.003" y2="0.359" transform="translate(1326.725 984.813)"/><line class="c" x2="0.709" y2="0.536" transform="translate(1326.728 985.172)"/><line class="c" x1="0.003" y1="0.359" transform="translate(1327.434 985.349)"/><line class="c" x1="0.709" y1="0.536" transform="translate(1326.725 984.813)"/><line class="c" x1="0.709" y2="0.54" transform="translate(1326.725 984.273)"/><line class="c" y1="0.54" x2="0.709" transform="translate(1327.434 984.809)"/><line class="c" x1="0.709" y1="0.536" transform="translate(1327.434 984.273)"/><line class="c" x1="0.003" y1="0.359" transform="translate(1327.434 984.273)"/><line class="c" x2="0.003" y2="0.359" transform="translate(1328.144 984.809)"/><line class="c" x1="0.709" y1="0.536" transform="translate(1327.437 984.632)"/><line class="c" y1="0.539" x2="0.709" transform="translate(1326.728 984.632)"/><line class="c" x1="0.709" y2="0.54" transform="translate(1327.437 985.168)"/><line class="c" x2="0.002" y2="0.192" transform="translate(1327.928 984.541)"/><line class="c" x2="0.38" y2="0.287" transform="translate(1327.93 984.733)"/><line class="c" x1="0.002" y1="0.192" transform="translate(1328.308 984.828)"/><line class="c" x1="0.38" y1="0.287" transform="translate(1327.928 984.541)"/><line class="c" x1="0.38" y2="0.289" transform="translate(1327.928 984.252)"/><line class="c" y1="0.289" x2="0.38" transform="translate(1328.308 984.539)"/><line class="c" x1="0.38" y1="0.287" transform="translate(1328.308 984.252)"/><line class="c" x1="0.002" y1="0.192" transform="translate(1328.308 984.252)"/><line class="c" x2="0.002" y2="0.192" transform="translate(1328.688 984.539)"/><line class="c" x1="0.38" y1="0.287" transform="translate(1328.31 984.444)"/><line class="c" y1="0.289" x2="0.38" transform="translate(1327.93 984.444)"/><line class="c" x1="0.38" y2="0.289" transform="translate(1328.31 984.731)"/><line class="c" y2="187.6" transform="translate(0 1079.669)"/><line class="c" x2="364.159" y2="274.119" transform="translate(0 1267.269)"/><line class="c" y1="187.6" transform="translate(364.159 1353.789)"/><line class="c" x1="364.159" y1="274.119" transform="translate(0 1079.669)"/><line class="c" x1="364.159" y2="274.12" transform="translate(0 805.55)"/><line class="c" y1="274.119" x2="364.159" transform="translate(364.159 1079.669)"/><line class="c" x1="364.159" y1="274.12" transform="translate(364.159 805.55)"/><line class="c" y1="187.6" transform="translate(364.159 805.55)"/><line class="c" y2="187.6" transform="translate(728.317 1079.669)"/><line class="c" x1="364.159" y1="274.12" transform="translate(364.159 993.149)"/><line class="c" y1="274.12" x2="364.159" transform="translate(0 993.149)"/><line class="c" x1="364.159" y2="274.119" transform="translate(364.159 1267.269)"/><line class="c" x2="0.085" y2="100.33" transform="translate(617.072 944.471)"/><line class="c" x2="195.096" y2="146.917" transform="translate(617.157 1044.801)"/><line class="c" x1="0.085" y1="100.33" transform="translate(812.168 1091.388)"/><line class="c" x1="195.096" y1="146.918" transform="translate(617.072 944.471)"/><line class="c" x1="195.096" y2="147.015" transform="translate(617.072 797.456)"/><line class="c" y1="147.015" x2="195.096" transform="translate(812.168 944.373)"/><line class="c" x1="195.096" y1="146.917" transform="translate(812.168 797.456)"/><line class="c" x1="0.085" y1="100.33" transform="translate(812.168 797.456)"/><line class="c" x2="0.085" y2="100.33" transform="translate(1007.264 944.373)"/><line class="c" x1="195.096" y1="146.918" transform="translate(812.253 897.786)"/><line class="c" y1="147.016" x2="195.096" transform="translate(617.157 897.786)"/><line class="c" x1="195.096" y2="147.015" transform="translate(812.253 1044.703)"/><line class="c" x2="0.091" y2="53.657" transform="translate(947.698 871.806)"/><line class="c" x2="104.522" y2="78.742" transform="translate(947.789 925.464)"/><line class="c" x1="0.091" y1="53.657" transform="translate(1052.219 950.549)"/><line class="c" x1="104.522" y1="78.742" transform="translate(947.698 871.806)"/><line class="c" x1="104.522" y2="78.847" transform="translate(947.698 792.959)"/><line class="c" y1="78.847" x2="104.522" transform="translate(1052.219 871.702)"/><line class="c" x1="104.522" y1="78.742" transform="translate(1052.219 792.959)"/><line class="c" x1="0.091" y1="53.657" transform="translate(1052.219 792.959)"/><line class="c" x2="0.091" y2="53.657" transform="translate(1156.741 871.702)"/><line class="c" x1="104.522" y1="78.742" transform="translate(1052.31 846.617)"/><line class="c" y1="78.847" x2="104.522" transform="translate(947.789 846.617)"/><line class="c" x1="104.522" y2="78.847" transform="translate(1052.31 925.359)"/><line class="c" x2="0.073" y2="28.696" transform="translate(1124.846 832.752)"/><line class="c" x2="55.997" y2="42.203" transform="translate(1124.919 861.449)"/><line class="c" x1="0.073" y1="28.696" transform="translate(1180.843 874.955)"/><line class="c" x1="55.997" y1="42.203" transform="translate(1124.846 832.752)"/><line class="c" x1="55.997" y2="42.287" transform="translate(1124.846 790.466)"/><line class="c" y1="42.287" x2="55.997" transform="translate(1180.843 832.668)"/><line class="c" x1="55.997" y1="42.203" transform="translate(1180.843 790.466)"/><line class="c" x1="0.073" y1="28.696" transform="translate(1180.843 790.466)"/><line class="c" x2="0.073" y2="28.696" transform="translate(1236.84 832.668)"/><line class="c" x1="55.997" y1="42.203" transform="translate(1180.916 819.162)"/><line class="c" y1="42.287" x2="55.997" transform="translate(1124.919 819.162)"/><line class="c" x1="55.997" y2="42.287" transform="translate(1180.916 861.364)"/><line class="c" x2="0.052" y2="15.347" transform="translate(1219.762 811.762)"/><line class="c" x2="30" y2="22.619" transform="translate(1219.814 827.109)"/><line class="c" x1="0.052" y1="15.347" transform="translate(1249.762 834.381)"/><line class="c" x1="30" y1="22.619" transform="translate(1219.762 811.762)"/><line class="c" x1="30" y2="22.679" transform="translate(1219.762 789.084)"/><line class="c" y1="22.679" x2="30" transform="translate(1249.762 811.702)"/><line class="c" x1="30" y1="22.619" transform="translate(1249.762 789.084)"/><line class="c" x1="0.052" y1="15.347" transform="translate(1249.762 789.084)"/><line class="c" x2="0.052" y2="15.347" transform="translate(1279.762 811.702)"/><line class="c" x1="30" y1="22.619" transform="translate(1249.814 804.43)"/><line class="c" y1="22.679" x2="30" transform="translate(1219.814 804.43)"/><line class="c" x1="30" y2="22.679" transform="translate(1249.815 827.049)"/><line class="c" x2="0.035" y2="8.208" transform="translate(1270.618 800.482)"/><line class="c" x2="16.072" y2="12.123" transform="translate(1270.653 808.689)"/><line class="c" x1="0.035" y1="8.208" transform="translate(1286.69 812.605)"/><line class="c" x1="16.072" y1="12.123" transform="translate(1270.618 800.482)"/><line class="c" x1="16.072" y2="12.163" transform="translate(1270.618 788.319)"/><line class="c" y1="12.163" x2="16.072" transform="translate(1286.69 800.441)"/><line class="c" x1="16.072" y1="12.123" transform="translate(1286.69 788.319)"/><line class="c" x1="0.035" y1="8.208" transform="translate(1286.69 788.319)"/><line class="c" x2="0.035" y2="8.208" transform="translate(1302.763 800.441)"/><line class="c" x1="16.072" y1="12.123" transform="translate(1286.725 796.526)"/><line class="c" y1="12.163" x2="16.072" transform="translate(1270.653 796.526)"/><line class="c" x1="16.072" y2="12.163" transform="translate(1286.725 808.649)"/><line class="c" x2="0.023" y2="4.39" transform="translate(1297.866 794.419)"/><line class="c" x2="8.611" y2="6.497" transform="translate(1297.889 798.808)"/><line class="c" x1="0.022" y1="4.389" transform="translate(1306.477 800.916)"/><line class="c" x1="8.611" y1="6.497" transform="translate(1297.866 794.419)"/><line class="c" x1="8.611" y2="6.523" transform="translate(1297.866 787.896)"/><line class="c" y1="6.523" x2="8.611" transform="translate(1306.477 794.393)"/><line class="c" x1="8.611" y1="6.497" transform="translate(1306.477 787.896)"/><line class="c" x1="0.022" y1="4.389" transform="translate(1306.477 787.896)"/><line class="c" x2="0.023" y2="4.389" transform="translate(1315.087 794.393)"/><line class="c" x1="8.611" y1="6.497" transform="translate(1306.499 792.285)"/><line class="c" y1="6.523" x2="8.611" transform="translate(1297.889 792.285)"/><line class="c" x1="8.611" y2="6.523" transform="translate(1306.499 798.782)"/><line class="c" x2="0.014" y2="2.348" transform="translate(1312.465 791.161)"/><line class="c" x2="4.613" y2="3.482" transform="translate(1312.48 793.508)"/><line class="c" x1="0.014" y1="2.348" transform="translate(1317.079 794.643)"/><line class="c" x1="4.613" y1="3.482" transform="translate(1312.465 791.161)"/><line class="c" x1="4.613" y2="3.499" transform="translate(1312.465 787.662)"/><line class="c" y1="3.499" x2="4.613" transform="translate(1317.079 791.144)"/><line class="c" x1="4.613" y1="3.482" transform="translate(1317.079 787.662)"/><line class="c" x1="0.014" y1="2.348" transform="translate(1317.079 787.662)"/><line class="c" x2="0.014" y2="2.348" transform="translate(1321.692 791.144)"/><line class="c" x1="4.613" y1="3.482" transform="translate(1317.093 790.01)"/><line class="c" y1="3.499" x2="4.613" transform="translate(1312.48 790.01)"/><line class="c" x1="4.613" y2="3.498" transform="translate(1317.093 793.492)"/><line class="c" x2="0.009" y2="1.255" transform="translate(1320.288 789.409)"/><line class="c" x2="2.471" y2="1.866" transform="translate(1320.297 790.665)"/><line class="c" x1="0.009" y1="1.255" transform="translate(1322.76 791.276)"/><line class="c" x1="2.472" y1="1.866" transform="translate(1320.288 789.409)"/><line class="c" x1="2.472" y2="1.876" transform="translate(1320.288 787.533)"/><line class="c" y1="1.876" x2="2.471" transform="translate(1322.76 789.4)"/><line class="c" x1="2.471" y1="1.867" transform="translate(1322.76 787.533)"/><line class="c" x1="0.008" y1="1.256" transform="translate(1322.76 787.533)"/><line class="c" x2="0.009" y2="1.255" transform="translate(1325.231 789.4)"/><line class="c" x1="2.472" y1="1.866" transform="translate(1322.768 788.789)"/><line class="c" y1="1.876" x2="2.471" transform="translate(1320.297 788.789)"/><line class="c" x1="2.471" y2="1.876" transform="translate(1322.768 790.655)"/><line class="c" x2="0.005" y2="0.671" transform="translate(1324.479 788.469)"/><line class="c" x2="1.324" y2="1" transform="translate(1324.484 789.14)"/><line class="c" x1="0.005" y1="0.671" transform="translate(1325.803 789.469)"/><line class="c" x1="1.324" y1="1" transform="translate(1324.479 788.469)"/><line class="c" x1="1.324" y2="1.006" transform="translate(1324.479 787.462)"/><line class="c" y1="1.006" x2="1.324" transform="translate(1325.803 788.462)"/><line class="c" x1="1.324" y1="1" transform="translate(1325.803 787.462)"/><line class="c" x1="0.005" y1="0.671" transform="translate(1325.803 787.462)"/><line class="c" x2="0.005" y2="0.671" transform="translate(1327.127 788.462)"/><line class="c" x1="1.324" y1="1" transform="translate(1325.808 788.133)"/><line class="c" y1="1.006" x2="1.324" transform="translate(1324.484 788.133)"/><line class="c" x1="1.324" y2="1.006" transform="translate(1325.808 789.134)"/><line class="c" x2="0.003" y2="0.359" transform="translate(1326.725 787.963)"/><line class="c" x2="0.709" y2="0.536" transform="translate(1326.728 788.322)"/><line class="c" x1="0.003" y1="0.359" transform="translate(1327.434 788.499)"/><line class="c" x1="0.709" y1="0.536" transform="translate(1326.725 787.963)"/><line class="c" x1="0.709" y2="0.54" transform="translate(1326.725 787.423)"/><line class="c" y1="0.54" x2="0.709" transform="translate(1327.434 787.959)"/><line class="c" x1="0.709" y1="0.536" transform="translate(1327.434 787.423)"/><line class="c" x1="0.003" y1="0.359" transform="translate(1327.434 787.423)"/><line class="c" x2="0.003" y2="0.359" transform="translate(1328.144 787.959)"/><line class="c" x1="0.709" y1="0.536" transform="translate(1327.437 787.782)"/><line class="c" y1="0.54" x2="0.709" transform="translate(1326.728 787.782)"/><line class="c" x1="0.709" y2="0.54" transform="translate(1327.437 788.318)"/><line class="c" x2="0.002" y2="0.192" transform="translate(1327.928 787.691)"/><line class="c" x2="0.38" y2="0.287" transform="translate(1327.93 787.883)"/><line class="c" x1="0.002" y1="0.192" transform="translate(1328.308 787.978)"/><line class="c" x1="0.38" y1="0.287" transform="translate(1327.928 787.691)"/><line class="c" x1="0.38" y2="0.29" transform="translate(1327.928 787.401)"/><line class="c" y1="0.29" x2="0.38" transform="translate(1328.308 787.689)"/><line class="c" x1="0.38" y1="0.287" transform="translate(1328.308 787.401)"/><line class="c" x1="0.002" y1="0.192" transform="translate(1328.308 787.401)"/><line class="c" x2="0.002" y2="0.192" transform="translate(1328.688 787.689)"/><line class="c" x1="0.38" y1="0.287" transform="translate(1328.31 787.593)"/><line class="c" y1="0.29" x2="0.38" transform="translate(1327.93 787.593)"/><line class="c" x1="0.38" y2="0.29" transform="translate(1328.31 787.881)"/><line class="c" y2="187.6" transform="translate(0 882.819)"/><line class="c" x2="364.159" y2="274.119" transform="translate(0 1070.419)"/><line class="c" y1="187.6" transform="translate(364.159 1156.938)"/><line class="c" x1="364.159" y1="274.119" transform="translate(0 882.819)"/><line class="c" x1="364.159" y2="274.12" transform="translate(0 608.699)"/><line class="c" y1="274.119" x2="364.159" transform="translate(364.159 882.819)"/><line class="c" x1="364.159" y1="274.12" transform="translate(364.159 608.699)"/><line class="c" y1="187.6" transform="translate(364.159 608.699)"/><line class="c" y2="187.6" transform="translate(728.317 882.819)"/><line class="c" x1="364.159" y1="274.12" transform="translate(364.159 796.299)"/><line class="c" y1="274.12" x2="364.159" transform="translate(0 796.299)"/><line class="c" x1="364.159" y2="274.119" transform="translate(364.159 1070.419)"/><line class="c" x2="0.085" y2="100.33" transform="translate(617.072 747.621)"/><line class="c" x2="195.096" y2="146.917" transform="translate(617.157 847.951)"/><line class="c" x1="0.085" y1="100.33" transform="translate(812.168 894.538)"/><line class="c" x1="195.096" y1="146.917" transform="translate(617.072 747.621)"/><line class="c" x1="195.096" y2="147.015" transform="translate(617.072 600.605)"/><line class="c" y1="147.016" x2="195.096" transform="translate(812.168 747.522)"/><line class="c" x1="195.096" y1="146.917" transform="translate(812.168 600.605)"/><line class="c" x1="0.085" y1="100.33" transform="translate(812.168 600.605)"/><line class="c" x2="0.085" y2="100.33" transform="translate(1007.264 747.522)"/><line class="c" x1="195.096" y1="146.917" transform="translate(812.253 700.935)"/><line class="c" y1="147.015" x2="195.096" transform="translate(617.157 700.935)"/><line class="c" x1="195.096" y2="147.016" transform="translate(812.253 847.853)"/><line class="c" x2="0.091" y2="53.657" transform="translate(947.698 674.956)"/><line class="c" x2="104.522" y2="78.742" transform="translate(947.789 728.614)"/><line class="c" x1="0.091" y1="53.657" transform="translate(1052.219 753.698)"/><line class="c" x1="104.522" y1="78.742" transform="translate(947.698 674.956)"/><line class="c" x1="104.522" y2="78.847" transform="translate(947.698 596.109)"/><line class="c" y1="78.847" x2="104.522" transform="translate(1052.219 674.851)"/><line class="c" x1="104.522" y1="78.742" transform="translate(1052.219 596.109)"/><line class="c" x1="0.091" y1="53.657" transform="translate(1052.219 596.109)"/><line class="c" x2="0.091" y2="53.657" transform="translate(1156.741 674.851)"/><line class="c" x1="104.522" y1="78.742" transform="translate(1052.31 649.767)"/><line class="c" y1="78.847" x2="104.522" transform="translate(947.789 649.767)"/><line class="c" x1="104.522" y2="78.847" transform="translate(1052.31 728.509)"/><line class="c" x2="0.073" y2="28.696" transform="translate(1124.846 635.902)"/><line class="c" x2="55.997" y2="42.203" transform="translate(1124.919 664.598)"/><line class="c" x1="0.073" y1="28.696" transform="translate(1180.843 678.105)"/><line class="c" x1="55.997" y1="42.202" transform="translate(1124.846 635.902)"/><line class="c" x1="55.997" y2="42.287" transform="translate(1124.846 593.615)"/><line class="c" y1="42.287" x2="55.997" transform="translate(1180.843 635.818)"/><line class="c" x1="55.997" y1="42.203" transform="translate(1180.843 593.615)"/><line class="c" x1="0.073" y1="28.696" transform="translate(1180.843 593.615)"/><line class="c" x2="0.073" y2="28.696" transform="translate(1236.84 635.818)"/><line class="c" x1="55.997" y1="42.202" transform="translate(1180.916 622.312)"/><line class="c" y1="42.287" x2="55.997" transform="translate(1124.919 622.312)"/><line class="c" x1="55.997" y2="42.287" transform="translate(1180.916 664.514)"/><line class="c" x2="0.052" y2="15.347" transform="translate(1219.762 614.912)"/><line class="c" x2="30" y2="22.619" transform="translate(1219.814 630.259)"/><line class="c" x1="0.052" y1="15.347" transform="translate(1249.762 637.531)"/><line class="c" x1="30" y1="22.619" transform="translate(1219.762 614.912)"/><line class="c" x1="30" y2="22.679" transform="translate(1219.762 592.233)"/><line class="c" y1="22.679" x2="30" transform="translate(1249.762 614.852)"/><line class="c" x1="30" y1="22.619" transform="translate(1249.762 592.233)"/><line class="c" x1="0.052" y1="15.347" transform="translate(1249.762 592.233)"/><line class="c" x2="0.052" y2="15.347" transform="translate(1279.762 614.852)"/><line class="c" x1="30" y1="22.619" transform="translate(1249.814 607.58)"/><line class="c" y1="22.679" x2="30" transform="translate(1219.814 607.58)"/><line class="c" x1="30" y2="22.679" transform="translate(1249.815 630.199)"/><line class="c" x2="0.035" y2="8.208" transform="translate(1270.618 603.631)"/><line class="c" x2="16.072" y2="12.123" transform="translate(1270.653 611.839)"/><line class="c" x1="0.035" y1="8.208" transform="translate(1286.69 615.754)"/><line class="c" x1="16.072" y1="12.123" transform="translate(1270.618 603.631)"/><line class="c" x1="16.072" y2="12.163" transform="translate(1270.618 591.468)"/><line class="c" y1="12.163" x2="16.072" transform="translate(1286.69 603.591)"/><line class="c" x1="16.072" y1="12.123" transform="translate(1286.69 591.468)"/><line class="c" x1="0.035" y1="8.208" transform="translate(1286.69 591.468)"/><line class="c" x2="0.035" y2="8.208" transform="translate(1302.763 603.591)"/><line class="c" x1="16.072" y1="12.123" transform="translate(1286.725 599.676)"/><line class="c" y1="12.163" x2="16.072" transform="translate(1270.653 599.676)"/><line class="c" x1="16.072" y2="12.163" transform="translate(1286.725 611.799)"/><line class="c" x2="0.023" y2="4.389" transform="translate(1297.866 597.568)"/><line class="c" x2="8.611" y2="6.497" transform="translate(1297.889 601.958)"/><line class="c" x1="0.022" y1="4.389" transform="translate(1306.477 604.066)"/><line class="c" x1="8.611" y1="6.497" transform="translate(1297.866 597.568)"/><line class="c" x1="8.611" y2="6.523" transform="translate(1297.866 591.045)"/><line class="c" y1="6.523" x2="8.611" transform="translate(1306.477 597.543)"/><line class="c" x1="8.611" y1="6.497" transform="translate(1306.477 591.045)"/><line class="c" x1="0.022" y1="4.389" transform="translate(1306.477 591.045)"/><line class="c" x2="0.023" y2="4.39" transform="translate(1315.087 597.543)"/><line class="c" x1="8.611" y1="6.498" transform="translate(1306.499 595.435)"/><line class="c" y1="6.523" x2="8.611" transform="translate(1297.889 595.435)"/><line class="c" x1="8.611" y2="6.523" transform="translate(1306.499 601.932)"/><line class="c" x2="0.014" y2="2.347" transform="translate(1312.465 594.31)"/><line class="c" x2="4.613" y2="3.482" transform="translate(1312.48 596.658)"/><line class="c" x1="0.014" y1="2.347" transform="translate(1317.079 597.792)"/><line class="c" x1="4.613" y1="3.482" transform="translate(1312.465 594.31)"/><line class="c" x1="4.613" y2="3.499" transform="translate(1312.465 590.812)"/><line class="c" y1="3.499" x2="4.613" transform="translate(1317.079 594.294)"/><line class="c" x1="4.613" y1="3.482" transform="translate(1317.079 590.812)"/><line class="c" x1="0.014" y1="2.348" transform="translate(1317.079 590.812)"/><line class="c" x2="0.014" y2="2.348" transform="translate(1321.692 594.294)"/><line class="c" x1="4.613" y1="3.482" transform="translate(1317.093 593.159)"/><line class="c" y1="3.498" x2="4.613" transform="translate(1312.48 593.159)"/><line class="c" x1="4.613" y2="3.498" transform="translate(1317.093 596.641)"/><line class="c" x2="0.009" y2="1.255" transform="translate(1320.288 592.559)"/><line class="c" x2="2.471" y2="1.866" transform="translate(1320.297 593.815)"/><line class="c" x1="0.009" y1="1.255" transform="translate(1322.76 594.425)"/><line class="c" x1="2.472" y1="1.866" transform="translate(1320.288 592.559)"/><line class="c" x1="2.472" y2="1.876" transform="translate(1320.288 590.683)"/><line class="c" y1="1.876" x2="2.471" transform="translate(1322.76 592.549)"/><line class="c" x1="2.471" y1="1.866" transform="translate(1322.76 590.683)"/><line class="c" x1="0.008" y1="1.255" transform="translate(1322.76 590.683)"/><line class="c" x2="0.009" y2="1.255" transform="translate(1325.231 592.549)"/><line class="c" x1="2.472" y1="1.866" transform="translate(1322.768 591.938)"/><line class="c" y1="1.876" x2="2.471" transform="translate(1320.297 591.938)"/><line class="c" x1="2.471" y2="1.876" transform="translate(1322.768 593.805)"/><line class="c" x2="0.005" y2="0.671" transform="translate(1324.479 591.618)"/><line class="c" x2="1.324" y2="1" transform="translate(1324.484 592.289)"/><line class="c" x1="0.005" y1="0.671" transform="translate(1325.803 592.618)"/><line class="c" x1="1.324" y1="1" transform="translate(1324.479 591.618)"/><line class="c" x1="1.324" y2="1.006" transform="translate(1324.479 590.612)"/><line class="c" y1="1.006" x2="1.324" transform="translate(1325.803 591.612)"/><line class="c" x1="1.324" y1="1" transform="translate(1325.803 590.612)"/><line class="c" x1="0.005" y1="0.671" transform="translate(1325.803 590.612)"/><line class="c" x2="0.005" y2="0.671" transform="translate(1327.127 591.612)"/><line class="c" x1="1.324" y1="1" transform="translate(1325.808 591.283)"/><line class="c" y1="1.006" x2="1.324" transform="translate(1324.484 591.283)"/><line class="c" x1="1.324" y2="1.006" transform="translate(1325.808 592.283)"/><line class="c" x2="0.003" y2="0.359" transform="translate(1326.725 591.112)"/><line class="c" x2="0.709" y2="0.536" transform="translate(1326.728 591.471)"/><line class="c" x1="0.003" y1="0.359" transform="translate(1327.434 591.648)"/><line class="c" x1="0.709" y1="0.536" transform="translate(1326.725 591.112)"/><line class="c" x1="0.709" y2="0.54" transform="translate(1326.725 590.573)"/><line class="c" y1="0.54" x2="0.709" transform="translate(1327.434 591.109)"/><line class="c" x1="0.709" y1="0.536" transform="translate(1327.434 590.573)"/><line class="c" x1="0.003" y1="0.359" transform="translate(1327.434 590.573)"/><line class="c" x2="0.003" y2="0.359" transform="translate(1328.144 591.109)"/><line class="c" x1="0.709" y1="0.536" transform="translate(1327.437 590.932)"/><line class="c" y1="0.539" x2="0.709" transform="translate(1326.728 590.932)"/><line class="c" x1="0.709" y2="0.54" transform="translate(1327.437 591.468)"/><line class="c" x2="0.002" y2="0.192" transform="translate(1327.928 590.84)"/><line class="c" x2="0.38" y2="0.287" transform="translate(1327.93 591.032)"/><line class="c" x1="0.002" y1="0.192" transform="translate(1328.308 591.128)"/><line class="c" x1="0.38" y1="0.287" transform="translate(1327.928 590.84)"/><line class="c" x1="0.38" y2="0.29" transform="translate(1327.928 590.551)"/><line class="c" y1="0.289" x2="0.38" transform="translate(1328.308 590.838)"/><line class="c" x1="0.38" y1="0.288" transform="translate(1328.308 590.551)"/><line class="c" x1="0.002" y1="0.192" transform="translate(1328.308 590.551)"/><line class="c" x2="0.002" y2="0.192" transform="translate(1328.688 590.838)"/><line class="c" x1="0.38" y1="0.287" transform="translate(1328.31 590.743)"/><line class="c" y1="0.289" x2="0.38" transform="translate(1327.93 590.743)"/><line class="c" x1="0.38" y2="0.289" transform="translate(1328.31 591.03)"/><line class="c" y2="187.6" transform="translate(0 685.969)"/><line class="c" x2="364.159" y2="274.119" transform="translate(0 873.568)"/><line class="c" y1="187.6" transform="translate(364.159 960.088)"/><line class="c" x1="364.159" y1="274.12" transform="translate(0 685.969)"/><line class="c" x1="364.159" y2="274.12" transform="translate(0 411.849)"/><line class="c" y1="274.12" x2="364.159" transform="translate(364.159 685.969)"/><line class="c" x1="364.159" y1="274.12" transform="translate(364.159 411.849)"/><line class="c" y1="187.6" transform="translate(364.159 411.849)"/><line class="c" y2="187.6" transform="translate(728.317 685.969)"/><line class="c" x1="364.159" y1="274.119" transform="translate(364.159 599.449)"/><line class="c" y1="274.12" x2="364.159" transform="translate(0 599.449)"/><line class="c" x1="364.159" y2="274.12" transform="translate(364.159 873.568)"/><line class="c" x2="0.085" y2="100.33" transform="translate(617.072 550.77)"/><line class="c" x2="195.096" y2="146.917" transform="translate(617.157 651.101)"/><line class="c" x1="0.085" y1="100.33" transform="translate(812.168 697.688)"/><line class="c" x1="195.096" y1="146.917" transform="translate(617.072 550.77)"/><line class="c" x1="195.096" y2="147.015" transform="translate(617.072 403.755)"/><line class="c" y1="147.015" x2="195.096" transform="translate(812.168 550.672)"/><line class="c" x1="195.096" y1="146.918" transform="translate(812.168 403.755)"/><line class="c" x1="0.085" y1="100.33" transform="translate(812.168 403.755)"/><line class="c" x2="0.085" y2="100.33" transform="translate(1007.264 550.672)"/><line class="c" x1="195.096" y1="146.917" transform="translate(812.253 504.085)"/><line class="c" y1="147.015" x2="195.096" transform="translate(617.157 504.085)"/><line class="c" x1="195.096" y2="147.015" transform="translate(812.253 651.003)"/><line class="c" x2="0.091" y2="53.657" transform="translate(947.698 478.106)"/><line class="c" x2="104.522" y2="78.742" transform="translate(947.789 531.763)"/><line class="c" x1="0.091" y1="53.657" transform="translate(1052.219 556.848)"/><line class="c" x1="104.522" y1="78.742" transform="translate(947.698 478.106)"/><line class="c" x1="104.522" y2="78.847" transform="translate(947.698 399.259)"/><line class="c" y1="78.847" x2="104.522" transform="translate(1052.219 478.001)"/><line class="c" x1="104.522" y1="78.742" transform="translate(1052.219 399.259)"/><line class="c" x1="0.091" y1="53.657" transform="translate(1052.219 399.259)"/><line class="c" x2="0.091" y2="53.657" transform="translate(1156.741 478.001)"/><line class="c" x1="104.522" y1="78.742" transform="translate(1052.31 452.916)"/><line class="c" y1="78.847" x2="104.522" transform="translate(947.789 452.916)"/><line class="c" x1="104.522" y2="78.847" transform="translate(1052.31 531.658)"/><line class="c" x2="0.073" y2="28.696" transform="translate(1124.846 439.052)"/><line class="c" x2="55.997" y2="42.203" transform="translate(1124.919 467.748)"/><line class="c" x1="0.073" y1="28.696" transform="translate(1180.843 481.254)"/><line class="c" x1="55.997" y1="42.203" transform="translate(1124.846 439.052)"/><line class="c" x1="55.997" y2="42.287" transform="translate(1124.846 396.765)"/><line class="c" y1="42.287" x2="55.997" transform="translate(1180.843 438.967)"/><line class="c" x1="55.997" y1="42.203" transform="translate(1180.843 396.765)"/><line class="c" x1="0.073" y1="28.696" transform="translate(1180.843 396.765)"/><line class="c" x2="0.073" y2="28.696" transform="translate(1236.84 438.967)"/><line class="c" x1="55.997" y1="42.203" transform="translate(1180.916 425.461)"/><line class="c" y1="42.287" x2="55.997" transform="translate(1124.919 425.461)"/><line class="c" x1="55.997" y2="42.287" transform="translate(1180.916 467.664)"/><line class="c" x2="0.052" y2="15.347" transform="translate(1219.762 418.062)"/><line class="c" x2="30" y2="22.619" transform="translate(1219.814 433.409)"/><line class="c" x1="0.052" y1="15.347" transform="translate(1249.762 440.681)"/><line class="c" x1="30" y1="22.619" transform="translate(1219.762 418.062)"/><line class="c" x1="30" y2="22.679" transform="translate(1219.762 395.383)"/><line class="c" y1="22.679" x2="30" transform="translate(1249.762 418.002)"/><line class="c" x1="30" y1="22.619" transform="translate(1249.762 395.383)"/><line class="c" x1="0.052" y1="15.347" transform="translate(1249.762 395.383)"/><line class="c" x2="0.052" y2="15.347" transform="translate(1279.762 418.002)"/><line class="c" x1="30" y1="22.619" transform="translate(1249.814 410.73)"/><line class="c" y1="22.679" x2="30" transform="translate(1219.814 410.73)"/><line class="c" x1="30" y2="22.679" transform="translate(1249.815 433.348)"/><line class="c" x2="0.035" y2="8.207" transform="translate(1270.618 406.781)"/><line class="c" x2="16.072" y2="12.123" transform="translate(1270.653 414.988)"/><line class="c" x1="0.035" y1="8.208" transform="translate(1286.69 418.904)"/><line class="c" x1="16.072" y1="12.123" transform="translate(1270.618 406.781)"/><line class="c" x1="16.072" y2="12.163" transform="translate(1270.618 394.618)"/><line class="c" y1="12.163" x2="16.072" transform="translate(1286.69 406.741)"/><line class="c" x1="16.072" y1="12.123" transform="translate(1286.69 394.618)"/><line class="c" x1="0.035" y1="8.208" transform="translate(1286.69 394.618)"/><line class="c" x2="0.035" y2="8.208" transform="translate(1302.763 406.741)"/><line class="c" x1="16.072" y1="12.123" transform="translate(1286.725 402.826)"/><line class="c" y1="12.163" x2="16.072" transform="translate(1270.653 402.826)"/><line class="c" x1="16.072" y2="12.163" transform="translate(1286.725 414.948)"/><line class="c" x2="0.023" y2="4.389" transform="translate(1297.866 400.718)"/><line class="c" x2="8.611" y2="6.497" transform="translate(1297.889 405.108)"/><line class="c" x1="0.022" y1="4.39" transform="translate(1306.477 407.215)"/><line class="c" x1="8.611" y1="6.497" transform="translate(1297.866 400.718)"/><line class="c" x1="8.611" y2="6.523" transform="translate(1297.866 394.195)"/><line class="c" y1="6.523" x2="8.611" transform="translate(1306.477 400.692)"/><line class="c" x1="8.611" y1="6.498" transform="translate(1306.477 394.195)"/><line class="c" x1="0.022" y1="4.39" transform="translate(1306.477 394.195)"/><line class="c" x2="0.023" y2="4.389" transform="translate(1315.087 400.692)"/><line class="c" x1="8.611" y1="6.497" transform="translate(1306.499 398.584)"/><line class="c" y1="6.523" x2="8.611" transform="translate(1297.889 398.584)"/><line class="c" x1="8.611" y2="6.523" transform="translate(1306.499 405.082)"/><line class="c" x2="0.014" y2="2.348" transform="translate(1312.465 397.46)"/><line class="c" x2="4.613" y2="3.482" transform="translate(1312.48 399.807)"/><line class="c" x1="0.014" y1="2.347" transform="translate(1317.079 400.942)"/><line class="c" x1="4.613" y1="3.483" transform="translate(1312.465 397.46)"/><line class="c" x1="4.613" y2="3.498" transform="translate(1312.465 393.961)"/><line class="c" y1="3.499" x2="4.613" transform="translate(1317.079 397.444)"/><line class="c" x1="4.613" y1="3.482" transform="translate(1317.079 393.961)"/><line class="c" x1="0.014" y1="2.347" transform="translate(1317.079 393.961)"/><line class="c" x2="0.014" y2="2.347" transform="translate(1321.692 397.444)"/><line class="c" x1="4.613" y1="3.482" transform="translate(1317.093 396.309)"/><line class="c" y1="3.499" x2="4.613" transform="translate(1312.48 396.309)"/><line class="c" x1="4.613" y2="3.499" transform="translate(1317.093 399.791)"/><line class="c" x2="0.009" y2="1.255" transform="translate(1320.288 395.709)"/><line class="c" x2="2.471" y2="1.866" transform="translate(1320.297 396.964)"/><line class="c" x1="0.009" y1="1.255" transform="translate(1322.76 397.575)"/><line class="c" x1="2.472" y1="1.866" transform="translate(1320.288 395.709)"/><line class="c" x1="2.472" y2="1.876" transform="translate(1320.288 393.832)"/><line class="c" y1="1.876" x2="2.471" transform="translate(1322.76 395.699)"/><line class="c" x1="2.471" y1="1.866" transform="translate(1322.76 393.832)"/><line class="c" x1="0.008" y1="1.255" transform="translate(1322.76 393.832)"/><line class="c" x2="0.009" y2="1.255" transform="translate(1325.231 395.699)"/><line class="c" x1="2.472" y1="1.866" transform="translate(1322.768 395.088)"/><line class="c" y1="1.876" x2="2.471" transform="translate(1320.297 395.088)"/><line class="c" x1="2.471" y2="1.876" transform="translate(1322.768 396.954)"/><line class="c" x2="0.005" y2="0.671" transform="translate(1324.479 394.768)"/><line class="c" x2="1.324" y2="1" transform="translate(1324.484 395.439)"/><line class="c" x1="0.005" y1="0.671" transform="translate(1325.803 395.768)"/><line class="c" x1="1.324" y1="1" transform="translate(1324.479 394.768)"/><line class="c" x1="1.324" y2="1.006" transform="translate(1324.479 393.761)"/><line class="c" y1="1.006" x2="1.324" transform="translate(1325.803 394.761)"/><line class="c" x1="1.324" y1="1" transform="translate(1325.803 393.761)"/><line class="c" x1="0.005" y1="0.671" transform="translate(1325.803 393.761)"/><line class="c" x2="0.005" y2="0.671" transform="translate(1327.127 394.761)"/><line class="c" x1="1.324" y1="1" transform="translate(1325.808 394.433)"/><line class="c" y1="1.006" x2="1.324" transform="translate(1324.484 394.433)"/><line class="c" x1="1.324" y2="1.006" transform="translate(1325.808 395.433)"/><line class="c" x2="0.003" y2="0.359" transform="translate(1326.725 394.262)"/><line class="c" x2="0.709" y2="0.536" transform="translate(1326.728 394.621)"/><line class="c" x1="0.003" y1="0.359" transform="translate(1327.434 394.798)"/><line class="c" x1="0.709" y1="0.536" transform="translate(1326.725 394.262)"/><line class="c" x1="0.709" y2="0.54" transform="translate(1326.725 393.722)"/><line class="c" y1="0.54" x2="0.709" transform="translate(1327.434 394.258)"/><line class="c" x1="0.709" y1="0.536" transform="translate(1327.434 393.722)"/><line class="c" x1="0.003" y1="0.359" transform="translate(1327.434 393.722)"/><line class="c" x2="0.003" y2="0.359" transform="translate(1328.144 394.258)"/><line class="c" x1="0.709" y1="0.536" transform="translate(1327.437 394.081)"/><line class="c" y1="0.54" x2="0.709" transform="translate(1326.728 394.081)"/><line class="c" x1="0.709" y2="0.54" transform="translate(1327.437 394.617)"/><line class="c" x2="0.002" y2="0.192" transform="translate(1327.928 393.99)"/><line class="c" x2="0.38" y2="0.287" transform="translate(1327.93 394.182)"/><line class="c" x1="0.002" y1="0.192" transform="translate(1328.308 394.277)"/><line class="c" x1="0.38" y1="0.287" transform="translate(1327.928 393.99)"/><line class="c" x1="0.38" y2="0.289" transform="translate(1327.928 393.701)"/><line class="c" y1="0.289" x2="0.38" transform="translate(1328.308 393.988)"/><line class="c" x1="0.38" y1="0.287" transform="translate(1328.308 393.701)"/><line class="c" x1="0.002" y1="0.192" transform="translate(1328.308 393.701)"/><line class="c" x2="0.002" y2="0.192" transform="translate(1328.688 393.988)"/><line class="c" x1="0.38" y1="0.287" transform="translate(1328.31 393.893)"/><line class="c" y1="0.289" x2="0.38" transform="translate(1327.93 393.893)"/><line class="c" x1="0.38" y2="0.289" transform="translate(1328.31 394.18)"/><line class="c" y2="187.6" transform="translate(0 489.118)"/><line class="c" x2="364.159" y2="274.12" transform="translate(0 676.718)"/><line class="c" y1="187.6" transform="translate(364.159 763.238)"/><line class="c" x1="364.159" y1="274.119" transform="translate(0 489.118)"/><line class="c" x1="364.159" y2="274.12" transform="translate(0 214.999)"/><line class="c" y1="274.119" x2="364.159" transform="translate(364.159 489.118)"/><line class="c" x1="364.159" y1="274.12" transform="translate(364.159 214.999)"/><line class="c" y1="187.6" transform="translate(364.159 214.999)"/><line class="c" y2="187.6" transform="translate(728.317 489.118)"/><line class="c" x1="364.159" y1="274.119" transform="translate(364.159 402.598)"/><line class="c" y1="274.119" x2="364.159" transform="translate(0 402.598)"/><line class="c" x1="364.159" y2="274.12" transform="translate(364.159 676.718)"/><line class="c" x2="0.085" y2="100.33" transform="translate(617.072 353.92)"/><line class="c" x2="195.096" y2="146.917" transform="translate(617.157 454.25)"/><line class="c" x1="0.085" y1="100.33" transform="translate(812.168 500.837)"/><line class="c" x1="195.096" y1="146.917" transform="translate(617.072 353.92)"/><line class="c" x1="195.096" y2="147.015" transform="translate(617.072 206.904)"/><line class="c" y1="147.015" x2="195.096" transform="translate(812.168 353.822)"/><line class="c" x1="195.096" y1="146.917" transform="translate(812.168 206.904)"/><line class="c" x1="0.085" y1="100.33" transform="translate(812.168 206.904)"/><line class="c" x2="0.085" y2="100.33" transform="translate(1007.264 353.822)"/><line class="c" x1="195.096" y1="146.917" transform="translate(812.253 307.235)"/><line class="c" y1="147.015" x2="195.096" transform="translate(617.157 307.235)"/><line class="c" x1="195.096" y2="147.015" transform="translate(812.253 454.152)"/><line class="c" x2="0.091" y2="53.657" transform="translate(947.698 281.255)"/><line class="c" x2="104.522" y2="78.742" transform="translate(947.789 334.913)"/><line class="c" x1="0.091" y1="53.657" transform="translate(1052.219 359.997)"/><line class="c" x1="104.522" y1="78.742" transform="translate(947.698 281.255)"/><line class="c" x1="104.522" y2="78.847" transform="translate(947.698 202.408)"/><line class="c" y1="78.847" x2="104.522" transform="translate(1052.219 281.151)"/><line class="c" x1="104.522" y1="78.742" transform="translate(1052.219 202.408)"/><line class="c" x1="0.091" y1="53.657" transform="translate(1052.219 202.408)"/><line class="c" x2="0.091" y2="53.658" transform="translate(1156.741 281.151)"/><line class="c" x1="104.522" y1="78.742" transform="translate(1052.31 256.066)"/><line class="c" y1="78.847" x2="104.522" transform="translate(947.789 256.066)"/><line class="c" x1="104.522" y2="78.847" transform="translate(1052.31 334.808)"/><line class="c" x2="0.073" y2="28.696" transform="translate(1124.846 242.201)"/><line class="c" x2="55.997" y2="42.203" transform="translate(1124.919 270.898)"/><line class="c" x1="0.073" y1="28.696" transform="translate(1180.843 284.404)"/><line class="c" x1="55.997" y1="42.203" transform="translate(1124.846 242.201)"/><line class="c" x1="55.997" y2="42.287" transform="translate(1124.846 199.914)"/><line class="c" y1="42.287" x2="55.997" transform="translate(1180.843 242.117)"/><line class="c" x1="55.997" y1="42.203" transform="translate(1180.843 199.914)"/><line class="c" x1="0.073" y1="28.696" transform="translate(1180.843 199.914)"/><line class="c" x2="0.073" y2="28.696" transform="translate(1236.84 242.117)"/><line class="c" x1="55.997" y1="42.203" transform="translate(1180.916 228.611)"/><line class="c" y1="42.287" x2="55.997" transform="translate(1124.919 228.611)"/><line class="c" x1="55.997" y2="42.287" transform="translate(1180.916 270.813)"/><line class="c" x2="0.052" y2="15.347" transform="translate(1219.762 221.211)"/><line class="c" x2="30" y2="22.619" transform="translate(1219.814 236.558)"/><line class="c" x1="0.052" y1="15.347" transform="translate(1249.762 243.83)"/><line class="c" x1="30" y1="22.619" transform="translate(1219.762 221.211)"/><line class="c" x1="30" y2="22.679" transform="translate(1219.762 198.532)"/><line class="c" y1="22.679" x2="30" transform="translate(1249.762 221.151)"/><line class="c" x1="30" y1="22.619" transform="translate(1249.762 198.532)"/><line class="c" x1="0.052" y1="15.347" transform="translate(1249.762 198.532)"/><line class="c" x2="0.052" y2="15.347" transform="translate(1279.762 221.151)"/><line class="c" x1="30" y1="22.619" transform="translate(1249.814 213.879)"/><line class="c" y1="22.679" x2="30" transform="translate(1219.814 213.879)"/><line class="c" x1="30" y2="22.679" transform="translate(1249.814 236.498)"/><line class="c" x2="0.035" y2="8.208" transform="translate(1270.618 209.931)"/><line class="c" x2="16.073" y2="12.123" transform="translate(1270.653 218.138)"/><line class="c" x1="0.035" y1="8.208" transform="translate(1286.69 222.053)"/><line class="c" x1="16.072" y1="12.123" transform="translate(1270.618 209.931)"/><line class="c" x1="16.072" y2="12.163" transform="translate(1270.618 197.768)"/><line class="c" y1="12.163" x2="16.072" transform="translate(1286.69 209.89)"/><line class="c" x1="16.072" y1="12.123" transform="translate(1286.69 197.768)"/><line class="c" x1="0.035" y1="8.208" transform="translate(1286.69 197.768)"/><line class="c" x2="0.035" y2="8.207" transform="translate(1302.763 209.89)"/><line class="c" x1="16.072" y1="12.123" transform="translate(1286.725 205.975)"/><line class="c" y1="12.163" x2="16.072" transform="translate(1270.653 205.975)"/><line class="c" x1="16.072" y2="12.163" transform="translate(1286.725 218.098)"/><line class="c" x2="0.022" y2="4.39" transform="translate(1297.866 203.868)"/><line class="c" x2="8.611" y2="6.497" transform="translate(1297.889 208.257)"/><line class="c" x1="0.022" y1="4.389" transform="translate(1306.477 210.365)"/><line class="c" x1="8.611" y1="6.497" transform="translate(1297.866 203.868)"/><line class="c" x1="8.611" y2="6.523" transform="translate(1297.866 197.344)"/><line class="c" y1="6.523" x2="8.611" transform="translate(1306.477 203.842)"/><line class="c" x1="8.611" y1="6.498" transform="translate(1306.477 197.344)"/><line class="c" x1="0.022" y1="4.39" transform="translate(1306.477 197.344)"/><line class="c" x2="0.023" y2="4.389" transform="translate(1315.087 203.842)"/><line class="c" x1="8.611" y1="6.497" transform="translate(1306.499 201.734)"/><line class="c" y1="6.523" x2="8.611" transform="translate(1297.889 201.734)"/><line class="c" x1="8.611" y2="6.523" transform="translate(1306.499 208.231)"/><line class="c" x2="0.014" y2="2.348" transform="translate(1312.465 200.609)"/><line class="c" x2="4.613" y2="3.482" transform="translate(1312.48 202.957)"/><line class="c" x1="0.014" y1="2.347" transform="translate(1317.079 204.092)"/><line class="c" x1="4.613" y1="3.482" transform="translate(1312.465 200.609)"/><line class="c" x1="4.613" y2="3.499" transform="translate(1312.465 197.111)"/><line class="c" y1="3.498" x2="4.613" transform="translate(1317.079 200.593)"/><line class="c" x1="4.613" y1="3.482" transform="translate(1317.079 197.111)"/><line class="c" x1="0.014" y1="2.348" transform="translate(1317.079 197.111)"/><line class="c" x2="0.014" y2="2.348" transform="translate(1321.692 200.593)"/><line class="c" x1="4.613" y1="3.482" transform="translate(1317.093 199.458)"/><line class="c" y1="3.498" x2="4.613" transform="translate(1312.48 199.458)"/><line class="c" x1="4.613" y2="3.498" transform="translate(1317.093 202.941)"/><line class="c" x2="0.009" y2="1.255" transform="translate(1320.288 198.859)"/><line class="c" x2="2.471" y2="1.866" transform="translate(1320.297 200.114)"/><line class="c" x1="0.008" y1="1.255" transform="translate(1322.76 200.725)"/><line class="c" x1="2.472" y1="1.866" transform="translate(1320.288 198.859)"/><line class="c" x1="2.472" y2="1.876" transform="translate(1320.288 196.982)"/><line class="c" y1="1.876" x2="2.471" transform="translate(1322.76 198.848)"/><line class="c" x1="2.471" y1="1.866" transform="translate(1322.76 196.982)"/><line class="c" x1="0.009" y1="1.255" transform="translate(1322.76 196.982)"/><line class="c" x2="0.009" y2="1.255" transform="translate(1325.231 198.848)"/><line class="c" x1="2.471" y1="1.866" transform="translate(1322.768 198.237)"/><line class="c" y1="1.876" x2="2.471" transform="translate(1320.297 198.237)"/><line class="c" x1="2.471" y2="1.876" transform="translate(1322.768 200.104)"/><line class="c" x2="0.005" y2="0.671" transform="translate(1324.479 197.917)"/><line class="c" x2="1.324" y2="1" transform="translate(1324.484 198.589)"/><line class="c" x1="0.005" y1="0.671" transform="translate(1325.803 198.918)"/><line class="c" x1="1.324" y1="1" transform="translate(1324.479 197.917)"/><line class="c" x1="1.324" y2="1.006" transform="translate(1324.479 196.911)"/><line class="c" y1="1.006" x2="1.324" transform="translate(1325.803 197.911)"/><line class="c" x1="1.324" y1="1" transform="translate(1325.803 196.911)"/><line class="c" x1="0.005" y1="0.671" transform="translate(1325.803 196.911)"/><line class="c" x2="0.005" y2="0.671" transform="translate(1327.127 197.911)"/><line class="c" x1="1.324" y1="1" transform="translate(1325.808 197.582)"/><line class="c" y1="1.006" x2="1.324" transform="translate(1324.484 197.582)"/><line class="c" x1="1.324" y2="1.006" transform="translate(1325.808 198.583)"/><line class="c" x2="0.003" y2="0.359" transform="translate(1326.725 197.412)"/><line class="c" x2="0.709" y2="0.536" transform="translate(1326.728 197.771)"/><line class="c" x1="0.003" y1="0.359" transform="translate(1327.434 197.948)"/><line class="c" x1="0.709" y1="0.536" transform="translate(1326.725 197.412)"/><line class="c" x1="0.709" y2="0.54" transform="translate(1326.725 196.872)"/><line class="c" y1="0.54" x2="0.709" transform="translate(1327.434 197.408)"/><line class="c" x1="0.709" y1="0.536" transform="translate(1327.434 196.872)"/><line class="c" x1="0.003" y1="0.359" transform="translate(1327.434 196.872)"/><line class="c" x2="0.003" y2="0.359" transform="translate(1328.144 197.408)"/><line class="c" x1="0.709" y1="0.536" transform="translate(1327.437 197.231)"/><line class="c" y1="0.54" x2="0.709" transform="translate(1326.728 197.231)"/><line class="c" x1="0.709" y2="0.54" transform="translate(1327.437 197.767)"/><line class="c" x2="0.002" y2="0.192" transform="translate(1327.928 197.14)"/><line class="c" x2="0.38" y2="0.287" transform="translate(1327.93 197.332)"/><line class="c" x1="0.002" y1="0.192" transform="translate(1328.308 197.427)"/><line class="c" x1="0.38" y1="0.287" transform="translate(1327.928 197.14)"/><line class="c" x1="0.38" y2="0.289" transform="translate(1327.928 196.85)"/><line class="c" y1="0.29" x2="0.38" transform="translate(1328.308 197.138)"/><line class="c" x1="0.38" y1="0.287" transform="translate(1328.308 196.85)"/><line class="c" x1="0.002" y1="0.192" transform="translate(1328.308 196.85)"/><line class="c" x2="0.002" y2="0.192" transform="translate(1328.688 197.138)"/><line class="c" x1="0.38" y1="0.288" transform="translate(1328.31 197.042)"/><line class="c" y1="0.289" x2="0.38" transform="translate(1327.93 197.042)"/><line class="c" x1="0.38" y2="0.289" transform="translate(1328.31 197.33)"/><line class="c" y2="187.6" transform="translate(0 292.268)"/><line class="c" x2="364.159" y2="274.119" transform="translate(0 479.868)"/><line class="c" y1="187.6" transform="translate(364.159 566.387)"/><line class="c" x1="364.159" y1="274.12" transform="translate(0 292.268)"/><line class="c" x1="364.159" y2="274.119" transform="translate(0 18.148)"/><line class="c" y1="274.12" x2="364.159" transform="translate(364.159 292.268)"/><line class="c" x1="364.159" y1="274.119" transform="translate(364.159 18.148)"/><line class="c" y1="187.6" transform="translate(364.159 18.148)"/><line class="c" y2="187.6" transform="translate(728.317 292.268)"/><line class="c" x1="364.159" y1="274.12" transform="translate(364.159 205.748)"/><line class="c" y1="274.12" x2="364.159" transform="translate(0 205.748)"/><line class="c" x1="364.159" y2="274.119" transform="translate(364.159 479.868)"/><line class="c" x2="0.085" y2="100.33" transform="translate(617.072 157.07)"/><line class="c" x2="195.096" y2="146.917" transform="translate(617.157 257.4)"/><line class="c" x1="0.085" y1="100.33" transform="translate(812.168 303.987)"/><line class="c" x1="195.096" y1="146.918" transform="translate(617.072 157.07)"/><line class="c" x1="195.096" y2="147.016" transform="translate(617.072 10.054)"/><line class="c" y1="147.016" x2="195.096" transform="translate(812.168 156.972)"/><line class="c" x1="195.096" y1="146.918" transform="translate(812.168 10.054)"/><line class="c" x1="0.085" y1="100.33" transform="translate(812.168 10.054)"/><line class="c" x2="0.085" y2="100.33" transform="translate(1007.264 156.972)"/><line class="c" x1="195.096" y1="146.917" transform="translate(812.253 110.384)"/><line class="c" y1="147.015" x2="195.096" transform="translate(617.157 110.384)"/><line class="c" x1="195.096" y2="147.015" transform="translate(812.253 257.302)"/><line class="c" x2="0.091" y2="53.658" transform="translate(947.698 84.405)"/><line class="c" x2="104.522" y2="78.742" transform="translate(947.789 138.063)"/><line class="c" x1="0.091" y1="53.658" transform="translate(1052.219 163.147)"/><line class="c" x1="104.522" y1="78.742" transform="translate(947.698 84.405)"/><line class="c" x1="104.522" y2="78.847" transform="translate(947.698 5.558)"/><line class="c" y1="78.847" x2="104.522" transform="translate(1052.219 84.3)"/><line class="c" x1="104.522" y1="78.742" transform="translate(1052.219 5.558)"/><line class="c" x1="0.091" y1="53.657" transform="translate(1052.219 5.558)"/><line class="c" x2="0.091" y2="53.657" transform="translate(1156.741 84.3)"/><line class="c" x1="104.522" y1="78.742" transform="translate(1052.31 59.216)"/><line class="c" y1="78.847" x2="104.522" transform="translate(947.789 59.216)"/><line class="c" x1="104.522" y2="78.847" transform="translate(1052.31 137.957)"/><line class="c" x2="0.073" y2="28.696" transform="translate(1124.846 45.351)"/><line class="c" x2="55.997" y2="42.203" transform="translate(1124.919 74.047)"/><line class="c" x1="0.073" y1="28.696" transform="translate(1180.843 87.553)"/><line class="c" x1="55.997" y1="42.202" transform="translate(1124.846 45.351)"/><line class="c" x1="55.997" y2="42.287" transform="translate(1124.846 3.064)"/><line class="c" y1="42.287" x2="55.997" transform="translate(1180.843 45.267)"/><line class="c" x1="55.997" y1="42.203" transform="translate(1180.843 3.064)"/><line class="c" x1="0.073" y1="28.696" transform="translate(1180.843 3.064)"/><line class="c" x2="0.073" y2="28.696" transform="translate(1236.84 45.267)"/><line class="c" x1="55.997" y1="42.202" transform="translate(1180.916 31.76)"/><line class="c" y1="42.287" x2="55.997" transform="translate(1124.919 31.76)"/><line class="c" x1="55.997" y2="42.287" transform="translate(1180.916 73.963)"/><line class="c" x2="0.052" y2="15.347" transform="translate(1219.762 24.361)"/><line class="c" x2="30" y2="22.619" transform="translate(1219.814 39.708)"/><line class="c" x1="0.052" y1="15.347" transform="translate(1249.762 46.98)"/><line class="c" x1="30" y1="22.619" transform="translate(1219.762 24.361)"/><line class="c" x1="30" y2="22.679" transform="translate(1219.762 1.682)"/><line class="c" y1="22.679" x2="30" transform="translate(1249.762 24.301)"/><line class="c" x1="30" y1="22.619" transform="translate(1249.762 1.682)"/><line class="c" x1="0.052" y1="15.347" transform="translate(1249.762 1.682)"/><line class="c" x2="0.052" y2="15.347" transform="translate(1279.762 24.301)"/><line class="c" x1="30" y1="22.619" transform="translate(1249.814 17.029)"/><line class="c" y1="22.679" x2="30" transform="translate(1219.814 17.029)"/><line class="c" x1="30" y2="22.679" transform="translate(1249.814 39.648)"/><line class="c" x2="0.035" y2="8.208" transform="translate(1270.618 13.08)"/><line class="c" x2="16.073" y2="12.123" transform="translate(1270.653 21.288)"/><line class="c" x1="0.035" y1="8.208" transform="translate(1286.69 25.203)"/><line class="c" x1="16.072" y1="12.123" transform="translate(1270.618 13.08)"/><line class="c" x1="16.072" y2="12.163" transform="translate(1270.618 0.917)"/><line class="c" y1="12.163" x2="16.072" transform="translate(1286.69 13.04)"/><line class="c" x1="16.072" y1="12.123" transform="translate(1286.69 0.917)"/><line class="c" x1="0.035" y1="8.208" transform="translate(1286.69 0.917)"/><line class="c" x2="0.035" y2="8.208" transform="translate(1302.763 13.04)"/><line class="c" x1="16.072" y1="12.123" transform="translate(1286.725 9.125)"/><line class="c" y1="12.163" x2="16.072" transform="translate(1270.653 9.125)"/><line class="c" x1="16.072" y2="12.163" transform="translate(1286.725 21.248)"/><line class="c" x2="0.022" y2="4.389" transform="translate(1297.866 7.017)"/><line class="c" x2="8.611" y2="6.497" transform="translate(1297.889 11.407)"/><line class="c" x1="0.022" y1="4.389" transform="translate(1306.477 13.515)"/><line class="c" x1="8.611" y1="6.497" transform="translate(1297.866 7.017)"/><line class="c" x1="8.611" y2="6.523" transform="translate(1297.866 0.494)"/><line class="c" y1="6.523" x2="8.611" transform="translate(1306.477 6.992)"/><line class="c" x1="8.611" y1="6.497" transform="translate(1306.477 0.494)"/><line class="c" x1="0.022" y1="4.389" transform="translate(1306.477 0.494)"/><line class="c" x2="0.023" y2="4.389" transform="translate(1315.087 6.992)"/><line class="c" x1="8.611" y1="6.497" transform="translate(1306.499 4.884)"/><line class="c" y1="6.523" x2="8.611" transform="translate(1297.889 4.884)"/><line class="c" x1="8.611" y2="6.523" transform="translate(1306.499 11.381)"/><line class="c" x2="0.014" y2="2.347" transform="translate(1312.465 3.759)"/><line class="c" x2="4.613" y2="3.483" transform="translate(1312.48 6.106)"/><line class="c" x1="0.014" y1="2.347" transform="translate(1317.079 7.241)"/><line class="c" x1="4.613" y1="3.482" transform="translate(1312.465 3.759)"/><line class="c" x1="4.613" y2="3.498" transform="translate(1312.465 0.261)"/><line class="c" y1="3.498" x2="4.613" transform="translate(1317.079 3.743)"/><line class="c" x1="4.613" y1="3.482" transform="translate(1317.079 0.261)"/><line class="c" x1="0.014" y1="2.347" transform="translate(1317.079 0.261)"/><line class="c" x2="0.014" y2="2.348" transform="translate(1321.692 3.743)"/><line class="c" x1="4.613" y1="3.482" transform="translate(1317.093 2.608)"/><line class="c" y1="3.498" x2="4.613" transform="translate(1312.48 2.608)"/><line class="c" x1="4.613" y2="3.498" transform="translate(1317.093 6.09)"/><line class="c" x2="0.009" y2="1.255" transform="translate(1320.288 2.008)"/><line class="c" x2="2.471" y2="1.866" transform="translate(1320.297 3.263)"/><line class="c" x1="0.008" y1="1.255" transform="translate(1322.76 3.874)"/><line class="c" x1="2.472" y1="1.866" transform="translate(1320.288 2.008)"/><line class="c" x1="2.472" y2="1.876" transform="translate(1320.288 0.132)"/><line class="c" y1="1.876" x2="2.471" transform="translate(1322.76 1.998)"/><line class="c" x1="2.471" y1="1.866" transform="translate(1322.76 0.132)"/><line class="c" x1="0.009" y1="1.256" transform="translate(1322.76 0.132)"/><line class="c" x2="0.009" y2="1.256" transform="translate(1325.231 1.998)"/><line class="c" x1="2.471" y1="1.866" transform="translate(1322.768 1.387)"/><line class="c" y1="1.876" x2="2.471" transform="translate(1320.297 1.387)"/><line class="c" x1="2.471" y2="1.876" transform="translate(1322.768 3.254)"/><line class="c" x2="0.005" y2="0.671" transform="translate(1324.479 1.067)"/><line class="c" x2="1.324" y2="1" transform="translate(1324.484 1.738)"/><line class="c" x1="0.005" y1="0.672" transform="translate(1325.803 2.067)"/><line class="c" x1="1.324" y1="1" transform="translate(1324.479 1.067)"/><line class="c" x1="1.324" y2="1.006" transform="translate(1324.479 0.061)"/><line class="c" y1="1.006" x2="1.324" transform="translate(1325.803 1.061)"/><line class="c" x1="1.324" y1="1" transform="translate(1325.803 0.061)"/><line class="c" x1="0.005" y1="0.672" transform="translate(1325.803 0.061)"/><line class="c" x2="0.005" y2="0.671" transform="translate(1327.127 1.061)"/><line class="c" x1="1.324" y1="1" transform="translate(1325.808 0.732)"/><line class="c" y1="1.006" x2="1.324" transform="translate(1324.484 0.732)"/><line class="c" x1="1.324" y2="1.006" transform="translate(1325.808 1.732)"/><line class="c" x2="0.003" y2="0.359" transform="translate(1326.725 0.561)"/><line class="c" x2="0.709" y2="0.536" transform="translate(1326.728 0.92)"/><line class="c" x1="0.003" y1="0.359" transform="translate(1327.434 1.097)"/><line class="c" x1="0.709" y1="0.536" transform="translate(1326.725 0.561)"/><line class="c" x1="0.709" y2="0.54" transform="translate(1326.725 0.022)"/><line class="c" y1="0.54" x2="0.709" transform="translate(1327.434 0.558)"/><line class="c" x1="0.709" y1="0.536" transform="translate(1327.434 0.022)"/><line class="c" x1="0.003" y1="0.359" transform="translate(1327.434 0.022)"/><line class="c" x2="0.003" y2="0.359" transform="translate(1328.144 0.558)"/><line class="c" x1="0.709" y1="0.536" transform="translate(1327.437 0.381)"/><line class="c" y1="0.54" x2="0.709" transform="translate(1326.728 0.381)"/><line class="c" x1="0.709" y2="0.54" transform="translate(1327.437 0.917)"/><line class="c" x2="0.002" y2="0.192" transform="translate(1327.928 0.289)"/><line class="c" x2="0.38" y2="0.287" transform="translate(1327.93 0.481)"/><line class="c" x1="0.002" y1="0.192" transform="translate(1328.308 0.577)"/><line class="c" x1="0.38" y1="0.287" transform="translate(1327.928 0.289)"/><line class="c" x1="0.38" y2="0.289" transform="translate(1327.928)"/><line class="c" y1="0.29" x2="0.38" transform="translate(1328.308 0.287)"/><line class="c" x1="0.38" y1="0.287" transform="translate(1328.308)"/><line class="c" x1="0.002" y1="0.192" transform="translate(1328.308)"/><line class="c" x2="0.002" y2="0.192" transform="translate(1328.688 0.287)"/><line class="c" x1="0.38" y1="0.287" transform="translate(1328.31 0.192)"/><line class="c" y1="0.289" x2="0.38" transform="translate(1327.93 0.192)"/><line class="c" x1="0.38" y2="0.289" transform="translate(1328.31 0.479)"/></g></g></g></svg>