<svg xmlns="http://www.w3.org/2000/svg" viewBox="0 0 80 80"><defs><style>.a{fill:#fff;}.b{fill:#e6eaed;}.c{fill:#8997a5;}.d{fill:none;}</style></defs><g transform="translate(-389 -2453)"><rect class="a" width="80" height="80" transform="translate(389 2453)"/><g transform="translate(399 2463)"><path class="b" d="M28.033,25,24.7,31.667h6.667Z" transform="translate(-21.407 -21.667)"/><rect class="c" width="36.667" height="3.333" transform="translate(16.667 30)"/><rect class="c" width="18.267" height="3.333" transform="translate(16.667 36.667)"/><path class="c" d="M25,121.667h6.667V75H25Z" transform="translate(-21.667 -65)"/><path class="b" d="M100,66.787V78.333h43.333V25H100Zm3.333-28.453H140v3.333H103.333Zm0,6.667H140v3.333H103.333Zm0,6.667H140V55H103.333Zm0,6.667H121.6v3.333H103.333Z" transform="translate(-86.667 -21.667)"/><rect class="c" width="36.667" height="3.333" transform="translate(16.667 23.333)"/><rect class="c" width="36.667" height="3.333" transform="translate(16.667 16.667)"/><rect class="d" width="60" height="60"/></g></g></svg>