<svg xmlns="http://www.w3.org/2000/svg" viewBox="0 0 80 80"><defs><style>.a{fill:#fff;}.b{fill:#70cbff;}.c{fill:#2970ff;}.d{fill:#6ed3f3;}.e{fill:none;}</style></defs><g transform="translate(-227 -1846)"><rect class="a" width="80" height="80" transform="translate(227 1846)"/><g transform="translate(297 1916) rotate(180)"><path class="b" d="M35,367.933H31.667V363H28.333v4.933H25v3.333H35Z" transform="translate(-21.667 -314.6)"/><path class="b" d="M31.667,158.4v-5.067H35V150H25v3.333h3.333V158.4h3.333Z" transform="translate(-21.667 -130)"/><path class="c" d="M31.667,233H35V213H25v20h6.667Z" transform="translate(-21.667 -184.6)"/><path class="b" d="M136.333,288v4.933H133v3.333h10v-3.333h-3.333V288Z" transform="translate(-115.267 -249.6)"/><path class="b" d="M241,242.933v3.333h10v-3.333h-3.333V238h-3.333v4.933Z" transform="translate(-208.867 -206.267)"/><path class="b" d="M353.333,313v4.933H350v3.333h10v-3.333h-3.333V313h-3.333Z" transform="translate(-303.333 -271.267)"/><path class="b" d="M350,103.333h3.333V108.4h3.333v-5.067H360V100H350Z" transform="translate(-303.333 -86.667)"/><path class="c" d="M353.333,163H350v20h10V163h-6.667Z" transform="translate(-303.333 -141.267)"/><path class="d" d="M133,78.333h3.333V83.4h3.333V78.333H143V75H133Z" transform="translate(-115.267 -65)"/><path class="c" d="M136.333,138H133v20h10V138h-6.667Z" transform="translate(-115.267 -119.6)"/><path class="d" d="M247.667,33.4V28.333H251V25H241v3.333h3.333V33.4h3.333Z" transform="translate(-208.867 -21.667)"/><path class="c" d="M247.667,108H251V88H241v20h6.667Z" transform="translate(-208.867 -76.267)"/><rect class="e" width="60" height="60"/></g></g></svg>