<svg xmlns="http://www.w3.org/2000/svg" viewBox="0 0 80 80"><defs><style>.a{fill:#fff;}.b{fill:#8996a5;}.c{fill:#e6eaed;}</style></defs><g transform="translate(-389 -2711)"><rect class="a" width="80" height="80" transform="translate(389 2711)"/><g transform="translate(399 2719)"><g transform="translate(8.791 11.403)"><path class="b" d="M66.86,108.1h0a.425.425,0,0,1-.313-.522h0a.425.425,0,0,1,.522-.313h0a.425.425,0,0,1,.313.522h0a.444.444,0,0,1-.418.331h0A.221.221,0,0,1,66.86,108.1ZM65,107.54h0a.432.432,0,0,1-.261-.557h0a.432.432,0,0,1,.557-.261h0a.432.432,0,0,1,.261.557h0a.451.451,0,0,1-.418.3h0A.41.41,0,0,1,65,107.54Zm-1.811-.731h0a.424.424,0,0,1-.209-.575h0a.424.424,0,0,1,.575-.209h0a.424.424,0,0,1,.209.575h0a.44.44,0,0,1-.4.261h0A.663.663,0,0,1,63.187,106.809Zm-1.741-.888a.43.43,0,0,1-.157-.592h0a.43.43,0,0,1,.592-.157h0a.43.43,0,0,1,.157.592h0a.454.454,0,0,1-.383.226h0A.982.982,0,0,1,61.446,105.921Zm-1.654-1.045a.44.44,0,0,1-.1-.609h0a.44.44,0,0,1,.609-.1h0a.443.443,0,0,1,.1.609h0a.448.448,0,0,1-.348.192h0A.428.428,0,0,1,59.792,104.876Zm-1.55-1.184a.423.423,0,0,1-.052-.609h0a.423.423,0,0,1,.609-.052h0a.423.423,0,0,1,.052.609h0a.429.429,0,0,1-.331.157h0A.427.427,0,0,1,58.242,103.692ZM56.8,102.369a.421.421,0,0,1,0-.609h0a.421.421,0,0,1,.609,0h0a.421.421,0,0,1,0,.609h0a.42.42,0,0,1-.313.122h0A.408.408,0,0,1,56.8,102.369Zm-1.306-1.445a.437.437,0,0,1,.052-.609h0a.437.437,0,0,1,.609.052h0a.437.437,0,0,1-.052.609h0a.427.427,0,0,1-.279.1h0A.429.429,0,0,1,55.492,100.924Zm-1.184-1.55a.443.443,0,0,1,.1-.609h0a.443.443,0,0,1,.609.1h0a.443.443,0,0,1-.1.609h0a.4.4,0,0,1-.244.07h0A.4.4,0,0,1,54.308,99.375Zm-1.045-1.654h0a.435.435,0,0,1,.174-.592h0a.421.421,0,0,1,.592.174h0a.435.435,0,0,1-.174.592h0a.464.464,0,0,1-.209.052h0A.5.5,0,0,1,53.263,97.721Zm-.871-1.741a.434.434,0,0,1,.209-.575h0a.434.434,0,0,1,.575.209h0a.434.434,0,0,1-.209.575h0a.619.619,0,0,1-.174.035h0A.425.425,0,0,1,52.392,95.98Zm-.731-1.828a.432.432,0,0,1,.261-.557h0a.432.432,0,0,1,.557.261h0a.432.432,0,0,1-.261.557h0a.383.383,0,0,1-.139.017h0A.406.406,0,0,1,51.661,94.152Zm-.54-1.863h0a.438.438,0,0,1,.313-.522h0a.438.438,0,0,1,.522.313h0a.438.438,0,0,1-.313.522h0c-.035,0-.07.017-.1.017h0A.429.429,0,0,1,51.122,92.289Zm-.383-1.915h0a.447.447,0,0,1,.366-.5h0a.447.447,0,0,1,.5.366h0a.421.421,0,0,1-.366.487h-.07A.4.4,0,0,1,50.739,90.374Zm-.209-1.95a.418.418,0,0,1,.4-.453h0a.445.445,0,0,1,.47.4h0a.418.418,0,0,1-.4.453h-.035A.424.424,0,0,1,50.53,88.424Zm.383-1.5a.421.421,0,0,1-.418-.453h0a.421.421,0,0,1,.453-.418h0a.421.421,0,0,1,.418.453h0a.455.455,0,0,1-.453.418Zm.1-1.915a.446.446,0,0,1-.383-.487h0a.433.433,0,0,1,.487-.383h0a.446.446,0,0,1,.383.487h0a.422.422,0,0,1-.435.383h-.052Zm.261-1.9a.418.418,0,0,1-.331-.5h0a.428.428,0,0,1,.522-.331h0a.44.44,0,0,1,.331.522h0a.427.427,0,0,1-.418.348h0A.247.247,0,0,0,51.278,83.113Zm.435-1.863a.44.44,0,0,1-.3-.54h0a.44.44,0,0,1,.54-.3h0a.44.44,0,0,1,.3.54h0a.428.428,0,0,1-.418.313h0A.34.34,0,0,1,51.714,81.251Zm.609-1.811a.443.443,0,0,1-.244-.575h0a.443.443,0,0,1,.575-.244h0a.443.443,0,0,1,.244.575h0a.413.413,0,0,1-.4.261h0A.3.3,0,0,1,52.323,79.44Zm.766-1.758a.447.447,0,0,1-.192-.592h0a.447.447,0,0,1,.592-.192h0a.447.447,0,0,1,.192.592h0a.417.417,0,0,1-.383.244h0A.464.464,0,0,1,53.089,77.681Zm.923-1.671a.449.449,0,0,1-.139-.609h0a.428.428,0,0,1,.592-.139h0a.449.449,0,0,1,.139.609h0a.454.454,0,0,1-.366.192h0A.389.389,0,0,1,54.012,76.01Zm1.079-1.6a.424.424,0,0,1-.07-.609h0a.422.422,0,0,1,.609-.07h0a.422.422,0,0,1,.07.609h0a.454.454,0,0,1-.348.174h0A.384.384,0,0,1,55.091,74.408Zm1.2-1.48a.421.421,0,0,1-.017-.609h0a.421.421,0,0,1,.609-.017h0a.421.421,0,0,1,.017.609h0a.468.468,0,0,1-.313.139h0A.408.408,0,0,1,56.292,72.928Zm1.341-1.375a.437.437,0,0,1,.035-.609h0a.437.437,0,0,1,.609.035h0a.437.437,0,0,1-.035.609h0a.473.473,0,0,1-.3.1h0A.352.352,0,0,1,57.633,71.553ZM59.1,70.317a.44.44,0,0,1,.087-.609h0a.44.44,0,0,1,.609.087h0a.44.44,0,0,1-.087.609h0a.518.518,0,0,1-.261.087h0A.429.429,0,0,1,59.1,70.317Zm1.55-1.114a.425.425,0,0,1,.139-.592h0a.425.425,0,0,1,.592.139h0a.425.425,0,0,1-.139.592h0a.567.567,0,0,1-.226.07h0A.429.429,0,0,1,60.645,69.2Zm1.654-.958a.458.458,0,0,1,.192-.592h0a.458.458,0,0,1,.592.192h0a.458.458,0,0,1-.192.592h0a.4.4,0,0,1-.192.052h0A.491.491,0,0,1,62.3,68.245Zm1.741-.818a.424.424,0,0,1,.244-.557h0a.424.424,0,0,1,.557.244h0a.424.424,0,0,1-.244.557h0a.508.508,0,0,1-.157.035h0A.413.413,0,0,1,64.04,67.427Zm1.793-.644a.44.44,0,0,1,.3-.54h0a.44.44,0,0,1,.54.3h0a.44.44,0,0,1-.3.54h0a.3.3,0,0,1-.122.017h0A.45.45,0,0,1,65.833,66.783Zm1.845-.487a.414.414,0,0,1,.348-.5h0a.414.414,0,0,1,.5.348h0a.414.414,0,0,1-.348.5H68.1A.441.441,0,0,1,67.679,66.3Zm1.9-.331a.431.431,0,0,1,.383-.47h0a.431.431,0,0,1,.47.383h0a.431.431,0,0,1-.383.47h-.035A.409.409,0,0,1,69.576,65.964Z" transform="translate(-50.494 -65.493)"/><g transform="translate(23.399 0.547)"><path class="b" d="M184.894,110.85a.431.431,0,0,1,.383-.47h0a.431.431,0,0,1,.47.383h0a.431.431,0,0,1-.383.47h-.035A.431.431,0,0,1,184.894,110.85Zm1.9-.244a.414.414,0,0,1,.348-.5h0a.422.422,0,0,1,.5.348h0a.414.414,0,0,1-.348.5h-.087A.423.423,0,0,1,186.792,110.607Zm1.88-.4a.44.44,0,0,1,.3-.54h0a.44.44,0,0,1,.54.3h0a.44.44,0,0,1-.3.54h0a.3.3,0,0,1-.122.017h0A.428.428,0,0,1,188.672,110.206Zm1.828-.575a.424.424,0,0,1,.244-.557h0a.424.424,0,0,1,.557.244h0a.424.424,0,0,1-.244.557h0a.508.508,0,0,1-.157.035h0A.429.429,0,0,1,190.5,109.632Zm1.758-.749a.458.458,0,0,1,.192-.592h0a.458.458,0,0,1,.592.192h0a.458.458,0,0,1-.192.592h0a.351.351,0,0,1-.191.052h0A.425.425,0,0,1,192.259,108.883Zm1.689-.888a.425.425,0,0,1,.139-.592h0a.425.425,0,0,1,.592.139h0a.425.425,0,0,1-.139.592h0a.567.567,0,0,1-.226.07h0A.473.473,0,0,1,193.948,108Zm1.6-1.045a.44.44,0,0,1,.087-.609h0a.44.44,0,0,1,.609.087h0a.44.44,0,0,1-.087.609h0a.518.518,0,0,1-.261.087h0A.484.484,0,0,1,195.549,106.951Zm1.515-1.184a.437.437,0,0,1,.035-.609h0a.437.437,0,0,1,.609.035h0a.437.437,0,0,1-.035.609h0a.473.473,0,0,1-.3.1h0A.436.436,0,0,1,197.064,105.767Zm1.393-1.323a.421.421,0,0,1-.017-.609h0a.421.421,0,0,1,.609-.017h0a.421.421,0,0,1,.017.609h0a.468.468,0,0,1-.313.139h0A.42.42,0,0,1,198.457,104.443Zm1.254-1.428a.424.424,0,0,1-.07-.609h0a.44.44,0,0,1,.609-.087h0a.442.442,0,0,1,.087.609h0a.454.454,0,0,1-.348.174h0A.526.526,0,0,1,199.71,103.016Zm1.149-1.55a.449.449,0,0,1-.139-.609h0a.449.449,0,0,1,.609-.139h0a.445.445,0,0,1,.139.609h0a.454.454,0,0,1-.366.192h0A.288.288,0,0,1,200.859,101.466Zm.975-1.637a.453.453,0,0,1-.192-.592h0a.447.447,0,0,1,.592-.192h0a.453.453,0,0,1,.192.592h0a.436.436,0,0,1-.383.244h0A.464.464,0,0,1,201.834,99.83Zm.853-1.724a.443.443,0,0,1-.244-.575h0a.443.443,0,0,1,.575-.244h0a.443.443,0,0,1,.244.575h0a.429.429,0,0,1-.4.279h0A.515.515,0,0,1,202.688,98.106Zm.679-1.793a.44.44,0,0,1-.3-.54h0a.44.44,0,0,1,.54-.3h0a.44.44,0,0,1,.3.54h0a.428.428,0,0,1-.418.313h0A.3.3,0,0,1,203.367,96.313Zm.522-1.845a.44.44,0,0,1-.331-.522h0a.44.44,0,0,1,.522-.331h0a.44.44,0,0,1,.331.522h0a.432.432,0,0,1-.435.348h0A.13.13,0,0,1,203.889,94.467Zm.331-1.88a.433.433,0,0,1-.383-.487h0a.433.433,0,0,1,.487-.383h0a.446.446,0,0,1,.383.487h0a.422.422,0,0,1-.435.383h-.052Zm.192-1.9a.421.421,0,0,1-.418-.453h0a.421.421,0,0,1,.453-.418h0a.421.421,0,0,1,.418.453h0a.455.455,0,0,1-.453.418Zm-.47-2.333a.418.418,0,0,1,.4-.453h0a.445.445,0,0,1,.47.4h0a.445.445,0,0,1-.4.47h-.035A.439.439,0,0,1,203.941,88.356Zm-.192-1.863a.447.447,0,0,1,.366-.5h0a.421.421,0,0,1,.487.366h0a.447.447,0,0,1-.366.5h-.07A.4.4,0,0,1,203.75,86.493Zm-.366-1.828a.43.43,0,0,1,.313-.522h0a.438.438,0,0,1,.522.313h0a.438.438,0,0,1-.313.522h0a.221.221,0,0,1-.1.017h0A.444.444,0,0,1,203.384,84.665Zm-.54-1.793a.432.432,0,0,1,.261-.557h0a.442.442,0,0,1,.557.279h0a.432.432,0,0,1-.261.557h0a.383.383,0,0,1-.139.017h0A.5.5,0,0,1,202.844,82.872Zm-.679-1.758a.434.434,0,0,1,.209-.575h0a.427.427,0,0,1,.575.226h0a.439.439,0,0,1-.209.575h0a.618.618,0,0,1-.174.035h0A.413.413,0,0,1,202.165,81.114Zm-.853-1.671a.43.43,0,0,1,.157-.592h0a.421.421,0,0,1,.592.174h0a.445.445,0,0,1-.157.592h0a.464.464,0,0,1-.209.052h0A.419.419,0,0,1,201.312,79.442Zm-.992-1.584a.443.443,0,0,1,.1-.609h0a.443.443,0,0,1,.609.1h0a.443.443,0,0,1-.1.609h0a.4.4,0,0,1-.244.07h0A.4.4,0,0,1,200.32,77.858Zm-1.132-1.5a.437.437,0,0,1,.052-.609h0a.437.437,0,0,1,.609.052h0a.437.437,0,0,1-.052.609h0a.427.427,0,0,1-.279.1h0A.429.429,0,0,1,199.188,76.361Zm-1.271-1.375a.421.421,0,0,1,0-.609h0a.421.421,0,0,1,.609,0h0a.421.421,0,0,1,0,.609h0a.42.42,0,0,1-.313.122h0A.437.437,0,0,1,197.917,74.985Zm-1.375-1.271a.439.439,0,0,1-.052-.609h0a.423.423,0,0,1,.609-.052h0a.423.423,0,0,1,.052.609h0a.429.429,0,0,1-.331.157h0A.427.427,0,0,1,196.542,73.714Zm-1.5-1.149a.443.443,0,0,1-.1-.609h0a.44.44,0,0,1,.609-.1h0a.443.443,0,0,1,.1.609h0a.448.448,0,0,1-.348.192h0A.518.518,0,0,1,195.044,72.565Zm-1.584-.992h0a.43.43,0,0,1-.157-.592h0a.43.43,0,0,1,.592-.157h0a.43.43,0,0,1,.157.592h0a.454.454,0,0,1-.383.226h0A1.462,1.462,0,0,1,193.46,71.573Zm-1.671-.853a.439.439,0,0,1-.209-.575h0a.434.434,0,0,1,.575-.209h0a.419.419,0,0,1,.209.575h0a.44.44,0,0,1-.4.261h0C191.911,70.755,191.858,70.737,191.789,70.72Zm-1.724-.7a.432.432,0,0,1-.261-.557h0a.432.432,0,0,1,.557-.261h0a.426.426,0,0,1,.261.557h0a.451.451,0,0,1-.418.3h0C190.152,70.041,190.1,70.041,190.065,70.023Zm-1.811-.54a.425.425,0,0,1-.313-.522h0a.438.438,0,0,1,.522-.313h0a.425.425,0,0,1,.313.522h0a.444.444,0,0,1-.418.331h0C188.342,69.484,188.289,69.484,188.254,69.484Z" transform="translate(-184.893 -68.637)"/></g></g><g transform="translate(3.769 32.548)"><path class="b" d="M22.094,213.927a.447.447,0,0,1-.313-.122.421.421,0,0,1,0-.609l26.255-26.115a.431.431,0,0,1,.609.609L22.407,213.805A.447.447,0,0,1,22.094,213.927Z" transform="translate(-21.65 -186.95)"/></g><g transform="translate(3.917 32.54)"><path class="b" d="M49.051,187.771H22.935a.435.435,0,0,1,0-.871H49.051a.435.435,0,0,1,0,.871Z" transform="translate(-22.5 -186.9)"/></g><g transform="translate(56.148 32.54)"><path class="b" d="M322.5,212.232a.431.431,0,0,1,.435-.435h0a.431.431,0,0,1,.435.435h0a.431.431,0,0,1-.435.435h0A.431.431,0,0,1,322.5,212.232Zm0-1.915a.431.431,0,0,1,.435-.435h0a.431.431,0,0,1,.435.435h0a.431.431,0,0,1-.435.435h0A.431.431,0,0,1,322.5,210.317Zm0-1.915a.431.431,0,0,1,.435-.435h0a.431.431,0,0,1,.435.435h0a.431.431,0,0,1-.435.435h0A.431.431,0,0,1,322.5,208.4Zm0-1.915a.431.431,0,0,1,.435-.435h0a.431.431,0,0,1,.435.435h0a.431.431,0,0,1-.435.435h0A.431.431,0,0,1,322.5,206.486Zm0-1.915a.431.431,0,0,1,.435-.435h0a.431.431,0,0,1,.435.435h0a.431.431,0,0,1-.435.435h0A.431.431,0,0,1,322.5,204.571Zm0-1.915a.431.431,0,0,1,.435-.435h0a.431.431,0,0,1,.435.435h0a.431.431,0,0,1-.435.435h0A.431.431,0,0,1,322.5,202.656Zm0-1.915a.431.431,0,0,1,.435-.435h0a.431.431,0,0,1,.435.435h0a.431.431,0,0,1-.435.435h0A.431.431,0,0,1,322.5,200.741Zm0-1.915a.431.431,0,0,1,.435-.435h0a.431.431,0,0,1,.435.435h0a.431.431,0,0,1-.435.435h0A.431.431,0,0,1,322.5,198.826Zm0-1.915a.431.431,0,0,1,.435-.435h0a.431.431,0,0,1,.435.435h0a.431.431,0,0,1-.435.435h0A.431.431,0,0,1,322.5,196.911Zm0-1.915a.431.431,0,0,1,.435-.435h0a.431.431,0,0,1,.435.435h0a.431.431,0,0,1-.435.435h0A.431.431,0,0,1,322.5,195Zm0-1.915a.431.431,0,0,1,.435-.435h0a.431.431,0,0,1,.435.435h0a.431.431,0,0,1-.435.435h0A.431.431,0,0,1,322.5,193.081Zm0-1.915a.431.431,0,0,1,.435-.435h0a.431.431,0,0,1,.435.435h0a.431.431,0,0,1-.435.435h0A.431.431,0,0,1,322.5,191.165Zm0-1.915a.431.431,0,0,1,.435-.435h0a.431.431,0,0,1,.435.435h0a.431.431,0,0,1-.435.435h0A.431.431,0,0,1,322.5,189.25Zm0-1.915a.431.431,0,0,1,.435-.435h0a.431.431,0,0,1,.435.435h0a.431.431,0,0,1-.435.435h0A.431.431,0,0,1,322.5,187.335Z" transform="translate(-322.5 -186.9)"/></g><g transform="translate(3.917 6.424)"><path class="b" d="M75.166,63.886a.431.431,0,0,1-.435-.435,25.68,25.68,0,0,0-51.36,0,.435.435,0,1,1-.871,0,26.551,26.551,0,0,1,53.1,0A.431.431,0,0,1,75.166,63.886Z" transform="translate(-22.5 -36.9)"/></g><g transform="translate(0 28.622)"><g transform="translate(0)"><circle class="c" cx="4.353" cy="4.353" r="4.353"/></g><g transform="translate(0 3.256)"><path class="b" d="M4.353,186.373A4.367,4.367,0,0,1,.139,183.1,4.475,4.475,0,0,0,0,184.179a4.353,4.353,0,0,0,8.705,0,4.259,4.259,0,0,0-.139-1.079A4.348,4.348,0,0,1,4.353,186.373Z" transform="translate(0 -183.1)"/></g></g><g transform="translate(52.37 28.118)"><path class="c" d="M309.227,168.795l-4.213,2.437-4.213-2.437v-4.857l4.213-2.437,4.213,2.437Z" transform="translate(-300.8 -161.5)"/><g transform="translate(0 2.437)"><path class="b" d="M305.013,182.795V177.92L300.8,175.5v4.857Z" transform="translate(-300.8 -175.5)"/></g></g><g transform="translate(52.091 54.738)"><circle class="c" cx="4.353" cy="4.353" r="4.353"/><g transform="translate(0 3.256)"><path class="b" d="M303.553,336.373a4.367,4.367,0,0,0,4.213-3.273,4.475,4.475,0,0,1,.139,1.079,4.353,4.353,0,0,1-8.705,0,4.259,4.259,0,0,1,.139-1.079A4.348,4.348,0,0,0,303.553,336.373Z" transform="translate(-299.2 -333.1)"/></g></g><g transform="translate(0 54.233)"><path class="c" d="M0,318.795l4.213,2.437,4.213-2.437v-4.857L4.213,311.5,0,313.937Z" transform="translate(0 -311.5)"/><g transform="translate(4.213 2.437)"><path class="b" d="M24.2,332.795V327.92l4.213-2.42v4.857Z" transform="translate(-24.2 -325.5)"/></g></g><g transform="translate(25.68 25.906)"><path class="c" d="M152.288,148.8l-4.788,7.19,4.788,4.788,4.788-4.788Z" transform="translate(-147.5 -148.8)"/><path class="b" d="M152.288,157.453V148.8l-4.788,7.19,4.788,4.788Z" transform="translate(-147.5 -148.8)"/></g><g transform="translate(25.68 52.022)"><path class="c" d="M152.288,298.8l-4.788,7.19,4.788,4.788,4.788-4.788Z" transform="translate(-147.5 -298.8)"/><path class="b" d="M152.288,307.453V298.8l-4.788,7.19,4.788,4.788Z" transform="translate(-147.5 -298.8)"/></g><g transform="translate(25.68)"><path class="c" d="M152.288,0,147.5,7.19l4.788,4.788,4.788-4.788Z" transform="translate(-147.5)"/><path class="b" d="M152.288,8.653V0L147.5,7.19l4.788,4.788Z" transform="translate(-147.5)"/></g><g transform="translate(4.736 58.655)"><path class="b" d="M50.756,337.771H27.635a.435.435,0,0,1,0-.871H50.756a.435.435,0,0,1,0,.871Z" transform="translate(-27.2 -336.9)"/></g></g></g></svg>