<svg xmlns="http://www.w3.org/2000/svg" viewBox="0 0 80 80"><defs><style>.a{fill:#fff;}.b{fill:#e6eaed;}.c{fill:#8997a5;}.d{fill:rgba(0,0,0,0);}</style></defs><g transform="translate(-392 -2319)"><rect class="a" width="80" height="80" transform="translate(392 2319)"/><g transform="translate(399 2326)"><g transform="translate(8.25 4.125)"><path class="b" d="M50,58.264A24.75,24.75,0,1,0,76.813,33.613V29.389h4.125V25H68.563v4.389h4.125v4.224A24.736,24.736,0,0,0,50,58.264ZM60.164,72.85A20.634,20.634,0,1,1,74.75,78.889,20.493,20.493,0,0,1,60.164,72.85Z" transform="translate(-50 -25)"/><path class="c" d="M133,143.1H116.5V126.6A16.5,16.5,0,1,0,133,143.1Z" transform="translate(-91.75 -109.836)"/></g><rect class="d" width="66" height="66"/></g></g></svg>