<svg xmlns="http://www.w3.org/2000/svg" viewBox="0 0 80 80"><defs><style>.a{fill:#fff;}.b{fill:#2970ff;}</style></defs><g transform="translate(-227 -1569)"><rect class="a" width="80" height="80" transform="translate(227 1569)"/><g transform="translate(238 1584)"><path class="b" d="M12.06,9.911,9.389,8.788C7.3,8,5.848,7.524,5.848,6.212c0-1.265,1.106-1.944,2.719-1.944a7.753,7.753,0,0,1,5.011,1.707l2.5-3.13A10.553,10.553,0,0,0,8.852,0C4.11,0,.869,2.877.869,6.5c0,3.161,2.2,5.027,4.616,5.943l2.829,1.217c2.055.869,3.351,1.249,3.351,2.814,0,1.059-.964,1.881-3.051,1.881a9.315,9.315,0,0,1-5.785-2.276L0,19.426a12.526,12.526,0,0,0,8.3,3.146c5.39,0,8.425-3.13,8.425-6.749C16.723,12.756,14.921,10.97,12.06,9.911Z"/><path class="b" d="M140.543,10.893h-5.912V2.5H129.7V24.282h4.932V15.193h5.912v9.089h4.932V2.5h-4.932Z" transform="translate(-109.199 -2.105)"/><path class="b" d="M251.27,19.1h6.56l1.328,5.185h5.232L257.593,2.5h-5.912L244.9,24.282h5.042ZM254.463,6.23h.126c.522,2.292,1.186,4.853,1.739,7.018l.506,2.007H252.25l.522-2.007C253.325,11.083,253.926,8.538,254.463,6.23Z" transform="translate(-206.19 -2.105)"/><path class="b" d="M7.3,191.235c4.11-3.588,7.793-7.4,7.793-10.97,0-4.094-3.035-6.765-7.508-6.765A9.8,9.8,0,0,0,0,176.867l2.64,2.656a6.524,6.524,0,0,1,4.268-2.15c2.229,0,3.509,1.122,3.509,3.177,0,3.066-4.094,6.655-10.179,11.76v2.814H16.186V191H11.159C10.069,191,8.52,191.109,7.3,191.235Z" transform="translate(0 -146.076)"/><path class="b" d="M134.762,183.635a7.534,7.534,0,0,0-2.782.49l.348-3.967h8.757V176H128.076l-.585,10.717,2.2,1.423a6.208,6.208,0,0,1,3.572-1.075c2.229,0,3.857,1.154,3.857,3.272,0,2.181-1.676,3.319-4.11,3.319a7.629,7.629,0,0,1-4.995-2.134l-2.213,3.114a11,11,0,0,0,7.919,2.987c4.363,0,8.314-2.7,8.314-7.413C142.065,185.705,138.682,183.635,134.762,183.635Z" transform="translate(-105.915 -148.18)"/><path class="b" d="M265.442,181.846a8,8,0,0,0-5.121,2.339c.221-5.011,2.466-6.718,5.058-6.718a5.831,5.831,0,0,1,3.73,1.533l2.592-2.94a9.734,9.734,0,0,0-6.765-2.561c-4.695,0-9.136,3.572-9.136,11.507,0,7.461,4.236,10.527,8.583,10.527,4.078,0,7.619-2.7,7.619-7.113C272.018,183.917,269.141,181.846,265.442,181.846Zm-1.154,9.99c-1.675,0-3.3-1.059-3.825-4.394a5.162,5.162,0,0,1,3.92-2.118,2.789,2.789,0,0,1,3.13,3.082A3.092,3.092,0,0,1,264.288,191.836Z" transform="translate(-215.367 -146.076)"/></g></g></svg>