<svg xmlns="http://www.w3.org/2000/svg" viewBox="0 0 80 80"><defs><style>.a{fill:#8997a5;}.b{fill:#e6eaed;}.c{fill:none;}</style></defs><g transform="translate(-392 -625)"><g transform="translate(399 632)"><g transform="translate(0 0)"><g transform="translate(0)"><g transform="translate(0 0)"><g transform="translate(3.964 3.957)"><g transform="translate(1.21 29.023)"><path class="a" d="M59.424,228.752A29.138,29.138,0,0,1,41.679,222.8a29.677,29.677,0,0,1-10.465-15.075.415.415,0,0,1,.8-.232,28.893,28.893,0,0,0,10.166,14.644,28.357,28.357,0,0,0,17.248,5.788,28.645,28.645,0,0,0,28.609-28.609.415.415,0,1,1,.829,0A29.466,29.466,0,0,1,59.424,228.752Z" transform="translate(-31.196 -198.9)"/></g><path class="a" d="M24.315,53.752a.411.411,0,0,1-.415-.415A29.466,29.466,0,0,1,53.338,23.9a29.138,29.138,0,0,1,17.746,5.954A29.677,29.677,0,0,1,81.548,44.929a.415.415,0,0,1-.8.232A28.893,28.893,0,0,0,70.586,30.517a28.357,28.357,0,0,0-17.248-5.788A28.645,28.645,0,0,0,24.729,53.338.411.411,0,0,1,24.315,53.752Z" transform="translate(-23.9 -23.9)"/></g><g transform="translate(7.661 34.555)"><path class="a" d="M71.519,232.608a.411.411,0,0,1,.415-.415h0a.411.411,0,0,1,.415.415h0a.411.411,0,0,1-.415.415h0A.421.421,0,0,1,71.519,232.608Zm-1.426.348a.412.412,0,0,1-.381-.448h0a.412.412,0,0,1,.448-.381h0a.412.412,0,0,1,.381.448h0a.416.416,0,0,1-.415.381h0C70.11,232.973,70.093,232.973,70.093,232.957Zm-1.841-.182a.409.409,0,0,1-.348-.464h0a.409.409,0,0,1,.464-.348h0a.409.409,0,0,1,.348.464h0a.413.413,0,0,1-.415.348h-.05Zm-1.824-.332h0a.407.407,0,0,1-.315-.5h0a.42.42,0,0,1,.5-.315h0a.42.42,0,0,1,.315.5h0a.407.407,0,0,1-.4.332h0A.247.247,0,0,0,66.428,232.442Zm-1.791-.464a.419.419,0,0,1-.282-.514h0a.419.419,0,0,1,.514-.282h0a.419.419,0,0,1,.282.514h0a.408.408,0,0,1-.4.3h0A.245.245,0,0,1,64.637,231.978Zm-1.758-.58a.426.426,0,0,1-.249-.531h0a.412.412,0,0,1,.531-.249h0a.426.426,0,0,1,.249.531h0a.409.409,0,0,1-.381.265h0A.368.368,0,0,1,62.879,231.4Zm-1.725-.73a.418.418,0,0,1-.2-.547h0a.4.4,0,0,1,.547-.2h0a.4.4,0,0,1,.2.547h0a.419.419,0,0,1-.381.249h0A.371.371,0,0,1,61.154,230.668Zm-1.642-.829h0a.43.43,0,0,1-.166-.564h0a.43.43,0,0,1,.564-.166h0a.415.415,0,0,1,.166.564h0a.432.432,0,0,1-.365.216h0A.354.354,0,0,1,59.512,229.839Zm-1.592-.962a.409.409,0,0,1-.116-.58h0a.409.409,0,0,1,.58-.116h0a.409.409,0,0,1,.116.58h0a.433.433,0,0,1-.348.182h0A.3.3,0,0,1,57.92,228.877Zm-1.526-1.061a.419.419,0,0,1-.083-.58h0a.419.419,0,0,1,.58-.083h0a.419.419,0,0,1,.083.58h0a.433.433,0,0,1-.332.166h0A.375.375,0,0,1,56.394,227.815Zm-1.443-1.161h0a.416.416,0,0,1-.033-.581h0a.416.416,0,0,1,.58-.033h0a.416.416,0,0,1,.033.58h0a.408.408,0,0,1-.315.149h0A.62.62,0,0,1,54.951,226.654Zm-1.343-1.277a.4.4,0,0,1,0-.58h0a.4.4,0,0,1,.58,0h0a.4.4,0,0,1,0,.58h0a.4.4,0,0,1-.3.116h0A.333.333,0,0,1,53.608,225.377Zm-1.26-1.36a.4.4,0,0,1,.05-.58h0a.4.4,0,0,1,.58.05h0a.4.4,0,0,1-.05.58h0a.406.406,0,0,1-.265.1h0A.408.408,0,0,1,52.348,224.017ZM51.2,222.575h0a.419.419,0,0,1,.083-.58h0a.419.419,0,0,1,.58.083h0a.419.419,0,0,1-.083.58h0a.494.494,0,0,1-.249.083h0A.433.433,0,0,1,51.2,222.575Zm-1.045-1.542a.427.427,0,0,1,.133-.58h0a.427.427,0,0,1,.58.133h0a.4.4,0,0,1-.133.564h0a.365.365,0,0,1-.216.066h0A.345.345,0,0,1,50.158,221.032Zm-.945-1.592a.43.43,0,0,1,.166-.564h0a.415.415,0,0,1,.564.166h0a.415.415,0,0,1-.166.564h0a.442.442,0,0,1-.2.05h0A.432.432,0,0,1,49.213,219.44Zm-.813-1.658h0a.4.4,0,0,1,.216-.547h0a.406.406,0,0,1,.547.216h0a.406.406,0,0,1-.216.547h0a.3.3,0,0,1-.166.033h0A.419.419,0,0,1,48.4,217.782Zm-.7-1.725a.412.412,0,0,1,.249-.531h0a.412.412,0,0,1,.531.249h0a.412.412,0,0,1-.249.531h0a.458.458,0,0,1-.149.017h0A.356.356,0,0,1,47.7,216.057Zm-.58-1.758a.419.419,0,0,1,.282-.514h0a.419.419,0,0,1,.514.282h0a.419.419,0,0,1-.282.514h0a.282.282,0,0,1-.116.017h0A.423.423,0,0,1,47.123,214.3Zm-.431-1.791a.42.42,0,0,1,.315-.5h0a.42.42,0,0,1,.5.315h0a.428.428,0,0,1-.315.5h-.083A.4.4,0,0,1,46.692,212.508Zm-.315-1.841a.412.412,0,0,1,.348-.464h0a.412.412,0,0,1,.464.348h0a.412.412,0,0,1-.348.464h-.05A.4.4,0,0,1,46.377,210.667Zm-.182-1.841a.4.4,0,0,1,.4-.431h0a.4.4,0,0,1,.431.381h0a.424.424,0,0,1-.381.448h-.017A.422.422,0,0,1,46.195,208.826Z" transform="translate(-46.194 -208.394)"/></g><g transform="translate(32.987 7.606)"><path class="a" d="M224.241,70.163h0a.4.4,0,0,1,.4-.431h0a.4.4,0,0,1,.431.381h0a.4.4,0,0,1-.381.431h-.033A.394.394,0,0,1,224.241,70.163Zm-.182-1.791h0a.412.412,0,0,1,.348-.464h0a.412.412,0,0,1,.464.348h0a.412.412,0,0,1-.348.464h-.05A.4.4,0,0,1,224.059,68.372Zm-.3-1.775a.42.42,0,0,1,.315-.5h0a.42.42,0,0,1,.5.315h0a.42.42,0,0,1-.315.5h-.083A.383.383,0,0,1,223.76,66.6Zm-.431-1.741a.419.419,0,0,1,.282-.514h0a.419.419,0,0,1,.514.282h0a.419.419,0,0,1-.282.514h0a.282.282,0,0,1-.116.017h0A.39.39,0,0,1,223.329,64.856Zm-.547-1.708a.412.412,0,0,1,.249-.531h0a.412.412,0,0,1,.531.249h0a.412.412,0,0,1-.249.531h0a.512.512,0,0,1-.133.033h0A.408.408,0,0,1,222.782,63.148Zm-.663-1.658a.413.413,0,0,1,.2-.547h0a.406.406,0,0,1,.547.216h0a.406.406,0,0,1-.216.547h0a.589.589,0,0,1-.166.033h0A.388.388,0,0,1,222.118,61.49Zm-.8-1.609h0a.43.43,0,0,1,.166-.564h0a.415.415,0,0,1,.564.166h0a.415.415,0,0,1-.166.564h0a.441.441,0,0,1-.2.05h0A.358.358,0,0,1,221.322,59.881Zm-.912-1.542a.4.4,0,0,1,.133-.564h0a.4.4,0,0,1,.564.133h0a.4.4,0,0,1-.133.564h0a.365.365,0,0,1-.216.066h0A.409.409,0,0,1,220.41,58.338ZM219.4,56.862a.419.419,0,0,1,.083-.58h0a.419.419,0,0,1,.58.083h0a.419.419,0,0,1-.083.58h0a.447.447,0,0,1-.249.083h0A.387.387,0,0,1,219.4,56.862Zm-1.111-1.41a.4.4,0,0,1,.05-.58h0a.4.4,0,0,1,.58.05h0a.4.4,0,0,1-.05.58h0a.441.441,0,0,1-.265.1h0A.385.385,0,0,1,218.287,55.453Zm-1.227-1.31a.4.4,0,0,1,0-.58h0a.4.4,0,0,1,.58,0h0a.4.4,0,0,1,0,.58h0a.4.4,0,0,1-.3.116h0A.416.416,0,0,1,217.06,54.143Zm-1.31-1.227a.416.416,0,0,1-.033-.58h0a.416.416,0,0,1,.58-.033h0a.4.4,0,0,1,.033.58h0a.409.409,0,0,1-.315.149h0A.621.621,0,0,1,215.75,52.915Zm-1.376-1.144a.419.419,0,0,1-.083-.58h0a.419.419,0,0,1,.58-.083h0a.419.419,0,0,1,.083.58h0a.433.433,0,0,1-.332.166h0A.274.274,0,0,1,214.373,51.771ZM212.9,50.743a.423.423,0,0,1-.116-.58h0a.409.409,0,0,1,.58-.116h0a.423.423,0,0,1,.116.58h0a.433.433,0,0,1-.348.182h0A.381.381,0,0,1,212.9,50.743Zm-1.542-.912a.43.43,0,0,1-.166-.564h0a.43.43,0,0,1,.564-.166h0a.43.43,0,0,1,.166.564h0a.432.432,0,0,1-.365.216h0A.442.442,0,0,1,211.355,49.831Zm-1.592-.813a.418.418,0,0,1-.2-.547h0a.418.418,0,0,1,.547-.2h0a.4.4,0,0,1,.2.547h0a.419.419,0,0,1-.381.249h0C209.879,49.051,209.813,49.035,209.763,49.018Zm-1.658-.7a.426.426,0,0,1-.249-.531h0a.412.412,0,0,1,.531-.249h0a.412.412,0,0,1,.249.531h0a.409.409,0,0,1-.381.265h0A.234.234,0,0,1,208.1,48.321Zm-1.708-.564a.419.419,0,0,1-.282-.514h0a.419.419,0,0,1,.514-.282h0a.419.419,0,0,1,.282.514h0a.408.408,0,0,1-.4.3h0C206.479,47.774,206.446,47.757,206.4,47.757Zm-1.741-.448h0a.42.42,0,0,1-.315-.5h0a.42.42,0,0,1,.5-.315h0a.407.407,0,0,1,.315.5h0a.42.42,0,0,1-.4.332h0C204.721,47.326,204.688,47.31,204.655,47.31Zm-1.758-.315a.409.409,0,0,1-.348-.464h0a.409.409,0,0,1,.464-.348h0a.409.409,0,0,1,.348.464h0a.413.413,0,0,1-.415.348h-.05Zm-1.791-.2a.412.412,0,0,1-.381-.448h0a.412.412,0,0,1,.448-.381h0a.412.412,0,0,1,.381.448h0a.416.416,0,0,1-.415.381h-.033Zm-2.206-.481a.411.411,0,0,1,.415-.415h0a.411.411,0,0,1,.415.415h0a.411.411,0,0,1-.415.415h0A.421.421,0,0,1,198.9,46.315Z" transform="translate(-198.9 -45.9)"/></g><g transform="translate(0 32.985)"><g transform="translate(32.987 33.022)"><path class="a" d="M199.315,398.845h-.083c-.033,0-.05-.017-.083-.017-.033-.017-.05-.017-.066-.033s-.05-.033-.066-.05a.4.4,0,0,1-.116-.3.477.477,0,0,1,.116-.3.23.23,0,0,1,.066-.05.126.126,0,0,1,.066-.033.125.125,0,0,1,.083-.017.413.413,0,0,1,.381.116.4.4,0,0,1,.116.3.517.517,0,0,1-.116.3A.789.789,0,0,1,199.315,398.845Z" transform="translate(-198.9 -398.038)"/></g><g transform="translate(0.049 1.869)"><path class="a" d="M31.772,242.1a.433.433,0,0,1-.4-.431h0a.422.422,0,0,1,.431-.4h0a.433.433,0,0,1,.4.431h0a.43.43,0,0,1-.415.4h-.017Zm-1.857-.166a.4.4,0,0,1-.365-.464h0a.4.4,0,0,1,.464-.365h0a.413.413,0,0,1,.365.464h0a.4.4,0,0,1-.415.365h-.05Zm-1.857-.249a.417.417,0,0,1-.348-.481h0a.394.394,0,0,1,.481-.332h0a.394.394,0,0,1,.332.481h0a.426.426,0,0,1-.415.348h0C28.107,241.689,28.074,241.689,28.057,241.689Zm-1.841-.365a.407.407,0,0,1-.315-.5h0a.407.407,0,0,1,.5-.315h0a.42.42,0,0,1,.315.5h0a.4.4,0,0,1-.4.315h-.1Zm-1.808-.464a.419.419,0,0,1-.282-.514h0a.419.419,0,0,1,.514-.282h0a.419.419,0,0,1,.282.514h0a.408.408,0,0,1-.4.3h0C24.475,240.876,24.442,240.86,24.409,240.86Zm-1.791-.58h0a.412.412,0,0,1-.249-.531h0a.412.412,0,0,1,.531-.249h0a.412.412,0,0,1,.249.531h0a.43.43,0,0,1-.4.282h0A.39.39,0,0,1,22.618,240.279Zm-1.758-.663h0a.4.4,0,0,1-.216-.547h0a.422.422,0,0,1,.547-.232h0a.4.4,0,0,1,.216.547h0a.394.394,0,0,1-.381.249h0A.287.287,0,0,1,20.86,239.616Zm-1.708-.763a.418.418,0,0,1-.2-.547h0a.418.418,0,0,1,.547-.2h0a.418.418,0,0,1,.2.547h0a.4.4,0,0,1-.365.232h0A.705.705,0,0,1,19.151,238.853Zm-1.658-.862a.43.43,0,0,1-.166-.564h0a.43.43,0,0,1,.564-.166h0a.43.43,0,0,1,.166.564h0a.432.432,0,0,1-.365.216h0A.393.393,0,0,1,17.493,237.991Zm-1.625-.962a.424.424,0,0,1-.133-.58h0a.424.424,0,0,1,.58-.133h0a.408.408,0,0,1,.133.564h0a.409.409,0,0,1-.348.2h0A.288.288,0,0,1,15.868,237.029Zm-1.559-1.045a.422.422,0,0,1-.1-.58h0a.422.422,0,0,1,.58-.1h0a.422.422,0,0,1,.1.58h0a.387.387,0,0,1-.332.166h0A.356.356,0,0,1,14.309,235.984Zm-1.493-1.128a.419.419,0,0,1-.066-.58h0a.418.418,0,0,1,.58-.066h0a.4.4,0,0,1,.066.58h0a.417.417,0,0,1-.332.149h0A.3.3,0,0,1,12.816,234.856Zm-1.426-1.211h0a.416.416,0,0,1-.033-.58h0a.416.416,0,0,1,.58-.033h0a.416.416,0,0,1,.033.58h0a.392.392,0,0,1-.315.133h0A.376.376,0,0,1,11.39,233.645Zm-1.36-1.294a.4.4,0,0,1,0-.58h0a.4.4,0,0,1,.58,0h0a.4.4,0,0,1,0,.58h0a.4.4,0,0,1-.3.116h0A.333.333,0,0,1,10.03,232.352Zm-1.294-1.36a.416.416,0,0,1,.033-.58h0a.416.416,0,0,1,.58.033h0a.416.416,0,0,1-.033.58h0a.45.45,0,0,1-.282.1h0A.335.335,0,0,1,8.736,230.992Zm-1.211-1.426a.4.4,0,0,1,.066-.58h0a.4.4,0,0,1,.58.066h0a.4.4,0,0,1-.066.581h0a.39.39,0,0,1-.265.083h0A.362.362,0,0,1,7.526,229.566ZM6.4,228.073a.422.422,0,0,1,.1-.58h0a.422.422,0,0,1,.58.1h0a.422.422,0,0,1-.1.58h0a.4.4,0,0,1-.232.083h0A.484.484,0,0,1,6.4,228.073ZM5.37,226.514a.427.427,0,0,1,.133-.58h0a.427.427,0,0,1,.58.133h0a.427.427,0,0,1-.133.58h0a.365.365,0,0,1-.216.066h0A.381.381,0,0,1,5.37,226.514Zm-.962-1.609a.415.415,0,0,1,.166-.564h0a.415.415,0,0,1,.564.166h0a.415.415,0,0,1-.166.564h0a.442.442,0,0,1-.2.05h0A.432.432,0,0,1,4.408,224.905Zm-.862-1.658a.4.4,0,0,1,.2-.547h0a.4.4,0,0,1,.547.2h0a.4.4,0,0,1-.2.547h0a.357.357,0,0,1-.182.033h0A.416.416,0,0,1,3.545,223.247Zm-.763-1.708h0A.435.435,0,0,1,3,220.991H3a.435.435,0,0,1,.547.216h0a.428.428,0,0,1-.232.547h0a.491.491,0,0,1-.166.033h0A.414.414,0,0,1,2.782,221.539Zm-.663-1.758a.412.412,0,0,1,.249-.531h0a.412.412,0,0,1,.531.249h0a.412.412,0,0,1-.249.531h0a.365.365,0,0,1-.133.017h0A.364.364,0,0,1,2.119,219.781Zm-.58-1.775a.419.419,0,0,1,.282-.514h0a.419.419,0,0,1,.514.282h0a.419.419,0,0,1-.282.514h0a.282.282,0,0,1-.116.017h0A.439.439,0,0,1,1.539,218.006Zm-.464-1.824a.407.407,0,0,1,.315-.5h0a.415.415,0,0,1,.5.315h0a.407.407,0,0,1-.315.5h0a.211.211,0,0,1-.1.017h0A.42.42,0,0,1,1.074,216.182Zm-.365-1.824h0a.427.427,0,0,1,.332-.481h0a.417.417,0,0,1,.481.332h0a.417.417,0,0,1-.348.481H1.107A.407.407,0,0,1,.709,214.357ZM.461,212.5a.413.413,0,0,1,.365-.464h0a.413.413,0,0,1,.464.365h0a.425.425,0,0,1-.365.464H.875A.4.4,0,0,1,.461,212.5Zm-.166-1.874a.4.4,0,0,1,.4-.431h0a.411.411,0,0,1,.431.4h0a.4.4,0,0,1-.4.431H.709A.418.418,0,0,1,.295,210.626Z" transform="translate(-0.294 -210.194)"/></g><path class="a" d="M.415,199.75a.477.477,0,0,1-.3-.116.229.229,0,0,1-.05-.066.126.126,0,0,1-.033-.066.149.149,0,0,1-.017-.083c0-.033-.017-.05-.017-.083a.15.15,0,0,1,.017-.083c0-.033.017-.05.017-.083.017-.017.017-.05.033-.066s.033-.05.05-.066a.432.432,0,0,1,.58,0,.4.4,0,0,1,.116.3.517.517,0,0,1-.116.3A.342.342,0,0,1,.415,199.75Z" transform="translate(0 -198.925)"/></g><g transform="translate(32.987)"><path class="a" d="M199.315.861a.516.516,0,0,1-.3-.116.4.4,0,0,1-.116-.3.15.15,0,0,1,.017-.083c0-.033.017-.05.017-.083.017-.017.017-.05.033-.066s.033-.05.05-.066a.229.229,0,0,1,.066-.05.126.126,0,0,1,.066-.033.124.124,0,0,1,.083-.017.414.414,0,0,1,.381.116.229.229,0,0,1,.05.066A.126.126,0,0,1,199.7.3a.719.719,0,0,1,.017.083V.463a.477.477,0,0,1-.116.3A.439.439,0,0,1,199.315.861Z" transform="translate(-198.9 -0.038)"/><g transform="translate(1.857 0.043)"><path class="a" d="M241.2,31.811a.4.4,0,0,1,.4-.431h0a.4.4,0,0,1,.431.4h0a.411.411,0,0,1-.4.431h-.017A.407.407,0,0,1,241.2,31.811ZM241.047,30a.413.413,0,0,1,.365-.464h0a.425.425,0,0,1,.464.365h0a.413.413,0,0,1-.365.464h-.05A.414.414,0,0,1,241.047,30Zm-.265-1.808h0a.417.417,0,0,1,.332-.481h0a.417.417,0,0,1,.481.332h0a.427.427,0,0,1-.332.481H241.2A.411.411,0,0,1,240.782,28.2Zm-.348-1.808a.415.415,0,0,1,.315-.5h0a.415.415,0,0,1,.5.315h0a.407.407,0,0,1-.315.5h0c-.033,0-.066.017-.1.017h0A.407.407,0,0,1,240.433,26.388Zm-.464-1.758a.419.419,0,0,1,.282-.514h0a.419.419,0,0,1,.514.282h0a.419.419,0,0,1-.282.514h0a.282.282,0,0,1-.116.017h0A.408.408,0,0,1,239.969,24.63Zm-.547-1.741a.412.412,0,0,1,.249-.531h0a.412.412,0,0,1,.531.249h0a.412.412,0,0,1-.249.531h0a.412.412,0,0,1-.133.017h0A.381.381,0,0,1,239.422,22.888Zm-.647-1.708a.435.435,0,0,1,.216-.547h0a.428.428,0,0,1,.547.232h0a.428.428,0,0,1-.232.547h0a.484.484,0,0,1-.149.033h0A.409.409,0,0,1,238.775,21.18Zm-.746-1.658a.4.4,0,0,1,.2-.547h0a.4.4,0,0,1,.547.2h0a.4.4,0,0,1-.2.547h0a.328.328,0,0,1-.182.033h0A.4.4,0,0,1,238.029,19.522Zm-.846-1.625a.415.415,0,0,1,.166-.564h0a.415.415,0,0,1,.564.166h0a.415.415,0,0,1-.166.564h0a.442.442,0,0,1-.2.05h0A.432.432,0,0,1,237.183,17.9Zm-.929-1.576a.4.4,0,0,1,.133-.564h0a.427.427,0,0,1,.581.133h0a.427.427,0,0,1-.133.58h0a.365.365,0,0,1-.216.066h0A.473.473,0,0,1,236.254,16.321Zm-1.012-1.509a.422.422,0,0,1,.1-.58h0a.422.422,0,0,1,.58.1h0a.422.422,0,0,1-.1.58h0a.4.4,0,0,1-.232.083h0A.455.455,0,0,1,235.242,14.812Zm-1.095-1.459a.4.4,0,0,1,.066-.58h0a.4.4,0,0,1,.58.066h0a.4.4,0,0,1-.066.58h0a.39.39,0,0,1-.265.083h0A.385.385,0,0,1,234.148,13.352Zm-1.177-1.393a.416.416,0,0,1,.033-.58h0a.416.416,0,0,1,.58.033h0a.416.416,0,0,1-.033.58h0a.45.45,0,0,1-.282.1h0A.389.389,0,0,1,232.97,11.959Zm-1.26-1.327a.4.4,0,0,1,0-.58h0a.4.4,0,0,1,.58,0h0a.4.4,0,0,1,0,.58h0a.4.4,0,0,1-.3.116h0A.388.388,0,0,1,231.71,10.632Zm-1.327-1.26a.416.416,0,0,1-.033-.58h0a.416.416,0,0,1,.58-.033h0a.416.416,0,0,1,.033.58h0a.392.392,0,0,1-.315.133h0A.441.441,0,0,1,230.383,9.372ZM228.99,8.194a.4.4,0,0,1-.066-.58h0a.419.419,0,0,1,.58-.066h0a.4.4,0,0,1,.066.58h0a.418.418,0,0,1-.332.149h0A.447.447,0,0,1,228.99,8.194ZM227.53,7.083a.422.422,0,0,1-.1-.58h0a.422.422,0,0,1,.58-.1h0a.422.422,0,0,1,.1.58h0a.408.408,0,0,1-.332.166h0A.266.266,0,0,1,227.53,7.083ZM226,6.071a.424.424,0,0,1-.133-.58h0a.408.408,0,0,1,.564-.133h0a.408.408,0,0,1,.133.564h0a.409.409,0,0,1-.348.2h0A.264.264,0,0,1,226,6.071Zm-1.576-.929a.43.43,0,0,1-.166-.564h0a.43.43,0,0,1,.564-.166h0a.43.43,0,0,1,.166.564h0a.432.432,0,0,1-.365.216h0A.442.442,0,0,1,224.429,5.143ZM222.8,4.3a.418.418,0,0,1-.2-.547h0a.418.418,0,0,1,.547-.2h0a.418.418,0,0,1,.2.547h0a.4.4,0,0,1-.365.232h0A.243.243,0,0,1,222.8,4.3Zm-1.675-.746h0A.422.422,0,0,1,220.9,3h0a.422.422,0,0,1,.547-.232h0a.422.422,0,0,1,.232.547h0a.409.409,0,0,1-.382.265h0A.73.73,0,0,1,221.129,3.551ZM219.421,2.9a.412.412,0,0,1-.249-.531h0a.412.412,0,0,1,.531-.249h0a.406.406,0,0,1,.249.531h0a.43.43,0,0,1-.4.282h0C219.52,2.92,219.47,2.92,219.421,2.9Zm-1.741-.564h0a.419.419,0,0,1-.282-.514h0a.419.419,0,0,1,.514-.282h0a.419.419,0,0,1,.282.514h0a.408.408,0,0,1-.4.3h0A.324.324,0,0,1,217.679,2.34Zm-1.758-.448a.407.407,0,0,1-.315-.5h0a.42.42,0,0,1,.5-.315h0a.42.42,0,0,1,.315.5h0a.42.42,0,0,1-.4.332h0A.292.292,0,0,0,215.921,1.892Zm-1.791-.365a.417.417,0,0,1-.348-.481h0a.394.394,0,0,1,.481-.332h0a.394.394,0,0,1,.332.481h0a.426.426,0,0,1-.415.348h0A.061.061,0,0,1,214.13,1.527Zm-1.824-.249a.4.4,0,0,1-.365-.464h0a.4.4,0,0,1,.464-.365h0a.413.413,0,0,1,.365.464h0a.4.4,0,0,1-.415.365h-.05ZM210.5,1.129h0A.433.433,0,0,1,210.1.7h0a.422.422,0,0,1,.431-.4h0a.422.422,0,0,1,.4.431h0a.43.43,0,0,1-.415.4H210.5Z" transform="translate(-210.1 -0.3)"/></g><g transform="translate(33.003 32.97)"><path class="a" d="M398.315,199.678a.516.516,0,0,1-.3-.116.229.229,0,0,1-.05-.066.126.126,0,0,1-.033-.066.15.15,0,0,1-.017-.083c0-.033-.017-.05-.017-.083a.149.149,0,0,1,.017-.083c0-.033.017-.05.017-.083.017-.017.017-.05.033-.066s.033-.05.05-.066a.384.384,0,0,1,.365-.116c.033,0,.05.017.083.017.033.017.05.017.066.033s.05.033.066.05a.4.4,0,0,1,.116.3.516.516,0,0,1-.116.3.227.227,0,0,1-.066.05.126.126,0,0,1-.066.033c-.017.017-.05.017-.083.033A.1.1,0,0,1,398.315,199.678Z" transform="translate(-397.9 -198.838)"/></g></g><g transform="translate(58.278 29.249)"><path class="b" d="M4.146,0A4.146,4.146,0,1,1,0,4.146,4.146,4.146,0,0,1,4.146,0Z"/><g transform="translate(0 3.101)"><path class="a" d="M355.546,198.218a4.16,4.16,0,0,1-4.013-3.118,4.265,4.265,0,0,0-.133,1.028,4.146,4.146,0,0,0,8.292,0,4.053,4.053,0,0,0-.133-1.028A4.113,4.113,0,0,1,355.546,198.218Z" transform="translate(-351.4 -195.1)"/></g></g><g transform="translate(0.232 29.249)"><g transform="translate(0)"><path class="b" d="M4.146,0A4.146,4.146,0,1,1,0,4.146,4.146,4.146,0,0,1,4.146,0Z"/></g><g transform="translate(0 3.101)"><path class="a" d="M5.546,198.218A4.16,4.16,0,0,1,1.533,195.1a4.263,4.263,0,0,0-.133,1.028,4.146,4.146,0,0,0,8.292,0A4.057,4.057,0,0,0,9.56,195.1,4.113,4.113,0,0,1,5.546,198.218Z" transform="translate(-1.4 -195.1)"/></g></g><g transform="translate(58.933 22.806)"><path class="a" d="M357.645,140.26a.707.707,0,0,1-.182-.033l-1.874-.879a.412.412,0,1,1,.348-.746l1.509.7.7-1.509a.412.412,0,0,1,.746.348l-.879,1.874A.388.388,0,0,1,357.645,140.26Z" transform="translate(-355.348 -137.548)"/></g><g transform="translate(4.287 41.297)"><path class="a" d="M26.271,251.743a.707.707,0,0,1-.182-.033.4.4,0,0,1-.2-.547l.879-1.874a.4.4,0,0,1,.547-.2l1.874.879a.412.412,0,0,1-.348.746l-1.509-.7-.7,1.509A.425.425,0,0,1,26.271,251.743Z" transform="translate(-25.848 -249.048)"/></g><g transform="translate(13.715 23.03)"><rect class="a" width="35.159" height="16.585"/><g transform="translate(4.146 4.146)"><rect class="b" width="35.242" height="16.585"/></g></g><g transform="translate(31.328 31.322)"><ellipse class="a" cx="4.146" cy="4.146" rx="4.146" ry="4.146"/></g><g transform="translate(25.109 33.395)"><ellipse class="a" cx="2.073" cy="2.073" rx="2.073" ry="2.073"/></g><g transform="translate(41.694 33.395)"><ellipse class="a" cx="2.073" cy="2.073" rx="2.073" ry="2.073"/></g></g></g></g></g><rect class="c" width="80" height="80" transform="translate(392 625)"/></g></svg>