<?xml version="1.0" encoding="UTF-8"?>
<svg width="100" height="100" enable-background="new 0 0 423 230" version="1.1" viewBox="0 0 100 100" xml:space="preserve" xmlns="http://www.w3.org/2000/svg"><defs><style>.a{fill:url(#a);}.b{fill:url(#b);}</style><linearGradient id="a" x1="153.91" x2="275.6" y1="333.84" y2="212.15" gradientUnits="userSpaceOnUse"><stop stop-color="#2576f4" offset=".2"/><stop stop-color="#3298da" offset="1"/></linearGradient><linearGradient id="b" x1="277.17" x2="426.53" y1="299.94" y2="213.71" gradientUnits="userSpaceOnUse"><stop stop-color="#36bdba" offset="0"/><stop stop-color="#39d8aa" offset=".93"/></linearGradient><style>.a{fill:#fff;}.b{fill:url(#a);}.c{fill:url(#b);}</style><style>.a{fill:#fff;}.b{fill:#2dd8a3;}.c{fill:#2970ff;}</style></defs>
<g transform="matrix(3.176 0 0 3.1435 -761.83 -1037.7)"><g transform="matrix(.63551 0 0 .63551 73.84 123.48)" stroke-width=".072681"><path d="m284.05 372.17c0.0899-0.0173 0.23713-0.0173 0.32707 0 0.0899 0.0173 0.0163 0.0315-0.16353 0.0315-0.17989 0-0.25348-0.0142-0.16354-0.0315zm-1.0894-0.0728c0.0904-0.0174 0.22123-0.0167 0.29072 1e-3 0.0695 0.0182-4e-3 0.0324-0.16438 0.0316-0.1599-8.2e-4 -0.21675-0.0157-0.12634-0.0331zm-0.80035-0.0694c0.05-0.0202 0.13174-0.0202 0.18171 0 0.05 0.0202 9e-3 0.0367-0.0908 0.0367-0.0999 0-0.14082-0.0165-0.0909-0.0367zm-0.50422-0.0742c0.0525-0.021 0.11515-0.0184 0.1393 6e-3 0.0241 0.0242-0.0188 0.0413-0.0954 0.0382-0.0847-3e-3 -0.10189-0.0207-0.0439-0.0439zm-0.43609-0.0727c0.0525-0.021 0.11515-0.0184 0.1393 6e-3 0.0242 0.0242-0.0188 0.0413-0.0954 0.0382-0.0847-3e-3 -0.10189-0.0207-0.0439-0.0439zm-10.423-1.5493c0-0.65958 0.011-0.92941 0.0245-0.59962s0.0135 0.86945 0 1.1992c-0.0135 0.3298-0.0245 0.06-0.0245-0.59962zm13.048 0.89035-0.1762-0.19987 0.19987 0.1762c0.10993 0.0969 0.19987 0.18686 0.19987 0.19987 0 0.057-0.0589 0.0106-0.22354-0.1762zm-0.69188-0.69047-0.13846-0.16354 0.16354 0.13846c0.15368 0.13012 0.19662 0.18861 0.13845 0.18861-0.0138 0-0.0874-0.0736-0.16353-0.16353zm-0.80641-2.0533c4.4e-4 -0.23985 0.014-0.3292 0.0301-0.19857 0.0162 0.13064 0.0158 0.32688-7.4e-4 0.43609-0.0166 0.10922-0.0298 2e-3 -0.0294-0.23752zm-11.495 0.10903c0-0.0999 0.0165-0.14082 0.0367-0.0909 0.0202 0.05 0.0202 0.13174 0 0.18171-0.0202 0.05-0.0367 9e-3 -0.0367-0.0908zm23.912-0.21805c0-0.0999 0.0165-0.14082 0.0367-0.0908 0.0202 0.05 0.0202 0.13174 0 0.1817-0.0202 0.05-0.0367 9e-3 -0.0367-0.0908zm-23.845-0.26044c3e-3 -0.0847 0.0207-0.10189 0.0439-0.0439 0.021 0.0525 0.0184 0.11515-6e-3 0.1393-0.0241 0.0242-0.0413-0.0188-0.0382-0.0954zm25.106-0.46637c0.27768-0.27983 0.52122-0.50877 0.54121-0.50877 0.02 0-0.19085 0.22894-0.46853 0.50877-0.27768 0.27982-0.52123 0.50877-0.54122 0.50877-0.02 0 0.19086-0.22895 0.46854-0.50877zm-2.8304-0.79272c-0.0224-0.0362 0.0247-0.0488 0.10473-0.0279 0.16971 0.0444 0.19116 0.0938 0.0407 0.0938-0.0576 0-0.12306-0.0297-0.14546-0.0659zm0.46824-0.1069c0-0.0151 0.0572-0.0723 0.12719-0.1272 0.11528-0.0904 0.11785-0.0878 0.0274 0.0274-0.095 0.12107-0.15463 0.15957-0.15463 0.0998zm3.3434-0.15427c0.0939-0.0999 0.18705-0.1817 0.20704-0.1817 0.02 0-0.0405 0.0818-0.13436 0.1817-0.0939 0.0999-0.18706 0.18171-0.20704 0.18171-0.02 0 0.0405-0.0818 0.13436-0.18171zm-3.8966-0.87217c1.5e-4 -0.51968 0.0117-0.72273 0.0257-0.45124s0.0139 0.69668-2.2e-4 0.94486c-0.0142 0.24818-0.0256 0.026-0.0255-0.49362zm1.4981 0.14536c0.21713-0.21986 0.41113-0.39975 0.43112-0.39975 0.02 0-0.14131 0.17989-0.35844 0.39975s-0.41114 0.39975-0.43113 0.39975c-0.02 0 0.14132-0.17989 0.35845-0.39975zm2.9799 0.0727c0.0939-0.0999 0.18706-0.1817 0.20704-0.1817 0.02 0-0.0405 0.0818-0.13436 0.1817-0.0939 0.0999-0.18705 0.1817-0.20704 0.1817-0.02 0 0.0405-0.0818 0.13436-0.1817zm-5.8145-0.36341c0.1356-0.13991 0.26291-0.25438 0.2829-0.25438 0.02 0-0.0746 0.11447-0.21022 0.25438-0.13561 0.13992-0.26291 0.25439-0.2829 0.25439-0.02 0 0.0746-0.11447 0.21022-0.25439zm4.0032-0.30284c-3e-3 -0.0866-0.0466-0.17397-0.0966-0.19413-0.0712-0.0287-0.0707-0.0379 2e-3 -0.0424 0.11032-7e-3 0.19055 0.16869 0.1375 0.30076-0.0206 0.0513-0.04 0.0224-0.0432-0.0642zm2.6835-0.11689c0-0.011 0.25347-0.26448 0.56328-0.56329l0.56328-0.54329-0.54329 0.56328c-0.5046 0.52317-0.58327 0.59645-0.58327 0.5433zm-6.0326-0.30708c0.13561-0.13991 0.26291-0.25439 0.2829-0.25439 0.02 0-0.0746 0.11448-0.21022 0.25439-0.13561 0.13991-0.26291 0.25438-0.2829 0.25438-0.02 0 0.0746-0.11447 0.21022-0.25438zm-19.599-2.2531c3.1e-4 -0.3198 0.0131-0.44159 0.0284-0.27064 0.0154 0.17095 0.0151 0.43261-5.2e-4 0.58146-0.0156 0.14885-0.0282 9e-3 -0.0279-0.31082zm-8.8863 0.35735c3e-3 -0.0847 0.0207-0.10189 0.0439-0.0439 0.021 0.0525 0.0184 0.11515-6e-3 0.13931-0.0242 0.0241-0.0413-0.0188-0.0382-0.0954zm-0.0669-0.61173c0-0.0999 0.0165-0.14082 0.0367-0.0909 0.0202 0.05 0.0202 0.13174 0 0.18171-0.0202 0.05-0.0367 9e-3 -0.0367-0.0908zm19.409-0.0364c1e-3 -0.11992 0.0178-0.16018 0.0362-0.0895 0.0184 0.0707 0.0172 0.16883-3e-3 0.21804-0.0199 0.0492-0.035-9e-3 -0.0335-0.12858zm-19.409-2.2895c0-0.0999 0.0165-0.14082 0.0367-0.0909 0.0202 0.05 0.0202 0.13174 0 0.18171-0.0202 0.05-0.0367 9e-3 -0.0367-0.0908zm0.0669-0.55117c3e-3 -0.0847 0.0207-0.10189 0.0439-0.0439 0.021 0.0525 0.0184 0.11516-6e-3 0.13931-0.0242 0.0241-0.0413-0.0188-0.0382-0.0954zm0.36341-3.2707c3e-3 -0.0847 0.0207-0.10189 0.0439-0.0439 0.021 0.0525 0.0184 0.11515-6e-3 0.1393-0.0242 0.0241-0.0413-0.0188-0.0382-0.0954zm-1.381-5.3784c3e-3 -0.0847 0.0207-0.1019 0.0439-0.0439 0.021 0.0525 0.0184 0.11516-6e-3 0.13931-0.0242 0.0241-0.0413-0.0188-0.0382-0.0954zm0-1.4536c3e-3 -0.0847 0.0207-0.10189 0.0439-0.0439 0.021 0.0525 0.0184 0.11516-6e-3 0.13931-0.0242 0.0242-0.0413-0.0188-0.0382-0.0954zm46.522-0.53905c0-0.0999 0.0165-0.14082 0.0367-0.0908 0.0202 0.05 0.0202 0.13173 0 0.1817-0.0202 0.05-0.0367 9e-3 -0.0367-0.0908zm-46.504-0.50878c0-0.25984 0.0132-0.36614 0.0293-0.23622s0.0161 0.34252 0 0.47243c-0.0161 0.12992-0.0293 0.0236-0.0293-0.23621zm46.504-0.43609c0-0.0999 0.0165-0.14082 0.0367-0.0908 0.0202 0.05 0.0202 0.13173 0 0.1817-0.0202 0.05-0.0367 9e-3 -0.0367-0.0908zm-1.2563-2.6711c-0.0904-0.11528-0.0878-0.11785 0.0274-0.0274 0.12107 0.0949 0.15958 0.15464 0.0998 0.15464-0.0151 0-0.0723-0.0572-0.12719-0.1272zm-0.43232-0.50877-0.1762-0.19988 0.19987 0.17621c0.10993 0.0969 0.19988 0.18685 0.19988 0.19987 0 0.057-0.0589 0.0106-0.22355-0.1762zm-1.3437-1.4173-0.21347-0.23622 0.23622 0.21348c0.12991 0.1174 0.23621 0.2237 0.23621 0.23621 0 0.0562-0.06 7e-3 -0.25896-0.21347zm-0.65646-0.72682-0.13846-0.16353 0.16353 0.13846c0.15368 0.13011 0.19662 0.18861 0.13846 0.18861-0.0138 0-0.0874-0.0736-0.16353-0.16354zm-0.50877-0.58145-0.13846-0.16353 0.16353 0.13845c0.0899 0.0762 0.16354 0.14975 0.16354 0.16354 0 0.0582-0.0585 0.0152-0.18861-0.13846zm-0.43609-0.50877-0.13846-0.16353 0.16353 0.13845c0.0899 0.0761 0.16354 0.14974 0.16354 0.16354 0 0.0582-0.0585 0.0152-0.18861-0.13846zm-0.4748-0.54511c-0.0904-0.11528-0.0878-0.11785 0.0274-0.0274 0.07 0.0549 0.1272 0.1121 0.1272 0.12719 0 0.0598-0.0597 0.0213-0.15464-0.0997zm-20.216-0.81856c-3.2291-1.4922-6.5569-1.8902-9.9795-1.1936-0.48279 0.0983-1.1974 0.27857-1.5881 0.40069-0.39066 0.12211-0.72229 0.21003-0.73695 0.19537-0.0353-0.0353 1.036-2.0107 1.5443-2.8476 1.1999-1.9758 2.56-3.4035 4.2431-4.4542 0.49906-0.31154 1.6599-0.90915 2.2916-1.1798l0.3699-0.15846 1.3745 0.61392c0.75595 0.33765 2.0286 0.89825 2.8281 1.2458 1.5548 0.67585 4.688 2.2007 4.688 2.2816 0 0.0268-0.32499 0.32046-0.7222 0.65248-1.0372 0.86694-2.3 2.1962-2.807 2.9547-0.45266 0.67717-0.72711 1.3654-0.66792 1.675 0.0187 0.0981 0.0141 0.17778-0.0103 0.1771-0.0244-5.5e-4 -0.3968-0.16405-0.82747-0.36307zm20.225-0.0355c0.13561-0.13991 0.26291-0.25439 0.2829-0.25439 0.02 0-0.0746 0.11448-0.21022 0.25439-0.1356 0.13991-0.26291 0.25439-0.2829 0.25439-0.02 0 0.0746-0.11448 0.21022-0.25439zm0.75797-0.76316c0-0.0941 0.0246-0.11871 0.0716-0.0716 0.0471 0.0471 0.0471 0.0962 0 0.14329-0.0471 0.0471-0.0716 0.0225-0.0716-0.0716z" fill="#6dc6fd"/><path d="m267.09 372.2c0.10864-0.44435 0.93467-4.7558 1.105-5.7676 0.2491-1.4796 0.22508-1.7397-0.20308-2.199-0.78124-0.83804-1.2688-1.8314-1.5487-3.1555-0.0611-0.28883-0.20685-1.1956-0.32397-2.0151-0.30988-2.1683-0.27868-2.7914-1.6559-5.7467-0.99446-2.1339-1.4892-4.3654-2.1308-6.1861 1.0851-15.776 2.2467-15.774 18.712-19.694 0.57963 0.20461 8.1534 3.834 17.961 8.6072 4.3546 2.1192 5.9228 2.9152 6.0323 3.0619l0.14802 0.19826-0.61754 0.56892-0.61755 0.56892 0.15039 0.17107c0.0827 0.0941 0.57332 0.66164 1.0902 1.2612 0.5169 0.59958 1.3001 1.4663 1.7404 1.9261 1.4484 1.5124 1.9798 2.2576 2.3421 3.2848 0.34989 0.9919 0.24074 2.1908-0.30761 3.379-0.30611 0.66327-0.68148 1.2216-2.3609 3.5116-1.9725 2.6897-3.1796 4.4105-4.7923 6.8321-1.9394 2.9122-1.9019 2.8637-3.2298 4.18-0.64564 0.64002-1.5482 1.5683-2.0058 2.0628-0.86232 0.93203-1.462 1.4615-1.6554 1.4615-0.18226 0-0.0821-0.42765 0.40121-1.7129 0.24153-0.64227 0.46103-1.2845 0.4878-1.4271 0.10737-0.57233-0.22476-0.41669-1.341 0.62843-0.78141 0.73161-1.1014 0.93662-1.2402 0.7946-0.0343-0.035-0.0727-0.53105-0.0855-1.1022-0.032-1.4301-0.13423-1.4768-1.0445-0.47685-0.74759 0.82126-0.78727 0.8137-1.131-0.21531-0.14438-0.4322-0.29546-0.81877-0.33574-0.85905-0.0403-0.0403-0.0581-0.20997-0.0396-0.37709 0.0194-0.17518-0.0281-0.5501-0.1121-0.88531-0.29426-1.1739-0.34038-1.6313-0.3371-3.3434 3e-3 -1.7682 0.0806-2.5202 0.44375-4.3246 0.19975-0.99235 0.65151-2.8051 0.94188-3.7794 0.42317-1.42 1.5766-5.1309 1.6203-5.2133 0.029-0.0545 0.19245 0.12929 0.42024 0.47243 0.6643 1.0007 1.8744 2.0795 2.7485 2.4504 0.78569 0.33339 0.97536 0.36199 2.3985 0.36168 1.2215-2.7e-4 1.4341-0.0183 1.8411-0.15657 0.97777-0.33205 1.328-0.74273 1.3766-1.6142 0.0384-0.68894-0.14033-1.2158-0.58325-1.7189-0.57275-0.65068-1.3057-1.002-2.33-1.1169-1.6696-0.18723-2.7786-1.4375-3.2611-3.6764-0.17704-0.82147-0.25459-2.9766-0.14241-3.9572 0.0432-0.37758 0.0633-0.70171 0.0448-0.72029-0.0186-0.0186-0.16277 5e-3 -0.32041 0.0521-0.40143 0.12027-0.95124 0.57678-1.3902 1.1542-0.43938 0.57808-1.1818 2.0666-1.5682 3.1441-0.25067 0.69902-0.27311 0.82424-0.26703 1.49 7e-3 0.81103 0.18396 1.6733 0.51954 2.5376l0.20904 0.53834-0.69834 0.68421c-1.8782 1.8402-4.2135 3.6779-6.7029 5.2747-1.5652 1.004-3.2597 1.9429-6.315 3.4993-1.619 0.8247-3.1253 1.6163-3.3474 1.7591-0.35024 0.22518-0.50884 0.41754-1.196 1.4506-0.89569 1.3465-1.439 2.3677-1.6005 3.0081-0.0605 0.23985-0.13933 0.92669-0.1752 1.5263-0.0853 1.4263-0.29594 2.0774-1.1213 3.4663-0.73472 1.2364-0.96957 2.5183-0.89294 4.8739l0.0443 1.3628h-3.7919zm17.874-31.922c-0.0592-0.30961 0.21526-0.99788 0.66792-1.675 0.50702-0.7585 1.7698-2.0877 2.807-2.9547 0.39721-0.33202 0.7222-0.62563 0.7222-0.65248 0-0.0809-3.1331-1.6057-4.688-2.2816-0.79949-0.34752-2.0721-0.90811-2.8281-1.2458l-1.3745-0.61391-0.3699 0.15845c-2.9882 1.2801-4.8822 2.913-6.5347 5.6339-0.50829 0.83693-1.5796 2.8123-1.5443 2.8476 0.0147 0.0147 0.34629-0.0733 0.73695-0.19537 2.6391-0.82494 5.5354-0.95659 8.1714-0.37141 0.93679 0.20796 2.447 0.72572 3.3962 1.1643 0.43067 0.19901 0.80303 0.36239 0.82746 0.36307 0.0244 5.5e-4 0.0291-0.079 0.0104-0.1771zm-1.2904 31.861c-1.2142-0.0818-2.0698-0.19307-2.8346-0.36849l-0.65414-0.15004-7e-3 -0.30063c-4e-3 -0.16534-0.0763-0.84028-0.16133-1.4999-0.4298-3.3344-0.40984-6.7242 0.0501-8.5037 0.44287-1.7136 0.73036-2.0334 2.5847-2.8758 1.3482-0.61244 1.6934-0.85978 2.8931-2.073 0.5894-0.59606 1.0892-1.0837 1.1106-1.0837 0.0215 0-0.12358 0.24092-0.32229 0.53538-0.9786 1.4502-2.2052 3.7332-2.7386 5.0974-0.28002 0.71607-0.28371 0.7381-0.24953 1.49 0.0191 0.41973 0.0337 1.1229 0.0325 1.5626-2e-3 0.78733-9e-3 0.81946-0.45131 2.1114-0.24704 0.72154-0.48827 1.5635-0.53607 1.871-0.21142 1.3599 0.36256 2.4224 2.0171 3.7335 0.33612 0.26636 0.61111 0.49537 0.61111 0.50891 0 0.03-0.21836 0.0211-1.3446-0.0549zm-17.605-1.4468c0-0.17989 0.0142-0.25348 0.0315-0.16353 0.0173 0.0899 0.0173 0.23712 0 0.32706-0.0173 0.0899-0.0315 0.0163-0.0315-0.16353zm20.767-15.654c0-0.0151 0.0572-0.0723 0.1272-0.12719 0.11527-0.0904 0.11784-0.0878 0.0274 0.0274-0.0949 0.12107-0.15464 0.15957-0.15464 0.0998z" fill="#286efd"/><path d="m266.58 372.08c-0.43716-0.25073-0.5773-0.54485-0.50124-1.052 0.12235-0.81593-0.23402-2.3588-1.048-4.5371-0.31903-0.85377-0.67547-1.9328-0.7921-2.3977-0.49391-1.9692-0.48258-3.9266 0.0351-6.0673 0.0925-0.38231 0.11142-0.70226 0.0818-1.381-0.0411-0.94323-0.15542-1.4627-0.70633-3.2092-0.60088-1.9049-0.81577-3.1219-0.69429-3.932l0.0534-0.356 0.24049 0.83571c0.13227 0.45964 0.47551 1.4408 0.76275 2.1803 1.1991 3.0871 1.3845 3.5884 1.5912 4.3024 0.24469 0.84512 0.38495 1.5729 0.55753 2.893 0.33411 2.5557 0.78553 3.7594 1.83 4.8798 0.42816 0.4593 0.45218 0.71935 0.20308 2.199-0.19076 1.1331-1.026 5.481-1.1009 5.7313-0.05 0.16696-0.0724 0.16305-0.51256-0.0894zm13.049-0.71877c-0.22068-0.13995-0.37796-0.31326-0.47822-0.52694-0.20856-0.4445-0.68654-2.175-2.1634-7.8326-0.70317-2.6937-1.3428-5.1297-1.4214-5.4133-0.0786-0.28359-0.14289-0.55436-0.14289-0.6017 0-0.14316 0.63212-0.49494 3.7068-2.0628 3.0586-1.5597 4.7537-2.4994 6.315-3.5009 2.494-1.5997 4.8253-3.4349 6.7108-5.2826 0.38847-0.38067 0.7196-0.67745 0.73587-0.65951 0.0163 0.0179 0.0926 0.15729 0.16975 0.30965 0.13971 0.2761 0.13964 0.27861-0.0216 0.76316-0.81349 2.445-1.8638 6.0558-2.245 7.718-0.80569 3.5131-0.9027 6.3581-0.29657 8.6972 0.21369 0.82465 0.11364 1.1907-0.52012 1.9031l-0.34569 0.38855-0.44639-0.67928c-0.9468-1.4407-1.5456-2.7112-1.8456-3.9159-0.21909-0.87965-0.2708-2.4277-0.1116-3.3411 0.20598-1.1817 0.74463-2.5985 1.4645-3.8521l0.2713-0.47243-0.53829 0.5029c-0.29606 0.27659-1.3069 1.28-2.2463 2.2298-1.0619 1.0736-1.8747 1.8327-2.1486 2.0066-0.2423 0.15386-0.86373 0.47199-1.381 0.70694-1.5635 0.7102-1.9585 1.0416-2.2894 1.9204-0.4545 1.2072-0.64977 2.653-0.64977 4.8107 0 1.9476 0.12172 3.4801 0.48031 6.0475 0.0433 0.3098 0.0337 0.34524-0.0928 0.34524-0.0776 0-0.28898-0.0938-0.46984-0.20853zm1.1334-15.727 0.22083 0.1972-0.19874-0.21372-0.19873-0.21372 0.19873-0.22084 0.19874-0.22083-0.22083 0.19874-0.22084 0.19873-0.39417-0.36113 0.18057 0.19709 0.18056 0.19708-0.1972 0.22083-0.1972 0.22084 0.42744-0.39748zm16.956-6.1348c0.05-0.0202 0.13174-0.0202 0.18171 0 0.05 0.0202 9e-3 0.0367-0.0909 0.0367s-0.14083-0.0165-0.0909-0.0367zm1.8897 0c0.05-0.0202 0.13174-0.0202 0.18171 0 0.05 0.0202 9e-3 0.0367-0.0909 0.0367s-0.14082-0.0165-0.0908-0.0367zm-2.394-0.0742c0.0525-0.021 0.11516-0.0184 0.13931 6e-3 0.0241 0.0241-0.0188 0.0413-0.0954 0.0382-0.0847-3e-3 -0.1019-0.0207-0.0439-0.0439zm4.2292-0.55925c0-0.0151 0.0572-0.0723 0.12719-0.12719 0.11528-0.0904 0.11785-0.0878 0.0274 0.0274-0.0949 0.12107-0.15464 0.15957-0.15464 0.0998zm-6.4052-0.53584c-0.0904-0.11528-0.0878-0.11785 0.0274-0.0274 0.12107 0.0949 0.15958 0.15463 0.0998 0.15463-0.0151 0-0.0723-0.0572-0.1272-0.12719zm-0.50877-0.43609c-0.0904-0.11528-0.0878-0.11785 0.0274-0.0274 0.07 0.0549 0.12719 0.1121 0.12719 0.12719 0 0.0598-0.0597 0.0213-0.15464-0.0998zm-0.54274-0.61779-0.13846-0.16354 0.16353 0.13846c0.15368 0.13012 0.19663 0.18861 0.13846 0.18861-0.0138 0-0.0874-0.0736-0.16353-0.16353zm7.8986-0.0969c3e-3 -0.0847 0.0207-0.10189 0.0439-0.0439 0.021 0.0525 0.0184 0.11515-6e-3 0.1393-0.0242 0.0242-0.0413-0.0188-0.0382-0.0954zm-8.1553-0.23016c-0.0904-0.11528-0.0878-0.11785 0.0274-0.0274 0.07 0.0549 0.12719 0.1121 0.12719 0.12719 0 0.0598-0.0597 0.0213-0.15463-0.0998zm7.6316-0.87218c-0.0904-0.11528-0.0878-0.11785 0.0274-0.0274 0.12107 0.0949 0.15957 0.15463 0.0998 0.15463-0.0151 0-0.0723-0.0572-0.12719-0.12719zm-2.297-1.1588c0.0707-0.0184 0.16884-0.0172 0.21805 3e-3 0.0492 0.0199-9e-3 0.035-0.12858 0.0335-0.11992-1e-3 -0.16018-0.0178-0.0895-0.0362zm-2.0601-0.949-0.17621-0.19988 0.19988 0.17621c0.10993 0.0969 0.19987 0.18685 0.19987 0.19987 0 0.057-0.0589 0.0106-0.22354-0.1762zm-4.8527-0.81767c0-0.0999 0.0165-0.14082 0.0367-0.0908 0.0202 0.05 0.0202 0.13173 0 0.1817-0.0202 0.05-0.0367 9e-3 -0.0367-0.0908zm-0.0644-0.87218c0-0.17989 0.0142-0.25348 0.0315-0.16353 0.0173 0.0899 0.0173 0.23712 0 0.32707-0.0173 0.0899-0.0315 0.0163-0.0315-0.16354zm3.5473-1.496c3e-3 -0.0847 0.0207-0.10189 0.0439-0.0439 0.021 0.0525 0.0184 0.11516-6e-3 0.13931-0.0242 0.0241-0.0413-0.0188-0.0382-0.0954zm-0.0643-0.57539c1e-3 -0.11993 0.0178-0.16019 0.0362-0.0895 0.0184 0.0707 0.0172 0.16884-3e-3 0.21805-0.0199 0.0492-0.035-9e-3 -0.0335-0.12858zm-0.0615-1.4173c0-0.33979 0.0125-0.47879 0.0278-0.3089 0.0153 0.1699 0.0153 0.4479 0 0.61779-0.0153 0.1699-0.0278 0.0309-0.0278-0.30889zm-1.152-1.5263c0.15614-0.1599 0.30024-0.29073 0.32023-0.29073 0.02 0-0.0914 0.13083-0.24755 0.29073-0.15613 0.1599-0.30024 0.29072-0.32022 0.29072-0.02 0 0.0914-0.13082 0.24754-0.29072zm1.2161 0.0727c0-0.13991 0.015-0.19715 0.0332-0.12719 0.0183 0.07 0.0183 0.18443 0 0.25438-0.0183 0.07-0.0332 0.0127-0.0332-0.12719zm0.0673-0.65414c0-0.0999 0.0165-0.14082 0.0367-0.0908 0.0202 0.05 0.0202 0.13174 0 0.18171-0.0202 0.05-0.0367 9e-3 -0.0367-0.0909z" fill="#1c4fb4"/><path d="m280.31 355.61 0.1972-0.22083-0.36113-0.39417 0.39417 0.36113 0.22084-0.19873 0.22083-0.19874-0.19874 0.22083-0.19873 0.22084 0.19873 0.21372 0.19874 0.21372-0.44167-0.39441-0.42744 0.39748zm17.222-6.1496c-1.7887-0.25633-3.5959-1.8201-4.6326-4.0086-0.45387-0.95814-0.68686-1.8706-0.73672-2.8854l-0.0411-0.83584 0.34399-0.94486c0.86395-2.373 1.9327-3.8892 2.9463-4.1799l0.2258-0.0648-0.0597 0.66871c-0.0328 0.3678-0.055 1.1757-0.0492 1.7953 0.0268 2.8857 0.81527 4.7742 2.3294 5.5793 0.33152 0.17629 0.63536 0.26551 1.1829 0.34739 0.40527 0.0606 0.87409 0.16368 1.0418 0.22909 0.85295 0.33257 1.4828 0.97889 1.731 1.7764 0.3273 1.0516-4e-3 1.8467-0.94156 2.2615-0.69399 0.30699-2.2005 0.42499-3.3404 0.26164z" fill="#140f0e"/></g></g><text x="200.97388" y="107.20827" font-family="'Special Elite'" font-size="40px" style="line-height:1.25" xml:space="preserve"><tspan x="200.97388" y="107.20827"/></text><text font-family="'Special Elite'" font-size="40px" style="line-height:1.25;shape-inside:url(#rect846);white-space:pre" xml:space="preserve"/></svg>
