<?xml version="1.0" encoding="UTF-8" standalone="no"?>
<svg
   width="33.993999"
   height="33.993999"
   viewBox="0 0 33.993999 33.993999"
   version="1.1"
   id="svg52"
   xmlns="http://www.w3.org/2000/svg"
   xmlns:svg="http://www.w3.org/2000/svg">
  <defs
     id="defs12">
    <style
       id="style2">.a{fill:rgba(0,0,0,0);}.b{fill:#fff;}.c{clip-path:url(#a);}.d{fill:url(#b);}</style>
    <clipPath
       id="a">
      <path
         class="a"
         d="m -4952.577,-848.046 a 10.933,10.933 0 0 0 -10.8,-10.931 h -2.187 v 2.229 h 2.077 0.143 a 4.954,4.954 0 0 1 4.8,4.951 4.953,4.953 0 0 1 -4.943,4.953 h -2.077 v 2.229 h 2.077 a 8.651,8.651 0 0 1 6.221,2.635 8.651,8.651 0 0 1 -6.221,2.635 h -2.077 v 2.229 h 2.077 a 4.953,4.953 0 0 1 4.943,4.953 4.954,4.954 0 0 1 -4.8,4.951 h -0.143 -2.077 v 2.229 h 2.187 a 10.933,10.933 0 0 0 10.8,-10.931 10.887,10.887 0 0 0 -1.839,-6.068 10.886,10.886 0 0 0 1.839,-6.064 z m -6.691,2.053 a 7.183,7.183 0 0 0 2.949,-5.8 7.255,7.255 0 0 0 -0.124,-1.336 8.667,8.667 0 0 1 1.641,5.086 8.661,8.661 0 0 1 -1.118,4.267 10.925,10.925 0 0 0 -3.348,-2.216 z m 2.825,15.167 a 7.256,7.256 0 0 0 0.124,-1.336 7.182,7.182 0 0 0 -2.949,-5.8 10.923,10.923 0 0 0 3.348,-2.214 8.664,8.664 0 0 1 1.118,4.267 8.667,8.667 0 0 1 -1.641,5.084 z"
         transform="translate(4965.564,858.978)"
         id="path4" />
    </clipPath>
    <linearGradient
       id="b"
       x1="-7.346312"
       y1="19.452513"
       x2="29.080965"
       y2="2.2821383"
       gradientUnits="userSpaceOnUse"
       gradientTransform="scale(0.63244633,1.5811618)">
      <stop
         offset="0"
         stop-color="#c30"
         id="stop7" />
      <stop
         offset="1"
         stop-color="#f60"
         id="stop9" />
    </linearGradient>
    <clipPath
       id="a-3">
      <path
         class="a"
         d="m -4952.577,-848.046 a 10.933,10.933 0 0 0 -10.8,-10.931 h -2.187 v 2.229 h 2.077 0.143 a 4.954,4.954 0 0 1 4.8,4.951 4.953,4.953 0 0 1 -4.943,4.953 h -2.077 v 2.229 h 2.077 a 8.651,8.651 0 0 1 6.221,2.635 8.651,8.651 0 0 1 -6.221,2.635 h -2.077 v 2.229 h 2.077 a 4.953,4.953 0 0 1 4.943,4.953 4.954,4.954 0 0 1 -4.8,4.951 h -0.143 -2.077 v 2.229 h 2.187 a 10.933,10.933 0 0 0 10.8,-10.931 10.887,10.887 0 0 0 -1.839,-6.068 10.886,10.886 0 0 0 1.839,-6.064 z m -6.691,2.053 a 7.183,7.183 0 0 0 2.949,-5.8 7.255,7.255 0 0 0 -0.124,-1.336 8.667,8.667 0 0 1 1.641,5.086 8.661,8.661 0 0 1 -1.118,4.267 10.925,10.925 0 0 0 -3.348,-2.216 z m 2.825,15.167 a 7.256,7.256 0 0 0 0.124,-1.336 7.182,7.182 0 0 0 -2.949,-5.8 10.923,10.923 0 0 0 3.348,-2.214 8.664,8.664 0 0 1 1.118,4.267 8.667,8.667 0 0 1 -1.641,5.084 z"
         transform="translate(4965.564,858.978)"
         id="path4-6" />
    </clipPath>
  </defs>
  <g
     transform="translate(10.503496,-0.001)"
     id="g48">
    <g
       class="c"
       clip-path="url(#a)"
       id="g46">
      <rect
         class="d"
         width="13.746"
         height="34.366001"
         id="rect44"
         style="fill:url(#b)"
         x="0"
         y="0" />
    </g>
  </g>
</svg>
