<?xml version="1.0" encoding="UTF-8" standalone="no"?>
<svg
   viewBox="0 0 282 282"
   version="1.1"
   id="svg22"
   width="282"
   height="282"
   xmlns="http://www.w3.org/2000/svg"
   xmlns:svg="http://www.w3.org/2000/svg"
   xmlns:rdf="http://www.w3.org/1999/02/22-rdf-syntax-ns#"
   xmlns:cc="http://creativecommons.org/ns#"
   xmlns:dc="http://purl.org/dc/elements/1.1/">
  <defs
     id="defs14">
    <style
       id="style2">.a{fill:url(#a);}.b{fill:url(#b);}</style>
    <linearGradient
       id="a"
       x1="153.91"
       y1="333.84"
       x2="275.60001"
       y2="212.14999"
       gradientUnits="userSpaceOnUse"
       gradientTransform="translate(-144,-120.5)">
      <stop
         offset="0.2"
         stop-color="#2576f4"
         id="stop4" />
      <stop
         offset="1"
         stop-color="#3298da"
         id="stop6" />
    </linearGradient>
    <linearGradient
       id="b"
       x1="277.17001"
       y1="299.94"
       x2="426.53"
       y2="213.71001"
       gradientUnits="userSpaceOnUse"
       gradientTransform="translate(-144,-120.5)">
      <stop
         offset="0"
         stop-color="#36bdba"
         id="stop9" />
      <stop
         offset="0.93"
         stop-color="#39d8aa"
         id="stop11" />
    </linearGradient>
  </defs>
  <title
     id="title16">transparent background - primary - positive - gradient</title>
  <path
     class="a"
     d="M 58.75,82.25 0,23.5 h 63.45 l 94,94 H 94 a 47,47 0 0 0 0,94 h 23.5 l 47,47 H 94 A 94,94 0 0 1 0,164.5 C 0,126.38 18.8,95.65 58.75,82.25 Z"
     id="path18"
     style="fill:url(#a)" />
  <path
     class="b"
     d="M 223.25,199.75 282,258.5 h -63.45 l -94,-94 H 188 a 47,47 0 0 0 0,-94 h -23.5 l -47,-47 H 188 a 94,94 0 0 1 94,94 c 0,38.12 -18.8,68.85 -58.75,82.25 z"
     id="path20"
     style="fill:url(#b)" />
  <metadata
     id="metadata841">
    <rdf:RDF>
      <cc:Work
         rdf:about="">
        <dc:title>transparent background - primary - positive - gradient</dc:title>
      </cc:Work>
    </rdf:RDF>
  </metadata>
</svg>
