<svg xmlns="http://www.w3.org/2000/svg" viewBox="-1736.207 3065.979 82.838 65.731"><defs><style>.a{fill:none;stroke:#ffc84d;stroke-linecap:round;stroke-linejoin:round;stroke-miterlimit:10;stroke-width:3.3px;}.b{fill:#6ed3f3;}.c{fill:#ff6f55;}</style></defs><g transform="translate(23 -197)"><g transform="translate(-1759.207 3263.345)"><line class="a" x2="26.756" transform="translate(36.959 1.284)"/><path class="a" d="M44.638,1.8,26.8,37.475H44.638L35.719,64.231,71.394,28.556H53.128L71.394,1.8" transform="translate(-7.678 -0.516)"/><g transform="translate(0 0)"><circle class="b" cx="1.284" cy="1.284" r="1.284"/><circle class="b" cx="1.284" cy="1.284" r="1.284" transform="translate(0 8.919)"/><circle class="b" cx="1.284" cy="1.284" r="1.284" transform="translate(0 17.838)"/><circle class="b" cx="1.284" cy="1.284" r="1.284" transform="translate(0 26.756)"/><circle class="b" cx="1.284" cy="1.284" r="1.284" transform="translate(0 35.675)"/><circle class="b" cx="1.284" cy="1.284" r="1.284" transform="translate(0 44.594)"/><circle class="b" cx="1.284" cy="1.284" r="1.284" transform="translate(0 53.513)"/><circle class="b" cx="1.284" cy="1.284" r="1.284" transform="translate(0 62.431)"/></g><g transform="translate(8.919 0)"><circle class="b" cx="1.284" cy="1.284" r="1.284"/><circle class="b" cx="1.284" cy="1.284" r="1.284" transform="translate(0 8.919)"/><circle class="b" cx="1.284" cy="1.284" r="1.284" transform="translate(0 17.838)"/><circle class="b" cx="1.284" cy="1.284" r="1.284" transform="translate(0 26.756)"/><circle class="b" cx="1.284" cy="1.284" r="1.284" transform="translate(0 35.675)"/><circle class="b" cx="1.284" cy="1.284" r="1.284" transform="translate(0 44.594)"/><circle class="b" cx="1.284" cy="1.284" r="1.284" transform="translate(0 53.513)"/><circle class="b" cx="1.284" cy="1.284" r="1.284" transform="translate(0 62.431)"/></g><g transform="translate(17.838 0)"><circle class="b" cx="1.284" cy="1.284" r="1.284"/><circle class="b" cx="1.284" cy="1.284" r="1.284" transform="translate(0 8.919)"/><circle class="b" cx="1.284" cy="1.284" r="1.284" transform="translate(0 17.838)"/><circle class="b" cx="1.284" cy="1.284" r="1.284" transform="translate(0 26.756)"/><circle class="c" cx="1.284" cy="1.284" r="1.284" transform="translate(0 35.675)"/><circle class="b" cx="1.284" cy="1.284" r="1.284" transform="translate(0 44.594)"/><circle class="b" cx="1.284" cy="1.284" r="1.284" transform="translate(0 53.513)"/><circle class="b" cx="1.284" cy="1.284" r="1.284" transform="translate(0 62.431)"/></g><circle class="b" cx="1.284" cy="1.284" r="1.284" transform="translate(26.756 0)"/><circle class="b" cx="1.284" cy="1.284" r="1.284" transform="translate(26.756 8.919)"/><circle class="c" cx="1.284" cy="1.284" r="1.284" transform="translate(26.756 17.838)"/><circle class="b" cx="1.284" cy="1.284" r="1.284" transform="translate(26.756 26.756)"/><path class="c" d="M1.284,0A1.284,1.284,0,1,1,0,1.284,1.284,1.284,0,0,1,1.284,0Z" transform="translate(26.756 35.675)"/><circle class="b" cx="1.284" cy="1.284" r="1.284" transform="translate(26.756 44.594)"/><circle class="b" cx="1.284" cy="1.284" r="1.284" transform="translate(26.756 53.513)"/><circle class="c" cx="1.284" cy="1.284" r="1.284" transform="translate(26.756 62.431)"/><g transform="translate(35.675 0)"><circle class="c" cx="1.284" cy="1.284" r="1.284"/><circle class="b" cx="1.284" cy="1.284" r="1.284" transform="translate(0 8.919)"/><circle class="b" cx="1.284" cy="1.284" r="1.284" transform="translate(0 17.838)"/><circle class="b" cx="1.284" cy="1.284" r="1.284" transform="translate(0 26.756)"/><circle class="c" cx="1.284" cy="1.284" r="1.284" transform="translate(0 35.675)"/><circle class="b" cx="1.284" cy="1.284" r="1.284" transform="translate(0 44.594)"/><circle class="c" cx="1.284" cy="1.284" r="1.284" transform="translate(0 53.513)"/><circle class="b" cx="1.284" cy="1.284" r="1.284" transform="translate(0 62.431)"/></g><g transform="translate(44.594 0)"><circle class="c" cx="1.284" cy="1.284" r="1.284"/><circle class="b" cx="1.284" cy="1.284" r="1.284" transform="translate(0 8.919)"/><circle class="b" cx="1.284" cy="1.284" r="1.284" transform="translate(0 17.838)"/><circle class="c" cx="1.284" cy="1.284" r="1.284" transform="translate(0 26.756)"/><circle class="b" cx="1.284" cy="1.284" r="1.284" transform="translate(0 35.675)"/><circle class="c" cx="1.284" cy="1.284" r="1.284" transform="translate(0 44.594)"/><circle class="b" cx="1.284" cy="1.284" r="1.284" transform="translate(0 53.513)"/><circle class="b" cx="1.284" cy="1.284" r="1.284" transform="translate(0 62.431)"/></g><g transform="translate(53.513 0)"><circle class="c" cx="1.284" cy="1.284" r="1.284"/><circle class="b" cx="1.284" cy="1.284" r="1.284" transform="translate(0 8.919)"/><circle class="b" cx="1.284" cy="1.284" r="1.284" transform="translate(0 17.838)"/><circle class="c" cx="1.284" cy="1.284" r="1.284" transform="translate(0 26.756)"/><circle class="c" cx="1.284" cy="1.284" r="1.284" transform="translate(0 35.675)"/><circle class="b" cx="1.284" cy="1.284" r="1.284" transform="translate(0 44.594)"/><circle class="b" cx="1.284" cy="1.284" r="1.284" transform="translate(0 53.513)"/><circle class="b" cx="1.284" cy="1.284" r="1.284" transform="translate(0 62.431)"/></g><g transform="translate(62.431 0)"><circle class="c" cx="1.284" cy="1.284" r="1.284"/><circle class="b" cx="1.284" cy="1.284" r="1.284" transform="translate(0 8.919)"/><circle class="b" cx="1.284" cy="1.284" r="1.284" transform="translate(0 17.838)"/><circle class="c" cx="1.284" cy="1.284" r="1.284" transform="translate(0 26.756)"/><circle class="b" cx="1.284" cy="1.284" r="1.284" transform="translate(0 35.675)"/><circle class="b" cx="1.284" cy="1.284" r="1.284" transform="translate(0 44.594)"/><circle class="b" cx="1.284" cy="1.284" r="1.284" transform="translate(0 53.513)"/><circle class="b" cx="1.284" cy="1.284" r="1.284" transform="translate(0 62.431)"/></g><g transform="translate(71.35 0)"><circle class="b" cx="1.284" cy="1.284" r="1.284"/><circle class="b" cx="1.284" cy="1.284" r="1.284" transform="translate(0 8.919)"/><circle class="b" cx="1.284" cy="1.284" r="1.284" transform="translate(0 17.838)"/><circle class="b" cx="1.284" cy="1.284" r="1.284" transform="translate(0 26.756)"/><circle class="b" cx="1.284" cy="1.284" r="1.284" transform="translate(0 35.675)"/><circle class="b" cx="1.284" cy="1.284" r="1.284" transform="translate(0 44.594)"/><circle class="b" cx="1.284" cy="1.284" r="1.284" transform="translate(0 53.513)"/><circle class="b" cx="1.284" cy="1.284" r="1.284" transform="translate(0 62.431)"/></g><g transform="translate(80.269 0)"><circle class="b" cx="1.284" cy="1.284" r="1.284"/><circle class="b" cx="1.284" cy="1.284" r="1.284" transform="translate(0 8.919)"/><circle class="b" cx="1.284" cy="1.284" r="1.284" transform="translate(0 17.838)"/><circle class="b" cx="1.284" cy="1.284" r="1.284" transform="translate(0 26.756)"/><circle class="b" cx="1.284" cy="1.284" r="1.284" transform="translate(0 35.675)"/><circle class="b" cx="1.284" cy="1.284" r="1.284" transform="translate(0 44.594)"/><circle class="b" cx="1.284" cy="1.284" r="1.284" transform="translate(0 53.513)"/><circle class="b" cx="1.284" cy="1.284" r="1.284" transform="translate(0 62.431)"/></g></g></g></svg>