<svg xmlns="http://www.w3.org/2000/svg" xmlns:xlink="http://www.w3.org/1999/xlink" viewBox="-4258.5 1720.5 576 322.151"><defs><style>.a,.af,.b,.g,.h,.i,.k,.l,.o,.p,.r,.v,.w{fill:none;stroke-miterlimit:10;}.a,.b,.g,.h,.k,.o,.p{stroke:#e8ebee;}.a,.b{stroke-width:0.998px;}.a,.h,.j,.n,.o{opacity:0.55;}.c,.s{fill:#2970ff;}.d,.f,.n{fill:#e8ebee;}.d,.e,.k{opacity:0.34;}.af,.i{stroke:#6296fc;}.l{stroke:#2970ff;}.m,.y{fill:#091440;}.af,.o,.p{stroke-linecap:round;}.o,.p{stroke-linejoin:round;stroke-dasharray:0.1 5;}.q{fill:#e6faff;}.r,.v{stroke:#091440;}.r{stroke-width:2px;}.r,.s,.y,.z{opacity:0.5;}.t{fill:#3ad7a4;}.u{clip-path:url(#a);}.v,.w{stroke-width:1.778px;}.w{stroke:#3ad7a4;}.x{fill:#6ed3f3;}.z{fill:#b6e9f9;}.aa{fill:#ed6d47;}.ab{clip-path:url(#b);}.ac{clip-path:url(#c);}.ad{clip-path:url(#d);}.ae{fill:#ffc84d;}</style><clipPath id="a"><rect width="371.324" height="187.762"/></clipPath><clipPath id="b"><path d="M128.591,131.321s.774,21.329,2.21,36.359,0,19.671,0,19.671-5.636,5.526-10.057,2.542-9.173-30.833-5.415-52.383C118.976,116.181,125.828,108.445,128.591,131.321Z" transform="translate(-113.968 -117.435)"/></clipPath><clipPath id="c"><path d="M129.358,116.842c-1.437-3.868-7.625-7.846-10.72-9.836s-11.051-4.2-14.146-2.763c-3.2,1.547-13.814,9.946-16.135,14.035s2.652,23.1,3.868,29.4,6.3,9.836,16.356,10.278,22.655-4.421,22.655-4.421S134.11,129.772,129.358,116.842Z" transform="translate(-87.749 -103.784)"/></clipPath><clipPath id="d"><path d="M93.7,114.2c8.62.442,6.3,15.914,6.189,20-.111,4.2-.221,48.4-1.879,54.262l-1.768,5.857-9.173.553S76.8,177.857,81,152.107C85.2,126.468,87.3,113.759,93.7,114.2Z" transform="translate(-79.988 -114.19)"/></clipPath></defs><g transform="translate(-4344 856)"><g transform="translate(131.973 869.2)"><rect class="a" width="96.257" height="53.709"/><rect class="b" width="96.257" height="47.963" transform="translate(0 70.176)"/><line class="b" y2="16.466" transform="translate(50.283 53.709)"/><rect class="b" width="96.257" height="47.963" transform="translate(0 140.352)"/><line class="b" y2="22.213" transform="translate(50.283 118.139)"/></g><circle class="c" cx="11.051" cy="11.051" r="11.051" transform="translate(178.279 1044.805)"/><rect class="d" width="55.257" height="6.852" transform="translate(545.293 1099.067)"/><g class="e" transform="translate(545.293 1111.113)"><rect class="f" width="55.257" height="6.852"/></g><rect class="g" width="55.257" height="27.628" transform="translate(538.109 865)"/><rect class="g" width="55.257" height="27.628" transform="translate(538.109 905.448)"/><rect class="g" width="55.257" height="27.628" transform="translate(605.743 905.448)"/><rect class="h" width="92.831" height="92.831" transform="translate(526.505 1090.668)"/><line class="g" y2="12.82" transform="translate(566.953 892.628)"/><rect class="h" width="55.257" height="27.628" transform="translate(538.109 945.785)"/><line class="i" y2="12.709" transform="translate(566.953 933.076)"/><line class="g" x2="12.709" transform="translate(593.366 920.257)"/><g transform="translate(157.502 1092.878)"><rect class="g" width="92.831" height="73.602"/></g><g transform="translate(102.577 971.424)"><rect class="g" width="92.831" height="33.375"/></g><g class="j" transform="translate(230.772 1127.358)"><rect class="g" width="63.103" height="47.742"/></g><g transform="translate(544.409 869.863)"><rect class="f" width="42.437" height="6.852"/><rect class="f" width="23.429" height="6.852" transform="translate(67.745 42.437)"/><rect class="f" width="22.545" height="6.852" transform="translate(0 11.051)"/></g><rect class="k" width="29.065" height="14.588" transform="translate(598.118 1021.045)"/><rect class="h" width="65.313" height="32.712" transform="translate(430.47 892.628)"/><rect class="h" width="29.065" height="14.588" transform="translate(110.976 1082.6)"/><rect class="g" width="11.935" height="5.968" transform="translate(86 1028.007)"/><rect class="g" width="23.76" height="11.935" transform="translate(294.428 881.798)"/><rect class="g" width="23.76" height="11.935" transform="translate(341.617 1163.275)"/><g transform="translate(201.486 1043.479)"><circle class="l" cx="9.836" cy="9.836" r="9.836"/><path class="m" d="M112.031,175.378l-2.431-4.089,2.431-4.089h4.752l2.321,4.089-2.321,4.089Z" transform="translate(-104.516 -161.453)"/></g><rect class="n" width="55.257" height="6.852" transform="translate(201.597 881.798)"/><g class="j" transform="translate(201.597 893.844)"><rect class="f" width="41.442" height="6.852"/></g><circle class="h" cx="2.431" cy="2.431" r="2.431" transform="translate(584.525 949.764)"/><circle class="g" cx="2.431" cy="2.431" r="2.431" transform="translate(297.743 885.334)"/><line class="o" x1="51.168" transform="translate(593.366 958.826)"/><line class="p" x1="51.278" transform="translate(88.1 958.826)"/><line class="p" x1="51.278" transform="translate(88.1 1082.6)"/><line class="p" x1="51.168" transform="translate(500.866 1166.48)"/><circle class="c" cx="11.051" cy="11.051" r="11.051" transform="translate(178.279 1044.805)"/><g transform="translate(201.486 919.262)"><rect class="c" width="371.324" height="185.662" transform="translate(0.111)"/><g transform="translate(0.111 40.558)"><rect class="q" width="371.324" height="186.325"/></g><g transform="translate(92.942 10.499)"><path class="m" d="M266.836,85.955,259.1,72.583,266.836,59.1h15.472l7.736,13.483-7.736,13.372Z" transform="translate(-181.741 -59.1)"/><path class="m" d="M301.836,85.955,294.1,72.583,301.836,59.1h15.472l7.736,13.483-7.736,13.372Z" transform="translate(-178.061 -59.1)"/><path class="m" d="M231.836,85.955,224.1,72.583,231.836,59.1h15.472l7.736,13.483-7.736,13.372Z" transform="translate(-185.42 -59.1)"/><line class="r" x2="185.662" transform="translate(0 13.483)"/><path class="s" d="M232.887,75.257h0a6.686,6.686,0,0,1,0-6.741h0a6.632,6.632,0,0,1,5.747-3.315h0a6.6,6.6,0,0,1,5.747,3.315h0a6.686,6.686,0,0,1,0,6.741h0a6.632,6.632,0,0,1-5.747,3.315h0A6.632,6.632,0,0,1,232.887,75.257Z" transform="translate(-184.592 -58.459)"/><path class="s" d="M267.887,75.257h0a6.687,6.687,0,0,1,0-6.741h0a6.632,6.632,0,0,1,5.747-3.315h0a6.6,6.6,0,0,1,5.747,3.315h0a6.687,6.687,0,0,1,0,6.741h0a6.632,6.632,0,0,1-5.747,3.315h0A6.632,6.632,0,0,1,267.887,75.257Z" transform="translate(-180.913 -58.459)"/><path class="t" d="M302.887,75.257h0a6.686,6.686,0,0,1,0-6.741h0a6.632,6.632,0,0,1,5.747-3.315h0a6.6,6.6,0,0,1,5.747,3.315h0a6.686,6.686,0,0,1,0,6.741h0a6.632,6.632,0,0,1-5.747,3.315h0A6.632,6.632,0,0,1,302.887,75.257Z" transform="translate(-177.233 -58.459)"/></g><g transform="translate(0.111 39.122)"><g class="u"><line class="v" x1="21.882" y2="37.906" transform="translate(118.249 19.119)"/><g transform="translate(140.131 -18.235)"><line class="v" x1="21.661" y2="37.353"/></g><g transform="translate(140.131 19.119)"><line class="v" x2="43.432"/></g><g transform="translate(161.681 170.19)"><line class="v" x2="65.645"/></g><g transform="translate(183.562 -18.787)"><line class="v" x1="21.882" y2="37.906"/></g><g transform="translate(205.776 94.931)"><line class="v" x1="21.771" y2="37.906"/></g><g transform="translate(140.131 132.837)"><line class="v" x2="153.061"/></g><g transform="translate(52.936 95.483)"><line class="v" x2="21.55" y2="37.353"/></g><g transform="translate(227.326 170.19)"><line class="v" x2="21.55" y2="37.353"/></g><g transform="translate(205.886 132.837)"><line class="v" x2="21.55" y2="37.353"/></g><g transform="translate(140.131 132.837)"><line class="v" x2="21.55" y2="37.353"/></g><g transform="translate(74.817 132.837)"><line class="v" x2="65.645"/></g><g transform="translate(205.776 19.561)"><line class="v" x1="21.55" y2="37.464"/></g><g transform="translate(227.436 19.119)"><line class="v" x2="43.542"/></g><g transform="translate(271.31 -18.787)"><line class="v" x1="21.882" y2="37.906"/></g><g transform="translate(271.31 19.45)"><line class="v" x2="21.882" y2="37.906"/></g><g transform="translate(293.081 57.467)"><line class="v" x2="43.432"/></g><g transform="translate(336.513 57.467)"><line class="v" x2="44.205"/></g><g transform="translate(293.191 132.837)"><line class="v" x2="21.882" y2="37.906"/></g><g transform="translate(315.073 170.743)"><line class="v" x2="60.009"/></g><g transform="translate(9.725 94.931)"><line class="w" x2="86.642"/></g><g transform="translate(227.547 94.931)"><line class="w" x2="133.942"/></g><g transform="translate(118.249 57.025)"><line class="w" x2="87.526"/></g><g transform="translate(96.367 57.025)"><line class="w" x1="21.882" y2="37.906"/></g><g transform="translate(205.776 57.025)"><line class="w" x2="21.771" y2="37.906"/></g><g transform="translate(157.904 -22.135)"><circle class="m" cx="2.873" cy="2.873" r="2.873" transform="matrix(0.502, -0.865, 0.865, 0.502, 0, 4.97)"/></g><g transform="translate(136.017 15.043)"><circle class="m" cx="2.984" cy="2.984" r="2.984" transform="matrix(0.502, -0.865, 0.865, 0.502, 0, 5.161)"/></g><g transform="translate(137.257 16.245)"><circle class="m" cx="2.873" cy="2.873" r="2.873"/></g><g transform="translate(180.579 16.135)"><circle class="m" cx="2.984" cy="2.984" r="2.984"/></g><g transform="translate(158.807 167.317)"><circle class="m" cx="2.873" cy="2.873" r="2.873"/></g><g transform="translate(224.342 167.206)"><circle class="m" cx="2.984" cy="2.984" r="2.984"/></g><g transform="translate(201.464 -22.701)"><circle class="m" cx="2.873" cy="2.873" r="2.873" transform="matrix(0.5, -0.866, 0.866, 0.5, 0, 4.977)"/></g><g transform="translate(201.694 128.706)"><circle class="m" cx="2.984" cy="2.984" r="2.984" transform="matrix(0.5, -0.866, 0.866, 0.5, 0, 5.168)"/></g><g transform="translate(137.257 129.963)"><circle class="m" cx="2.873" cy="2.873" r="2.873"/></g><g transform="translate(290.208 129.853)"><circle class="m" cx="2.984" cy="2.984" r="2.984"/></g><g transform="translate(70.75 128.741)"><circle class="m" cx="2.984" cy="2.984" r="2.984" transform="matrix(0.866, -0.5, 0.5, 0.866, 0, 2.984)"/></g><g transform="translate(223.4 166.235)"><circle class="m" cx="2.873" cy="2.873" r="2.873" transform="matrix(0.866, -0.5, 0.5, 0.866, 0, 2.873)"/></g><g transform="translate(244.797 203.45)"><circle class="m" cx="2.984" cy="2.984" r="2.984" transform="matrix(0.866, -0.5, 0.5, 0.866, 0, 2.984)"/></g><g transform="translate(224.563 16.245)"><circle class="m" cx="2.873" cy="2.873" r="2.873"/></g><g transform="translate(268.326 16.135)"><circle class="m" cx="2.984" cy="2.984" r="2.984"/></g><g transform="translate(289.217 -22.69)"><circle class="m" cx="2.873" cy="2.873" r="2.873" transform="matrix(0.5, -0.866, 0.866, 0.5, 0, 4.977)"/></g><g transform="translate(289.104 53.289)"><circle class="m" cx="2.984" cy="2.984" r="2.984" transform="matrix(0.866, -0.5, 0.5, 0.866, 0, 2.984)"/></g><g transform="translate(333.529 54.483)"><circle class="m" cx="2.984" cy="2.984" r="2.984"/></g><g transform="translate(377.734 54.483)"><circle class="m" cx="2.984" cy="2.984" r="2.984"/></g><g transform="translate(311.004 166.633)"><circle class="m" cx="2.984" cy="2.984" r="2.984" transform="matrix(0.866, -0.5, 0.5, 0.866, 0, 2.984)"/></g><g transform="translate(372.029 167.765)"><circle class="m" cx="2.984" cy="2.984" r="2.984" transform="translate(0 5.968) rotate(-89.92)"/></g><g transform="translate(6.852 52.922)"><g transform="translate(0 39.135)"><circle class="t" cx="2.873" cy="2.873" r="2.873"/></g><g transform="translate(86.532 39.025)"><circle class="t" cx="2.984" cy="2.984" r="2.984"/></g><g transform="translate(351.653 39.025)"><circle class="t" cx="2.984" cy="2.984" r="2.984"/></g><g transform="translate(85.442 37.937)"><circle class="t" cx="2.984" cy="2.984" r="2.984" transform="matrix(0.5, -0.866, 0.866, 0.5, 0, 5.168)"/></g><g transform="translate(42.174 38.621)"><circle class="t" cx="2.873" cy="2.873" r="2.873" transform="matrix(0.866, -0.5, 0.5, 0.866, 0, 2.873)"/></g><g transform="translate(194.802)"><circle class="t" cx="2.984" cy="2.984" r="2.984" transform="matrix(0.5, -0.866, 0.866, 0.5, 0, 5.168)"/></g><g transform="translate(107.448 0.186)"><circle class="t" cx="2.873" cy="2.873" r="2.873" transform="matrix(0.5, -0.866, 0.866, 0.5, 0, 4.977)"/></g><g transform="translate(217.821 39.135)"><circle class="t" cx="2.873" cy="2.873" r="2.873"/></g></g></g></g><g transform="translate(0 39.122)"><path class="c" d="M466.6,94.836V262.926H114.836V94.836H466.6M476.324,85H105V272.762H476.324V85Z" transform="translate(-105 -85)"/></g><g transform="translate(351.763 124.217)"><circle class="c" cx="9.836" cy="9.836" r="9.836"/><path class="m" d="M430.221,175.378l-2.321-4.089,2.321-4.089h4.752l2.431,4.089-2.431,4.089Z" transform="translate(-422.816 -161.453)"/><path class="t" d="M430.624,172.094h0a2.341,2.341,0,0,1,0-2.1h0a1.991,1.991,0,0,1,1.768-.995h0a2.093,2.093,0,0,1,1.768.995h0a2.341,2.341,0,0,1,0,2.1h0a1.991,1.991,0,0,1-1.768.995h0A1.707,1.707,0,0,1,430.624,172.094Z" transform="translate(-422.556 -161.264)"/></g><g transform="translate(0 124.217)"><circle class="c" cx="9.836" cy="9.836" r="9.836"/><path class="m" d="M112.031,175.378l-2.431-4.089,2.431-4.089h4.752l2.321,4.089-2.321,4.089Z" transform="translate(-104.516 -161.453)"/></g><g transform="translate(17.351)"><g transform="translate(0 10.167)"><g transform="translate(20.666)"><circle class="x" cx="3.315" cy="3.315" r="3.315"/></g><circle class="x" cx="3.315" cy="3.315" r="3.315"/><g transform="translate(20.666 21.992)"><circle class="x" cx="3.315" cy="3.315" r="3.315"/></g><g transform="translate(0 21.992)"><circle class="x" cx="3.315" cy="3.315" r="3.315"/></g></g><g transform="translate(41.221 10.167)"><circle class="x" cx="3.315" cy="3.315" r="3.315"/><g transform="translate(0 21.992)"><circle class="x" cx="3.315" cy="3.315" r="3.315"/></g></g><g transform="translate(309.437 10.167)"><g transform="translate(20.666)"><circle class="x" cx="3.315" cy="3.315" r="3.315"/></g><circle class="x" cx="3.315" cy="3.315" r="3.315"/><g transform="translate(20.666 21.992)"><circle class="x" cx="3.315" cy="3.315" r="3.315"/></g><g transform="translate(0 21.992)"><circle class="x" cx="3.315" cy="3.315" r="3.315"/></g></g><g transform="translate(288.881 10.167)"><circle class="x" cx="3.315" cy="3.315" r="3.315"/><g transform="translate(0 21.992)"><circle class="x" cx="3.315" cy="3.315" r="3.315"/></g></g><g transform="translate(64.982)"><rect class="y" width="10.609" height="49.068"/><rect class="z" width="10.609" height="49.068" transform="translate(196.271)"/></g></g></g><g transform="translate(125.272 915.595)"><path class="m" d="M40.085,102.421c-5.968,10.057-4.089,53.93-2.21,65.866a80.1,80.1,0,0,0,5.636,19.561l11.162-.774s3.426-59.125-1.547-71.723C46.716,99.437,40.085,102.421,40.085,102.421Z" transform="translate(-36.036 -40.403)"/><g transform="translate(3.165)"><path class="aa" d="M56.925,94.488s2.21-1.658,4.089-7.073c1.216-3.536.663-12.156-.221-16.687S57.035,56.472,65.1,52.383s21.55-7.073,25.971,13.151c-3.315,1.768-1.658,5.415-2.21,12.156a31.168,31.168,0,0,1-3.094,11.383s-7.736-.221-7.736-.663-3.868,10.72-3.868,10.72S63.224,103,59.356,101.34,56.925,94.488,56.925,94.488Z" transform="translate(-37.032 -45.953)"/><path class="aa" d="M85.982,66.4s1.989,4.863,4.531,6.52c0,0-.221,1.989-4.531,1.879S85.982,66.4,85.982,66.4Z" transform="translate(-34.152 -44.167)"/><path class="x" d="M73.7,59.785s4.2,4.531,2.431,12.488c-1.879,7.846-8.952,16.356-8.952,16.356l-5.968-.884a45.888,45.888,0,0,0-2.321-13.151c-2.321-7.846-7.183-11.714-1.437-19.229.442-8.62,6.962-9.5,16.356-8.952s13.925,2.652,17.24,1.768C91.163,48.181,90.942,59.121,73.7,59.785Z" transform="translate(-37.233 -46.282)"/><path class="aa" d="M77.974,68.2S75.764,64,72.117,64c-3.536.111-2.21,6.962-.995,9.062S77.643,76.82,77.974,68.2Z" transform="translate(-35.648 -44.419)"/><path class="x" d="M39.4,170.479v9.615l16.024,45.531,4.863-29.949L65.039,223.3l16.909,2.321,3.2-57.025Z" transform="translate(-38.847 -33.422)"/><path class="y" d="M39.4,179.6a195.826,195.826,0,0,0,25.418,2.21A149.431,149.431,0,0,0,83.937,180.7l-1.105-4.973L39.4,173.3v6.3Z" transform="translate(-38.847 -32.928)"/><path class="m" d="M76.474,93.5l11.493,11.6c1.658,1.768,1.879,3.978,1.658,6.41l-4.421,75.812s-19.119,2.321-46.305-2.652c0-43.432.774-80.9.774-80.9S51.388,94.721,58.682,90.3C60.782,95.384,68.3,91.074,76.474,93.5Z" transform="translate(-38.9 -41.654)"/><path class="aa" d="M78.958,171.437,86.031,170l5.526,14.256-8.178,9.394-6.078-5.3,1.326-2.542C78.405,185.8,76.084,176.631,78.958,171.437Z" transform="translate(-34.863 -33.275)"/><path class="m" d="M79.152,109.29c3.315-1.658,6.52-6.962,7.183-2.1,2.431,15.693,4.089,60.561,1.879,68.96-2.873,10.609-12.156,3.978-12.156,3.978a239.123,239.123,0,0,0-4.421-33.707c-3.868-19.45.995-32.38,3.426-34.37A20.447,20.447,0,0,1,79.152,109.29Z" transform="translate(-35.61 -40.089)"/></g><path class="m" d="M77.988,278.674s2.321,4.863,11.051,6.078c3.536.553,5.194,2.1,5.747,4.973A14.256,14.256,0,0,1,94.9,292.6c-2.873.332-9.283,0-14.477,0H63.953s-1.326-7.736.111-14.035S77.988,278.674,77.988,278.674Z" transform="translate(-33.16 -22.153)"/><path class="m" d="M50.988,278.669s2.321,4.863,11.051,6.078c3.536.553,5.194,2.1,5.747,4.973a14.256,14.256,0,0,1,.111,2.873c-2.873.332-9.283,0-14.477,0H36.953s-1.326-7.736.111-14.035C38.279,272.37,50.988,278.669,50.988,278.669Z" transform="translate(-35.999 -22.148)"/><path class="x" d="M83.153,209.391s.221,3.868-.884,15.03-1.437,64.429-1.437,64.429H66.687S60.5,261.222,60.83,248.4c.111-8.178,1.879-23.208,1.879-23.208l-.995-14.256L51.657,288.85H36.627s-.884-29.065.442-41.995,2.652-21.108,2.652-21.108V179l27.518,6.962Z" transform="translate(-36.005 -32.329)"/><g transform="translate(48.572 21.46)"><path class="m" d="M89.726,284.852a18.381,18.381,0,0,0,.995-4.089L90.5,278h13.041v.774a7.5,7.5,0,0,0,3.2,6.078l7.183,2.984a3.072,3.072,0,0,1,1.768,4.2c0,.111-.995.663-3.315.663-4.089,0-11.051-.111-17.351.111a16.241,16.241,0,0,1-5.415-.663C89.616,290.82,89.174,287.173,89.726,284.852Z" transform="translate(-78.993 -43.381)"/><path class="m" d="M120.008,283.878h0c6.52,2.321,9.394,2.763,12.709,3.757,1.547.442,2.1,2.321,2.1,3.315a.99.99,0,0,1-.995.995H113.156l-2.873-.884v.884h-8.067L101,285.757l.663-4.31-.221-3.647h13.925A7.67,7.67,0,0,0,120.008,283.878Z" transform="translate(-77.779 -43.402)"/><path class="m" d="M103.129,203.078l24.865-3.978c-4.089,28.512-6.741,53.488-12.156,88.19,0,0-1.326.442-7.515.442s-6.189-.442-6.189-.442-.884-39.122.111-58.461.884-25.75.884-25.75" transform="translate(-77.697 -51.675)"/><path class="m" d="M94.368,216s-11.6,13.593-4.973,53.267c.995,10.72.995,16.245.995,16.245l5.194.995a12.363,12.363,0,0,0,7.957-.995h0l7.625-67.413Z" transform="translate(-79.214 -49.899)"/><path class="aa" d="M130.1,180.8l1.658,12.156-7.625,6.41-6.631-5.857,4.531-12.046Z" transform="translate(-76.044 -53.599)"/><path class="x" d="M128.591,131.321s.774,21.329,2.21,36.359,0,19.671,0,19.671-5.636,5.526-10.057,2.542-9.173-30.833-5.415-52.383C118.976,116.181,125.828,108.445,128.591,131.321Z" transform="translate(-76.415 -60.261)"/><g transform="translate(37.553 57.174)"><g class="ab"><path class="c" d="M138.024,160.713s-9.173,8.51-20,6.631-8.4-13.041-8.4-13.041l-.221-7.183s7.736,4.752,24.313-2.1C150.181,138.279,138.024,160.713,138.024,160.713Z" transform="translate(-114.45 -114.668)"/></g></g><path class="y" d="M127.036,177.265c-.111-10.941-.774-30.723-1.437-35.364s-8.4-4.2-8.4-4.2Z" transform="translate(-76.076 -58.132)"/><path class="m" d="M124.28,148.1s6.741,22.655,7.4,36.248c.553,13.593-6.52,50.173-6.52,50.173H93.778s-12.046-41.884-8.62-56.472S97.646,144.9,97.646,144.9Z" transform="translate(-79.509 -57.374)"/><path class="x" d="M129.358,116.842c-1.437-3.868-7.625-7.846-10.72-9.836s-11.051-4.2-14.146-2.763c-3.2,1.547-13.814,9.946-16.135,14.035s2.652,23.1,3.868,29.4,6.3,9.836,16.356,10.278,22.655-4.421,22.655-4.421S134.11,129.772,129.358,116.842Z" transform="translate(-79.172 -61.696)"/><g transform="translate(8.577 42.088)"><g class="ac"><path class="c" d="M136.824,120.9s6.852,9.946,0,14.477-19.671,8.62-36.69,6.189a46.323,46.323,0,0,1-21.882-1.989s-3.426-18.345,6.852-15.03,15.582.332,15.582.332,12.377.995,19.892,0A125.805,125.805,0,0,0,136.824,120.9Z" transform="translate(-88.805 -101.984)"/></g></g><path class="y" d="M98.668,127.1s1.989,21.44,5.3,29.728-9.173,1.437-9.173,1.437Z" transform="translate(-78.43 -59.245)"/><path class="aa" d="M95.346,184.984l2.542,17.682L88.273,206.2a44.932,44.932,0,0,1-3.978-3.978c-.111-.442-.995-7.957-.995-7.957l2.652.332s.553-6.741,1.768-7.183l.332-3.315Z" transform="translate(-79.639 -53.252)"/><path class="x" d="M93.7,114.2c8.62.442,6.3,15.914,6.189,20-.111,4.2-.221,48.4-1.879,54.262l-1.768,5.857-9.173.553S76.8,177.857,81,152.107C85.2,126.468,87.3,113.759,93.7,114.2Z" transform="translate(-79.988 -60.602)"/><g transform="translate(0 53.588)"><g class="ad"><path class="c" d="M102.413,172.571s-10.83,6.189-21,1.879-5.3-14.588-5.3-14.588l1.437-6.962s6.52,6.41,24.2,3.536C119.432,153.453,102.413,172.571,102.413,172.571Z" transform="translate(-80.518 -110.12)"/></g><g class="ad"><path class="c" d="M133.188,117.411s-5.3,6.741-12.709,7.736c-7.515.995-19.892,0-19.892,0s-5.3,2.984-15.582-.332-6.852,15.03-6.852,15.03a46.649,46.649,0,0,0,21.882,1.989c17.019,2.431,29.839-1.547,36.69-6.189,6.852-4.531-3.2-18.345-3.2-18.345" transform="translate(-80.238 -113.863)"/></g></g><g transform="translate(12.567)"><path class="ae" d="M125.739,89.9c4.2-3.315,5.194-6.962,3.868-11.162s-5.084-10.72-12.156-13.041C104.742,68.352,101.868,69.236,99,75.2c-2.763,5.968.663,16.687,4.642,19.561C107.5,97.749,119.44,94.875,125.739,89.9Z" transform="translate(-90.662 -65.7)"/><path class="aa" d="M116.915,119s-9.615-5.084-13.372-8.067a2.377,2.377,0,0,1-.663-2.652c1.326-3.536,1.437-6.41.774-12.267-.884-6.631-4.642-13.372-1.326-20.776s13.041-7.846,16.8-5.194,11.935,10.72,8.51,28.07c-1.216,4.2-8.62,2.763-8.62,2.763A55.294,55.294,0,0,0,116.915,119Z" transform="translate(-90.347 -65.399)"/><path class="aa" d="M124.163,80.7a14.867,14.867,0,0,0,3.757,4.973c2.542,2.21-4.421,3.315-4.421,3.315Z" transform="translate(-87.98 -64.123)"/><path class="ae" d="M98.588,75.3s-5.3-.884-6.52,5.194-1.547,22.545,4.752,27.849c0,0,7.625-4.863,8.4-9.615C107.539,84.808,102.787,75.857,98.588,75.3Z" transform="translate(-91.359 -64.695)"/><path class="y" d="M95.55,76.6s-2.321,2.1-1.326,11.714c.553,5.194,3.094,8.952,9.062,10.609C109.143,100.471,95.55,76.6,95.55,76.6Z" transform="translate(-91.084 -64.554)"/><path class="ae" d="M117.79,65.7s5.194,6.41,2.431,14.367-8.288,10.5-10.057,11.051c.332,6.3-4.31,8.841-5.526,11.935-.884-2.873-2.984-4.863-4.31-6.52-4.973-6.3-5.747-10.388-5.526-15.693a13.728,13.728,0,0,1,1.437-5.084C98.671,70.894,109.943,66.805,117.79,65.7Z" transform="translate(-91.001 -65.7)"/></g><path class="aa" d="M114.859,88.547s-3.757-5.3-6.852-4.642-2.984,5.194.884,8.952C110.439,94.4,115.08,92.968,114.859,88.547Z" transform="translate(-77.271 -63.792)"/></g></g><line class="af" x2="192.514" transform="translate(113.739 1186.151)"/><line class="af" x2="20.445" transform="translate(312.994 1186.151)"/><path class="y" d="M59.4,209.1l-.774-12.6L57.3,225.565Z" transform="translate(91.471 885.106)"/></g></svg>