<svg xmlns="http://www.w3.org/2000/svg" width="91" height="32" viewBox="0 0 91 32"><g id="gateLogo" fill="#DE5959"><path d="M64.09 20.885c-.533 0-.992.19-1.375.572-.38.383-.572.836-.572 1.36 0 .8.402 1.42 1.21 1.866.88.238 1.59.082 2.124-.465.383-.383.574-.846.574-1.387 0-.54-.19-1-.57-1.37-.38-.38-.84-.57-1.38-.57zM32.76 6.065h-1.453c-.627 0-1.136.507-1.136 1.135v.81c-1.54-1.607-3.3-2.41-5.25-2.41-2.26 0-4.14.838-5.65 2.514-1.5 1.677-2.25 3.772-2.25 6.286 0 2.56.75 4.697 2.26 6.406 1.52 1.678 3.44 2.516 5.76 2.516 1.838 0 3.555-.746 5.15-2.24v1.604c0 .777.634 1.41 1.41 1.41h2.484V7.366c0-.718-.583-1.302-1.302-1.302zm-3.673 12.312c-.884.988-2.043 1.48-3.48 1.48-1.343 0-2.457-.51-3.34-1.53-.862-1.01-1.292-2.32-1.292-3.928 0-1.51.44-2.77 1.326-3.79.9-1.01 2.01-1.52 3.35-1.52 1.41 0 2.56.5 3.45 1.5.888 1.02 1.33 2.32 1.33 3.89 0 1.57-.44 2.87-1.325 3.89zm-12.073-9.48v-1.66c0-.648-.524-1.172-1.17-1.172H14.31c-.646 0-1.17.523-1.17 1.17v.725C11.74 6.386 9.982 5.6 7.87 5.6c-2.41 0-4.352.907-5.82 2.72C.682 10.03 0 12.11 0 14.556c0 2.514.735 4.61 2.205 6.286 1.458 1.655 3.33 2.48 5.614 2.48 2 0 3.78-.786 5.32-2.358v2.342c0 3.48-1.42 5.22-4.26 5.22-1.54 0-2.71-.524-3.52-1.57-.208-.264-.378-.596-.51-.99-.19-.556-.718-.92-1.3-.92H2.1c-.743 0-1.293.7-1.105 1.417.4 1.53 1.175 2.772 2.33 3.73C4.77 31.398 6.612 32 8.85 32c2.652 0 4.736-.873 6.25-2.617.805-.908 1.344-1.992 1.62-3.256.092-.46.164-.99.215-1.594.052-.602.077-1.3.077-2.092v-2.43c-1.086-1.56-1.63-3.43-1.63-5.6 0-2.13.544-3.97 1.63-5.5zm-4.907 9.344c-.86 1.08-2.032 1.62-3.514 1.62-1.48 0-2.64-.53-3.48-1.6-.768-.97-1.153-2.22-1.153-3.75 0-1.55.385-2.81 1.154-3.79.85-1.09 2.01-1.63 3.48-1.63 1.377 0 2.507.5 3.392 1.5.872.98 1.31 2.28 1.31 3.91 0 1.53-.398 2.78-1.19 3.76zM49.225 6.08v-.016H41.19V1.146C41.19.513 40.678 0 40.045 0h-1.57c-.64 0-1.16.52-1.16 1.16v4.904h-1.653V9.68h1.653v14.414h2.212c.918 0 1.663-.744 1.663-1.664V9.68h3.975c.312-.597.693-1.15 1.144-1.652.82-.9 1.79-1.55 2.91-1.95zM69 0c-.69 0-1.28.247-1.773.74-.494.494-.742 1.08-.742 1.757 0 .712.248 1.314.742 1.808.492.494 1.09.74 1.79.74s1.292-.247 1.774-.74c.5-.494.74-1.09.74-1.79S71.29 1.22 70.79.74C70.298.247 69.7 0 69 0zm.783 7.963H68.38c-.724 0-1.31.585-1.31 1.308v12.31c.295.35.44.76.44 1.23s-.146.89-.44 1.24v.69h2.492c.764 0 1.383-.61 1.383-1.38V9.13c0-.643-.52-1.163-1.162-1.163zm18.21 2.377c-1.745-1.71-3.87-2.565-6.37-2.565-2.492 0-4.605.85-6.34 2.55-1.732 1.698-2.6 3.76-2.6 6.18 0 2.574.85 4.71 2.55 6.41 1.7 1.72 3.806 2.582 6.32 2.582 2.536 0 4.677-.844 6.423-2.53 1.734-1.7 2.602-3.808 2.602-6.32 0-2.494-.86-4.595-2.584-6.306zm-2.737 10.233c-.908.975-2.117 1.46-3.633 1.46-1.506 0-2.717-.49-3.635-1.48-.896-.974-1.344-2.3-1.344-3.976 0-1.562.46-2.836 1.38-3.823s2.116-1.48 3.6-1.48c1.5 0 2.714.493 3.632 1.48.906.976 1.36 2.28 1.36 3.908 0 1.63-.454 2.932-1.36 3.91z"></path><path d="M50.666 19.897c-.793-.814-1.24-1.91-1.344-3.29H60.43c.506 0 .92-.405.93-.912 0-2.767-.71-4.93-2.135-6.493-1.436-1.573-3.387-2.36-5.855-2.36-2.445 0-4.408.81-5.89 2.43-1.47 1.64-2.204 3.788-2.204 6.44 0 2.674.758 4.823 2.273 6.44 1.05 1.123 2.35 1.852 3.89 2.19.64.157 1.31.235 1.99.224 2.76.057 5.16.113 7.91.17v-.404c-.34-.367-.51-.81-.51-1.326 0-.5.173-.934.52-1.305v-.49c-2.177-.05-7.45-.1-7.657-.1-1.24 0-2.256-.4-3.047-1.2zm-.535-7.75c.25-.378.54-.702.87-.972.34-.27.72-.476 1.13-.62s.86-.215 1.33-.215c2.07 0 3.37 1.033 3.91 3.1h-7.79c.13-.483.31-.913.55-1.292z"></path></g></svg>