<svg xmlns="http://www.w3.org/2000/svg" viewBox="-4096.83 2987.214 42 42"><defs><style>.a{fill:#e9f8fe;}.b{fill:#0c1e3e;}</style></defs><g transform="translate(-4350 871)"><path class="a" d="M0,148.061H15.75a15.7,15.7,0,0,0,13.639-7.873H26.25A18.373,18.373,0,0,1,7.875,121.807a19.171,19.171,0,0,1,.294-3.307A15.729,15.729,0,0,0,0,132.3" transform="translate(253.17 2010.153)"/><path class="a" d="M0,250a15.716,15.716,0,0,0,4.662,11.19L0,265.757" transform="translate(253.17 1892.457)"/><path class="b" d="M115.75,0a15.746,15.746,0,1,0,0,31.492H131.5l-4.662-4.566A15.743,15.743,0,0,0,115.75,0Zm-7.875,18.37a2.624,2.624,0,1,1,2.625-2.624A2.626,2.626,0,0,1,107.875,18.37Zm7.875,0a2.624,2.624,0,1,1,2.625-2.624A2.626,2.626,0,0,1,115.75,18.37Zm7.875,0a2.624,2.624,0,1,1,0-5.249c1.449,0,2.625,2.624,2.625,2.624S125.074,18.37,123.625,18.37Z" transform="translate(163.67 2116.214)"/><ellipse class="a" cx="2.625" cy="2.624" rx="2.625" ry="2.624" transform="translate(276.795 2129.335)"/><ellipse class="a" cx="2.625" cy="2.624" rx="2.625" ry="2.624" transform="translate(268.92 2129.335)"/><ellipse class="a" cx="2.625" cy="2.624" rx="2.625" ry="2.624" transform="translate(284.67 2129.335)"/></g></svg>