<svg xmlns="http://www.w3.org/2000/svg" viewBox="0 0 180 180"><defs><style>.a{fill:#2970ff;}.b{fill:#c1c4ce;}.c{fill:#091440;}.d{fill:#fff;}.e{fill:#84899e;}</style></defs><circle class="a" cx="90" cy="90" r="90"/><path class="b" d="M142.9,89.8c-8.4-24.7-5.3-39.6-11.6-55.9C124.9,17.7,116,14.3,109,10.8S86,3.4,69.5,15.2c-17.1,12.2-22.6,28.1-24.1,48S44.3,93.5,40,109c-5.1,18.4-8.3,14.5-8.3,14.5,4.3,12.7,27.9,15.3,35,16.4l46.7-7.5c9.4,4.9,16.4,5.3,21.3,4.2a22.413,22.413,0,0,0,3.5-9.7,37.237,37.237,0,0,1,.9,8.1,14.578,14.578,0,0,0,5.4-4.6S151.3,114.5,142.9,89.8Z"/><path class="c" d="M67.6,127.9l-46.5,20A90.022,90.022,0,0,0,154,153.3l-43.1-25.4Z"/><path class="d" d="M125.5,48.2c-.1-8.2-5-13.9-7.3-16.1a75.7,75.7,0,0,1-19.5,7.5C86.5,42.3,74.4,43.7,69.4,55s-2.6,23.6-2.6,23.6l-8.1,6.8S61.2,93,64.5,93h3.1c1.2,11.2,1.1,26.7.1,32.2s3.3,14.6,7.2,18.7c4.4,4.6,8.6,8.6,17.7,8.3,13.3-.5,18.8-11.5,18.2-28.3a14.769,14.769,0,0,0-.1-2.1,80.226,80.226,0,0,1,6.3-6.9c6.9-7.1,5.4-14.4,7.7-25.1a94.986,94.986,0,0,0,1.5-10.7C126.6,65.8,125.6,56.4,125.5,48.2Z"/><path class="e" d="M110.8,123.9a14.769,14.769,0,0,0-.1-2.1c-1.3,1.5-2,2.1-3.7,2.1-3.1,0-6.6-.2-9.9-.4s-6.6-2.9-10-6.6c-3.2-3.4-6.4-4.5-11.3-9.8.9,3,4.2,6.9,6.6,12.1,4.6,9.5,15.4,12.2,25.9,11a8.338,8.338,0,0,0,2.5-.6A54.151,54.151,0,0,0,110.8,123.9Z"/><path class="e" d="M104,97.4c-.7-.2-1.4-.4-2-.6a11.753,11.753,0,0,0-3.6-1.2,1.969,1.969,0,0,1-1.5-1c-.2-.4-.1-.7.4-.6a5.822,5.822,0,0,1,1.9.3,22.913,22.913,0,0,0,7.4.4,19.481,19.481,0,0,0,2.3-.6A3.75,3.75,0,0,1,110,94c.2,0,.4.3.5.6a1.14,1.14,0,0,1-.3.6c-1.7.8-3.3,1.5-5,2.2Z"/><path class="b" d="M109.8,68.1c1.2-2.6,5.1-2.7,7.6-3.5s5.3-1.7,7.3-.5c2.2,1.3,1.1,4.4,1.1,4.4s.4-2.1-3-1.9a43.559,43.559,0,0,0-9.4,1.9C111.5,69,108.1,71.7,109.8,68.1Z"/><path class="b" d="M97.7,68.2c-1.5-2.8-6.3-2.8-9.4-3.7s-7.3-2.3-10.9-.4-2.9,4.5-2.9,4.5a12.083,12.083,0,0,1,7.2-2,65.478,65.478,0,0,1,11.6,2C95.6,69.2,99.8,72,97.7,68.2Z"/><path class="e" d="M114,102.6c2.5.1,3.9-1.9,2.4-1.9s-1.4,1.1-3.3.5-2.3-2.4-4.8-2-2.9,1.8-4.3,1.8c-2.1-.1-2.3-1.2-4-1.5-2.3-.4-5.8,2.3-7.3,2.2s-2.9-1.7-4.4-.6,2.2,1.8,3.6,1.7c1.5-.1,4.2-1.1,6.4-.6s2.6,1.3,5.7,1.3,3.5-2.1,5.9-1.6C113.9,102.8,114,102.6,114,102.6Z"/><path class="e" d="M99.4,107.5c2.1.4,8.7,0,8.7,0a8.6,8.6,0,0,1-4.4,1.5A8.571,8.571,0,0,1,99.4,107.5Z"/><path class="c" d="M95.5,71.7a9.495,9.495,0,0,0-7.3-3.5c-4.7.1-7,2.1-7,2.1a4.1,4.1,0,0,0,1.1-.1,3.264,3.264,0,0,0,1.4,2.2,2.641,2.641,0,0,1-.1-2.3c.6,0,1.1-.1,1.7-.1a1.7,1.7,0,0,0-.1.7,2.5,2.5,0,0,0,5,0,1.268,1.268,0,0,0-.1-.6A14.661,14.661,0,0,1,95.5,71.7Z"/><path class="c" d="M123.1,70.2a6.734,6.734,0,0,0,1,.1,9.34,9.34,0,0,0-6-2.1c-4-.1-6.3,3.5-6.3,3.5a14.255,14.255,0,0,1,2.8-1.3v.3a2.5,2.5,0,0,0,5,0,2.354,2.354,0,0,0-.2-.8,21.115,21.115,0,0,1,2.6.2,7.06,7.06,0,0,1-.6,2.4s2-.7,1.7-2.3Z"/></svg>