<svg xmlns="http://www.w3.org/2000/svg" xmlns:xlink="http://www.w3.org/1999/xlink" viewBox="2250 2131 180 180"><defs><style>.a{clip-path:url(#a);}.b{fill:#2970ff;}.c,.e{fill:#091440;}.d{fill:#fff;}.e{opacity:0.5;}.f{fill:#f6f7f4;}</style><clipPath id="a"><circle cx="90" cy="90" r="90"/></clipPath></defs><g transform="translate(1336 856)"><g transform="translate(914 1275)"><g class="a"><circle class="b" cx="90" cy="90" r="90"/></g><g class="a"><path class="c" d="M160.1,200.8H6.1l-1-51.6,55.1-28.1h45.7l54.2,32.3Z"/></g><g class="a"><path class="d" d="M98.6,129.6c6.5-.1,15.4-7.2,19.7-19.9s5.6-26.5,5.6-39.1,3.7-48.4-19.8-50.6S62.5,21.7,58.3,40.8s1.1,46.4,5.2,59.3S78.2,129.7,98.6,129.6Z"/><path class="d" d="M113.4,94.9l-54-12.3s-1.6-9,.8,6.2-2.9,39.4-2.9,39.4-.9,16.6,24.8,19c25.8,2.3,28.4-13.2,28.6-14.3C111.5,129.7,113.4,94.9,113.4,94.9Z"/><path class="c" d="M81,70.6a8.4,8.4,0,0,1,2-1.9,10.475,10.475,0,0,1,1.1-.8c.4-.2.9-.5,1.4-.7a11.4,11.4,0,0,1,3.3-.8h1.4l.4.1a7.491,7.491,0,0,1,1.6.4,12.628,12.628,0,0,1,2.6,1.4,6.2,6.2,0,0,1,1.4,1.5,2.767,2.767,0,0,1,.4.7,14.3,14.3,0,0,0-2.4-1.2,14.949,14.949,0,0,0-2.5-.7c-.5-.1-.9-.1-1.4-.2H88.9a5.9,5.9,0,0,0-1.4.2c-.5.1-1,.2-1.4.3-.5.1-.9.3-1.3.4s-.8.3-1.2.4C82,70.2,81,70.6,81,70.6Z"/><path class="c" d="M111.4,70.6a6.007,6.007,0,0,1,1-2,7.263,7.263,0,0,1,1.8-1.6,5.023,5.023,0,0,1,1.3-.5,1.7,1.7,0,0,1,.7-.1h1.2l.3.1a2.544,2.544,0,0,1,.7.2,2.281,2.281,0,0,1,1.2.6,6.838,6.838,0,0,1,1.8,1.5,6.027,6.027,0,0,1,1.2,1.9s-.8-.4-1.9-1c-.6-.3-1.2-.5-1.8-.8-.3-.1-.7-.2-1-.3-.2,0-.3-.1-.5-.1l-.3-.1h-1.2a4.4,4.4,0,0,0-1,.2,14.167,14.167,0,0,0-1.8.8C112.1,70.1,111.4,70.6,111.4,70.6Z"/><circle class="c" cx="2.5" cy="2.5" r="2.5" transform="translate(86.1 66.5)"/><circle class="c" cx="2.5" cy="2.5" r="2.5" transform="translate(113.3 66.5)"/><path class="e" d="M113.2,64c.1,1.4.3,1.9,4.6,1.1s5.9-.6,5.9.4c0,0,2.3-4.6-2.5-4.6C116.6,60.9,113.2,63.2,113.2,64Z"/><path class="e" d="M97.3,65c1.3-1-2.3-4.1-8.5-4.3s-8.8-.4-10.9,1.6a3.25,3.25,0,0,0-.6,4.2s2.1-2.3,7.7-1.9S95,66.8,97.3,65Z"/><path class="e" d="M96.6,87.5s-.1,2.6,8.4,2.7c7.9.1,10.9-2.6,7.5-2.7S96.6,87.5,96.6,87.5Z"/><path class="e" d="M91.4,101a10.769,10.769,0,0,0,3.1.7c1.3-.1,11.1-2.5,16.7,0h3.4a30.343,30.343,0,0,0-3.6-3.1c-2.1-1.4-2.3-.6-5.1-.8-2.7-.1-4.7-.4-7.2.3S95,100.8,91.4,101Z"/><path class="c" d="M111.2,101.7s-4.2-3-15.9-.1c0,0,2.7,1.6,8.8,1.9C110.2,103.7,111.2,101.7,111.2,101.7Z"/><path class="f" d="M105,101.7c3.7,0,3.7-.9,3.7-.9s-2.5-1.5-8.9-.2A13.085,13.085,0,0,0,105,101.7Z"/><path class="c" d="M68,77.2l-7.9,4.1s-1.1-10-3-13.9a6.333,6.333,0,0,0-5.3-3.9s-2-12.1,0-21.6,7.1-17.6,20.8-24.5c13.1-6.6,29.3-3.5,38.6,1.9,13,7.7,12.5,28.1,12.5,28.1s-.3-15.1-11.9-15.8C97,30.7,86.7,28.7,78,35.8c-4.8,3.9-6,11.7-6,19.8C72,55.6,66.3,59.9,68,77.2Z"/><path class="e" d="M98.6,129.6c6.5-.1,15.4-7.2,19.7-19.9.9-2.8,1.7-5.6,2.4-8.5-.8,3.8-2.9,6.3-6,4.7.7,3.2-1.5,9.3-4.5,10-3.6.9-3.8-5.9-1.1-8.8-5.9,1.9-13.7,0-13.7,0a9.791,9.791,0,0,1,2.4,3c1,2.6,1.6,6.5-4.5,5.8s-4.4-8.7-4.4-8.7-3.6,4.9-9,.2C69.6,98.7,68,77.1,68,77.2H63.2c-.5,6.5-2.2,16.5,2.3,30C69.6,119.1,81.5,129.7,98.6,129.6Z"/><path class="d" d="M58.2,63.5s-3.5-2.9-6.4,0-2.8,10.8,0,17.7,4.9,8.1,8.4,7.5C63.7,88.2,65.5,67.2,58.2,63.5Z"/><path class="e" d="M98.9,66.5s4,2,3.2,4.1S98.9,66.5,98.9,66.5Z"/></g></g></g></svg>