<svg xmlns="http://www.w3.org/2000/svg" viewBox="0 0 180 180"><defs><style>.cls-1{fill:#3ad7a4;}.cls-2{fill:#fff;}.cls-3{fill:#848aa0;}.cls-4{fill:#091440;}</style></defs><title>bebrites</title><g id="illustrations"><path id="_Path_" data-name="&lt;Path&gt;" class="cls-1" d="M113.35,116.62c-.34.93-.7,1.81-1.1,2.64A11.25,11.25,0,0,0,113.35,116.62Z"/><path id="_Path_2" data-name="&lt;Path&gt;" class="cls-1" d="M90,0A90,90,0,0,0,12.55,135.86l46-15.31a35.7,35.7,0,0,0,1.67-7.19c.48-3.93.42-12.15.21-19.88a17.92,17.92,0,0,1-3.57-2.6c-2.77-3-3.62-5.53-7.43-12.78S45.7,69,47.67,64.33a4.07,4.07,0,0,1,1.54-1.91C44.43,56.48,43.81,37.21,51.6,26c9.84-14.14,30-19.32,44.87-17s26.42,14.88,30.35,28.4S134,50.57,134,50.57s1.23,2.91-2.46,9.26c-3.57,6.14-7.78,8.55-7.72,12.18,0,.22,0,.36,0,.36a64.46,64.46,0,0,1,0,17A32.71,32.71,0,0,1,122,95.78h0v0c-.31.83-.64,1.64-1,2.43-1.26,3.2-3.45,9-4.84,13.91-2.06,7.26-1.75,11.41-7.08,14.92-.11.08-.26.15-.4.23l44.63,26.61A90,90,0,0,0,90,0Z"/><path id="_Path_3" data-name="&lt;Path&gt;" class="cls-1" d="M123.78,72.37c0-.13,0-.24,0-.36a18.9,18.9,0,0,0-.3-2.75A26.36,26.36,0,0,0,123.78,72.37Z"/><path id="_Path_4" data-name="&lt;Path&gt;" class="cls-2" d="M59.5,130.79c6.5,5.34,19.93,14.33,34.93,12.52,6.84-1.32,8.25-5.08,9.47-11.42h0s-5.62,4.76-16.9.08S70.61,117,65.09,103.2h0a38.52,38.52,0,0,1-2.87-8.75c0-.89-1.23-22.93-4.24-28.31-1.72-3.06-6.12-5.4-8.78-3.72a4.07,4.07,0,0,0-1.54,1.91c-2,4.67-2.09,6.52,1.72,13.77s4.66,9.82,7.43,12.78a17.92,17.92,0,0,0,3.57,2.6c.21,7.73.27,16-.21,19.88a35.7,35.7,0,0,1-1.67,7.19c-.29.86-.6,1.64-.9,2.34A6.74,6.74,0,0,0,59.5,130.79Z"/><path id="_Path_5" data-name="&lt;Path&gt;" class="cls-3" d="M87,132c11.28,4.68,16.9-.08,16.9-.08h0l.69-3.33a37,37,0,0,1-12.23.42c-8.2-1.45-15.56-9.71-20.84-16.22a46.51,46.51,0,0,1-6.42-9.56h0C70.61,117,75.72,127.29,87,132Z"/><path id="_Path_6" data-name="&lt;Path&gt;" class="cls-2" d="M122,95.8c0,.08-.41,1-1,2.43C121.4,97.44,121.73,96.63,122,95.8Z"/><path id="_Compound_Path_" data-name="&lt;Compound Path&gt;" class="cls-2" d="M123.47,69.26a17.44,17.44,0,0,0-.85-3.07,14,14,0,0,0-4.89-.88h-7.67a.67.67,0,0,1-.32-1.27A29.83,29.83,0,0,1,118.89,61c-3.76-3.42-8-6.59-11.93-11l-4.23-4.79A31.56,31.56,0,0,1,87,42.21c-7.5-3.81-9.49-5-9.49-5s-8.09,4.79-7,16.27c-1.58,2.7-5.68,5.4-5.78,20.8h0c.07,10,1.6,20.73,5.78,27.11,3.85,5.87,7.84,8.09,12.59,12.15s6.21,6.76,9.73,8.23c4.93,2.07,6.79-2.33,9.39-2.21s5.17,3.66,8.14,1.71a5.94,5.94,0,0,0,1.87-2c.4-.83.76-1.71,1.1-2.64.81-2.79,1.21-6.32,3.1-10.13C120,99.27,122,95.84,122,95.78a32.71,32.71,0,0,0,1.69-6.37,64.46,64.46,0,0,0,0-17A26.36,26.36,0,0,1,123.47,69.26Zm-20,22.64c3-.16,6.11-.12,7.95-.06a.7.7,0,0,1,.4,1.26,13.3,13.3,0,0,1-7.07,2.58c-6,.55-8.09-1.46-10.4-2.8C94.31,92.88,98.75,92.15,103.43,91.9ZM76.25,60.8c4.49-1.31,10.44-2.15,14.89.24a23.88,23.88,0,0,1,4.52,3,.67.67,0,0,1-.43,1.17,83.37,83.37,0,0,1-12.77-.06,50.51,50.51,0,0,0-11.93.15S71.26,62.26,76.25,60.8Zm8.81,9.74a2.8,2.8,0,1,1-5.6,0,2.21,2.21,0,0,1,0-.37l-.82.36c-.39.22-.77.44-1.11.65A13.88,13.88,0,0,0,76,72.4c-.37.33-.57.54-.57.54a3.62,3.62,0,0,1,.24-.78,6,6,0,0,1,.42-.84,7.72,7.72,0,0,1,.72-1,7.34,7.34,0,0,1,1-1c.21-.16.42-.33.65-.49l.73-.44L80,68l.85-.31a10,10,0,0,1,1.79-.38l.46-.06.47,0a8.41,8.41,0,0,1,.87,0,10.2,10.2,0,0,1,1.82.28,6.87,6.87,0,0,1,1.57.63,5.53,5.53,0,0,1,1.23.88,5.13,5.13,0,0,1,1.29,1.78,3,3,0,0,1,.24.78,4.45,4.45,0,0,0-.55-.55,7.6,7.6,0,0,0-.69-.54,6.72,6.72,0,0,0-.93-.55,8.75,8.75,0,0,0-1.16-.45c-.21-.07-.44-.11-.66-.16l-.69-.12a10.45,10.45,0,0,0-1.25,0A2.85,2.85,0,0,1,85.06,70.54Zm32.21,26.32-1.91,2.89a28.06,28.06,0,0,1-6.45,5.9c-3.72,2.25-10,1.73-14.6,0a17.51,17.51,0,0,1-7.13-5.11l.23-.07c-1.52,0-2.35.07-2.35.07s-.12-2.37,4.14-3.28a50.07,50.07,0,0,1,12.34-.73c4.14.12,16.48-.76,16.48-.76a11.87,11.87,0,0,1-.75,1.09Zm1.63-27.25a6,6,0,0,0-.93-.28,8.33,8.33,0,0,0-1-.19h-.13a2.8,2.8,0,1,1-5.21,1.41,2.54,2.54,0,0,1,.09-.68,8.23,8.23,0,0,0-1,.51c-.51.33-.94.66-1.25.9l-.49.39a4.71,4.71,0,0,1,.91-2.15,5.25,5.25,0,0,1,1.93-1.62,7.17,7.17,0,0,1,2.75-.71,8.53,8.53,0,0,1,1.43,0,7,7,0,0,1,1.39.29,6.59,6.59,0,0,1,1.2.53,5.93,5.93,0,0,1,1,.68,4.78,4.78,0,0,1,.67.69,5,5,0,0,1,.43.59,3.58,3.58,0,0,1,.27.58A10.3,10.3,0,0,0,118.9,69.61Z"/><path id="_Path_7" data-name="&lt;Path&gt;" class="cls-4" d="M82.46,65.16a83.37,83.37,0,0,0,12.77.06.67.67,0,0,0,.43-1.17,23.88,23.88,0,0,0-4.52-3c-4.45-2.39-10.4-1.55-14.89-.24-5,1.46-5.72,4.51-5.72,4.51A50.51,50.51,0,0,1,82.46,65.16Z"/><path id="_Path_8" data-name="&lt;Path&gt;" class="cls-4" d="M86.61,69.29c.22,0,.45.09.66.16a8.75,8.75,0,0,1,1.16.45,6.72,6.72,0,0,1,.93.55,7.6,7.6,0,0,1,.69.54,4.45,4.45,0,0,1,.55.55,3,3,0,0,0-.24-.78A5.13,5.13,0,0,0,89.07,69a5.53,5.53,0,0,0-1.23-.88,6.87,6.87,0,0,0-1.57-.63,10.2,10.2,0,0,0-1.82-.28,8.41,8.41,0,0,0-.87,0l-.47,0-.46.06a10,10,0,0,0-1.79.38L80,68l-.79.39-.73.44c-.23.16-.44.33-.65.49a7.34,7.34,0,0,0-1,1,7.72,7.72,0,0,0-.72,1,6,6,0,0,0-.42.84,3.62,3.62,0,0,0-.24.78s.2-.21.57-.54a13.88,13.88,0,0,1,1.59-1.22c.34-.21.72-.43,1.11-.65l.82-.36a2.21,2.21,0,0,0,0,.37,2.8,2.8,0,1,0,5.6,0,2.85,2.85,0,0,0-.39-1.42,10.45,10.45,0,0,1,1.25,0Z"/><path id="_Path_9" data-name="&lt;Path&gt;" class="cls-4" d="M120.14,69.37a4.78,4.78,0,0,0-.67-.69,5.93,5.93,0,0,0-1-.68,6.59,6.59,0,0,0-1.2-.53,7,7,0,0,0-1.39-.29,8.53,8.53,0,0,0-1.43,0,7.17,7.17,0,0,0-2.75.71,5.25,5.25,0,0,0-1.93,1.62,4.71,4.71,0,0,0-.91,2.15l.49-.39c.31-.24.74-.57,1.25-.9a8.23,8.23,0,0,1,1-.51,2.54,2.54,0,0,0-.09.68,2.8,2.8,0,1,0,5.21-1.41h.13a8.33,8.33,0,0,1,1,.19,6,6,0,0,1,.93.28,10.3,10.3,0,0,1,1.94.93,3.58,3.58,0,0,0-.27-.58A5,5,0,0,0,120.14,69.37Z"/><path id="_Path_10" data-name="&lt;Path&gt;" class="cls-3" d="M104.71,95.68a13.3,13.3,0,0,0,7.07-2.58.7.7,0,0,0-.4-1.26c-1.84-.06-4.94-.1-7.95.06-4.68.25-9.12,1-9.12,1C96.62,94.22,98.75,96.23,104.71,95.68Z"/><path id="_Path_11" data-name="&lt;Path&gt;" class="cls-3" d="M111.15,99.45c-4.62,1.16-10.21,1.16-16.36,1-3.21-.07-5.71,0-7.38,0l-.23.07a35,35,0,0,0,4.21,1.33c.38.08,12,2.53,21.88-1a11.52,11.52,0,0,0,2.09-1.12l1.91-2.89h0C116.1,98.33,115,98.49,111.15,99.45Z"/><path id="_Path_12" data-name="&lt;Path&gt;" class="cls-4" d="M101.54,96.53a50.07,50.07,0,0,0-12.34.73c-4.26.91-4.14,3.28-4.14,3.28s.83,0,2.35-.07c1.67,0,4.17,0,7.38,0,6.15.12,11.74.12,16.36-1,3.84-1,4.95-1.12,6.12-2.59a11.87,11.87,0,0,0,.75-1.09S105.68,96.65,101.54,96.53Z"/><path id="_Path_13" data-name="&lt;Path&gt;" class="cls-4" d="M113.27,100.87a17.42,17.42,0,0,1-12.54,4.66,16.29,16.29,0,0,1-9.36-3.66h0a35,35,0,0,1-4.21-1.33,17.51,17.51,0,0,0,7.13,5.11c4.56,1.73,10.88,2.25,14.6,0a28.06,28.06,0,0,0,6.45-5.9,11.52,11.52,0,0,1-2.09,1.12Z"/><path id="_Path_14" data-name="&lt;Path&gt;" class="cls-4" d="M109.14,127.06c5.33-3.51,5-7.66,7.08-14.92,1.39-4.92,3.58-10.71,4.84-13.91.57-1.44.94-2.35,1-2.43v0h0c0,.06-2,3.49-5.59,10.71-1.89,3.81-2.29,7.34-3.1,10.13a11.25,11.25,0,0,1-1.1,2.64,5.94,5.94,0,0,1-1.87,2c-3,2-5.54-1.59-8.14-1.71s-4.46,4.28-9.39,2.21c-3.52-1.47-5-4.18-9.73-8.23s-8.74-6.28-12.59-12.15C66.35,95,64.82,84.19,64.75,74.24h0c.1-15.4,4.2-18.1,5.78-20.8-1.11-11.48,7-16.27,7-16.27s2,1.23,9.49,5a31.56,31.56,0,0,0,15.73,2.95L107,50c3.89,4.41,8.17,7.58,11.93,11A29.83,29.83,0,0,0,109.74,64a.67.67,0,0,0,.32,1.27h7.67a14,14,0,0,1,4.89.88,17.44,17.44,0,0,1,.85,3.07,18.9,18.9,0,0,1,.3,2.75c-.06-3.63,4.15-6,7.72-12.18,3.69-6.35,2.46-9.26,2.46-9.26s-3.19.37-7.13-13.15S111.34,11.36,96.47,9s-35,2.85-44.87,17c-7.79,11.2-7.17,30.47-2.39,36.41,2.66-1.68,7.06.66,8.78,3.72,3,5.38,4.19,27.42,4.24,28.31a38.52,38.52,0,0,0,2.87,8.75,46.51,46.51,0,0,0,6.42,9.56c5.28,6.51,12.64,14.77,20.84,16.22a37,37,0,0,0,12.23-.42l-.69,3.33c-1.22,6.34-2.63,10.1-9.47,11.42-15,1.81-28.43-7.18-34.93-12.52a6.74,6.74,0,0,1-1.89-7.9c.3-.7.61-1.48.9-2.34l-46,15.31a90,90,0,0,0,140.82,18l-44.63-26.61C108.88,127.21,109,127.14,109.14,127.06Z"/><path id="_Path_15" data-name="&lt;Path&gt;" class="cls-4" d="M123.77,72c0,.12,0,.23,0,.36S123.78,72.23,123.77,72Z"/><path id="_Path_16" data-name="&lt;Path&gt;" class="cls-2" d="M100.73,105.53a17.42,17.42,0,0,0,12.54-4.66h0c-9.92,3.53-21.5,1.08-21.88,1h0A16.29,16.29,0,0,0,100.73,105.53Z"/></g></svg>