<svg xmlns="http://www.w3.org/2000/svg" viewBox="0 0 180 180"><title>3</title><circle cx="90" cy="90" r="90" fill="#2f74fb"/><path d="M88.721,162.661c18.7-.411,24.29-11.12,24.7-21.6.029-.742.053-1.506.073-2.282-19.512,1.675-31.878-3.644-43.015-16.6A14.156,14.156,0,0,1,68.2,119.4l-.039-.048h.009c-5.5-8.552-7.632-26.169-8.429-31.988-.363-2.647-.9-6.642-1.411-10.519-1.627-2.294-3.722-2.938-5.956-2.273a5.814,5.814,0,0,0-3.785,3.979,12.21,12.21,0,0,0-.24,6.35C49.259,89.009,51,99.394,57.45,99.9a9.617,9.617,0,0,0,1.184.021c.76,7.85,2.117,18.561,1.474,29.127a67.708,67.708,0,0,1-1.134,9.142C56.1,152.568,70.024,163.072,88.721,162.661Z" fill="#fff"/><path d="M68.2,119.4l-.03-.047h-.009Z" fill="#848aa0"/><path d="M113.495,138.78l.078-.005.188-6.759a31.557,31.557,0,0,1-8.846,1c-15.147-.172-26.162-4.4-33.848-10.337-.2-.154-.393-.326-.586-.5C81.617,135.136,93.983,140.455,113.495,138.78Z" fill="#848aa0"/><path d="M94.7,110.478c1.524,5.218,6.963,6.775,10.561,4.349s-.208-6.862-.208-6.862c4.827,2.382,11.189.239,11.189.239l-1.233,1.979c-1.233,1.979.958,5.049,4,3.661s4.173-10.649-1.414-15.476-16.136-.982-19.231.988S93.174,105.261,94.7,110.478Zm5.518-8.12c5.956-2.695,5.455-5.239,8.636-3.658s3.916.233,5.092-.27,2.188.376,3.214,2.4,1.254,1.829,2.571,2.21c-2.613,2.057-4.406-.273-6.585.578s-5.553-.246-7.506-.444-5,2.09-9.606.6A24.089,24.089,0,0,0,100.216,102.358Z" fill="#fff"/><path d="M127.144,68.685c-.42-1.092-1.455-2.159-4.757-2.159-2.183,0-5.869,1.193-8.23,1.713a1.365,1.365,0,0,1-1.656-1.41c.019-.345.049-.736.1-1.163.2-1.688,1.906-2.405,4.9-2.814,4.688-.639,9.088.937,9.276,2.4.046.355.1.64.163.916-.636-6.347-2.3-14.377-4.467-17.863-3.107-4.991-4.378-11.47-33.411-8.205-18.731,2.106-24.206,13.058-17.542,20.39.742.816.2,1.846-.769,3.4-5,9.252-4.385,34.987,5.086,39.676s12.917-1.4,16.717-4.843c4.188-3.8,8.231-4.93,12.961-5.251-3.464-.658-5.735-2.174-5.91-3.794,5.846,1.318,15.626.193,17.176.285,1.243.074-1.168,2.493-4.633,3.459,5.273.346,7.817,2,9.911,4.635a22.058,22.058,0,0,1,2.968,6.241c1.371-1.185,2.039-3.59,2.535-6.654.413-5.717.479-10.782,0-12.856a23.606,23.606,0,0,1-.813-7.02c.056-1.319.212-2.787.4-4.82A29.761,29.761,0,0,0,127.144,68.685ZM98.17,72.255a3.958,3.958,0,0,0-1.673-.663,9.376,9.376,0,0,0-2.279,0,2.6,2.6,0,1,1-4.576.943c-.268.08-.539.143-.8.234a14.23,14.23,0,0,0-3.646,1.85A6.723,6.723,0,0,1,88.15,71.34a11.788,11.788,0,0,1,4.206-1.5,8.915,8.915,0,0,1,4.57.284,4.2,4.2,0,0,1,1.922,1.46,15.126,15.126,0,0,1,.994,1.968C99.177,73.2,98.715,72.588,98.17,72.255ZM97.805,67.3c-6.758-1.012-15.55,1.332-19.368,3.021-1.651.73-.049-1.223,2.676-2.926s6.293-4.1,12.551-4.515c5.671-.379,10.9-.177,11.611,2.12C106.131,67.765,103.962,68.226,97.805,67.3Zm19.323,3.855a6.183,6.183,0,0,1,3.378-1.315,4.778,4.778,0,0,1,3.571,1.241,4.317,4.317,0,0,1,1.338,3.241,7.767,7.767,0,0,0-2.283-1.991,4.567,4.567,0,0,0-1.972-.495A2.561,2.561,0,0,1,121.522,73a2.589,2.589,0,0,1-5.17.3c0-.026,0-.05,0-.076-.427.209-.861.427-1.319.654A6.423,6.423,0,0,1,117.128,71.159Z" fill="#fff"/><path d="M105.638,103.175c1.953.2,5.327,1.3,7.506.444s3.972,1.479,6.585-.578c-1.317-.381-1.546-.184-2.571-2.21s-2.038-2.9-3.214-2.4-1.911,1.851-5.092.27-2.679.964-8.636,3.658a24.089,24.089,0,0,1-4.184,1.418C100.641,105.265,103.685,102.977,105.638,103.175Z" fill="#848aa0"/><path d="M116.784,89.967c-1.55-.092-11.33,1.033-17.176-.285.174,1.62,2.446,3.137,5.91,3.794,1.42-.1,2.9-.122,4.466-.121.773,0,1.49.026,2.168.071C115.617,92.46,118.028,90.041,116.784,89.967Z" fill="#848aa0"/><path d="M93.664,62.883C87.406,63.3,83.837,65.7,81.113,67.4s-4.326,3.656-2.676,2.926c3.818-1.689,12.61-4.033,19.368-3.021,6.156.922,8.326.462,7.47-2.3C104.563,62.706,99.335,62.5,93.664,62.883Z" fill="#091440"/><path d="M96.925,70.128a8.915,8.915,0,0,0-4.57-.284,11.788,11.788,0,0,0-4.206,1.5,6.723,6.723,0,0,0-2.959,3.283,14.23,14.23,0,0,1,3.646-1.85c.265-.091.537-.154.8-.234a2.56,2.56,0,0,0-.08.757,2.589,2.589,0,1,0,4.656-1.7,9.376,9.376,0,0,1,2.279,0,3.958,3.958,0,0,1,1.673.663c.545.332,1.007.945,1.672,1.3a15.126,15.126,0,0,0-.994-1.968A4.2,4.2,0,0,0,96.925,70.128Z" fill="#091440"/><path d="M125.49,119.451c1.89-6.531,2.076-21.807,2.076-21.807v0c-.5,3.064-1.164,5.469-2.535,6.654a22.058,22.058,0,0,0-2.968-6.241c-2.094-2.64-4.638-4.29-9.911-4.635-.678-.044-1.395-.07-2.168-.071-1.567,0-3.046.025-4.466.121-4.731.321-8.774,1.455-12.961,5.251-3.8,3.444-7.246,9.531-16.717,4.843S65.752,73.147,70.754,63.895c.973-1.557,1.51-2.588.769-3.4-6.665-7.332-1.189-18.284,17.542-20.39,29.033-3.264,30.3,3.214,33.411,8.205,2.17,3.485,3.831,11.516,4.467,17.863-.061-.276-.117-.56-.163-.916-.188-1.463-4.587-3.04-9.276-2.4-3,.409-4.709,1.126-4.9,2.814-.049.427-.08.818-.1,1.163a1.365,1.365,0,0,0,1.656,1.41c2.361-.52,6.046-1.713,8.23-1.713,3.3,0,4.337,1.067,4.757,2.159a29.761,29.761,0,0,1,.008,4.268c-.191,2.033-.348,3.5-.4,4.82.12-.189.253-.379.347-.562,3.734-7.274,4.486-20.963-.734-27.649a17.81,17.81,0,0,0-5.586-4.33s2.125-3.745.4-7.448c-3.286-7.065-9.464-10.606-18.767-13.551S77.168,23.2,70.962,30.517c-9.289,3.2-19.153,12.4-21.98,20.921-2.089,6.3-2.83,16.7-.395,27.115a5.814,5.814,0,0,1,3.785-3.979c2.234-.665,4.33-.021,5.956,2.273.515,3.878,1.048,7.872,1.411,10.519.8,5.819,2.93,23.436,8.429,31.988l.03.047a14.156,14.156,0,0,0,2.283,2.779c.193.176.386.348.586.5,7.686,5.939,18.7,10.165,33.848,10.337a31.557,31.557,0,0,0,8.846-1l-.265,6.764h0c-.02.776-.044,1.54-.073,2.282-.411,10.479-6,21.188-24.7,21.6S56.1,152.568,58.973,138.185a67.708,67.708,0,0,0,1.134-9.142L19.678,146.164a90,90,0,0,0,138.413,2.689l-41.441-17.888C122.226,128.385,124.239,123.771,125.49,119.451ZM98.362,99.358c3.095-1.97,13.645-5.815,19.231-.988s4.455,14.089,1.414,15.476-5.233-1.682-4-3.661l1.233-1.979s-6.362,2.144-11.189-.239c0,0,3.807,4.436.208,6.862s-9.037.868-10.561-4.349S95.268,101.328,98.362,99.358Z" fill="#091440"/><path d="M116.351,73.3a2.589,2.589,0,0,0,5.17-.3,2.561,2.561,0,0,0-.362-1.157,4.567,4.567,0,0,1,1.972.495,7.767,7.767,0,0,1,2.283,1.991,4.317,4.317,0,0,0-1.338-3.241,4.778,4.778,0,0,0-3.571-1.241,6.183,6.183,0,0,0-3.378,1.315,6.423,6.423,0,0,0-2.092,2.715c.458-.227.892-.446,1.319-.654C116.355,73.245,116.35,73.269,116.351,73.3Z" fill="#091440"/></svg>