<svg id="illustrations" xmlns="http://www.w3.org/2000/svg" viewBox="0 0 180 180"><defs><style>.cls-1{fill:#2f74fb;}.cls-2{fill:none;}.cls-3{fill:#091440;}.cls-4{fill:#fff;}.cls-5{fill:#848aa0;}</style></defs><title>dcr_portraits5</title><circle id="_Path_" data-name="&lt;Path&gt;" class="cls-1" cx="90" cy="90" r="90"/><path class="cls-2" d="M126,69.44h0c-.1,1.62-.22,3.14-.33,4.45-.23,2.61-.36,5.39-.55,8.35.9-.21,1.63-.42,2-.57,2-.71,3.48-5.72,3.71-8.66.18-2.34.06-4.62-4.62-5.57A4.77,4.77,0,0,1,126,69.44Z"/><path class="cls-3" d="M105.38,135.68h0c-2.87,10-7.89,17.31-17.21,17.37-25.56.16-35.37-18.35-33.37-23.76.23-.63.48-1.45.74-2.41L17.6,143.47A90,90,0,0,0,155,152.2l-48.56-21C106.16,132.76,105.79,134.25,105.38,135.68Z"/><path class="cls-4" d="M105.38,135.68c.41-1.43.78-2.91,1.11-4.44q.11-.51.21-1C106.28,132.09,105.81,134,105.38,135.68Z"/><path class="cls-4" d="M88.17,153.06c9.32-.06,14.34-7.39,17.21-17.37-1.13,4.5-15.38,4.28-21.68-3.53-4.91-6.08-8.78-12.54-15.45-19.22h0c4.59,3.5,11,7.89,14.39,11,5.39,4.93,7.6,5.16,15.47,5.29,4.14.07,6.69.08,9-1.08,2.1-1,4-3,6.78-6.83,5.81-8,6-9.68,8.62-20.53a101.94,101.94,0,0,0,2.44-17c-.5.09-1,.17-1.64.25-8.27,1-11.53.53-13.69-3.43s-3.17-7-3.94-7.68a3.41,3.41,0,0,0-4.35,0c-.77.69-1.78,3.72-3.94,7.68S90,85.15,81.73,84.11s-8-5.93-8.74-8.94a6.27,6.27,0,0,0-2.71-4.1l-4.9.34c0,3.71.4,6.72.09,9.27l-2.63,1.85c-.61-1.63-1.08-2.88-1.21-3.28-1.89-5.7-2.3-8.56-7-8.84a15.65,15.65,0,0,0-1.88,0c-6.48.38-6.09,8.29-4.32,13s1,13.16,9.62,12.62l.49,0a112.7,112.7,0,0,1-3,30.89c-.25,1-.5,1.78-.74,2.41C52.79,134.71,62.61,153.22,88.17,153.06Zm.68-45.57a52.91,52.91,0,0,0,9.69-2.78c1.25-.38,2.71,1.32,4.37,1.42s2.08-.83,4.27-1.35,4.37,2,9.17,3.12C103.12,109.68,88.85,107.49,88.85,107.49ZM113.74,96a12.61,12.61,0,0,1-9.38,4.43c-6.25.21-10.25-1.72-12.29-4.43a30.42,30.42,0,0,0,11.12,1.79A29.44,29.44,0,0,0,113.74,96Z"/><path class="cls-5" d="M98.12,129.26c-7.88-.13-10.08-.37-15.47-5.29-3.43-3.13-9.81-7.52-14.39-11h0c6.68,6.68,10.55,13.13,15.45,19.22,6.3,7.8,20.55,8,21.68,3.53h0c.43-1.72.9-3.58,1.32-5.47q.23-1,.44-2C104.81,129.34,102.26,129.33,98.12,129.26Z"/><path class="cls-4" d="M126,69.43c0-.08,0-1.7-4.33-2.46-9.2-.23-12.21,3.21-12.48,6a10.19,10.19,0,0,0,3.73,8.66c2.57,2.27,8.75,1.38,12.2.57.19-3,.32-5.74.55-8.35C125.76,72.57,125.87,71.06,126,69.43Zm-5.13,4.29a9.39,9.39,0,0,0-1.76-.43,2.3,2.3,0,0,1-.57,2.65,20.05,20.05,0,0,1-3.52-.37,2.14,2.14,0,0,1-.42-1.55,10.59,10.59,0,0,0-2.1,1.54,5.32,5.32,0,0,1,1.88-3.08,5.85,5.85,0,0,1,3.6-1.27,6.2,6.2,0,0,1,3.64,1.06,10,10,0,0,1,2.47,2.57A25.46,25.46,0,0,1,120.84,73.72Z"/><path class="cls-4" d="M77.94,81.67c2,.71,13,2.86,16.23,0A10.19,10.19,0,0,0,97.91,73c-.12-1.22-1.13-2.56-3-3.67-1.77-.58-4.57-1.44-7.68-2.22a31.36,31.36,0,0,0-3.8-.13c-9.2.23-9.43,3.08-9.2,6S76,81,77.94,81.67Zm4.35-10.11a9.61,9.61,0,0,1,3.87-1,7.92,7.92,0,0,1,4,.77,4.47,4.47,0,0,1,2.49,3.1,6.49,6.49,0,0,0-3.06-1.64,10.2,10.2,0,0,0-1.43-.21,2.29,2.29,0,0,1-.6,2.6,25.14,25.14,0,0,1-3,0,2.29,2.29,0,0,1-.73-2.36c-.31.05-.63.09-.94.17a8,8,0,0,0-3.23,1.43A4.89,4.89,0,0,1,82.29,71.55Z"/><path class="cls-4" d="M123.94,50.45c-3.1-1.94-6.3-3.6-17.6-11.35s-26.54-9.3-33.77-3.49S70,49,67.07,59.07a40.38,40.38,0,0,0-1.61,9.34l4.83-.65a40.18,40.18,0,0,1,5.49-1.45c1.21-1.45,3.64-3.8,6.87-4.12,4.32-.42,11,1.81,14.91,4.5a1.29,1.29,0,0,1,.34,1.78l-.1.15A20.22,20.22,0,0,0,103.54,70a18.12,18.12,0,0,0,4.69-1l-.05-.17a1.62,1.62,0,0,1,.54-1.84c2.14-1.37,8.63-4.39,12.5-3.68,2.5.46,3.79,1.42,4.44,2.45l.49,0c0-1.21.07-2.44.07-3.64C126.22,56.63,125.71,51.56,123.94,50.45Z"/><path class="cls-3" d="M83.78,72.86a2.29,2.29,0,0,0,.73,2.36,25.14,25.14,0,0,0,3,0,2.29,2.29,0,0,0,.6-2.6,10.2,10.2,0,0,1,1.43.21,6.49,6.49,0,0,1,3.06,1.64,4.47,4.47,0,0,0-2.49-3.1,7.92,7.92,0,0,0-4-.77,9.61,9.61,0,0,0-3.87,1,4.89,4.89,0,0,0-2.68,2.9A8,8,0,0,1,82.85,73C83.15,73,83.47,72.91,83.78,72.86Z"/><path class="cls-3" d="M121.59,72.27A6.2,6.2,0,0,0,118,71.21a5.85,5.85,0,0,0-3.6,1.27,5.32,5.32,0,0,0-1.88,3.08,10.59,10.59,0,0,1,2.1-1.54,2.14,2.14,0,0,0,.42,1.55,20.05,20.05,0,0,0,3.52.37,2.3,2.3,0,0,0,.57-2.65,9.39,9.39,0,0,1,1.76.43,25.46,25.46,0,0,0,3.21,1.11A10,10,0,0,0,121.59,72.27Z"/><path class="cls-5" d="M103.19,97.83A30.42,30.42,0,0,1,92.08,96c2,2.71,6,4.64,12.29,4.43A12.61,12.61,0,0,0,113.74,96,29.44,29.44,0,0,1,103.19,97.83Z"/><path class="cls-5" d="M107.18,104.78c-2.19.52-2.6,1.46-4.27,1.35s-3.12-1.81-4.37-1.42a52.91,52.91,0,0,1-9.69,2.78s14.27,2.19,27.5.42C111.55,106.76,109.37,104.26,107.18,104.78Z"/><path class="cls-3" d="M61.63,79.25c.13.39.6,1.65,1.21,3.28l2.63-1.85c.31-2.54-.07-5.56-.09-9.27l4.9-.34A6.27,6.27,0,0,1,73,75.17c.7,3,.46,7.91,8.74,8.94s13.53.53,15.69-3.43,3.17-7,3.94-7.68a3.41,3.41,0,0,1,4.35,0c.77.69,1.78,3.72,3.94,7.68s5.42,4.46,13.69,3.43c.61-.08,1.15-.16,1.64-.25a7,7,0,0,0,4.25-1.94c1.84-1.93,2.42-4.92,2.84-6.74a6.27,6.27,0,0,1,2.71-4.1V67.75a39.17,39.17,0,0,0-8.64-2l-.49,0c-.65-1-1.94-2-4.44-2.45-3.88-.71-10.36,2.3-12.5,3.68a1.62,1.62,0,0,0-.54,1.84l.05.17a18.12,18.12,0,0,1-4.69,1,20.22,20.22,0,0,1-5.74-1.38l.1-.15a1.29,1.29,0,0,0-.34-1.78C93.62,64,87,61.76,82.66,62.19c-3.23.32-5.66,2.67-6.87,4.12a40.18,40.18,0,0,0-5.49,1.45l-4.83.65a40.38,40.38,0,0,1,1.61-9.34C70,49,65.35,41.43,72.58,35.62S95,31.36,106.34,39.11s14.5,9.41,17.6,11.35c1.77,1.11,2.28,6.17,2.28,11.7.2-.17.32-.32.33-.44.17-3,6.35-23.05-7.22-34.07C102.39,13.9,86.56,12.92,72.71,17.83c-8.71,3.08-11.4,10.91-15,13.53-10.12,7.43-5.75,25.09-3.05,39C59.34,70.7,59.75,73.55,61.63,79.25ZM130.84,73c-.23,2.94-1.72,8-3.71,8.66-.41.15-1.14.36-2,.57-3.45.82-9.62,1.7-12.2-.57A10.19,10.19,0,0,1,109.17,73c.27-2.82,3.28-6.26,12.48-6,4.32.75,4.33,2.38,4.33,2.46h0a4.77,4.77,0,0,0,.25-2C130.9,68.39,131,70.66,130.84,73ZM83.43,67a31.36,31.36,0,0,1,3.8.13c3.11.78,5.91,1.64,7.68,2.22,1.86,1.11,2.88,2.45,3,3.67a10.19,10.19,0,0,1-3.73,8.66c-3.25,2.86-14.25.71-16.23,0S74.46,75.95,74.23,73,74.23,67.21,83.43,67Z"/></svg>