<svg xmlns="http://www.w3.org/2000/svg" xmlns:xlink="http://www.w3.org/1999/xlink" viewBox="6291 1518 180 180"><defs><style>.a{fill:#69d5f7;}.b{clip-path:url(#a);}.c{clip-path:url(#b);}.d,.e{fill:#091440;}.d{opacity:0.5;}.f{fill:#fff;}</style><clipPath id="a"><circle cx="90" cy="90" r="90"/></clipPath><clipPath id="b"><path d="M56.9,86.2s4.2,16.3,4.5,27.8a68.739,68.739,0,0,1-1.3,15.7,6.667,6.667,0,0,0,2.7,6.8,35.668,35.668,0,0,0,20.3,6.6c11.9,0,19.2-2.9,22.9-5a6.555,6.555,0,0,0,3.3-5.3c.3-5.6,1.3-17.6,3.8-24.5,3.4-9.2-54.3-26.6-54.3-26.6Z"/></clipPath></defs><g transform="translate(5614 856)"><g transform="translate(677 662)"><circle class="a" cx="90" cy="90" r="90"/><g class="b"><g class="c"><path class="d" d="M122.4,102.1a1.893,1.893,0,0,1-2.6,1.2,34.564,34.564,0,0,0-14.7-3.3c-10,0-18,1.4-24.2,6.7-12.7-10.4-15-17-15.9-33.4l-5.6.3,3.7,16c3.7,16,5.5,23.7,11.7,29.6,6.2,5.8,14.3,12,23.7,13.5s18-1,22-14a126.773,126.773,0,0,0,4.7-27Zm-8.3,17.7c-3.7,0-1.9-7.2-1.9-7.2a50.5,50.5,0,0,1-13.9-.8c2.4,5.8-3.2,8.7-6.1,8a6.562,6.562,0,0,1-5.1-7.5s1.9-6.5,14.8-6.8c12.8-.3,15.1,5.2,15.1,5.2S117.8,119.8,114.1,119.8Z"/></g></g><g class="b"><path class="e" d="M165.4,213.7H3.6l-1-54.2L60.4,130h48.1l56.9,34Z"/><path class="f" d="M55.4,90.1s4.4,17.1,4.8,29.2a69.3,69.3,0,0,1-1.4,16.5,6.842,6.842,0,0,0,2.8,7.1,37.1,37.1,0,0,0,21.3,7c12.5,0,20.1-3,24-5.3a7.287,7.287,0,0,0,3.5-5.6c.3-5.9,1.4-18.5,4-25.8,3.5-9.7-57.1-27.9-57.1-27.9Z"/><path class="e" d="M111,68.6l19,2.3-2.1-4.2H111Z"/><path class="f" d="M118,111.7s4.6-13.9,5-22.1,0-12.2,0-17.9c0-5.6,1.3-10.3.2-18.4-1.1-8.2-.6-16.3-8.6-23.2S81.2,16.7,66.5,27.6,52.8,78.1,63.8,98.3,95,130.8,106,125.9C116.9,120.9,118,111.7,118,111.7Z"/><path class="e" d="M81.6,73a6.966,6.966,0,0,1,1.7-1.5,10.344,10.344,0,0,1,2.1-1.1,4.951,4.951,0,0,1,1.3-.4c.4-.1.9-.2,1.4-.3a7.519,7.519,0,0,1,1.5,0,5.9,5.9,0,0,1,1.4.2c.4.2.9.3,1.3.5a3.592,3.592,0,0,1,1,.7l.7.7a6.125,6.125,0,0,1,.4.6l.3.6-.6-.3-.6-.3c-.3-.1-.5-.2-.8-.3l-.9-.3c-.3-.1-.7-.1-1-.2H89.7a4.869,4.869,0,0,0-1.2.1,20.022,20.022,0,0,0-2.4.4c-.8.2-1.5.3-2.2.5C82.5,72.8,81.6,73,81.6,73Z"/><circle class="e" cx="2.6" cy="2.6" r="2.6" transform="translate(84.1 70.6)"/><path class="e" d="M112.4,73a3.614,3.614,0,0,1,.9-1.4,4.735,4.735,0,0,1,1.3-1.1,5.45,5.45,0,0,1,1.9-.8,4.485,4.485,0,0,1,1.1-.1c.2,0,.4.1.6.1.2.1.4.1.6.2a7.018,7.018,0,0,1,.9.6,3.508,3.508,0,0,1,.5.8,2.544,2.544,0,0,1,.2.7v1.1a2.959,2.959,0,0,0-.4-.3,1.381,1.381,0,0,0-.4-.3,2.186,2.186,0,0,0-.5-.3c-.1-.1-.4-.2-.5-.3-.2-.1-.4-.1-.6-.2h-.6a1.952,1.952,0,0,0-.7.1c-.5.1-1,.3-1.5.4-.5.2-1,.3-1.4.5A12.083,12.083,0,0,0,112.4,73Z"/><circle class="e" cx="2.6" cy="2.6" r="2.6" transform="translate(112.8 70.6)"/><path class="e" d="M101.9,62.7s-.1,4.9-3.4,5.5-8.2-3-18.2-3.6S70,67.2,70,67a13.717,13.717,0,0,1,8.3-6.9C84,58.5,97.9,63.1,101.9,62.7Z"/><path class="e" d="M107.1,69.3s2.7-7.8,9.4-8.4,7.6,2.5,7.5,5.3a5.326,5.326,0,0,1-.5,2.1s.3-4.5-4.2-3.2C114.8,66.3,108.3,73.6,107.1,69.3Z"/><path class="d" d="M92.5,94.2s1.7,1.8,6.4,1.7c4.6-.1,4.9,1.9,8.3.6,4.2-1.5,4.6-.8,4.6-.8s-3,3.7-9.9,3.6S92.5,94.2,92.5,94.2Z"/><path class="d" d="M112.9,107.1s-14.4,1.2-24.7-.9C103.5,102.7,112.9,107.1,112.9,107.1Z"/><path class="e" d="M58.7,75.7c0-8.5,7.7-15.9,7.7-15.9s-6-18,0-22.7,18.3-8.5,33.4-3.7c15.6-3,22.3,9.5,23.2,15.1,0-10.1,6.6-12.1,0-20.3S113.8,9.7,95.6,9.9c-9.7-8-31.4,5.7-36.9,11.2-8-.5-10.6,6-8,11.7-7.4,5.5-9.4,8.8-9.4,15.6S47,60.8,47,60.8l3.7,12.4Z"/><path class="e" d="M86.3,64.7h4.6a2.769,2.769,0,0,1,.9.1c.4.1.7.1,1.1.2a11.08,11.08,0,0,1,4.4,2.1,10.2,10.2,0,0,1,3.2,4.8A11.151,11.151,0,0,1,101,75v1.6a11.135,11.135,0,0,1-.2,1.7,10.649,10.649,0,0,1-3.5,5.8,10.484,10.484,0,0,1-6.6,2.4h-5a12.367,12.367,0,0,1-1.8-.2,10.388,10.388,0,0,1-8.1-9.6V75.3a6.15,6.15,0,0,1,.1-1.4,7.732,7.732,0,0,1,.8-2.7,9.272,9.272,0,0,1,3-3.9A9.872,9.872,0,0,1,83,65.5a17.255,17.255,0,0,1,2.4-.5A2.322,2.322,0,0,1,86.3,64.7Zm0,2h-.7a5.365,5.365,0,0,0-1.9.4A8.206,8.206,0,0,0,81,68.6a8.563,8.563,0,0,0-2.4,3.1,7.945,7.945,0,0,0-.6,2.2,4.869,4.869,0,0,0-.1,1.2v1.3a8.6,8.6,0,0,0,1.8,4.8,8.233,8.233,0,0,0,4.7,2.9,1.7,1.7,0,0,0,.7.1c.2,0,.5.1.7.1h4.9a8.659,8.659,0,0,0,5.4-1.9A8.359,8.359,0,0,0,99,77.7a5.067,5.067,0,0,0,.2-1.3V75a10.054,10.054,0,0,0-.4-2.5,8.091,8.091,0,0,0-2.6-3.8,9.751,9.751,0,0,0-3.5-1.8,2.2,2.2,0,0,0-.8-.1,2.769,2.769,0,0,1-.9-.1H86.3Z"/><path class="e" d="M117.3,64.6h2.8a13.891,13.891,0,0,1,3.5.9,11.371,11.371,0,0,1,3.6,2.8,11.145,11.145,0,0,1,2.3,4.9,7.568,7.568,0,0,1,.1,1.5v1.4a11.728,11.728,0,0,1-.5,3,10.07,10.07,0,0,1-3.7,5.2,9.888,9.888,0,0,1-6.2,2.1h-3.1a9.538,9.538,0,0,1-3.3-.9,10.351,10.351,0,0,1-4.7-4.3,10.208,10.208,0,0,1-1.1-2.9,7.719,7.719,0,0,1-.2-1.5V74c.1-.5.1-1,.2-1.4a18.409,18.409,0,0,1,.9-2.5,10.464,10.464,0,0,1,3-3.5,10.631,10.631,0,0,1,3.2-1.6,7.882,7.882,0,0,1,2.3-.4Zm0,2.2h-.6a8.205,8.205,0,0,0-1.8.3,7.512,7.512,0,0,0-2.5,1.3,8.006,8.006,0,0,0-2.4,2.7,6.191,6.191,0,0,0-.7,1.9c-.1.4-.1.7-.2,1,0,.4-.1.9-.1,1.2v1.3a5.019,5.019,0,0,0,.2,1.2,9.172,9.172,0,0,0,.9,2.3,8.037,8.037,0,0,0,6.2,4.2,1.7,1.7,0,0,1,.7.1h2.2a8.164,8.164,0,0,0,5-1.7,7.856,7.856,0,0,0,3-4.2,10.054,10.054,0,0,0,.4-2.5V74.6c0-.4-.1-.8-.1-1.2a8.406,8.406,0,0,0-1.9-3.9,9.693,9.693,0,0,0-2.9-2.2,7.711,7.711,0,0,0-2.7-.7h-2A2.255,2.255,0,0,1,117.3,66.8Z"/><path class="e" d="M76.9,75.6h-1c0-2.2-.8-4.9-3.1-4.9h0V66.8L84.1,65l-1.7,1.7c-2.1.6-4.2,3.4-5.5,6.3Z"/><path class="e" d="M128.5,75.6l1-.7c0-2.2-.2-4.2,2-4.2h0V66.8L120.6,66l2.4.8a10.2,10.2,0,0,1,5.5,6.3Z"/><path class="e" d="M109.7,69.9c-3.6,3-1,.8-1.8,1.5h0v-.1l-.1-.1-.2-.2-.4-.5a3.591,3.591,0,0,0-1-.7,5.359,5.359,0,0,0-1.1-.5,1.268,1.268,0,0,0-.6-.1l-.6-.1h-.6c-.2,0-.4.1-.6.1a5.637,5.637,0,0,0-1.2.4,3.592,3.592,0,0,0-1,.7l-.4.5a1.756,1.756,0,0,1-.4.5h0L98.1,70h0a2.651,2.651,0,0,1,.6-.5,4.233,4.233,0,0,1,.7-.5,6.109,6.109,0,0,1,1.4-.7,8.8,8.8,0,0,1,1.5-.5l.8-.1h1.6l.8.1a8.33,8.33,0,0,1,1.5.4,6.11,6.11,0,0,1,1.4.7c.2.2.5.3.7.5l.3.3.2.1.1.1h0c-.8.7,1.8-1.5-1.8,1.5Z"/><path class="f" d="M53.9,70.6c-3.6-4.9-10.3.1-10.5,5.1s2.3,14.6,8.1,17.6,7.9,2.5,6-7.8S56.5,74.2,53.9,70.6Z"/><path class="e" d="M120.1,100.6a2.013,2.013,0,0,1-2.8,1.3,35.894,35.894,0,0,0-15.4-3.5c-10.5,0-18.9,1.5-25.4,7C63.1,94.5,60.7,87.6,59.7,70.3l-5.8.4,3.8,16.8c3.8,16.8,5.8,24.9,12.3,31s15.1,12.6,24.9,14.2,18.9-1.1,23.1-14.7a136.31,136.31,0,0,0,5-28.4Zm-8.7,18.5c-3.9,0-2-7.5-2-7.5a53.2,53.2,0,0,1-14.6-.9c2.5,6.1-3.4,9.1-6.4,8.4a6.83,6.83,0,0,1-5.3-7.9s2-6.8,15.5-7.1,15.9,5.4,15.9,5.4S115.2,119.1,111.4,119.1Z"/><path class="e" d="M55.9,68.6,75,70.9l-2.1-4.2h-17Z"/></g></g></g></svg>