<svg id="illustrations" xmlns="http://www.w3.org/2000/svg" xmlns:xlink="http://www.w3.org/1999/xlink" viewBox="0 0 180 180"><defs><style>.cls-1{fill:none;}.cls-2{clip-path:url(#clip-path);}.cls-3{fill:#2f74fb;}.cls-4{fill:#091440;}.cls-5{fill:#fff;}.cls-6{fill:#848aa0;}</style><clipPath id="clip-path"><circle id="_Clipping_Path_" data-name="&lt;Clipping Path&gt;" class="cls-1" cx="90" cy="90" r="90"/></clipPath></defs><title>bab</title><g id="_Clip_Group_" data-name="&lt;Clip Group&gt;"><g class="cls-2"><circle id="_Path_" data-name="&lt;Path&gt;" class="cls-3" cx="90" cy="90" r="90"/><g id="_Group_" data-name="&lt;Group&gt;"><polygon id="_Path_2" data-name="&lt;Path&gt;" class="cls-4" points="72.21 124.61 20.98 147 17.32 182.16 175.82 182.16 164.74 149.69 108.44 125.39 72.21 124.61"/><g id="_Group_2" data-name="&lt;Group&gt;"><path id="_Path_3" data-name="&lt;Path&gt;" class="cls-4" d="M106.82,25.46s12,1.76,16.8,16.49,4,30.9,5.45,44.51,6.72,33.3,3.2,48.67-7.69,26.26-10.73,28.5S102.6,154.06,100,135.81s1.64-89.53-.73-98.18S106.82,25.46,106.82,25.46Z"/><path id="_Path_4" data-name="&lt;Path&gt;" class="cls-5" d="M109,116.14s-.89,16.49-1.05,25.61-3.36,11.64-11.39,11.64c-8.89,0-21.18-3.15-26.46-15s0-46.35,0-46.35Z"/><path id="_Path_5" data-name="&lt;Path&gt;" class="cls-6" d="M76.62,110.82s6.09,16.32,17.1,19.85,14.6-.13,14.6-.13l1.47-19L71,105.83Z"/><path id="_Path_6" data-name="&lt;Path&gt;" class="cls-5" d="M103.09,126.87c9.58-2.45,8.09-9.62,13.91-17.51s5.25-11.9,5.38-28.88-1.87-19-4.94-29.81S108.36,31.55,96,30.88,64.89,39.79,63,66.32s2,50.6,19.46,57.38C91.6,127.25,97.88,128.21,103.09,126.87Z"/><g id="_Group_3" data-name="&lt;Group&gt;"><g id="_Group_4" data-name="&lt;Group&gt;"><path id="_Path_7" data-name="&lt;Path&gt;" class="cls-4" d="M107.61,71.54a5.74,5.74,0,0,1,.88-2.27,6.38,6.38,0,0,1,1.77-1.91,5.38,5.38,0,0,1,1.37-.71,5.16,5.16,0,0,1,1.66-.3H114c.23,0,.53.06.78.09a6.67,6.67,0,0,1,1.46.41,5.76,5.76,0,0,1,2.16,1.52,4.6,4.6,0,0,1,.93,1.55,3,3,0,0,1,.16.65,8.19,8.19,0,0,0-1.82-1.32,7.89,7.89,0,0,0-2-.72,8.93,8.93,0,0,0-1.14-.16l-.58,0h-.69a4.58,4.58,0,0,0-1.06.15,6.9,6.9,0,0,0-1,.39A9.88,9.88,0,0,0,109.35,70C108.31,70.85,107.61,71.54,107.61,71.54Z"/></g><path id="_Path_8" data-name="&lt;Path&gt;" class="cls-4" d="M115.24,68.85c0-1.31-1.06-1.2-2.38-1.2s-2.38-.11-2.38,1.2a2.38,2.38,0,0,0,4.76,0Z"/><path id="_Path_9" data-name="&lt;Path&gt;" class="cls-6" d="M108.18,61.55c-3.8-.55,1.61-4.65,7.27-4.57,4.77.07,4.41,1.24,5.07,3.91C116.46,59.46,110.83,61.93,108.18,61.55Z"/></g><g id="_Group_5" data-name="&lt;Group&gt;"><g id="_Group_6" data-name="&lt;Group&gt;"><path id="_Path_10" data-name="&lt;Path&gt;" class="cls-4" d="M80.06,71.54a4.18,4.18,0,0,1,.25-.7,7.8,7.8,0,0,1,1-1.66,7.39,7.39,0,0,1,2.11-1.87A6.76,6.76,0,0,1,85,66.63a7,7,0,0,1,1.76-.27h.76c.26,0,.57.06.85.1a7.78,7.78,0,0,1,1.58.41,6.17,6.17,0,0,1,1.36.68,5.77,5.77,0,0,1,1.06.84A5.6,5.6,0,0,1,93.48,70a3.52,3.52,0,0,1,.24.7,9.13,9.13,0,0,0-2.07-1.38,8.5,8.5,0,0,0-1.05-.43,10,10,0,0,0-1.2-.33,9.29,9.29,0,0,0-1.29-.17l-.66,0h-.76l-.61.05-.63.11-.62.16-.6.21c-.39.18-.78.35-1.13.54s-.69.41-1,.61A23.37,23.37,0,0,0,80.06,71.54Z"/></g><path id="_Path_11" data-name="&lt;Path&gt;" class="cls-4" d="M88.8,68.85c0-1.31-1.07-1.2-2.38-1.2S84,67.54,84,68.85a2.38,2.38,0,0,0,4.76,0Z"/><path id="_Path_12" data-name="&lt;Path&gt;" class="cls-6" d="M94.55,61.17c.15-2.57-4.57-3.81-12.09-3.81s-8.94,3.81-8.94,3.81A21.53,21.53,0,0,1,84,60.12C89.6,61.07,94.46,62.88,94.55,61.17Z"/></g><path id="_Path_13" data-name="&lt;Path&gt;" class="cls-6" d="M91.7,86.11c6.47,2.76,14.85,2.48,18.09-.38-.39,4.57-6.29,5.61-9.05,5.62C96.46,91.35,92,87.92,91.7,86.11Z"/><path id="_Path_14" data-name="&lt;Path&gt;" class="cls-4" d="M85.13,98.58s.38-.76,4.14-.67,14.14,1,18.61.67a34,34,0,0,1,6.7.06s-1.39-.16-3.73,1.75-4.3,5-10.11,4.79S87.51,100.77,85.13,98.58Z"/><path id="_Path_15" data-name="&lt;Path&gt;" class="cls-5" d="M102.26,102.77c-5.68.6-9.51-1.81-13-4.86l21.42.56S108.55,102.1,102.26,102.77Z"/><g id="_Group_7" data-name="&lt;Group&gt;"><path id="_Compound_Path_" data-name="&lt;Compound Path&gt;" class="cls-4" d="M85.75,64.15C75.5,63.5,70,66.53,70,66.53v4s2.5.7,3.5,4.21,3.66,9.48,11,9.48,10-2.81,12.46-7.16S99,65,85.75,64.15Zm10.86,8.21C96.4,80,89.46,83,85.13,83.09a10,10,0,0,1-10.2-9.47c-.7-6.67,4.63-8.42,12-7.79S96.82,69.44,96.61,72.36Z"/><path id="_Compound_Path_2" data-name="&lt;Compound Path&gt;" class="cls-4" d="M104.14,77c2.12,4.35,4.43,7.15,10.76,7.15s8.65-6,9.51-9.47,3-4.21,3-4.21v-4s-4.74-3-13.6-2.38C102.36,64.88,102,72.6,104.14,77Zm8.71-11.23c6.33-.63,10.94,1.12,10.33,7.79s-5.07,9.54-8.81,9.47-9.75-3.09-9.93-10.73C104.26,69.33,106.51,66.35,112.85,65.72Z"/><path id="_Path_16" data-name="&lt;Path&gt;" class="cls-4" d="M94.9,66.76c3.82,2.28,6.49,2.72,12-.44l-1.14,1.12a6.68,6.68,0,0,0-2,4.28l-.19,2.68S102.48,72,100.74,72s-2.88,2.84-2.88,2.84l-1.23-5.41Z"/></g><path id="_Path_17" data-name="&lt;Path&gt;" class="cls-4" d="M110.71,26.26c.93-1.92-2.69-5.92-11.46-7.52S70.57,20.23,57.92,36.88,43.64,70.58,44.21,90.6A97.06,97.06,0,0,1,38,127.45c-2.09,5.37-.32,9.21,4.16,13.37,3.77,3.5,18,12.14,25.43,19.77a7.5,7.5,0,0,0,9.43,1c7.13-4.66,13.37-11.53,10-23-5-16.89-13.23-25.57-16.37-38.26S63.11,73.81,75,55.24,108.74,30.33,110.71,26.26Z"/><path id="_Path_18" data-name="&lt;Path&gt;" class="cls-6" d="M85.13,98.58s25.26-.09,29.45.06C105.91,94.68,92.59,96.61,85.13,98.58Z"/></g><polygon id="_Path_19" data-name="&lt;Path&gt;" class="cls-4" points="70.02 70.53 57.48 72.77 58.77 70.53 70.02 66.53 70.02 70.53"/></g></g></g></svg>