<svg id="illustrations" xmlns="http://www.w3.org/2000/svg" xmlns:xlink="http://www.w3.org/1999/xlink" viewBox="0 0 180 180"><defs><style>.cls-1{fill:none;}.cls-2{clip-path:url(#clip-path);}.cls-3{fill:#6ed3f3;}.cls-4{fill:#091440;}.cls-5{fill:#848aa0;}.cls-6{fill:#fff;}</style><clipPath id="clip-path"><circle id="_Clipping_Path_" data-name="&lt;Clipping Path&gt;" class="cls-1" cx="90" cy="90" r="90"/></clipPath></defs><title>lindsay</title><g id="_Clip_Group_" data-name="&lt;Clip Group&gt;"><g class="cls-2"><circle id="_Path_" data-name="&lt;Path&gt;" class="cls-3" cx="90" cy="90" r="90"/><polygon id="_Path_2" data-name="&lt;Path&gt;" class="cls-4" points="66.97 128.92 14.05 152.05 10.28 188.37 173.99 188.37 160.79 154.59 104.39 129.73 66.97 128.92"/><g id="_Group_" data-name="&lt;Group&gt;"><path id="_Path_3" data-name="&lt;Path&gt;" class="cls-5" d="M102.77,24.77c6.87,1.95,16.12,10.56,20.74,23.3s8.13,15.36,9.4,21.07-3,13.67-3,13.67.63,18.33,3.27,26.3S145.82,133,145,146.87s-2.71,18.33-2.71,18.33,3.35,7,11.63,14.8-5.89,26-5.89,26-1.75-7.65-5.1-12.43-26.52-8.74-35.29-31.36-1.94-44-1.94-44L98.18,37.82Z"/><path id="_Path_4" data-name="&lt;Path&gt;" class="cls-6" d="M105.49,104.78l-.77,10.63s-.14,21.59,0,28.92-14,16.77-29.07,9.6-18-18.55-18-18.55L59.1,93Z"/><path id="_Path_5" data-name="&lt;Path&gt;" class="cls-5" d="M69.65,116c7.23,9.69,15.58,15.83,25.3,16.75s10-10.32,10-10.32l-25.18-7Z"/><path id="_Path_6" data-name="&lt;Path&gt;" class="cls-6" d="M87.33,124c-5-1-12.92-3-17.68-8-6.7-7-8.77-13.35-10-22.13s-5.26-37-1.28-43.52S73.22,30.23,90,33.1,116.5,47,116.66,60.34s.31,14.19.79,22.47,1.44,17.32-1.59,23.48-6.66,13.66-10.94,16.1S96,125.65,87.33,124Z"/><path id="_Path_7" data-name="&lt;Path&gt;" class="cls-5" d="M89.07,91.32c5.78,4.31,10,4.65,15.08,0A35.78,35.78,0,0,1,89.07,91.32Z"/><g id="_Group_2" data-name="&lt;Group&gt;"><g id="_Group_3" data-name="&lt;Group&gt;"><path id="_Path_8" data-name="&lt;Path&gt;" class="cls-4" d="M73.88,74.93A5,5,0,0,1,75.18,73a6.5,6.5,0,0,1,.87-.71,7.59,7.59,0,0,1,1.09-.63,9.78,9.78,0,0,1,1.28-.52,6.93,6.93,0,0,1,1.43-.26,5.48,5.48,0,0,1,1.46,0,6.78,6.78,0,0,1,1.38.33,5.58,5.58,0,0,1,1.18.56,4.32,4.32,0,0,1,.91.68,3.89,3.89,0,0,1,.67.68,6.2,6.2,0,0,1,.42.6,4.14,4.14,0,0,1,.31.55l-.61-.17-.65-.23a7.07,7.07,0,0,0-.81-.25,6.31,6.31,0,0,0-.93-.26c-.33-.05-.65-.19-1-.21a6.23,6.23,0,0,0-1.06-.09h-.54l-.55,0a10.12,10.12,0,0,0-1.09.13c-.36.07-.73.14-1.08.23-.69.2-1.34.47-1.92.67C74.78,74.63,73.88,74.93,73.88,74.93Z"/></g><path id="_Path_9" data-name="&lt;Path&gt;" class="cls-4" d="M82.09,73.24c0-1.35-1.1-1.23-2.46-1.23s-2.46-.12-2.46,1.23a2.46,2.46,0,0,0,4.92,0Z"/><path id="_Path_10" data-name="&lt;Path&gt;" class="cls-6" d="M82.93,75.17c0-.08-4.17.71-7.18.23C78.4,77.24,81.76,77.24,82.93,75.17Z"/><path id="_Path_11" data-name="&lt;Path&gt;" class="cls-4" d="M87.3,66.68c-2.7-1.7-5.29-3.22-8.74-3A11,11,0,0,0,71,68.1c4.37-1.36,5.08-2.24,8.17-1.91a33.89,33.89,0,0,1,8.16,2.35C89.16,69.25,88.57,67.48,87.3,66.68Z"/><g id="_Group_4" data-name="&lt;Group&gt;"><path id="_Path_12" data-name="&lt;Path&gt;" class="cls-4" d="M72.71,73.46a3.07,3.07,0,0,1,.23-.69A6.53,6.53,0,0,1,74,71.15a7.05,7.05,0,0,1,2.24-1.65A7.22,7.22,0,0,1,77.72,69a10.71,10.71,0,0,1,1.6-.28,12.38,12.38,0,0,1,1.61,0,4.21,4.21,0,0,1,.78.08,5.86,5.86,0,0,1,.77.14,6.76,6.76,0,0,1,1.4.46A6.61,6.61,0,0,1,85,70a5.54,5.54,0,0,1,1.38,1.37,2.6,2.6,0,0,1,.35.63,4.54,4.54,0,0,0-.5-.5,6.22,6.22,0,0,0-1.52-1,8.16,8.16,0,0,0-1.12-.44,7.59,7.59,0,0,0-1.31-.29,9,9,0,0,0-1.42-.13,14.55,14.55,0,0,0-1.48,0,10.09,10.09,0,0,0-1.46.23,7.39,7.39,0,0,0-1.36.4,8,8,0,0,0-3.48,2.56A6.13,6.13,0,0,0,72.71,73.46Z"/></g></g><g id="_Group_5" data-name="&lt;Group&gt;"><g id="_Group_6" data-name="&lt;Group&gt;"><path id="_Path_13" data-name="&lt;Path&gt;" class="cls-4" d="M114.49,74.93s-.91-.3-2.06-.74c-.59-.2-1.23-.47-1.93-.67-.35-.09-.71-.16-1.07-.23a10.3,10.3,0,0,0-1.1-.13l-.54,0h-.54a6.23,6.23,0,0,0-1.06.09c-.35,0-.67.16-1,.21a6,6,0,0,0-.93.26,7.26,7.26,0,0,0-.82.25l-.64.23-.62.17a5.44,5.44,0,0,1,.32-.55,6.2,6.2,0,0,1,.42-.6,3.49,3.49,0,0,1,.66-.68,4.67,4.67,0,0,1,.92-.68,5.15,5.15,0,0,1,1.18-.56,6.22,6.22,0,0,1,1.37-.32,5.17,5.17,0,0,1,1.47,0,6.71,6.71,0,0,1,1.42.26,8.76,8.76,0,0,1,1.28.52,7.28,7.28,0,0,1,2,1.34A5,5,0,0,1,114.49,74.93Z"/></g><path id="_Path_14" data-name="&lt;Path&gt;" class="cls-4" d="M109.49,73.55c0-1.36-1.1-1.24-2.45-1.24s-2.46-.12-2.46,1.24a2.46,2.46,0,1,0,4.91,0Z"/><path id="_Path_15" data-name="&lt;Path&gt;" class="cls-6" d="M110.39,75.48c0-.08-4.22.38-7.18-.34C105.71,77.19,109.06,77.45,110.39,75.48Z"/><path id="_Path_16" data-name="&lt;Path&gt;" class="cls-4" d="M102.5,67.71c-1.9-.08-1-1.69.71-2.73s6.55-1.58,8.74-1.2,4.75,2.84,5.51,4.59C113,65.64,112.39,65.73,110,66S103.75,67.77,102.5,67.71Z"/><g id="_Group_7" data-name="&lt;Group&gt;"><path id="_Path_17" data-name="&lt;Path&gt;" class="cls-4" d="M100.77,73.38a2.77,2.77,0,0,1,.19-.71,6,6,0,0,1,.35-.78,6.26,6.26,0,0,1,.63-.91,5.74,5.74,0,0,1,1-.91,6.74,6.74,0,0,1,1.29-.76l.73-.29c.25-.08.52-.14.78-.21a9.7,9.7,0,0,1,1.62-.21c.28,0,.52,0,.83,0s.51,0,.79.07a7.36,7.36,0,0,1,1.57.42,6.3,6.3,0,0,1,1.32.68,6.85,6.85,0,0,1,1,.82,8.52,8.52,0,0,1,1.24,1.48,5.24,5.24,0,0,1,.36.64s-.18-.2-.5-.52A10.47,10.47,0,0,0,112.54,71a8.8,8.8,0,0,0-1.05-.62,8,8,0,0,0-1.24-.5,7.24,7.24,0,0,0-1.37-.28c-.22,0-.5,0-.76,0s-.49,0-.73,0a10.17,10.17,0,0,0-1.47.17l-.71.16-.67.21a10.22,10.22,0,0,0-1.2.57,8.46,8.46,0,0,0-1,.69,6.54,6.54,0,0,0-1.23,1.37A4.42,4.42,0,0,0,100.77,73.38Z"/></g></g><g id="_Group_8" data-name="&lt;Group&gt;"><path id="_Path_18" data-name="&lt;Path&gt;" class="cls-4" d="M81.57,100.72s4.09,6.08,15.19,5.54,11.58-5.2,11.58-5.2c-1.33-.38-14.34-.65-14.34-.65Z"/><path id="_Path_19" data-name="&lt;Path&gt;" class="cls-6" d="M83.93,101.21a20.23,20.23,0,0,0,12.83,5.05c7.56,0,10-5.05,10-5.05Z"/><path id="_Path_20" data-name="&lt;Path&gt;" class="cls-5" d="M81.57,100.72a76.41,76.41,0,0,0,14.94,1.77c9,.27,11.83-1.43,11.83-1.43a44.81,44.81,0,0,0-14-1.86C87.13,99.54,82.81,100,81.57,100.72Z"/></g><path id="_Path_21" data-name="&lt;Path&gt;" class="cls-5" d="M60.22,83s.74-9,3.26-12.56S59.89,64,61.89,56.51a24.22,24.22,0,0,1,20.6-18.32c8.35-1.11,19.14-1.3,24.9,2.54s6.08-16.56-12.72-18.31S71,30.86,71,30.86A24.89,24.89,0,0,0,48.53,44.18c-7.81,14.34-8,73.94-16.26,87s-.36,16,2,20.63c7.07,13.92,11.47,24.83,21.35,30.92,11.27,6.93,11.64,15.45,11.64,15.45s-3.83-5.57,1.75-22,10.82-26.73,3-43.94A202.09,202.09,0,0,1,60.1,96.85Z"/><path id="_Path_22" data-name="&lt;Path&gt;" class="cls-6" d="M62.08,87.83c-.89-4.4-3.59-7.8-6.63-11.08-1.77,5.53-2.82,9-4.19,14.6,1,3.89,4.21,7.91,7.05,7.52,5.92-.79,4.36-4.05,4.36-4.05S63.16,93.08,62.08,87.83Z"/></g></g></g></svg>