<svg xmlns="http://www.w3.org/2000/svg" viewBox="0 0 180 180"><defs><style>.cls-1{fill:#6ed3f3;}.cls-2{fill:#091440;}.cls-3{fill:#fff;}.cls-4{fill:#848aa0;}</style></defs><title>vctt</title><g id="illustrations"><g id="_Group_" data-name="&lt;Group&gt;"><path id="_Path_" data-name="&lt;Path&gt;" class="cls-1" d="M62.14,80.74v.06l.23.17c0-.14-.07-.27-.1-.4Z"/><path id="_Path_2" data-name="&lt;Path&gt;" class="cls-1" d="M62.9,106.69a45.48,45.48,0,0,0-.26-5C62.86,104.56,62.9,106.69,62.9,106.69Z"/><path id="_Path_3" data-name="&lt;Path&gt;" class="cls-1" d="M60.32,130c1.5-5.39,2.51-15.9,2.58-23.27L58.11,91.41c-1.37-.71-3-1.62-5.11-2.8-7.27-4.15-8.11-16.18-2.25-19a5.86,5.86,0,0,1,1.63-.51c-.8-6.9-1.18-17.14.77-25.93,2.38-10.67,6.24-14.85,13.17-21.46s23-9.89,31.72-8.56A32.39,32.39,0,0,1,112.4,19l-.12-2.94a21.61,21.61,0,0,1,12.09,14.24c1.31,5.18-2,13.44-2.49,14.64,0,.61,0,1.18.07,1.72.23,5.15,2,8.61,3,11.76h0c.61.71.55,3,.55,3h0c0,.18,0,.35,0,.53a35.68,35.68,0,0,1-.77,7.13,2.39,2.39,0,0,1-.06,1.37,1.62,1.62,0,0,1-.27.48h0c-.94,5.11.87,9.52.22,15.42-.27,2.47-.72,6-1.3,9.87a7,7,0,0,1-.21,1.33c-.77,5-1.74,10.29-2.79,14.3,0,0,4.6,9.63-6,16.75a15.22,15.22,0,0,1-5.48,2.1,50.64,50.64,0,0,1-1.51,7l44.45,17.65a90,90,0,1,0-130.77-7.53Z"/><path id="_Path_4" data-name="&lt;Path&gt;" class="cls-2" d="M105,144.5s-3.56,12.35-20.52,8.14S57.3,136.1,59.34,132.57a12.34,12.34,0,0,0,1-2.61l-39.25,17.9a90,90,0,0,0,130.77,7.53l-44.45-17.65A59.51,59.51,0,0,1,105,144.5Z"/><path id="_Compound_Path_" data-name="&lt;Compound Path&gt;" class="cls-3" d="M112.9,34.23c-8-2.18-16.76-2.35-29.2,5.37a37,37,0,0,0-9.83,9.27l3.28.08s-2,2.78-4.29,5.85c-5,6.75-6.06,13.35-6,19.81a94.63,94.63,0,0,0,3.74,22.06c5.29,16.76,16,21.77,29.36,20.06s9.26-10.88,9.26-10.88l5.68.6s-.49,1-.5,4.78,4.65,6.48,5.94.63c1-4,2-9.32,2.79-14.3a8.14,8.14,0,0,1-1.44,3s.15-3.46-2.22-4.41c-4.53-1.82-11.31-.65-14.28.68a37.76,37.76,0,0,0-8.57,4.88s-3.42-4.81,1.71-8.15c4.39-2.86,9-3.65,15.89-3.51s9.21,2.56,9.14,6a1.36,1.36,0,0,0,0,.2c.58-3.84,1-7.4,1.3-9.87.65-5.9-1.16-10.31-.22-15.42h0a3.31,3.31,0,0,0-.13-.5,2.58,2.58,0,0,0-.6-1,3,3,0,0,0-.54-.43,5.68,5.68,0,0,0-.7-.33l-.37-.13-.3-.09c0,.07,0,.12,0,.2.12,1.74-.92,3.23-2.32,3.33s-2.64-1.24-2.77-3a3.33,3.33,0,0,1,0-.46c-.78.17-1.33.31-1.33.31a4.63,4.63,0,0,1,1.31-1.45A5.83,5.83,0,0,1,121,66.27a5.43,5.43,0,0,1,1.26.32c.17.07.33.13.49.21l.57.33a4.05,4.05,0,0,1,.89.81,2.87,2.87,0,0,1,.52,1,1.16,1.16,0,0,1,0,.18,35.68,35.68,0,0,0,.77-7.13c0-.18,0-.35,0-.53a7.35,7.35,0,0,0-5.33-.4c-2.79.94-5.32,2-4.76,0s3-2.87,5.79-3.24c2.62-.35,3.3.12,3.75.63-.94-3.15-2.76-6.61-3-11.76,0-.54,0-1.11-.07-1.72l-.06.16S122.46,36.83,112.9,34.23Zm4.2,30.36a7.25,7.25,0,0,1,3-1.09,5.53,5.53,0,0,1,.91,0,5.36,5.36,0,0,1,.87.17c.24.07.5.19.73.28a6.15,6.15,0,0,1,.63.35,2.31,2.31,0,0,1,.76.79.7.7,0,0,1,.12.4.94.94,0,0,0-.3-.23,3.51,3.51,0,0,0-.88-.34c-.19-.06-.4-.11-.61-.16l-.7-.16a4.53,4.53,0,0,0-.71-.11,6.06,6.06,0,0,0-.74,0,13.18,13.18,0,0,0-2.84.58l-1.34.41A6.53,6.53,0,0,1,117.1,64.59ZM79.68,62.78a14.54,14.54,0,0,1,11-6.39,43.91,43.91,0,0,1,11.48.42,3.72,3.72,0,0,1,2.65,1.83c.69,1.2,1.38,2.76.77,3.42,0,0-7.14-3.3-17.88-2-5.19.65-9.34,4.71-9.34,4.71Zm4.87,4.51a.23.23,0,0,1,0-.21,1.57,1.57,0,0,1,.32-.53,9.4,9.4,0,0,1,1.7-1.33,12.92,12.92,0,0,1,1.25-.73,14.38,14.38,0,0,1,1.47-.67A11.73,11.73,0,0,1,92.74,63a9.51,9.51,0,0,1,3.55.45A9.05,9.05,0,0,1,99,65a8.35,8.35,0,0,1,1.5,1.55,4.86,4.86,0,0,1,.44.69s-.2-.22-.58-.56a11.6,11.6,0,0,0-1.69-1.21A10.94,10.94,0,0,0,96,64.34a11.32,11.32,0,0,0-4.9-.09c-.54.11-1.07.24-1.58.39s-1,.33-1.46.51-.89.36-1.28.55-.77.34-1.07.51a4.7,4.7,0,0,0-.77.48,1.35,1.35,0,0,0-.4.4A.22.22,0,0,0,84.55,67.29Zm24.06,29.13c3-1.47,4.92.17,6.28.22s3.52-1.87,5.19,1.23-.15,3.15-.15,3.15a3.69,3.69,0,0,0-2.45-.73c-1.57,0-3,.63-6.07-.11s-8.87,1.38-11.87.12C99.54,100.3,105.63,97.89,108.61,96.42Zm-9.69-27.5a14.2,14.2,0,0,0-2.34-.81,7.9,7.9,0,0,0-1.06-.2,3.22,3.22,0,0,1,.2.88,3.16,3.16,0,0,1-6.31.45,4.52,4.52,0,0,1,0-.64l-.72.27c-1.41.56-2.38,1.06-2.38,1.06a8.86,8.86,0,0,1,2.88-2.82,7.12,7.12,0,0,1,1.35-.69l.52-.19a3,3,0,0,1,1.27-.37,1.48,1.48,0,0,1,.21,0,8,8,0,0,1,1.29-.11l.44,0h.26l.19,0c.27,0,.49.06.79.12a8.83,8.83,0,0,1,1.6.5A8.15,8.15,0,0,1,99.57,68a6.63,6.63,0,0,1,1.27,1.54,3.53,3.53,0,0,1,.33.68A15.1,15.1,0,0,0,98.92,68.92Zm20.83,15.14c2.57.16.73,3.45-1.46,3.92-6.47,1.41-13.55,1.11-15.07-2.16C103.22,85.82,113,83.66,119.75,84.06Z"/><path id="_Path_5" data-name="&lt;Path&gt;" class="cls-3" d="M84.5,152.64c17,4.21,20.52-8.14,20.52-8.14a59.51,59.51,0,0,0,2.37-6.76,50.64,50.64,0,0,0,1.51-7h-.05l-.37,2.5s-2.23,8.08-13.93,4.89S72.49,124.68,68.92,112.3h0c-1.94-5.3-3.21-11.86-4.3-19.65-.56-4-1.36-8-2.24-11.68l-.23-.17v-.06a14.61,14.61,0,0,0-1.77-5s-3.07-7.38-8-6.69a5.86,5.86,0,0,0-1.63.51c-5.86,2.86-5,14.89,2.25,19,2.06,1.18,3.74,2.09,5.11,2.8s2.59,1.31,3.37,1.67a65.71,65.71,0,0,1,1.16,8.6,45.48,45.48,0,0,1,.26,5c-.07,7.37-1.08,17.88-2.58,23.27a12.34,12.34,0,0,1-1,2.61C57.3,136.1,67.54,148.43,84.5,152.64Z"/><path id="_Path_6" data-name="&lt;Path&gt;" class="cls-4" d="M77.82,124.74c-4.11-2.76-6.87-6.92-8.9-12.44h0c3.57,12.38,13.93,22.61,25.63,25.81s13.93-4.89,13.93-4.89l.37-2.5C99.2,132.62,84.4,129.18,77.82,124.74Z"/><path id="_Path_7" data-name="&lt;Path&gt;" class="cls-2" d="M61.48,93.08c-.78-.36-1.89-.89-3.37-1.67l4.79,15.28s0-2.13-.26-5A65.71,65.71,0,0,0,61.48,93.08Z"/><path id="_Path_8" data-name="&lt;Path&gt;" class="cls-4" d="M111.41,100.18c3.12.74,4.5.16,6.07.11a3.69,3.69,0,0,1,2.45.73s1.82-.06.15-3.15-3.83-1.18-5.19-1.23-3.29-1.69-6.28-.22-9.07,3.88-9.07,3.88C102.54,101.56,108.3,99.44,111.41,100.18Z"/><path id="_Path_9" data-name="&lt;Path&gt;" class="cls-2" d="M114.21,90c-6.9-.14-11.5.65-15.89,3.51-5.13,3.34-1.71,8.15-1.71,8.15a37.76,37.76,0,0,1,8.57-4.88c3-1.33,9.75-2.5,14.28-.68,2.37,1,2.22,4.41,2.22,4.41a8.14,8.14,0,0,0,1.44-3,7,7,0,0,0,.21-1.33,1.36,1.36,0,0,1,0-.2C123.42,92.56,121.12,90.13,114.21,90Z"/><path id="_Path_10" data-name="&lt;Path&gt;" class="cls-4" d="M118.29,88c2.19-.47,4-3.76,1.46-3.92-6.75-.4-16.53,1.76-16.53,1.76C104.74,89.09,111.82,89.39,118.29,88Z"/><path id="_Path_11" data-name="&lt;Path&gt;" class="cls-2" d="M99.57,68a8.15,8.15,0,0,0-2.44-1.53,8.83,8.83,0,0,0-1.6-.5c-.3-.06-.52-.09-.79-.12l-.19,0h-.26l-.44,0a8,8,0,0,0-1.29.11,1.48,1.48,0,0,0-.21,0,3,3,0,0,0-1.27.37l-.52.19a7.12,7.12,0,0,0-1.35.69,8.86,8.86,0,0,0-2.88,2.82s1-.5,2.38-1.06l.72-.27a4.52,4.52,0,0,0,0,.64,3.16,3.16,0,0,0,6.31-.45,3.22,3.22,0,0,0-.2-.88,7.9,7.9,0,0,1,1.06.2,14.2,14.2,0,0,1,2.34.81,15.1,15.1,0,0,1,2.25,1.27,3.53,3.53,0,0,0-.33-.68A6.63,6.63,0,0,0,99.57,68Z"/><path id="_Path_12" data-name="&lt;Path&gt;" class="cls-2" d="M105.54,62.06c.61-.66-.08-2.22-.77-3.42a3.72,3.72,0,0,0-2.65-1.83,43.91,43.91,0,0,0-11.48-.42,14.54,14.54,0,0,0-11,6.39l-1.36,2s4.15-4.06,9.34-4.71C98.4,58.76,105.54,62.06,105.54,62.06Z"/><path id="_Path_13" data-name="&lt;Path&gt;" class="cls-2" d="M85,66.69a4.7,4.7,0,0,1,.77-.48c.3-.17.68-.32,1.07-.51s.83-.35,1.28-.55,1-.34,1.46-.51,1-.28,1.58-.39a11.32,11.32,0,0,1,4.9.09,10.94,10.94,0,0,1,2.65,1.11,11.6,11.6,0,0,1,1.69,1.21c.38.34.58.56.58.56a4.86,4.86,0,0,0-.44-.69A8.35,8.35,0,0,0,99,65a9.05,9.05,0,0,0-2.73-1.49A9.51,9.51,0,0,0,92.74,63a11.73,11.73,0,0,0-3.47.78,14.38,14.38,0,0,0-1.47.67,12.92,12.92,0,0,0-1.25.73,9.4,9.4,0,0,0-1.7,1.33,1.57,1.57,0,0,0-.32.53.23.23,0,0,0,0,.21.22.22,0,0,1,0-.2A1.35,1.35,0,0,1,85,66.69Z"/><path id="_Path_14" data-name="&lt;Path&gt;" class="cls-2" d="M124.18,67.94a4.05,4.05,0,0,0-.89-.81l-.57-.33c-.16-.08-.32-.14-.49-.21a5.43,5.43,0,0,0-1.26-.32,5.83,5.83,0,0,0-4.26,1.15,4.63,4.63,0,0,0-1.31,1.45s.55-.14,1.33-.31a3.33,3.33,0,0,0,0,.46c.13,1.74,1.36,3.08,2.77,3s2.44-1.59,2.32-3.33c0-.08,0-.13,0-.2l.3.09.37.13a5.68,5.68,0,0,1,.7.33,3,3,0,0,1,.54.43,2.58,2.58,0,0,1,.6,1,3.31,3.31,0,0,1,.13.5h0a1.62,1.62,0,0,0,.27-.48,2.39,2.39,0,0,0,.06-1.37,1.16,1.16,0,0,0,0-.18A2.87,2.87,0,0,0,124.18,67.94Z"/><path id="_Path_15" data-name="&lt;Path&gt;" class="cls-2" d="M121.19,57.83c-2.8.37-5.21,1.15-5.79,3.24s2,.9,4.76,0a7.35,7.35,0,0,1,5.33.4h0s.06-2.26-.55-3h0C124.49,58,123.81,57.48,121.19,57.83Z"/><path id="_Path_16" data-name="&lt;Path&gt;" class="cls-2" d="M120.16,64.48a6.06,6.06,0,0,1,.74,0,4.53,4.53,0,0,1,.71.11l.7.16c.21,0,.42.1.61.16a3.51,3.51,0,0,1,.88.34.94.94,0,0,1,.3.23.7.7,0,0,0-.12-.4,2.31,2.31,0,0,0-.76-.79,6.15,6.15,0,0,0-.63-.35c-.23-.09-.49-.21-.73-.28a5.36,5.36,0,0,0-.87-.17,5.53,5.53,0,0,0-.91,0,7.25,7.25,0,0,0-3,1.09,6.53,6.53,0,0,0-1.12.88l1.34-.41A13.18,13.18,0,0,1,120.16,64.48Z"/><path id="_Path_17" data-name="&lt;Path&gt;" class="cls-2" d="M60.37,75.75a14.61,14.61,0,0,1,1.77,5l.14-.17c0,.13.07.26.1.4.88,3.7,1.68,7.67,2.24,11.68,1.09,7.79,2.36,14.35,4.3,19.65,2,5.52,4.79,9.68,8.9,12.44,6.58,4.44,21.38,7.88,31,6h.05a15.22,15.22,0,0,0,5.48-2.1c10.55-7.12,6-16.75,6-16.75-1.29,5.85-6,3.16-5.94-.63s.5-4.78.5-4.78l-5.68-.6s4.27,9.16-9.26,10.88-24.07-3.3-29.36-20.06a94.63,94.63,0,0,1-3.74-22.06c0-6.46,1-13.06,6-19.81C75.13,51.73,77.15,49,77.15,49l-3.28-.08A37,37,0,0,1,83.7,39.6c12.44-7.72,21.2-7.55,29.2-5.37,9.56,2.6,8.92,10.91,8.92,10.91l.06-.16c.5-1.2,3.8-9.46,2.49-14.64A21.61,21.61,0,0,0,112.28,16.1L112.4,19A32.39,32.39,0,0,0,98,13.11c-8.73-1.33-24.79,1.94-31.72,8.56S55.53,32.46,53.15,43.13c-1.95,8.79-1.57,19-.77,25.93C57.3,68.37,60.37,75.75,60.37,75.75Z"/></g></g></svg>