<svg xmlns="http://www.w3.org/2000/svg" width="34" height="34" viewBox="0 0 34 34"><defs><style>.a{fill:none;}.b{fill:#fff;}</style></defs><rect class="a" width="34" height="34"/><rect class="a" width="34" height="34"/><path class="b" d="M26.62,7.215h0A23.7,23.7,0,0,0,20.761,5.4a.1.1,0,0,0-.091,0c-.261.487-.51.975-.725,1.485a21.737,21.737,0,0,0-6.528,0A15.062,15.062,0,0,0,12.68,5.4h-.091A23.7,23.7,0,0,0,6.775,7.215h0A24.14,24.14,0,0,0,2.514,23.489v.068a23.8,23.8,0,0,0,7.174,3.6.113.113,0,0,0,.1,0,18.134,18.134,0,0,0,1.462-2.38.091.091,0,0,0,0-.113h0a15.934,15.934,0,0,1-2.267-1.054s-.068-.091,0-.125h0l.442-.34a.068.068,0,0,1,.091,0,16.9,16.9,0,0,0,14.348,0,.091.091,0,0,1,.1,0l.442.34a.1.1,0,0,1,0,.136h0a14.869,14.869,0,0,1-2.267,1.054.091.091,0,0,0,0,.125h0a19.7,19.7,0,0,0,1.462,2.38.1.1,0,0,0,.1,0,23.936,23.936,0,0,0,7.14-3.6.1.1,0,0,0,0-.068,23.959,23.959,0,0,0-4.227-16.3ZM11.943,20.248a2.743,2.743,0,0,1-2.561-2.833,2.731,2.731,0,0,1,2.561-2.879,2.72,2.72,0,0,1,2.573,2.879,2.731,2.731,0,0,1-2.573,2.833Zm9.486,0a2.743,2.743,0,0,1-2.561-2.833,2.731,2.731,0,0,1,2.561-2.879A2.709,2.709,0,0,1,24,17.415a2.72,2.72,0,0,1-2.573,2.833Z" transform="translate(0.319 0.719)"/></svg>