<svg xmlns="http://www.w3.org/2000/svg" width="34" height="34" viewBox="0 0 34 34"><defs><style>.a,.b{fill:#fff;}.b{opacity:0;}</style></defs><path class="a" d="M13.753,19.622c0,1.02-.533,2.686-1.779,2.686s-1.779-1.677-1.779-2.686.521-2.675,1.779-2.675S13.753,18.614,13.753,19.622Zm14.269-2.391a10.381,10.381,0,0,1-.85,4.533c-1.836,3.717-6.9,3.638-10.517,3.638s-9.067.125-10.959-3.638a10.449,10.449,0,0,1-.975-4.533,8.387,8.387,0,0,1,2.006-5.519A7.616,7.616,0,0,1,6.352,9.3a4.817,4.817,0,0,1,.714-2.516,7.582,7.582,0,0,1,5.281,1.757,18.326,18.326,0,0,1,4.307-.487,16.751,16.751,0,0,1,3.91.442A7.514,7.514,0,0,1,25.8,6.782,4.805,4.805,0,0,1,26.5,9.3a7.469,7.469,0,0,1-.374,2.346,8.364,8.364,0,0,1,1.893,5.587ZM24.9,19.679a3.661,3.661,0,0,0-3.57-4,20.128,20.128,0,0,0-2.72.283,14.1,14.1,0,0,1-2.187.159,14.348,14.348,0,0,1-2.2-.159,19.777,19.777,0,0,0-2.709-.283c-2.267,0-3.57,1.87-3.57,4,0,4.273,3.9,4.93,7.3,4.93h2.346c3.411-.057,7.31-.714,7.31-4.987Zm-4-2.731c-1.258,0-1.779,1.666-1.779,2.675s.521,2.686,1.779,2.686,1.779-1.666,1.779-2.686S22.139,16.948,20.9,16.948Z" transform="translate(0.629 0.902)"/><rect class="b" width="34" height="34"/></svg>