<svg xmlns="http://www.w3.org/2000/svg" width="34" height="34" viewBox="0 0 34 34"><defs><style>.a{fill:#fff;}</style></defs><path class="a" d="M.9.782V33.218H3.23V34H0V0H3.23V.782Z"/><path class="a" d="M9.958,9.8v1.643h0a4.817,4.817,0,0,1,1.6-1.451,4.216,4.216,0,0,1,2.131-.521,4.941,4.941,0,0,1,2.1.453,2.924,2.924,0,0,1,1.439,1.564,5.259,5.259,0,0,1,1.5-1.417,3.91,3.91,0,0,1,2.2-.612A6.369,6.369,0,0,1,22.7,9.7a3.559,3.559,0,0,1,1.405.748,3.513,3.513,0,0,1,.918,1.349,5.553,5.553,0,0,1,.329,2.006v8.115H22.017v-7.99A2.55,2.55,0,0,0,21.767,13a1.6,1.6,0,0,0-.623-.635,2.267,2.267,0,0,0-1.133-.238,2.142,2.142,0,0,0-1.133.272,2.017,2.017,0,0,0-.68.7,2.731,2.731,0,0,0-.317.986,7.458,7.458,0,0,0-.091,1.133v6.8H14.423V14.152a2.777,2.777,0,0,0-.2-.975,1.439,1.439,0,0,0-.589-.714,2.267,2.267,0,0,0-1.2-.261,2.5,2.5,0,0,0-.623.1,2.131,2.131,0,0,0-.759.4,2.38,2.38,0,0,0-.623.771,3.4,3.4,0,0,0-.261,1.439v7.038H6.83V9.8Z" transform="translate(0.911 1.261)"/><path class="a" d="M29.485,33.218V.782H27.15V0h3.23V34H27.15v-.782Z" transform="translate(3.62)"/></svg>