<svg xmlns="http://www.w3.org/2000/svg" width="34" height="34" viewBox="0 0 34 34"><defs><style>.a,.b{fill:#fff;}.b{opacity:0;}</style></defs><path class="a" d="M10.043,7.21A8.795,8.795,0,1,0,16.274,9.8,8.829,8.829,0,0,0,10.043,7.21Zm14,.521c-2.414,0-4.375,3.717-4.375,8.307s1.961,8.307,4.375,8.307,4.386-3.717,4.386-8.307h0c0-4.59-1.961-8.307-4.386-8.307Zm6.8.861c-.85,0-1.53,3.332-1.53,7.446s.691,7.446,1.541,7.446,1.541-3.332,1.541-7.446S31.7,8.593,30.851,8.593Z" transform="translate(0.157 0.961)"/><rect class="b" width="34" height="34"/></svg>