<svg xmlns="http://www.w3.org/2000/svg" width="34" height="34" viewBox="0 0 34 34"><defs><style>.a,.b{fill:#fff;}.b{opacity:0;}</style></defs><path class="a" d="M25.309,13.73a2.618,2.618,0,0,0-1.847.771,12.523,12.523,0,0,0-6.653-2.051l1.349-6.063,4.284.963a1.9,1.9,0,0,0,1.9,1.9,1.927,1.927,0,1,0,0-3.853,1.983,1.983,0,0,0-1.723,1.065L17.9,5.423a.442.442,0,0,0-.533.34l-1.473,6.687a12.546,12.546,0,0,0-6.619,2.074A2.618,2.618,0,0,0,7.4,13.73a2.561,2.561,0,0,0-1.133,4.862,5.27,5.27,0,0,0-.113,1.2c0,4.069,4.533,7.367,10.2,7.367s10.2-3.3,10.2-7.367a4.9,4.9,0,0,0-.091-1.247,2.55,2.55,0,0,0-1.133-4.839Zm-15.1,5.123a1.915,1.915,0,1,1,.549,1.388,1.915,1.915,0,0,1-.549-1.388Zm10.4,4.533c-1.768,1.757-6.8,1.757-8.523,0a.465.465,0,1,1,.635-.669c1.36,1.383,5.837,1.405,7.242,0a.461.461,0,1,1,.635.669Zm0-2.641a1.915,1.915,0,1,1,1.915-1.915,1.915,1.915,0,0,1-1.915,1.915Z" transform="translate(0.644 0.72)"/><rect class="b" width="34" height="34"/></svg>