<svg xmlns="http://www.w3.org/2000/svg" width="34" height="34" viewBox="0 0 34 34"><defs><style>.a{fill:none;}.b{fill:#fff;}</style></defs><rect class="a" width="34" height="34"/><path class="b" d="M16.6,3A13.6,13.6,0,1,0,30.2,16.6,13.6,13.6,0,0,0,16.6,3Zm6.3,9.248c-.2,2.153-1.133,7.367-1.541,9.781-.193,1.02-.567,1.36-.929,1.394-.782.068-1.383-.521-2.153-1.02-1.19-.793-1.87-1.281-3.037-2.04-1.337-.884-.465-1.371.295-2.165.2-.215,3.683-3.4,3.751-3.661a.3.3,0,0,0-.068-.249.317.317,0,0,0-.283,0q-.17,0-5.735,3.8a2.72,2.72,0,0,1-1.473.544,9.679,9.679,0,0,1-2.108-.51c-.861-.272-1.53-.419-1.473-.884,0-.249.363-.5,1.009-.759,3.967-1.723,6.607-2.867,7.933-3.4,3.774-1.575,4.533-1.847,5.077-1.859a.941.941,0,0,1,.521.159.555.555,0,0,1,.193.374A2.074,2.074,0,0,1,22.9,12.248Z" transform="translate(0.4 0.4)"/></svg>