<svg xmlns="http://www.w3.org/2000/svg" width="34" height="34" viewBox="0 0 34 34"><defs><style>.a,.b{fill:#fff;}.b{opacity:0;}</style></defs><path class="a" d="M26.334,11.126a6.6,6.6,0,0,1,0,.669,14.4,14.4,0,0,1-14.473,14.5A14.416,14.416,0,0,1,4.03,24.024a10.982,10.982,0,0,0,1.235.1,10.2,10.2,0,0,0,6.324-2.267,5.134,5.134,0,0,1-4.771-3.536,6.8,6.8,0,0,0,.963.079,5.3,5.3,0,0,0,1.349-.181,5.089,5.089,0,0,1-4.091-5v-.057a5.247,5.247,0,0,0,2.267.646,5.123,5.123,0,0,1-1.575-6.8A14.518,14.518,0,0,0,16.236,12.35a5.746,5.746,0,0,1-.125-1.133A5.1,5.1,0,0,1,24.963,7.7,10.1,10.1,0,0,0,28.2,6.48a5.1,5.1,0,0,1-2.267,2.8A9.951,9.951,0,0,0,28.929,8.5a10.846,10.846,0,0,1-2.561,2.629Z" transform="translate(0.537 0.808)"/><rect class="b" width="34" height="34"/></svg>