<svg xmlns="http://www.w3.org/2000/svg" width="34" height="34" viewBox="0 0 34 34"><defs><style>.a,.b{fill:#fff;}.a{opacity:0;}</style></defs><rect class="a" width="34" height="34"/><path class="b" d="M29.265,9.694a3.309,3.309,0,0,0-2.346-2.357C24.856,6.77,16.56,6.77,16.56,6.77s-8.3,0-10.359.567A3.309,3.309,0,0,0,3.855,9.694,34.85,34.85,0,0,0,3.3,16.1a34.918,34.918,0,0,0,.555,6.426A3.275,3.275,0,0,0,6.2,24.79c2.063.567,10.359.567,10.359.567s8.3,0,10.359-.567a3.275,3.275,0,0,0,2.346-2.267A34.918,34.918,0,0,0,29.82,16.1,34.85,34.85,0,0,0,29.265,9.694ZM13.851,20.064V12.131L20.776,16.1Z" transform="translate(0.44 0.903)"/></svg>