<svg xmlns="http://www.w3.org/2000/svg" xmlns:xlink="http://www.w3.org/1999/xlink" width="375" height="812" viewBox="0 0 375 812"><defs><clipPath id="a"><rect width="375" height="812" transform="translate(512)" fill="none" stroke="#2970ff" stroke-width="1"/></clipPath></defs><g transform="translate(-512)"><g clip-path="url(#a)"><g transform="translate(392.124 -101.116)"><line x1="4.053" y2="37.842" transform="translate(565.586 200.744)" fill="none" stroke="#2970ff" stroke-linecap="round" stroke-width="1"/><line x1="24.862" y2="39.376" transform="translate(540.724 238.586)" fill="none" stroke="#2970ff" stroke-linecap="round" stroke-width="1"/><line x1="61.613" y1="61.234" transform="translate(405.711 66.222)" fill="none" stroke="#2970ff" stroke-linecap="round" stroke-width="1"/><line x1="64.272" y1="36.255" transform="translate(341.439 29.967)" fill="none" stroke="#2970ff" stroke-linecap="round" stroke-width="1"/><line x2="51.891" y2="47.287" transform="translate(445.453 44.651)" fill="none" stroke="#2970ff" stroke-linecap="round" stroke-width="1"/><line x2="34.018" y2="62.489" transform="translate(497.344 91.938)" fill="none" stroke="#2970ff" stroke-linecap="round" stroke-width="1"/><line y1="59.638" x2="25.63" transform="translate(295.568 64.676)" fill="none" stroke="#2970ff" stroke-linecap="round" stroke-width="1"/><line y1="34.709" x2="20.241" transform="translate(321.198 29.967)" fill="none" stroke="#2970ff" stroke-linecap="round" stroke-width="1"/><line x1="85.538" y2="0.099" transform="translate(326.483 269.229)" fill="none" stroke="#2970ff" stroke-linecap="round" stroke-width="1"/><line x1="79.685" y2="3.257" transform="translate(246.798 269.329)" fill="none" stroke="#2970ff" stroke-linecap="round" stroke-width="1"/><line x1="8.081" y1="57.18" transform="translate(569.488 330.634)" fill="none" stroke="#2970ff" stroke-linecap="round" stroke-width="1"/><line x1="28.764" y1="52.672" transform="translate(540.724 277.962)" fill="none" stroke="#2970ff" stroke-linecap="round" stroke-width="1"/><line x1="6.152" y2="83.891" transform="translate(564.9 316.326)" fill="none" stroke="#2970ff" stroke-linecap="round" stroke-width="1"/><line x1="20.07" y2="71.88" transform="translate(544.83 400.217)" fill="none" stroke="#2970ff" stroke-linecap="round" stroke-width="1"/><line y1="78.679" x2="41.4" transform="translate(480.156 351.46)" fill="none" stroke="#2970ff" stroke-linecap="round" stroke-width="1"/><line y1="73.498" x2="19.168" transform="translate(521.556 277.962)" fill="none" stroke="#2970ff" stroke-linecap="round" stroke-width="1"/><line x1="47.103" y1="6.02" transform="translate(420.374 558.103)" fill="none" stroke="#2970ff" stroke-linecap="round" stroke-width="1"/><line x1="56.975" y1="10.15" transform="translate(363.399 547.952)" fill="none" stroke="#2970ff" stroke-linecap="round" stroke-width="1"/><line x1="32.904" y1="80.038" transform="translate(275.496 346.959)" fill="none" stroke="#2970ff" stroke-linecap="round" stroke-width="1"/><line x1="28.698" y1="74.374" transform="translate(246.798 272.585)" fill="none" stroke="#2970ff" stroke-linecap="round" stroke-width="1"/><line y1="11.796" x2="100.922" transform="translate(159.927 27.634)" fill="none" stroke="#2970ff" stroke-linecap="round" stroke-width="1"/><line x2="80.59" y2="2.333" transform="translate(260.849 27.634)" fill="none" stroke="#2970ff" stroke-linecap="round" stroke-width="1"/><line x1="50.472" y1="30.296" transform="translate(69.504 162.223)" fill="none" stroke="#2970ff" stroke-linecap="round" stroke-width="1"/><line x1="29.194" y1="16.776" transform="translate(40.31 145.447)" fill="none" stroke="#2970ff" stroke-linecap="round" stroke-width="1"/><line y1="22.792" x2="23.279" transform="translate(312.606 590.088)" fill="none" stroke="#2970ff" stroke-linecap="round" stroke-width="1"/><line y1="42.136" x2="27.514" transform="translate(335.885 547.952)" fill="none" stroke="#2970ff" stroke-linecap="round" stroke-width="1"/><line y1="55.958" x2="58.777" transform="translate(127.906 323.632)" fill="none" stroke="#2970ff" stroke-linecap="round" stroke-width="1"/><line y1="51.046" x2="60.115" transform="translate(186.683 272.585)" fill="none" stroke="#2970ff" stroke-linecap="round" stroke-width="1"/><line x1="67.74" y1="42.04" transform="translate(114.211 516.862)" fill="none" stroke="#2970ff" stroke-linecap="round" stroke-width="1"/><line x1="60.433" y1="53.745" transform="translate(53.777 463.116)" fill="none" stroke="#2970ff" stroke-linecap="round" stroke-width="1"/><line y1="84.474" x2="7.913" transform="translate(0 221.408)" fill="none" stroke="#2970ff" stroke-linecap="round" stroke-width="1"/><line y1="75.961" x2="32.397" transform="translate(7.913 145.447)" fill="none" stroke="#2970ff" stroke-linecap="round" stroke-width="1"/><line x2="22.319" y2="16.651" transform="translate(531.362 154.428)" fill="none" stroke="#2970ff" stroke-linecap="round" stroke-width="1"/><line x2="15.957" y2="29.666" transform="translate(553.681 171.079)" fill="none" stroke="#2970ff" stroke-linecap="round" stroke-width="1"/><line x1="25.483" y1="75.438" transform="translate(515.242 202.524)" fill="none" stroke="#2970ff" stroke-linecap="round" stroke-width="1"/><line x1="47.918" y1="75.068" transform="translate(467.324 127.457)" fill="none" stroke="#2970ff" stroke-linecap="round" stroke-width="1"/><line x2="56.552" y2="0.175" transform="translate(341.439 29.967)" fill="none" stroke="#2970ff" stroke-linecap="round" stroke-width="1"/><line x2="47.463" y2="14.509" transform="translate(397.991 30.142)" fill="none" stroke="#2970ff" stroke-linecap="round" stroke-width="1"/><line y1="74.563" x2="22.384" transform="translate(246.798 198.023)" fill="none" stroke="#2970ff" stroke-linecap="round" stroke-width="1"/><line y1="73.708" x2="26.386" transform="translate(269.182 124.314)" fill="none" stroke="#2970ff" stroke-linecap="round" stroke-width="1"/><line x1="52.694" y1="5.678" transform="translate(488.03 272.284)" fill="none" stroke="#2970ff" stroke-linecap="round" stroke-width="1"/><line x1="76.009" y1="3.055" transform="translate(412.021 269.229)" fill="none" stroke="#2970ff" stroke-linecap="round" stroke-width="1"/><line y1="33.13" x2="20.208" transform="translate(544.83 438.966)" fill="none" stroke="#2970ff" stroke-linecap="round" stroke-width="1"/><line y1="51.153" x2="12.531" transform="translate(565.038 387.813)" fill="none" stroke="#2970ff" stroke-linecap="round" stroke-width="1"/><line x2="26.383" y2="77.036" transform="translate(531.362 154.428)" fill="none" stroke="#2970ff" stroke-linecap="round" stroke-width="1"/><line x2="13.306" y2="84.862" transform="translate(557.745 231.464)" fill="none" stroke="#2970ff" stroke-linecap="round" stroke-width="1"/><line y1="48.101" x2="60.696" transform="translate(363.399 499.851)" fill="none" stroke="#2970ff" stroke-linecap="round" stroke-width="1"/><line y1="69.713" x2="56.061" transform="translate(424.095 430.139)" fill="none" stroke="#2970ff" stroke-linecap="round" stroke-width="1"/><line x1="29.159" y2="52.106" transform="translate(515.671 472.096)" fill="none" stroke="#2970ff" stroke-linecap="round" stroke-width="1"/><line x1="48.194" y2="39.92" transform="translate(467.477 524.203)" fill="none" stroke="#2970ff" stroke-linecap="round" stroke-width="1"/><line x1="23.817" y1="49.646" transform="translate(339.582 498.306)" fill="none" stroke="#2970ff" stroke-linecap="round" stroke-width="1"/><line x1="31.181" y1="71.308" transform="translate(308.401 426.997)" fill="none" stroke="#2970ff" stroke-linecap="round" stroke-width="1"/><line y1="60.851" x2="55.575" transform="translate(40.31 84.597)" fill="none" stroke="#2970ff" stroke-linecap="round" stroke-width="1"/><line y1="45.167" x2="64.043" transform="translate(95.884 39.43)" fill="none" stroke="#2970ff" stroke-linecap="round" stroke-width="1"/><line x1="64.017" y1="41.002" transform="translate(182.781 231.583)" fill="none" stroke="#2970ff" stroke-linecap="round" stroke-width="1"/><line x1="62.805" y1="39.064" transform="translate(119.976 192.519)" fill="none" stroke="#2970ff" stroke-linecap="round" stroke-width="1"/><line x1="30.276" y1="23.005" transform="translate(311.163 6.962)" fill="none" stroke="#2970ff" stroke-linecap="round" stroke-width="1"/><line x1="24.541" y1="6.962" transform="translate(286.622)" fill="none" stroke="#2970ff" stroke-linecap="round" stroke-width="1"/><line y1="33.005" x2="27.083" transform="translate(53.777 430.111)" fill="none" stroke="#2970ff" stroke-linecap="round" stroke-width="1"/><line y1="50.522" x2="47.046" transform="translate(80.861 379.589)" fill="none" stroke="#2970ff" stroke-linecap="round" stroke-width="1"/><line x1="80.167" y2="7.643" transform="translate(283.233 547.952)" fill="none" stroke="#2970ff" stroke-linecap="round" stroke-width="1"/><line x1="101.282" y2="3.307" transform="translate(181.951 555.595)" fill="none" stroke="#2970ff" stroke-linecap="round" stroke-width="1"/><line x1="38.71" y1="72.955" transform="translate(15.067 390.161)" fill="none" stroke="#2970ff" stroke-linecap="round" stroke-width="1"/><line x1="15.067" y1="84.279" transform="translate(0 305.882)" fill="none" stroke="#2970ff" stroke-linecap="round" stroke-width="1"/><line x1="67.096" y2="55.602" transform="translate(52.879 192.519)" fill="none" stroke="#2970ff" stroke-linecap="round" stroke-width="1"/><line x1="52.879" y2="57.761" transform="translate(0 248.121)" fill="none" stroke="#2970ff" stroke-linecap="round" stroke-width="1"/><line x1="6.024" y2="92.554" transform="translate(113.951 192.519)" fill="none" stroke="#2970ff" stroke-linecap="round" stroke-width="1"/><line x2="13.955" y2="94.516" transform="translate(113.951 285.074)" fill="none" stroke="#2970ff" stroke-linecap="round" stroke-width="1"/><line x2="56.863" y2="36.215" transform="translate(0 305.882)" fill="none" stroke="#2970ff" stroke-linecap="round" stroke-width="1"/><line x2="71.043" y2="37.493" transform="translate(56.863 342.097)" fill="none" stroke="#2970ff" stroke-linecap="round" stroke-width="1"/><line x2="62.934" y2="36.639" transform="translate(181.951 558.902)" fill="none" stroke="#2970ff" stroke-linecap="round" stroke-width="1"/><line x2="67.721" y2="17.34" transform="translate(244.885 595.541)" fill="none" stroke="#2970ff" stroke-linecap="round" stroke-width="1"/><line x1="66.564" y2="9.963" transform="translate(220.058)" fill="none" stroke="#2970ff" stroke-linecap="round" stroke-width="1"/><line x1="60.131" y2="29.467" transform="translate(159.927 9.963)" fill="none" stroke="#2970ff" stroke-linecap="round" stroke-width="1"/><line x2="28.867" y2="89.054" transform="translate(127.906 379.589)" fill="none" stroke="#2970ff" stroke-linecap="round" stroke-width="1"/><line x2="25.177" y2="90.259" transform="translate(156.773 468.643)" fill="none" stroke="#2970ff" stroke-linecap="round" stroke-width="1"/><line x2="86.477" y2="30.463" transform="translate(127.906 379.589)" fill="none" stroke="#2970ff" stroke-linecap="round" stroke-width="1"/><line x2="94.018" y2="16.945" transform="translate(214.383 410.052)" fill="none" stroke="#2970ff" stroke-linecap="round" stroke-width="1"/><line y1="66.559" x2="65.614" transform="translate(181.951 492.343)" fill="none" stroke="#2970ff" stroke-linecap="round" stroke-width="1"/><line y1="65.345" x2="60.836" transform="translate(247.565 426.997)" fill="none" stroke="#2970ff" stroke-linecap="round" stroke-width="1"/><line y1="14.626" x2="80.652" transform="translate(312.606 598.254)" fill="none" stroke="#2970ff" stroke-linecap="round" stroke-width="1"/><line y1="34.131" x2="74.219" transform="translate(393.258 564.123)" fill="none" stroke="#2970ff" stroke-linecap="round" stroke-width="1"/><line x2="81.809" y2="12.676" transform="translate(286.622)" fill="none" stroke="#2970ff" stroke-linecap="round" stroke-width="1"/><line x2="77.022" y2="31.975" transform="translate(368.431 12.676)" fill="none" stroke="#2970ff" stroke-linecap="round" stroke-width="1"/><line x1="18.312" y2="71.672" transform="translate(141.615 39.43)" fill="none" stroke="#2970ff" stroke-linecap="round" stroke-width="1"/><line x1="21.639" y2="81.417" transform="translate(119.976 111.102)" fill="none" stroke="#2970ff" stroke-linecap="round" stroke-width="1"/><line x2="70.027" y2="37.535" transform="translate(159.927 39.43)" fill="none" stroke="#2970ff" stroke-linecap="round" stroke-width="1"/><line x2="65.614" y2="47.349" transform="translate(229.955 76.965)" fill="none" stroke="#2970ff" stroke-linecap="round" stroke-width="1"/><line y1="43.509" x2="83.34" transform="translate(119.976 149.011)" fill="none" stroke="#2970ff" stroke-linecap="round" stroke-width="1"/><line y1="24.696" x2="92.252" transform="translate(203.316 124.314)" fill="none" stroke="#2970ff" stroke-linecap="round" stroke-width="1"/><line x1="46.203" y2="82" transform="translate(365.818 269.229)" fill="none" stroke="#2970ff" stroke-linecap="round" stroke-width="1"/><line x1="57.417" y2="75.768" transform="translate(308.401 351.229)" fill="none" stroke="#2970ff" stroke-linecap="round" stroke-width="1"/><line x2="40.207" y2="83.581" transform="translate(412.021 269.229)" fill="none" stroke="#2970ff" stroke-linecap="round" stroke-width="1"/><line x2="27.928" y2="77.329" transform="translate(452.228 352.81)" fill="none" stroke="#2970ff" stroke-linecap="round" stroke-width="1"/><line x2="91.696" y2="5.186" transform="translate(308.401 426.997)" fill="none" stroke="#2970ff" stroke-linecap="round" stroke-width="1"/><line y1="2.044" x2="80.06" transform="translate(400.097 430.139)" fill="none" stroke="#2970ff" stroke-linecap="round" stroke-width="1"/><line x2="7.478" y2="66.594" transform="translate(480.156 430.139)" fill="none" stroke="#2970ff" stroke-linecap="round" stroke-width="1"/><line x1="20.157" y2="67.39" transform="translate(467.477 496.733)" fill="none" stroke="#2970ff" stroke-linecap="round" stroke-width="1"/><line y1="14.123" x2="60.31" transform="translate(480.156 416.016)" fill="none" stroke="#2970ff" stroke-linecap="round" stroke-width="1"/><line y1="28.203" x2="37.103" transform="translate(540.466 387.813)" fill="none" stroke="#2970ff" stroke-linecap="round" stroke-width="1"/><line y1="88.532" x2="69.239" transform="translate(467.477 475.591)" fill="none" stroke="#2970ff" stroke-linecap="round" stroke-width="1"/><line y1="87.778" x2="40.853" transform="translate(536.716 387.813)" fill="none" stroke="#2970ff" stroke-linecap="round" stroke-width="1"/><line y1="36.046" x2="8.024" transform="translate(577.57 351.767)" fill="none" stroke="#2970ff" stroke-linecap="round" stroke-width="1"/><line x1="14.543" y1="35.441" transform="translate(571.051 316.326)" fill="none" stroke="#2970ff" stroke-linecap="round" stroke-width="1"/><line y1="94.066" x2="10.591" transform="translate(577.57 293.747)" fill="none" stroke="#2970ff" stroke-linecap="round" stroke-width="1"/><line x1="18.522" y1="93.003" transform="translate(569.639 200.744)" fill="none" stroke="#2970ff" stroke-linecap="round" stroke-width="1"/><line y1="58.534" x2="10.558" transform="translate(571.051 257.792)" fill="none" stroke="#2970ff" stroke-linecap="round" stroke-width="1"/><line x1="11.971" y1="57.048" transform="translate(569.639 200.744)" fill="none" stroke="#2970ff" stroke-linecap="round" stroke-width="1"/><line x2="63.41" y2="65.583" transform="translate(295.568 124.314)" fill="none" stroke="#2970ff" stroke-linecap="round" stroke-width="1"/><line x2="53.043" y2="79.332" transform="translate(358.978 189.898)" fill="none" stroke="#2970ff" stroke-linecap="round" stroke-width="1"/><line y1="5.743" x2="91.233" transform="translate(295.568 118.572)" fill="none" stroke="#2970ff" stroke-linecap="round" stroke-width="1"/><line x2="80.523" y2="8.885" transform="translate(386.801 118.572)" fill="none" stroke="#2970ff" stroke-linecap="round" stroke-width="1"/><line y1="77.751" x2="33.367" transform="translate(412.021 191.479)" fill="none" stroke="#2970ff" stroke-linecap="round" stroke-width="1"/><line y1="64.022" x2="21.936" transform="translate(445.388 127.457)" fill="none" stroke="#2970ff" stroke-linecap="round" stroke-width="1"/><line x1="48.081" y1="82.693" transform="translate(521.558 118.051)" fill="none" stroke="#2970ff" stroke-linecap="round" stroke-width="1"/><line x1="76.105" y1="73.4" transform="translate(445.453 44.651)" fill="none" stroke="#2970ff" stroke-linecap="round" stroke-width="1"/><line x1="40.239" y1="45.769" transform="translate(529.399 154.976)" fill="none" stroke="#2970ff" stroke-linecap="round" stroke-width="1"/><line x1="62.076" y1="27.519" transform="translate(467.324 127.457)" fill="none" stroke="#2970ff" stroke-linecap="round" stroke-width="1"/><line x2="24.57" y2="36.705" transform="translate(445.453 44.651)" fill="none" stroke="#2970ff" stroke-linecap="round" stroke-width="1"/><line x1="2.7" y2="46.1" transform="translate(467.324 81.356)" fill="none" stroke="#2970ff" stroke-linecap="round" stroke-width="1"/><line y1="6.934" x2="26.038" transform="translate(515.242 195.59)" fill="none" stroke="#2970ff" stroke-linecap="round" stroke-width="1"/><line x2="11.881" y2="40.615" transform="translate(529.399 154.976)" fill="none" stroke="#2970ff" stroke-linecap="round" stroke-width="1"/><line x1="24.306" y1="42.996" transform="translate(541.28 195.59)" fill="none" stroke="#2970ff" stroke-linecap="round" stroke-width="1"/><line x1="32.513" y2="13.475" transform="translate(373.198 66.222)" fill="none" stroke="#2970ff" stroke-linecap="round" stroke-width="1"/><line x1="13.603" y1="38.875" transform="translate(373.198 79.697)" fill="none" stroke="#2970ff" stroke-linecap="round" stroke-width="1"/><line x2="52" y2="15.021" transform="translate(321.198 64.676)" fill="none" stroke="#2970ff" stroke-linecap="round" stroke-width="1"/><line x2="14.551" y2="48.77" transform="translate(565.586 238.586)" fill="none" stroke="#2970ff" stroke-linecap="round" stroke-width="1"/><line x1="8.024" y1="6.392" transform="translate(580.137 287.356)" fill="none" stroke="#2970ff" stroke-linecap="round" stroke-width="1"/><line y1="43.278" x2="10.649" transform="translate(569.488 287.356)" fill="none" stroke="#2970ff" stroke-linecap="round" stroke-width="1"/><line x1="20.89" y2="37.574" transform="translate(548.598 330.634)" fill="none" stroke="#2970ff" stroke-linecap="round" stroke-width="1"/><line y1="47.808" x2="8.132" transform="translate(540.466 368.208)" fill="none" stroke="#2970ff" stroke-linecap="round" stroke-width="1"/><line x2="27.042" y2="16.748" transform="translate(521.556 351.46)" fill="none" stroke="#2970ff" stroke-linecap="round" stroke-width="1"/><line x1="31.307" y1="25.048" transform="translate(490.249 326.412)" fill="none" stroke="#2970ff" stroke-linecap="round" stroke-width="1"/><line y1="26.398" x2="38.021" transform="translate(452.228 326.412)" fill="none" stroke="#2970ff" stroke-linecap="round" stroke-width="1"/><line x2="2.219" y2="54.128" transform="translate(488.03 272.284)" fill="none" stroke="#2970ff" stroke-linecap="round" stroke-width="1"/><line x1="51.379" y1="12.286" transform="translate(269.819 52.39)" fill="none" stroke="#2970ff" stroke-linecap="round" stroke-width="1"/><line y1="24.576" x2="39.865" transform="translate(229.955 52.39)" fill="none" stroke="#2970ff" stroke-linecap="round" stroke-width="1"/><line x2="8.97" y2="24.755" transform="translate(260.849 27.634)" fill="none" stroke="#2970ff" stroke-linecap="round" stroke-width="1"/><line x1="35.598" y2="28.286" transform="translate(384.776 558.103)" fill="none" stroke="#2970ff" stroke-linecap="round" stroke-width="1"/><line x1="8.481" y1="11.866" transform="translate(384.776 586.388)" fill="none" stroke="#2970ff" stroke-linecap="round" stroke-width="1"/><line y1="3.7" x2="48.891" transform="translate(335.885 586.388)" fill="none" stroke="#2970ff" stroke-linecap="round" stroke-width="1"/><line x1="51.354" y2="15.314" transform="translate(224.142 346.959)" fill="none" stroke="#2970ff" stroke-linecap="round" stroke-width="1"/><line y1="47.778" x2="9.759" transform="translate(214.383 362.274)" fill="none" stroke="#2970ff" stroke-linecap="round" stroke-width="1"/><line x2="37.459" y2="38.642" transform="translate(186.683 323.632)" fill="none" stroke="#2970ff" stroke-linecap="round" stroke-width="1"/><line y1="16.996" x2="1.494" transform="translate(260.849 10.638)" fill="none" stroke="#2970ff" stroke-linecap="round" stroke-width="1"/><line x2="42.284" y2="0.676" transform="translate(220.058 9.963)" fill="none" stroke="#2970ff" stroke-linecap="round" stroke-width="1"/><line x1="48.82" y2="3.676" transform="translate(262.343 6.962)" fill="none" stroke="#2970ff" stroke-linecap="round" stroke-width="1"/><line x1="49.209" y1="5.494" transform="translate(286.676 584.594)" fill="none" stroke="#2970ff" stroke-linecap="round" stroke-width="1"/><line y1="10.946" x2="41.791" transform="translate(244.885 584.594)" fill="none" stroke="#2970ff" stroke-linecap="round" stroke-width="1"/><line x2="3.444" y2="28.999" transform="translate(283.233 555.595)" fill="none" stroke="#2970ff" stroke-linecap="round" stroke-width="1"/><line x1="28.953" y1="44.003" transform="translate(157.73 279.629)" fill="none" stroke="#2970ff" stroke-linecap="round" stroke-width="1"/><line y1="5.445" x2="43.778" transform="translate(113.951 279.629)" fill="none" stroke="#2970ff" stroke-linecap="round" stroke-width="1"/><line x1="25.051" y2="48.046" transform="translate(157.73 231.583)" fill="none" stroke="#2970ff" stroke-linecap="round" stroke-width="1"/><line x1="12.479" y1="39.202" transform="translate(40.4 208.919)" fill="none" stroke="#2970ff" stroke-linecap="round" stroke-width="1"/><line y1="12.489" x2="32.487" transform="translate(7.913 208.919)" fill="none" stroke="#2970ff" stroke-linecap="round" stroke-width="1"/><line x1="29.103" y2="46.696" transform="translate(40.4 162.223)" fill="none" stroke="#2970ff" stroke-linecap="round" stroke-width="1"/><line x1="42.53" y2="6.385" transform="translate(71.421 285.074)" fill="none" stroke="#2970ff" stroke-linecap="round" stroke-width="1"/><line y1="50.638" x2="14.558" transform="translate(56.863 291.459)" fill="none" stroke="#2970ff" stroke-linecap="round" stroke-width="1"/><line x2="18.542" y2="43.338" transform="translate(52.879 248.121)" fill="none" stroke="#2970ff" stroke-linecap="round" stroke-width="1"/><line x1="32.837" y1="41.378" transform="translate(48.024 388.733)" fill="none" stroke="#2970ff" stroke-linecap="round" stroke-width="1"/><line y1="1.427" x2="32.956" transform="translate(15.067 388.733)" fill="none" stroke="#2970ff" stroke-linecap="round" stroke-width="1"/><line x1="8.84" y2="46.637" transform="translate(48.024 342.097)" fill="none" stroke="#2970ff" stroke-linecap="round" stroke-width="1"/><line x1="41.52" y2="4.584" transform="translate(115.254 468.643)" fill="none" stroke="#2970ff" stroke-linecap="round" stroke-width="1"/><line y1="43.635" x2="1.043" transform="translate(114.211 473.227)" fill="none" stroke="#2970ff" stroke-linecap="round" stroke-width="1"/><line x2="34.393" y2="43.116" transform="translate(80.861 430.111)" fill="none" stroke="#2970ff" stroke-linecap="round" stroke-width="1"/><line x1="9.083" y2="48.838" transform="translate(205.3 410.052)" fill="none" stroke="#2970ff" stroke-linecap="round" stroke-width="1"/><line x1="42.265" y1="33.453" transform="translate(205.3 458.89)" fill="none" stroke="#2970ff" stroke-linecap="round" stroke-width="1"/><line y1="9.753" x2="48.526" transform="translate(156.773 458.89)" fill="none" stroke="#2970ff" stroke-linecap="round" stroke-width="1"/><line x1="50.012" y2="19.957" transform="translate(289.571 498.306)" fill="none" stroke="#2970ff" stroke-linecap="round" stroke-width="1"/><line y1="37.332" x2="6.338" transform="translate(283.233 518.263)" fill="none" stroke="#2970ff" stroke-linecap="round" stroke-width="1"/><line x2="42.006" y2="25.92" transform="translate(247.565 492.343)" fill="none" stroke="#2970ff" stroke-linecap="round" stroke-width="1"/><line x1="37.548" y1="17.71" transform="translate(360.443 12.432)" fill="none" stroke="#2970ff" stroke-linecap="round" stroke-width="1"/><line x2="49.28" y2="5.47" transform="translate(311.163 6.962)" fill="none" stroke="#2970ff" stroke-linecap="round" stroke-width="1"/><line x1="7.988" y1="0.244" transform="translate(360.443 12.432)" fill="none" stroke="#2970ff" stroke-linecap="round" stroke-width="1"/><line x1="41.455" y2="6.111" transform="translate(100.16 111.102)" fill="none" stroke="#2970ff" stroke-linecap="round" stroke-width="1"/><line y1="45.01" x2="30.657" transform="translate(69.504 117.213)" fill="none" stroke="#2970ff" stroke-linecap="round" stroke-width="1"/><line x2="4.276" y2="32.617" transform="translate(95.884 84.597)" fill="none" stroke="#2970ff" stroke-linecap="round" stroke-width="1"/><line x1="39.469" y2="32.494" transform="translate(190.485 76.965)" fill="none" stroke="#2970ff" stroke-linecap="round" stroke-width="1"/><line x1="12.831" y1="39.551" transform="translate(190.485 109.46)" fill="none" stroke="#2970ff" stroke-linecap="round" stroke-width="1"/><line y1="1.643" x2="48.87" transform="translate(141.615 109.46)" fill="none" stroke="#2970ff" stroke-linecap="round" stroke-width="1"/><line x1="52.358" y1="8.368" transform="translate(216.824 189.655)" fill="none" stroke="#2970ff" stroke-linecap="round" stroke-width="1"/><line y1="41.929" x2="34.043" transform="translate(182.781 189.655)" fill="none" stroke="#2970ff" stroke-linecap="round" stroke-width="1"/><line x2="13.508" y2="40.644" transform="translate(203.316 149.011)" fill="none" stroke="#2970ff" stroke-linecap="round" stroke-width="1"/><line x1="41.536" y1="27.853" transform="translate(324.281 323.376)" fill="none" stroke="#2970ff" stroke-linecap="round" stroke-width="1"/><line y1="23.583" x2="48.785" transform="translate(275.496 323.376)" fill="none" stroke="#2970ff" stroke-linecap="round" stroke-width="1"/><line x1="2.201" y2="54.047" transform="translate(324.281 269.329)" fill="none" stroke="#2970ff" stroke-linecap="round" stroke-width="1"/><line x1="44.254" y2="27.012" transform="translate(407.974 352.81)" fill="none" stroke="#2970ff" stroke-linecap="round" stroke-width="1"/><line y1="52.361" x2="7.877" transform="translate(400.097 379.822)" fill="none" stroke="#2970ff" stroke-linecap="round" stroke-width="1"/><line x2="42.156" y2="28.593" transform="translate(365.818 351.229)" fill="none" stroke="#2970ff" stroke-linecap="round" stroke-width="1"/><line x1="33.974" y1="20.988" transform="translate(390.121 478.864)" fill="none" stroke="#2970ff" stroke-linecap="round" stroke-width="1"/><line y1="19.442" x2="50.539" transform="translate(339.582 478.864)" fill="none" stroke="#2970ff" stroke-linecap="round" stroke-width="1"/><line x1="9.976" y2="46.68" transform="translate(390.121 432.183)" fill="none" stroke="#2970ff" stroke-linecap="round" stroke-width="1"/><line x1="39.426" y2="24.431" transform="translate(448.208 496.733)" fill="none" stroke="#2970ff" stroke-linecap="round" stroke-width="1"/><line y1="36.939" x2="27.833" transform="translate(420.374 521.164)" fill="none" stroke="#2970ff" stroke-linecap="round" stroke-width="1"/><line x2="24.112" y2="21.312" transform="translate(424.095 499.851)" fill="none" stroke="#2970ff" stroke-linecap="round" stroke-width="1"/><line x1="14.9" y2="48.731" transform="translate(525.567 416.016)" fill="none" stroke="#2970ff" stroke-linecap="round" stroke-width="1"/><line x1="11.15" y1="10.844" transform="translate(525.567 464.747)" fill="none" stroke="#2970ff" stroke-linecap="round" stroke-width="1"/><line y1="31.986" x2="37.933" transform="translate(487.634 464.747)" fill="none" stroke="#2970ff" stroke-linecap="round" stroke-width="1"/><line x1="21.827" y2="42.087" transform="translate(543.211 438.966)" fill="none" stroke="#2970ff" stroke-linecap="round" stroke-width="1"/><line y1="43.15" x2="27.541" transform="translate(515.671 481.053)" fill="none" stroke="#2970ff" stroke-linecap="round" stroke-width="1"/><line x2="6.495" y2="5.462" transform="translate(536.716 475.591)" fill="none" stroke="#2970ff" stroke-linecap="round" stroke-width="1"/><line x1="9.919" y2="46.617" transform="translate(575.675 351.767)" fill="none" stroke="#2970ff" stroke-linecap="round" stroke-width="1"/><line y1="1.833" x2="10.776" transform="translate(564.9 398.384)" fill="none" stroke="#2970ff" stroke-linecap="round" stroke-width="1"/><line y1="40.582" x2="10.637" transform="translate(565.038 398.384)" fill="none" stroke="#2970ff" stroke-linecap="round" stroke-width="1"/><line x2="1.521" y2="7.191" transform="translate(588.161 293.747)" fill="none" stroke="#2970ff" stroke-linecap="round" stroke-width="1"/><line x2="8.072" y2="43.146" transform="translate(581.61 257.792)" fill="none" stroke="#2970ff" stroke-linecap="round" stroke-width="1"/><line y1="50.829" x2="4.088" transform="translate(585.594 300.938)" fill="none" stroke="#2970ff" stroke-linecap="round" stroke-width="1"/><line x2="14.371" y2="47.491" transform="translate(553.681 171.079)" fill="none" stroke="#2970ff" stroke-linecap="round" stroke-width="1"/><line y1="12.894" x2="10.307" transform="translate(557.745 218.57)" fill="none" stroke="#2970ff" stroke-linecap="round" stroke-width="1"/><line x1="13.558" y1="39.222" transform="translate(568.052 218.57)" fill="none" stroke="#2970ff" stroke-linecap="round" stroke-width="1"/><line x1="39.219" y2="26.794" transform="translate(319.758 189.898)" fill="none" stroke="#2970ff" stroke-linecap="round" stroke-width="1"/><line x1="6.724" y1="52.637" transform="translate(319.758 216.692)" fill="none" stroke="#2970ff" stroke-linecap="round" stroke-width="1"/><line x2="50.577" y2="18.669" transform="translate(269.182 198.023)" fill="none" stroke="#2970ff" stroke-linecap="round" stroke-width="1"/><line x2="12.038" y2="45.769" transform="translate(386.801 118.572)" fill="none" stroke="#2970ff" stroke-linecap="round" stroke-width="1"/><line x1="46.55" y1="27.138" transform="translate(398.838 164.34)" fill="none" stroke="#2970ff" stroke-linecap="round" stroke-width="1"/><line y1="25.558" x2="39.861" transform="translate(358.978 164.34)" fill="none" stroke="#2970ff" stroke-linecap="round" stroke-width="1"/><line x1="29.516" y2="17.204" transform="translate(485.726 202.524)" fill="none" stroke="#2970ff" stroke-linecap="round" stroke-width="1"/><line x1="2.304" y1="52.555" transform="translate(485.726 219.729)" fill="none" stroke="#2970ff" stroke-linecap="round" stroke-width="1"/><line x2="40.338" y2="28.25" transform="translate(445.388 191.479)" fill="none" stroke="#2970ff" stroke-linecap="round" stroke-width="1"/><line x2="6.56" y2="6.989" transform="translate(521.558 118.051)" fill="none" stroke="#2970ff" stroke-linecap="round" stroke-width="1"/><line x2="30.773" y2="33.102" transform="translate(497.344 91.938)" fill="none" stroke="#2970ff" stroke-linecap="round" stroke-width="1"/><line x1="25.563" y1="46.038" transform="translate(528.118 125.04)" fill="none" stroke="#2970ff" stroke-linecap="round" stroke-width="1"/><line x1="18.647" y1="39.658" transform="translate(510.752 115.318)" fill="none" stroke="#2970ff" stroke-linecap="round" stroke-width="1"/><line x2="40.729" y2="33.961" transform="translate(470.024 81.356)" fill="none" stroke="#2970ff" stroke-linecap="round" stroke-width="1"/><line x1="10.806" y1="2.734" transform="translate(510.752 115.318)" fill="none" stroke="#2970ff" stroke-linecap="round" stroke-width="1"/><line y1="10.931" x2="22.745" transform="translate(405.711 55.291)" fill="none" stroke="#2970ff" stroke-linecap="round" stroke-width="1"/><line x2="30.466" y2="25.149" transform="translate(397.991 30.142)" fill="none" stroke="#2970ff" stroke-linecap="round" stroke-width="1"/><line x1="41.567" y1="26.065" transform="translate(428.456 55.291)" fill="none" stroke="#2970ff" stroke-linecap="round" stroke-width="1"/></g></g></g></svg>