<svg xmlns="http://www.w3.org/2000/svg" xmlns:xlink="http://www.w3.org/1999/xlink" width="375" height="812" viewBox="0 0 375 812"><defs><clipPath id="a"><rect width="375" height="812" transform="translate(95.673 -1)" fill="none" stroke="#2970ff" stroke-width="1"/></clipPath></defs><g transform="translate(-95.109 1)" opacity="0.89"><g transform="translate(-0.564)" clip-path="url(#a)"><g transform="translate(-4739.071 -3555.783)"><line y1="115.071" x2="37.388" transform="translate(5069.389 3737.537)" fill="none" stroke="#2970ff" stroke-linecap="round" stroke-width="1"/><line x2="97.886" y2="71.117" transform="translate(5106.777 3737.537)" fill="none" stroke="#2970ff" stroke-linecap="round" stroke-width="1"/><line x1="135.274" y2="43.954" transform="translate(5069.389 3808.654)" fill="none" stroke="#2970ff" stroke-linecap="round" stroke-width="1"/><line y2="142.234" transform="translate(5204.663 3666.42)" fill="none" stroke="#2970ff" stroke-linecap="round" stroke-width="1"/><line y1="71.117" x2="97.886" transform="translate(5106.777 3666.42)" fill="none" stroke="#2970ff" stroke-linecap="round" stroke-width="1"/><line x2="120.994" transform="translate(4985.783 3737.537)" fill="none" stroke="#2970ff" stroke-linecap="round" stroke-width="1"/><line x1="83.606" y1="115.071" transform="translate(4985.783 3737.537)" fill="none" stroke="#2970ff" stroke-linecap="round" stroke-width="1"/><line x2="37.388" y2="115.071" transform="translate(5069.389 3622.466)" fill="none" stroke="#2970ff" stroke-linecap="round" stroke-width="1"/><line y1="115.071" x2="83.606" transform="translate(4985.783 3622.466)" fill="none" stroke="#2970ff" stroke-linecap="round" stroke-width="1"/><line x2="135.274" y2="43.954" transform="translate(5069.389 3622.466)" fill="none" stroke="#2970ff" stroke-linecap="round" stroke-width="1"/><line x1="23.108" y2="71.117" transform="translate(5204.663 3737.537)" fill="none" stroke="#2970ff" stroke-linecap="round" stroke-width="1"/><line x2="23.108" y2="71.117" transform="translate(5204.663 3666.42)" fill="none" stroke="#2970ff" stroke-linecap="round" stroke-width="1"/><line x1="74.776" transform="translate(5069.389 3852.608)" fill="none" stroke="#2970ff" stroke-linecap="round" stroke-width="1"/><line x1="60.497" y2="43.954" transform="translate(5144.166 3808.654)" fill="none" stroke="#2970ff" stroke-linecap="round" stroke-width="1"/><line x1="23.108" y1="71.117" transform="translate(4985.783 3737.537)" fill="none" stroke="#2970ff" stroke-linecap="round" stroke-width="1"/><line x1="60.497" y1="43.954" transform="translate(5008.892 3808.654)" fill="none" stroke="#2970ff" stroke-linecap="round" stroke-width="1"/><line y1="43.954" x2="60.497" transform="translate(5008.892 3622.466)" fill="none" stroke="#2970ff" stroke-linecap="round" stroke-width="1"/><line y1="71.117" x2="23.108" transform="translate(4985.783 3666.42)" fill="none" stroke="#2970ff" stroke-linecap="round" stroke-width="1"/><line x2="60.497" y2="43.954" transform="translate(5144.166 3622.466)" fill="none" stroke="#2970ff" stroke-linecap="round" stroke-width="1"/><line x2="74.776" transform="translate(5069.389 3622.466)" fill="none" stroke="#2970ff" stroke-linecap="round" stroke-width="1"/><line x1="83.606" y2="115.071" transform="translate(5144.166 3737.537)" fill="none" stroke="#2970ff" stroke-linecap="round" stroke-width="1"/><line x1="135.274" y1="43.954" transform="translate(5008.892 3808.654)" fill="none" stroke="#2970ff" stroke-linecap="round" stroke-width="1"/><line y1="142.234" transform="translate(5008.892 3666.42)" fill="none" stroke="#2970ff" stroke-linecap="round" stroke-width="1"/><line y1="43.954" x2="135.274" transform="translate(5008.892 3622.466)" fill="none" stroke="#2970ff" stroke-linecap="round" stroke-width="1"/><line x2="83.606" y2="115.071" transform="translate(5144.166 3622.466)" fill="none" stroke="#2970ff" stroke-linecap="round" stroke-width="1"/><line x2="37.388" y2="115.071" transform="translate(5106.777 3737.537)" fill="none" stroke="#2970ff" stroke-linecap="round" stroke-width="1"/><line x1="120.994" transform="translate(5106.777 3737.537)" fill="none" stroke="#2970ff" stroke-linecap="round" stroke-width="1"/><line x1="97.886" y2="71.117" transform="translate(5008.892 3737.537)" fill="none" stroke="#2970ff" stroke-linecap="round" stroke-width="1"/><line x1="97.886" y1="71.117" transform="translate(5008.892 3666.42)" fill="none" stroke="#2970ff" stroke-linecap="round" stroke-width="1"/><line y1="115.071" x2="37.388" transform="translate(5106.777 3622.466)" fill="none" stroke="#2970ff" stroke-linecap="round" stroke-width="1"/><line y1="43.954" x2="135.274" transform="translate(4901.287 3291.297)" fill="none" stroke="#2970ff" stroke-linecap="round" stroke-width="1"/><line x1="97.885" y1="71.117" transform="translate(4901.287 3335.25)" fill="none" stroke="#2970ff" stroke-linecap="round" stroke-width="1"/><line y1="115.071" x2="37.388" transform="translate(4999.172 3291.297)" fill="none" stroke="#2970ff" stroke-linecap="round" stroke-width="1"/><line x1="107.605" y1="331.169" transform="translate(5036.561 3291.297)" fill="none" stroke="#2970ff" stroke-linecap="round" stroke-width="1"/><line x2="107.605" y2="331.169" transform="translate(4999.172 3406.367)" fill="none" stroke="#2970ff" stroke-linecap="round" stroke-width="1"/><line x2="107.605" y2="331.169" transform="translate(4901.287 3335.25)" fill="none" stroke="#2970ff" stroke-linecap="round" stroke-width="1"/><line x2="83.606" y2="115.071" transform="translate(5480.381 3378.186)" fill="none" stroke="#2970ff" stroke-linecap="round" stroke-width="1"/><line x1="120.994" transform="translate(5442.993 3493.256)" fill="none" stroke="#2970ff" stroke-linecap="round" stroke-width="1"/><line y1="115.071" x2="37.388" transform="translate(5442.993 3378.186)" fill="none" stroke="#2970ff" stroke-linecap="round" stroke-width="1"/><line y1="244.28" x2="336.216" transform="translate(5106.777 3493.256)" fill="none" stroke="#2970ff" stroke-linecap="round" stroke-width="1"/><line x1="336.216" y2="244.28" transform="translate(5144.166 3378.186)" fill="none" stroke="#2970ff" stroke-linecap="round" stroke-width="1"/><line y1="244.28" x2="336.216" transform="translate(5227.771 3493.256)" fill="none" stroke="#2970ff" stroke-linecap="round" stroke-width="1"/><line x1="83.606" y2="115.071" transform="translate(5883.682 4274.837)" fill="none" stroke="#2970ff" stroke-linecap="round" stroke-width="1"/><line x2="37.388" y2="115.071" transform="translate(5846.293 4274.837)" fill="none" stroke="#2970ff" stroke-linecap="round" stroke-width="1"/><line x1="120.994" transform="translate(5846.293 4274.837)" fill="none" stroke="#2970ff" stroke-linecap="round" stroke-width="1"/><line x2="739.516" y2="537.302" transform="translate(5106.777 3737.537)" fill="none" stroke="#2970ff" stroke-linecap="round" stroke-width="1"/><line x1="739.516" y1="537.302" transform="translate(5227.771 3737.537)" fill="none" stroke="#2970ff" stroke-linecap="round" stroke-width="1"/><line x2="739.516" y2="537.302" transform="translate(5144.166 3852.608)" fill="none" stroke="#2970ff" stroke-linecap="round" stroke-width="1"/><line y1="142.234" transform="translate(4252.498 3666.42)" fill="none" stroke="#2970ff" stroke-linecap="round" stroke-width="1"/><line x1="97.886" y2="71.117" transform="translate(4252.498 3737.537)" fill="none" stroke="#2970ff" stroke-linecap="round" stroke-width="1"/><line x1="97.886" y1="71.117" transform="translate(4252.498 3666.42)" fill="none" stroke="#2970ff" stroke-linecap="round" stroke-width="1"/><line x1="756.394" transform="translate(4252.498 3666.42)" fill="none" stroke="#2970ff" stroke-linecap="round" stroke-width="1"/><line x2="756.394" transform="translate(4350.384 3737.537)" fill="none" stroke="#2970ff" stroke-linecap="round" stroke-width="1"/><line x2="756.394" transform="translate(4252.498 3808.654)" fill="none" stroke="#2970ff" stroke-linecap="round" stroke-width="1"/><line x1="135.274" y1="43.954" transform="translate(4433.2 5580.426)" fill="none" stroke="#2970ff" stroke-linecap="round" stroke-width="1"/><line x2="37.388" y2="115.071" transform="translate(4531.085 5509.308)" fill="none" stroke="#2970ff" stroke-linecap="round" stroke-width="1"/><line x1="97.885" y2="71.117" transform="translate(4433.2 5509.308)" fill="none" stroke="#2970ff" stroke-linecap="round" stroke-width="1"/><line x1="575.692" y2="1771.771" transform="translate(4433.2 3808.654)" fill="none" stroke="#2970ff" stroke-linecap="round" stroke-width="1"/><line y1="1771.771" x2="575.692" transform="translate(4531.085 3737.537)" fill="none" stroke="#2970ff" stroke-linecap="round" stroke-width="1"/><line y1="1771.771" x2="575.692" transform="translate(4568.474 3852.608)" fill="none" stroke="#2970ff" stroke-linecap="round" stroke-width="1"/><line x1="74.776" transform="translate(4597.484 5304.957)" fill="none" stroke="#2970ff" stroke-linecap="round" stroke-width="1"/><line x1="60.497" y1="43.954" transform="translate(4536.987 5261.003)" fill="none" stroke="#2970ff" stroke-linecap="round" stroke-width="1"/><line x1="135.274" y1="43.954" transform="translate(4536.987 5261.003)" fill="none" stroke="#2970ff" stroke-linecap="round" stroke-width="1"/><line x1="471.904" y2="1452.35" transform="translate(4536.987 3808.654)" fill="none" stroke="#2970ff" stroke-linecap="round" stroke-width="1"/><line y1="1452.35" x2="471.904" transform="translate(4672.261 3852.608)" fill="none" stroke="#2970ff" stroke-linecap="round" stroke-width="1"/><line x1="471.904" y2="1452.35" transform="translate(4597.484 3852.608)" fill="none" stroke="#2970ff" stroke-linecap="round" stroke-width="1"/><line x1="83.606" y1="115.071" transform="translate(3164.496 5060.809)" fill="none" stroke="#2970ff" stroke-linecap="round" stroke-width="1"/><line x1="23.108" y1="71.117" transform="translate(3164.496 5060.809)" fill="none" stroke="#2970ff" stroke-linecap="round" stroke-width="1"/><line x1="60.497" y1="43.954" transform="translate(3187.605 5131.926)" fill="none" stroke="#2970ff" stroke-linecap="round" stroke-width="1"/><line x1="1821.287" y2="1323.272" transform="translate(3187.605 3808.654)" fill="none" stroke="#2970ff" stroke-linecap="round" stroke-width="1"/><line y1="1323.272" x2="1821.287" transform="translate(3248.103 3852.608)" fill="none" stroke="#2970ff" stroke-linecap="round" stroke-width="1"/><line x1="1821.287" y2="1323.272" transform="translate(3164.496 3737.537)" fill="none" stroke="#2970ff" stroke-linecap="round" stroke-width="1"/><line x1="23.108" y1="71.117" transform="translate(3228.226 3737.537)" fill="none" stroke="#2970ff" stroke-linecap="round" stroke-width="1"/><line y1="71.117" x2="23.108" transform="translate(3228.226 3666.42)" fill="none" stroke="#2970ff" stroke-linecap="round" stroke-width="1"/><line y1="142.234" transform="translate(3251.334 3666.42)" fill="none" stroke="#2970ff" stroke-linecap="round" stroke-width="1"/><line x1="1757.558" transform="translate(3251.334 3666.42)" fill="none" stroke="#2970ff" stroke-linecap="round" stroke-width="1"/><line x2="1757.558" transform="translate(3251.334 3808.654)" fill="none" stroke="#2970ff" stroke-linecap="round" stroke-width="1"/><line x1="1757.558" transform="translate(3228.226 3737.537)" fill="none" stroke="#2970ff" stroke-linecap="round" stroke-width="1"/><line y1="115.071" x2="83.605" fill="none" stroke="#2970ff" stroke-linecap="round" stroke-width="1"/><line y1="43.954" x2="60.497" transform="translate(23.108)" fill="none" stroke="#2970ff" stroke-linecap="round" stroke-width="1"/><line y1="71.117" x2="23.108" transform="translate(0 43.954)" fill="none" stroke="#2970ff" stroke-linecap="round" stroke-width="1"/><line x1="4985.783" y1="3622.465" transform="translate(23.108 43.954)" fill="none" stroke="#2970ff" stroke-linecap="round" stroke-width="1"/><line x2="4985.782" y2="3622.466" transform="translate(0 115.071)" fill="none" stroke="#2970ff" stroke-linecap="round" stroke-width="1"/><line x1="4985.784" y1="3622.466" transform="translate(83.605)" fill="none" stroke="#2970ff" stroke-linecap="round" stroke-width="1"/><line y1="43.954" x2="60.497" transform="translate(4325.528 1519.321)" fill="none" stroke="#2970ff" stroke-linecap="round" stroke-width="1"/><line x2="74.776" transform="translate(4386.025 1519.321)" fill="none" stroke="#2970ff" stroke-linecap="round" stroke-width="1"/><line y1="43.954" x2="135.274" transform="translate(4325.528 1519.321)" fill="none" stroke="#2970ff" stroke-linecap="round" stroke-width="1"/><line x1="683.364" y1="2103.145" transform="translate(4460.802 1519.321)" fill="none" stroke="#2970ff" stroke-linecap="round" stroke-width="1"/><line x2="683.364" y2="2103.145" transform="translate(4325.528 1563.275)" fill="none" stroke="#2970ff" stroke-linecap="round" stroke-width="1"/><line x1="683.364" y1="2103.145" transform="translate(4386.025 1519.321)" fill="none" stroke="#2970ff" stroke-linecap="round" stroke-width="1"/><line x2="120.994" transform="translate(4219.398 3180.713)" fill="none" stroke="#2970ff" stroke-linecap="round" stroke-width="1"/><line x2="37.388" y2="115.071" transform="translate(4303.004 3065.642)" fill="none" stroke="#2970ff" stroke-linecap="round" stroke-width="1"/><line y1="115.071" x2="83.606" transform="translate(4219.398 3065.642)" fill="none" stroke="#2970ff" stroke-linecap="round" stroke-width="1"/><line x1="766.385" y1="556.824" transform="translate(4303.004 3065.642)" fill="none" stroke="#2970ff" stroke-linecap="round" stroke-width="1"/><line x2="766.385" y2="556.824" transform="translate(4219.398 3180.713)" fill="none" stroke="#2970ff" stroke-linecap="round" stroke-width="1"/><line x1="766.386" y1="556.824" transform="translate(4340.392 3180.713)" fill="none" stroke="#2970ff" stroke-linecap="round" stroke-width="1"/><line y1="71.117" x2="97.886" transform="translate(5351.856 2912.155)" fill="none" stroke="#2970ff" stroke-linecap="round" stroke-width="1"/><line x2="37.388" y2="115.071" transform="translate(5314.469 2868.2)" fill="none" stroke="#2970ff" stroke-linecap="round" stroke-width="1"/><line x2="135.274" y2="43.954" transform="translate(5314.469 2868.2)" fill="none" stroke="#2970ff" stroke-linecap="round" stroke-width="1"/><line y1="754.265" x2="245.079" transform="translate(5204.663 2912.155)" fill="none" stroke="#2970ff" stroke-linecap="round" stroke-width="1"/><line x1="245.079" y2="754.265" transform="translate(5069.389 2868.2)" fill="none" stroke="#2970ff" stroke-linecap="round" stroke-width="1"/><line x1="245.079" y2="754.265" transform="translate(5106.777 2983.272)" fill="none" stroke="#2970ff" stroke-linecap="round" stroke-width="1"/><line x2="135.274" y2="43.954" transform="translate(5487.793 2334.77)" fill="none" stroke="#2970ff" stroke-linecap="round" stroke-width="1"/><line x2="60.497" y2="43.954" transform="translate(5562.569 2334.77)" fill="none" stroke="#2970ff" stroke-linecap="round" stroke-width="1"/><line x2="74.776" transform="translate(5487.793 2334.77)" fill="none" stroke="#2970ff" stroke-linecap="round" stroke-width="1"/><line y1="1287.696" x2="418.404" transform="translate(5144.166 2334.77)" fill="none" stroke="#2970ff" stroke-linecap="round" stroke-width="1"/><line x1="418.404" y2="1287.696" transform="translate(5069.389 2334.77)" fill="none" stroke="#2970ff" stroke-linecap="round" stroke-width="1"/><line y1="1287.696" x2="418.404" transform="translate(5204.663 2378.723)" fill="none" stroke="#2970ff" stroke-linecap="round" stroke-width="1"/><line y1="115.071" x2="37.388" transform="translate(4011.416 4506.216)" fill="none" stroke="#2970ff" stroke-linecap="round" stroke-width="1"/><line x2="120.994" transform="translate(3927.81 4506.216)" fill="none" stroke="#2970ff" stroke-linecap="round" stroke-width="1"/><line x1="83.606" y1="115.071" transform="translate(3927.81 4506.216)" fill="none" stroke="#2970ff" stroke-linecap="round" stroke-width="1"/><line x1="1057.973" y2="768.679" transform="translate(3927.81 3737.537)" fill="none" stroke="#2970ff" stroke-linecap="round" stroke-width="1"/><line y1="768.679" x2="1057.973" transform="translate(4011.416 3852.608)" fill="none" stroke="#2970ff" stroke-linecap="round" stroke-width="1"/><line x1="1057.973" y2="768.679" transform="translate(4048.805 3737.537)" fill="none" stroke="#2970ff" stroke-linecap="round" stroke-width="1"/><line x1="135.274" y2="43.955" transform="translate(7064.021 9947.398)" fill="none" stroke="#2970ff" stroke-linecap="round" stroke-width="1"/><line x1="74.776" transform="translate(7064.021 9991.353)" fill="none" stroke="#2970ff" stroke-linecap="round" stroke-width="1"/><line x1="60.497" y2="43.955" transform="translate(7138.797 9947.398)" fill="none" stroke="#2970ff" stroke-linecap="round" stroke-width="1"/><line x2="1994.631" y2="6138.746" transform="translate(5144.166 3852.608)" fill="none" stroke="#2970ff" stroke-linecap="round" stroke-width="1"/><line x1="1994.631" y1="6138.744" transform="translate(5204.663 3808.654)" fill="none" stroke="#2970ff" stroke-linecap="round" stroke-width="1"/><line x2="1994.631" y2="6138.746" transform="translate(5069.389 3852.608)" fill="none" stroke="#2970ff" stroke-linecap="round" stroke-width="1"/><line y1="115.071" x2="37.388" transform="translate(5432.428 4854.838)" fill="none" stroke="#2970ff" stroke-linecap="round" stroke-width="1"/><line x2="97.885" y2="71.117" transform="translate(5469.816 4854.838)" fill="none" stroke="#2970ff" stroke-linecap="round" stroke-width="1"/><line x1="135.274" y2="43.954" transform="translate(5432.428 4925.954)" fill="none" stroke="#2970ff" stroke-linecap="round" stroke-width="1"/><line x2="363.039" y2="1117.301" transform="translate(5069.389 3852.608)" fill="none" stroke="#2970ff" stroke-linecap="round" stroke-width="1"/><line x1="363.039" y1="1117.301" transform="translate(5204.663 3808.654)" fill="none" stroke="#2970ff" stroke-linecap="round" stroke-width="1"/><line x1="363.039" y1="1117.301" transform="translate(5106.777 3737.537)" fill="none" stroke="#2970ff" stroke-linecap="round" stroke-width="1"/><line x1="23.109" y2="71.117" transform="translate(8665.848 6252.292)" fill="none" stroke="#2970ff" stroke-linecap="round" stroke-width="1"/><line x1="60.497" y2="43.954" transform="translate(8605.353 6323.408)" fill="none" stroke="#2970ff" stroke-linecap="round" stroke-width="1"/><line x1="83.606" y2="115.071" transform="translate(8605.353 6252.292)" fill="none" stroke="#2970ff" stroke-linecap="round" stroke-width="1"/><line x2="3461.186" y2="2514.755" transform="translate(5144.166 3852.608)" fill="none" stroke="#2970ff" stroke-linecap="round" stroke-width="1"/><line x1="3461.186" y1="2514.755" transform="translate(5227.771 3737.537)" fill="none" stroke="#2970ff" stroke-linecap="round" stroke-width="1"/><line x2="3461.186" y2="2514.755" transform="translate(5204.663 3808.654)" fill="none" stroke="#2970ff" stroke-linecap="round" stroke-width="1"/><line x2="23.108" y2="71.117" transform="translate(6384.489 2809.207)" fill="none" stroke="#2970ff" stroke-linecap="round" stroke-width="1"/><line x2="60.497" y2="43.954" transform="translate(6323.991 2765.253)" fill="none" stroke="#2970ff" stroke-linecap="round" stroke-width="1"/><line x2="83.606" y2="115.071" transform="translate(6323.991 2765.253)" fill="none" stroke="#2970ff" stroke-linecap="round" stroke-width="1"/><line y1="857.213" x2="1179.826" transform="translate(5227.771 2880.324)" fill="none" stroke="#2970ff" stroke-linecap="round" stroke-width="1"/><line x1="1179.826" y2="857.213" transform="translate(5144.166 2765.253)" fill="none" stroke="#2970ff" stroke-linecap="round" stroke-width="1"/><line x1="1179.826" y2="857.213" transform="translate(5204.663 2809.207)" fill="none" stroke="#2970ff" stroke-linecap="round" stroke-width="1"/><line y2="142.234" transform="translate(7959.221 3666.42)" fill="none" stroke="#2970ff" stroke-linecap="round" stroke-width="1"/><line x1="23.108" y2="71.117" transform="translate(7959.221 3737.537)" fill="none" stroke="#2970ff" stroke-linecap="round" stroke-width="1"/><line x2="23.108" y2="71.117" transform="translate(7959.221 3666.42)" fill="none" stroke="#2970ff" stroke-linecap="round" stroke-width="1"/><line x2="2754.557" transform="translate(5227.771 3737.537)" fill="none" stroke="#2970ff" stroke-linecap="round" stroke-width="1"/><line x1="2754.557" transform="translate(5204.663 3666.42)" fill="none" stroke="#2970ff" stroke-linecap="round" stroke-width="1"/><line x2="2754.557" transform="translate(5204.663 3808.654)" fill="none" stroke="#2970ff" stroke-linecap="round" stroke-width="1"/><line x2="97.885" y2="71.117" transform="translate(6331.077 3737.537)" fill="none" stroke="#2970ff" stroke-linecap="round" stroke-width="1"/><line y2="142.234" transform="translate(6428.962 3666.42)" fill="none" stroke="#2970ff" stroke-linecap="round" stroke-width="1"/><line y1="71.117" x2="97.885" transform="translate(6331.077 3666.42)" fill="none" stroke="#2970ff" stroke-linecap="round" stroke-width="1"/><line x2="1224.299" transform="translate(5204.663 3666.42)" fill="none" stroke="#2970ff" stroke-linecap="round" stroke-width="1"/><line x1="1224.3" transform="translate(5106.777 3737.537)" fill="none" stroke="#2970ff" stroke-linecap="round" stroke-width="1"/><line x2="1224.299" transform="translate(5204.663 3808.654)" fill="none" stroke="#2970ff" stroke-linecap="round" stroke-width="1"/></g></g></g></svg>